<?xml version="1.0" encoding="utf-8"?>
<!-- Generator: Adobe Illustrator 22.0.0, SVG Export Plug-In . SVG Version: 6.00 Build 0)  -->
<svg version="1.1" id="Ebene_1" xmlns="http://www.w3.org/2000/svg" xmlns:xlink="http://www.w3.org/1999/xlink" x="0px" y="0px"
	 viewBox="0 0 262 220.4" style="enable-background:new 0 0 262 220.4;" xml:space="preserve">
<style type="text/css">
	.st0{fill:url(#SVGID_1_);}
	.st1{fill:#143439;}
	.st2{fill:#B8D7DD;}
	.st3{opacity:0.8;fill:#143439;}
	.st4{fill:#FFFFFF;stroke:#143439;stroke-width:2;stroke-miterlimit:10;}
	.st5{fill:#A1D7E4;}
	.st6{opacity:0.2;fill:#192F34;}
	.st7{fill:#399FBF;}
	.st8{fill:#303B3F;}
	.st9{fill:#6EABC0;}
	.st10{opacity:0.3;fill:#588A9E;}
	.st11{fill:#BE1733;}
	.st12{fill:#97CED7;}
	.st13{fill:#5E8C9B;}
	.st14{fill:#465C61;}
	.st15{fill:#FFFFFF;}
	.st16{fill:#BD5D6D;}
	.st17{opacity:0.81;fill:#7DB9C9;}
	.st18{opacity:0.7;fill:#7DB9C9;}
	.st19{opacity:0.33;fill:#588A9E;}
	.st20{opacity:0.9;}
	.st21{clip-path:url(#SVGID_3_);}
	.st22{fill:#020203;}
	.st23{clip-path:url(#SVGID_3_);fill:#FFFFFF;}
	.st24{clip-path:url(#SVGID_3_);fill:#020203;}
	.st25{opacity:0.6;clip-path:url(#SVGID_3_);}
	.st26{opacity:0.11;clip-path:url(#SVGID_3_);}
	.st27{clip-path:url(#SVGID_5_);fill:none;stroke:#182326;stroke-width:0.66;stroke-miterlimit:10;}
	.st28{opacity:0.4;fill:#EFC94C;}
	
		.st29{opacity:0.8;fill:#FFFFFF;stroke:#8B9C9F;stroke-width:1.4847;stroke-linecap:round;stroke-linejoin:round;stroke-miterlimit:10;}
	
		.st30{opacity:0.8;fill:#FFFFFF;stroke:#8B9C9F;stroke-width:1.5536;stroke-linecap:round;stroke-linejoin:round;stroke-miterlimit:10;}
	.st31{fill:#49B697;}
	.st32{opacity:0.4;fill:#1E535F;}
	.st33{fill:#FFFFFF;stroke:#8B9C9F;stroke-width:3.1072;stroke-linecap:round;stroke-linejoin:round;stroke-miterlimit:10;}
	.st34{opacity:0.8;fill:none;stroke:#49B697;stroke-width:2.9694;stroke-linecap:round;stroke-miterlimit:10;}
	.st35{fill:#FFFFFF;stroke:#8B9C9F;stroke-width:0.7424;stroke-linecap:round;stroke-linejoin:round;stroke-miterlimit:10;}
	.st36{opacity:0.58;fill:#C8D4D6;}
	.st37{opacity:0.7;fill:#C8D4D6;}
	
		.st38{opacity:0.74;fill:#FFFFFF;stroke:#8B9C9F;stroke-width:0.5568;stroke-linecap:round;stroke-linejoin:round;stroke-miterlimit:10;}
	
		.st39{opacity:0.46;fill:#FFFFFF;stroke:#8B9C9F;stroke-width:1.1679;stroke-linecap:round;stroke-linejoin:round;stroke-miterlimit:10;}
	.st40{opacity:0.66;fill:#8B9C9F;}
	.st41{opacity:0.8;fill:none;stroke:#49B697;stroke-width:3.4297;stroke-linecap:round;stroke-miterlimit:10;}
	.st42{fill:none;stroke:#FFFFFF;stroke-width:1.5536;stroke-linecap:round;stroke-miterlimit:10;}
	.st43{opacity:0.48;fill:none;stroke:#FFFFFF;stroke-width:1.4847;stroke-miterlimit:10;}
	.st44{opacity:0.44;fill:#8B9C9F;}
	.st45{fill:#FFFFFF;stroke:#8B9C9F;stroke-width:1.4847;stroke-linecap:round;stroke-linejoin:round;stroke-miterlimit:10;}
	.st46{opacity:0.69;fill:none;stroke:#FFFFFF;stroke-width:1.4847;stroke-miterlimit:10;}
</style>
<g>
	<linearGradient id="SVGID_1_" gradientUnits="userSpaceOnUse" x1="129.3469" y1="201.1635" x2="129.3469" y2="172.5546">
		<stop  offset="5.350561e-02" style="stop-color:#A8CEDA"/>
		<stop  offset="0.4736" style="stop-color:#C0E4F0"/>
		<stop  offset="0.5167" style="stop-color:#BADCE8"/>
		<stop  offset="0.7011" style="stop-color:#A2C1CD"/>
		<stop  offset="0.8074" style="stop-color:#9AB7C3"/>
	</linearGradient>
	<path class="st0" d="M105,172.6c0,0,0,5.9,0,11c0,7.3-25.2,17.4-8.1,17.5c12.2,0.1,55.8,0.1,66.4,0c13.9-0.1-8.9-10-8.9-17.7
		c0-4.5,0-10.8,0-10.8"/>
	<path class="st1" d="M106.5,172.6c-0.1,3-0.2,6-0.3,8.9l0,1.1l0,0.6c0,0.2,0,0.3,0,0.6c-0.1,1-0.5,1.9-0.9,2.6
		c-0.9,1.5-2,2.6-3.1,3.7c-2.2,2.1-4.7,3.9-6.9,5.8c-1.1,0.9-2.3,1.9-2.9,2.9c-0.2,0.2-0.2,0.5-0.2,0.5c0,0-0.1-0.2,0-0.1
		c0.2,0.2,0.9,0.4,1.5,0.5c1.3,0.2,2.8,0.2,4.3,0.2l4.5-0.1l8.9-0.1c6-0.1,11.9-0.1,17.9-0.2c6,0,11.9,0,17.9,0.1l8.9,0.1l4.5,0.1
		c1.5,0,3,0.1,4.4,0c0.7,0,1.4-0.2,1.7-0.3c0.1,0,0.1-0.1,0.1,0c0,0-0.1,0.1-0.1,0.2c0,0.1,0-0.1-0.1-0.3c-0.3-0.4-0.7-1-1.2-1.5
		c-0.5-0.5-1-1-1.6-1.5c-2.2-2-4.6-3.8-6.7-6.1c-1.1-1.1-2.1-2.3-2.9-3.8c-0.4-0.8-0.7-1.6-0.8-2.6c0-0.6,0-0.8,0-1.2l0-1.1
		c-0.1-3-0.2-6-0.3-8.9h3.4c-0.1,3-0.2,6-0.3,8.9l0,1.1c0,0.4,0,0.8,0,1c0,0.5,0.2,1.1,0.5,1.7c0.6,1.1,1.5,2.3,2.4,3.3
		c2,2.1,4.3,4,6.5,5.9c0.6,0.5,1.1,1,1.7,1.6c0.6,0.6,1.1,1.1,1.6,2c0.2,0.4,0.5,0.9,0.5,1.8c0,0.4-0.2,0.9-0.5,1.2
		c-0.3,0.3-0.5,0.5-0.8,0.6c-0.5,0.3-1,0.4-1.4,0.5c-0.4,0.1-0.8,0.1-1.2,0.2c-1.6,0.1-3.1,0.1-4.6,0.1l-4.5,0.1l-8.9,0.1
		c-6,0.1-11.9,0.1-17.9,0.1c-6,0-11.9-0.1-17.9-0.2l-8.9-0.1l-4.5-0.1c-1.5,0-3-0.1-4.7-0.3c-0.8-0.2-1.6-0.3-2.7-1
		c-0.2-0.2-0.5-0.5-0.7-0.9c-0.2-0.4-0.2-0.8-0.1-1.2c0.1-0.7,0.4-1.1,0.6-1.5c1.1-1.5,2.3-2.4,3.4-3.4c2.3-1.9,4.7-3.7,6.8-5.7
		c1-1,2-2.1,2.6-3.2c0.3-0.6,0.5-1.1,0.5-1.6l0-2.2c0-3-0.1-6-0.3-8.9H106.5z"/>
</g>
<g>
	<path class="st2" d="M233.2,171.4H27.1c-5.5,0-10-4.5-10-10v-135c0-5.5,4.5-10,10-10h206.1c5.5,0,10,4.5,10,10v135
		C243.2,166.9,238.7,171.4,233.2,171.4z"/>
	<path class="st1" d="M233.2,173.1L47,172.6l-11.6,0l-5.8,0l-1.5,0c-0.5,0-0.9,0-1.5,0c-1.1,0-2.2-0.3-3.2-0.6
		c-2-0.7-3.9-2.1-5.1-3.8c-0.7-0.9-1.2-1.8-1.6-2.8c-0.4-1-0.6-2.1-0.7-3.2c0-0.6,0-1.1,0-1.5l0-1.5l0-2.9l0-5.8l0.1-46.6l0.1-46.6
		l0-23.3l0-5.8c0-1,0-1.9,0.1-3c0.1-1.1,0.4-2.1,0.8-3.1c0.4-1,1-1.9,1.7-2.7c0.7-0.8,1.5-1.5,2.4-2.1c0.9-0.6,1.9-1,2.9-1.3
		c1-0.3,2.1-0.4,3.1-0.5l186.2,0l11.6,0l5.8,0c1,0,1.9,0,3,0c1.1,0,2.1,0.3,3.1,0.6c2,0.7,3.8,2,5.1,3.7c0.7,0.8,1.2,1.8,1.5,2.8
		c0.4,1,0.6,2,0.7,3.1c0,0.5,0,1,0,1.5l0,1.5l0,2.9l0,5.8l0.2,46.6l0.2,46.6l0.1,23.3l0,5.8l0,1.5c0,0.5,0,1.1-0.1,1.6
		c-0.1,1.1-0.4,2.2-0.9,3.3c-0.4,1-1.1,2-1.8,2.9c-0.7,0.9-1.6,1.6-2.5,2.3c-0.9,0.6-2,1.1-3.1,1.5
		C235.5,172.9,234.4,173,233.2,173.1z M233.2,169.7c0.8,0,1.6-0.1,2.4-0.4c0.8-0.2,1.5-0.6,2.2-1c0.7-0.5,1.3-1,1.8-1.6
		c0.5-0.6,1-1.3,1.3-2.1c0.3-0.7,0.5-1.5,0.6-2.3c0-0.4,0.1-0.8,0.1-1.3l0-1.5l0-5.8l0.1-23.3l0.2-46.6l0.2-46.6l0-5.8l0-2.9l0-1.5
		c0-0.5,0-1,0-1.4c-0.2-3.5-2.6-6.8-6-7.9c-0.8-0.3-1.7-0.5-2.6-0.5c-0.9,0-1.9,0-2.9,0l-5.8,0l-11.6,0l-186.2,0
		c-3.5,0-6.9,2.2-8.3,5.5c-0.3,0.8-0.6,1.7-0.7,2.5c-0.1,0.8-0.1,1.8-0.1,2.8l0,5.8l0,23.3l0.1,46.6l0.1,46.6l0,5.8l0,2.9l0,1.5
		c0,0.5,0,1,0,1.4c0.2,3.4,2.6,6.6,5.9,7.8c0.8,0.3,1.7,0.5,2.5,0.5c0.4,0,0.9,0,1.4,0l1.5,0l5.8,0l11.6,0L233.2,169.7z"/>
</g>
<path class="st3" d="M243.2,152.5V26.4c0-5.5-4.5-10-10-10H27.1c-5.5,0-10,4.5-10,10v126.1H243.2z"/>
<rect x="26" y="25.8" class="st4" width="207.7" height="115.7"/>
<rect x="27.2" y="26.6" class="st5" width="205.4" height="34.5"/>
<rect x="104.9" y="171.8" class="st6" width="49.3" height="4.7"/>
<g>
	<circle class="st7" cx="47.4" cy="44.3" r="13.8"/>
	<path class="st8" d="M54.6,42.6l0.4,0.9c0,0,2.9-0.1,2.6-0.6C57.3,42.5,54.6,42.6,54.6,42.6z"/>
	<path class="st9" d="M34.7,49.6c0,0-2.2-5.5,0-10.4c1.9-4.3,4.7-5.8,4.7-5.8s1.2,0.2,1.9,0.3c0.8,0.2,2.4,0.7,2.4,0.7
		s6.3,2.1,8.9,5c2.1,2.3,2.2,4.3,2.4,5.2c0.2,0.8,0,4.1,0,4.1s3,2.3,3.6,3.1c0.6,0.7,1.4,1.4,1,2s-3.3,0.5-3.3,0.5l0.3,0.8
		c0,0-1.2,1.1-2.7,1c-1.5-0.1-5.5-1.4-6.5-2c-1-0.6-3.1-1.6-3.1-1.6s-0.3,1-0.8,1.3c-0.5,0.3-1.3,0.5-1.6,0.4
		c-0.2-0.1,0.3-1.1,0.2-1.6c0-0.5-0.6-1.4-0.6-1.4L40,50.7l-5.6-1.2"/>
	<path class="st10" d="M46.3,36.3c0,0,0.1,1.8,1.2,3c0.4,0.5,1.2,0.8,1.2,0.8s0.7,2.4,2.3,3.4s3.2,0.7,3.2,0.7s0.2,1.5,0.2,2.5
		c0,0.6-0.2,1.7-0.2,1.7l0.9,0.4c0,0,0.4-1.8,0.3-3.2c-0.1-1.2-0.6-2.9-0.6-2.9s-2.4,0.3-3.4-0.3c-1-0.7-2.3-3.2-2.3-3.2L46.3,36.3z
		"/>
	<path class="st11" d="M46.4,36.3c0,0,0.4,1.1,0.7,1.5c0.7,0.9,1.4,1.2,1.4,1.2s1.1-3.3,2-3.8s1.6-0.4,2.3-0.4
		c1.1,0.1,2.1,0.6,2.1,0.6l-1.5-1.3c0,0-0.2-0.9-0.7-0.9s-1,0.3-1,0.3s-1.6-0.7-3.5,0.2C46.9,34.3,46.4,36.3,46.4,36.3z"/>
	<path class="st12" d="M59.6,53.4c-0.5,0.1-4,0.4-7.4-1.4c-3.8-2.1-3.7-3.8-4.9-4.9c-1.5-1.3-4.2-0.8-5.6-0.8
		c-3.7-0.1-4.3-0.8-8-1.1c-0.2,0,1,4.5,1,4.5s5.1,0.6,6.8,1.3c1.7,0.8,6.4,3.2,8.4,4s3.6,1,4.6,0.9c1-0.1,2.1-1,2.1-1L56,54.2
		c0,0,0.9,0.2,2,0.1c1.4-0.1,1.5-0.7,1.5-0.7"/>
	<path class="st13" d="M50.9,52.3c0,0,1.3,0.9,2.6,1.3s2.7,1,2.9,1.1c0.1,0.2-1.2,0.1-2.2-0.1s-2-0.4-2-0.4L50.9,52.3"/>
	<path class="st14" d="M49.3,39.2c0,0,0.9,2.5,2.2,3.2c1.3,0.7,2.6,0.2,3.5,0.2c1.3,0,2.4,0.2,2.4,0.2l-2.2-2.4c0,0-1.1,0.2-2.7,0
		C50.9,40.1,49.3,39.2,49.3,39.2z"/>
	<path class="st15" d="M48.6,38.8c0,0,1.6,1.3,3.5,1.5c1.9,0.2,3,0,3,0s1-3,0.6-3.7c-0.4-0.7-0.6-1-0.6-1s-2.4-1.3-4.3-0.5
		C49.5,35.5,48.6,38.8,48.6,38.8z"/>
	<path class="st16" d="M46.3,47.6c0,0-0.1,2.7,1.7,4.2c1.6,1.4,4.3,2.4,4.3,2.4s0.2-1.3-2.4-2.3c-1.2-0.5-2.6-2.3-3-2.9
		C46.6,48.4,46.3,47.6,46.3,47.6z"/>
	<path class="st17" d="M52.7,47.8c0,0,1.6,0.2,4,2.1c1.8,1.4,2.8,2.8,2.9,3.3c0.1,0.8-0.5,0.9-0.5,0.9s-0.4-1-1.4-2.1
		C56.1,50.1,52.7,47.8,52.7,47.8z"/>
	<path class="st18" d="M39.4,33.4l-1.7,1.5c0,0,1-0.1,4.2,0.5c3,0.6,4.4,1.4,4.4,1.4l0.4-1.4l-4-1.4"/>
	<path class="st19" d="M34.7,49.6l1.2,0.1c0,0-2.2-5.1-0.2-10.1c1.6-4.3,4.3-6,4.3-6s-0.2,0-0.4,0c-0.9,0-0.7,0.3-0.7,0.3
		S36.3,35,35,38.5c-1,2.7-1.3,4.6-1.4,6.3c-0.1,1.6,0.8,4.9,0.8,4.9"/>
	<g class="st20">
		<path class="st15" d="M48.1,45.2c-0.2,0.5-0.7,0.6-1.2,0.4c-0.5-0.2-0.7-0.8-0.5-1.2c0.2-0.5,0.8-0.6,1.3-0.4
			C48.1,44.1,48.3,44.6,48.1,45.2z"/>
	</g>
	<g class="st20">
		<path class="st15" d="M55,46.7c0,0.4-0.3,0.8-0.9,0.7c-0.4-0.1-0.8-0.5-0.7-1c0.1-0.4,0.6-0.7,1.1-0.5C54.9,46.1,55,46.3,55,46.7z
			"/>
	</g>
	<g>
		<defs>
			<circle id="SVGID_2_" cx="47.3" cy="44.3" r="13.7"/>
		</defs>
		<clipPath id="SVGID_3_">
			<use xlink:href="#SVGID_2_"  style="overflow:visible;"/>
		</clipPath>
		<g class="st21">
			<path class="st22" d="M16.4,54.7c0.3-2.5,1-5,2-7.3c1-2.3,2.4-4.5,4.1-6.4c1.7-1.9,3.8-3.4,6-4.6c2.3-1.2,4.7-2,7.2-2.3l0,0.5
				c-2.4,0.3-4.8,1.2-7,2.3c-1.1,0.6-2.1,1.3-3.1,2c-1,0.8-1.9,1.6-2.7,2.5c-1.7,1.8-3,3.9-4,6.2c-1,2.3-1.7,4.7-2,7.2L16.4,54.7z"
				/>
		</g>
		<g class="st21">
			<path class="st22" d="M38.8,33.3c2.2,0,4.3,0.5,6.3,1.2c2,0.8,3.9,1.8,5.7,3c0.9,0.6,1.7,1.3,2.5,2.1c0.7,0.8,1.3,1.8,1.7,2.8
				c0.8,2.1,0.8,4.3,0.2,6.4l-0.4-0.1c0.5-2,0.5-4.2-0.3-6.1c-0.7-1.9-2.3-3.4-4-4.6c-1.7-1.2-3.6-2.2-5.5-3c-1-0.4-2-0.7-3-0.9
				c-1-0.2-2.1-0.4-3.1-0.4L38.8,33.3z"/>
		</g>
		<g class="st21">
			<path class="st22" d="M20.6,55.3c0.8-1.3,1.9-2.2,3.1-3c1.2-0.8,2.5-1.5,3.8-2c1.3-0.5,2.7-0.8,4.2-1c1.4-0.2,2.9-0.2,4.3,0.1
				L35.9,50c-1.3-0.3-2.7-0.2-4.1-0.1c-1.4,0.2-2.7,0.5-4,1c-1.3,0.5-2.6,1-3.7,1.8c-1.1,0.8-2.2,1.7-3,2.8L20.6,55.3z"/>
		</g>
		<g class="st21">
			<path class="st22" d="M16.7,54.9c-1.2,0.1-2.4,0.6-3.3,1.4c-0.9,0.8-1.7,1.8-2.4,2.9c-0.3,0.5-0.6,1.1-0.9,1.7l-0.2,0.4l-0.1,0.2
				c0,0,0,0.1,0,0.1l0,0c0,0,0,0,0-0.1c-0.1-0.1-0.2-0.1-0.2-0.1c0,0,0,0,0,0c0,0,0,0,0,0l0.8-0.5c1.1-0.7,2.3-1.3,3.5-1.7
				c1.3-0.4,2.6-0.5,3.9-0.4c1.3,0.2,2.7,0.7,3.5,1.8c0.2,0.3,0.4,0.6,0.5,0.9c0,0,0,0,0,0c0,0,0,0,0,0c0,0-0.1,0-0.1,0
				c-0.1,0,0,0,0,0c0,0,0,0,0,0l0-0.1l0-0.2c0-0.2,0-0.3,0.1-0.5c0-0.6,0-1.3,0-1.9c0-0.6-0.1-1.2-0.3-1.8c-0.2-0.6-0.4-1.2-0.8-1.5
				l0.2-0.4c0.7,0.5,0.9,1.1,1.1,1.7c0.2,0.6,0.3,1.3,0.3,2c0,0.7-0.1,1.3-0.2,1.9l-0.1,0.5l-0.1,0.2c0,0,0,0.1,0,0.1c0,0,0,0,0,0.1
				c0,0,0,0-0.1,0.1c0,0-0.1,0-0.2,0c0,0,0,0,0,0c0,0-0.1-0.1-0.1-0.1c-0.1-0.3-0.3-0.6-0.5-0.8c-0.8-1-2.1-1.3-3.3-1.5
				c-1.2-0.1-2.5,0-3.7,0.3c-1.2,0.3-2.4,0.9-3.4,1.6l-0.8,0.5c0,0,0,0-0.1,0c0,0,0,0-0.1,0c0,0-0.1,0-0.2-0.1c-0.1-0.1,0-0.1,0-0.1
				l0,0c0-0.1,0-0.1,0-0.2l0.1-0.2l0.2-0.5c0.3-0.6,0.6-1.2,0.9-1.7c0.7-1.1,1.4-2.2,2.5-3c1.1-0.8,2.3-1.4,3.7-1.4L16.7,54.9z"/>
		</g>
		<path class="st23" d="M46.1,36.6l1.1-1.6c0,0,3.3,1.2,5.3,3c1.1,1,2.8,4.6,2.8,4.6l-1.7,0.3c0,0-2.4-3.2-3.5-3.8
			C49.1,38.5,46.1,36.6,46.1,36.6z"/>
		<ellipse transform="matrix(0.1574 -0.9875 0.9875 0.1574 -4.5064 84.3425)" class="st24" cx="47.2" cy="44.8" rx="0.7" ry="0.5"/>
		<ellipse transform="matrix(0.1717 -0.9852 0.9852 0.1717 -1.1854 92.0256)" class="st24" cx="54.1" cy="46.7" rx="0.6" ry="0.4"/>
		<g class="st21">
			<path class="st22" d="M46.3,44.4c0.1-0.2,0.2-0.4,0.4-0.5c0.2-0.1,0.4-0.1,0.6-0.1c0.2,0,0.4,0.1,0.6,0.3
				c0.2,0.1,0.3,0.4,0.3,0.6c-0.1-0.2-0.2-0.3-0.4-0.4c-0.2-0.1-0.3-0.2-0.5-0.2C46.9,44,46.6,44,46.3,44.4z"/>
		</g>
		<g class="st21">
			<path class="st22" d="M53.6,46.2c0.2-0.3,0.6-0.4,1-0.3c0.2,0.1,0.4,0.2,0.4,0.3c0.1,0.2,0.1,0.4,0,0.5c0-0.4-0.2-0.6-0.5-0.7
				C54.2,46,53.9,46,53.6,46.2z"/>
		</g>
		<g class="st25">
			<path class="st22" d="M46.1,43.2c0.4-0.3,0.9-0.3,1.4-0.2c0.4,0.2,0.8,0.4,1.1,0.8l-0.1,0.1c-0.3-0.3-0.7-0.5-1.1-0.6
				c-0.4-0.2-0.8-0.1-1.2,0L46.1,43.2z"/>
		</g>
		<g class="st21">
			<path class="st22" d="M45.5,48c0.1-0.4,0.4-0.5,0.8-0.6c0.3,0,0.7,0,0.9,0.3c-0.3,0-0.6,0-0.9,0.1C46,47.7,45.8,47.8,45.5,48z"/>
		</g>
		<g class="st21">
			<path class="st22" d="M52.3,54.3c0-0.5-0.3-0.9-0.7-1.3c-0.3-0.3-0.8-0.5-1.2-0.7l0-0.2c0.5,0.1,1,0.3,1.4,0.7
				c0.2,0.2,0.3,0.4,0.4,0.7C52.4,53.7,52.4,54,52.3,54.3z"/>
		</g>
		<g class="st21">
			<path class="st22" d="M44.6,52.1c-0.1,0.6-0.4,1.1-0.8,1.5c-0.5,0.3-1,0.6-1.6,0.6c-0.1,0-0.2,0-0.3-0.1
				c-0.2-0.2-0.1-0.3-0.1-0.4c0-0.2,0.1-0.3,0.1-0.4c0.1-0.3,0.1-0.5,0.1-0.7c0-0.4-0.2-1.1-0.4-1.3l0.5-0.4
				c0.2,0.3,0.2,0.6,0.3,0.9c0,0.3,0.1,0.5,0.1,0.9c0,0.3-0.1,0.6-0.2,0.8c0,0.1-0.1,0.3-0.1,0.4c0,0.1,0,0.1-0.1,0c0,0,0.1,0,0.1,0
				c0.5,0,1-0.3,1.4-0.6c0.4-0.3,0.6-0.8,0.7-1.3L44.6,52.1z"/>
		</g>
		<g class="st21">
			<path class="st22" d="M54.9,43.3c0.5,0.1,1.1,0.1,1.6,0c0.3,0,0.5-0.1,0.8-0.2c0.1,0,0.2-0.1,0.3-0.2c0,0.1-0.1,0-0.2-0.1
				c-1-0.2-2.2-0.2-3.2,0C53.6,43,53,43,52.4,42.9c-0.6-0.1-1.2-0.3-1.6-0.7c-0.9-0.8-1.5-1.8-1.8-2.9l0,0l0.1,0.1
				c-0.7-0.4-1.2-0.8-1.8-1.3c-0.5-0.6-0.9-1.2-1.1-1.9l0,0l0-0.1l0-0.1c0.3-0.5,0.6-1,0.9-1.5c0.4-0.5,0.8-0.9,1.3-1.2
				c0.6-0.3,1.2-0.3,1.8-0.3c0.6,0,1.2,0.1,1.7,0.3l0,0l-0.2,0.1C52,33,52.6,32.9,53,33c0.4,0.1,0.8,0.5,0.7,1l0,0l-0.1-0.2
				c0.5,0.3,1,0.7,1.4,1.1c0.2,0.2,0.4,0.5,0.6,0.7c0.2,0.3,0.3,0.6,0.3,0.9c0.1,0.6,0,1.2,0,1.8c-0.1,0.6-0.2,1.2-0.4,1.8l0,0
				l0-0.2l2.4,2.7l-0.2,0.2L55,40.4l-0.1-0.1l0-0.1l0,0c0.2-0.5,0.4-1.1,0.5-1.7c0.1-0.6,0.2-1.2,0.1-1.7c0-0.3-0.1-0.5-0.3-0.8
				c-0.1-0.2-0.3-0.5-0.5-0.7c-0.4-0.4-0.8-0.8-1.3-1.1L53.4,34l0,0c0-0.3-0.2-0.5-0.5-0.6c-0.1-0.1-0.3-0.1-0.4-0.1
				c-0.1,0-0.3,0.1-0.4,0.2l-0.1,0.1l-0.1,0l0,0c-0.5-0.2-1.1-0.3-1.6-0.3c-0.5,0-1.1,0.1-1.6,0.3c-0.5,0.3-0.8,0.7-1.2,1.1
				c-0.3,0.5-0.6,0.9-0.9,1.4l0-0.1l0,0c0.2,0.6,0.6,1.3,1.1,1.7c0.5,0.5,1.1,0.9,1.7,1.3l0.1,0.1l0,0.1l0,0c0.3,1,0.9,2,1.7,2.7
				c0.8,0.7,1.9,0.7,3,0.6c1.1-0.1,2.2-0.2,3.4,0.1c0.1,0,0.1,0,0.2,0.1c0,0,0.1,0,0.1,0.1c0,0.1,0,0.2,0,0.2
				c-0.1,0.2-0.3,0.2-0.4,0.3c-0.3,0.1-0.5,0.2-0.8,0.2c-0.6,0.1-1.1,0.1-1.7,0L54.9,43.3z"/>
		</g>
		<g class="st21">
			<path class="st22" d="M49.3,39.1c1,0.4,1.9,0.8,2.9,1c0.5,0.1,1,0.2,1.5,0.2c0.5,0,1,0,1.5-0.1l0.1,0.1c-0.5,0.2-1.1,0.2-1.6,0.2
				c-0.5,0-1.1-0.1-1.6-0.2c-1-0.2-2-0.6-3-1L49.3,39.1z"/>
		</g>
		<g class="st21">
			<path class="st22" d="M48.5,38.7c0.2-0.7,0.5-1.5,0.9-2.1c0.2-0.3,0.4-0.7,0.6-1c0.2-0.3,0.6-0.6,1-0.7c0.8-0.3,1.6-0.2,2.3-0.1
				c0.8,0.1,1.5,0.4,2.1,0.8l-0.1,0.1C54.7,35.3,54,35,53.2,35c-0.7-0.1-1.5-0.2-2.2,0.1c-0.7,0.2-1.1,0.9-1.4,1.6
				c-0.3,0.7-0.6,1.4-0.8,2.1L48.5,38.7z"/>
		</g>
		<g class="st26">
			<path class="st22" d="M53.3,34.9c0.3,0.4,0.6,0.8,0.8,1.3c0.2,0.5,0.1,1,0.1,1.5c-0.2,1-0.5,1.9-0.8,2.8l-0.2-0.1
				c0.4-0.9,0.7-1.8,0.8-2.8c0.1-0.5,0.1-1,0-1.4C53.9,35.7,53.6,35.3,53.3,34.9L53.3,34.9z"/>
		</g>
		<g class="st25">
			<path class="st22" d="M53.7,45.3c0.3-0.1,0.6-0.1,0.9-0.1c0.2,0,0.3,0.1,0.4,0.2c0.1,0.1,0.3,0.2,0.3,0.4l-0.2,0.1
				c-0.1-0.2-0.4-0.3-0.6-0.3c-0.2-0.1-0.5,0-0.8,0L53.7,45.3z"/>
		</g>
	</g>
	<g>
		<defs>
			<path id="SVGID_4_" d="M30.4,28.2V60h33V28.2H30.4z M55.7,55.6c-0.6,0.2-1.9,0.2-1.9,0.2l1.7-1.8c0,0,1,0.6,1.1,0.7
				C56.9,54.9,56.3,55.4,55.7,55.6z M59.5,53.8c-0.4,0.7-3.2,0.4-3.2,0.4l2.3-2.7C58.5,51.6,59.9,53.1,59.5,53.8z"/>
		</defs>
		<clipPath id="SVGID_5_">
			<use xlink:href="#SVGID_4_"  style="overflow:visible;"/>
		</clipPath>
		<circle class="st27" cx="47.3" cy="44.3" r="13.7"/>
	</g>
	<g>
		<path class="st22" d="M55.4,53.9c0.6,0.2,1.1,0.4,1.5,0.7c0.1,0.1,0.1,0.2,0.1,0.3c0,0.1-0.1,0.1-0.2,0.1c-1.2,0-2.4-0.1-3.6-0.3
			c-1.2-0.3-2.3-0.7-3.3-1.3c-1-0.6-2-1.3-2.8-2.3c-0.8-0.9-1.2-2.1-1.2-3.4l0.3,0c0,1.1,0.4,2.3,1.1,3.2c0.7,0.9,1.7,1.6,2.7,2.2
			c1,0.6,2.1,1,3.2,1.3c1.1,0.2,2.3,0.3,3.5,0.3l-0.1,0.4c-0.5-0.3-0.9-0.5-1.4-0.7L55.4,53.9z"/>
	</g>
	<g>
		<path class="st22" d="M40.2,50.2c0.7,0.3,1.4,0.5,2.1,0.8c0.7,0.3,1.4,0.6,2.1,1c1.3,0.7,2.7,1.5,4,2.1c1.4,0.6,2.8,1.1,4.2,1.3
			c1.4,0.2,3.1,0.3,4-0.8l0.4,0.2c-0.5,0.7-1.3,1.1-2.1,1.2c-0.8,0.1-1.6,0-2.3-0.1c-1.5-0.2-3-0.8-4.4-1.4c-1.4-0.6-2.7-1.4-4-2.1
			c-1.3-0.7-2.7-1.2-4.2-1.6L40.2,50.2z"/>
	</g>
	<g>
		<path class="st22" d="M46.7,47.6c0.2,0.9,0.8,1.8,1.5,2.5c0.7,0.7,1.5,1.3,2.4,1.8c1.7,1,3.6,1.7,5.6,2c1,0.1,2,0.3,2.9-0.1
			c0.2-0.1,0.3-0.2,0.3-0.3c0-0.2-0.1-0.4-0.2-0.6c-0.2-0.4-0.5-0.8-0.9-1.2c-0.7-0.7-1.4-1.4-2.2-2c-0.8-0.6-1.7-1.1-2.5-1.7
			c1,0.2,1.9,0.7,2.8,1.3c0.8,0.6,1.6,1.3,2.3,2c0.3,0.4,0.7,0.8,1,1.2c0.1,0.2,0.3,0.5,0.2,0.9c0,0.2-0.1,0.3-0.2,0.5
			c-0.1,0.1-0.3,0.2-0.4,0.3c-1.1,0.4-2.1,0.2-3.1,0.1c-2-0.4-4-1.1-5.7-2.1c-0.9-0.5-1.7-1.1-2.4-1.9c-0.7-0.8-1.3-1.6-1.5-2.7
			L46.7,47.6z"/>
	</g>
	<g>
		<path class="st12" d="M36,48.9c0,0-0.2,1.6-1.2,2.9c-1.3,1.6-3.6,2.5-3.4,2.9c0.2,0.5,4.2,0,6.8-2c1.7-1.3,2.5-2.8,2.5-2.8"/>
		<path class="st22" d="M36,48.9c0,0.8-0.2,1.6-0.6,2.3c-0.4,0.7-1,1.3-1.6,1.8c-0.6,0.5-1.3,0.9-2,1.3c-0.1,0.1-0.2,0.1-0.2,0.2
			c-0.1,0-0.1,0.2-0.1,0.1c-0.1-0.1,0,0,0.1,0c0.1,0,0.2,0,0.3,0c0.4,0,0.7,0,1.1-0.1c1.5-0.3,3-0.8,4.3-1.6
			c1.3-0.8,2.4-1.9,3.4-3.1c-0.6,1.5-1.8,2.7-3.1,3.6c-1.4,0.9-2.9,1.4-4.5,1.6c-0.4,0.1-0.8,0.1-1.2,0.1c-0.1,0-0.2,0-0.3,0
			c-0.1,0-0.3,0-0.4-0.3c0-0.3,0.2-0.3,0.2-0.4c0.1-0.1,0.2-0.1,0.2-0.2c0.7-0.5,1.3-0.9,1.9-1.4C34.8,51.8,35.5,50.4,36,48.9
			L36,48.9z"/>
	</g>
	<path class="st10" d="M55,54.7c0,0-1.1,0.8-5-0.5c-2.3-0.7-3.2-1.8-5.1-2.9c-2.4-1.4-4.7-2.1-4.7-2.1s0,0,0,0c0,0,0,0,0,0
		c-0.1,0.1-1.2,1.9-2.9,3.2c-0.3,0.2-0.5,0.4-0.8,0.6c-2,1.2-5.2,1.8-5.2,1.8s1.1,0.1,2.5-0.1c-0.1,0-0.1,0.1-0.1,0.1s2,0,4.4-1.9
		c1.7-1.3,2.2-2.3,2.2-2.3l2.9,1.1c0,0,2,1.1,3.8,1.9s4.3,2,6.6,2.2c2.3,0.2,3.1-0.8,3.1-0.8L55,54.7z"/>
</g>
<rect x="177.4" y="63.9" class="st28" width="44" height="76.3"/>
<rect x="124.3" y="51.8" class="st15" width="96.8" height="5.2"/>
<line class="st29" x1="182.5" y1="77.1" x2="209.8" y2="77.1"/>
<line class="st29" x1="182.5" y1="82.2" x2="204.9" y2="82.2"/>
<line class="st29" x1="182.5" y1="116.4" x2="208" y2="116.4"/>
<line class="st29" x1="182.5" y1="126.7" x2="208" y2="126.7"/>
<line class="st29" x1="182.5" y1="121.4" x2="215.4" y2="121.4"/>
<line class="st29" x1="182.5" y1="92.9" x2="203" y2="92.9"/>
<line class="st29" x1="182.5" y1="98" x2="208" y2="98"/>
<line class="st30" x1="135.5" y1="96.5" x2="165.3" y2="96.5"/>
<line class="st30" x1="135.5" y1="100.4" x2="153.5" y2="100.4"/>
<line class="st30" x1="135.5" y1="104.3" x2="158.8" y2="104.3"/>
<rect x="135.5" y="117.7" class="st31" width="25.7" height="5.7"/>
<rect x="182" y="133.9" class="st32" width="35.5" height="3.5"/>
<line class="st33" x1="135.5" y1="89.7" x2="166.6" y2="89.7"/>
<line class="st34" x1="182.5" y1="69.7" x2="216.1" y2="69.7"/>
<path class="st35" d="M124.2,128.2H44.9c-0.6,0-1.2-0.5-1.2-1.2V75.5c0-0.6,0.5-1.2,1.2-1.2h79.3c0.6,0,1.2,0.5,1.2,1.2V127
	C125.3,127.6,124.8,128.2,124.2,128.2z"/>
<path class="st36" d="M125.3,79.6H43.7v-4.1c0-0.6,0.5-1.2,1.2-1.2h79.3c0.6,0,1.2,0.5,1.2,1.2V79.6z"/>
<circle class="st37" cx="122.2" cy="77.1" r="1.3"/>
<line class="st38" x1="123.4" y1="90.3" x2="45.7" y2="90.3"/>
<rect x="54.2" y="93.9" class="st36" width="9.8" height="9.8"/>
<rect x="70.4" y="93.9" class="st36" width="9.8" height="9.8"/>
<rect x="86.5" y="93.9" class="st36" width="9.8" height="9.8"/>
<rect x="102.7" y="93.9" class="st36" width="9.8" height="9.8"/>
<line class="st39" x1="54.5" y1="107.8" x2="64" y2="107.8"/>
<line class="st39" x1="54.5" y1="111.1" x2="63.5" y2="111.1"/>
<line class="st39" x1="54.5" y1="114.3" x2="64.3" y2="114.3"/>
<rect x="54.2" y="119.9" class="st40" width="8.5" height="2.2"/>
<line class="st39" x1="70.7" y1="107.8" x2="80.2" y2="107.8"/>
<line class="st39" x1="70.7" y1="111.1" x2="81.7" y2="111.1"/>
<line class="st39" x1="70.7" y1="114.3" x2="78.3" y2="114.3"/>
<rect x="70.4" y="119.9" class="st40" width="8.5" height="2.2"/>
<line class="st39" x1="86.8" y1="107.8" x2="94.7" y2="107.8"/>
<line class="st39" x1="86.8" y1="111.1" x2="98.1" y2="111.1"/>
<line class="st39" x1="86.8" y1="114.3" x2="94.2" y2="114.3"/>
<rect x="86.5" y="119.9" class="st40" width="8.5" height="2.2"/>
<line class="st39" x1="102.9" y1="107.8" x2="113.9" y2="107.8"/>
<line class="st39" x1="102.9" y1="111.1" x2="111.2" y2="111.1"/>
<line class="st39" x1="102.9" y1="114.3" x2="114.7" y2="114.3"/>
<rect x="102.7" y="119.9" class="st40" width="8.5" height="2.2"/>
<line class="st41" x1="55.3" y1="85.3" x2="100.1" y2="85.3"/>
<line class="st34" x1="182.2" y1="107.7" x2="207.6" y2="107.7"/>
<line class="st42" x1="139" y1="120.5" x2="152" y2="120.5"/>
<rect x="37.3" y="64.2" class="st5" width="131" height="4.6"/>
<line class="st43" x1="81.8" y1="35.5" x2="99.9" y2="35.5"/>
<line class="st43" x1="107" y1="35.5" x2="125" y2="35.5"/>
<line class="st43" x1="132.6" y1="35.5" x2="149.2" y2="35.5"/>
<line class="st43" x1="156.1" y1="35.5" x2="176.4" y2="35.5"/>
<line class="st43" x1="183.2" y1="35.5" x2="198.9" y2="35.5"/>
<line class="st43" x1="204" y1="35.5" x2="219.7" y2="35.5"/>
<rect x="124.3" y="51.8" class="st44" width="36.4" height="5.2"/>
<line class="st45" x1="127.8" y1="54.4" x2="151.3" y2="54.4"/>
<rect x="199.9" y="51.8" class="st7" width="21.3" height="5.2"/>
<line class="st46" x1="203.8" y1="54.4" x2="217.3" y2="54.4"/>
<line class="st46" x1="40.8" y1="66.5" x2="76" y2="66.5"/>
<rect x="37.3" y="132.1" class="st5" width="131" height="4.6"/>
<line class="st46" x1="40.8" y1="134.4" x2="76" y2="134.4"/>
</svg>
