<svg xmlns="http://www.w3.org/2000/svg" xmlns:xlink="http://www.w3.org/1999/xlink" width="1186.67" height="642.5" viewBox="0 0 1186.67 642.5">
  <defs>
    <style>
      .cls-1 {
        fill: none;
      }

      .cls-2 {
        isolation: isolate;
      }

      .cls-3 {
        fill: url(#Unbenannter_Verlauf_178);
      }

      .cls-4 {
        opacity: 0.49;
      }

      .cls-5 {
        fill: #9bc9dd;
      }

      .cls-6 {
        fill: #2c7599;
      }

      .cls-7 {
        clip-path: url(#clip-path);
      }

      .cls-33, .cls-8 {
        opacity: 0.51;
      }

      .cls-9 {
        clip-path: url(#clip-path-2);
      }

      .cls-10, .cls-26 {
        fill: #ccb57a;
      }

      .cls-11, .cls-27 {
        fill: #e2c447;
      }

      .cls-12 {
        opacity: 0.3;
      }

      .cls-13 {
        fill: #ddc14b;
      }

      .cls-14 {
        fill: #629999;
      }

      .cls-15 {
        fill: #8e8059;
      }

      .cls-16, .cls-33 {
        fill: #fff;
      }

      .cls-17 {
        fill: #e51727;
      }

      .cls-18 {
        opacity: 0.11;
      }

      .cls-19 {
        fill: url(#Unbenannter_Verlauf_178-2);
      }

      .cls-20 {
        opacity: 0.5;
      }

      .cls-21 {
        clip-path: url(#clip-path-3);
      }

      .cls-22 {
        clip-path: url(#clip-path-4);
      }

      .cls-23 {
        fill: #578a9e;
        opacity: 0.3;
        mix-blend-mode: multiply;
      }

      .cls-24 {
        fill: #afdee2;
      }

      .cls-25 {
        fill: #89cfe0;
        opacity: 0.61;
      }

      .cls-26, .cls-27 {
        stroke: #000;
        stroke-miterlimit: 10;
        stroke-width: 1.97px;
      }

      .cls-28 {
        fill: #8dbfc9;
      }

      .cls-29 {
        fill: #6daabf;
      }

      .cls-30 {
        fill: #96cdd6;
      }

      .cls-31 {
        fill: #5d8c9b;
      }

      .cls-32 {
        fill: #bc5c6c;
      }

      .cls-34 {
        fill: #d6953e;
      }

      .cls-35 {
        fill: #f9ba53;
      }

      .cls-36 {
        fill: #e58cc7;
      }

      .cls-37 {
        opacity: 0.9;
      }

      .cls-38 {
        fill: #303b3f;
      }

      .cls-39 {
        fill: #be1432;
      }

      .cls-40 {
        fill: #455b60;
      }

      .cls-41 {
        clip-path: url(#clip-path-5);
      }

      .cls-42 {
        fill: #a644a2;
      }

      .cls-43 {
        fill: #1c86ba;
      }

      .cls-44 {
        fill: #fff61b;
      }

      .cls-45 {
        fill: #98c536;
      }

      .cls-46 {
        fill: #fa9645;
      }

      .cls-47 {
        fill: #d93c3c;
      }
    </style>
    <linearGradient id="Unbenannter_Verlauf_178" data-name="Unbenannter Verlauf 178" x1="871.68" y1="610.86" x2="871.68" y2="274.8" gradientUnits="userSpaceOnUse">
      <stop offset="0.15" stop-color="#c5f0ff"/>
      <stop offset="0.7" stop-color="#e4fbff"/>
      <stop offset="0.87" stop-color="#efffff"/>
    </linearGradient>
    <clipPath id="clip-path">
      <path class="cls-1" d="M836.33,462.67s19.67-39,53-35.67S932,450,932,450s10.67-21,35-17.33,35,27,35,27,92.33-54.34,97-101.34-100.67-76-200.33-72.33-152,70.67-139.34,111.67S836.33,462.67,836.33,462.67Z"/>
    </clipPath>
    <clipPath id="clip-path-2">
      <path class="cls-1" d="M1099,411.67l32.67-285.34-152-24.66-143.34,104L727.67,382.33l84.66,91.34s37.2-44.58,74.34-47c46-3,88.33,47.66,88.33,47.66Z"/>
    </clipPath>
    <linearGradient id="Unbenannter_Verlauf_178-2" x1="1519.29" y1="543.46" x2="1519.29" y2="235.35" gradientTransform="matrix(-1, 0, 0, 1, 1814.83, 0)" xlink:href="#Unbenannter_Verlauf_178"/>
    <clipPath id="clip-path-3">
      <path class="cls-1" d="M225.66,413.33s27.67-32,59-30c42.44,2.71,72,56.34,72,56.34s58.67,13,125-45-22-140.34-82.33-162-210.67-26.67-266-1.34-54,109.34-32,139S225.66,413.33,225.66,413.33Z"/>
    </clipPath>
    <clipPath id="clip-path-4">
      <path class="cls-1" d="M486,388,363.33,32.67,232,31.33,103.33,174l53.33,71.33L124,331.67s11.18-9.39,26-6c11.66,2.66,13.66,21.33,13.66,21.33l86,50c4.34-6.67,16.67-14,31-15,27.65-1.93,62,19.33,62,19.33l78,9.34Z"/>
    </clipPath>
    <clipPath id="clip-path-5">
      <path class="cls-1" d="M392.67,297.93s9.42-4.95,34.85,2.4C450.75,307,471,343.47,471,343.47s55.56-76.22,110.62-69S698.75,390.93,698.75,390.93s11.69-3.87,36.36-1c29.17,3.43,44.59,27.77,44.59,27.77s13.5-163.91-71.86-247.32-205.57-62.8-253.55-25.89S392.67,297.93,392.67,297.93Z"/>
    </clipPath>
  </defs>
  <title>dolphin_duke_cloud_3</title>
  <g class="cls-2">
    <g id="cloud_2">
      <path class="cls-3" d="M1075.75,416.23c-5.08-78.93-73.13-141.43-156.34-141.43-66,0-122.54,39.38-145.58,95.09a74.91,74.91,0,0,0-48.39-17.62c-41.3,0-74.77,33.15-74.77,74a73.36,73.36,0,0,0,2,16.88A75,75,0,1,0,722.07,567a123.87,123.87,0,0,0,171.55,17,96.69,96.69,0,0,0,148.17-23.62,77.09,77.09,0,0,0,33.63,7.67c42.37,0,76.72-34,76.72-75.93S1118,416.4,1075.75,416.23Z"/>
      <g class="cls-4">
        <path class="cls-5" d="M601.67,556.33S628.33,599,675,591s47.07-24,47.07-24S764.33,615.67,827,610.33,893.62,584,893.62,584s44,36.29,93.38,19,54.79-42.58,54.79-42.58,40.55,17.92,75.88-6.09c52-35.33,28.66-89.33,28.66-89.33s-14.66,46.67-49.33,64-75.33-4-75.33-4-9.34,27.33-50.67,38c-25.72,6.64-67.33-20-67.33-20S853,580.33,798.33,573.67c-41.27-5-72-39.34-72-39.34S701.67,559,665,565.67,601.67,556.33,601.67,556.33Z"/>
      </g>
      <path class="cls-6" d="M1074,418.07a72.61,72.61,0,0,1-1.27-7.85l-.09-1-.1-.8-.21-1.59-.42-3.17-.2-1.59-.29-1.57-.58-3.15c-.34-2.11-.86-4.18-1.36-6.26a145,145,0,0,0-36.6-66.71,154.09,154.09,0,0,0-41-30.67A158.86,158.86,0,0,0,943,278.07a169.87,169.87,0,0,0-25.7-1.73,162.21,162.21,0,0,0-25.65,2.33,156.82,156.82,0,0,0-25,6.41,159.6,159.6,0,0,0-23.53,10.48C813,312,788.59,339,776.14,370.84h0l-1.34,3.22-2.58-2.27a71.3,71.3,0,0,0-41-17.35,72.26,72.26,0,0,0-72.85,43.84,70.43,70.43,0,0,0-3.31,44.31v0l.58,2.56-2.56.47a71.54,71.54,0,0,0-31.29,13.72A72.31,72.31,0,0,0,600.27,486l-1.67,4a21.37,21.37,0,0,0-.8,2l-.66,2.06c-.42,1.38-.94,2.73-1.28,4.13l-1,4.21a36.16,36.16,0,0,0-.69,4.27c-.15,1.43-.42,2.85-.49,4.29-.07,2.88-.33,5.75-.14,8.63a70.19,70.19,0,0,0,2.75,17,68.87,68.87,0,0,0,6.72,15.8,72.37,72.37,0,0,0,38.69,32.17,75.76,75.76,0,0,0,16.6,3.7,72.31,72.31,0,0,0,33.42-4.44,84.78,84.78,0,0,0,28.43-18.47h0l2-2,1.75,2a123.76,123.76,0,0,0,36.3,28.84,120.86,120.86,0,0,0,44.38,13.15,122.65,122.65,0,0,0,46.09-4.24c3.73-1.07,7.39-2.36,11-3.75,1.79-.75,3.59-1.47,5.36-2.27s3.54-1.6,5.25-2.54a126.53,126.53,0,0,0,19.67-12.47h0l1.65-1.25,1.58,1.34A100.63,100.63,0,0,0,912.45,594a97.26,97.26,0,0,0,19.23,7.83c1.67.46,3.35.88,5,1.28l2.54.52c.85.18,1.7.34,2.56.46l2.56.41c.85.14,1.72.21,2.58.31s1.71.22,2.58.29l2.59.17c1.72.16,3.46.12,5.19.18s3.45-.11,5.18-.15c.87,0,1.74,0,2.6-.13l2.58-.27c1.72-.18,3.44-.32,5.14-.67a90.77,90.77,0,0,0,19.95-5.48,97.45,97.45,0,0,0,18.33-9.64,92.9,92.9,0,0,0,15.82-13.42,99.43,99.43,0,0,0,12.69-16.5h0l1.24-1.9,2,.89a76,76,0,0,0,32.06,6.71,74.82,74.82,0,0,0,57.28-27.15,71.81,71.81,0,0,0,14.46-29A72.55,72.55,0,0,0,1133,447a74.1,74.1,0,0,0-40.87-26.1,77.48,77.48,0,0,0-8.13-1.5c-1.37-.2-2.75-.28-4.12-.42-.27,0-.88-.06-1.37-.1s-1-.11-1.55-.18C1075.93,418.52,1074.93,418.3,1074,418.07Zm3.47-3.68c.51-.19.94-.37,1.34-.49a4.34,4.34,0,0,1,.59-.11,3,3,0,0,1,.77,0c1.47.11,3,.16,4.42.33a73.78,73.78,0,0,1,8.75,1.4,80.63,80.63,0,0,1,16.82,5.66A79,79,0,0,1,1138,443a77.86,77.86,0,0,1,15.62,31.86,78.78,78.78,0,0,1-15.88,67.45,76.92,76.92,0,0,1-12.83,12.48,77.74,77.74,0,0,1-15.29,9.29,79.43,79.43,0,0,1-34.73,7.25,77.58,77.58,0,0,1-34.2-8.62l3.26-1h0a97.36,97.36,0,0,1-29.26,32.66,100.1,100.1,0,0,1-19.5,10.49l-2.58,1-1.3.51c-.43.15-.88.28-1.32.42-1.77.55-3.53,1.13-5.3,1.65l-5.4,1.28c-1.8.43-3.64.65-5.46,1A97.2,97.2,0,0,1,892,585.9l3.23.1h0a123.74,123.74,0,0,1-42.81,22.57,125.5,125.5,0,0,1-132.19-40l3.77.06h0a66.74,66.74,0,0,1-13.37,12.73,72.61,72.61,0,0,1-7.86,5c-1.37.72-2.77,1.4-4.17,2.07s-2.84,1.27-4.3,1.79a78.75,78.75,0,0,1-36.57,4.52,77.38,77.38,0,0,1-18-4.31,79.87,79.87,0,0,1-16.43-8.48,77.93,77.93,0,0,1-31.5-44.07,75.05,75.05,0,0,1-2.7-18.12,80,80,0,0,1,7.36-35.58c.67-1.37,1.42-2.7,2.12-4.05l1.08-2,1.24-1.92c.83-1.28,1.64-2.58,2.5-3.84l2.8-3.62a39.25,39.25,0,0,1,3-3.48l1.54-1.69a22.41,22.41,0,0,1,1.59-1.64l3.36-3.12.84-.78.9-.71,1.81-1.41a79.42,79.42,0,0,1,33.08-15.15l-2,3v0a76.88,76.88,0,0,1-1.43-23.91,76,76,0,0,1,5.93-23.12,77.87,77.87,0,0,1,12.8-20.09,77,77,0,0,1,18.27-15.24,79.16,79.16,0,0,1,22-8.94c1.93-.48,3.9-.81,5.86-1.16s3.94-.55,5.93-.67,4-.2,6-.25l3,.05c1,0,2,.11,3,.17A78.62,78.62,0,0,1,775.44,368l-3.92,1h0A157.77,157.77,0,0,1,800.33,325a162.59,162.59,0,0,1,90.81-49.19,164.47,164.47,0,0,1,26.11-2.45A172.56,172.56,0,0,1,943.44,275a163.21,163.21,0,0,1,49.89,15.8,157.62,157.62,0,0,1,42.22,31,153,153,0,0,1,29.66,43.28A149.72,149.72,0,0,1,1074,390c.54,2.13,1.11,4.26,1.49,6.43l.65,3.24.33,1.63.24,1.63.5,3.27.24,1.64.12.8,0,.63A31.65,31.65,0,0,1,1077.48,414.39Z"/>
      <g class="cls-7">
        <g class="cls-8">
          <path class="cls-5" d="M1052.67,376.33c-15.24,31.1-44,58-140,68-66.82,7-112.3-21.05-118-34-10.37-23.53,2-48.27,45.8-66.14,31.86-13,60-18.78,96.2-23.86C985.7,313.45,1069.16,342.67,1052.67,376.33Z"/>
        </g>
      </g>
    </g>
    <g id="duke">
      <g class="cls-9">
        <g>
          <polygon class="cls-10" points="941.12 306.83 788.23 332.52 787.76 324.13 942.41 301.35 941.12 306.83"/>
          <path d="M941.79,307.54,788.46,333.91l-1.67.29,0-1.6.19-8.43v-.69l.63-.09L942.33,300.8l.74-.11-.12.79C942.63,303.43,942.26,305.49,941.79,307.54Zm-1.34-1.42c.39-1.6.87-3.2,1.42-4.9l.62.68-154.62,23,.64-.78,1.12,8.35-1.64-1.3Z"/>
        </g>
        <g>
          <polygon class="cls-10" points="809.07 381.3 965.03 191.78 960.4 187.49 804.2 376.32 809.07 381.3"/>
          <path d="M809,379.94q77.46-94.47,155.42-188.66l.07,1.07L959.9,188,961,188,804.8,376.82l0-1A34.26,34.26,0,0,1,809,379.94Zm.11,2.73a60.38,60.38,0,0,1-5.48-5.8l-.45-.55.41-.49L959.84,187l.48-.59.57.52,4.67,4.25.55.49-.47.58Q887.72,287.46,809.12,382.67Z"/>
        </g>
        <g>
          <path class="cls-10" d="M1026.64,359.18,942,319.91a2.23,2.23,0,0,1-.56-3.51h0a2.23,2.23,0,0,1,2.66-.42l84.55,39.12Z"/>
          <path d="M1027.19,360.7l-44.51-20.8-22.13-10.37-11-5.18-5.51-2.6-1.38-.64-.69-.33-.34-.16a2.79,2.79,0,0,1-.44-.29,3,3,0,0,1,2.53-5.29,3.57,3.57,0,0,1,.86.34l.69.32,1.37.64,5.48,2.56L963,324,985,334.24l22,10.12,22,10,.71.32-.34.72c-.36.77-.69,1.56-1,2.43S1027.58,359.63,1027.19,360.7Zm-1.09-3a10.48,10.48,0,0,0,.87-1.25,16.94,16.94,0,0,0,.93-1.66l.37,1-21.9-10.28-21.94-10.2-22-10.08-11-5-5.5-2.52-1.38-.63a11,11,0,0,0-1.22-.53,1.47,1.47,0,0,0-1.65.8,1.45,1.45,0,0,0,.43,1.76.76.76,0,0,0,.19.12l.34.16.68.31,1.37.63,5.46,2.49,10.91,5,21.77,10Z"/>
        </g>
        <g>
          <path class="cls-10" d="M873.63,381.93l-78.88-55.74a2.47,2.47,0,0,0-3.54.86h0a2.46,2.46,0,0,0,.79,3.21l79.55,55.8Z"/>
          <path d="M872.68,382.16l-40.77-28.88L811.48,338.8l-10.22-7.26-5.11-3.63-1.27-.91a2.9,2.9,0,0,0-1.16-.61,1.86,1.86,0,0,0-1.63,3.17,1.55,1.55,0,0,0,.24.19l.31.22.65.45,1.29.9,5.16,3.61,10.33,7.2,20.65,14.41L851.38,371l20.73,14.31-1.44.37A38.36,38.36,0,0,1,872.68,382.16Zm1.89-.47c-.63,1.58-1.36,3.25-2.15,4.81l-.52,1-.91-.66-20.51-14.61L829.9,357.73l-20.57-14.52L799,336l-5.15-3.63-1.28-.91L792,331l-.32-.24a3.57,3.57,0,0,1-.38-.3,3.05,3.05,0,0,1,2.68-5.2,3.8,3.8,0,0,1,1.61.8l1.3.91,5.17,3.64,10.35,7.28,20.7,14.59Z"/>
        </g>
        <g>
          <polygon class="cls-10" points="1034.71 360.14 868.96 386.92 869.75 378.35 1035.99 354.66 1034.71 360.14"/>
          <path d="M1035.37,360.86,869.18,388.31l-1.89.31.27-1.83,1.22-8.53.11-.78.73-.1,166.3-23.27.74-.1-.13.78C1036.22,356.74,1035.84,358.8,1035.37,360.86Zm-1.33-1.43c.39-1.6.87-3.2,1.42-4.9l.61.68-166.18,24.1.83-.87-.36,8.61-1.63-1.52Z"/>
        </g>
        <g>
          <path class="cls-10" d="M881.28,430.71l-70.41-52.23a2.22,2.22,0,0,1-.32-3.53h0a2.23,2.23,0,0,1,2.68-.24l71.35,51.19Z"/>
          <path d="M881.54,432.3l-35.72-26.64L810.4,379.12l.05,0a3,3,0,0,1,1.83-5.55,2.9,2.9,0,0,1,1,.25,2.42,2.42,0,0,1,.45.24l.3.22,1.2.86,2.4,1.74,9.6,6.95,19.21,13.9,19.28,13.79L885,425.26l.62.44-.43.64c-.6.88-1.18,1.79-1.77,2.78S882.23,431.13,881.54,432.3Zm-.53-3.18c.42-.43.9-1,1.4-1.63s1-1.31,1.52-2l.19,1.07L865,412.6l-19.24-13.84L826.41,385l-9.65-6.87-2.41-1.72-1.21-.85-.3-.22a1.06,1.06,0,0,0-.21-.11,1.41,1.41,0,0,0-.47-.11,1.44,1.44,0,0,0-.87,2.67h0l0,0,35,25.69Z"/>
        </g>
        <g>
          <path class="cls-10" d="M1054.11,230.3l-92.77-38.37a1.78,1.78,0,0,0-2,.61h0a1.87,1.87,0,0,0,.6,2.72l91,39.42Z"/>
          <path d="M1053.64,230.43,1006.45,211l-23.6-9.71-11.79-4.85-5.9-2.44-2.95-1.21-.73-.31-.36-.14a.7.7,0,0,0-.25-.05,1.33,1.33,0,0,0-1,.43,1.39,1.39,0,0,0,.27,2L963,196l5.89,2.52,11.77,5,23.56,10.05,23.56,10,23.52,10.13-1.17.32a13.06,13.06,0,0,1,1.48-1.78C1052.18,231.75,1052.84,231.17,1053.64,230.43Zm.94-.26a17.73,17.73,0,0,1-1.16,2.48,24.87,24.87,0,0,1-1.72,2.6l-.46.63-.71-.31-23.48-10.24L1003.62,215l-23.44-10.31-11.73-5.16L962.59,197l-3-1.31a2.19,2.19,0,0,1-1.08-1.67,2.27,2.27,0,0,1,2.39-2.62,1.93,1.93,0,0,1,.52.11l.39.16.74.31,3,1.23,5.94,2.46,11.87,4.93,23.74,9.88Z"/>
        </g>
        <g>
          <path class="cls-11" d="M1040,231.52s-28.93,61.22-68.61,96.88c-43.19,38.8-105,47.22-105,47.22s-2.76-.12-3.71,1.87-.36,3.08-.36,3.08l-65.71-46.45a3.73,3.73,0,0,1-.14-3.18,3.6,3.6,0,0,1,2.72-1.77s57.51-18.4,95.89-49.45c49.57-40.11,67.72-82.11,67.72-82.11a4,4,0,0,1,.71-3.37A4.1,4.1,0,0,1,966.6,193l76.56,31.92a4.4,4.4,0,0,0-3.47,2.06C1038.58,228.91,1040,231.52,1040,231.52Z"/>
          <path d="M1041,231.49a1.84,1.84,0,0,1-.08.38,2.71,2.71,0,0,1-.11.29l-.1.21-.21.41-.4.84-.83,1.65-1.67,3.3c-1.13,2.19-2.29,4.37-3.46,6.54q-3.51,6.49-7.24,12.88-7.44,12.76-15.77,25c-11.15,16.24-23.47,31.82-38,45.21s-31.83,23.66-49.9,31.56a249.81,249.81,0,0,1-27.81,10.15q-7.1,2.11-14.3,3.81c-4.81,1.13-9.63,2.13-14.56,2.88h-.17a4.85,4.85,0,0,0-1.49.25,2.27,2.27,0,0,0-1.08.74,4,4,0,0,0-.57,1.34,2.89,2.89,0,0,0-.08.7,2.69,2.69,0,0,0,0,.31c0,.07.07.24,0,.16l-1.43,1.27-65.71-46.44-.18-.13-.11-.19h0a5.19,5.19,0,0,1-.56-2,4.13,4.13,0,0,1,.42-2.11,3.89,3.89,0,0,1,1.51-1.6,5.25,5.25,0,0,1,2-.68l-.2,0c8.48-2.8,16.87-6,25.15-9.46s16.45-7.14,24.47-11.14,15.89-8.29,23.53-12.95c3.82-2.34,7.57-4.79,11.26-7.31s7.27-5.21,10.76-8a278.69,278.69,0,0,0,38.4-37.47,251,251,0,0,0,16.19-21.42q3.75-5.57,7.15-11.36a133.57,133.57,0,0,0,6.24-11.82h0l0,.54a5.26,5.26,0,0,1,0-2.09,4,4,0,0,1,.93-1.91,4.39,4.39,0,0,1,1.7-1.18,5,5,0,0,1,2-.32h.1l.1,0,76.61,31.82,2.58,1.08-2.84.34a4.1,4.1,0,0,0-1.73.62,2.91,2.91,0,0,0-1.09,1.31,3,3,0,0,0-.11,1.71,5,5,0,0,0,.25.92c.06.16.12.31.19.46l.1.22,0,.1,0,0v0A1.12,1.12,0,0,1,1041,231.49Zm-2,.07a.93.93,0,0,0,.1.39l0,0,0-.07-.06-.15-.13-.3a5.29,5.29,0,0,1-.21-.6,6.48,6.48,0,0,1-.28-1.25,4.83,4.83,0,0,1,.35-2.7,4.41,4.41,0,0,1,1.86-2,5.64,5.64,0,0,1,2.52-.71l-.26,1.41-76.53-32,.2,0h0a3.79,3.79,0,0,0-1.41.32,3,3,0,0,0-1.11.86,2.53,2.53,0,0,0-.5,1.24,3.57,3.57,0,0,0,.08,1.39l0,.54h0a134.32,134.32,0,0,1-6.32,12q-3.4,5.85-7.18,11.47A255,255,0,0,1,933.8,243a279.44,279.44,0,0,1-38.59,37.77c-3.52,2.83-7.16,5.51-10.85,8.1s-7.49,5-11.34,7.38c-7.69,4.71-15.6,9-23.66,13.07s-16.26,7.75-24.57,11.22-16.71,6.7-25.29,9.55l-.07,0h-.13a3.51,3.51,0,0,0-1.16.41,2,2,0,0,0-.76.79,2.24,2.24,0,0,0-.21,1.13,3.11,3.11,0,0,0,.31,1.17h0l-.29-.32,65.71,46.44L861.46,381a2.72,2.72,0,0,1-.24-.75,4.77,4.77,0,0,1-.06-.63,5.51,5.51,0,0,1,.14-1.17,5.74,5.74,0,0,1,.93-2.11,4.26,4.26,0,0,1,2-1.39,6.64,6.64,0,0,1,2.23-.36h-.17A222.48,222.48,0,0,0,894.83,368,245.72,245.72,0,0,0,922.41,358c17.92-7.82,34.91-18,49.36-31.21s26.67-28.71,37.75-44.86q8.28-12.17,15.7-24.88,3.71-6.36,7.21-12.83c1.16-2.16,2.31-4.32,3.43-6.5l1.67-3.28.82-1.64.4-.83.2-.41.1-.21c0-.07,0,0,0,.08A.55.55,0,0,0,1039.05,231.56Z"/>
        </g>
        <g class="cls-12">
          <line class="cls-13" x1="864.97" y1="375.04" x2="800.65" y2="329.26"/>
          <path d="M865,375q-8.37-5.27-16.52-10.83c-5.45-3.69-10.83-7.47-16.21-11.27s-10.68-7.68-16-11.62-10.5-7.94-15.64-12.06q8.37,5.25,16.52,10.82c5.45,3.69,10.84,7.47,16.21,11.27s10.68,7.68,16,11.62S859.83,370.91,865,375Z"/>
        </g>
        <g class="cls-12">
          <line class="cls-13" x1="1037.32" y1="229.17" x2="992.13" y2="211.6"/>
          <path d="M1037.32,229.17c-3.91-1.09-7.75-2.35-11.57-3.69s-7.61-2.74-11.38-4.19-7.51-3-11.22-4.59-7.4-3.26-11-5.1c3.91,1.08,7.75,2.35,11.57,3.68s7.61,2.75,11.38,4.19,7.51,3,11.22,4.6S1033.7,227.33,1037.32,229.17Z"/>
        </g>
        <g>
          <polygon class="cls-10" points="1051.82 226.85 875.2 431.8 882.09 436.42 1056.96 232.19 1051.82 226.85"/>
          <path d="M1051.84,227.82,875.94,432.44l-.19-1.45,7.21,4.13-2.05.28,175.31-203.84,0,1.31C1054.7,231.27,1053.32,229.62,1051.84,227.82Zm0-1.95c2,1.76,4,3.68,5.87,5.65l.61.64-.57.67L883.28,437.43l-1,1.13-1.09-.85-6.57-5.1-.86-.67.67-.78Z"/>
        </g>
        <g>
          <polygon class="cls-10" points="1051.82 226.85 875.2 431.8 882.09 436.42 1056.96 232.19 1051.82 226.85"/>
          <path d="M1051.84,227.82,875.94,432.44l-.19-1.45,7.21,4.13-2.05.28,175.31-203.84,0,1.31C1054.7,231.27,1053.32,229.62,1051.84,227.82Zm0-1.95c2,1.76,4,3.68,5.87,5.65l.61.64-.57.67L883.28,437.43l-1,1.13-1.09-.85-6.57-5.1-.86-.67.67-.78Z"/>
        </g>
        <g>
          <polygon class="cls-10" points="1032.28 363.24 1017.1 271.63 1010.53 273.96 1027.07 365.2 1032.28 363.24"/>
          <path d="M1031.61,362.85l-15.28-91.1,1,.61-6.48,2.58.67-1.17,16.29,91.29-1-.59C1028.38,363.87,1030,363.36,1031.61,362.85Zm1.35.78c-1.82.8-3.72,1.59-5.62,2.3l-.87.32-.17-.91-16.8-91.2-.16-.9.84-.27,6.66-2.08.89-.28.14.89Z"/>
        </g>
        <ellipse class="cls-14" cx="997.64" cy="288.51" rx="1.95" ry="1.34" transform="translate(568.87 1234.38) rotate(-81.74)"/>
        <ellipse class="cls-15" cx="883.39" cy="428.63" rx="1.95" ry="1.34" transform="translate(264.69 1191.07) rotate(-76.83)"/>
        <ellipse class="cls-15" cx="1051.74" cy="232.75" rx="1.95" ry="1.34" transform="translate(670.39 1240.18) rotate(-81.74)"/>
      </g>
      <path class="cls-6" d="M843,449.67a37.54,37.54,0,0,1,7.37-10.73,45.69,45.69,0,0,1,10.41-8.11,49.78,49.78,0,0,1,12.37-4.92,57.68,57.68,0,0,1,13.2-1.63,55,55,0,0,1,25.78,6.09,64.86,64.86,0,0,1,11.14,7.16,64.16,64.16,0,0,1,5,4.36,51.58,51.58,0,0,1,4.47,4.93h-2.05a46.18,46.18,0,0,1,7.55-7.75,47.83,47.83,0,0,1,9.12-5.91,38.57,38.57,0,0,1,5.11-2.09,31.91,31.91,0,0,1,5.39-1.33,31.59,31.59,0,0,1,11.14.14,46.31,46.31,0,0,1,5.3,1.46,47.78,47.78,0,0,1,5,2,49.87,49.87,0,0,1,4.76,2.61,47.48,47.48,0,0,1,4.38,3.18,41.75,41.75,0,0,1,7.34,7.81,34.22,34.22,0,0,1,4.89,9.37,44.91,44.91,0,0,0-13.89-15,48.18,48.18,0,0,0-8.91-4.73c-1.57-.6-3.15-1.15-4.77-1.6a39.27,39.27,0,0,0-4.85-1.1,33.66,33.66,0,0,0-19,3.15,63.68,63.68,0,0,0-16.52,11.43h0l-.9,1.18-1.14-1.19A72.33,72.33,0,0,0,910.35,434a59.71,59.71,0,0,0-11.7-4.16,54.51,54.51,0,0,0-12.28-1.43A62.66,62.66,0,0,0,874,429.6a51.87,51.87,0,0,0-11.78,4,49.42,49.42,0,0,0-10.56,6.75A47,47,0,0,0,843,449.67Z"/>
      <g id="Ebene_7" data-name="Ebene 7">
        <g>
          <path class="cls-16" d="M929.42,224.76c50.23-29.91,85-77,92.15-70.6,8.72,7.77,5.53,82.55-4.65,119-11.85,42.36-33.25,65.34-54.9,81.35-28,20.68-64.36,35.25-76.37,29.57-20.85-9.85,7-52.33-10.59-61.71-12.83-6.85-60.81,6.65-71.24-.31-12.23-8.17,6.67-36.45,51.08-59.19C890.15,244.79,908.08,237.47,929.42,224.76Z"/>
          <path d="M928.88,223.84a273.26,273.26,0,0,0,37-26.45c11.71-9.71,22.76-20.16,33.93-30.54,2.81-2.58,5.63-5.15,8.57-7.63,1.48-1.23,3-2.44,4.57-3.57a19.22,19.22,0,0,1,5.31-2.9,5.87,5.87,0,0,1,1.73-.26,3.55,3.55,0,0,1,1.94.59,7,7,0,0,1,2,2.71,26.54,26.54,0,0,1,1.76,5.7,91.35,91.35,0,0,1,1.48,11.47c.55,7.65.6,15.3.46,22.94s-.49,15.28-1,22.9-1.33,15.22-2.22,22.82-2.06,15.16-3.58,22.69c-.78,3.76-1.62,7.54-2.66,11.24s-2.12,7.4-3.36,11.05a156.42,156.42,0,0,1-9,21.36A133.64,133.64,0,0,1,978,345a179.84,179.84,0,0,1-37.92,26.54,184.3,184.3,0,0,1-21,9.65c-3.62,1.38-7.29,2.62-11,3.69a70,70,0,0,1-11.56,2.34,33.57,33.57,0,0,1-6.11.11,18.74,18.74,0,0,1-3.17-.53,12.48,12.48,0,0,1-1.61-.51c-.26-.1-.53-.23-.79-.34l-.73-.38a15.08,15.08,0,0,1-5-4.25,16.76,16.76,0,0,1-2.77-5.86,37.13,37.13,0,0,1-.72-12.09c.29-3.92.88-7.74,1.47-11.51s1.18-7.5,1.51-11.17a30.86,30.86,0,0,0-.44-10.46,9.38,9.38,0,0,0-2.07-3.92,8.12,8.12,0,0,0-3.65-2.23,24.26,24.26,0,0,0-5-.93,54.17,54.17,0,0,0-5.45-.28c-3.7,0-7.46.17-11.23.43s-7.55.58-11.34.92c-7.59.63-15.2,1.45-23,1.48a55.49,55.49,0,0,1-5.88-.24,20.38,20.38,0,0,1-6-1.39,9.18,9.18,0,0,1-1.49-.83,10.12,10.12,0,0,1-1.3-1,9.19,9.19,0,0,1-2-2.76,11.46,11.46,0,0,1-.84-6.43,28.62,28.62,0,0,1,4.55-11.09,66.5,66.5,0,0,1,7.21-9.19,125.82,125.82,0,0,1,17.3-15.34,185.3,185.3,0,0,1,19.34-12.55c3.33-1.91,6.75-3.69,10.13-5.44s6.8-3.46,10.2-5.18q10.23-5.13,20.51-10.12C901.74,237.45,915.77,231.54,928.88,223.84Zm1.09,1.84c-6.53,4-13.14,7.82-19.84,11.51s-13.47,7.2-20.32,10.54-13.69,6.66-20.5,10l-10.21,5.1c-3.42,1.7-6.78,3.39-10.09,5.21a180.58,180.58,0,0,0-19.17,12,115.78,115.78,0,0,0-17.05,14.71,64.1,64.1,0,0,0-6.9,8.75,26,26,0,0,0-4.12,9.86,8.32,8.32,0,0,0,.58,4.76,6.56,6.56,0,0,0,1.36,1.83,8.23,8.23,0,0,0,.93.72,6,6,0,0,0,1,.53,17.3,17.3,0,0,0,5.1,1.05,53.42,53.42,0,0,0,5.53.12c3.73-.11,7.49-.49,11.25-.9s7.53-.93,11.31-1.43a226.88,226.88,0,0,1,23-2.3c3.92-.07,7.9-.11,12.17,1.2a14,14,0,0,1,3.17,1.49,12.81,12.81,0,0,1,2.72,2.32A14.47,14.47,0,0,1,883,329a35.34,35.34,0,0,1,.34,12.26c-.45,3.91-1.15,7.69-1.82,11.44s-1.3,7.44-1.65,11.12a31.22,31.22,0,0,0,.47,10.62,11.09,11.09,0,0,0,5.67,7.46c2.69,1.47,6.4,1.43,10,1a64,64,0,0,0,10.78-2.32,107,107,0,0,0,10.56-3.75A183.8,183.8,0,0,0,937.56,367a211.46,211.46,0,0,0,19-12.08,177.14,177.14,0,0,0,17.46-14.09,138,138,0,0,0,15.17-16.43c2.29-2.94,4.45-6,6.49-9.12s4-6.32,5.8-9.6a157.57,157.57,0,0,0,9.37-20.46c1.33-3.52,2.57-7.09,3.67-10.7s2.1-7.22,3-10.9a324.89,324.89,0,0,0,6.64-45c1.21-15.13,1.88-30.37.87-45.48a88,88,0,0,0-1.41-11.18,24.49,24.49,0,0,0-1.58-5.21,5.35,5.35,0,0,0-1.3-1.85,2.23,2.23,0,0,0-1.83,0,18,18,0,0,0-4.68,2.56c-1.51,1.08-3,2.25-4.43,3.46-2.9,2.42-5.72,5-8.53,7.54-11.18,10.31-22.31,20.78-34.1,30.49A318.33,318.33,0,0,1,930,225.68Z"/>
        </g>
        <path d="M916.54,231.93s6.42-4.12,7.13-9.93-1.43-15.53-1.43-15.53l6.31,2.29s4.37,9.76,8.28,11.22,8.39-.94,8.39-.94Z"/>
        <path d="M916.46,232.46s10.61-2.3,48.1,14.35c26.9,11.95,47,41.35,47,41.35s11.64-39.47,13.25-64.15c1.92-29.21,3-68.35-4.73-69.81s-38.42,34.42-61.65,51.08C938.33,219.68,916.46,232.46,916.46,232.46Z"/>
        <path d="M1020.76,268.46a168,168,0,0,0,36.24-4.62,64.32,64.32,0,0,0,16.57-6.38,24.24,24.24,0,0,0,6.4-5.18,12,12,0,0,0,2.91-6.74,11.14,11.14,0,0,0-.26-3.6,11,11,0,0,0-1.58-3.28,24.28,24.28,0,0,0-6-5.72,55.34,55.34,0,0,0-7.63-4.52,87.14,87.14,0,0,0-8.31-3.66,193.47,193.47,0,0,0-35.47-9.53l1.18-6.7c6.29,1.3,12.37,2.77,18.47,4.52a181.1,181.1,0,0,1,18.06,6,83,83,0,0,1,17.26,8.92,30.4,30.4,0,0,1,7.42,7.23,16.89,16.89,0,0,1,2.44,5.13,14.19,14.19,0,0,1,.31,1.44l.11.74.06.69a17.57,17.57,0,0,1,0,2.81,18.16,18.16,0,0,1-4.2,10.23,30.17,30.17,0,0,1-8,6.68,74.49,74.49,0,0,1-18.12,7.35,158.19,158.19,0,0,1-18.73,3.91c-6.3,1-12.53,1.65-19,2.07Z"/>
        <path d="M927.68,225.56c-1.65-4.89-3.08-9.67-4.31-14.59a132.88,132.88,0,0,1-3-15c-.34-2.54-.57-5.12-.67-7.73a42.57,42.57,0,0,1,.4-8,20.51,20.51,0,0,1,2.91-8.17,12.83,12.83,0,0,1,3.35-3.47,13.33,13.33,0,0,1,4.35-1.94,21.83,21.83,0,0,1,8.6-.28,40.77,40.77,0,0,1,7.78,2.05A86.74,86.74,0,0,1,961,175.25c4.39,2.59,8.6,5.41,12.68,8.38s8.05,6,12,9.34l-5,5.5c-3.46-3.27-7.27-6.43-11.08-9.43s-7.83-5.8-11.93-8.35A74.25,74.25,0,0,0,945,174.23a33.86,33.86,0,0,0-6.58-1.82,15.16,15.16,0,0,0-6.17.1,7.3,7.3,0,0,0-2.41,1.06,6.48,6.48,0,0,0-1.77,1.87,14.64,14.64,0,0,0-2,5.77,48.2,48.2,0,0,0,.41,13.93,138.82,138.82,0,0,0,7.71,28Z"/>
        <path d="M1022.79,249.55s-1.79,12.36,1.94,15.24c4,3.1,15,2.6,15,2.6l1.43,6.05s-11.66,2.37-21.24,9.2c-4,2.86-10.78,14.34-10.78,14.34Z"/>
        <g>
          <path class="cls-17" d="M917.87,232.41c10.3-14.3,27.88-15,46.63-6.73,20.55,9,26.56,29.06,19.75,41.56-7,12.87-28.79,18.53-50.18,6.82C911.49,261.69,910.11,243.19,917.87,232.41Z"/>
          <path d="M917.24,232a29.29,29.29,0,0,1,10-8.73,31.22,31.22,0,0,1,12.82-3.39,47,47,0,0,1,13.17,1.28,67.87,67.87,0,0,1,12.5,4.3,42.94,42.94,0,0,1,11.14,7.29A35.64,35.64,0,0,1,985,243.38a30.31,30.31,0,0,1,3.14,13.13,23.61,23.61,0,0,1-3.78,13.13,25.61,25.61,0,0,1-10.45,8.83,36.91,36.91,0,0,1-13.15,3.4,45.86,45.86,0,0,1-13.48-1,52.77,52.77,0,0,1-12.61-4.71,51.27,51.27,0,0,1-11.07-7.61,35.35,35.35,0,0,1-8.23-10.71,26.5,26.5,0,0,1-2.71-13.24A23.8,23.8,0,0,1,917.24,232Zm1.26.91a22.09,22.09,0,0,0-3.9,11.8,23.75,23.75,0,0,0,2.9,12.06,33.73,33.73,0,0,0,8,9.68,55.4,55.4,0,0,0,10.62,7A51.86,51.86,0,0,0,948,277.71a42.75,42.75,0,0,0,12.54,1.09,34,34,0,0,0,12.1-3,27.86,27.86,0,0,0,5.28-3.23,21.35,21.35,0,0,0,4.2-4.45,21,21,0,0,0,3.59-11.63,28.28,28.28,0,0,0-2.63-12.2c-3.53-7.73-10.22-13.82-18-17.47A66.7,66.7,0,0,0,953,222.41a43.29,43.29,0,0,0-12.8-1.42,27.21,27.21,0,0,0-21.66,11.87Z"/>
        </g>
        <path class="cls-16" d="M942.13,227.7c13.43.87,17.78,8.62,16.23,14.31s-10.62,7.75-19.44,5.17c-6.95-2-13.41-6.41-12-11.74S935,227.24,942.13,227.7Z"/>
        <path class="cls-18" d="M799.57,313.55a13.81,13.81,0,0,0,14.62,10.73c12.42-.49,57.52-7.31,62.35-1.45s5.17,20.55,5.17,20.55,6.34-17.19,1.64-25-10.4-10.46-28.44-8.71-36.64,7.05-41.83,6.71c-9.09-.6-12.43-4.4-12.43-4.4"/>
        <path class="cls-18" d="M878.33,370.21s2,14.15,9.77,15,34.46-3.61,60.75-21.77,45.91-39,53.75-54.17a138.58,138.58,0,0,0,11-28.61l-28.45-33.48s-6.51,20-29.33,19.91c-26.4-.1-39.7-11.07-39.7-11.07s-.42,15.94,16.91,25.55c16.67,9.24,23.85,9.06,34,8.1,13.42-1.27,27.79-11.22,27.79-11.22s-2.68,21-20.25,40.39-39.3,41.23-58.93,48.62C886.92,378.27,878.33,370.21,878.33,370.21Z"/>
        <path class="cls-18" d="M806.15,327.67s3.63,4.15,14.69,4.55,38.13-2.82,45.35-.62c10.86,3.32,13.26,21.41,13.26,21.41s7.2-25.28-2.91-30.18-13.46-3.49-31.52-1.42S809.58,325,809.58,325Z"/>
        <path class="cls-18" d="M1034.13,221s-2.91,14.48-4.29,20.58-3.57,14.76-3.57,14.76l-7.24,6,4.64-46Z"/>
      </g>
    </g>
    <g id="cloud_1">
      <path class="cls-19" d="M102.3,344.88l1.49,0c7.52-65.19,56.62-109.55,121.32-109.55,46.36,0,94.86,24.32,118.15,61l.43-.06a80.69,80.69,0,0,1,61.48-28.43c43.54,0,79.07,34.6,81.09,78,1.27-.07,2.55-.12,3.84-.12,41.66,0,75.44,34.09,75.44,76.14S531.76,498,490.1,498A74.35,74.35,0,0,1,461,492.12a122.33,122.33,0,0,1-176.73,24A95.66,95.66,0,0,1,136,492a75.91,75.91,0,0,1-33.66,7.82c-42.39,0-76.76-34.68-76.76-77.47S59.91,344.88,102.3,344.88Z"/>
      <g class="cls-20">
        <path class="cls-5" d="M41.33,468.67s36,34.31,61,31.15S136,492,136,492s35.36,52.46,83.7,49.23,64.56-25.13,64.56-25.13S326.66,554,385.33,540,461,492.12,461,492.12s31.71,17.88,72.38-8.79S563.33,404,564,406s-15.34,48-52,60-68.67-16.67-68.67-16.67-18.67,44-76,53.34C326.66,509.29,278,480,278,480s-34,26.67-70.67,28S142,469.33,142,469.33a123,123,0,0,1-51.34,11.34C61.33,480.67,41.33,468.67,41.33,468.67Z"/>
      </g>
      <path class="cls-6" d="M102.3,342.63h1.53l-2.28,2h0a138,138,0,0,1,10.38-38.91,121.84,121.84,0,0,1,21.88-33.83,116.58,116.58,0,0,1,32-24.49A123.62,123.62,0,0,1,204.07,235a140.29,140.29,0,0,1,40.2-.24A154.49,154.49,0,0,1,283,245.36a149.21,149.21,0,0,1,34.7,20.27A120.39,120.39,0,0,1,345,295.25l-2-.92.43-.06-1.25.69a93.46,93.46,0,0,1,8.6-9,60.56,60.56,0,0,1,4.87-3.89c1.67-1.23,3.4-2.39,5.16-3.48a80,80,0,0,1,22.79-9.72,84.54,84.54,0,0,1,88,31,82.81,82.81,0,0,1,11.88,21.64,91.39,91.39,0,0,1,3.38,12,87.88,87.88,0,0,1,1.54,12.32l-2.19-2a75.1,75.1,0,0,1,17.4,1.09,77.6,77.6,0,0,1,16.67,5,80.38,80.38,0,0,1,15.09,8.66,76.32,76.32,0,0,1,12.86,11.7,79.82,79.82,0,0,1,19.14,65.09,78.23,78.23,0,0,1-39,56.38,72.24,72.24,0,0,1-16.45,6.73,77.18,77.18,0,0,1-17.53,2.64,80.16,80.16,0,0,1-17.57-1.45A82.58,82.58,0,0,1,460,494.43h0l3-.85A124.14,124.14,0,0,1,426,528.32a123.55,123.55,0,0,1-47.88,17,126.41,126.41,0,0,1-12.75,1c-2.13,0-4.26.1-6.39,0l-3.2-.07-3.19-.21a118.49,118.49,0,0,1-25.14-4.41,124.38,124.38,0,0,1-23.68-9.5A129.73,129.73,0,0,1,282.65,518h0l3.26-.1a101.52,101.52,0,0,1-17.74,13.22A100.39,100.39,0,0,1,247.82,540,98.87,98.87,0,0,1,226,544a95.17,95.17,0,0,1-22.17-1.06,96.73,96.73,0,0,1-40.74-16.84,99.85,99.85,0,0,1-16.48-14.79,102.11,102.11,0,0,1-12.8-18h0l3.28,1a73.18,73.18,0,0,1-34.54,9,77.33,77.33,0,0,1-35-8,79.4,79.4,0,0,1-15.14-9.8,83.17,83.17,0,0,1-6.64-6.09,80.86,80.86,0,0,1-5.87-6.82,81.9,81.9,0,0,1-9.3-15.34,80.85,80.85,0,0,1,10.19-84A82.9,82.9,0,0,1,68.05,351a79.51,79.51,0,0,1,16.62-6.14A78.67,78.67,0,0,1,102.3,342.63Zm0,4.51a75.11,75.11,0,0,0-32.66,7.1,72,72,0,0,0-26.12,21.07,73.51,73.51,0,0,0-14.09,30.41,76,76,0,0,0,6.21,49,74.68,74.68,0,0,0,66.87,41.65,79.76,79.76,0,0,0,32.34-6.66l2.21-1,1.07,2h0a94.68,94.68,0,0,0,28.11,30.74,93.24,93.24,0,0,0,38.49,15.55,94,94,0,0,0,60.7-10.68,99.18,99.18,0,0,0,17.09-12.14l1.59-1.41,1.67,1.31h0a122.19,122.19,0,0,0,43.25,22,119.71,119.71,0,0,0,24,4l3,.19,3.05.06c2,.07,4.06,0,6.09,0A122.54,122.54,0,0,0,401,533.67a122.83,122.83,0,0,0,22-10.35,124.54,124.54,0,0,0,35.91-32.66l1.19-1.61,1.81.77h0a69.72,69.72,0,0,0,32,4.92,73.81,73.81,0,0,0,15.91-3,74.27,74.27,0,0,0,52.93-73.62,73.43,73.43,0,0,0-8.31-31.58,75.81,75.81,0,0,0-9.29-13.64,72.16,72.16,0,0,0-26.55-19.32A75,75,0,0,0,486.37,348l-2.11.12-.08-2.09A81.78,81.78,0,0,0,469,301.78c-1.14-1.63-2.4-3.16-3.64-4.71s-2.6-3-4-4.4a74.25,74.25,0,0,0-8.93-7.88,75.73,75.73,0,0,0-21-11.2A75.84,75.84,0,0,0,408,269.4a77.5,77.5,0,0,0-23.48,3,80.25,80.25,0,0,0-21.43,9.83,88.78,88.78,0,0,0-9.39,7.12,74.73,74.73,0,0,0-8.47,8.22l-.52.6-.74.1-.42.05-1.31.18-.7-1.1a116.27,116.27,0,0,0-26.32-28.65A145.16,145.16,0,0,0,281.48,249c-24.1-10.13-51-14.24-76.8-10.14a119.44,119.44,0,0,0-37,12.11,112.24,112.24,0,0,0-30.79,23.72,117,117,0,0,0-21,32.72A133.6,133.6,0,0,0,106,345.15h0l-.25,2-2,0Z"/>
      <g class="cls-21">
        <g class="cls-20">
          <path class="cls-5" d="M141.44,342.51c16.06,24.95,82.24,49.38,148.37,58.47,66.34,9.11,104.41-5.27,114.19-20.22,12.81-19.59-29.05-49.56-73.6-64.27-32.36-10.69-69.31-20.28-94.51-23.32C186.87,287.25,117.06,304.64,141.44,342.51Z"/>
        </g>
      </g>
    </g>
    <g id="dolphin">
      <g class="cls-22">
        <path class="cls-23" d="M210.19,110.85s8.1,7,13.73,8.47a38.86,38.86,0,0,0,11.54,1s17.25,16.59,29.37,15.25,15-3.08,15-3.08,5.91,11,6,15.28l.22,7.22,8.24.75s-2.79-16.69-6.28-23.49A91.89,91.89,0,0,0,279.47,119s-33.15-9.22-43-9.92-26.25,1.76-26.25,1.76"/>
        <path class="cls-23" d="M328.36,183s-12.71,14.84-33,18.07-46.9,3.68-46.9,3.68,8.7,5.33,16.28,6.09,19.09.76,19.09.76.75,2.94,10,14.83a55.11,55.11,0,0,0,15.54,14S298.81,228.9,296,222.08,290.6,207,290.6,207s20.44-4,31.93-12.77S328.36,183,328.36,183"/>
        <path class="cls-23" d="M174.44,158.58S159.15,231,192.34,275.43c30.39,40.63,65.4,43.77,90.41,44.68s56.73-2.8,71.38,1.52c18.24,5.38,27.72,14.64,27.72,14.64l2.28-.73s-13.15-17-35.49-22c-27.47-6.09-68.2.13-95.94-9-33.86-11.17-62.76-43.86-70.87-73.54C172.09,195.33,174.44,158.58,174.44,158.58Z"/>
        <path class="cls-24" d="M303.74,234.51s3.13,14.21,24.93,25.9c28.31,15.18,44,20.16,57.47,34.31a83.08,83.08,0,0,1,20,35.51,123.81,123.81,0,0,1,20.25,9.63c10.9,6.29,22.37,22.39,22.37,22.39s-11-21.49-23.54-28.76a81.6,81.6,0,0,0-17-7.2s-9.26-31.45-32-48.54-36.29-18.41-47.55-24S303.74,234.51,303.74,234.51Z"/>
        <path class="cls-23" d="M391.18,399.12s0-32.34,11.53-43.74c14.14-14,42.38,8.34,42.38,8.34s-24.79-14-38.48-1.55-15.43,36.95-15.43,36.95"/>
        <path class="cls-25" d="M263.22,156.3a146.55,146.55,0,0,1,37.95-.86c24,2.5,31.13,10.42,31.13,10.42a194,194,0,0,0-34.22-6.39C279.54,157.8,263.22,156.3,263.22,156.3Z"/>
        <g>
          <polygon class="cls-10" points="366.3 355.14 220.69 177.28 225.84 173.51 371.76 350.7 366.3 355.14"/>
          <path d="M366.16,356.51q-73.28-89.26-146.08-178.73l-.52-.65.67-.49,5.14-3.76.61-.44.47.57L372.36,350.2l.47.56-.58.55A65.59,65.59,0,0,1,366.16,356.51Zm.28-2.75a39,39,0,0,1,4.82-3.67l-.11,1.11L225.23,174l1.08.14-5.15,3.77.14-1.14Q294.18,265.31,366.44,353.76Z"/>
        </g>
        <g>
          <path class="cls-10" d="M152.32,322.27l89.1-26.85a2.25,2.25,0,0,0,1-3.43h0a2.24,2.24,0,0,0-2.6-.79l-88.93,26.71Z"/>
          <path d="M153.08,320.83l45.5-13.56,22.89-6.79,11.47-3.39,5.75-1.7,1.43-.42.72-.21c.11,0,.26-.07.35-.11a1.18,1.18,0,0,0,.19-.1,1.46,1.46,0,0,0,.66-1.68,1.48,1.48,0,0,0-1.52-1,9.58,9.58,0,0,0-1.27.34l-1.45.43L232,294.32l-11.57,3.43-23.13,6.86-23.1,7-23.07,7.07.53-1a19.17,19.17,0,0,0,.69,1.79A9.49,9.49,0,0,0,153.08,320.83Zm-1.52,2.88c-.24-1.12-.46-2.08-.69-3s-.44-1.76-.69-2.57l-.24-.77.76-.23,23.14-6.8,23.11-6.9,23.07-7,11.54-3.52,5.76-1.75,1.45-.44.72-.22a4,4,0,0,1,.91-.21,3,3,0,0,1,1.8,5.62,2.6,2.6,0,0,1-.47.24l-.38.12-.73.22-1.45.45-5.8,1.79-11.62,3.56-23.31,7.13Z"/>
        </g>
        <polygon class="cls-26" points="298.51 341.92 377.77 312.23 379.64 316.86 300.12 346.31 298.51 341.92"/>
        <g>
          <polygon class="cls-10" points="144.6 322.35 302.62 347.47 302.38 339.34 143.94 316.7 144.6 322.35"/>
          <path d="M145.31,321.67l157.53,24.4-1.64,1.44.2-8.14.84.95L143.86,317.25l.64-.61C144.85,318.39,145.13,320,145.31,321.67ZM143.89,323c-.26-2.12-.42-4.26-.5-6.26l0-.72.66.1,158.5,22.22.78.11.07.83.67,8.12.14,1.74-1.78-.29Z"/>
        </g>
        <g>
          <path class="cls-10" d="M284.39,387.13l80.42-35a2.25,2.25,0,0,0,.73-3.51h0a2.25,2.25,0,0,0-2.66-.56l-80.26,34.88Z"/>
          <path d="M285,385.62l41.14-17.77,20.7-8.91,10.38-4.46,5.2-2.22,1.3-.56.65-.28a1.61,1.61,0,0,0,.42-.24,1.47,1.47,0,0,0-1.07-2.59,1.57,1.57,0,0,0-.46.12l-.63.27-1.31.56-5.24,2.26-10.47,4.5-20.93,9-20.89,9.12-20.85,9.21.42-1a16.23,16.23,0,0,0,.84,1.72A10.14,10.14,0,0,0,285,385.62Zm-1.21,3c-.34-1.09-.66-2-1-2.92s-.6-1.71-.93-2.51l-.29-.72.71-.3,20.95-8.95,20.91-9.05L345,355l10.43-4.58,5.22-2.29,1.3-.57.67-.3a3.11,3.11,0,0,1,.92-.23,3,3,0,0,1,3.07,1.84,3.08,3.08,0,0,1-.83,3.5,4,4,0,0,1-.4.28,2.92,2.92,0,0,1-.39.2l-.66.29-1.31.58-5.24,2.33-10.51,4.64L326.21,370Z"/>
        </g>
        <g>
          <polygon class="cls-10" points="137.96 186.78 223.69 178.84 225.43 181.74 139.88 190.83 137.96 186.78"/>
          <path d="M137.53,186.53c28.64-2.77,57.4-5.54,86.12-8.19l.31,0,.16.26,1.73,2.91.39.66-.76.08L140,191.81l-.75.08-.24-.64C138.37,189.58,138,187.9,137.53,186.53Zm.86.49c.86,1.34,1.73,2.36,2.38,3.39l-1-.56,85.59-8.6L225,182l-1.73-2.9.47.24C195.3,182,166.91,184.5,138.39,187Z"/>
        </g>
        <path class="cls-27" d="M152.7,190.62S164.34,250.93,200,291.31c38.86,43.94,108,46.14,108,46.14s3.37.07,4.09,2.18a5.48,5.48,0,0,1-.46,4.13l59.91-22.64L220.15,181.24l-1.09-3.58-70.65,6.84s3.46.06,4.34,2.17A5.06,5.06,0,0,1,152.7,190.62Z"/>
        <path class="cls-18" d="M166.88,183.79s-2.18,19.12-1.65,30.3c.86,18.3,18.68,62.65,37.89,78.61,16.82,14,37.34,31.53,72.24,33.14s58.44-3.51,65.28-1.92a23.23,23.23,0,0,1,8.77,4.67L366,321.94l-186-139Z"/>
        <g class="cls-20">
          <line class="cls-13" x1="308.01" y1="334.99" x2="350" y2="320.93"/>
          <polygon points="308.01 334.99 349.69 320 350.32 321.87 308.01 334.99"/>
        </g>
        <g class="cls-20">
          <line class="cls-13" x1="155.01" y1="191.04" x2="178.12" y2="188.72"/>
          <polygon points="154.97 190.58 178.03 187.74 178.22 189.7 155.06 191.51 154.97 190.58"/>
        </g>
        <g>
          <path class="cls-28" d="M291.15,221.1s5.93,2.19,21.91-2.25,23.41-12.47,24.46-10.53c2.19,4-1.46,16.43-12,24.14-10.23,7.44-23.79,8.12-23.79,8.12"/>
          <path d="M291.61,219.85a3.58,3.58,0,0,0,.59.16c.23.06.46.1.71.14.49.08,1,.15,1.5.19a28.8,28.8,0,0,0,3.09.07,49.36,49.36,0,0,0,6.28-.58,85,85,0,0,0,12.38-2.94,68.05,68.05,0,0,0,11.66-5.06c1.88-1,3.7-2.1,5.56-3.2.47-.28.94-.55,1.44-.82a7.17,7.17,0,0,1,1.78-.7,1.58,1.58,0,0,1,.34,0,1.34,1.34,0,0,1,.42,0,1.42,1.42,0,0,1,.89.58,1,1,0,0,1,.17.3l.1.23.19.46a4.86,4.86,0,0,1,.23.91,4,4,0,0,1,.13.89,18.07,18.07,0,0,1-1,6.75,31.79,31.79,0,0,1-2.67,6.13,34,34,0,0,1-8.74,10.1,38.78,38.78,0,0,1-11.87,6.1,47.16,47.16,0,0,1-13.05,2.34l-.13-2.65c8.18-1.11,16.49-3.58,23.21-8.27.81-.62,1.64-1.22,2.4-1.92s1.51-1.39,2.24-2.11a34,34,0,0,0,3.83-4.86,29.52,29.52,0,0,0,2.76-5.54,16,16,0,0,0,1-5.91A3,3,0,0,0,337,210a3.2,3.2,0,0,0-.15-.66l-.11-.29,0-.14,0-.05.12.1.12.05h0s0,0,0,0a4.78,4.78,0,0,0-1.21.5c-.45.24-.91.5-1.37.77-1.83,1.09-3.69,2.22-5.6,3.25a75.23,75.23,0,0,1-12,5.23A87,87,0,0,1,304.14,222a52.65,52.65,0,0,1-6.54.83c-1.11,0-2.22.09-3.35,0-.56,0-1.13-.06-1.71-.12-.28,0-.57-.08-.87-.13a6.54,6.54,0,0,1-1-.24Z"/>
        </g>
        <path class="cls-29" d="M293,154.11s-1.05-35.47-28-47.83-70.85-5.81-86.34,37.72-10.45,80.85,6.76,118.15,53.87,54.64,90.45,57.51c26.67,2.09,54.17-2.58,73.34.8,23.24,4.1,32.68,15.81,32.68,15.81s-7.62,9.1-6.74,27.81c.81,17.41,14.56,37.05,14.56,37.05s6.23-34.37,20.79-42.36,40.61,7,40.61,7-9.16-20.77-22.25-29.92a71.91,71.91,0,0,0-20.6-9.56s-8.81-31.43-33.72-50c-22.52-16.76-41.92-16.85-60.78-32.08a64.6,64.6,0,0,1-22.41-35.5"/>
        <path class="cls-29" d="M293,154.11s37.94,7.36,39.3,11.75-10.84,8.71-20.65,10.47-31.17,4.86-31.17,4.86"/>
        <path class="cls-30" d="M332.34,167.34s-22.76,5.92-54.57,5.55c-30.1-.35-32.63-11.12-47.87-9.44S212,187.37,212.55,210.56c.61,27.44,11.43,53.62,35.72,68.18,27.86,16.69,72.29,12.94,95.06,19.21,31.57,8.69,47.17,36.31,47.17,36.31a77.4,77.4,0,0,0-6.35,27.09c-.78,15.56,5.06,37.82,5.06,37.82S399.3,360,413.37,357c17.64-3.72,36.24,11.36,36.24,11.36s-3-23.75-23.13-34c-13.09-6.64-18.66-7.56-18.66-7.56s-3.5-25.79-28.49-45.77c-19.4-15.5-30.1-17.36-47.61-25.72S305.3,237.18,302,233.08,290.6,207,290.6,207s26.63-8.42,31.93-12.77,6.78-12.77,4.27-14.18-.78-1.21-14.3.17a163.06,163.06,0,0,1-27.61.08,208.45,208.45,0,0,0,28-3.54C330.3,173.32,332.34,167.34,332.34,167.34Z"/>
        <path d="M292,155.13a66.27,66.27,0,0,0-1.1-7.73c-.5-2.57-1.11-5.12-1.85-7.62a66.48,66.48,0,0,0-6-14.33,45.07,45.07,0,0,0-9.67-11.88A37.64,37.64,0,0,0,267,109.2a46.81,46.81,0,0,0-7-3.13,65,65,0,0,0-30.63-3A60.19,60.19,0,0,0,201,114.86a59.59,59.59,0,0,0-10.88,11,66.86,66.86,0,0,0-7.84,13.41,78,78,0,0,0-2.8,7.3c-.44,1.25-.86,2.5-1.24,3.76s-.8,2.5-1.15,3.77a153.42,153.42,0,0,0-3.64,15.35,137.65,137.65,0,0,0-2.11,31.39,147.1,147.1,0,0,0,5,31.1A204.2,204.2,0,0,0,187,261.71a98.7,98.7,0,0,0,7.44,13.81,88.26,88.26,0,0,0,9.67,12.28,86.93,86.93,0,0,0,25.13,18.33A114.27,114.27,0,0,0,259,315.6c5.16.92,10.38,1.56,15.62,2s10.51.6,15.79.6c10.56,0,21.16-.48,31.84-.73,5.34-.11,10.7-.15,16.08.15,2.69.16,5.39.4,8.08.78s5.35.95,8,1.59a68,68,0,0,1,15.21,5.74,53.78,53.78,0,0,1,6.93,4.31,34.8,34.8,0,0,1,6.11,5.57l.57.66-.58.7h0a28.35,28.35,0,0,0-3,5.9,44.74,44.74,0,0,0-1.89,6.46,51.76,51.76,0,0,0-.93,6.69l-.13,1.68-.05,1.7c-.05,1.12,0,2.26,0,3.39a44.34,44.34,0,0,0,.67,6.7,66.8,66.8,0,0,0,1.43,6.62A79.85,79.85,0,0,0,383.45,389a66.32,66.32,0,0,0,3.17,6.09c.58,1,1.19,1.95,1.84,2.87.33.47.66.92,1,1.36.17.21.35.43.52.62l.26.29.12.13c.07.07,0,0-.06,0a.73.73,0,0,0-.5-.08.62.62,0,0,0-.31.14c-.07.05,0,0,0-.07a4,4,0,0,0,.26-.63c.17-.49.32-1,.46-1.58.27-1.09.52-2.22.76-3.36l1.41-6.84a95.17,95.17,0,0,1,3.82-13.64,38.36,38.36,0,0,1,7.23-12.64,20.48,20.48,0,0,1,13.41-6.84,25.52,25.52,0,0,1,7.47.34,40.23,40.23,0,0,1,7,2,78.77,78.77,0,0,1,12.63,6.5l3,1.82,1.47.87a9.87,9.87,0,0,0,1.36.67c.05,0,.17,0-.09,0a.84.84,0,0,0-.59.47c-.11.22-.06.4-.08.3a4.19,4.19,0,0,0-.1-.7c-.1-.51-.25-1.05-.41-1.58-.33-1.07-.72-2.14-1.14-3.2a65.23,65.23,0,0,0-6.49-12.06A59.05,59.05,0,0,0,432,339.76a50.8,50.8,0,0,0-24-12.42h0l-.7-.15-.14-.73A59,59,0,0,0,404,316.31a82.31,82.31,0,0,0-4.63-9.66,88.87,88.87,0,0,0-12.72-17.21,96.13,96.13,0,0,0-16.37-13.81,122.93,122.93,0,0,0-18.86-10.3c-6.56-2.95-13.34-5.53-20-8.63a89.11,89.11,0,0,1-18.81-11.45,65.19,65.19,0,0,1-14.57-16.66,70.7,70.7,0,0,1-5-9.89A58.05,58.05,0,0,1,289.74,208l3.09-.52a55.53,55.53,0,0,0,3.09,10,65.8,65.8,0,0,0,4.77,9.49,62.38,62.38,0,0,0,13.81,16,86.88,86.88,0,0,0,18.17,11.19c6.49,3.07,13.25,5.69,19.88,8.72a126.06,126.06,0,0,1,19.19,10.62,99.24,99.24,0,0,1,16.7,14.26,91,91,0,0,1,12.95,17.75,84.45,84.45,0,0,1,4.7,9.95,59.78,59.78,0,0,1,3.18,10.62l-.84-.88h0a60.91,60.91,0,0,1,13.26,5,55.86,55.86,0,0,1,6.07,3.66,54,54,0,0,1,5.48,4.5,68.9,68.9,0,0,1,16,23.06c.46,1.1.88,2.21,1.24,3.35a16.61,16.61,0,0,1,.49,1.78,7.06,7.06,0,0,1,.15,1,1.49,1.49,0,0,1-.12.72,1.33,1.33,0,0,1-.94.72,2,2,0,0,1-.94-.07,10.59,10.59,0,0,1-1.8-.8l-1.55-.86c-1-.57-2-1.14-3-1.69a67.23,67.23,0,0,0-12.5-5.46,30.27,30.27,0,0,0-12.91-1.4,18.72,18.72,0,0,0-5.93,1.85,18.25,18.25,0,0,0-4.92,3.77,30.28,30.28,0,0,0-3.91,5.19,49.19,49.19,0,0,0-3.11,5.94A95.12,95.12,0,0,0,395,388.49c-.63,2.22-1.16,4.47-1.73,6.72-.28,1.14-.54,2.27-.86,3.42-.16.58-.32,1.15-.54,1.76a7.77,7.77,0,0,1-.44,1,2.25,2.25,0,0,1-.51.63,1.38,1.38,0,0,1-.69.33,1.42,1.42,0,0,1-.92-.15,2.07,2.07,0,0,1-.4-.31l-.18-.18-.32-.36c-.21-.24-.4-.48-.59-.72-.38-.47-.73-1-1.07-1.44-.68-1-1.34-2-2-3-1.25-2-2.44-4-3.54-6.13A75.92,75.92,0,0,1,375.7,377a49.58,49.58,0,0,1-2.26-14.13,52.85,52.85,0,0,1,1.49-14.21,40.17,40.17,0,0,1,2.34-6.8,27.11,27.11,0,0,1,3.76-6.26h0v1.36a35.67,35.67,0,0,0-5.87-4.92,52.28,52.28,0,0,0-6.73-3.89A70.16,70.16,0,0,0,353.7,323a80.45,80.45,0,0,0-15.5-1.94c-5.24-.2-10.52-.12-15.81.05-10.59.33-21.24,1-31.95,1a174,174,0,0,1-32.1-2.71,118.19,118.19,0,0,1-30.73-10,90.29,90.29,0,0,1-26-19.27A97.82,97.82,0,0,1,184,263a206.63,206.63,0,0,1-10.82-30.25,151.11,151.11,0,0,1-5.1-31.79,141.86,141.86,0,0,1,2.14-32.14,155.46,155.46,0,0,1,3.71-15.69c.36-1.29.77-2.57,1.17-3.85s.82-2.56,1.26-3.83c.84-2.53,1.81-5.1,2.91-7.58a70,70,0,0,1,8.23-14.08,62,62,0,0,1,41.42-24.1,67.26,67.26,0,0,1,32.25,3.21,49.37,49.37,0,0,1,7.51,3.38,41.24,41.24,0,0,1,6.79,4.77,47.43,47.43,0,0,1,10.3,12.8,64.24,64.24,0,0,1,6,15.14,70.93,70.93,0,0,1,2.34,16Z"/>
        <g>
          <polygon class="cls-10" points="140.66 183.57 290.36 388.93 282.91 392.76 134.88 188.35 140.66 183.57"/>
          <path d="M140.78,182.6,291.16,388.35l.63.86-1,.59-7.18,4.36-1.15.7-.85-1.17L134.08,188.93l-.54-.75.71-.59C136.36,185.83,138.62,184.15,140.78,182.6Zm-.24,2c-1.69,1.64-3.28,3.13-5,4.56l.17-1.34L284.19,391.84l-2-.48,7.72-3.31-.35,1.46Z"/>
        </g>
        <g>
          <polygon class="cls-10" points="146.67 325.74 176.42 236.94 183.75 240.17 151.68 328.31 146.67 325.74"/>
          <path d="M145.94,326l29.73-89.36.26-.79.81.32,7.43,3,.92.37-.35.95-32.32,88-.31.83-.79-.4C149.5,328.08,147.67,327.06,145.94,326Zm1.46-.59c1.61.69,3.13,1.37,4.64,2.16l-1.1.43,31.81-88.23.57,1.33-7.22-3.48,1.06-.47Z"/>
        </g>
        <ellipse class="cls-14" cx="178.4" cy="244.36" rx="1.36" ry="1.97" transform="translate(-7.1 5.34) rotate(-1.68)"/>
        <ellipse class="cls-15" cx="282.51" cy="384.8" rx="1.36" ry="1.97" transform="translate(-42.37 35.03) rotate(-6.6)"/>
        <ellipse class="cls-14" cx="150.83" cy="320.2" rx="1.36" ry="1.97" transform="translate(-9.34 4.57) rotate(-1.68)"/>
        <ellipse class="cls-15" cx="140.05" cy="189.51" rx="1.36" ry="1.97" transform="translate(-5.5 4.19) rotate(-1.68)"/>
        <ellipse class="cls-14" cx="246.53" cy="335.07" rx="1.69" ry="2.46" transform="translate(-9.73 7.38) rotate(-1.68)"/>
        <path class="cls-31" d="M293.45,180.73l24.31-.71c4.59-.14,6-2.15,8.79.07s-.17,2.63-9,4.86S295,189.23,295,189.23l-20.71-8.59Z"/>
        <path class="cls-32" d="M272.07,180.37s11.85.64,18.17,3.09a52.14,52.14,0,0,1,11,5.92s-25.84,4.37-44.4-.67S234,172,234,172s16.68,8,25.25,8.79S272.07,180.37,272.07,180.37Z"/>
        <path d="M266.9,155.54a79.7,79.7,0,0,1,10.85-1.79,109.35,109.35,0,0,1,11-.56c3.67,0,7.35.11,11,.42a83.22,83.22,0,0,1,11,1.65,78,78,0,0,1,10.67,3.12c1.74.66,3.46,1.36,5.15,2.2a24.69,24.69,0,0,1,4.87,3,9,9,0,0,1,1.11,1.11,4.55,4.55,0,0,1,.93,1.62,2.77,2.77,0,0,1,.07,1.23,3.58,3.58,0,0,1-.37,1,5.72,5.72,0,0,1-1.09,1.37,19.17,19.17,0,0,1-5,3.08,71.3,71.3,0,0,1-10.53,3.64,159.12,159.12,0,0,1-21.66,4.25q-5.47.72-11,1.16c-3.67.25-7.32.45-11,.52a86.31,86.31,0,0,1-22.16-2.07,50.56,50.56,0,0,1-10.6-3.78,31.61,31.61,0,0,1-4.84-2.95,18,18,0,0,1-4.17-4l1.32-1a15.14,15.14,0,0,0,1.93,1.62,21.68,21.68,0,0,0,2.19,1.43,35.68,35.68,0,0,0,4.75,2.27,56.45,56.45,0,0,0,10.18,2.91,106.87,106.87,0,0,0,21.33,1.65c14.42-.4,29-1.47,43-4.78A65.81,65.81,0,0,0,326,170.66a16.62,16.62,0,0,0,4.36-2.52c.58-.48.85-1.11.74-1.13a3.84,3.84,0,0,0-1.26-1.55,22.85,22.85,0,0,0-4.39-2.71,46.32,46.32,0,0,0-4.92-2.05,77,77,0,0,0-10.37-2.78,95.89,95.89,0,0,0-10.66-1.49c-3.6-.32-7.21-.54-10.83-.7C281.47,155.43,274.22,155.37,266.9,155.54Z"/>
        <path d="M232.59,171a42.58,42.58,0,0,0,8.59,8.92,40.77,40.77,0,0,0,10.56,6,42.4,42.4,0,0,0,11.88,2.52c4.15.37,8.31.54,12.47.64s8.32,0,12.48-.18,8.3-.55,12.42-1.13,8.22-1.28,12.29-2.17c2-.43,4.06-.92,6.08-1.45s4-1.12,6-1.81a54.8,54.8,0,0,1-11.65,5,92.26,92.26,0,0,1-12.38,2.89A141.27,141.27,0,0,1,276,192.09c-4.24-.05-8.47-.31-12.68-.7a42.78,42.78,0,0,1-12.61-3,34.92,34.92,0,0,1-10.93-6.92,31.45,31.45,0,0,1-4.22-4.86A23.14,23.14,0,0,1,232.59,171Z"/>
        <path d="M288.9,179.18c5.59.3,11.23.21,16.87,0s11.25-.57,17-.68c.72,0,1.44,0,2.2,0,.38,0,.77.06,1.19.13a3.94,3.94,0,0,1,.77.21,3.18,3.18,0,0,1,.72.41,6.12,6.12,0,0,1,2.16,4.7,9.87,9.87,0,0,1-1.07,4.7,14.27,14.27,0,0,1-2.74,3.74,34.88,34.88,0,0,1-7.1,5.22,69.67,69.67,0,0,1-7.75,3.83,107,107,0,0,1-16.3,5.4,111.46,111.46,0,0,1-16.92,2.91,84.6,84.6,0,0,1-17.21,0,41.29,41.29,0,0,1-4.27-.7,36,36,0,0,1-4.19-1.13,21.87,21.87,0,0,1-7.6-4.05,35.59,35.59,0,0,0,8,2.34c1.36.26,2.74.46,4.11.63.69.11,1.38.15,2.07.22s1.38.15,2.07.18a89.54,89.54,0,0,0,16.69-.31,122.86,122.86,0,0,0,32.44-8,69.83,69.83,0,0,0,7.5-3.6,31.83,31.83,0,0,0,6.59-4.73,9.21,9.21,0,0,0,3.14-6.53,3.76,3.76,0,0,0-1.14-2.82.74.74,0,0,0-.44-.19c-.28,0-.6-.08-.92-.1-.66,0-1.35,0-2,0-11.21.19-22.62,1.1-34,.27Z"/>
        <path d="M253.13,215.53c3-.28,6-.48,9-.71s5.95-.47,8.88-.9a55.51,55.51,0,0,0,8.64-1.81,50.46,50.46,0,0,0,8.31-3.27,25.88,25.88,0,0,1-7.8,4.72,37.23,37.23,0,0,1-4.37,1.44,43.42,43.42,0,0,1-4.52.87,60.21,60.21,0,0,1-9.09.48A57.11,57.11,0,0,1,253.13,215.53Z"/>
        <path class="cls-33" d="M262.05,275.7c.07,2.33,8.68,4.49,15.23,3.81s9.65-1.65,8.44-3.56-5.73-5.07-10.81-4.43S262,273.26,262.05,275.7Z"/>
        <path class="cls-33" d="M258.79,225.73s3.68-4.73,14.68-4.11,14.68,2.5,14.93,5.61,1,22.33-3.12,27.88-12,11.53-12,11.53a37.15,37.15,0,0,1-12-17.4C258,238.32,258.79,225.73,258.79,225.73Z"/>
        <path class="cls-34" d="M260,233.49s3.17-2.19,13.52-2.33,12.92,1.56,12.92,1.56.69,12.47-1.45,17.79S274.52,264,274.52,264s-2.86-2.22-9.16-9.92S260,233.49,260,233.49Z"/>
        <path class="cls-35" d="M260.23,233.88s3.77,2.47,12,2.53c9,.07,14.47-3.74,14.15-3.69s-6.81-1.81-13.85-1.44A40.72,40.72,0,0,0,260.23,233.88Z"/>
        <polygon class="cls-36" points="272.32 228.04 273.01 234.99 276.46 234.89 275.44 228.11 272.32 228.04"/>
        <path d="M259.73,225.43a53.61,53.61,0,0,0-.78,11.7,57.77,57.77,0,0,0,.52,5.89,42.38,42.38,0,0,0,1.15,5.77A27,27,0,0,0,263,254.1a32.68,32.68,0,0,0,3.38,4.8,45.55,45.55,0,0,0,8.55,8h0l-1.26.05a54,54,0,0,0,7.31-8.5,37.72,37.72,0,0,0,5.09-9.89c.34-.87.48-1.78.73-2.66s.36-1.84.48-2.77a47.56,47.56,0,0,0,.49-5.59,54.89,54.89,0,0,0-.71-11.19L289,226a56.35,56.35,0,0,1,.75,11.65,51.57,51.57,0,0,1-.51,5.81c-.12,1-.32,1.92-.5,2.88s-.43,1.94-.78,2.86a40,40,0,0,1-5.35,10.42,56.51,56.51,0,0,1-7.61,8.84l-.62.59-.63-.54h0a58.38,58.38,0,0,1-4.36-4.24,51.88,51.88,0,0,1-3.92-4.59,34.43,34.43,0,0,1-5.77-10.57,60.64,60.64,0,0,1-1.94-11.86q-.24-3-.23-6c0-2,.05-4,.23-6.07Z"/>
        <path d="M288.72,226a3,3,0,0,1-.15.73,2.92,2.92,0,0,1-.34.6c-.14.15-.27.32-.42.46l-.45.37a9.36,9.36,0,0,1-1.92,1,24.66,24.66,0,0,1-4,1.17,42.49,42.49,0,0,1-8.1.83,40.59,40.59,0,0,1-8.13-.74,22.84,22.84,0,0,1-4-1.17,9.08,9.08,0,0,1-2-1.06l-.47-.4a5.47,5.47,0,0,1-.45-.51,2.54,2.54,0,0,1-.52-1.53,3.22,3.22,0,0,1,.19-.84,3.32,3.32,0,0,1,.4-.64,5.35,5.35,0,0,1,.47-.48l.49-.37a9.5,9.5,0,0,1,2-.95,22.36,22.36,0,0,1,4-1,49.91,49.91,0,0,1,8.08-.46,51.7,51.7,0,0,1,8,.83,24.18,24.18,0,0,1,3.95,1,9,9,0,0,1,1.92,1l.45.35a4.47,4.47,0,0,1,.42.45,3.06,3.06,0,0,1,.35.59A3.25,3.25,0,0,1,288.72,226Zm-1.35,0a1.55,1.55,0,0,0-.76-1.08A8,8,0,0,0,285,224a20,20,0,0,0-3.72-1.1,39.48,39.48,0,0,0-7.83-.63,40.54,40.54,0,0,0-7.8.79,21,21,0,0,0-3.67,1.07,7.92,7.92,0,0,0-1.56.83,1.35,1.35,0,0,0-.66.83,1.57,1.57,0,0,0,.69.75,7.32,7.32,0,0,0,1.56.77,21.27,21.27,0,0,0,3.65,1,52.27,52.27,0,0,0,7.73.71,49.11,49.11,0,0,0,7.77-.41,20.05,20.05,0,0,0,3.73-.87,8.22,8.22,0,0,0,1.64-.76A1.64,1.64,0,0,0,287.37,225.93Z"/>
        <path d="M286.63,275.85a2.12,2.12,0,0,1-.36,1.39,3.42,3.42,0,0,1-.78.82,7.42,7.42,0,0,1-1.65.93,17.64,17.64,0,0,1-3.37,1,31.79,31.79,0,0,1-6.8.54,34.44,34.44,0,0,1-6.77-.77,16.24,16.24,0,0,1-3.34-1.08,5.7,5.7,0,0,1-1.63-1.08,2.42,2.42,0,0,1-.66-1,2.06,2.06,0,0,1,0-1.37,4.18,4.18,0,0,1,1.26-1.65,9,9,0,0,1,1.5-1,15.9,15.9,0,0,1,3.24-1.33,24.39,24.39,0,0,1,6.79-.92,22.81,22.81,0,0,1,6.79,1.06,14.3,14.3,0,0,1,3.2,1.44,8.74,8.74,0,0,1,1.48,1.14A3.53,3.53,0,0,1,286.63,275.85Zm-1.81.2a1.88,1.88,0,0,0-.53-.91,7.49,7.49,0,0,0-1.13-.91,13.35,13.35,0,0,0-2.8-1.33,20.78,20.78,0,0,0-6.28-1.06,20.1,20.1,0,0,0-6.31.88,14.78,14.78,0,0,0-2.88,1.23,8.51,8.51,0,0,0-1.22.85,2.66,2.66,0,0,0-.75,1,.35.35,0,0,0,0,.26.93.93,0,0,0,.25.33,4.45,4.45,0,0,0,1.15.72,15.42,15.42,0,0,0,3,.9,33.5,33.5,0,0,0,6.42.61,35,35,0,0,0,6.4-.52,17,17,0,0,0,3-.82,6.12,6.12,0,0,0,1.25-.66C284.73,276.33,284.84,276.07,284.82,276.05Z"/>
        <path class="cls-30" d="M235.21,226.66s8.19,10.36,25.58,14.78c20.87,5.31,31.81-2.23,33.08,1.25,1.34,3.66-7.56,19.46-32.7,19.95-22.45.44-28.27-5.37-28.27-5.37"/>
        <path class="cls-23" d="M293.87,242.69a33.07,33.07,0,0,1-20,13.36c-19.59,4.44-42.76.25-42.76.25s3,6.41,12.82,8.87,14.17-1.48,14.17-1.48,13.43-1.72,20-4.06,12.33-8,13.56-10,2.27-7,2.27-7"/>
        <path d="M235.21,226.66A60.3,60.3,0,0,0,249,235.81,61.43,61.43,0,0,0,264.62,241a59.15,59.15,0,0,0,16.37.91c2.74-.22,5.43-.7,8.24-1.16.71-.11,1.43-.21,2.22-.26a7.23,7.23,0,0,1,1.29.05,3.08,3.08,0,0,1,1.63.69,2.81,2.81,0,0,1,.86,1.69,5.09,5.09,0,0,1,0,1.41,9.39,9.39,0,0,1-.64,2.33,22,22,0,0,1-5.17,7.25,33.08,33.08,0,0,1-7.1,5.13,43.55,43.55,0,0,1-16.58,4.84c-1.43.14-2.87.23-4.3.25l-4.26,0c-2.84-.1-5.68-.25-8.52-.62-1.41-.18-2.82-.44-4.22-.71s-2.79-.68-4.15-1.16c-.68-.25-1.35-.5-2-.78s-1.32-.59-2-.95a11.79,11.79,0,0,1-3.42-2.6,16.89,16.89,0,0,0,3.87,1.54c1.31.41,2.66.68,4,1a80,80,0,0,0,8.17,1.06c2.74.28,5.51.33,8.27.37l4.15-.05c1.37,0,2.73-.12,4.09-.25A42.34,42.34,0,0,0,281,256.54a29.06,29.06,0,0,0,6.57-4.6,19.31,19.31,0,0,0,4.63-6.27,7.52,7.52,0,0,0,.5-1.7,2.76,2.76,0,0,0,0-.69c0-.19-.06-.19,0-.17a1.55,1.55,0,0,0-.3-.08,4.17,4.17,0,0,0-.8,0,18.21,18.21,0,0,0-2,.23c-2.72.45-5.56.95-8.41,1.2a58.34,58.34,0,0,1-17.09-.93,55,55,0,0,1-8.26-2.3,51.81,51.81,0,0,1-7.84-3.48,43,43,0,0,1-7.07-4.82A30.17,30.17,0,0,1,235.21,226.66Z"/>
        <g>
          <path class="cls-36" d="M271.85,229s-4.32-26.75-4-31c.28-3.14,4.2-9.29,6.15-12.19a2.24,2.24,0,0,1,2.81-.78h0a2.24,2.24,0,0,1,1,3.19c-1.84,3-5,8.47-5.48,10.39-.66,2.73,4.1,30.37,4.1,30.37"/>
          <path d="M271.37,229.11q-.93-5.82-1.77-11.66c-.58-3.9-1.14-7.79-1.62-11.7-.23-2-.46-3.91-.57-5.91a8.52,8.52,0,0,1,.22-3.08,20.07,20.07,0,0,1,1.08-2.84,54.92,54.92,0,0,1,2.87-5.22c.52-.84,1.05-1.68,1.59-2.5l.41-.62a3.08,3.08,0,0,1,.63-.67,2.88,2.88,0,0,1,1.72-.59,2.84,2.84,0,0,1,2.75,2.11,2.94,2.94,0,0,1-.13,1.85,7.57,7.57,0,0,1-.38.72l-.37.64c-1,1.7-1.91,3.42-2.81,5.15-.44.86-.89,1.73-1.28,2.59-.19.44-.37.88-.5,1.28a2.3,2.3,0,0,0-.08.57v.64c.06,1.88.29,3.85.52,5.78,1,7.78,2.16,15.56,3.29,23.33l-1,.17c-1.47-7.73-2.85-15.48-3.88-23.3-.25-2-.51-3.9-.59-5.95l0-.39c0-.14,0-.3,0-.45a3.05,3.05,0,0,1,.16-.87,11,11,0,0,1,.59-1.47c.43-.92.88-1.8,1.37-2.67,1-1.73,2-3.42,3-5.09l.39-.63c.13-.21.27-.42.34-.56a1.61,1.61,0,0,0,.1-1,1.68,1.68,0,0,0-1.58-1.26,1.74,1.74,0,0,0-1.41.74l-.4.6c-.55.82-1.08,1.64-1.59,2.47a52,52,0,0,0-2.84,5.1,18.35,18.35,0,0,0-1,2.65,7.66,7.66,0,0,0-.21,2.76c.11,1.94.32,3.89.54,5.84.92,7.79,2.11,15.57,3.36,23.33Z"/>
        </g>
        <polygon points="275.95 267.62 275.69 275.52 273.55 275.59 272.8 267.72 275.95 267.62"/>
        <path d="M267,180.52a58.63,58.63,0,0,1,8.69-.29,55.55,55.55,0,0,1,8.69,1,33.06,33.06,0,0,1,4.27,1.11,36.76,36.76,0,0,1,4.09,1.58,26.16,26.16,0,0,1,7.37,4.71c-2.65-1.21-5.3-2.21-8-3.13a75.26,75.26,0,0,0-8.13-2.39c-2.77-.58-5.59-1-8.42-1.44Z"/>
        <path d="M227.24,173.67a5.26,5.26,0,0,1,.28-3.3,6.53,6.53,0,0,1,2.09-2.72,7.78,7.78,0,0,1,3-1.4,5.48,5.48,0,0,1,3.3.19c-.95.6-1.76,1.13-2.54,1.65s-1.53,1-2.23,1.57a14.83,14.83,0,0,0-1.92,1.75C228.58,172.07,228,172.81,227.24,173.67Z"/>
        <g class="cls-37">
          <path class="cls-16" d="M238.22,154.57c-.17,3.84-3.36,5.64-7.23,5.71-4.72.09-7-3-6.84-6.17a7.55,7.55,0,0,1,7.16-6.8C235.18,147.09,238.4,150.19,238.22,154.57Z"/>
        </g>
        <g class="cls-37">
          <path class="cls-16" d="M288.17,146c.67,2.75.35,5.91-3.77,7a5.55,5.55,0,0,1-7.07-4.3,6.11,6.11,0,0,1,5.85-7.07C285.6,141.58,287.45,143.05,288.17,146Z"/>
        </g>
        <ellipse cx="233.18" cy="154.97" rx="4.88" ry="3.54" transform="translate(50.28 366.95) rotate(-82.82)"/>
        <ellipse cx="284.25" cy="148.56" rx="4.35" ry="3.01" transform="translate(108.04 416.55) rotate(-84.27)"/>
        <path d="M223.83,154.26a7.39,7.39,0,0,1,1.29-4.77,7.7,7.7,0,0,1,4.18-3,7.46,7.46,0,0,1,5.18.11,5.24,5.24,0,0,1,3.09,3.89,6.47,6.47,0,0,0-3.56-2.61,7.94,7.94,0,0,0-4.23.19,8,8,0,0,0-3.68,2.2A10.52,10.52,0,0,0,223.83,154.26Z"/>
        <path d="M277.15,146.18a6.14,6.14,0,0,1,1.67-3.82,5.63,5.63,0,0,1,1.81-1.29,6.37,6.37,0,0,1,2.18-.51,6.53,6.53,0,0,1,2.22.29,4.87,4.87,0,0,1,1.93,1.21,5.08,5.08,0,0,1,1.41,3.93,7.11,7.11,0,0,0-2.21-3,5,5,0,0,0-3.28-.85,5.65,5.65,0,0,0-3.25,1.14A10.21,10.21,0,0,0,277.15,146.18Z"/>
        <g class="cls-20">
          <path d="M220.19,145.85a11.16,11.16,0,0,1,2.93-3.92,14.49,14.49,0,0,1,4.21-2.5,14.65,14.65,0,0,1,4.77-1,9.46,9.46,0,0,1,4.83,1l-.41.89a14.26,14.26,0,0,0-4.28-.06,20.52,20.52,0,0,0-4.21,1,15.88,15.88,0,0,0-3.84,2,13.69,13.69,0,0,0-3.12,3Z"/>
        </g>
        <g class="cls-20">
          <path d="M276.23,135.5a9.48,9.48,0,0,1,3-1.4,10.22,10.22,0,0,1,3.36-.31,7.75,7.75,0,0,1,3.32,1,7.16,7.16,0,0,1,2.56,2.34l-1.13.85a9.77,9.77,0,0,0-2.3-1.52,8.14,8.14,0,0,0-2.64-.77,11.9,11.9,0,0,0-2.86,0,12.91,12.91,0,0,0-2.84.67Z"/>
        </g>
        <path class="cls-16" d="M207.13,106.55l2.11-11.3s23.9-2.29,42.21,3c9.6,2.79,32,20.29,32,20.29l-12.38,5.94s-22.4-11-31.18-12.08C224.05,110.41,207.13,106.55,207.13,106.55Z"/>
        <path class="cls-38" d="M281.78,119.27l4.16,4.55s16.49-6.77,13.22-9C296.36,112.88,281.78,119.27,281.78,119.27Z"/>
        <path class="cls-39" d="M208.13,107.06s6,4.53,8.75,5.9c6.94,3.38,12,3.42,12,3.42s-2.74-24,1.72-29.42,9.29-6.63,13.77-8.15c6.93-2.36,17.14-3.14,17.14-3.14l-16-2.75s-4.22-4.71-7.25-3.27a19.12,19.12,0,0,0-5.56,4.55s-11.29-1-20.67,10.18C205.27,92.36,208.13,107.06,208.13,107.06Z"/>
        <path class="cls-40" d="M234.44,116.2s15.17,13,25.41,13.21,16.62-6.25,22.61-9.33a78.11,78.11,0,0,1,15.64-6l-23.17-8.56a90.79,90.79,0,0,1-17.69,7A115.78,115.78,0,0,1,234.44,116.2Z"/>
        <path class="cls-16" d="M229.15,115.26s16.37.69,28.85-2.86,15.9-6.73,15.9-6.73-2.68-21.44-7.33-25A73.7,73.7,0,0,0,259.8,76c1.95.08-20.75,1.24-28.4,9.54C225,92.43,229.15,115.26,229.15,115.26Z"/>
        <path d="M283.34,124.05a48.44,48.44,0,0,0,10.26-4.59,27.26,27.26,0,0,0,4.48-3.24,8.3,8.3,0,0,0,.86-1,2.76,2.76,0,0,0,.26-.44c.06-.13,0-.18.08,0s.17.11,0,.09a3.53,3.53,0,0,0-.59-.07,9.9,9.9,0,0,0-1.32,0,38.2,38.2,0,0,0-10.7,3.48,86.77,86.77,0,0,0-9.82,5.8A37.59,37.59,0,0,1,265.94,129a23.11,23.11,0,0,1-6.1.6,24.2,24.2,0,0,1-6-1.06A49.49,49.49,0,0,1,243,123.72a75.51,75.51,0,0,1-9.66-6.77h0l.86.31a43.2,43.2,0,0,1-7.07-.5,69,69,0,0,1-6.87-1.36,51.23,51.23,0,0,1-6.71-2.14,35.05,35.05,0,0,1-6.36-3.31h0l-.62-.41v-.72a98.57,98.57,0,0,1,1-12.62,58.88,58.88,0,0,1,1.21-6.25A29.86,29.86,0,0,1,211,83.82,13.46,13.46,0,0,1,212.87,81a23.75,23.75,0,0,1,2.45-2.22,28.81,28.81,0,0,1,11.59-5.58,25.41,25.41,0,0,1,6.5-.68h0l-1.09.93a5.15,5.15,0,0,1,.71-2.33,5.86,5.86,0,0,1,1.58-1.78,8.23,8.23,0,0,1,4.21-1.58,7,7,0,0,1,4.55,1,6.33,6.33,0,0,1,1.73,1.65,6.21,6.21,0,0,1,1,2.15h0L245,71.74a45.93,45.93,0,0,1,12.73,1.61,27.57,27.57,0,0,1,6.06,2.47,15.23,15.23,0,0,1,5,4.55A36.68,36.68,0,0,1,274,92.24a71.44,71.44,0,0,1,2.15,12.62h0L275,103.44c4.2,1.49,8.38,3,12.57,4.56s8.25,3.41,12.32,5.24l-.74,1.75c-4.12-1.61-8.28-3.18-12.45-4.57s-8.44-2.67-12.68-4l-1-.31-.07-1.11h0A68.85,68.85,0,0,0,271.13,93a34.42,34.42,0,0,0-4.51-11.07,12.48,12.48,0,0,0-4.1-3.89,25.07,25.07,0,0,0-5.46-2.35,43.93,43.93,0,0,0-12-1.76L244,73.14h0a6,6,0,0,0-.91-1.16,4.56,4.56,0,0,0-1.15-.85,5.23,5.23,0,0,0-2.85-.5,7.21,7.21,0,0,0-3,.87,3.94,3.94,0,0,0-1.09.94,4.45,4.45,0,0,0-.68,1.2l-.41,1-.68-.1h0a23.72,23.72,0,0,0-5.86.71,26.86,26.86,0,0,0-5.62,2.06,26.46,26.46,0,0,0-5,3.25,21.81,21.81,0,0,0-2.15,2,11.39,11.39,0,0,0-1.53,2.34,38.78,38.78,0,0,0-3,11.62,96.63,96.63,0,0,0-.77,12.25l-.61-1.14h0a32.21,32.21,0,0,0,2.88,1.46c1,.46,2,.89,3.06,1.27a58.79,58.79,0,0,0,6.36,2c2.17.58,4.36,1,6.56,1.44,1.1.2,2.21.36,3.31.51s2.24.26,3.26.3l.53,0,.34.29h0a73.24,73.24,0,0,0,9.35,6.36,48.11,48.11,0,0,0,10.24,4.54,20.45,20.45,0,0,0,10.72.46,35.18,35.18,0,0,0,10.16-4.42c1.65-1,3.28-2,5-2.94a50.21,50.21,0,0,1,5.35-2.54c1.82-.74,3.68-1.37,5.56-1.94a33.5,33.5,0,0,1,5.81-1.25,11.31,11.31,0,0,1,1.56-.08,6.65,6.65,0,0,1,.85.09,1.58,1.58,0,0,1,1.19.8,1.7,1.7,0,0,1,0,1.4,4.28,4.28,0,0,1-.42.83,9.83,9.83,0,0,1-1,1.25,24.27,24.27,0,0,1-4.69,3.76,36.72,36.72,0,0,1-10.87,4.61Z"/>
        <path d="M234,114.84c3.53-.14,7.09-.46,10.61-.85a84.46,84.46,0,0,0,10.43-1.79c3.43-.85,6.84-1.88,10.17-3,1.67-.58,3.31-1.24,4.93-1.92a26.88,26.88,0,0,0,4.57-2.44l.64.65a20.09,20.09,0,0,1-4.57,3.11,44.05,44.05,0,0,1-4.95,2.26,89.39,89.39,0,0,1-10.31,3.27,78.6,78.6,0,0,1-10.7,1.79c-3.59.38-7.17.57-10.79.65Z"/>
        <path d="M227.94,115.35a109.37,109.37,0,0,1-.89-15.87,43.18,43.18,0,0,1,.86-8,14.5,14.5,0,0,1,1.41-3.88,16.29,16.29,0,0,1,2.51-3.25,19.86,19.86,0,0,1,6.89-4.22c2.49-1,5-1.7,7.55-2.42A42.68,42.68,0,0,1,262,75.87l-.08.74a41.47,41.47,0,0,0-15.37,2.07c-2.51.76-5,1.55-7.41,2.53a18.77,18.77,0,0,0-6.39,4.07c-3.83,3.57-4,9.11-4.12,14.23a106.82,106.82,0,0,0,1.15,15.57Z"/>
        <g class="cls-18">
          <path d="M247,77.67a31.82,31.82,0,0,1,8.76,5.14,15.74,15.74,0,0,1,1.81,1.84,13.92,13.92,0,0,1,1.4,2.18,25.88,25.88,0,0,1,1.9,4.75,60.64,60.64,0,0,1,2,10,100.57,100.57,0,0,1,.7,10.13h-1.24a98.55,98.55,0,0,0-.52-10A59.32,59.32,0,0,0,260,91.83c-.91-3.18-2.18-6.36-4.73-8.5a30.8,30.8,0,0,0-8.48-5.18Z"/>
        </g>
      </g>
      <path class="cls-6" d="M246,395a47,47,0,0,1,9.26-7.31,54.83,54.83,0,0,1,5.22-2.86,52.12,52.12,0,0,1,5.51-2.31c1.89-.66,3.81-1.25,5.75-1.73a59.55,59.55,0,0,1,5.94-1.06,51.76,51.76,0,0,1,23.88,2.53,54.19,54.19,0,0,1,10.8,5.32,58.19,58.19,0,0,1,4.87,3.49q2.32,1.89,4.45,4a46.61,46.61,0,0,1,7.32,9.28,76.08,76.08,0,0,0-18.29-13.94,57.21,57.21,0,0,0-32.65-7.05,64,64,0,0,0-11.18,2,70.54,70.54,0,0,0-10.76,4A66.07,66.07,0,0,0,246,395Z"/>
    </g>
    <g id="rainbow">
      <g class="cls-41">
        <path class="cls-42" d="M448.2,328.48q0-7.14.66-14.29c.45-4.76,1.1-9.5,2-14.22a146.48,146.48,0,0,1,8-27.75,128.56,128.56,0,0,1,13.94-25.58A113.81,113.81,0,0,1,492.7,225a105.92,105.92,0,0,1,53.81-23.64,116.69,116.69,0,0,1,29.64-.09,138.8,138.8,0,0,1,14.51,2.59c4.75,1.1,9.47,2.42,14.1,4a139.94,139.94,0,0,1,50.46,29.73,161.21,161.21,0,0,1,34.59,46.89c8.68,17.33,14.62,35.75,18.76,54.37q3,14,4.82,28.14c.62,4.7,1.11,9.42,1.55,14.14s.7,9.44,1,14.16l-12.09.86c-.86-9.16-2-18.27-3.36-27.32s-3.18-18-5.34-26.86a234.32,234.32,0,0,0-18.34-50.91c-8.17-15.94-18.59-30.64-31.58-42.6a126.67,126.67,0,0,0-45.1-26.91,138.35,138.35,0,0,0-25.74-6.3,103.53,103.53,0,0,0-26.14-.34A93.71,93.71,0,0,0,523,221.35a90.44,90.44,0,0,0-11.71,5.81,95.49,95.49,0,0,0-10.87,7.35,103.75,103.75,0,0,0-18.51,18.82,117.2,117.2,0,0,0-13.69,22.92,136.24,136.24,0,0,0-8.78,25.53q-1.59,6.62-2.57,13.37c-.7,4.49-1.2,9-1.52,13.59Z"/>
        <path class="cls-43" d="M440.77,325.21c0-5,.29-10.08.79-15.11s1.27-10.05,2.26-15a148.08,148.08,0,0,1,8.93-29.16,130.27,130.27,0,0,1,36.3-49.23,116.45,116.45,0,0,1,56.11-25.61A123.83,123.83,0,0,1,576.28,190a128.77,128.77,0,0,1,15.39,2.35,145.43,145.43,0,0,1,15,4,143.71,143.71,0,0,1,28.22,12.8,146.69,146.69,0,0,1,24.78,18.51,167.7,167.7,0,0,1,20.58,22.89,195.82,195.82,0,0,1,16.25,25.94,218.11,218.11,0,0,1,12.26,27.86,252,252,0,0,1,8.65,29.05,297.62,297.62,0,0,1,7.69,59.78l-10,.46q-1-14.56-3.15-29c-1.49-9.59-3.43-19.1-5.86-28.46a241.85,241.85,0,0,0-20.69-53.8,183.31,183.31,0,0,0-15.41-24.11,155.25,155.25,0,0,0-19.06-21.09A132.25,132.25,0,0,0,589,204.89a125.43,125.43,0,0,0-13.89-2.21,111,111,0,0,0-28,.65,107.74,107.74,0,0,0-50.91,22.17,115.43,115.43,0,0,0-19.89,20.05,127.76,127.76,0,0,0-14.89,24.26,144.47,144.47,0,0,0-9.63,27c-1.16,4.67-2.1,9.41-2.81,14.18s-1.29,9.58-1.62,14.42Z"/>
        <path class="cls-44" d="M425.61,317.25a179,179,0,0,1,14.09-66.48c9.1-21,22.86-40.26,40.79-55a126.66,126.66,0,0,1,63-27.71,134.81,134.81,0,0,1,34.7-.3,156.06,156.06,0,0,1,17,3q8.36,1.9,16.53,4.59a175.06,175.06,0,0,1,31.53,13.77,161.82,161.82,0,0,1,28.11,20,171.1,171.1,0,0,1,23.31,25.35,195.61,195.61,0,0,1,18,29.15c10.32,20.34,17.48,42,22.49,64a439.65,439.65,0,0,1,9.45,66.68l-10.92.83a444.6,444.6,0,0,0-10-64.85c-5-21.21-12-41.95-21.84-61.13s-22.65-36.74-38.64-50.88a149.48,149.48,0,0,0-26-18.53A163.71,163.71,0,0,0,607.92,187c-5.09-1.67-10.27-3.1-15.5-4.35a149.06,149.06,0,0,0-15.72-2.92,122.74,122.74,0,0,0-31.64.06,115.23,115.23,0,0,0-30.43,8.41,120.65,120.65,0,0,0-27.09,16.35c-16.61,13.24-29.63,30.88-38.42,50.42a161.53,161.53,0,0,0-10.23,30.55,187.09,187.09,0,0,0-4.38,32.1Z"/>
        <path class="cls-45" d="M434.24,320.73c0-5.31.29-10.64.8-16s1.31-10.6,2.34-15.85a156.94,156.94,0,0,1,9.32-30.79,142.94,142.94,0,0,1,15.89-28.23,132.24,132.24,0,0,1,22.26-23.83,122.79,122.79,0,0,1,27.75-17.46,120.17,120.17,0,0,1,31.48-9.52,128.7,128.7,0,0,1,32.86-1,134.15,134.15,0,0,1,16.22,2.56A142.39,142.39,0,0,1,609,185.07,147.88,147.88,0,0,1,638.61,199a161,161,0,0,1,25.94,19.8,190.7,190.7,0,0,1,21.71,24.12,220.18,220.18,0,0,1,17.46,27.18,236.69,236.69,0,0,1,13.43,29.24A253.18,253.18,0,0,1,726.72,330a267.23,267.23,0,0,1,7.76,63.42l-10.05.18a290.43,290.43,0,0,0-2.86-30.61,266.74,266.74,0,0,0-6.29-30.05,251.33,251.33,0,0,0-22.74-56.66,207.6,207.6,0,0,0-16.65-25.44,177.59,177.59,0,0,0-20.26-22.43c-14.73-13.66-32-24.57-50.85-31.05s-39.2-9-58.83-6a113.29,113.29,0,0,0-54.12,23.4A122,122,0,0,0,470.74,236,135.63,135.63,0,0,0,455,261.82a153.68,153.68,0,0,0-10.18,28.75q-1.83,7.44-3,15.06t-1.71,15.31Z"/>
        <path class="cls-46" d="M417.48,313.08l.37-9c.22-3,.52-6,.77-9s.82-5.95,1.22-8.93,1.09-5.92,1.64-8.88a173.55,173.55,0,0,1,11-34.46,152.91,152.91,0,0,1,43.91-57.53,137.65,137.65,0,0,1,67-28.4,149.17,149.17,0,0,1,36.69-.29l4.56.53,4.55.78c1.52.26,3.05.5,4.55.8l4.45,1.09,4.46,1.09c1.46.42,2.91.88,4.37,1.31l4.36,1.33c1.46.45,2.87,1,4.31,1.51A186.77,186.77,0,0,1,678,202.16a210.56,210.56,0,0,1,44.63,57,264.83,264.83,0,0,1,25,67.59c.61,2.94,1.31,5.87,1.84,8.82l1.58,8.86,1.28,8.9c.42,3,.68,6,1,8.93a333.07,333.07,0,0,1,1.68,35.85l-11.6,0c-.42-23.1-2.72-46.18-8.12-68.55a254.71,254.71,0,0,0-24.12-64.18c-11-20-25-38.35-41.89-53.53a174,174,0,0,0-58-34.7c-1.34-.47-2.66-1-4-1.43l-4.07-1.24-4.07-1.24-4.09-1-4.1-1.06c-1.37-.29-2.75-.51-4.13-.77l-4.13-.76-4.19-.53A136.79,136.79,0,0,0,544.9,169a127.79,127.79,0,0,0-61.66,25.22,142.59,142.59,0,0,0-41.89,52.74,165.38,165.38,0,0,0-11.29,32.33c-.6,2.8-1.28,5.59-1.81,8.41s-1,5.66-1.4,8.51-.74,5.7-1.06,8.57l-.67,8.62Z"/>
        <path class="cls-47" d="M409.44,309.28a187.83,187.83,0,0,1,16.64-75.07,160.92,160.92,0,0,1,48.11-60.77A147,147,0,0,1,508.32,154a149.58,149.58,0,0,1,38.16-9.78,157.74,157.74,0,0,1,39.38.4c1.63.21,3.25.48,4.87.73l4.82.86,4.78,1c1.6.35,3.2.74,4.79,1.11a178.87,178.87,0,0,1,18.8,5.77,192.21,192.21,0,0,1,65.94,41.61,224,224,0,0,1,25.78,29.29A250.08,250.08,0,0,1,736.12,258a270.27,270.27,0,0,1,15.33,35.66A282.1,282.1,0,0,1,761.72,331a298.85,298.85,0,0,1,5.38,77.06l-14.48-.79a292.11,292.11,0,0,0-5.69-73.24,268.55,268.55,0,0,0-24.21-69.13,240.48,240.48,0,0,0-19.22-31.13,208.77,208.77,0,0,0-23.86-27.54,177.69,177.69,0,0,0-60.68-39,162.94,162.94,0,0,0-17.26-5.44l-4.4-1.07-4.46-1-4.47-.87c-1.49-.25-3-.52-4.46-.74a143.92,143.92,0,0,0-36-.91,135.75,135.75,0,0,0-35,8.41,138.67,138.67,0,0,0-31.6,17.33c-19.57,14.21-35.32,33.62-46,55.55a172.8,172.8,0,0,0-12.59,34.45,197.22,197.22,0,0,0-5.46,36.5Z"/>
      </g>
      <path class="cls-6" d="M687.36,399.56A35.15,35.15,0,0,1,698.1,392a55.29,55.29,0,0,1,12.62-4.17,76.41,76.41,0,0,1,26.51-.53,62.56,62.56,0,0,1,13,3.34A50.43,50.43,0,0,1,762.08,397a46.37,46.37,0,0,1,5.15,4.32,49,49,0,0,1,4.42,5,34.36,34.36,0,0,1,5.88,11.77A44.62,44.62,0,0,0,769.76,408a45.31,45.31,0,0,0-4.72-4.16,48.35,48.35,0,0,0-5.14-3.54,63.8,63.8,0,0,0-23.41-8.09,96.3,96.3,0,0,0-25.15-.63A69,69,0,0,0,699,394.22,45.08,45.08,0,0,0,687.36,399.56Z"/>
      <path class="cls-6" d="M399.07,297.71a38.43,38.43,0,0,1,9.8-1.5,54.78,54.78,0,0,1,10,.6A60.71,60.71,0,0,1,437.92,303a48,48,0,0,1,15.25,13.16,54.12,54.12,0,0,1,5.34,8.45,44.37,44.37,0,0,1,3.57,9.24,82.83,82.83,0,0,0-11.25-15.73,56.61,56.61,0,0,0-14.77-11.66,79.08,79.08,0,0,0-17.8-6.67,76.72,76.72,0,0,0-9.46-1.68A61.78,61.78,0,0,0,399.07,297.71Z"/>
    </g>
  </g>
</svg>
