<svg xmlns="http://www.w3.org/2000/svg" xmlns:xlink="http://www.w3.org/1999/xlink" width="390" height="375" viewBox="0 0 390 375">
  <defs>
    <style>
      .cls-1, .cls-21 {
        fill: none;
      }

      .cls-2 {
        isolation: isolate;
      }

      .cls-3, .cls-6 {
        mix-blend-mode: multiply;
      }

      .cls-4 {
        fill: #303b3f;
      }

      .cls-5 {
        fill: #6daabf;
      }

      .cls-15, .cls-6 {
        fill: #578a9e;
      }

      .cls-6 {
        opacity: 0.3;
      }

      .cls-7 {
        fill: #be1432;
      }

      .cls-8 {
        fill: #96cdd6;
      }

      .cls-9 {
        fill: #5d8c9b;
      }

      .cls-10 {
        fill: #455b60;
      }

      .cls-11 {
        fill: #fff;
      }

      .cls-12 {
        fill: #bc5c6c;
      }

      .cls-13, .cls-14 {
        fill: #7cb9c9;
      }

      .cls-13 {
        opacity: 0.81;
        mix-blend-mode: lighten;
      }

      .cls-14 {
        opacity: 0.7;
      }

      .cls-15 {
        opacity: 0.33;
      }

      .cls-16 {
        opacity: 0.9;
      }

      .cls-17 {
        clip-path: url(#clip-path);
      }

      .cls-18 {
        opacity: 0.6;
      }

      .cls-19 {
        opacity: 0.11;
      }

      .cls-20 {
        clip-path: url(#clip-path-2);
      }

      .cls-21 {
        stroke: #000;
        stroke-miterlimit: 10;
        stroke-width: 6px;
      }
    </style>
    <clipPath id="clip-path">
      <circle class="cls-1" cx="200.95" cy="191.82" r="160.99" transform="translate(-11.84 13.23) rotate(-3.66)"/>
    </clipPath>
    <clipPath id="clip-path-2">
      <path class="cls-1" d="M1.33,1.84v374h388.5V1.84Zm298.5,323c-6.5,2.75-22,2-22,2l20-21.25s11.75,7.5,13.5,8.75S306.33,322.09,299.83,324.84Zm43.83-21.17c-5,8.33-37.58,4.42-37.58,4.42l26.58-31.42S348.67,295.34,343.67,303.67Z"/>
    </clipPath>
  </defs>
  <title>dolphin_logo_f1</title>
  <g class="cls-2">
    <g id="strich_Kopie_Kopie" data-name="strich Kopie Kopie" class="cls-3">
      <g id="farbe_Kopie_2_Kopie_Kopie" data-name="farbe Kopie 2 Kopie Kopie">
        <path class="cls-4" d="M286.11,170.71l4.6,11.18s33.84-1.15,30.43-7C318.22,169.87,286.11,170.71,286.11,170.71Z"/>
        <path class="cls-5" d="M51.95,253.67s-26.41-65-.21-122.67c22.88-50.39,55.6-68.15,55.6-68.15S122,64.77,130,66.45c9.71,2,27.84,7.89,27.84,7.89s74.23,24.35,104.45,58.86c24.17,27.6,26,50.82,28.63,60.78s-.46,48.11-.46,48.11,35.68,27.58,42.31,36.27,16.25,16.68,12.1,23-38.62,5.51-38.62,5.51l3.61,8.88S296,329.29,278.23,327.9s-64.33-16.63-76.44-24-36.1-18.44-36.1-18.44-3.26,12.36-9.11,15.77-15.81,5.85-18.41,4.86,3.22-13.42,2.86-18.76-7.18-17-7.18-17l-19.48-3.81-66.19-14"/>
        <path class="cls-6" d="M188.58,96.59s1.25,20.75,13.64,35.06c5.14,5.94,13.77,9.58,13.77,9.58s7.7,27.84,26.68,39.79,37.37,8.51,37.37,8.51,2.61,18,2.66,29.26c0,7.58-2.12,19.54-2.12,19.54l10.11,5.09s5.26-21.16,4-37.47c-1.06-14-7.36-33.73-7.36-33.73S259.3,176,247.68,168.3s-26.84-37.22-26.84-37.22Z"/>
        <path class="cls-7" d="M190.43,96.69s5.07,13,8.4,17.14c8.25,10.27,16,14,16,14s13.25-39.09,24.06-44.16,18.7-5.06,26.73-4.16C278,80.91,290.91,86,290.91,86L273.8,71.18s-2.7-10.7-8.44-10.67-11.89,3-11.89,3S234.65,55.74,212,66.15C195.9,73.59,190.43,96.69,190.43,96.69Z"/>
        <path class="cls-8" d="M345.2,298.81c-5.48,1.36-46.59,5.28-86.61-16.73-44.24-24.33-43.9-45.28-57.87-58-17.14-15.66-49.08-9.4-66.44-9.92-43.11-1.29-50.71-9.41-94-13.22-2.07-.18,11.85,52.78,11.85,52.78s59.79,6.92,79.59,15.78,74.83,38.23,99.16,46.8,42.27,12,53.83,10.73,25.1-11.22,25.1-11.22l-6.6-8.18a72.43,72.43,0,0,0,23.38,1.54c16.77-1.58,18.23-7.75,18.23-7.75"/>
        <path class="cls-9" d="M243.09,285.1s14.86,10.69,30.81,14.73,32.12,11.61,33.77,13.53-14.62.94-26.41-1.35-23.61-5.07-23.61-5.07L243.09,285.1"/>
        <path class="cls-10" d="M223.57,131.61s10.62,29.44,26.27,37.22,30.2,2.45,41.69,2A133.62,133.62,0,0,1,320,173l-26.19-28.43s-13.38,2.76-32-.24S223.57,131.61,223.57,131.61Z"/>
        <path class="cls-11" d="M216.09,126.31S235,141.64,257,143.6s35.12.45,35.12.45,11.46-35,6.84-43.86A127.72,127.72,0,0,0,292,88S263.5,73,241.21,82C226.33,88.09,216.09,126.31,216.09,126.31Z"/>
        <path class="cls-12" d="M188.88,229.77s-1.16,31.29,20.46,49.9c19.24,16.56,50.75,27.67,50.75,27.67s2-15.11-27.93-27.1c-14-5.59-30.1-27.43-35.09-34.2S188.88,229.77,188.88,229.77Z"/>
        <path class="cls-13" d="M263.52,232.67S282.9,235,311.14,257C332,273.21,344.06,290.22,345,295.78c1.62,9.51-6.41,10.53-6.41,10.53S334.09,295,322.3,281C303.67,258.95,263.52,232.67,263.52,232.67Z"/>
        <path class="cls-14" d="M107.85,63.33,87.53,80.66s12-1.48,49.78,6c34.87,6.9,51.22,17,51.22,17l4.33-16.69L146.16,70.3"/>
        <path class="cls-15" d="M52.26,253.28l14.42.61s-25.91-59.62-2.91-119.3c19.42-50.38,50.46-70.52,50.46-70.52a25.3,25.3,0,0,0-4.23-.41c-10.7.54-8.33,3-8.33,3S71,82.16,56.17,122.56C44.4,154.62,41.31,177,40,196.36S49.27,254,49.27,254"/>
        <path class="cls-11" d="M225.34,118.27h0a1.05,1.05,0,0,1,1.38.86l.23,1.61a1.48,1.48,0,0,1-1.05,1.56h0a1.05,1.05,0,0,1-1.39-.87l-.22-1.61A1.47,1.47,0,0,1,225.34,118.27Z"/>
      </g>
      <g id="Ebene_9_Kopie_Kopie" data-name="Ebene 9 Kopie Kopie">
        <g class="cls-16">
          <path class="cls-11" d="M209.77,201.31c-2.63,5.66-8.61,6.71-14.64,4.85-6.29-1.94-8.44-9.66-6.18-14.3,2.6-5.34,9.08-6.5,14.8-4.5C209.68,189.44,212.78,194.85,209.77,201.31Z"/>
        </g>
        <g class="cls-16">
          <path class="cls-11" d="M291.31,219.75c-.13,4.61-3.15,9.7-10,8.82a9.58,9.58,0,0,1-7.91-11.47c1-5.11,6.91-8.14,13.06-5.81C290.09,212.69,291.45,215.22,291.31,219.75Z"/>
        </g>
      </g>
      <g class="cls-3">
        <g class="cls-17">
          <path d="M-163.39,314a215.85,215.85,0,0,1,3.18-22.27q2.11-11,5-21.81a308.71,308.71,0,0,1,14.83-42.22,273.93,273.93,0,0,1,48.17-75.25c5-5.57,10.36-10.82,15.88-15.89l4.16-3.77,4.28-3.64,2.14-1.81,2.2-1.75,4.4-3.49c6-4.52,12.09-8.85,18.4-12.87s12.79-7.79,19.42-11.26A274.47,274.47,0,0,1,20,80.46q10.67-3.48,21.63-6c3.65-.84,7.32-1.62,11-2.27S60.06,70.94,64,70.56l.51,6.06c-3.46.36-7.13.94-10.68,1.6s-7.15,1.43-10.7,2.27Q32.43,83,22,86.47a268.15,268.15,0,0,0-40.35,17.07c-6.47,3.39-12.78,7.09-19,11s-12.13,8.15-18,12.56a260.11,260.11,0,0,0-32.3,29.55A267.92,267.92,0,0,0-135.07,230a307.28,307.28,0,0,0-14.81,41.37q-3,10.58-5.18,21.37a211.87,211.87,0,0,0-3.34,21.61Z"/>
          <path d="M100.67,61.93c1.75-.13,3.29-.16,4.91-.14s3.19.06,4.78.15q4.76.26,9.47.83c6.28.75,12.51,1.84,18.67,3.17a275.29,275.29,0,0,1,36.3,10.53,287.44,287.44,0,0,1,66.77,35.21q7.71,5.53,15,11.64a135.56,135.56,0,0,1,13.93,13.17,106.3,106.3,0,0,1,20.2,32.77A111,111,0,0,1,298,207a120.08,120.08,0,0,1-1.08,19.14c-.43,3.16-1,6.31-1.64,9.44q-.5,2.35-1.12,4.67c-.43,1.57-.85,3.06-1.41,4.69l-4.91-1.65c.81-2.76,1.44-5.83,2-8.8s1-6,1.28-9a131.84,131.84,0,0,0,.55-18.24,112.39,112.39,0,0,0-2.2-18,109.94,109.94,0,0,0-5.13-17.35,99.29,99.29,0,0,0-19-30.54,134.28,134.28,0,0,0-13.17-12.62q-7-6-14.47-11.44a288.25,288.25,0,0,0-31.28-19.72,301.39,301.39,0,0,0-33.52-15.78c-5.73-2.31-11.54-4.43-17.42-6.3s-11.89-3.41-17.92-4.75-12.1-2.49-18.2-3.28q-4.58-.61-9.17-.9-2.29-.15-4.57-.19c-1.5,0-3.08,0-4.45.07Z"/>
          <path d="M-113.72,320.34c.62-1.07,1.18-1.91,1.8-2.83s1.23-1.77,1.88-2.63q1.92-2.58,4-5a125.82,125.82,0,0,1,8.73-9.29,159.52,159.52,0,0,1,19.74-16,202.7,202.7,0,0,1,45.12-22.87,239.94,239.94,0,0,1,24.2-7.38,212.54,212.54,0,0,1,24.91-4.72A193.55,193.55,0,0,1,42,248c4.25,0,8.5.21,12.76.59,2.13.18,4.26.42,6.39.72,1.07.14,2.14.31,3.21.5s2.1.37,3.33.66l-1.92,7.85C65,258.16,64,258,63,257.81s-2-.31-2.95-.44c-2-.26-4-.48-6-.63-4-.34-8.06-.47-12.11-.48a187.74,187.74,0,0,0-24.3,1.49c-4,.49-8.06,1.16-12.07,1.85s-8,1.55-12,2.52A231.82,231.82,0,0,0-29.85,269,199.81,199.81,0,0,0-73.73,290.3,153.3,153.3,0,0,0-93,305.17a119.78,119.78,0,0,0-8.61,8.56c-1.36,1.49-2.67,3-3.92,4.6-.63.78-1.23,1.58-1.82,2.38s-1.18,1.65-1.63,2.36Z"/>
          <path class="cls-11" d="M186.71,100.08l13.22-19.13s38.55,13.86,62.93,35.4C275.64,127.63,295.73,171,295.73,171l-19.83,3.19s-27.91-37.1-41.15-44.38S186.71,100.08,186.71,100.08Z"/>
          <ellipse cx="198.95" cy="197.28" rx="7.93" ry="5.5" transform="translate(-27.18 362.7) rotate(-80.94)"/>
          <ellipse cx="280.9" cy="219.71" rx="7.07" ry="4.73" transform="translate(16.23 458.72) rotate(-80.11)"/>
          <path d="M188.38,191.88a9.45,9.45,0,0,1,5-5.49,12.81,12.81,0,0,1,7.62-1,13.69,13.69,0,0,1,7,3.08,8.69,8.69,0,0,1,3.16,6.72,11.69,11.69,0,0,0-4.48-5,17.09,17.09,0,0,0-6.13-2.15,14.38,14.38,0,0,0-6.44.24A12.82,12.82,0,0,0,188.38,191.88Z"/>
          <path d="M274.67,213.17a8.82,8.82,0,0,1,5-3.72,10.6,10.6,0,0,1,6.47.15,8.87,8.87,0,0,1,5.19,4,7.28,7.28,0,0,1,.31,6.24,9.47,9.47,0,0,0-1.95-5.17,8.83,8.83,0,0,0-4.33-2.71,12.78,12.78,0,0,0-5.27-.57A15,15,0,0,0,274.67,213.17Z"/>
          <g class="cls-18">
            <path d="M186.9,178.4a14.87,14.87,0,0,1,7.78-3.08,18.75,18.75,0,0,1,4.24,0,23,23,0,0,1,4.08,1,27.47,27.47,0,0,1,7.29,3.78,27.13,27.13,0,0,1,5.87,5.6L215,186.83a68.91,68.91,0,0,0-6.33-4.21,37.74,37.74,0,0,0-6.73-3.16,20.62,20.62,0,0,0-7.08-1.25,18.45,18.45,0,0,0-7.06,1.48Z"/>
          </g>
          <path d="M179,234.35a7.87,7.87,0,0,1,3.33-4.89,13.17,13.17,0,0,1,5.52-2.26,13.62,13.62,0,0,1,5.92.23,9.47,9.47,0,0,1,5,3c-2-.05-3.68,0-5.36.11a45.18,45.18,0,0,0-4.87.6,37.3,37.3,0,0,0-4.73,1.08A21,21,0,0,0,179,234.35Z"/>
          <path d="M259.83,308.59a13.35,13.35,0,0,0-.85-4.25,21.86,21.86,0,0,0-1.81-3.84,28.86,28.86,0,0,0-2.39-3.48,27.86,27.86,0,0,0-9.47-8,41,41,0,0,0-7.76-3.24l.46-2.42a29.6,29.6,0,0,1,8.75,2.91,27.65,27.65,0,0,1,7.48,5.49,19.22,19.22,0,0,1,2.86,3.69c.42.65.77,1.34,1.13,2s.65,1.4.91,2.13A14.23,14.23,0,0,1,259.83,308.59Z"/>
          <path d="M168.87,283.49c-.2.93-.43,1.69-.68,2.51s-.5,1.6-.8,2.39a36.83,36.83,0,0,1-2.07,4.61,26.53,26.53,0,0,1-2.82,4.3,24.21,24.21,0,0,1-3.68,3.59,37.83,37.83,0,0,1-8.59,5.11,34,34,0,0,1-4.74,1.68,20.13,20.13,0,0,1-5.22.78,8.81,8.81,0,0,1-1.49-.13,7.25,7.25,0,0,1-.81-.19l-.43-.15-.22-.09a3.56,3.56,0,0,1-.37-.2,3,3,0,0,1-1.14-1.36,3.69,3.69,0,0,1-.27-1.27,6.92,6.92,0,0,1,.17-1.68c.42-1.84,1-3.28,1.42-4.78a26.6,26.6,0,0,0,1.54-8.63,13.13,13.13,0,0,0-.19-2l-.44-2.22c-.34-1.49-.68-3-1.15-4.4a36.44,36.44,0,0,0-1.54-4.13,19.11,19.11,0,0,0-.95-1.84c-.17-.29-.35-.56-.52-.8s-.17-.23-.25-.33l-.11-.12,0,0s0,0,0,.06l5.37-4.6c.13.16.17.22.22.3l.14.21c.08.12.16.26.22.37s.26.47.37.68c.23.45.42.88.6,1.31.36.86.66,1.69.93,2.53a42.6,42.6,0,0,1,1.23,5c.32,1.65.56,3.29.77,4.93l.26,2.49a20.24,20.24,0,0,1,0,2.74A33.94,33.94,0,0,1,141.2,300c-.56,1.5-1.22,3-1.55,4.26a3.78,3.78,0,0,0-.12.67s0,0-.05-.11a1,1,0,0,0-.4-.45l-.11-.06.06,0,.13.06a3.31,3.31,0,0,0,.35.1,5,5,0,0,0,.87.11,15,15,0,0,0,4.19-.5,30.4,30.4,0,0,0,4.26-1.41,30.84,30.84,0,0,0,7.74-4.58,20.66,20.66,0,0,0,3.05-3.12,21.44,21.44,0,0,0,2.23-3.76,28.46,28.46,0,0,0,1.53-4.19c.21-.72.39-1.45.55-2.18s.27-1.5.34-2.14Z"/>
          <path d="M290,179.05a68.72,68.72,0,0,0,18.91,0,44.67,44.67,0,0,0,9.09-2.14,14.87,14.87,0,0,0,2-.93,4.24,4.24,0,0,0,1.28-1s0,0,0,.07a.41.41,0,0,0,.07.21s0,0-.07-.06l-.36-.25a9.29,9.29,0,0,0-1.94-.86,27.58,27.58,0,0,0-4.55-1c-1.56-.24-3.15-.39-4.75-.51a93,93,0,0,0-9.63-.16c-3.21.09-6.42.31-9.61.65s-6.32.87-9.56,1.39c-6.46,1-13.24,1.78-20.12.89a37.86,37.86,0,0,1-10.07-2.7,37.26,37.26,0,0,1-4.67-2.43,38.79,38.79,0,0,1-4.23-3.07,61.53,61.53,0,0,1-13-15.61,89.19,89.19,0,0,1-4.67-8.93,82.64,82.64,0,0,1-3.66-9.47h0l1.32,1.62c-1.11-.62-2-1.17-2.92-1.78s-1.82-1.21-2.71-1.84q-2.65-1.89-5.19-3.88t-5-4.05q-1.24-1-2.45-2.08L202.26,120c-.42-.39-.86-.77-1.26-1.18a48.41,48.41,0,0,1-8-10.73,67.41,67.41,0,0,1-5.37-12.07h0l-.3-.94.43-.82a126.59,126.59,0,0,1,11-17.51,74.81,74.81,0,0,1,6.82-7.9,36.37,36.37,0,0,1,8.54-6.5l1.26-.6c.43-.18.88-.34,1.32-.52.87-.3,1.68-.55,2.53-.8,1.69-.48,3.4-.88,5.12-1.2a57.09,57.09,0,0,1,10.44-.91,60.57,60.57,0,0,1,10.41,1q2.57.47,5.1,1.16a42.8,42.8,0,0,1,5,1.7h0l-2.18.66a8.87,8.87,0,0,1,.62-.92,8.6,8.6,0,0,1,.65-.75,9.67,9.67,0,0,1,1.5-1.28,10.66,10.66,0,0,1,3.61-1.61,14.21,14.21,0,0,1,7.53.41,12.89,12.89,0,0,1,6.46,4.16,9.84,9.84,0,0,1,1.82,3.65,9.36,9.36,0,0,1,.3,2,9.64,9.64,0,0,1,0,1,8.92,8.92,0,0,1-.16,1.1h0l-1-1.89a52.7,52.7,0,0,1,4.68,2.89c1.49,1,3,2.09,4.36,3.23a70.55,70.55,0,0,1,7.94,7.41,62.93,62.93,0,0,1,6.66,8.65,28.91,28.91,0,0,1,3.8,10.71c1.16,7.38.56,14.68-.54,21.78-.57,3.55-1.31,7.07-2.17,10.55s-1.84,6.89-3,10.38h0l-.52-2.74c4.52,5.29,9.09,10.59,13.79,15.65s9.43,10.42,14,15.76L321,175.17c-4.79-5.06-9.65-10.08-14.64-14.9s-9.92-10-14.77-15.07l-1.08-1.13.55-1.61h0a127.22,127.22,0,0,0,5.38-19.9c1.2-6.75,1.87-13.66,1-20.25a24.56,24.56,0,0,0-3-9.13,58.73,58.73,0,0,0-6-8.17A66.55,66.55,0,0,0,281,77.88c-1.31-1.1-2.67-2.14-4.06-3.14A49.76,49.76,0,0,0,272.73,72l-1-1.89h0c0-.06-.06-.33-.1-.5s-.08-.4-.14-.59a7.41,7.41,0,0,0-.41-1.13,6.88,6.88,0,0,0-1.3-1.92,10.46,10.46,0,0,0-4.29-2.57,11.43,11.43,0,0,0-5.13-.66,7.64,7.64,0,0,0-2.35.69,7.74,7.74,0,0,0-1.07.63c-.17.12-.33.25-.49.38s-.34.3-.39.33l-1.82.81-.36-.15h0A40,40,0,0,0,249.33,64c-1.58-.41-3.18-.75-4.8-1a56.85,56.85,0,0,0-9.77-.77,53.21,53.21,0,0,0-9.71,1c-1.59.32-3.17.71-4.73,1.18-.77.23-1.57.49-2.29.76-.34.14-.69.27-1,.42l-1,.5a32.38,32.38,0,0,0-7.43,5.87,70.57,70.57,0,0,0-6.31,7.53,122.36,122.36,0,0,0-10.3,17l.13-1.77h0c.66,1.82,1.5,3.77,2.38,5.6s1.83,3.66,2.88,5.41a43.36,43.36,0,0,0,7.33,9.45c.35.34.72.65,1.08,1l1.2,1q1.2,1,2.41,2,2.42,2,4.91,3.91t5,3.69q1.27.9,2.55,1.75c.83.55,1.76,1.14,2.5,1.55l1,.56.32,1.06h0a78.05,78.05,0,0,0,3.38,8.76,83.82,83.82,0,0,0,4.37,8.39,56.55,56.55,0,0,0,11.76,14.39,32.38,32.38,0,0,0,7.6,4.86,32.89,32.89,0,0,0,8.71,2.5c6.08.92,12.42.31,18.83-.49,3.22-.37,6.48-.84,9.84-1s6.62-.21,9.93-.13,6.6.31,9.9.63a50,50,0,0,1,9.92,1.88,14.34,14.34,0,0,1,2.53,1.09c.22.13.42.27.65.43a3.26,3.26,0,0,1,.77.82,2.56,2.56,0,0,1,.39,1.37,2.77,2.77,0,0,1-.31,1.23,4.77,4.77,0,0,1-1.12,1.39,9.59,9.59,0,0,1-1.17.88,18.26,18.26,0,0,1-2.37,1.26,39.71,39.71,0,0,1-9.78,2.81,56.06,56.06,0,0,1-20-.38Z"/>
          <path d="M223.62,130.51c5.6,2.33,11.33,4.47,17.08,6.43a145.43,145.43,0,0,0,17.49,4.84,144.87,144.87,0,0,0,18,2.45c3,.24,6,.31,9,.25,1.5,0,3-.17,4.48-.3a25.27,25.27,0,0,0,4.29-.81l.66,1.41a29.6,29.6,0,0,1-9.26,2.21,64,64,0,0,1-9.36.29c-1.56,0-3.1-.17-4.66-.27s-3.09-.31-4.63-.51c-3.08-.39-6.13-.88-9.18-1.44a133,133,0,0,1-17.92-5c-5.84-2-11.55-4.32-17.2-6.88Z"/>
          <path d="M214.16,125.57a186,186,0,0,1,10.25-25.29,70.93,70.93,0,0,1,7.22-11.73,24,24,0,0,1,5.08-5A34.36,34.36,0,0,1,243,80.4a36.42,36.42,0,0,1,13.67-2.16,99.91,99.91,0,0,1,13.59,1.35,54.64,54.64,0,0,1,25.3,9.87l-.79,1A47.83,47.83,0,0,0,283,84.29a57.57,57.57,0,0,0-13-3,98.22,98.22,0,0,0-13.35-1.07,34.37,34.37,0,0,0-12.86,2.27A32.28,32.28,0,0,0,238,85.5a21.76,21.76,0,0,0-4.48,4.55,68.53,68.53,0,0,0-6.73,11.42,183.24,183.24,0,0,0-9.61,25Z"/>
          <g class="cls-19">
            <path d="M271.54,80a51.06,51.06,0,0,1,5.25,7,38,38,0,0,1,3.86,7.87,23.14,23.14,0,0,1,1.07,4.3,31.75,31.75,0,0,1,.3,4.41,58.21,58.21,0,0,1-.71,8.73,130.13,130.13,0,0,1-3.89,17c-1.65,5.57-3.49,11-5.62,16.47l-2-.81c2.18-5.28,4.12-10.72,5.83-16.19a128.51,128.51,0,0,0,4.13-16.68,56.8,56.8,0,0,0,.84-8.49,24.45,24.45,0,0,0-1.15-8.32,36.84,36.84,0,0,0-3.59-7.71,50.19,50.19,0,0,0-5-6.94Z"/>
          </g>
          <g class="cls-18">
            <path d="M276.18,203.14a22.61,22.61,0,0,1,5-1.21,19.65,19.65,0,0,1,5.22,0,15.68,15.68,0,0,1,2.65.64,13.78,13.78,0,0,1,2.45,1.18,9.7,9.7,0,0,1,2.16,1.81,7.25,7.25,0,0,1,.85,1.18,5.41,5.41,0,0,1,.34.68,5,5,0,0,1,.27.83l-2.2.66s-.15-.18-.24-.29-.21-.24-.32-.36a9,9,0,0,0-.73-.68,12.48,12.48,0,0,0-1.72-1.17,18.2,18.2,0,0,0-2-.93,12.66,12.66,0,0,0-2.08-.62,22.38,22.38,0,0,0-4.54-.46,39.16,39.16,0,0,0-4.72.23Z"/>
          </g>
        </g>
      </g>
      <g class="cls-20">
        <circle class="cls-21" cx="200.95" cy="191.82" r="160.99" transform="translate(-11.84 13.23) rotate(-3.66)"/>
      </g>
      <path d="M296.21,303.83a65,65,0,0,1,9.36,3.5c1.51.68,3,1.4,4.48,2.17s2.91,1.56,4.38,2.45a2.38,2.38,0,0,1-1.09,4.41h0c-3.63.2-7.1.14-10.63,0s-7-.34-10.54-.68a155.3,155.3,0,0,1-20.85-3.32,126.62,126.62,0,0,1-20.18-6.4,173.16,173.16,0,0,1-18.94-9.24c-12.18-7-23.68-15.59-32.52-26.76a61.16,61.16,0,0,1-10.3-18.66,63.28,63.28,0,0,1-2.6-10.38c-.29-1.76-.51-3.54-.65-5.32a43.2,43.2,0,0,1-.12-5.47l3.6.27a40.4,40.4,0,0,0,.05,4.94c.11,1.68.29,3.36.55,5a59.83,59.83,0,0,0,2.44,9.82,56.15,56.15,0,0,0,9.73,17.63c8.56,10.59,19.79,18.85,31.74,25.5a169.16,169.16,0,0,0,18.59,8.82,122.52,122.52,0,0,0,19.59,5.88,168.79,168.79,0,0,0,20.31,3,162,162,0,0,0,20.46.53L311.92,316c-1.31-.8-2.72-1.61-4.1-2.39s-2.79-1.54-4.2-2.29-2.84-1.43-4.27-2.13-2.88-1.32-4.33-2Z"/>
      <path d="M117.1,260.86c4.24,1.55,8.45,3,12.65,4.63s8.42,3.11,12.61,4.82,8.37,3.52,12.45,5.46,8.07,4,12,6.11c7.92,4.19,15.65,8.59,23.51,12.71s15.8,8,23.89,11.6l6.09,2.61,6.13,2.48c2.05.79,4.09,1.57,6.15,2.31s4.13,1.46,6.22,2.08c4.15,1.39,8.38,2.48,12.6,3.55s8.51,1.83,12.8,2.53A111.62,111.62,0,0,0,290,322.86a31.28,31.28,0,0,0,11.69-3.15,29,29,0,0,0,5.14-3.22,28,28,0,0,0,2.27-2c.36-.35.71-.71,1-1.07s.68-.79.87-1l4.39,2.86c-.44.67-.77,1.1-1.17,1.62s-.79,1-1.2,1.41a32.2,32.2,0,0,1-2.62,2.55,34.78,34.78,0,0,1-6,4.16,37,37,0,0,1-13.82,4.22,111,111,0,0,1-27.45-.76c-4.52-.65-9-1.58-13.41-2.64-2.2-.58-4.41-1.12-6.58-1.8L240,323l-3.23-1.08c-2.16-.7-4.26-1.54-6.39-2.32s-4.21-1.68-6.29-2.54l-6.18-2.69-6.12-2.81c-16.24-7.67-31.91-16.39-47.64-24.54a198.59,198.59,0,0,0-24-10.85c-4.14-1.45-8.36-2.78-12.59-4.07s-8.52-2.47-12.79-3.53Z"/>
      <path d="M193.74,230.18c.07.5.21,1.25.37,1.89s.35,1.34.56,2a42.27,42.27,0,0,0,1.47,4,56.53,56.53,0,0,0,4,7.57,74.31,74.31,0,0,0,10.74,13.49A135.06,135.06,0,0,0,238.8,280a201.12,201.12,0,0,0,31.88,14.79,189.31,189.31,0,0,0,33.88,9.12,112.83,112.83,0,0,0,17.29,1.65,62.61,62.61,0,0,0,8.51-.43,32.37,32.37,0,0,0,7.95-1.89c.3-.12.64-.23.9-.35a7.23,7.23,0,0,0,.71-.37,4.69,4.69,0,0,0,1.09-.85,3.42,3.42,0,0,0,.9-2.24,9.14,9.14,0,0,0-.53-3.31,22.44,22.44,0,0,0-1.57-3.62,72.85,72.85,0,0,0-10.23-13.69c-3.93-4.31-8.15-8.4-12.52-12.33s-8.91-7.69-13.59-11.22-9.57-6.56-14.57-9.74-10-6.34-14.87-10a83.86,83.86,0,0,1,17,6.14,87.16,87.16,0,0,1,8,4.32c2.62,1.58,5.1,3.35,7.54,5.12,4.87,3.58,9.54,7.37,14.08,11.34s8.92,8.12,13.06,12.56a76.82,76.82,0,0,1,11.22,14.74,28.13,28.13,0,0,1,2,4.55,14.78,14.78,0,0,1,.83,5.45,9.32,9.32,0,0,1-2.41,5.85,10.51,10.51,0,0,1-2.39,1.92,13,13,0,0,1-1.27.67c-.41.19-.78.31-1.17.47a38.13,38.13,0,0,1-9.36,2.3,68.48,68.48,0,0,1-9.3.52,113.84,113.84,0,0,1-18.22-1.66,195.22,195.22,0,0,1-35-9.46,202.51,202.51,0,0,1-32.7-15.46,137.11,137.11,0,0,1-28.75-22.2A79.29,79.29,0,0,1,196,248.12a58.79,58.79,0,0,1-4.1-8.33,46.76,46.76,0,0,1-1.5-4.45c-.21-.76-.41-1.52-.57-2.31a21.83,21.83,0,0,1-.4-2.5Z"/>
      <g>
        <path class="cls-8" d="M67.33,245.67s-2.33,19-14.62,34.25c-15.56,19.31-41.85,29.52-40,33.77,2.52,5.71,48.93,0,80.31-23.86a116.05,116.05,0,0,0,30-33.5"/>
        <path d="M67.5,245.69a49.39,49.39,0,0,1-1.74,14.06,59.13,59.13,0,0,1-5.24,13.32,62.82,62.82,0,0,1-8.32,11.82,83.54,83.54,0,0,1-10.44,9.79c-3.7,3-7.58,5.66-11.49,8.23s-7.9,5-11.58,7.56a31.7,31.7,0,0,0-2.54,2,8.22,8.22,0,0,0-.91.92,2,2,0,0,0-.16.24.85.85,0,0,0,0-.12l0-.16c0-.06,0-.14,0-.23a1.49,1.49,0,0,0-.15-.46,1,1,0,0,0-.13-.19c-.06-.06,0,0,.08,0a4.8,4.8,0,0,0,1,.35,17.7,17.7,0,0,0,3,.37,64.91,64.91,0,0,0,13.29-1.08,142.24,142.24,0,0,0,26.2-7.29A149.66,149.66,0,0,0,82.84,293a128.37,128.37,0,0,0,21.36-16.55A213.11,213.11,0,0,0,123,256.34a47.74,47.74,0,0,1-2.87,6.45q-.81,1.57-1.7,3.1c-.62,1-1.21,2-1.86,3a89.81,89.81,0,0,1-8.6,11.25A96.62,96.62,0,0,1,97.7,290a99.07,99.07,0,0,1-11.54,8.4,127.33,127.33,0,0,1-25.64,12.14A150.4,150.4,0,0,1,33,317.3c-2.35.34-4.71.61-7.1.78a55.48,55.48,0,0,1-7.29.12,22.42,22.42,0,0,1-3.88-.54,9.44,9.44,0,0,1-2.22-.82,5.19,5.19,0,0,1-1.32-1,4,4,0,0,1-.65-.89,3.63,3.63,0,0,1-.41-1.29,4,4,0,0,1,.38-2.19,6.35,6.35,0,0,1,.77-1.23,12.81,12.81,0,0,1,1.51-1.56,36.25,36.25,0,0,1,2.94-2.3c3.89-2.77,7.76-5.23,11.51-7.88s7.4-5.35,10.88-8.24c6.94-5.8,13.28-12.13,17.79-19.81a133.32,133.32,0,0,0,11.21-24.82Z"/>
      </g>
      <path class="cls-6" d="M290.83,313.59s-12.5,9.5-58.92-5.5c-26.51-8.57-37.33-21.5-60.42-34.6a312.12,312.12,0,0,0-55.21-24.3l0,.07h0c-.89,1.4-14.44,22.35-34.29,37.83-3,2.19-6.35,4.43-9.73,6.65-23.73,13.77-61.48,21-61.48,21A137.27,137.27,0,0,0,40.45,313l-1.53.86s23.76-.51,51.74-22c20.06-15.44,26.11-27,26.11-27L151,277.33s24.12,13.13,44.46,22.46,50.1,23.62,77.58,25.91,36.82-9.95,36.82-9.95Z"/>
    </g>
  </g>
</svg>
