<svg xmlns="http://www.w3.org/2000/svg" xmlns:xlink="http://www.w3.org/1999/xlink" width="404" height="703" viewBox="0 0 404 703">
  <defs>
    <style>
      .cls-1 {
        isolation: isolate;
      }

      .cls-2 {
        fill: url(#Unbenannter_Verlauf_133);
      }

      .cls-3 {
        fill: #6daabf;
      }

      .cls-4 {
        fill: #5d8c9b;
      }

      .cls-5 {
        fill: #bc5c6c;
      }

      .cls-6 {
        fill: #be1432;
      }

      .cls-7 {
        fill: #455b60;
      }

      .cls-8 {
        fill: #303b3f;
      }

      .cls-9 {
        fill: #68a5b5;
      }

      .cls-10 {
        fill: #96cdd6;
      }

      .cls-11, .cls-18, .cls-19 {
        fill: #88dfed;
      }

      .cls-11 {
        opacity: 0.63;
      }

      .cls-12, .cls-13 {
        fill: #578a9e;
      }

      .cls-13 {
        opacity: 0.3;
        mix-blend-mode: multiply;
      }

      .cls-14 {
        opacity: 0.61;
        fill: url(#Unbenannter_Verlauf_133-2);
      }

      .cls-15 {
        fill: #8bdcea;
      }

      .cls-16 {
        fill: #88d8ea;
      }

      .cls-17, .cls-20, .cls-22, .cls-37, .cls-38 {
        fill: #fff;
      }

      .cls-17 {
        opacity: 0.6;
      }

      .cls-18 {
        opacity: 0.79;
      }

      .cls-20 {
        opacity: 0.4;
      }

      .cls-21 {
        opacity: 0.9;
      }

      .cls-23 {
        opacity: 0.5;
      }

      .cls-24, .cls-25 {
        fill: none;
        stroke: #000;
        stroke-miterlimit: 10;
      }

      .cls-24 {
        stroke-width: 4px;
      }

      .cls-25 {
        stroke-width: 2px;
      }

      .cls-26 {
        fill: url(#Unbenannter_Verlauf_3);
      }

      .cls-27 {
        fill: #101d23;
      }

      .cls-28 {
        fill: url(#Unbenannter_Verlauf_2);
      }

      .cls-29 {
        fill: url(#Unbenannter_Verlauf_67);
      }

      .cls-30 {
        fill: #222728;
      }

      .cls-31 {
        fill: url(#Unbenannter_Verlauf_114);
      }

      .cls-32 {
        fill: url(#Unbenannter_Verlauf_102);
      }

      .cls-33 {
        fill: url(#Unbenannter_Verlauf_99);
      }

      .cls-34 {
        opacity: 0;
      }

      .cls-35 {
        fill: url(#Unbenannter_Verlauf_67-2);
      }

      .cls-36 {
        fill: #ff4081;
      }

      .cls-37, .cls-40 {
        opacity: 0.2;
      }

      .cls-38, .cls-39 {
        opacity: 0.1;
      }

      .cls-41 {
        opacity: 0.3;
      }

      .cls-42 {
        opacity: 0.4;
      }

      .cls-43 {
        fill: #536dfe;
      }

      .cls-44 {
        fill: #303f9f;
      }

      .cls-45 {
        fill: #3f51b5;
      }

      .cls-46 {
        fill: #7986cb;
      }

      .cls-47 {
        opacity: 0.92;
      }

      .cls-48 {
        fill: url(#Unbenannter_Verlauf_67-3);
      }

      .cls-49 {
        fill: #b3b3b3;
      }

      .cls-50 {
        fill: #af2b2d;
      }

      .cls-51 {
        fill: #df2e31;
      }

      .cls-52 {
        fill: #f2f2f2;
      }

      .cls-53 {
        fill: url(#Unbenannter_Verlauf_67-4);
      }

      .cls-54 {
        fill: #53829d;
      }

      .cls-55 {
        fill: #e66f00;
      }

      .cls-56 {
        fill: #e66f01;
      }

      .cls-57 {
        fill: #53829e;
      }

      .cls-58 {
        fill: #55839e;
      }

      .cls-59 {
        fill: #54829e;
      }

      .cls-60 {
        fill: #6f96ae;
      }

      .cls-61 {
        fill: #7fa1b6;
      }

      .cls-62 {
        opacity: 0.84;
      }

      .cls-63 {
        fill: #6a929e;
      }

      .cls-64 {
        opacity: 0.82;
      }

      .cls-65 {
        opacity: 0.7;
      }
    </style>
    <linearGradient id="Unbenannter_Verlauf_133" data-name="Unbenannter Verlauf 133" x1="189.94" y1="682.09" x2="189.94" y2="526.61" gradientUnits="userSpaceOnUse">
      <stop offset="0" stop-color="#aee8f5"/>
      <stop offset="0.8" stop-color="#88d7ed"/>
    </linearGradient>
    <linearGradient id="Unbenannter_Verlauf_133-2" x1="191.78" y1="682.33" x2="191.78" y2="526.99" xlink:href="#Unbenannter_Verlauf_133"/>
    <linearGradient id="Unbenannter_Verlauf_3" data-name="Unbenannter Verlauf 3" x1="96.07" y1="146.82" x2="133.69" y2="250.17" gradientTransform="translate(95.95 -30.6) rotate(25.42)" gradientUnits="userSpaceOnUse">
      <stop offset="0.18" stop-color="#ecf8ff"/>
      <stop offset="0.88" stop-color="#ccdfeb"/>
    </linearGradient>
    <linearGradient id="Unbenannter_Verlauf_2" data-name="Unbenannter Verlauf 2" x1="210.73" y1="31.61" x2="246.65" y2="130.3" gradientTransform="translate(116.34 -133.53) rotate(42.43)" gradientUnits="userSpaceOnUse">
      <stop offset="0.18" stop-color="#e7f5fa"/>
      <stop offset="0.88" stop-color="#c7dce6"/>
    </linearGradient>
    <linearGradient id="Unbenannter_Verlauf_67" data-name="Unbenannter Verlauf 67" x1="302.7" y1="193.66" x2="338.95" y2="293.26" gradientTransform="translate(164.74 -127.45) rotate(30)" gradientUnits="userSpaceOnUse">
      <stop offset="0.18" stop-color="#f9ffff"/>
      <stop offset="0.88" stop-color="#d9e6eb"/>
    </linearGradient>
    <radialGradient id="Unbenannter_Verlauf_114" data-name="Unbenannter Verlauf 114" cx="107.56" cy="184.46" r="55" gradientTransform="translate(95.95 -30.6) rotate(25.42)" gradientUnits="userSpaceOnUse">
      <stop offset="0.32" stop-color="#fff"/>
      <stop offset="0.44" stop-color="#fbfcfd"/>
      <stop offset="0.57" stop-color="#eef4f6"/>
      <stop offset="0.71" stop-color="#d8e6ea"/>
      <stop offset="0.8" stop-color="#c5d9e0"/>
    </radialGradient>
    <radialGradient id="Unbenannter_Verlauf_102" data-name="Unbenannter Verlauf 102" cx="221.58" cy="65.72" r="52.5" gradientTransform="translate(116.34 -133.53) rotate(42.43)" gradientUnits="userSpaceOnUse">
      <stop offset="0.35" stop-color="#fff"/>
      <stop offset="0.47" stop-color="#fbfcfd"/>
      <stop offset="0.61" stop-color="#eef4f6"/>
      <stop offset="0.74" stop-color="#d9e6eb"/>
    </radialGradient>
    <radialGradient id="Unbenannter_Verlauf_99" data-name="Unbenannter Verlauf 99" cx="316.66" cy="229.97" r="53" gradientTransform="translate(164.74 -127.45) rotate(30)" gradientUnits="userSpaceOnUse">
      <stop offset="0.32" stop-color="#fff"/>
      <stop offset="0.43" stop-color="#fbfcfd"/>
      <stop offset="0.54" stop-color="#eef4f7"/>
      <stop offset="0.67" stop-color="#d8e7ed"/>
      <stop offset="0.71" stop-color="#cee1e8"/>
    </radialGradient>
    <linearGradient id="Unbenannter_Verlauf_67-2" x1="211.88" y1="30.14" x2="247.37" y2="127.66" gradientTransform="matrix(0.99, 0.1, -0.1, 0.99, 11.56, -23.96)" xlink:href="#Unbenannter_Verlauf_67"/>
    <linearGradient id="Unbenannter_Verlauf_67-3" x1="101.76" y1="148.01" x2="138.99" y2="250.3" gradientTransform="matrix(0.99, -0.1, 0.1, 0.99, -20.29, 11.73)" xlink:href="#Unbenannter_Verlauf_67"/>
    <linearGradient id="Unbenannter_Verlauf_67-4" x1="302.44" y1="197.33" x2="338.18" y2="295.51" gradientTransform="matrix(0.99, -0.15, 0.15, 0.99, -32.06, 49.77)" xlink:href="#Unbenannter_Verlauf_67"/>
  </defs>
  <title>dolphin_jongliert</title>
  <g class="cls-1">
    <g id="Ebene_10" data-name="Ebene 10">
      <path class="cls-2" d="M47,633.67s30,2.67,34.67-8.33-5-18.67-9.67-20-9.33-3-11.67-2.33S51,604.67,51,604.67s5.33-8.67,12.67-10.33,11-2.33,17-1a73.5,73.5,0,0,1,13,4.67s-2-9-10-10-18,1-16-3.67,7-8.33,16-5,18,12.67,20,15.33a21.54,21.54,0,0,0,5.33,4.67s7.33-6.67,4.33-10.67-14.67-4.33-16-5-3-4.67,1.33-6.33a13.23,13.23,0,0,1,13,1.67c4.33,3,8,9.33,8,9.33s3.67-6.33,0-10-18-6.33-18-6.33,1.33-4.67,9-4S125,573.33,125,573.33l10.33,8,103-.33s-2.33-15,5-29.33,20-26,22.33-25-4,15.67-5.33,21.33-1.67,16.67-1.67,16.67,4.33-21.33,12.67-24.33,15.67.67,15.33,3-12.67,5-17,12.67-1,22-1,22,7.33-20.67,14-22.67,14.67,1,14.67,4.33-10,1.33-15.33,6.67-7.67,25.33-7.67,25.33,3.33-9.67,9.33-13,12.33-3.33,12.67-2.33-10,9-13,11.67S278,596.67,277,600s1.67,9.33,1.67,9.33,3-14.33,15.33-20.67S310.33,582,316.33,584,328,591.67,328,591.67s-15.67-2-22,3.33-10,14-10,14,10.33-11,20-10.67S336,608,332,612s-11.67-7.33-21.33-1.67S295,627.67,295,627.67s11-8.33,17.67-5,10,9.67,7,10.67-11.33-6.33-15-3.67-6.64,10.07-2.33,13c7.33,5,17,4,17,4s-9,7.67-27,11.67c-14.53,3.23-30,.67-30,.67s7.33,5,14,6,19,2,19,2a270.15,270.15,0,0,1-46.67,9.33c-23,2.42-46.33-2.33-46.33-2.33L219,681s-36.33,2.67-56-.33a283.09,283.09,0,0,1-33.33-7s13.13-1.2,17.67-2.33c9.33-2.33,14-7,14-7S138,669,122,667.33a187.85,187.85,0,0,1-29.67-5.67,153.84,153.84,0,0,0,15-4c3.55-1.14,11.33-4.67,11.33-4.67S93.34,656.31,81,655c-15.67-1.67-26-7.33-26-7.33s7.67-.33,11.33-1.33S75,643.67,75,643.67A76.66,76.66,0,0,1,58.67,642C49,639.67,47,633.67,47,633.67Z"/>
      <path class="cls-3" d="M181,637s-9.57-19.91-25.25-36-31.75-26.5-52-52.5C86.88,526.83,78.5,497.5,75.5,482c-2.76-14.24-2.25-34.5-2.25-34.5s-6.07-2.24-20.92,6.83S31.14,472.59,27.84,473s-1.33-26.83,3.83-36.5c4.17-7.81,20.33-36,34.33-46,12.49-8.92,18.17-10.33,18.17-10.33s4.62-20.63,20.5-42.33a150.13,150.13,0,0,1,41.67-39.17c11.55-7.42,37.67-15.83,56.71-13.09,12.36,1.78,25.57,7,30.52,12s16.09,19,16.09,19,20.21-8.25,37.12-10.31,26.81-.41,28.46,3.3-9.07,19.38-20.21,26-33.41,19.8-45.78,24.75S208,371.77,205.11,371.77s-14.44-.82-14.44-.82,14.44,12.79,28.87,13.61,39.18-1.65,52.38-7.84a173.91,173.91,0,0,0,29.28-18.15c2.47-2.06,5.65-11.65,7.3-10.83s-.44,15.2-2.5,18.5-14.94,17.73-25.25,23.5S247.18,406.83,241.82,411,223.26,427,219.54,434.88a96.55,96.55,0,0,0-5.29,13.37s14.26,11.11,23.75,14,28.43,7.19,29.25,9.25-13.36,8.26-24.5,9.5S207,479.25,207,479.25s.17,25.33,5.94,38.94,18.15,40.83,21.45,51.14,4.95,23.1,5.36,28a50.88,50.88,0,0,1-.41,10.31l-4.54,10.72s-.82,3.71-1.65,7.84A88.67,88.67,0,0,0,232,636.33s-.08-10.5-3-10.91-5.7,9.91-5.7,9.91l-5.8,3.13L212.58,631l-2.25-3.71s-5,5.75-6.67,5.33-7.27,2-9.33-1.33-8-14-8-14,.24,9-1,12.67A22.25,22.25,0,0,1,181,637Z"/>
      <path class="cls-4" d="M192.28,371.67s11.67,11.67,32,13.33,50-8,57-12,22.47-21.5,22.47-21.5S281,364,268.62,367.67s-30.33,4.33-33.67,4-12-3-12-3Z"/>
      <path class="cls-5" d="M217.28,382.33a65.92,65.92,0,0,1,21-11.33c12-3.67,16.67-4.33,29.33-5A70.57,70.57,0,0,1,290,368.33a145.25,145.25,0,0,1-39.67,14C227,387,217.28,382.33,217.28,382.33Z"/>
      <path class="cls-6" d="M120.62,319s-11.33-16.67-10.33-25.67,13-23,22.67-27.67,14-6.33,14-6.33-9.67,6-11,11.67,2,16,3.33,17.33,6.84,10,6.84,10Z"/>
      <path class="cls-7" d="M144.75,299.25S162,290,169.28,284.67s27.33-22,27.33-22-9.67,18-16,24-21,11.67-23.67,12Z"/>
      <path class="cls-8" d="M210,285.33s7.33-8.33,8.33-15-.61-15.67-5.95-16-7.67-.67-10.67,2.33S191,274,189.28,276.33s-6.67,8-6.67,8,7-.67,12.33-1S210,285.33,210,285.33Z"/>
      <path class="cls-9" d="M223.62,430.5a95.82,95.82,0,0,1,19,0c11.5,1,25.5,3.5,25.5,3.5s0-9.5-10.5-16.5-15.8-6.54-15.8-6.54-9.2,7-11.7,11A76.77,76.77,0,0,1,223.62,430.5Z"/>
      <path class="cls-10" d="M243.5,480.75c11.14-1.24,23.57-6.94,22.75-9s-18.51-6.86-28-9.75-24.75-14-24.75-14,2.33-5.29,6-13.12,16.91-19.8,22.27-23.92,31.35-14,41.66-19.8S304.94,369.3,307,366s3.4-17.93,1.75-18.75-7,7.69-9.5,9.75-14.13,13.54-27.33,19.72-37.94,8.66-52.38,7.84S190.67,371,190.67,371s11.55.82,14.44.82,31.76-6.6,44.13-11.55,34.64-18.15,45.78-24.75c11-6.49,21.51-21.77,20.27-25.79l-1.62-2S298.67,325,260.34,342c-26.18,11.61-41.58,11.92-55.33,12.67-8,.44-16.85-.84-26.67,12s-.22,28.17-6.39,46.67c-8,24.14-16.22,44.12-4.61,92,9.29,38.31,38.88,74.49,44.33,92.67,5.08,16.92,7,26.18,7,37.67L219,638l3.75-.5,7.75-5.5s1.83-1.63,2.65-5.75,1.65-7.84,1.65-7.84l4.54-10.72a50.88,50.88,0,0,0,.41-10.31c-.41-4.95-2.06-17.73-5.36-28s-15.67-37.53-21.45-51.14S207.25,480,207.25,480,232.37,482,243.5,480.75Z"/>
      <path class="cls-11" d="M105.75,490.25s6,24.25,2.25,24.75-5.5-5-5.5-11.25S105.75,490.25,105.75,490.25Z"/>
      <path class="cls-12" d="M145,300.67s4.31,5.25,27,.33c20-4.33,29-15.67,29-15.67l-18.38-1s-7.28,9-17.62,12a57.53,57.53,0,0,1-18.66,2.33Z"/>
      <path class="cls-13" d="M309.62,348.33s1.26,12.38-4.28,20.33c-7.67,11-28,23.67-58.67,38.67-19.93,9.75-24.33,21.67-27.33,25s-6,14.67-6,14.67L203,438s8-16.33,20.67-27.67S264.95,389.25,278,383c23.67-11.33,31.62-34.67,31.62-34.67"/>
      <path class="cls-13" d="M207,479.25s1.33,27.08,6.66,42.42S233.33,568,233.33,568,210.67,540,207,524.33s-7-39.67-7-39.67-2-2-8.33-6-17-15.33-17-15.33,25.33,10,37,11.33,38,.33,43.67-1a55.49,55.49,0,0,0,9.33-3l2.33,3s-14.67,7.67-30.33,8.33A119.26,119.26,0,0,1,207,479.25"/>
      <path class="cls-12" d="M243.33,408.67s-6.67,5.67-12,9.67-12,14-12,14l20-3.33s-1.67-7-1.33-9.33S243.33,408.67,243.33,408.67Z"/>
      <path class="cls-13" d="M26.55,471.85s2.78,1.49,4.78-.51,13.67-13,20-17,21.92-6.83,21.92-6.83S74.33,492.33,88,519s35.33,50.33,48.67,63.33,23,23.06,27.85,28S178,629.67,178,629.67,173.33,612,162.67,600s-38-41.67-48.67-55-29.31-52.17-32-64c-5-22-5.67-54-5.67-54s-3.67,9.67-5,11.33-10.43.49-20.43,7.49-24.55,23.86-24.55,23.86"/>
      <path class="cls-14" d="M139.67,604.33s10.67-9,9.67-18S141,559.67,141,559.67s17,19.33,27.67,22.67,17,6,21.33,2,4.33-25,4.33-25S204,580,210.67,582s9.33-8,9.33-11-1.67-13.33-1.67-13.33,6.67,16,11.33,20.67,13.67,5.33,13.67,5.33,1,22.67.33,31.67-3.67,31-3.67,31l-63-2.67s-7.67-22.33-14.33-27.67S139.67,604.33,139.67,604.33Z"/>
      <path class="cls-15" d="M233.75,641.5s-3.92-6.08-3.25-21.75c.25-5.82,4.75-18.93,11.83-24.08,9.17-6.67,18.92-3.36,20.17,1.58,1.83,7.25-11.67,6.33-17,12A33.85,33.85,0,0,0,236.75,627C235.95,631.61,233.75,641.5,233.75,641.5Z"/>
      <path class="cls-16" d="M216,634.33s-2.33-18-1.33-28.33,3-16,6.33-15.67,1.33,8.33,0,15S216,634.33,216,634.33Z"/>
      <path class="cls-16" d="M207.67,626s2-9-1-17S194.33,593.67,191,597.33s4.67,8,8,12.33S207.67,626,207.67,626Z"/>
      <path class="cls-17" d="M128,648s12-2.33,15-8.67,8.67-19.67,8.67-19.67,2,17.67,10.33,23.33a57,57,0,0,0,16.33,7.67S163,648,158.67,646.33,150,640,150,640s-6.33,4.67-11,6.67S128,648,128,648Z"/>
      <path class="cls-17" d="M178.67,669s13.67,1.33,25-5.33a69.67,69.67,0,0,0,17.33-14,13.29,13.29,0,0,0,6,9.67,109.1,109.1,0,0,0,14.67,7.33s-12-1-15.33-2-8.33-5-8.33-5-3.33,3.67-12.67,6.67S178.67,669,178.67,669Z"/>
      <path class="cls-17" d="M252.67,652.33A30.72,30.72,0,0,0,267,649.67a28.44,28.44,0,0,0,10.33-8s3,3,5,4.67,10,3.33,10,3.33-4.67,1-7.33,1.33-8-1.67-8-1.67a25,25,0,0,1-8,3.67C264.67,654,252.67,652.33,252.67,652.33Z"/>
      <path class="cls-17" d="M95,629.33s4-8.67.67-14.33-11.33-11-11.33-11,8.33-1.33,14,8.67S95,629.33,95,629.33Z"/>
      <path class="cls-17" d="M115,573.33s7,7.67,7,11.33-4.33,10.67-4.33,10.67,8.84-6.71,7.33-12C122.33,574,115,573.33,115,573.33Z"/>
      <path class="cls-17" d="M175,639.33a13.32,13.32,0,0,0,8.67-5.67c3.33-5,2.67-16.33,2.67-16.33S191.67,631,197,632a14.51,14.51,0,0,0,9-1s-6,4.67-9.33,4.67-8-5-8-5,0,5-3,7.33S175,639.33,175,639.33Z"/>
      <path class="cls-17" d="M260,585s-1.33-9.67-.67-15.33,4-12.33,4-12.33S262,569.67,262,573.67,260,585,260,585Z"/>
      <path class="cls-17" d="M51,604.67s8-10.33,15-11.33,16.67,1,16.67,1-11,0-16,2.67A26.5,26.5,0,0,0,59,603Z"/>
      <path class="cls-18" d="M183.5,565.75s-11.25-12.5-11-23.5,3.75-17.5,6-16,1.75,14.75,1.5,19.5S183.5,565.75,183.5,565.75Z"/>
      <path class="cls-11" d="M202.75,553s-5.5-9.5-5.5-13,.5-7.25,2-6.75,3.25,7.75,3.25,10.25S202.75,553,202.75,553Z"/>
      <path class="cls-19" d="M115.25,481s-3.25,18.25,1,18.75S115.25,481,115.25,481Z"/>
      <path class="cls-19" d="M146.5,548S139,533.5,133,532s-13.75-3.25-14.25-.25,9.25,4.25,14,6.25S146.5,548,146.5,548Z"/>
      <path class="cls-19" d="M175.25,480.5S173,494,176.5,494.75,175.25,480.5,175.25,480.5Z"/>
      <path class="cls-19" d="M191.25,499.5s-.5,20.5,6,22-.75-13.25-1.75-15S191.25,499.5,191.25,499.5Z"/>
      <path class="cls-11" d="M89.25,434s-8,20-2.75,23.75,3.42-14.6,3.25-16.5C89.5,438.5,89.25,434,89.25,434Z"/>
      <path class="cls-20" d="M27.25,451.75s10-32,25-47.75A112.68,112.68,0,0,1,83,381l-2.67,10.33s-13,5-27.67,21.67c-11.47,13-25.42,38.75-25.42,38.75"/>
      <path class="cls-17" d="M81.75,388.75S91,361,99.75,345.5,121,317.75,125,313.75,146.67,300,146.67,300,131,315,109.33,344.33c-10.75,14.56-29,52-29,52"/>
      <path class="cls-17" d="M227.25,327.5s9.75-7.5,30-13.75,29-8.25,36.75-8.5,14.5.25,17,1.5a22.54,22.54,0,0,1,4.23,2.75s-20,1.5-37.73,4.75-50.25,13.25-50.25,13.25"/>
      <path class="cls-17" d="M195,428s7,16.75,15.75,24.75,17.5,13,25,15.5,29.5,4.5,29.5,4.5L254,467.5a120.55,120.55,0,0,1-27-11c-14.5-8-32-28.5-32-28.5"/>
      <path class="cls-17" d="M243.75,411s11,4,16.25,8,9.62,12.67,9.62,12.67S256.75,420,251.5,418.25s-10.5-4-10.5-4Z"/>
      <path class="cls-19" d="M315.5,573.5s6-8.5,14.75-9.5,16.25,9.5,12.75,11.75-8.25-5.5-13.75-5.5S315.5,573.5,315.5,573.5Z"/>
    </g>
    <g id="Ebene_12" data-name="Ebene 12">
      <g id="Ebene_11" data-name="Ebene 11">
        <g class="cls-21">
          <path class="cls-22" d="M186.5,343.17c2.41,5.27-.11,9.42-4.17,11.4-4.33,2.1-10.92.28-12.42-3.56-1.73-4.42.48-9.65,4.75-11.92C179.11,336.72,184.13,338,186.5,343.17Z"/>
        </g>
        <g class="cls-21">
          <path class="cls-22" d="M242.5,309.5c2.12,3,3.67,7-.78,10.31-3.23,2.41-9,2.14-11.58-1.85a7.92,7.92,0,0,1,3.72-11.32C236.74,305.4,240.24,306.29,242.5,309.5Z"/>
        </g>
        <ellipse cx="180.49" cy="345.02" rx="4.6" ry="6.34" transform="translate(-168.74 172.81) rotate(-36.13)"/>
        <ellipse cx="237.91" cy="312.38" rx="3.91" ry="5.66" transform="translate(-134.75 188.67) rotate(-34.34)"/>
        <path d="M169.62,351.35a9.54,9.54,0,0,1-1.07-6.33,10.08,10.08,0,0,1,3.3-5.82,9.66,9.66,0,0,1,6.17-2.69,6.81,6.81,0,0,1,5.76,2.92,8.41,8.41,0,0,0-5.61-1.15,10.41,10.41,0,0,0-4.89,2.54,12.3,12.3,0,0,0-1.89,2.07,10.66,10.66,0,0,0-1.26,2.52A13.53,13.53,0,0,0,169.62,351.35Z"/>
        <path d="M228.71,315a8,8,0,0,1,.2-5.4,7.48,7.48,0,0,1,4-4.08,8.1,8.1,0,0,1,2.83-.7,6.36,6.36,0,0,1,2.9.54,6.68,6.68,0,0,1,3.57,4.08,9.3,9.3,0,0,0-4.11-2.6,6.57,6.57,0,0,0-4.37.53,7.51,7.51,0,0,0-3.38,2.93A13.06,13.06,0,0,0,228.71,315Z"/>
        <g class="cls-23">
          <path d="M160.75,343.41a14.15,14.15,0,0,1,1.33-6.22,18.64,18.64,0,0,1,3.6-5.24,19.11,19.11,0,0,1,5.07-3.81,12.11,12.11,0,0,1,6.26-1.39V328a19.11,19.11,0,0,0-5.08,2.25,27,27,0,0,0-4.42,3.5,21.16,21.16,0,0,0-3.45,4.43,18,18,0,0,0-2,5.23Z"/>
        </g>
        <g class="cls-23">
          <path d="M221.53,303.5a11.84,11.84,0,0,1,3-3.13,13.13,13.13,0,0,1,3.9-2,10.24,10.24,0,0,1,4.47-.42,9.39,9.39,0,0,1,4.21,1.61l-1,1.57a13.14,13.14,0,0,0-3.51-.75,10.94,10.94,0,0,0-3.56.32,16.5,16.5,0,0,0-3.47,1.35,17.45,17.45,0,0,0-3.11,2.17Z"/>
        </g>
      </g>
      <path d="M190.46,368.84a33.21,33.21,0,0,0,3.54.33c1.22.05,2.44.05,3.66,0,2.45-.07,4.9-.2,7.35-.48a119.64,119.64,0,0,0,14.58-2.47A187.4,187.4,0,0,0,248,357.44a214.93,214.93,0,0,0,26.83-12.93,173.17,173.17,0,0,0,24.55-16.74,73,73,0,0,0,10.36-10.24,26.9,26.9,0,0,0,2-2.84,10.4,10.4,0,0,0,1.2-2.77,1.85,1.85,0,0,0-.29-1.75,4.76,4.76,0,0,0-2-1.48,20.91,20.91,0,0,0-6.61-1.32,59.64,59.64,0,0,0-7.27,0A129.24,129.24,0,0,0,282,309.25c-4.9.88-9.78,1.9-14.62,3.11s-9.67,2.48-14.35,4.08-9.31,3.49-13.88,5.46S230,326,225.62,328.5a56.54,56.54,0,0,1,12.28-9A100.32,100.32,0,0,1,251.77,313a176.06,176.06,0,0,1,29.43-8.08,133.57,133.57,0,0,1,15.23-2,64,64,0,0,1,7.83-.07,25.09,25.09,0,0,1,8.14,1.64,9.38,9.38,0,0,1,4,3,6.53,6.53,0,0,1,1.18,2.64,7.3,7.3,0,0,1-.06,2.77,14.79,14.79,0,0,1-1.68,4.18,31.51,31.51,0,0,1-2.28,3.4,77.57,77.57,0,0,1-10.92,11.13,173.4,173.4,0,0,1-25.09,17.59A196,196,0,0,1,250,362.5a169,169,0,0,1-29.37,8.7c-1.27.21-2.52.47-3.8.64l-3.82.52c-2.56.25-5.13.47-7.71.53a67.71,67.71,0,0,1-7.75-.25l-1.94-.21-1.93-.31a27,27,0,0,1-3.89-1Z"/>
      <path class="cls-24" d="M249.12,316.5s-13.45-25.17-42-31c-15.76-3.22-26.75.25-26.75.25"/>
      <path d="M146.74,298.66A49.14,49.14,0,0,0,174.48,289a47.45,47.45,0,0,0,10.1-10.69l8.64-12.81c1.48-2.13,2.92-4.29,4.55-6.37a22.68,22.68,0,0,1,5.84-5.71,9.06,9.06,0,0,1,4.22-1.34,9.81,9.81,0,0,1,2.2.12,14,14,0,0,1,2.07.49,12.19,12.19,0,0,1,3.84,2,11.52,11.52,0,0,1,2.85,3.3,16.26,16.26,0,0,1,2,8.19,26,26,0,0,1-1.44,8.12,30.77,30.77,0,0,1-9.27,13.55l-2.88-3.79a23.17,23.17,0,0,0,5.18-4.82,24.72,24.72,0,0,0,3.66-6.18,21,21,0,0,0,1.62-7,12.75,12.75,0,0,0-1.32-6.72,8.71,8.71,0,0,0-5-4.19,9.73,9.73,0,0,0-3.33-.54,6.51,6.51,0,0,0-3.08.93,19.2,19.2,0,0,0-5.11,5.07c-1.48,2-2.88,4.17-4.19,6.37-2.65,4.4-5.2,8.86-7.9,13.3a42.63,42.63,0,0,1-10.77,11.89,43.27,43.27,0,0,1-6.92,4.15,41.84,41.84,0,0,1-7.56,2.71,42.62,42.62,0,0,1-7.87,1.25,34.47,34.47,0,0,1-7.94-.36Z"/>
      <path d="M191.67,368.88a25.23,25.23,0,0,0,3,2.8,36.21,36.21,0,0,0,3.42,2.46,49.39,49.39,0,0,0,7.52,3.88,63.5,63.5,0,0,0,16.48,4.1,96.25,96.25,0,0,0,17.15.26,92.46,92.46,0,0,0,16.94-2.7A87.17,87.17,0,0,0,287,365a110.78,110.78,0,0,0,13-11.43l3.08-3.13a35.71,35.71,0,0,1,3.41-3.15,6.32,6.32,0,0,1,1.3-.78,3.09,3.09,0,0,1,1.19-.26,2.49,2.49,0,0,1,1.68.64,2.8,2.8,0,0,1,.45.54l.18.3a5.55,5.55,0,0,1,.33.61,8.51,8.51,0,0,1,.5,1.25,13.65,13.65,0,0,1,.52,5,26.5,26.5,0,0,1-2.47,9,43.33,43.33,0,0,1-4.68,7.87,64.89,64.89,0,0,1-12.76,12.78c-9.55,7.16-20,12.92-30.43,18.22-5.23,2.65-10.44,5.24-15.36,8.16a81.69,81.69,0,0,0-7.11,4.69,60.9,60.9,0,0,0-6.46,5.46,80,80,0,0,0-11.16,12.73,46.24,46.24,0,0,0-4,7.22,27.71,27.71,0,0,0-1.31,3.79,18.72,18.72,0,0,0-.4,1.9c0,.3-.09.63-.1.92s0,.65,0,.72l-4.61.51a10.56,10.56,0,0,1,0-1.47c0-.44.06-.84.1-1.27a23.37,23.37,0,0,1,.42-2.41,32.49,32.49,0,0,1,1.4-4.55,46.22,46.22,0,0,1,4.34-8.19A77.21,77.21,0,0,1,229.8,417a64.22,64.22,0,0,1,7-5.85,86.77,86.77,0,0,1,7.61-4.88c5.19-3,10.51-5.54,15.76-8.11s10.46-5.13,15.51-8A154.62,154.62,0,0,0,290.28,381a58.59,58.59,0,0,0,12.2-11.76,39.68,39.68,0,0,0,4.37-7.15,23,23,0,0,0,2.25-7.78,10.24,10.24,0,0,0-.32-3.7,5.08,5.08,0,0,0-.3-.79,2.53,2.53,0,0,0-.19-.35l-.1-.17a1.17,1.17,0,0,0,.11.12,1,1,0,0,0,.68.26c.17,0,.17,0,.13,0a3.23,3.23,0,0,0-.57.36,33.61,33.61,0,0,0-3,2.82L302.44,356a127.91,127.91,0,0,1-13.28,11.85,90.46,90.46,0,0,1-32,15.79,96.56,96.56,0,0,1-17.69,2.85,91.17,91.17,0,0,1-17.91-.48,61.18,61.18,0,0,1-17.37-4.8,45.92,45.92,0,0,1-7.89-4.49,39.2,39.2,0,0,1-3.56-2.85,24.57,24.57,0,0,1-3.2-3.42Z"/>
      <path class="cls-25" d="M306.28,348.33s-10,9.67-30.67,16"/>
      <path d="M119.21,320.37a87.57,87.57,0,0,1-7.08-13.58,48,48,0,0,1-2.41-7.38,20.93,20.93,0,0,1-.46-8.09,12.48,12.48,0,0,1,.54-2.07c.24-.62.44-1.25.72-1.85a31.4,31.4,0,0,1,1.77-3.52,41.72,41.72,0,0,1,4.54-6.31,62.3,62.3,0,0,1,11.49-10.16,69.25,69.25,0,0,1,13.44-7.3,43.56,43.56,0,0,1,15.12-3.47,23.13,23.13,0,0,1,7.93,1.36,28,28,0,0,1,7,3.76,36.74,36.74,0,0,1,5.83,5.28,39.61,39.61,0,0,1,4.7,6.36l-3.52,1.91a36.16,36.16,0,0,0-4.05-5.74,33,33,0,0,0-5.12-4.88A21.37,21.37,0,0,0,156.89,260a38.75,38.75,0,0,0-13.9,3.1,66,66,0,0,0-12.83,6.9,56.23,56.23,0,0,0-10.85,9.63,38.46,38.46,0,0,0-4.16,5.83,28.11,28.11,0,0,0-1.58,3.17c-.25.53-.41,1.09-.63,1.64a8.48,8.48,0,0,0-.38,1.55,17.68,17.68,0,0,0,.53,6.74,44.56,44.56,0,0,0,2.34,6.79,82.52,82.52,0,0,0,7.09,12.73Z"/>
      <path d="M145.42,262.24A17.83,17.83,0,0,0,138,269.3a15.18,15.18,0,0,0-1.62,10.08,32.13,32.13,0,0,0,3.85,10,58.86,58.86,0,0,0,6.19,8.9l-1,.86a60.14,60.14,0,0,1-6.51-9,33.64,33.64,0,0,1-4.2-10.4,16.88,16.88,0,0,1,1.64-11.25,18.64,18.64,0,0,1,3.49-4.59,19.71,19.71,0,0,1,4.7-3.4Z"/>
      <path d="M78,404.67a138.77,138.77,0,0,1,6.44-32.41,122.61,122.61,0,0,1,6.17-15.48c1.21-2.52,2.52-5,3.94-7.42s2.91-4.69,4.39-7c3-4.62,6-9.24,9.27-13.73a105.55,105.55,0,0,1,10.93-12.73c8.06-7.91,17.61-13.89,27.34-19l1.7,3c-9.24,5.72-18.25,11.76-25.73,19.37a105,105,0,0,0-10.34,12.26c-3.21,4.33-6.23,8.85-9.21,13.43-1.47,2.27-3.06,4.59-4.44,6.82s-2.68,4.62-3.89,7c-2.4,4.8-4.47,9.79-6.4,14.85s-3.71,10.2-5.37,15.39S79.5,399.38,78,404.67Z"/>
      <path class="cls-25" d="M146,298s12.61-5.67,21.28-11.67,35.33-30.58,35.33-30.58"/>
      <path d="M85.23,382c-.25.05-.69.17-1.06.29s-.78.25-1.17.39c-.78.26-1.57.6-2.34.92-1.55.69-3.09,1.44-4.59,2.29a66.35,66.35,0,0,0-8.61,5.82,107.29,107.29,0,0,0-15.1,14.59,109.11,109.11,0,0,0-21.27,36.17A74.1,74.1,0,0,0,27,463a34.4,34.4,0,0,0,.15,5.13,13.76,13.76,0,0,0,.46,2.37,4.1,4.1,0,0,0,.38.92.88.88,0,0,0,.15.2s-.05-.07-.24-.09h-.13l.06,0a.63.63,0,0,0,.16,0,3,3,0,0,0,.38-.16,7,7,0,0,0,.9-.58,21.62,21.62,0,0,0,1.87-1.66c1.25-1.2,2.49-2.51,3.76-3.79A81.64,81.64,0,0,1,52,451.69,59,59,0,0,1,62,447a47,47,0,0,1,5.38-1.54c.92-.19,1.85-.35,2.79-.48a20.47,20.47,0,0,1,3-.22l.17,4c-.66.12-1.55.31-2.33.51s-1.62.44-2.43.69c-1.62.5-3.22,1.08-4.81,1.69a86.25,86.25,0,0,0-9.3,4.41,97,97,0,0,0-17.16,11.86l-4,3.54A27.68,27.68,0,0,1,31,473.17a9.77,9.77,0,0,1-1.37.82,5.78,5.78,0,0,1-.87.32,3.09,3.09,0,0,1-.5.1l-.27,0a3.57,3.57,0,0,1-.46,0,2.52,2.52,0,0,1-1.41-.69,3.73,3.73,0,0,1-.65-.86,7.64,7.64,0,0,1-.63-1.55,16.47,16.47,0,0,1-.53-2.88,37.1,37.1,0,0,1-.11-5.56,69.07,69.07,0,0,1,1.47-10.81,91.28,91.28,0,0,1,2.83-10.48,109.83,109.83,0,0,1,8.85-19.76c1.79-3.14,3.74-6.19,5.82-9.14,1-1.49,2.13-2.92,3.23-4.34s2.17-2.88,3.35-4.25A110.91,110.91,0,0,1,65,388.66c1.38-1.19,2.88-2.24,4.33-3.35s3-2.07,4.6-3,3.2-1.86,4.87-2.68c.85-.4,1.69-.8,2.59-1.14.44-.18.88-.35,1.35-.51s.89-.3,1.5-.46Z"/>
      <path d="M74.28,438c0,7.54.3,15,.8,22.38a186.65,186.65,0,0,0,2.68,22c.68,3.63,1.49,7.24,2.43,10.81s2.06,7.08,3.25,10.57,2.59,6.88,4.09,10.27c.73,1.7,1.46,3.4,2.28,5.06s1.58,3.34,2.41,5a169.8,169.8,0,0,0,11.09,19.14,152.57,152.57,0,0,0,13.48,17.49q3.73,4.08,7.68,8l8.06,7.79a146.81,146.81,0,0,1,14.75,17.15c-5.84-4.79-11.46-9.72-17.2-14.46-2.84-2.38-5.81-4.72-8.61-7.29s-5.51-5.23-8.14-8A149.6,149.6,0,0,1,99.1,546.1a172.32,172.32,0,0,1-11.41-19.73c-.82-1.71-1.58-3.45-2.38-5.17s-1.52-3.47-2.23-5.23c-1.45-3.49-2.85-7-4-10.68a144.56,144.56,0,0,1-5.29-22.17,146.73,146.73,0,0,1-1.93-22.63c0-3.78.18-7.57.55-11.33A75.1,75.1,0,0,1,74.28,438Z"/>
      <path d="M209.81,480.36c-.12,1-.16,2.28-.19,3.43s0,2.39,0,3.59c.08,2.4.25,4.81.54,7.21a119.61,119.61,0,0,0,2.6,14.31,141.08,141.08,0,0,0,4.26,14c.38,1.16.85,2.28,1.3,3.42l1.34,3.41c1,2.28,1.9,4.56,2.9,6.83,3.86,9.11,8.13,18.1,11.62,27.54a95.34,95.34,0,0,1,4.15,14.55,72.13,72.13,0,0,1,1.31,15l-.78,0c-.2-1.23-.42-2.45-.6-3.67s-.48-2.42-.71-3.63c-.55-2.4-1.15-4.78-1.85-7.12a121.11,121.11,0,0,0-5.14-13.75c-3.95-9-8.45-17.86-12.6-26.95-1-2.26-2-4.56-3.07-6.83s-2-4.65-2.83-7l-1.29-3.57c-.42-1.19-.78-2.41-1.17-3.62-.81-2.4-1.42-4.87-2.06-7.32a108,108,0,0,1-2.63-15q-.39-3.81-.46-7.66v-1.93l.06-1.94c.08-1.33.14-2.54.35-4Z"/>
      <path d="M46.62,633.67a83.6,83.6,0,0,0,20.44-1.38,30.93,30.93,0,0,0,9.24-3.47,12.37,12.37,0,0,0,3.56-3,7.22,7.22,0,0,0,1.54-4c.2-2.95-1.26-6-3.23-8.6a25.5,25.5,0,0,0-7.34-6.51,21,21,0,0,0-9.45-2.55,32.49,32.49,0,0,0-10.06,1.05h0l-.9.36.37-.9a19.8,19.8,0,0,1,8-9.14,25.28,25.28,0,0,1,11.7-3.49,40.81,40.81,0,0,1,6.09.19,44.35,44.35,0,0,1,6,1,30.17,30.17,0,0,1,11,4.79h0c-1.86-3.93-4.82-7.3-8.65-8.69a18.83,18.83,0,0,0-6.09-.91c-2.11,0-4.17.26-6.46.38a8.26,8.26,0,0,1-1.82-.12,4,4,0,0,1-1.85-.89,4.75,4.75,0,0,1-1.14-1.6,8.36,8.36,0,0,1-.33-.84,4.85,4.85,0,0,1-.21-1,5.62,5.62,0,0,1,.94-3.58,7.49,7.49,0,0,1,2.61-2.43,10.44,10.44,0,0,1,3.28-1.18,14.69,14.69,0,0,1,3.41-.27,26.19,26.19,0,0,1,6.62,1.19,30.32,30.32,0,0,1,11.53,6.71,119,119,0,0,1,9,9.55,46.53,46.53,0,0,0,4.53,4.5,19.49,19.49,0,0,0,2.57,1.8c.91.57,1.85,1.08,2.79,1.59a39.56,39.56,0,0,0,5.92,2.52,22.42,22.42,0,0,0,6.34,1.22,20.31,20.31,0,0,1-6.54-.51,34.14,34.14,0,0,1-6.28-2.07c-1-.46-2-.92-3-1.45a17.85,17.85,0,0,1-2.86-1.8,44.08,44.08,0,0,1-4.91-4.49c-3-3.16-5.89-6.41-9-9.27a40.17,40.17,0,0,0-5-3.9,27.63,27.63,0,0,0-5.65-2.78,20.87,20.87,0,0,0-6.13-1.37,10.25,10.25,0,0,0-5.91,1.2,6.06,6.06,0,0,0-2.09,2,3.93,3.93,0,0,0-.62,2.62,3.28,3.28,0,0,0,.16.62,6.75,6.75,0,0,0,.29.67,3.12,3.12,0,0,0,.77,1,3.53,3.53,0,0,0,2.51.51,61.28,61.28,0,0,1,6.55-.49,24,24,0,0,1,3.37.27,13.23,13.23,0,0,1,3.34.91,12.8,12.8,0,0,1,5.34,4.24A14.61,14.61,0,0,1,93.62,598h0a26.29,26.29,0,0,0-5.46-2.41,40.09,40.09,0,0,0-5.76-1.47,49.58,49.58,0,0,0-11.8-.73,25.07,25.07,0,0,0-11.1,3.29,20.79,20.79,0,0,0-4.56,3.59,18.8,18.8,0,0,0-3.39,4.7l-.53-.53h0a29.27,29.27,0,0,1,10.38-2.05,25.66,25.66,0,0,1,5.36.46,24.61,24.61,0,0,1,2.66.69A17.84,17.84,0,0,1,72,604.65a27.16,27.16,0,0,1,8.31,6.94,20.6,20.6,0,0,1,2.86,4.75A12.62,12.62,0,0,1,84.2,622a10.06,10.06,0,0,1-2.12,5.54,15.13,15.13,0,0,1-4.34,3.67,29.55,29.55,0,0,1-10.2,3.53,48.21,48.21,0,0,1-10.57.51A51.24,51.24,0,0,1,46.62,633.67Z"/>
      <path d="M141.84,602.5A47.47,47.47,0,0,0,147,592.11a14.42,14.42,0,0,0,.68-5.29,41.49,41.49,0,0,0-1-5.63c-.94-3.8-2.09-7.6-3.26-11.4s-2.37-7.61-3.5-11.46h0a166.67,166.67,0,0,0,16.43,14.6c5.8,4.38,11.93,8.43,18.64,10.8.83.32,1.69.53,2.53.79s1.71.43,2.57.56a13.84,13.84,0,0,0,5,.18,8.52,8.52,0,0,0,4.25-2,11.21,11.21,0,0,0,2.77-4,22,22,0,0,0,1.44-5,40.79,40.79,0,0,0,.58-5.36,76.17,76.17,0,0,0-.34-11h0c2.28,3.89,4.58,7.75,7.07,11.46,1.22,1.87,2.53,3.67,3.89,5.41a33.76,33.76,0,0,0,4.43,4.77,10.23,10.23,0,0,0,2.54,1.66,5.2,5.2,0,0,0,2.67.38c1.66-.22,2.82-2,3.5-4a30.81,30.81,0,0,0,1.28-6.38c.23-2.21.36-4.45.45-6.71a33.75,33.75,0,0,1,.86,6.76,27,27,0,0,1-.09,3.45,18.09,18.09,0,0,1-.6,3.47,10.05,10.05,0,0,1-1.57,3.38,5.58,5.58,0,0,1-3.44,2.2,5.94,5.94,0,0,1-2,0,7.56,7.56,0,0,1-1.89-.55,12.34,12.34,0,0,1-3.07-2,31.23,31.23,0,0,1-4.58-5.24,65.66,65.66,0,0,1-3.65-5.77,89.21,89.21,0,0,1-5.74-12.28h0a49.35,49.35,0,0,1,1.87,11,29.29,29.29,0,0,1-1.31,11.29,13.29,13.29,0,0,1-3.22,5.11,10.61,10.61,0,0,1-5.55,2.77,16.63,16.63,0,0,1-6-.11,30.22,30.22,0,0,1-5.55-1.5,49.52,49.52,0,0,1-10.1-5.1,76.77,76.77,0,0,1-8.94-6.73,100.51,100.51,0,0,1-15.07-16.26h0a112.77,112.77,0,0,1,5.32,10.79,98.69,98.69,0,0,1,4.17,11.34,34.85,34.85,0,0,1,1.28,6.1,14.33,14.33,0,0,1-.87,6.49A19,19,0,0,1,141.84,602.5Z"/>
      <g>
        <path class="cls-19" d="M110.52,561.34s-7.37-8-16.79-9.93c-7.45-1.51-14.39,3-12.42,5.89,3.57,5.18,10-.11,16.38.6A54,54,0,0,1,110.52,561.34Z"/>
        <path d="M110.52,561.34a44.54,44.54,0,0,0-6.64-4.9A33.61,33.61,0,0,0,96.52,553a20,20,0,0,0-1.94-.52,15.67,15.67,0,0,0-1.94-.36,14.24,14.24,0,0,0-3.89.07,13.56,13.56,0,0,0-3.7,1.08,6.72,6.72,0,0,0-2.8,2.16,1.22,1.22,0,0,0-.24,1.09,1,1,0,0,0,.12.24l.28.34.27.34c.1.1.21.18.32.27a4.46,4.46,0,0,0,3.21.93c2.53-.12,5.23-1.14,8.09-1.42a18.2,18.2,0,0,1,2.18-.1,16.54,16.54,0,0,1,2.15.25,41.91,41.91,0,0,1,4.1,1A50.55,50.55,0,0,1,110.52,561.34Zm0,0a68,68,0,0,0-8-2.06c-1.35-.26-2.7-.48-4-.61-.69-.08-1.34-.1-2-.11a16.75,16.75,0,0,0-2,.21c-1.31.22-2.62.58-4,.92a24,24,0,0,1-4.23.84,6.29,6.29,0,0,1-4.56-1.31c-.16-.13-.33-.26-.47-.4l-.39-.46-.38-.46a3,3,0,0,1-.36-.67,2.89,2.89,0,0,1-.13-1.56,3.92,3.92,0,0,1,.53-1.29,8.54,8.54,0,0,1,3.67-2.87,14.65,14.65,0,0,1,4.26-1.18,15.94,15.94,0,0,1,6.5.54c.7.17,1.36.43,2,.67A34.05,34.05,0,0,1,110.52,561.34Z"/>
      </g>
      <g>
        <path class="cls-19" d="M234,559.75s-7.06-14-4.25-24,11.14-15.56,14.87-11.84-5.89,9.47-8.44,16.77A41.53,41.53,0,0,0,234,559.75Z"/>
        <path d="M234,559.75a56.24,56.24,0,0,1-3.92-10A32.82,32.82,0,0,1,228.69,539a19.59,19.59,0,0,1,1.12-5.39,23.88,23.88,0,0,1,2.39-5,19.28,19.28,0,0,1,3.63-4.25,10.46,10.46,0,0,1,5.23-2.59,5.38,5.38,0,0,1,3.23.53,4.88,4.88,0,0,1,1.35,1.05,3.65,3.65,0,0,1,.89,1.66,4.33,4.33,0,0,1,0,1.86,7.38,7.38,0,0,1-.54,1.54,16.86,16.86,0,0,1-1.51,2.49c-2.19,3-4.57,5.58-6.2,8.46a12.49,12.49,0,0,0-1,2.25c-.3.81-.58,1.64-.84,2.47a48.66,48.66,0,0,0-1.33,5.07A50.66,50.66,0,0,0,234,559.75Zm0,0a31.72,31.72,0,0,1-.79-10.85,37.35,37.35,0,0,1,.84-5.44c.18-.9.45-1.79.71-2.67a15.67,15.67,0,0,1,1-2.71,26.91,26.91,0,0,1,3.1-4.7c1.16-1.42,2.38-2.74,3.45-4.08a14.54,14.54,0,0,0,1.43-2,2.88,2.88,0,0,0,.51-1.77,2.12,2.12,0,0,0-1-1.34,3.25,3.25,0,0,0-2-.43,8.69,8.69,0,0,0-4.35,2,17.7,17.7,0,0,0-3.5,3.74A22.54,22.54,0,0,0,231,534a18.28,18.28,0,0,0-1.29,5,32.12,32.12,0,0,0,.89,10.53A56,56,0,0,0,234,559.75Z"/>
      </g>
      <path d="M86.28,649.33a44.68,44.68,0,0,0,5.42-.55,48.81,48.81,0,0,0,5.26-1.2,30.67,30.67,0,0,0,9.52-4.56,23.07,23.07,0,0,0,3.77-3.53,7.53,7.53,0,0,0,1.65-4.41c.18-3.3-1.25-6.71-2.3-10.24a19.66,19.66,0,0,1-1-5.67,8.87,8.87,0,0,1,.53-3,9.34,9.34,0,0,1,1.55-2.64,4.09,4.09,0,0,1,3-1.57,4.6,4.6,0,0,1,3,1.3,13.38,13.38,0,0,1,3.17,4.85,21,21,0,0,1,1.39,5.47,21.46,21.46,0,0,1-.17,5.59,37.88,37.88,0,0,1-3.2,10.5h0c1.57-2.35,3.08-4.65,4.35-7a22.86,22.86,0,0,0,2.7-7.38,12.37,12.37,0,0,0,.12-1.9c0-.67,0-1.33-.09-2a30.89,30.89,0,0,0-.55-4,39.07,39.07,0,0,0-2.36-7.75h0l-.84-1.3,1.51.46a16.77,16.77,0,0,1,8,5.48,20.48,20.48,0,0,1,2.61,4.13,22,22,0,0,1,1.53,4.63,17.49,17.49,0,0,1,.33,4.9,14.85,14.85,0,0,1-7.6,11.74,18.48,18.48,0,0,0,5-7.52,15.89,15.89,0,0,0,.43-8.74,21,21,0,0,0-3.69-8.06,18,18,0,0,0-6.93-5.46l.67-.84h0a27.49,27.49,0,0,1,3.42,7.86,27.79,27.79,0,0,1,.77,4.25c.08.72.11,1.44.13,2.17a11.63,11.63,0,0,1-.13,2.26,19.13,19.13,0,0,1-3.37,8.05,23.89,23.89,0,0,1-6,6h0a42.38,42.38,0,0,0,2.24-10.61,24.9,24.9,0,0,0-.16-5.32,20,20,0,0,0-1.52-5,11.87,11.87,0,0,0-2.88-4.16,2.89,2.89,0,0,0-1.88-.8,2.34,2.34,0,0,0-1.63,1,7.46,7.46,0,0,0-1.16,2.08,6.92,6.92,0,0,0-.35,2.36,18.11,18.11,0,0,0,1,5c.53,1.71,1.15,3.43,1.66,5.24a18,18,0,0,1,.81,5.74,9.53,9.53,0,0,1-2.16,5.63,21.28,21.28,0,0,1-4.28,3.83,28.22,28.22,0,0,1-10.36,4.24,33.15,33.15,0,0,1-5.51.65A30.2,30.2,0,0,1,86.28,649.33Z"/>
      <g>
        <path class="cls-19" d="M74,624.28s-3.66-5-13.53-8C55.29,614.75,49,622,47.8,617c-.71-3,5.83-12.14,15.59-6.69C71,614.52,74,624.28,74,624.28Z"/>
        <path d="M74,624.28a23.89,23.89,0,0,0-7-4.72A32.42,32.42,0,0,0,63.15,618c-.66-.23-1.32-.46-2-.64-.33-.09-.68-.21-1-.29a4.62,4.62,0,0,0-.9-.13,9.63,9.63,0,0,0-3.79.82c-1.29.49-2.52,1.15-4,1.65a4.47,4.47,0,0,1-2.67.21,2.63,2.63,0,0,1-1.35-1,4.14,4.14,0,0,1-.58-1.28,4.36,4.36,0,0,1,.23-2.68,9.55,9.55,0,0,1,1.1-2.11,11.44,11.44,0,0,1,7.69-4.83A12.87,12.87,0,0,1,64.58,610a21.13,21.13,0,0,1,6,6.35,29.66,29.66,0,0,1,2,3.84A24,24,0,0,1,74,624.28Zm0,0A33.34,33.34,0,0,0,69.76,617a21.8,21.8,0,0,0-6-5.57,11.39,11.39,0,0,0-7.53-1.79,9.51,9.51,0,0,0-6.32,4.07,7.59,7.59,0,0,0-.89,1.65,2.5,2.5,0,0,0-.2,1.49,2.3,2.3,0,0,0,.27.66.67.67,0,0,0,.34.26,2.89,2.89,0,0,0,1.52-.18c1.24-.38,2.56-1,3.94-1.5a10.54,10.54,0,0,1,4.53-.76,6.2,6.2,0,0,1,1.2.24c.37.12.69.24,1,.36.69.23,1.36.51,2,.79a33.59,33.59,0,0,1,3.87,2,27,27,0,0,1,3.53,2.5A15.78,15.78,0,0,1,74,624.28Z"/>
      </g>
      <path d="M122.34,648a29.26,29.26,0,0,0,10.68-2.7,22.43,22.43,0,0,0,8.14-6.6,36.3,36.3,0,0,0,2.74-4.66c.84-1.67,1.69-3.35,2.5-5.07,1.64-3.42,3.24-6.87,5-10.29h0a63.86,63.86,0,0,0,2.65,8.88,47.67,47.67,0,0,0,4,8.2,28.61,28.61,0,0,0,5.73,6.77,28.07,28.07,0,0,0,7.63,4.38,50.71,50.71,0,0,0,35.61-.5,36.73,36.73,0,0,1-17.81,5.86,42.57,42.57,0,0,1-18.86-2.68,27.63,27.63,0,0,1-8.32-5.05,26.45,26.45,0,0,1-3.29-3.61,32.27,32.27,0,0,1-2.56-4.09,40.2,40.2,0,0,1-3.38-8.87,43.46,43.46,0,0,1-1.38-9.28h0a81.37,81.37,0,0,1-2.88,11.15c-.62,1.82-1.27,3.64-2,5.43a30.46,30.46,0,0,1-2.8,5.31,20.1,20.1,0,0,1-9.62,7.32,18.74,18.74,0,0,1-5.93,1.05A15.72,15.72,0,0,1,122.34,648Z"/>
      <path d="M228.62,626.5a94.32,94.32,0,0,1,2.24-12.82,54.31,54.31,0,0,1,4.49-12.39,18.35,18.35,0,0,1,4.42-5.28,24.9,24.9,0,0,1,5.78-3.64,19.94,19.94,0,0,1,6.71-1.76,12.7,12.7,0,0,1,7.09,1.38,11.34,11.34,0,0,1,2.89,2.3,9.58,9.58,0,0,1,1.17,1.52,5.2,5.2,0,0,1,.76,2.1,4,4,0,0,1-.49,2.44A5.88,5.88,0,0,1,262.3,602a15.07,15.07,0,0,1-3,1.89c-2,1-4.07,1.73-6,2.56a43,43,0,0,0-5.63,2.74,14.73,14.73,0,0,0-2.4,1.79,16.71,16.71,0,0,0-1.95,2.31,29.87,29.87,0,0,0-3.12,5.45A50.42,50.42,0,0,0,236.5,631a40.5,40.5,0,0,1,2.17-12.87,30.86,30.86,0,0,1,2.84-6,18.12,18.12,0,0,1,2.08-2.75,17,17,0,0,1,2.67-2.22c3.78-2.55,8-3.94,11.7-5.83a12.41,12.41,0,0,0,2.44-1.53,3,3,0,0,0,.71-.82,1,1,0,0,0,.13-.68,4.07,4.07,0,0,0-1.19-1.94,9.38,9.38,0,0,0-2.15-1.72,9.77,9.77,0,0,0-5.44-1.08,18.13,18.13,0,0,0-5.78,1.45,20.07,20.07,0,0,0-9.27,7.53,42.42,42.42,0,0,0-2.83,5.63c-.86,1.94-1.58,4-2.28,6C230.9,618.16,229.72,622.31,228.62,626.5Z"/>
      <path d="M240,578.75a39.62,39.62,0,0,1-.47-13.73,59.56,59.56,0,0,1,3.3-13.45,66.59,66.59,0,0,1,6-12.51,40.37,40.37,0,0,1,9.21-10.6,21.61,21.61,0,0,1,3-2,11.24,11.24,0,0,1,3.61-1.27c.17,0,.35,0,.53-.05a2.8,2.8,0,0,1,.74,0,2.14,2.14,0,0,1,1.47,1.17,3.24,3.24,0,0,1,.29,1.33,6.8,6.8,0,0,1-.06,1,20.45,20.45,0,0,1-.91,3.54c-1.52,4.43-3.39,8.59-4.87,12.85-.37,1.06-.71,2.13-1,3.19a30.1,30.1,0,0,0-.73,3.22c-.38,2.2-.73,4.44-1,6.7-.59,4.51-1,9.05-1.62,13.63h0a66.29,66.29,0,0,1,1.64-11.62,46.16,46.16,0,0,1,3.93-11.15,26.92,26.92,0,0,1,3.34-5,22.54,22.54,0,0,1,4.6-4,15.75,15.75,0,0,1,5.74-2.35,11.31,11.31,0,0,1,6.34.6,8.1,8.1,0,0,1,2.78,1.88,6.06,6.06,0,0,1,1,1.46,5.42,5.42,0,0,1,.51,1.78,3.53,3.53,0,0,1-.35,2.08,3.83,3.83,0,0,1-1.46,1.46,14.47,14.47,0,0,1-3,1.16,27.82,27.82,0,0,0-5.25,2,15.27,15.27,0,0,0-4.25,3.34,24.58,24.58,0,0,0-5.65,9.5,18.41,18.41,0,0,0,.21,11.19,15.6,15.6,0,0,1-2-11.64,22.69,22.69,0,0,1,5.69-10.7,17.43,17.43,0,0,1,4.93-3.83,30.05,30.05,0,0,1,5.68-2.14,12.84,12.84,0,0,0,2.48-.92c.64-.41.77-.59.74-1.3-.06-1.41-1.37-2.68-2.91-3.36a9.3,9.3,0,0,0-5.15-.57,13.8,13.8,0,0,0-5.08,1.91,20.85,20.85,0,0,0-4.33,3.53,25.88,25.88,0,0,0-3.34,4.57c-3.77,6.68-5.71,14.39-6.82,22.08h0a81,81,0,0,1-.54-13.81,64.78,64.78,0,0,1,.68-6.93,32.69,32.69,0,0,1,.72-3.49c.32-1.14.69-2.25,1.07-3.35,1.55-4.38,3.46-8.57,4.93-12.8a19.33,19.33,0,0,0,.83-3.09,2.62,2.62,0,0,0,0-1s.16.16.19.13h-.11c-.11,0-.21,0-.33,0a9,9,0,0,0-2.84,1,19.32,19.32,0,0,0-2.74,1.72,40.2,40.2,0,0,0-8.9,9.87,70,70,0,0,0-6.24,12c-.43,1-.86,2.09-1.22,3.17l-.56,1.6-.49,1.63a58.12,58.12,0,0,0-1.61,6.61,49,49,0,0,0-.76,6.77A33.79,33.79,0,0,0,240,578.75Z"/>
      <path d="M273.75,568.5a24,24,0,0,1,3.88-9.56,14.81,14.81,0,0,1,3.79-3.76,12,12,0,0,1,5.11-1.93,15.32,15.32,0,0,1,5.45.36,10.19,10.19,0,0,1,5,2.73,6,6,0,0,1,1.53,2.73,4.36,4.36,0,0,1-.54,3.37,4.75,4.75,0,0,1-1.22,1.24,5.69,5.69,0,0,1-1.48.7,8.17,8.17,0,0,1-3,.32,12.59,12.59,0,0,1-1.41-.17l-.62-.1a4.85,4.85,0,0,0-.55-.07,7.1,7.1,0,0,0-2.18.11,9.22,9.22,0,0,0-3.94,2,15.92,15.92,0,0,0-3.07,3.61,24.19,24.19,0,0,0-2.24,4.33,33,33,0,0,0-1.42,4.75l-1.15,5c-.73,3.33-1.42,6.67-2.1,10h0a35.51,35.51,0,0,1,3.21-7.55,29.34,29.34,0,0,1,5-6.61,22,22,0,0,1,7-4.7,12.23,12.23,0,0,1,4.29-.94,6.54,6.54,0,0,1,2.36.35,3.4,3.4,0,0,1,1.22.74,2.59,2.59,0,0,1,.74,1.48,2.81,2.81,0,0,1-.26,1.56,4.6,4.6,0,0,1-.71,1.09,11.29,11.29,0,0,1-1.66,1.52c-1.14.87-2.31,1.61-3.48,2.33-2.31,1.45-4.67,2.79-6.72,4.38a16.3,16.3,0,0,0-1.43,1.24c-.42.41-.82,1-1.26,1.47-.84,1-1.67,2.09-2.43,3.19a25.46,25.46,0,0,0-3.8,7.07,12.73,12.73,0,0,1,.82-4.06,26.52,26.52,0,0,1,1.71-3.8,39,39,0,0,1,2.19-3.53,21.21,21.21,0,0,1,1.3-1.71,14,14,0,0,1,1.57-1.51,57.42,57.42,0,0,1,6.92-4.57c1.15-.7,2.29-1.41,3.32-2.18a9.33,9.33,0,0,0,1.36-1.21,1.62,1.62,0,0,0,.53-1,.6.6,0,0,0-.14-.32,1.44,1.44,0,0,0-.51-.31,4.64,4.64,0,0,0-1.64-.28,11,11,0,0,0-3.66.69,21.29,21.29,0,0,0-6.68,4,37.14,37.14,0,0,0-9.17,13.12h0a90,90,0,0,1,.66-10.28c.19-1.71.43-3.41.72-5.11.15-.85.27-1.68.47-2.57a22.85,22.85,0,0,1,.75-2.57,21.24,21.24,0,0,1,5.77-9.06A11,11,0,0,1,287,562a9.6,9.6,0,0,1,2.92-.13,7,7,0,0,1,.72.1l.64.11a10.15,10.15,0,0,0,1.13.15c1.48.13,2.94-.26,3.51-1.13s.32-2.22-.65-3.25a8.15,8.15,0,0,0-3.86-2.22,13.5,13.5,0,0,0-4.7-.55,11.1,11.1,0,0,0-4.49,1.39,14.47,14.47,0,0,0-3.7,3.16A26.77,26.77,0,0,0,273.75,568.5Z"/>
      <path d="M111.7,597a8.89,8.89,0,0,0,1.46-3.43,5.14,5.14,0,0,0-.5-3.29,8.3,8.3,0,0,0-2.17-2.61,7.66,7.66,0,0,0-3-1.48c-2.28-.59-4.89-.36-7.61-.78a10.13,10.13,0,0,1-4-1.45,3.6,3.6,0,0,1-1.53-2.08,3.55,3.55,0,0,1,.38-2.55,7.39,7.39,0,0,1,3.25-2.93,11.63,11.63,0,0,1,4-1.14,13.93,13.93,0,0,1,7.9,1.58,18.89,18.89,0,0,1,6.12,5,22.51,22.51,0,0,1,3.86,6.77h0a9.24,9.24,0,0,0,.32-7.27,12.72,12.72,0,0,0-4.66-5.32,20.14,20.14,0,0,0-6.9-2.68,47.61,47.61,0,0,0-7.82-.85h0a12.05,12.05,0,0,1,3.74-4,10.74,10.74,0,0,1,5.34-1.88,13.57,13.57,0,0,1,5.52.77,8,8,0,0,1,4.28,3.42,13.64,13.64,0,0,0-4.75-1.85,22.52,22.52,0,0,0-5-.36,12.84,12.84,0,0,0-4.69,1.2,27.18,27.18,0,0,0-4.47,2.65h0a19.93,19.93,0,0,1,8.08-1.12,16.47,16.47,0,0,1,8.05,2.49,13.31,13.31,0,0,1,3.2,2.94,10.4,10.4,0,0,1,2,3.93,8.08,8.08,0,0,1-2.25,7.89h0A22.06,22.06,0,0,0,109.27,578a13,13,0,0,0-7.17-1.09A10,10,0,0,0,98.71,578a5.64,5.64,0,0,0-2.4,2.22,1.47,1.47,0,0,0,.59,2.12,8.82,8.82,0,0,0,3.24,1.08c2.39.38,5,.1,7.81.76a9.16,9.16,0,0,1,3.84,1.94,8.65,8.65,0,0,1,2.5,3.49,6,6,0,0,1-.05,4.3A6.79,6.79,0,0,1,111.7,597Z"/>
      <g>
        <path class="cls-19" d="M92.5,577s-8.89-6.29-19.81-5-10.94,9.45-19.94,7.45c-5.66-1.26,2.14-11.68,15.26-11.83S92.5,577,92.5,577Z"/>
        <path d="M92.5,577a33.88,33.88,0,0,0-10.85-4,26.1,26.1,0,0,0-11.29.27,16.61,16.61,0,0,0-5,2.34c-1.56,1-2.95,2.38-4.68,3.54a10,10,0,0,1-2.93,1.32,9.92,9.92,0,0,1-3.22.26,12.61,12.61,0,0,1-1.56-.21,4.55,4.55,0,0,1-1.72-.6A2.82,2.82,0,0,1,50,578.17a3.84,3.84,0,0,1,.12-2,8.29,8.29,0,0,1,1.7-2.84,15.26,15.26,0,0,1,2.29-2.12,21.26,21.26,0,0,1,5.36-2.93A25.12,25.12,0,0,1,71.36,567a36.44,36.44,0,0,1,11.34,3.48,49.22,49.22,0,0,1,5.12,2.93A37.68,37.68,0,0,1,92.5,577Zm0,0a51.62,51.62,0,0,0-10.21-5.55,38.24,38.24,0,0,0-11.09-2.82,24.18,24.18,0,0,0-11.08,1.48,19.45,19.45,0,0,0-4.85,2.7,9.47,9.47,0,0,0-3.27,4,1.91,1.91,0,0,0-.09.93.82.82,0,0,0,.39.54,2.67,2.67,0,0,0,1,.33,10.68,10.68,0,0,0,1.34.19,8,8,0,0,0,2.59-.18,8.54,8.54,0,0,0,2.39-1.06c1.54-1,3-2.31,4.73-3.41a17.28,17.28,0,0,1,5.6-2.42,25.57,25.57,0,0,1,11.9.28,32.28,32.28,0,0,1,5.57,2A27.41,27.41,0,0,1,92.5,577Z"/>
      </g>
      <path d="M150.21,596.06a78.88,78.88,0,0,1,8.86,6.93c1.41,1.23,2.77,2.52,4.1,3.84s2.62,2.68,3.87,4.18a61.59,61.59,0,0,1,6.21,9.48,65.86,65.86,0,0,1,4.6,10.28c-2.31-3-4.45-6-6.59-9s-4.28-6-6.55-8.83-4.88-5.48-7.3-8.27S152.51,599,150.21,596.06Z"/>
      <path d="M205.35,626.08a52.27,52.27,0,0,0-2.22-7.83,18.74,18.74,0,0,0-3.93-6.78,36.17,36.17,0,0,0-6.33-4.85A21.33,21.33,0,0,1,189.5,604a6.67,6.67,0,0,1-1.36-2,4.63,4.63,0,0,1-.34-2.54,4.37,4.37,0,0,1,1.15-2.33,5.68,5.68,0,0,1,2.06-1.35,8.3,8.3,0,0,1,4.56-.29,13.11,13.11,0,0,1,7.27,4.6,23.82,23.82,0,0,1,4,7.38,38,38,0,0,1,1.8,8,47.25,47.25,0,0,0-2.72-7.67,25.16,25.16,0,0,0-4.23-6.71,11.89,11.89,0,0,0-6.44-3.78,6.62,6.62,0,0,0-3.5.25,2.86,2.86,0,0,0-1.95,2.16,3.42,3.42,0,0,0,1.14,2.85,20.86,20.86,0,0,0,3,2.44,33.89,33.89,0,0,1,6.42,5.35,14.94,14.94,0,0,1,2.32,3.59,26.93,26.93,0,0,1,1.4,3.94A41.08,41.08,0,0,1,205.35,626.08Z"/>
      <path d="M214.87,628.75q-.79-9-1.19-18.09c-.06-1.52-.18-3-.17-4.55s.08-3.07.23-4.6a27.89,27.89,0,0,1,2.22-9.09,8.18,8.18,0,0,1,1.47-2.1A4.27,4.27,0,0,1,220,589a3.83,3.83,0,0,1,1.51.13,3,3,0,0,1,1.37.87,4.57,4.57,0,0,1,1.06,2.59,17.13,17.13,0,0,1-.27,4.77,44.91,44.91,0,0,1-1,4.48c-.41,1.47-.85,2.92-1.3,4.35-.22.72-.45,1.44-.62,2.13s-.3,1.45-.42,2.18c-.52,3-.79,6-1.14,9-.1-3,0-6,.17-9.09.06-.76.15-1.52.27-2.29s.31-1.51.48-2.25c.35-1.47.72-2.93,1-4.39s.61-2.92.82-4.37a15.5,15.5,0,0,0,.13-4.24,2.91,2.91,0,0,0-.6-1.54,1.41,1.41,0,0,0-1.25-.37c-1,.09-1.86,1.13-2.46,2.36a26.93,26.93,0,0,0-2.12,8.4c-.18,1.47-.3,2.95-.36,4.43s0,3,0,4.5Q215.24,619.69,214.87,628.75Z"/>
      <g>
        <path class="cls-19" d="M80.83,564.86S76.67,552,61.67,543.17c-10.92-6.43-21.8-6.84-28.5.33-7.17,7.67,2,10.4,12.46,6.68a24,24,0,0,1,17.89.65s-10.82.09-11.52,5c-.67,4.67,8.83-1.33,16.78.56C79,558.83,80.83,564.86,80.83,564.86Z"/>
        <path d="M80.83,564.86A40.65,40.65,0,0,0,74,554.33a48.23,48.23,0,0,0-9.34-8.22,43.19,43.19,0,0,0-11-5.46,22.8,22.8,0,0,0-11.85-.76,15.14,15.14,0,0,0-5.28,2.39,15.64,15.64,0,0,0-2.2,1.91,12,12,0,0,0-1.76,2.23,3.38,3.38,0,0,0-.6,2.11,1.91,1.91,0,0,0,1.25,1.31,11.54,11.54,0,0,0,5.52.56,27.76,27.76,0,0,0,5.86-1.29c.46-.16,1-.33,1.53-.48a15.28,15.28,0,0,1,1.61-.42,22.59,22.59,0,0,1,3.29-.47,21.59,21.59,0,0,1,6.55.56,17.43,17.43,0,0,1,5.93,2.54h0a31.77,31.77,0,0,0-5.73,1,15,15,0,0,0-2.66,1,5.54,5.54,0,0,0-2.06,1.7,2.77,2.77,0,0,0-.47,1.13,1.45,1.45,0,0,0,.07,1c.09.16.39.27.81.28a7.64,7.64,0,0,0,1.33-.1c1.86-.3,3.77-.84,5.72-1.18a25.33,25.33,0,0,1,6-.45,13.46,13.46,0,0,1,3,.54c.48.14,1,.26,1.44.42l1.41.53a17.68,17.68,0,0,1,5.14,3.14A10.39,10.39,0,0,1,80.83,564.86Zm0,0a12.43,12.43,0,0,0-3.86-4.2,20.78,20.78,0,0,0-5.05-2.57c-.91-.29-1.81-.59-2.73-.81a13.23,13.23,0,0,0-2.75-.46,23.86,23.86,0,0,0-5.66.37c-1.91.3-3.78.76-5.8,1a7.64,7.64,0,0,1-1.59.05,3,3,0,0,1-.9-.21,1.73,1.73,0,0,1-.84-.71,2.5,2.5,0,0,1-.15-1.85,3.81,3.81,0,0,1,.72-1.52,6.46,6.46,0,0,1,2.54-1.85,13.83,13.83,0,0,1,2.88-.87,25.31,25.31,0,0,1,5.88-.43h0a29.61,29.61,0,0,0-12.22-.73,27.63,27.63,0,0,0-2.93.63,13.11,13.11,0,0,0-1.43.43l-1.47.49A28.16,28.16,0,0,1,39,553.08a19.28,19.28,0,0,1-3.4,0,10.43,10.43,0,0,1-3.51-.86,5.49,5.49,0,0,1-1.7-1.2,4.07,4.07,0,0,1-1-2.07,5.87,5.87,0,0,1,.94-3.89,14.53,14.53,0,0,1,2.15-2.72,16.67,16.67,0,0,1,2.6-2.2,17.66,17.66,0,0,1,6.22-2.66,24.25,24.25,0,0,1,13.06,1.13,42.37,42.37,0,0,1,11.33,6.14,45.89,45.89,0,0,1,9.13,8.95A37.58,37.58,0,0,1,80.83,564.86Z"/>
      </g>
      <path d="M167.67,634.33a9.47,9.47,0,0,0,7.67,4.07,10.58,10.58,0,0,0,2.18-.22c.36-.06.72-.17,1.08-.26a8.72,8.72,0,0,0,1-.33,6.46,6.46,0,0,0,2.73-3,33.4,33.4,0,0,0,2.58-8.76c.55-3.06.93-6.17,1.26-9.31h0A62.16,62.16,0,0,0,190.6,624a22.38,22.38,0,0,0,5.71,6,7.29,7.29,0,0,0,3.42,1.3,7.83,7.83,0,0,0,3.58-.65,24.48,24.48,0,0,0,6.71-4.79l1.29-1.19-.22,1.5h0a38,38,0,0,0,1.56,4.78,12.87,12.87,0,0,0,2.45,4A7.59,7.59,0,0,0,219,637.1a11.4,11.4,0,0,0,5-.19,7.54,7.54,0,0,1-5.13,2.05,7.73,7.73,0,0,1-5.43-2.25,11.34,11.34,0,0,1-2.85-5,15.35,15.35,0,0,1-.62-5.46h0l1.06.3a15.44,15.44,0,0,1-2.71,3.75,13.93,13.93,0,0,1-1.76,1.57,11.37,11.37,0,0,1-2.06,1.28,9.22,9.22,0,0,1-5,1,9.57,9.57,0,0,1-4.66-2,20.69,20.69,0,0,1-5.72-7.25,33.1,33.1,0,0,1-2.92-8.45,48.48,48.48,0,0,1,0,9.48,36,36,0,0,1-.75,4.73,20.4,20.4,0,0,1-1.59,4.62,7.59,7.59,0,0,1-3.56,3.76,8.67,8.67,0,0,1-1.25.39c-.41.09-.81.18-1.23.23a11.13,11.13,0,0,1-2.51.1,9,9,0,0,1-4.66-1.7A8.73,8.73,0,0,1,167.67,634.33Z"/>
      <path d="M164.7,623.25c-1.74-1.68-3.44-3.35-5.19-4.93a39.09,39.09,0,0,0-5.49-4.27,22.74,22.74,0,0,0-3-1.61,14.39,14.39,0,0,0-3.19-1,8.64,8.64,0,0,0-6.57,1.11c1.43-2,4.24-2.92,6.77-2.69a15.56,15.56,0,0,1,7.05,2.56,25.17,25.17,0,0,1,5.52,4.89A30.42,30.42,0,0,1,164.7,623.25Z"/>
      <path d="M245.45,635.58a30.79,30.79,0,0,1,6.87-12.1,24.91,24.91,0,0,1,5.48-4.56,16.76,16.76,0,0,1,6.88-2.35,12.39,12.39,0,0,1,7.25,1.43,9.62,9.62,0,0,1,2.81,2.6,3.67,3.67,0,0,1,.5,1,2,2,0,0,1-.1,1.44,3.08,3.08,0,0,1-1.84,1.37,41.26,41.26,0,0,1-7,1.08,20.73,20.73,0,0,0-6.64,1.56c3.87-2.71,9-2.66,13.06-4.1.46-.18.87-.49.88-.63a.42.42,0,0,0,0-.24,2.08,2.08,0,0,0-.29-.51,7.41,7.41,0,0,0-1.07-1.1,7.18,7.18,0,0,0-1.25-.86,10.69,10.69,0,0,0-6.13-1.08,15.11,15.11,0,0,0-6.12,2,26.14,26.14,0,0,0-5.3,4A40.67,40.67,0,0,0,245.45,635.58Z"/>
      <g>
        <path class="cls-19" d="M275,531a26.77,26.77,0,0,1,13.12-20.5c9.84-5.85,16.88.75,16.38,5.75-.32,3.24-10.12-1.75-19,4C279.69,524,275,531,275,531Z"/>
        <path d="M275,531a26.67,26.67,0,0,1,8.82-18.16,27.71,27.71,0,0,1,4.21-3.11,17,17,0,0,1,4.93-2,11.75,11.75,0,0,1,5.46,0,10,10,0,0,1,4.85,2.76,8.09,8.09,0,0,1,2.32,5.26,6.23,6.23,0,0,1,0,.81,2.14,2.14,0,0,1-.52,1.14,3,3,0,0,1-1.8.85,15.86,15.86,0,0,1-2.77.08,32.19,32.19,0,0,0-9.83.49,17.33,17.33,0,0,0-4.48,1.79,31.51,31.51,0,0,0-4,2.89A58.7,58.7,0,0,0,275,531Zm0,0a41.76,41.76,0,0,1,6.24-8.19,26.68,26.68,0,0,1,4-3.41,17.8,17.8,0,0,1,4.84-2.32,22.42,22.42,0,0,1,5.28-.9,49.22,49.22,0,0,1,5.21.09,14.55,14.55,0,0,0,2.34,0,1.68,1.68,0,0,0,.51-.13s0,.05,0,0,0-.31,0-.46a6,6,0,0,0-1.65-3.92,8.94,8.94,0,0,0-8.51-2.51,21,21,0,0,0-8.68,4.48A26.85,26.85,0,0,0,275,531Z"/>
      </g>
      <path d="M92.87,631.25a20.13,20.13,0,0,0,2.31-7.45,15.07,15.07,0,0,0-1.12-7.37c-.22-.59-.53-1.16-.79-1.75s-.61-1.13-1-1.67a25.68,25.68,0,0,0-2.25-3.13,25.28,25.28,0,0,0-5.95-5.14,16.18,16.18,0,0,1,7.08,4.06,20.38,20.38,0,0,1,4.71,6.85,14.32,14.32,0,0,1-3,15.58Z"/>
      <path d="M269.12,582.75c.43,2.34.74,4.67,1,7s.59,4.62,1,6.88a59.17,59.17,0,0,0,1.57,6.7c.65,2.22,1.37,4.43,2.14,6.69a26.35,26.35,0,0,1-3.61-6.16,29.73,29.73,0,0,1-2.07-6.89,45.63,45.63,0,0,1-.58-7.11A41.24,41.24,0,0,1,269.12,582.75Z"/>
      <path d="M251.12,583.75a31.49,31.49,0,0,1-1.4-7.32,39,39,0,0,1,.09-7.49c.3-2.47.7-4.89,1.24-7.31a49.78,49.78,0,0,1,2.06-7.13c-.08,2.49-.28,4.94-.52,7.38s-.53,4.88-.8,7.29-.42,4.8-.52,7.23S251.15,581.26,251.12,583.75Z"/>
      <g>
        <path class="cls-19" d="M249.75,529s.5-8.25,4.5-12.75c3.17-3.57,8.75-5,10.5-2,1.94,3.32-3.08,2.88-7.5,6S249.75,529,249.75,529Z"/>
        <path d="M249.75,529a26.27,26.27,0,0,1,.64-6.06,18.6,18.6,0,0,1,2.25-5.79,11.7,11.7,0,0,1,4.69-4.36,10,10,0,0,1,3.14-1.05,5.78,5.78,0,0,1,3.54.49,4,4,0,0,1,1.47,1.32,3.66,3.66,0,0,1,.69,1.92,2.27,2.27,0,0,1-.35,1.26,2.87,2.87,0,0,1-.79.8,7.8,7.8,0,0,1-1.54.8c-1,.41-1.92.69-2.82,1.07a19.85,19.85,0,0,0-2.59,1.26,17.08,17.08,0,0,0-2.33,1.71,23.56,23.56,0,0,0-2.15,2A44.07,44.07,0,0,0,249.75,529Zm0,0a27.06,27.06,0,0,1,3.08-5.27,20.45,20.45,0,0,1,4.38-4.42,27.08,27.08,0,0,1,5.53-2.76,6.08,6.08,0,0,0,1.14-.6.93.93,0,0,0,.27-.27.27.27,0,0,0,0-.17,2.24,2.24,0,0,0-.36-.87,2,2,0,0,0-.74-.69,3.88,3.88,0,0,0-2.35-.31,9.13,9.13,0,0,0-2.59.78,11,11,0,0,0-4.26,3.55,20.35,20.35,0,0,0-2.61,5.22A38.48,38.48,0,0,0,249.75,529Z"/>
      </g>
      <path d="M184,566.5a67.29,67.29,0,0,1-6.72-8.83,41.66,41.66,0,0,1-4.83-10.1,24.78,24.78,0,0,1-1-5.6,42.9,42.9,0,0,1-.05-5.64,27.57,27.57,0,0,1,.87-5.65,14,14,0,0,1,1.06-2.78,5.59,5.59,0,0,1,2.23-2.44,3.6,3.6,0,0,1,1.85-.4,4.88,4.88,0,0,1,1.7.49,4.59,4.59,0,0,1,2.25,2.57,14.56,14.56,0,0,1,.4,5.9c-.37,3.73-.91,7.33-1.17,11a40.43,40.43,0,0,0,.66,10.84A75.15,75.15,0,0,0,184,566.5Zm0,0A61.89,61.89,0,0,1,180.3,556a46.77,46.77,0,0,1-1-5.5,36.69,36.69,0,0,1-.22-5.62c.07-3.73.59-7.43.83-11a13.07,13.07,0,0,0-.32-5.06,2.58,2.58,0,0,0-1.3-1.49,1.88,1.88,0,0,0-1.75-.1,3.72,3.72,0,0,0-1.41,1.6,12.11,12.11,0,0,0-.92,2.37,29.54,29.54,0,0,0-.89,5.26,41.13,41.13,0,0,0-.09,5.41,24.18,24.18,0,0,0,.73,5.3,45.33,45.33,0,0,0,4.18,10A82.73,82.73,0,0,0,184,566.5Z"/>
      <path d="M202.62,553.25a56.94,56.94,0,0,1-4.63-9.72,27.67,27.67,0,0,1-1.39-5.29,9.19,9.19,0,0,1,0-2.89,4,4,0,0,1,.58-1.52,3.09,3.09,0,0,1,.59-.67,2.89,2.89,0,0,1,.82-.44,2.15,2.15,0,0,1,1-.1l.51.17a3.34,3.34,0,0,1,.42.27,3.75,3.75,0,0,1,1,1.32,11.73,11.73,0,0,1,.86,2.72,36.58,36.58,0,0,1,.61,5.41A70.24,70.24,0,0,1,202.62,553.25Zm0,0c-.2-3.57-.44-7.13-.8-10.66a45.07,45.07,0,0,0-.83-5.19,11.42,11.42,0,0,0-.79-2.36,2.37,2.37,0,0,0-.59-.81.47.47,0,0,0-.56-.08c-.53.14-.87.73-1,1.47a8.41,8.41,0,0,0,0,2.45,31.59,31.59,0,0,0,1.1,5.11C200.11,546.56,201.32,549.91,202.62,553.25Z"/>
      <path d="M146.62,548a80,80,0,0,0-6.89-5.64c-2.4-1.69-4.88-3.39-7.65-3.79s-5.86-.8-8.85-1.49a12.31,12.31,0,0,1-4.45-1.84,4.42,4.42,0,0,1-1.7-2.28,2.48,2.48,0,0,1,.2-1.8,3.29,3.29,0,0,1,1.11-1.16,9.68,9.68,0,0,1,4.83-1.12,19.74,19.74,0,0,1,4.65.52,20.23,20.23,0,0,1,8.32,4,31.59,31.59,0,0,1,6.09,6.75A47,47,0,0,1,146.62,548Zm0,0a59,59,0,0,0-5.13-7.27,34.36,34.36,0,0,0-6.26-6.1,19.59,19.59,0,0,0-7.78-3.4,19.18,19.18,0,0,0-4.21-.41,8,8,0,0,0-3.78.85,1.36,1.36,0,0,0-.44.42.47.47,0,0,0,0,.37,2.57,2.57,0,0,0,1,1.21,11.1,11.1,0,0,0,3.74,1.57c2.79.76,5.76,1.1,8.71,1.8a12.78,12.78,0,0,1,2.25.71,16.2,16.2,0,0,1,2.06,1.1,34,34,0,0,1,3.63,2.74A59.13,59.13,0,0,1,146.62,548Z"/>
      <g>
        <path class="cls-19" d="M95.64,544.57s-7.4-5.85-12.64-7.07-9.7-.16-11.79-.6.55-7.66,9.29-5.74C88.84,533,95.64,544.57,95.64,544.57Z"/>
        <path d="M95.64,544.57c-2.15-1.36-4.31-2.68-6.55-3.83a24,24,0,0,0-6.88-2.59,31.1,31.1,0,0,0-7.38-.24c-.63,0-1.27.07-1.93.08-.33,0-.67,0-1,0a5.27,5.27,0,0,1-.55-.05l-.29,0a2.22,2.22,0,0,1-.47-.16,2,2,0,0,1-1-1.55,3.45,3.45,0,0,1,.13-1.32,5.63,5.63,0,0,1,1.08-2,7.88,7.88,0,0,1,3.56-2.41,10.42,10.42,0,0,1,4.13-.48,14,14,0,0,1,4,.9,16.25,16.25,0,0,1,3.5,1.93,28.21,28.21,0,0,1,5.58,5.4A37.49,37.49,0,0,1,95.64,544.57Zm0,0a55.5,55.5,0,0,0-4.9-5.77A31.33,31.33,0,0,0,85,534.06a17.47,17.47,0,0,0-3.24-1.58,12.55,12.55,0,0,0-3.46-.66,8.77,8.77,0,0,0-3.37.43,5.91,5.91,0,0,0-2.65,1.82,4.07,4.07,0,0,0-.71,1.31,1.56,1.56,0,0,0-.08.56c0,.15,0,.07-.07,0h0l.18,0a3.48,3.48,0,0,0,.39,0c.28,0,.57,0,.87,0,.6,0,1.23,0,1.87-.05a29.56,29.56,0,0,1,7.77.6,22.46,22.46,0,0,1,7.08,3.28A48.21,48.21,0,0,1,95.64,544.57Z"/>
      </g>
      <g>
        <path class="cls-19" d="M300.49,564.6s4.09-8,9-10.26,10.18,2.86,13.69-1.33c1.37-1.64-4-9-11.43-6.26C303.28,549.83,300.49,564.6,300.49,564.6Z"/>
        <path d="M300.49,564.6a29,29,0,0,1,1.87-3.67,28.36,28.36,0,0,1,2.34-3.43,16.76,16.76,0,0,1,3-3,7.87,7.87,0,0,1,4.15-1.59c3-.22,5.73,1,8.05.79a3.45,3.45,0,0,0,1.52-.49,3.4,3.4,0,0,0,.64-.49,3.89,3.89,0,0,0,.29-.31l.06-.07,0,0h0a1.14,1.14,0,0,0-.06-.49,3.68,3.68,0,0,0-.32-.73,7.47,7.47,0,0,0-1.07-1.42,8.28,8.28,0,0,0-6.57-2.63,10.13,10.13,0,0,0-6.56,3.3,25.2,25.2,0,0,0-4.41,6.58A47.24,47.24,0,0,0,300.49,564.6Zm0,0a37.55,37.55,0,0,1,2-8,23.79,23.79,0,0,1,4.16-7.26,11.5,11.5,0,0,1,7.58-4.12,10.21,10.21,0,0,1,8.16,3.15,8.52,8.52,0,0,1,1.37,1.84,5.62,5.62,0,0,1,.48,1.14,2.91,2.91,0,0,1,.07,1.53,1.9,1.9,0,0,1-.2.48,1.78,1.78,0,0,1-.16.23l-.11.12a5.8,5.8,0,0,1-.42.43,5.34,5.34,0,0,1-1,.74,5.4,5.4,0,0,1-2.34.74,14.41,14.41,0,0,1-4.32-.54,15.84,15.84,0,0,0-3.82-.52c-2.44,0-4.61,1.76-6.48,3.62A40.07,40.07,0,0,0,300.49,564.6Z"/>
      </g>
      <g>
        <path class="cls-19" d="M224.3,529.49s-2.52-10.87-1.93-16.14c.78-7,8-13.87,11.71-10.32s-5.85,8.37-8,15.82A61.28,61.28,0,0,0,224.3,529.49Z"/>
        <path d="M224.3,529.49a74.76,74.76,0,0,1-1.94-7.81,35.37,35.37,0,0,1-.78-8.13,15.23,15.23,0,0,1,3-7.85,13.93,13.93,0,0,1,3-3.06,7.13,7.13,0,0,1,4.3-1.57,4.38,4.38,0,0,1,2.42.83,3.71,3.71,0,0,1,1.52,2.19,4,4,0,0,1-.42,2.55,10.61,10.61,0,0,1-1.18,1.85c-1.73,2.18-3.59,4-5.12,6.14a17.22,17.22,0,0,0-2,3.31,24.53,24.53,0,0,0-1.2,3.71C225.25,524.22,224.76,526.85,224.3,529.49Zm0,0a52,52,0,0,1,.6-8,23.79,23.79,0,0,1,.94-4,18.68,18.68,0,0,1,1.91-3.7c1.49-2.32,3.4-4.3,4.91-6.37.74-1,1.39-2.17,1.21-2.86a1.78,1.78,0,0,0-.76-1,2.39,2.39,0,0,0-1.33-.43,5.24,5.24,0,0,0-3.09,1.15,12.86,12.86,0,0,0-2.63,2.61,14.27,14.27,0,0,0-2.93,6.86,24.79,24.79,0,0,0-.08,3.88c0,1.32.15,2.64.28,4C223.57,524.18,223.94,526.83,224.3,529.49Z"/>
      </g>
      <path d="M165.75,662.5A10.85,10.85,0,0,0,168.7,665a17.17,17.17,0,0,0,3.51,1.64,29.66,29.66,0,0,0,7.57,1.47c1.29,0,2.58.13,3.87.05.65,0,1.29,0,1.93-.05l1.93-.16A31.59,31.59,0,0,0,195,666.5a46.27,46.27,0,0,0,7-3,56.91,56.91,0,0,0,6.5-4.12,68,68,0,0,0,6-4.87,71.83,71.83,0,0,0,5.47-5.44l1.12-1.24.58,1.49h0a34.45,34.45,0,0,0,2.19,3.65,38.62,38.62,0,0,0,2.58,3.46q1.39,1.66,2.9,3.2a18.25,18.25,0,0,0,3.21,2.71,30.13,30.13,0,0,0,7.9,3.39,60.78,60.78,0,0,0,8.67,1.75,39.39,39.39,0,0,1-9-.51,26.64,26.64,0,0,1-8.67-2.89,18.67,18.67,0,0,1-3.73-2.83,39.33,39.33,0,0,1-3.13-3.33,30.69,30.69,0,0,1-4.82-7.83h0l1.7.25a61.84,61.84,0,0,1-11.65,10.94,47.4,47.4,0,0,1-14.33,7.17,33.33,33.33,0,0,1-8,1.23,44.58,44.58,0,0,1-8-.27,29.48,29.48,0,0,1-7.71-2.05,17.71,17.71,0,0,1-3.45-2A10.24,10.24,0,0,1,165.75,662.5Z"/>
      <path d="M236.87,641a19.58,19.58,0,0,0,8.63,7.73,27.48,27.48,0,0,0,5.46,1.87c.94.21,1.9.38,2.84.52l1.4.1.7.05.7,0,1.4-.06c.47-.05.93-.14,1.39-.21a24.09,24.09,0,0,0,2.75-.63,28.75,28.75,0,0,0,5.24-2.25,37.78,37.78,0,0,0,4.84-3.17,41.28,41.28,0,0,0,4.37-3.81l.87-.87.65.86h0c.51.51,1.1,1.09,1.7,1.59s1.2,1,1.84,1.51a31.12,31.12,0,0,0,4,2.62,20,20,0,0,0,4.39,1.83,15.27,15.27,0,0,0,2.37.48,12.28,12.28,0,0,0,2.45.11,11.86,11.86,0,0,1-5,.45,16.36,16.36,0,0,1-4.94-1.35,26,26,0,0,1-4.45-2.51,20.6,20.6,0,0,1-3.86-3.44h1.52a33.66,33.66,0,0,1-9.45,8,27.31,27.31,0,0,1-5.78,2.48,21,21,0,0,1-3.11.65c-.53.06-1.05.15-1.58.19l-1.6,0h-.8c-.27,0-.53-.06-.8-.09l-1.59-.21c-1-.2-2-.44-3-.72a26.32,26.32,0,0,1-5.71-2.49A17.61,17.61,0,0,1,236.87,641Z"/>
      <path d="M75.37,637.5A14.18,14.18,0,0,0,82,641.1a21.39,21.39,0,0,0,3.7.54c.62,0,1.25,0,1.88.05s1.22,0,1.83-.16a19.52,19.52,0,0,0,7-2.46,35,35,0,0,0,6.24-4.57,18.93,18.93,0,0,1-5.4,5.88,16.88,16.88,0,0,1-7.56,3.12,17.64,17.64,0,0,1-8.14-.93A11.12,11.12,0,0,1,75.37,637.5Z"/>
      <path d="M213.65,381.7c2.85-1.68,5.63-3.21,8.52-4.65s5.75-2.85,8.71-4.1a115.35,115.35,0,0,1,18.22-6.18,109.13,109.13,0,0,1,19-2.91,93.51,93.51,0,0,1,9.68-.14c1.62.06,3.24.15,4.87.31s3.21.36,5,.71l-1.12,3.84a32.45,32.45,0,0,0-4.36-1.13c-1.51-.29-3-.56-4.59-.71a66.71,66.71,0,0,0-9.35-.39c-1.56,0-3.13.15-4.69.25s-3.12.3-4.67.55l-2.33.35c-.77.13-1.54.3-2.31.45-1.54.28-3.07.66-4.59,1a78,78,0,0,0-9,2.79c-3,1.05-5.81,2.37-8.65,3.71A104,104,0,0,0,215.9,385Z"/>
      <path d="M222.76,366.74a6.13,6.13,0,0,0,.81.43c.32.15.66.29,1,.42.7.25,1.41.49,2.15.69a38.49,38.49,0,0,0,4.52.95c1.53.25,3.09.4,4.65.53s3.13.18,4.71.22l0,1.36c-1.6.1-3.19.17-4.8.19s-3.22,0-4.83-.14a40.86,40.86,0,0,1-4.86-.59c-.81-.14-1.62-.34-2.44-.56-.41-.12-.82-.24-1.23-.4a8.48,8.48,0,0,1-1.33-.59Z"/>
      <path d="M194,426.67c5.41,5.74,10.86,11.2,16.63,16.28a105,105,0,0,0,9.09,7l2.39,1.57c.8.53,1.63,1,2.44,1.48,1.61,1,3.31,1.9,5,2.77A128.71,128.71,0,0,0,251,464.12c3.72,1.1,7.46,2,11.29,3.13,1,.28,1.93.57,2.94.95a12.5,12.5,0,0,1,1.61.72,5.25,5.25,0,0,1,1,.7,3,3,0,0,1,.3.31l.16.2c.07.1.13.19.19.3a2.85,2.85,0,0,1,.35,1.32,3.47,3.47,0,0,1-.49,1.76,5.89,5.89,0,0,1-.69.94,10,10,0,0,1-1.37,1.25,20.65,20.65,0,0,1-2.76,1.76,49.69,49.69,0,0,1-11.51,4.2,82.91,82.91,0,0,1-11.89,2,100.26,100.26,0,0,1-24-.63,86.79,86.79,0,0,1-23.07-6.6,62.77,62.77,0,0,1-10.4-6,42.07,42.07,0,0,1-8.75-8.12,119,119,0,0,0,20.86,10,101.35,101.35,0,0,0,22.09,5.6,112.81,112.81,0,0,0,22.83,1A75.76,75.76,0,0,0,251,477.29a45.56,45.56,0,0,0,10.54-3.59,16.6,16.6,0,0,0,2.21-1.34,6.09,6.09,0,0,0,.81-.7,2.46,2.46,0,0,0,.19-.23.9.9,0,0,0-.05.37,1.36,1.36,0,0,0,.17.62l.09.14,0,.05,0,0a1.86,1.86,0,0,0-.2-.13,8.71,8.71,0,0,0-1.06-.47c-.82-.31-1.72-.59-2.64-.85-3.68-1.06-7.52-2-11.3-3.16a122.24,122.24,0,0,1-22.19-8.6c-1.77-.92-3.53-1.87-5.23-2.94s-3.37-2.17-5-3.31a92.7,92.7,0,0,1-9.19-7.64,78.11,78.11,0,0,1-8-8.82A54.29,54.29,0,0,1,194,426.67Z"/>
      <path d="M222,428.33c1.06-.27,1.88-.4,2.8-.55s1.78-.25,2.66-.35c1.77-.19,3.53-.31,5.29-.39,3.51-.15,7-.12,10.49,0,7.11.15,14.05,1.89,20.64,3.25.82.16,1.64.31,2.42.42a8.77,8.77,0,0,0,2,.11h.08s0,0-.07,0-.11.09-.26.22a1.45,1.45,0,0,0-.22.42,1.05,1.05,0,0,0,0,.3v0l0-.08a1.79,1.79,0,0,0-.09-.37,7.17,7.17,0,0,0-.39-1,9.92,9.92,0,0,0-.52-1,33.61,33.61,0,0,0-6-7.6,49.76,49.76,0,0,0-16.89-10.36l1-2.82A53,53,0,0,1,263,419.24a37,37,0,0,1,6.9,8.33,13.18,13.18,0,0,1,.67,1.26,10.74,10.74,0,0,1,.59,1.4,5.36,5.36,0,0,1,.23.87l0,.24,0,.12s0,.14,0,.21a2.64,2.64,0,0,1-.1.94,2.42,2.42,0,0,1-.52,1,2.74,2.74,0,0,1-.75.62,4.17,4.17,0,0,1-.67.29c-.2.06-.36.09-.55.13a11.38,11.38,0,0,1-3.14,0c-.92-.11-1.79-.25-2.66-.4-6.86-1.26-13.39-2.74-20.06-2.73-3.38-.07-6.76,0-10.1.2-1.67.11-3.34.27-5,.48-.82.11-1.64.23-2.44.37s-1.65.32-2.25.48Z"/>
      <path d="M279.31,609.84a35.09,35.09,0,0,1,2.06-8,33.79,33.79,0,0,1,3.87-7.38,23.53,23.53,0,0,1,6-6,45.91,45.91,0,0,1,7.3-4,30.24,30.24,0,0,1,8.08-2.33,22.46,22.46,0,0,1,8.43.35A21.44,21.44,0,0,1,328.17,592h0a31.21,31.21,0,0,0-9.74.09,30.59,30.59,0,0,0-9,3,24.72,24.72,0,0,0-4,2.47,21.08,21.08,0,0,0-3.29,3.25,33.17,33.17,0,0,0-4.79,8.09l-1.71-.95h0a41.42,41.42,0,0,1,10.06-7.43,25.28,25.28,0,0,1,12-3.13,18.72,18.72,0,0,1,11.62,4.34,16.2,16.2,0,0,1,4,4.88,7.45,7.45,0,0,1,.9,3.23,4.25,4.25,0,0,1-.11.92,5.58,5.58,0,0,1-.32.86,9.6,9.6,0,0,1-.8,1.47,3.94,3.94,0,0,1-1.44,1.33,3.11,3.11,0,0,1-2.18.18,14.42,14.42,0,0,1-3-1.41c-.89-.48-1.75-.94-2.61-1.35a19.78,19.78,0,0,0-2.64-1,19.19,19.19,0,0,0-11.2.53,20.67,20.67,0,0,0-9,7A43.18,43.18,0,0,0,295,628.87l-.47-.3h0a38.69,38.69,0,0,1,6.69-5.17,20.08,20.08,0,0,1,8.11-3.08,10.62,10.62,0,0,1,8.51,2.94,11.13,11.13,0,0,1,2.62,3.83,8.67,8.67,0,0,1,.62,4.79,5.18,5.18,0,0,1-1.19,2.5,3.37,3.37,0,0,1-1.4.91,4,4,0,0,1-1.55.17,7.75,7.75,0,0,1-2.41-.67c-.7-.3-1.34-.64-2-1-1.25-.67-2.43-1.35-3.62-1.87a7.36,7.36,0,0,0-3.34-.79,3.42,3.42,0,0,0-2.47,1.68,13.74,13.74,0,0,0-1.84,3.37,7.74,7.74,0,0,0,1,7.46,6.82,6.82,0,0,1-2.59-3.44,8.43,8.43,0,0,1-.24-4.5,13,13,0,0,1,1.69-4.16,6.86,6.86,0,0,1,1.59-1.92,5.15,5.15,0,0,1,2.51-1.05,8.82,8.82,0,0,1,4.73.93c1.36.61,2.59,1.32,3.8,2a10.85,10.85,0,0,0,3.35,1.36c.46,0,.62,0,.84-.24a2.67,2.67,0,0,0,.58-1.22,6.22,6.22,0,0,0-.41-3.38,9.27,9.27,0,0,0-2-3.07,8.53,8.53,0,0,0-6.7-2.57,20.45,20.45,0,0,0-7.55,2.34,49.88,49.88,0,0,0-7,4.32h0l-.71.71.24-1a35.2,35.2,0,0,1,2-5.87,33.8,33.8,0,0,1,3-5.5,25.86,25.86,0,0,1,4.13-4.84,18.29,18.29,0,0,1,5.5-3.48,22.09,22.09,0,0,1,3.11-1,22.75,22.75,0,0,1,3.2-.51,17.68,17.68,0,0,1,6.56.59,18.51,18.51,0,0,1,5.76,3,13.56,13.56,0,0,0,2.34,1.48,1.17,1.17,0,0,0,.82.08,2.14,2.14,0,0,0,.86-.64,8,8,0,0,0,.81-1.13,2.61,2.61,0,0,0,.27-.55,2.84,2.84,0,0,0,.12-.59,5.36,5.36,0,0,0-.61-2.65,13.59,13.59,0,0,0-3.68-4.53,17.58,17.58,0,0,0-10.9-4.09,23.55,23.55,0,0,0-11.36,3.23,36,36,0,0,0-9.23,7.52h0l-3.09,4.17,1.38-5.11a25.2,25.2,0,0,1,4.62-9.21,20.89,20.89,0,0,1,3.75-3.68A18.07,18.07,0,0,1,306,594a22.6,22.6,0,0,1,2.31-1.15,27.53,27.53,0,0,1,9.93-2.34,24.48,24.48,0,0,1,9.9,1.5h0a22.69,22.69,0,0,0-13.48-8c-5.19-.94-10.52.25-15.31,2.41a53.85,53.85,0,0,0-7,3.88,25,25,0,0,0-5.65,5.35A50.43,50.43,0,0,0,279.31,609.84Z"/>
      <path d="M317.5,570a21.1,21.1,0,0,1,14.39-7.06,14.08,14.08,0,0,1,8.22,1.89,9.6,9.6,0,0,1,4.45,7.37,8.21,8.21,0,0,1-.12,2.26,7.25,7.25,0,0,1-.3,1.12,4.59,4.59,0,0,1-.56,1.15,2.3,2.3,0,0,1-1.4.95,2.82,2.82,0,0,1-1.5-.15,8.74,8.74,0,0,1-2-1.1,46.92,46.92,0,0,0-6.45-4.54,8.09,8.09,0,0,0-3.56-.95,22.5,22.5,0,0,0-3.91.08,34,34,0,0,0-7.77,1.75,26.66,26.66,0,0,1,7.61-2.76,23.7,23.7,0,0,1,4.1-.43,9.57,9.57,0,0,1,4.2.86c2.62,1.13,4.73,3,6.86,4.42a7.08,7.08,0,0,0,1.52.85,1,1,0,0,0,.47.07c.06,0,.1,0,.2-.18a2.87,2.87,0,0,0,.3-.66,5.28,5.28,0,0,0,.21-.82,7.24,7.24,0,0,0,.09-1.75,7.77,7.77,0,0,0-3.49-5.95,13.05,13.05,0,0,0-7.16-1.9A23.17,23.17,0,0,0,317.5,570Z"/>
      <path d="M192,501.33a64.45,64.45,0,0,0,.78,9.75,23.42,23.42,0,0,0,1.24,4.56,8.9,8.9,0,0,0,2.45,3.64,5.12,5.12,0,0,0,.85.6,2.41,2.41,0,0,0,.78.32c.11,0,.1,0,.1,0s0,0,0,0a2.31,2.31,0,0,0,.17-.75,19,19,0,0,0-.58-4.61c-.7-3.16-1.61-6.33-2.45-9.53a49.72,49.72,0,0,1,4,9.13,23,23,0,0,1,.65,2.45,11.81,11.81,0,0,1,.3,2.66,3.59,3.59,0,0,1-.39,1.63,2,2,0,0,1-.89.81,2.06,2.06,0,0,1-1.1.14,4.12,4.12,0,0,1-1.52-.54,6.82,6.82,0,0,1-1.17-.8,10.51,10.51,0,0,1-2.93-4.51,20.64,20.64,0,0,1-1-5A32,32,0,0,1,192,501.33Z"/>
      <path d="M88.12,435.83c-.74,3.14-1.4,6.26-1.9,9.38a46.32,46.32,0,0,0-.49,4.67,18.53,18.53,0,0,0,.22,4.54,5.44,5.44,0,0,0,.24,1.07,6.87,6.87,0,0,0,.33,1,4.55,4.55,0,0,0,.45.84,1.6,1.6,0,0,0,.17.17s-.07,0-.12,0a1.11,1.11,0,0,0,.35-.35,5.52,5.52,0,0,0,.51-.9,19.07,19.07,0,0,0,.8-2.13,35.92,35.92,0,0,0,1.06-4.58,23.64,23.64,0,0,0,.4-4.75,16,16,0,0,1,.58,4.83,25.72,25.72,0,0,1-.52,4.89,14,14,0,0,1-.7,2.43,7.27,7.27,0,0,1-.61,1.23,2.53,2.53,0,0,1-1.44,1.17,1.74,1.74,0,0,1-1.27-.21,2.82,2.82,0,0,1-.72-.64,6.26,6.26,0,0,1-.72-1.25,8.73,8.73,0,0,1-.44-1.25,6.74,6.74,0,0,1-.31-1.27,24.81,24.81,0,0,1,.72-9.88A41.08,41.08,0,0,1,88.12,435.83Z"/>
      <g>
        <path class="cls-19" d="M59.69,459.63S51.47,474,56.49,478.27,59.69,459.63,59.69,459.63Z"/>
        <path d="M59.69,459.63a72.57,72.57,0,0,0-3.29,9.68,18.21,18.21,0,0,0-.59,4.84,6.27,6.27,0,0,0,.44,2.16,3.65,3.65,0,0,0,.52.85c.11.12.23.22.34.34s.24.18.34.23l.12.05s0,0,0,0,0,0,0,0,0,0,0,0,.11-.12.19-.19a4,4,0,0,0,.22-.42,11,11,0,0,0,.61-2.25,48.73,48.73,0,0,0,.55-5C59.43,466.52,59.52,463.08,59.69,459.63Zm0,0A61,61,0,0,1,60.77,470a35.68,35.68,0,0,1-.24,5.27,11.35,11.35,0,0,1-.69,2.73,5.74,5.74,0,0,1-.37.72,2.81,2.81,0,0,1-.7.73,1.43,1.43,0,0,1-.54.27,1.53,1.53,0,0,1-.63.1,2.37,2.37,0,0,1-1.07-.28,5.42,5.42,0,0,1-.72-.5c-.19-.19-.39-.37-.56-.58a5.6,5.6,0,0,1-.8-1.35,7.65,7.65,0,0,1-.53-2.88,17.22,17.22,0,0,1,1-5.32A35.26,35.26,0,0,1,59.69,459.63Z"/>
      </g>
      <path d="M104.28,491.33a95.88,95.88,0,0,0-.67,12.11,28.84,28.84,0,0,0,.67,5.85c.43,1.85,1.21,3.66,2.58,4.56a1.65,1.65,0,0,0,.66.31s0,0,0,0a1.51,1.51,0,0,0,.19-.39,9.59,9.59,0,0,0,.3-2.7,53,53,0,0,0-.42-6c-.48-4-1.12-8-1.69-12.07a79.44,79.44,0,0,1,3.24,11.83A41.46,41.46,0,0,1,110,511a10.5,10.5,0,0,1-.34,3.34,3.4,3.4,0,0,1-.49,1,2,2,0,0,1-1.2.78,2.33,2.33,0,0,1-1.29-.13,4.18,4.18,0,0,1-.88-.46,7.06,7.06,0,0,1-2.26-2.69,12.13,12.13,0,0,1-1-3.12,26,26,0,0,1-.39-6.28A47.9,47.9,0,0,1,104.28,491.33Z"/>
      <path d="M114.78,481.83a46.86,46.86,0,0,0-.78,8.85,27.67,27.67,0,0,0,.34,4.31,6.53,6.53,0,0,0,1.4,3.5,1.16,1.16,0,0,0,.87.38s.17-.14.26-.39a4.42,4.42,0,0,0,.23-.86,20,20,0,0,0,.07-4.26c-.22-2.93-.59-5.9-1.06-8.88a34.8,34.8,0,0,1,2.61,8.7,17.66,17.66,0,0,1,.25,4.71,5.21,5.21,0,0,1-.31,1.31,2.57,2.57,0,0,1-1.07,1.36,2.35,2.35,0,0,1-1.86.17,3.35,3.35,0,0,1-1.36-.78,5.73,5.73,0,0,1-1.38-2.32,11.8,11.8,0,0,1-.53-2.37,22.42,22.42,0,0,1,0-4.65A25,25,0,0,1,114.78,481.83Z"/>
      <path d="M175.28,482.67c0,2,0,3.95.05,5.84a17,17,0,0,0,.34,2.74,3.56,3.56,0,0,0,1,2,1.42,1.42,0,0,0,.34.19l.18,0s-.1.1-.05,0a1.25,1.25,0,0,0,.13-.37,10.09,10.09,0,0,0,0-2.64c-.17-1.89-.47-3.83-.66-5.82a21.31,21.31,0,0,1,2.21,5.57,9.2,9.2,0,0,1,.29,3.21,2.82,2.82,0,0,1-.33,1,1.85,1.85,0,0,1-1.17.91,2.29,2.29,0,0,1-1.26-.09,3.32,3.32,0,0,1-.95-.5,4.92,4.92,0,0,1-1.59-3.19,13,13,0,0,1,0-3.12A19.22,19.22,0,0,1,175.28,482.67Z"/>
      <path d="M194.12,364a17.09,17.09,0,0,0-4.6,6.33,6.72,6.72,0,0,0-.44,1.61,10.46,10.46,0,0,0-.07,1.82c0,1.3.23,2.69.36,4.24a8.27,8.27,0,0,1-2.68-3.76,7.4,7.4,0,0,1-.46-2.44,6.81,6.81,0,0,1,.5-2.56,8.55,8.55,0,0,1,3-3.84A7.2,7.2,0,0,1,194.12,364Z"/>
      <g>
        <circle class="cls-26" cx="114.5" cy="198" r="54.99" transform="translate(-80.05 77.74) rotate(-28.24)"/>
        <path class="cls-27" d="M164.18,171.32a56.41,56.41,0,1,1-14.09-16.86A56.75,56.75,0,0,1,164.18,171.32Zm-2.46,1.32A53.65,53.65,0,0,0,130,146.41a53.24,53.24,0,0,0-20.93-2,53.44,53.44,0,1,0,30.46,100.31,54.43,54.43,0,0,0,16-13.08,53.4,53.4,0,0,0,6.12-58.95Z"/>
      </g>
      <g>
        <circle class="cls-28" cx="230.5" cy="80.52" r="52.5" transform="matrix(0.8, -0.59, 0.59, 0.8, -2.79, 152.56)"/>
        <path class="cls-27" d="M273.87,48.53a53.92,53.92,0,1,1-15.63-14A54.25,54.25,0,0,1,273.87,48.53Zm-2.25,1.66a51.16,51.16,0,0,0-33.45-20.48,50.74,50.74,0,0,0-20,.91,51,51,0,1,0,42.34,90.54,51.93,51.93,0,0,0,13.35-14.51,50.91,50.91,0,0,0-2.2-56.46Z"/>
      </g>
      <g>
        <circle class="cls-29" cx="320.86" cy="243.8" r="52.99" transform="translate(-82.04 251.97) rotate(-38.39)"/>
        <path class="cls-30" d="M363.51,210a54.44,54.44,0,1,1-16.26-13.61A54.78,54.78,0,0,1,363.51,210Zm-2.24,1.77a51.62,51.62,0,0,0-34.45-19.49,51.19,51.19,0,0,0-20.18,1.61,51.41,51.41,0,1,0,45.84,89.83,52.4,52.4,0,0,0,13-15.1,51.37,51.37,0,0,0-4.18-56.85Z"/>
      </g>
      <g class="cls-23">
        <circle class="cls-31" cx="114.5" cy="198" r="54.99" transform="translate(-80.05 77.74) rotate(-28.24)"/>
        <path class="cls-30" d="M164.2,171.31a56.43,56.43,0,1,1-14.1-16.86A56.78,56.78,0,0,1,164.2,171.31Zm-2.52,1.35A53.62,53.62,0,0,0,130,146.43a53.2,53.2,0,0,0-20.92-2,53.41,53.41,0,1,0,30.43,100.25,54.41,54.41,0,0,0,16-13.07,53.36,53.36,0,0,0,6.12-58.91Z"/>
      </g>
      <g class="cls-23">
        <circle class="cls-32" cx="230.5" cy="80.52" r="52.5" transform="matrix(0.8, -0.59, 0.59, 0.8, -2.79, 152.56)"/>
        <path class="cls-30" d="M273.9,48.51a53.94,53.94,0,1,1-15.64-14A54.28,54.28,0,0,1,273.9,48.51Zm-2.3,1.7a51.13,51.13,0,0,0-33.43-20.48,50.7,50.7,0,0,0-20,.91,50.92,50.92,0,1,0,42.31,90.49,51.91,51.91,0,0,0,13.34-14.5,50.87,50.87,0,0,0-2.19-56.42Z"/>
      </g>
      <g class="cls-23">
        <circle class="cls-33" cx="320.86" cy="243.8" r="52.99" transform="translate(-82.04 251.97) rotate(-38.39)"/>
        <path class="cls-30" d="M363.51,210a54.44,54.44,0,1,1-16.26-13.61A54.78,54.78,0,0,1,363.51,210Zm-2.24,1.77a51.62,51.62,0,0,0-34.45-19.49,51.19,51.19,0,0,0-20.18,1.61,51.41,51.41,0,1,0,45.84,89.83,52.4,52.4,0,0,0,13-15.1,51.37,51.37,0,0,0-4.18-56.85Z"/>
      </g>
      <g class="cls-21">
        <g>
          <g class="cls-34">
            <path class="cls-35" d="M272.62,48.95c19.05,23.18,12.61,51.85-11.3,70.62-23.16,19-51.89,12.52-70.67-11.36-19-23.14-12.48-51.8,11.41-70.61C225.21,18.53,253.82,25,272.62,48.95Z"/>
            <path class="cls-30" d="M273.65,48.24a56.53,56.53,0,0,1,9.9,18.29,41.77,41.77,0,0,1,1.3,19.55c-2.2,13-11,25.93-22.5,35a56.34,56.34,0,0,1-18.51,9.86,41.92,41.92,0,0,1-19.68,1,51.57,51.57,0,0,1-18.94-8,69,69,0,0,1-15.83-14.84,55.79,55.79,0,0,1-9.63-18.44,41.54,41.54,0,0,1-.92-19.5,51.64,51.64,0,0,1,8-18.72,68.36,68.36,0,0,1,14.66-15.69c11.36-8.87,24.75-13.13,37.6-10.73a50.84,50.84,0,0,1,18.72,7.7A68.34,68.34,0,0,1,273.65,48.24Zm-2.06,1.42a63.56,63.56,0,0,0-14.87-14,48.35,48.35,0,0,0-17.91-7.54,39.88,39.88,0,0,0-18.68,1,52.94,52.94,0,0,0-17.47,9.28,63.77,63.77,0,0,0-13.82,15.07,48.09,48.09,0,0,0-7.27,18A40.4,40.4,0,0,0,182.73,90a52.6,52.6,0,0,0,9.21,17.28c8.43,10.62,20.44,18.71,32.68,20.82s25-1.78,35.68-10.06A63.57,63.57,0,0,0,274,103.38a48.45,48.45,0,0,0,7.43-17.71,40.36,40.36,0,0,0-.88-18.53A52.67,52.67,0,0,0,271.59,49.66Z"/>
          </g>
          <path class="cls-36" d="M229.8,110.31c-4.17-23.14-8.7-46.29-12.12-69.18,5.28,1.82,10.63,3.75,16,5.75,4.16,23.14,8.7,46.29,12.15,69.19C240.57,114.25,235.21,112.31,229.8,110.31Z"/>
          <path class="cls-37" d="M229.8,110.31c4.36-3.79,8.81-7.62,13.29-11.46q1.46,8.63,2.77,17.22c-5.29-1.83-10.65-3.76-16.06-5.76Z"/>
          <path class="cls-38" d="M226.63,93q1.6,8.67,3.17,17.35c4.36-3.79,8.81-7.62,13.29-11.46C237.64,96.94,232.15,95,226.63,93Z"/>
          <path class="cls-39" d="M223.47,75.63Q225,84.29,226.63,93c4.45-3.78,8.94-7.6,13.42-11.39l-16.59-5.94Z"/>
          <path class="cls-40" d="M223.47,75.63c4.49-3.8,9-7.61,13.42-11.39q1.6,8.67,3.17,17.33l-16.59-5.94Z"/>
          <path class="cls-41" d="M220.44,58.35q1.46,8.63,3,17.28c4.49-3.8,9-7.61,13.42-11.39-5.51-2-11-4-16.45-5.89Z"/>
          <path class="cls-42" d="M220.44,58.35c4.48-3.84,8.92-7.68,13.28-11.46q1.56,8.68,3.17,17.35c-5.51-2-11-4-16.45-5.89Z"/>
          <path class="cls-23" d="M217.68,41.13q1.29,8.59,2.75,17.21c4.48-3.84,8.92-7.68,13.28-11.46-5.4-2-10.75-3.93-16-5.75Z"/>
          <g>
            <path class="cls-43" d="M196.89,97.84c-2.46-11.29-4.65-22.45-6.38-33.47,4.57-3.78,9.15-7.64,13.7-11.53,2.46,16.9,5.75,34,9.25,51.32l-16.56-6.32Z"/>
            <path class="cls-37" d="M196.89,97.84c4.32-3.54,8.72-7.19,13.16-10.91q1.64,8.59,3.4,17.22l-16.56-6.32Z"/>
            <path class="cls-38" d="M193.42,81q1.61,8.37,3.46,16.84c4.32-3.54,8.72-7.19,13.16-10.91C204.51,84.93,199,82.94,193.42,81Z"/>
            <path class="cls-39" d="M190.51,64.37q1.3,8.26,2.92,16.64c4.47-3.65,9-7.39,13.5-11.18-5.5-1.89-11-3.72-16.41-5.45Z"/>
            <path class="cls-40" d="M190.51,64.37c4.57-3.78,9.15-7.64,13.7-11.53q1.23,8.45,2.72,17c-5.5-1.89-11-3.72-16.41-5.45Z"/>
          </g>
          <g>
            <path class="cls-44" d="M206.92,69.82q-1.47-8.52-2.72-17c4.54-3.89,9-7.81,13.48-11.71q1.29,8.59,2.75,17.22C216,62.19,211.44,66,206.92,69.82Z"/>
            <path class="cls-40" d="M220.44,58.35q-1.46-8.63-2.75-17.21C213.25,45,208.75,49,204.2,52.84c5.36,1.74,10.78,3.59,16.23,5.51Z"/>
          </g>
          <g>
            <path class="cls-45" d="M245.86,116.07q-1.29-8.59-2.77-17.22c4.48-3.84,9-7.67,13.52-11.46q1.48,8.53,2.74,17c-4.54,3.88-9.05,7.8-13.48,11.7Z"/>
            <path class="cls-40" d="M259.34,104.37c-4.54,3.88-9.05,7.8-13.48,11.7q-1.29-8.59-2.77-17.22c5.46,1.92,10.88,3.77,16.25,5.52Z"/>
          </g>
          <g>
            <path class="cls-46" d="M259.34,104.37c-2.49-16.9-5.79-34.05-9.3-51.32l16.56,6.34c2.48,11.29,4.68,22.46,6.43,33.48-4.57,3.77-9.15,7.62-13.69,11.51Z"/>
            <path class="cls-37" d="M256.61,87.39q1.48,8.53,2.74,17c4.54-3.88,9.12-7.74,13.69-11.51C267.59,91.13,262.11,89.29,256.61,87.39Z"/>
            <path class="cls-38" d="M256.61,87.39c4.51-3.79,9-7.53,13.48-11.17q1.62,8.37,2.95,16.64C267.59,91.13,262.11,89.29,256.61,87.39Z"/>
            <path class="cls-39" d="M253.46,70.28c4.44-3.71,8.83-7.36,13.14-10.89q1.86,8.47,3.49,16.84c-5.54-1.94-11.09-3.94-16.63-5.95Z"/>
            <path class="cls-40" d="M250,53q1.75,8.64,3.41,17.23c4.44-3.71,8.83-7.36,13.14-10.89Z"/>
          </g>
        </g>
      </g>
      <g id="g10" class="cls-47">
        <g>
          <g class="cls-34">
            <path class="cls-48" d="M165.06,167.5c16.84,26.61,7.28,61.9-18.76,77.46-25.62,15.69-57.62,2.92-74.23-21.88-16.61-24.51-7.2-53.2,18.69-71.07C116.29,134.23,148.27,140.39,165.06,167.5Z"/>
            <path class="cls-30" d="M166.22,166.75A58.59,58.59,0,0,1,174.33,188a56.53,56.53,0,0,1-.85,22.77c-3.61,14.91-13.52,28.41-26.21,36a49.41,49.41,0,0,1-20.42,6.87A51.58,51.58,0,0,1,105.41,251a66.33,66.33,0,0,1-19.7-10.8,69.44,69.44,0,0,1-15.07-16.43,51.64,51.64,0,0,1-7.73-19.18,43.7,43.7,0,0,1,1.19-19.79,56.56,56.56,0,0,1,9.79-18.59,70.71,70.71,0,0,1,16.33-15.14,62.06,62.06,0,0,1,20.09-8.88,49.67,49.67,0,0,1,21.1-.45A50.66,50.66,0,0,1,151,150.39,58.31,58.31,0,0,1,166.22,166.75Zm-2.32,1.51a55.34,55.34,0,0,0-14.3-15.78,48.06,48.06,0,0,0-18.68-8.5,46.8,46.8,0,0,0-20.33.33,58.87,58.87,0,0,0-19.26,8.61,66.54,66.54,0,0,0-15.48,14.58,52.49,52.49,0,0,0-9,17.87,42.18,42.18,0,0,0-.81,18.9,49.35,49.35,0,0,0,7.51,18.09,64.18,64.18,0,0,0,32.75,25,47.23,47.23,0,0,0,39.07-4.21,54.37,54.37,0,0,0,15.48-14,55.68,55.68,0,0,0,9.29-19.25,53.61,53.61,0,0,0,1.13-21.42A55.46,55.46,0,0,0,163.9,168.26Z"/>
          </g>
          <g id="g12">
            <path id="path14" class="cls-49" d="M101.29,162.9c-9.8,9.67-19.75,19-29.61,27.77C80.28,203.84,89.23,217.85,98,232.4q18.16,2.53,36.25,4.67c7.46-9.84,15-19.93,22.56-30.13-4.9-16.62-10.19-33.16-15.47-49.49Q121.38,159.91,101.29,162.9Z"/>
            <path id="path16" class="cls-50" d="M139.17,161.82q-18.09,2.24-36.26,4.84c9.67,21.25,20,43.61,29.58,66.47,6.7-8.83,13.5-17.88,20.24-27C148.4,191.23,143.78,176.44,139.17,161.82Z"/>
            <path id="path18" class="cls-51" d="M76.78,191.39c7.64,12,15.53,24.57,23.31,37.6q16.22,2.2,32.4,4.14c-9.59-22.85-19.92-45.22-29.58-66.47-8.66,8.56-17.42,16.87-26.13,24.74Z"/>
            <path id="path20" class="cls-52" d="M125,195.79q-7.1-6-14.17-11.85.2,9,.42,18,6.87-3,13.76-6.15ZM130.7,201q-9.71,4.38-19.39,8.56.28,6.35.56,12.7-4,1.74-7.92,3.41-.22-28.36,0-56.72c14.44,11.8,29.3,24.64,43.91,37.74l-7.5,3.39q-4.82-4.57-9.67-9.09Z"/>
            <path id="path22" class="cls-49" d="M104,169l6.89,15q7.07,5.81,14.17,11.86l-7.35,3.31,2.86,6.43q5.08-2.24,10.17-4.53,4.85,4.51,9.67,9.09l7.81-3.35C133.47,193.64,118.5,180.78,104,169Z"/>
          </g>
        </g>
      </g>
      <g class="cls-21">
        <g>
          <g class="cls-34">
            <path class="cls-53" d="M361.25,215.45c21.44,23.66,15.67,51-9.09,71.82-23.63,21.39-51,15.52-71.9-9.19-21.43-23.59-15.46-50.86,9.27-71.8C313.16,184.83,340.34,190.68,361.25,215.45Z"/>
            <path class="cls-30" d="M362.25,214.73a63.74,63.74,0,0,1,11.37,18.4,38.3,38.3,0,0,1,2.32,19.39c-1.8,12.85-11,26.18-22.72,36.19A63.3,63.3,0,0,1,334.59,300a38.29,38.29,0,0,1-19.52,2,49.57,49.57,0,0,1-19.16-7.91A81.42,81.42,0,0,1,279,279a62.39,62.39,0,0,1-11.1-18.53,37.88,37.88,0,0,1-1.9-19.34,49.71,49.71,0,0,1,7.91-18.94,80.57,80.57,0,0,1,15-16.72c11.6-9.81,24.78-15.24,37.53-13.17a48.63,48.63,0,0,1,18.91,7.58A80.23,80.23,0,0,1,362.25,214.73Zm-2,1.46A73.6,73.6,0,0,0,344.42,202a46.65,46.65,0,0,0-18.14-7.4,36.81,36.81,0,0,0-18.56,1.95,58.91,58.91,0,0,0-17.56,10.62,73.88,73.88,0,0,0-14.09,16,46.36,46.36,0,0,0-7.13,18.19A37.39,37.39,0,0,0,271,259.81a58.28,58.28,0,0,0,10.51,17.36c9.29,10.78,21.68,19.16,33.88,20.91,12.23,1.91,24.83-3.13,35.7-12.25a73.2,73.2,0,0,0,14-15.64,46.81,46.81,0,0,0,7.27-18,37.38,37.38,0,0,0-1.79-18.45A58.37,58.37,0,0,0,360.25,216.19Z"/>
          </g>
          <path class="cls-54" d="M352.3,256.08c-3.46.65-6.64,1.28-9.82,1.81-.9.15-1.23.46-1.24,1.38,0,2.13-.23,4.27-.34,6.4,0,.57-.23.85-.82.93-.94.12-2.17.74-2.72.36s-.07-1.73,0-2.66q.35-6.54.63-13.08c.15-3.54,1.49-5.08,5-5.66,3.11-.52,6.23-1,9.34-1.54.71-.12.92,0,.91.75-.06,2.58,0,2.58-2.66,3-2.32.39-4.64.78-7,1.19-1.47.26-1.78.64-1.87,2.09-.05.94-.1,1.88-.16,2.82,0,.56.14.76.75.64,2.06-.41,4.14-.73,6.19-1.15a1.46,1.46,0,0,1,1.54.46C350.69,254.56,351.42,255.23,352.3,256.08Z"/>
          <path class="cls-54" d="M348.88,249.88l3.55-.61c.46-.08.65.25.9.49l3.33,3.26c1.07-1.51,2.11-2.92,3.08-4.36a1.82,1.82,0,0,1,1.39-.87c1.22-.16,2.44-.39,3.91-.62-1.12,1.58-2.11,3-3.12,4.38-.73,1-1.44,2.06-2.23,3-.52.64-.41,1,.14,1.57,1.83,1.7,3.58,3.43,5.48,5.25l-3.8.8c-.41.09-.57-.2-.78-.4-1-1-2.08-2-3.08-3-.43-.45-.64-.44-1,.11-1,1.45-2,2.87-3,4.34a2,2,0,0,1-1.41.93c-1.22.2-2.42.49-3.9.79L351.7,260c.82-1.18,1.62-2.37,2.49-3.5.44-.57.3-.89-.15-1.31-1.51-1.44-3-2.93-4.48-4.43C349.31,250.55,349,250.37,348.88,249.88Z"/>
          <path class="cls-55" d="M315.67,267.92a53.77,53.77,0,0,0,.84-10.87c0-1.17.21-1.66,1.45-1.79,1.89-.19,1.88-.29,1.81,1.66a66.55,66.55,0,0,1-1.66,12.83c-.17.73-.44,1.09-1.22,1.21-2.88.44-2.88.47-4.23-2.18-1.83-3.58-3.65-7.16-5.52-10.71-.37-.71-.34-.95.51-1.08,2.45-.37,2.48-.43,3.58,1.8C312.68,261.73,314.35,264.56,315.67,267.92Z"/>
          <path class="cls-55" d="M292,264.38c.63,3,1.32,5.94,1.94,8.93a5.83,5.83,0,0,1-2.57,6.43c-.51.35-2.29-.56-2.4-1.22,0-.26.19-.34.32-.45,1.54-1.33,1.82-3.14,1.32-5.28-1.33-5.65-2.51-11.28-3.66-16.85-.17-.83,0-1.09.87-1.2,2.2-.28,2.19-.33,2.61,1.81q.77,3.9,1.61,7.83Z"/>
          <path class="cls-56" d="M316.35,196.89a6.19,6.19,0,0,1,1.5,5.88,16.34,16.34,0,0,1-3.47,6.79c-.85,1.1-1.79,2.13-2.57,3.31-1.92,2.92-1.88,5.3.28,7.89a39,39,0,0,1,3.37,3.88,25.34,25.34,0,0,1-6.34-4.89c-1.81-2.16-1.85-4.07-.29-6.59a40.37,40.37,0,0,1,3.71-4.69c.59-.7,1.18-1.4,1.74-2.13C316.46,203.53,317.59,200.49,316.35,196.89Z"/>
          <path class="cls-57" d="M306.74,241.73c-.88.63-1.9,1-2.75,1.61-.34.26-.86.47-.74,1s.65.4,1,.47a17.47,17.47,0,0,0,4.61.1,88,88,0,0,0,21.8-4.58,13.41,13.41,0,0,0,2.06-1c.62-.35,1.16-.81.78-1.77,1.09.46,1,1,.47,1.67a9,9,0,0,1-2.9,1.9,49.85,49.85,0,0,1-9.56,3.21,84.57,84.57,0,0,1-18.43,2.27,12.9,12.9,0,0,1-1.75-.11c-.48-.05-1-.16-1.2-.65s.23-1,.57-1.32A10.35,10.35,0,0,1,304,242.4,5.37,5.37,0,0,1,306.74,241.73Z"/>
          <path class="cls-56" d="M317.87,225.86c1.12-2.53.92-3.48-1.08-5.31-3.3-3-3.35-6.37-.32-9.74a20.51,20.51,0,0,1,6.65-4.81c-1.41,1.49-3,2.84-4.28,4.48-.13.17-.28.33-.41.51-2.13,2.83-2.09,4.25.34,6.75.35.36.73.7,1,1.1a3.57,3.57,0,0,1,.53,3.9A7.63,7.63,0,0,1,317.87,225.86Z"/>
          <path class="cls-57" d="M310.59,237.3c-.3,1.18.59,1.08,1.19,1.07a29.11,29.11,0,0,0,8-1.26,3.42,3.42,0,0,0,.73-.24c1.71-1,3.35-.51,5.09.2a23.15,23.15,0,0,1-10,3.45,14.92,14.92,0,0,1-4.81-.1,5.45,5.45,0,0,1-1.35-.44c-.9-.47-1-1.11-.2-1.82A3.92,3.92,0,0,1,310.59,237.3Z"/>
          <path class="cls-57" d="M309.67,226.07c-1,.57-2,1.13-3,1.71a9.22,9.22,0,0,0-.9.65c-.21.16-.45.37-.4.63s.44.34.71.36a17.51,17.51,0,0,0,4.34-.35A98.52,98.52,0,0,0,326,225c-1,1.16-1.73,1.7-4.42,2.62a57.53,57.53,0,0,1-17.42,3.35c-.81,0-2,.31-2.26-.68s1-1.23,1.67-1.68A16,16,0,0,1,309.67,226.07Z"/>
          <path class="cls-57" d="M325.48,231.7c-5.33,2.33-10.7,3.94-16.46,3.68-1,0-2.24,0-2.5-1.07s1-1.53,1.79-2.1a1.14,1.14,0,0,1,.2-.07c.08.41-.47.89,0,1.24a2.13,2.13,0,0,0,1.36.26,37.78,37.78,0,0,0,11.65-2.39A3.93,3.93,0,0,1,325.48,231.7Z"/>
          <path class="cls-58" d="M336.85,240a3.18,3.18,0,0,1-1.57,2.14,19.11,19.11,0,0,1-5.94,2.77,71.45,71.45,0,0,1-18.83,3.29,9.09,9.09,0,0,1-3-.32C318,247,328,245.61,336.85,240Z"/>
          <path class="cls-59" d="M327.22,223.18a4.16,4.16,0,0,1,4.82-.88,3.56,3.56,0,0,1,2.1,3.86,5.19,5.19,0,0,1-1.34,2.65,11.86,11.86,0,0,1-5.21,3.35L329,231a10.88,10.88,0,0,0,2.64-3.25,3.32,3.32,0,0,0-.21-3.8,3.13,3.13,0,0,0-3.74-.8A3.08,3.08,0,0,1,327.22,223.18Z"/>
          <path class="cls-60" d="M367.36,246.76c.3.14.74,1,.92,0,0,0,.23,0,.28,0a1.44,1.44,0,0,1,.29.95c0,.18-.08.18-.3.23C367.28,248.18,367.14,248.08,367.36,246.76Z"/>
          <path class="cls-61" d="M366.78,248.34c-.36-.18-.26-.46-.37-.66a5.49,5.49,0,0,0-.4-.54C367,246.76,367,246.76,366.78,248.34Z"/>
          <path class="cls-55" d="M306.7,266.53c-.3-1.59-.59-3.18-.91-4.76-.5-2.53-1.93-3.78-4.5-3.84a12.67,12.67,0,0,0-6.67,1.92c-.37.21-.37.41-.23.77.51,1.32.56,1.35,1.79.8a8.74,8.74,0,0,1,1.39-.56,7,7,0,0,1,3.43-.36,2.79,2.79,0,0,1,1.92,3c-.08,1-1.08.54-1.64.67a10.65,10.65,0,0,0-4.3,1.75c-1.66,1.29-2,3.29-1.05,5.49a4.16,4.16,0,0,0,4.53,2.4,6,6,0,0,0,3.94-2c.15-.16.5-.63.6-.18.33,1.5,1.26.9,2.06.85.6,0,.77-.28.64-.9C307.33,269.93,307,268.22,306.7,266.53Zm-3,3.33a4.09,4.09,0,0,1-3.23,1.5,2.05,2.05,0,0,1-1.86-1.52,2.17,2.17,0,0,1,.57-2.7A7.94,7.94,0,0,1,303,266c.33,0,.45.16.51.44.09.43.17.86.28,1.41S304.4,269.18,303.7,269.86Z"/>
          <path class="cls-55" d="M335,266.47c-.47-3.27-1-6.53-1.54-9.8a3.88,3.88,0,0,0-4-3.44,13,13,0,0,0-6.88,2c-1,.59-.18,1.19,0,1.76s.62.27.95.1a11.79,11.79,0,0,1,4-1.28,3.62,3.62,0,0,1,1.2,0,2.63,2.63,0,0,1,2,3c-.08,1-1.13.61-1.73.77a11.31,11.31,0,0,0-4.29,1.88,4.66,4.66,0,0,0-1.37,5.66c.76,1.81,2.27,2.58,4.54,2.25a7.15,7.15,0,0,0,4.53-2.76c.1.28.16.41.19.55.35,1.52,1.41.58,2.16.51C335.6,267.58,335.1,266.87,335,266.47Zm-3.84-1.22a4.6,4.6,0,0,1-3.34,1.62,1.93,1.93,0,0,1-1.78-1.5,2.29,2.29,0,0,1,.51-2.54c1.16-1.09,2.68-1.25,4.16-1.5.37-.06.39.23.44.48.07.43.14.86.22,1.39S332,264.53,331.2,265.25Z"/>
        </g>
      </g>
      <g class="cls-62">
        <path class="cls-63" d="M56,230a91.86,91.86,0,0,0,8.42,12.63,70.43,70.43,0,0,0,5,5.59,57.63,57.63,0,0,0,5.52,5c1,.73,2,1.5,3,2.2s2.07,1.4,3.14,2a65.61,65.61,0,0,0,6.56,3.6,53.69,53.69,0,0,0,7,2.75,34.15,34.15,0,0,0,7.41,1.57,24.32,24.32,0,0,1-7.75-.13,39.88,39.88,0,0,1-7.55-2,53.58,53.58,0,0,1-13.64-7.63A51.52,51.52,0,0,1,62.53,244,48.34,48.34,0,0,1,56,230Z"/>
      </g>
      <g class="cls-64">
        <path class="cls-63" d="M167.37,65.45a99.87,99.87,0,0,0-1.3,16.62,66.2,66.2,0,0,0,2,16.25,70.73,70.73,0,0,0,6,15.28,81.71,81.71,0,0,0,9.24,13.84A49.05,49.05,0,0,1,172,114.78a60,60,0,0,1-4-7.57,57.44,57.44,0,0,1-2.81-8.13c-.17-.7-.35-1.4-.5-2.1l-.38-2.13c-.14-.71-.24-1.42-.31-2.13l-.24-2.14a61.18,61.18,0,0,1,0-8.57A55.06,55.06,0,0,1,167.37,65.45Z"/>
      </g>
      <g class="cls-65">
        <path class="cls-63" d="M289.78,64.7a51,51,0,0,1,3.8,12.11,46.58,46.58,0,0,1,.73,12.78A47.58,47.58,0,0,1,291.24,102a39.76,39.76,0,0,1-6.26,11,64.83,64.83,0,0,0,4.79-11.56c.58-2,1.18-4,1.57-6,.23-1,.41-2,.6-3s.32-2,.37-3A59.21,59.21,0,0,0,292,77,102,102,0,0,0,289.78,64.7Z"/>
      </g>
      <g class="cls-62">
        <path class="cls-63" d="M261.11,222.94a49.16,49.16,0,0,1,6.19-18.62l1.28-2.14c.41-.72.94-1.37,1.41-2.06.92-1.39,2-2.64,3.09-3.94a46.51,46.51,0,0,1,7.45-6.71l2.07-1.43,2.15-1.26c1.41-.88,2.92-1.59,4.4-2.34a56.9,56.9,0,0,1,9.33-3.42,51.74,51.74,0,0,1,9.76-1.66,36.79,36.79,0,0,1,9.81.53,59.41,59.41,0,0,0-18.89,3.37,66.63,66.63,0,0,0-16.88,8.65,51.15,51.15,0,0,0-13,13.63A69,69,0,0,0,261.11,222.94Z"/>
      </g>
      <g class="cls-65">
        <path class="cls-63" d="M268.38,188.34a44.27,44.27,0,0,1,8.1-7.94,41.27,41.27,0,0,1,9.94-5.7A51.33,51.33,0,0,1,297.52,172a41.85,41.85,0,0,1,11.34-.07,86.75,86.75,0,0,0-11.08,1.61c-1.81.39-3.62.81-5.4,1.32a54.41,54.41,0,0,0-5.25,1.69,42.31,42.31,0,0,0-5,2.3c-1.64.83-3.2,1.83-4.77,2.81A96.86,96.86,0,0,0,268.38,188.34Z"/>
      </g>
      <g class="cls-65">
        <path class="cls-63" d="M60,259.67a77.33,77.33,0,0,0,10.07,8.17,44.24,44.24,0,0,0,11.37,5.7c1,.37,2,.54,3,.83s2.11.41,3.17.57c2.12.39,4.25.59,6.4.81a65.88,65.88,0,0,0,13-.08,41.24,41.24,0,0,1-13,1.64,58.29,58.29,0,0,1-6.59-.5c-1.1-.13-2.18-.35-3.27-.53l-1.64-.39a12.67,12.67,0,0,1-1.62-.45l-1.59-.55c-.53-.19-1-.43-1.55-.65a32.08,32.08,0,0,1-3-1.47,42.35,42.35,0,0,1-5.53-3.68,46.42,46.42,0,0,1-4.93-4.4A40.81,40.81,0,0,1,60,259.67Z"/>
      </g>
    </g>
  </g>
</svg>
