<svg xmlns="http://www.w3.org/2000/svg" xmlns:xlink="http://www.w3.org/1999/xlink" width="388" height="450.67" viewBox="0 0 388 450.67">
  <defs>
    <style>
      .cls-1 {
        isolation: isolate;
      }

      .cls-2 {
        fill: #6fd0f4;
      }

      .cls-2, .cls-3, .cls-64 {
        opacity: 0.79;
      }

      .cls-3 {
        fill: #63caea;
      }

      .cls-20, .cls-4, .cls-50, .cls-58, .cls-63 {
        opacity: 0.8;
      }

      .cls-4 {
        fill: url(#Unbenannter_Verlauf_128);
      }

      .cls-12, .cls-17, .cls-19, .cls-49, .cls-5 {
        fill: #4b7787;
      }

      .cls-5 {
        opacity: 0.25;
      }

      .cls-14, .cls-16, .cls-18, .cls-6 {
        fill: #31505b;
      }

      .cls-56, .cls-6 {
        opacity: 0.3;
      }

      .cls-7 {
        fill: url(#Unbenannter_Verlauf_115);
      }

      .cls-8 {
        fill: url(#Unbenannter_Verlauf_115-2);
      }

      .cls-9 {
        fill: url(#Unbenannter_Verlauf_115-3);
      }

      .cls-10 {
        fill: #6b9eaa;
      }

      .cls-11 {
        fill: #2c4f5e;
      }

      .cls-13 {
        fill: #436c77;
      }

      .cls-15 {
        fill: #355563;
      }

      .cls-16 {
        opacity: 0.61;
      }

      .cls-17, .cls-75, .cls-86 {
        opacity: 0.55;
      }

      .cls-18 {
        opacity: 0.63;
      }

      .cls-19, .cls-76 {
        opacity: 0.52;
      }

      .cls-20 {
        fill: url(#Unbenannter_Verlauf_103);
      }

      .cls-21 {
        opacity: 0.71;
        fill: url(#Unbenannter_Verlauf_104);
      }

      .cls-22, .cls-23, .cls-63, .cls-64, .cls-71 {
        fill: #4bb5da;
      }

      .cls-22, .cls-65, .cls-66, .cls-68, .cls-69, .cls-70 {
        opacity: 0.6;
      }

      .cls-24 {
        opacity: 0.9;
      }

      .cls-25, .cls-27, .cls-28, .cls-29, .cls-30, .cls-31, .cls-32, .cls-35, .cls-36 {
        font-size: 14.7px;
      }

      .cls-25, .cls-26, .cls-27, .cls-28, .cls-29, .cls-30, .cls-31, .cls-32, .cls-35, .cls-36, .cls-39 {
        fill: #fff;
      }

      .cls-25, .cls-26, .cls-27, .cls-28, .cls-29, .cls-30, .cls-31, .cls-32, .cls-35, .cls-36 {
        font-family: GkreatorInsideBeta1, Gkreator Inside Beta1;
      }

      .cls-25 {
        letter-spacing: -0.12em;
      }

      .cls-26, .cls-38 {
        font-size: 10.75px;
      }

      .cls-26 {
        letter-spacing: -0.1em;
      }

      .cls-27 {
        letter-spacing: -0.1em;
      }

      .cls-28 {
        letter-spacing: -0.13em;
      }

      .cls-29 {
        letter-spacing: -0.01em;
      }

      .cls-30 {
        letter-spacing: -0.08em;
      }

      .cls-31 {
        letter-spacing: 0.05em;
      }

      .cls-32 {
        letter-spacing: 0.2em;
      }

      .cls-33 {
        letter-spacing: -0.06em;
      }

      .cls-34 {
        font-size: 13.25px;
        letter-spacing: -0.11em;
      }

      .cls-35 {
        letter-spacing: -0.07em;
      }

      .cls-36 {
        letter-spacing: -0.11em;
      }

      .cls-37 {
        letter-spacing: -0.06em;
      }

      .cls-38 {
        letter-spacing: -0.01em;
      }

      .cls-40, .cls-42 {
        fill: none;
      }

      .cls-40, .cls-41, .cls-42, .cls-43, .cls-44, .cls-45, .cls-46, .cls-47, .cls-49 {
        stroke: #000;
        stroke-miterlimit: 10;
      }

      .cls-40 {
        stroke-width: 2px;
      }

      .cls-41, .cls-43, .cls-51 {
        fill: #8ae9f9;
      }

      .cls-41, .cls-49 {
        stroke-width: 0.75px;
      }

      .cls-42 {
        stroke-linecap: round;
        stroke-width: 1.03px;
        opacity: 0.7;
      }

      .cls-43, .cls-44 {
        stroke-width: 0.5px;
      }

      .cls-44 {
        fill: #65e082;
      }

      .cls-45 {
        fill: #89dbef;
      }

      .cls-45, .cls-46, .cls-47 {
        stroke-width: 0.61px;
      }

      .cls-46 {
        fill: #53a4b7;
      }

      .cls-47 {
        fill: #478593;
      }

      .cls-48 {
        fill: #74b6c1;
      }

      .cls-52 {
        fill: #6daabf;
      }

      .cls-53 {
        fill: #96cdd6;
      }

      .cls-54 {
        fill: #5d8c9b;
      }

      .cls-55 {
        fill: #bc5c6c;
      }

      .cls-56 {
        fill: #578a9e;
        mix-blend-mode: multiply;
      }

      .cls-57, .cls-58 {
        fill: #8cc4d3;
      }

      .cls-59 {
        fill: #303b3f;
      }

      .cls-60 {
        fill: #be1432;
      }

      .cls-61 {
        fill: #455b60;
      }

      .cls-62 {
        opacity: 0.11;
      }

      .cls-65 {
        fill: url(#Unbenannter_Verlauf_135);
      }

      .cls-66 {
        fill: url(#Unbenannter_Verlauf_140);
      }

      .cls-67, .cls-68 {
        fill: #389cc4;
      }

      .cls-67, .cls-82 {
        opacity: 0.5;
      }

      .cls-69 {
        fill: url(#Unbenannter_Verlauf_141);
      }

      .cls-70 {
        fill: url(#Unbenannter_Verlauf_141-2);
      }

      .cls-71 {
        opacity: 0.74;
      }

      .cls-72 {
        fill: #429cbc;
      }

      .cls-73, .cls-77, .cls-79, .cls-87, .cls-88, .cls-89, .cls-90 {
        fill: #abe6ef;
      }

      .cls-73 {
        opacity: 0.56;
      }

      .cls-74, .cls-75, .cls-76, .cls-78, .cls-80 {
        fill: #95dee8;
      }

      .cls-74 {
        opacity: 0.62;
      }

      .cls-77 {
        opacity: 0.44;
      }

      .cls-78 {
        opacity: 0.4;
      }

      .cls-79 {
        opacity: 0.46;
      }

      .cls-80, .cls-81 {
        opacity: 0.17;
      }

      .cls-81 {
        fill: #88d1de;
      }

      .cls-83 {
        fill: #214b60;
      }

      .cls-84 {
        opacity: 0.64;
      }

      .cls-85 {
        fill: #1d4656;
      }

      .cls-87 {
        opacity: 0.54;
      }

      .cls-88 {
        opacity: 0.34;
      }

      .cls-89 {
        opacity: 0.33;
      }

      .cls-90 {
        opacity: 0.27;
      }
    </style>
    <linearGradient id="Unbenannter_Verlauf_128" data-name="Unbenannter Verlauf 128" x1="190.7" y1="357.62" x2="190.7" y2="435.98" gradientUnits="userSpaceOnUse">
      <stop offset="0" stop-color="#4b7f94" stop-opacity="0.8"/>
      <stop offset="0.23" stop-color="#4b7f94" stop-opacity="0.7"/>
      <stop offset="0.67" stop-color="#4b7f94" stop-opacity="0.43"/>
      <stop offset="1" stop-color="#4b7f94" stop-opacity="0.2"/>
    </linearGradient>
    <linearGradient id="Unbenannter_Verlauf_115" data-name="Unbenannter Verlauf 115" x1="200.68" y1="174.44" x2="312.16" y2="238.81" gradientUnits="userSpaceOnUse">
      <stop offset="0" stop-color="#355563"/>
      <stop offset="0.47" stop-color="#385968"/>
      <stop offset="1" stop-color="#3f6575"/>
      <stop offset="1" stop-color="#3f6575"/>
    </linearGradient>
    <linearGradient id="Unbenannter_Verlauf_115-2" x1="197.05" y1="258.85" x2="313.61" y2="326.15" xlink:href="#Unbenannter_Verlauf_115"/>
    <linearGradient id="Unbenannter_Verlauf_115-3" x1="201.75" y1="343.8" x2="305.51" y2="381.57" xlink:href="#Unbenannter_Verlauf_115"/>
    <linearGradient id="Unbenannter_Verlauf_103" data-name="Unbenannter Verlauf 103" x1="240.67" y1="170.5" x2="240.67" y2="234.37" gradientUnits="userSpaceOnUse">
      <stop offset="0" stop-color="#294853" stop-opacity="0.8"/>
      <stop offset="0.39" stop-color="#294853" stop-opacity="0.77"/>
      <stop offset="0.62" stop-color="#294853" stop-opacity="0.67"/>
      <stop offset="0.8" stop-color="#294853" stop-opacity="0.5"/>
      <stop offset="0.96" stop-color="#294853" stop-opacity="0.26"/>
      <stop offset="1" stop-color="#294853" stop-opacity="0.2"/>
    </linearGradient>
    <linearGradient id="Unbenannter_Verlauf_104" data-name="Unbenannter Verlauf 104" x1="167.12" y1="185" x2="167.12" y2="247.01" gradientUnits="userSpaceOnUse">
      <stop offset="0" stop-color="#294853" stop-opacity="0.8"/>
      <stop offset="0.32" stop-color="#294853" stop-opacity="0.76"/>
      <stop offset="0.58" stop-color="#294853" stop-opacity="0.64"/>
      <stop offset="0.81" stop-color="#294853" stop-opacity="0.44"/>
      <stop offset="1" stop-color="#294853" stop-opacity="0.2"/>
    </linearGradient>
    <linearGradient id="Unbenannter_Verlauf_135" data-name="Unbenannter Verlauf 135" x1="97.83" y1="179.3" x2="97.83" y2="226.43" gradientUnits="userSpaceOnUse">
      <stop offset="0" stop-color="#4bb5da" stop-opacity="0"/>
      <stop offset="0.02" stop-color="#4bb5da" stop-opacity="0.07"/>
      <stop offset="0.06" stop-color="#4bb5da" stop-opacity="0.26"/>
      <stop offset="0.12" stop-color="#4bb5da" stop-opacity="0.44"/>
      <stop offset="0.18" stop-color="#4bb5da" stop-opacity="0.59"/>
      <stop offset="0.24" stop-color="#4bb5da" stop-opacity="0.72"/>
      <stop offset="0.32" stop-color="#4bb5da" stop-opacity="0.82"/>
      <stop offset="0.4" stop-color="#4bb5da" stop-opacity="0.9"/>
      <stop offset="0.5" stop-color="#4bb5da" stop-opacity="0.96"/>
      <stop offset="0.64" stop-color="#4bb5da" stop-opacity="0.99"/>
      <stop offset="1" stop-color="#4bb5da"/>
    </linearGradient>
    <linearGradient id="Unbenannter_Verlauf_140" data-name="Unbenannter Verlauf 140" x1="86.1" y1="236.76" x2="86.1" y2="291.57" gradientUnits="userSpaceOnUse">
      <stop offset="0" stop-color="#4bb5da" stop-opacity="0.2"/>
      <stop offset="0.02" stop-color="#4bb5da" stop-opacity="0.29"/>
      <stop offset="0.07" stop-color="#4bb5da" stop-opacity="0.45"/>
      <stop offset="0.13" stop-color="#4bb5da" stop-opacity="0.6"/>
      <stop offset="0.19" stop-color="#4bb5da" stop-opacity="0.73"/>
      <stop offset="0.27" stop-color="#4bb5da" stop-opacity="0.83"/>
      <stop offset="0.35" stop-color="#4bb5da" stop-opacity="0.91"/>
      <stop offset="0.45" stop-color="#4bb5da" stop-opacity="0.96"/>
      <stop offset="0.6" stop-color="#4bb5da" stop-opacity="0.99"/>
      <stop offset="1" stop-color="#4bb5da"/>
    </linearGradient>
    <linearGradient id="Unbenannter_Verlauf_141" data-name="Unbenannter Verlauf 141" x1="311.36" y1="223" x2="311.36" y2="252.06" gradientUnits="userSpaceOnUse">
      <stop offset="0" stop-color="#4bb5da" stop-opacity="0"/>
      <stop offset="0.04" stop-color="#47b0d6" stop-opacity="0.19"/>
      <stop offset="0.1" stop-color="#44acd2" stop-opacity="0.38"/>
      <stop offset="0.16" stop-color="#41a7ce" stop-opacity="0.55"/>
      <stop offset="0.23" stop-color="#3ea4cb" stop-opacity="0.69"/>
      <stop offset="0.3" stop-color="#3ca1c8" stop-opacity="0.8"/>
      <stop offset="0.39" stop-color="#3a9fc6" stop-opacity="0.89"/>
      <stop offset="0.49" stop-color="#399dc5" stop-opacity="0.95"/>
      <stop offset="0.64" stop-color="#389cc4" stop-opacity="0.99"/>
      <stop offset="1" stop-color="#389cc4"/>
    </linearGradient>
    <linearGradient id="Unbenannter_Verlauf_141-2" x1="239.6" y1="249" x2="239.6" y2="309.87" xlink:href="#Unbenannter_Verlauf_141"/>
  </defs>
  <title>dolphin_server</title>
  <g class="cls-1">
    <g id="Ebene_12" data-name="Ebene 12">
      <path class="cls-2" d="M134,337.67S84.39,333.74,57.67,336c-19.67,1.67-38.68,8.94-41,13.36-5.3,10,27.64,12.76,29.76,17s-30.12,7.8-36.5,20.2,30.4,16.12,54.77,14.1c14.61-1.21,25.18-1.82,27.33.33,1.51,1.51-19.9,6.71-11,13.33C94,424,109,418,121,418c17,0,2.18,7,24,12.33,32.67,8,57,6.51,74,1.67,16.65-4.73,17-10.67,29.33-11.33,9.56-.52,13.33,11.33,47.33,6,38.18-6,4.09-21.31,9.33-22.67,9-2.33,17,1.33,28.33-3.67,17.28-7.62-22-12.84-16.67-14.67,6.68-2.31,53,.1,58.67-14,4.51-11.25-33.87-14.78-35.33-18-1.57-3.45,21.95-1.61,9-13-8.33-7.33-38.67-12-71.33-9.33C246.54,333.87,134,337.67,134,337.67Z"/>
      <path class="cls-3" d="M341.22,407c11.23-1.81,20.68,7.67,4.16,8.55-2.89.15-22.29-.51-22.6-3.26C322.21,407.38,334.22,408.17,341.22,407Z"/>
      <path class="cls-3" d="M323.3,415.61c4.76-.07,10.26,2.17,8.57,4.47-1,1.32-7.61,2.56-13.62.72S318.09,415.69,323.3,415.61Z"/>
      <path class="cls-4" d="M316.67,385.67a11.36,11.36,0,0,1,1.89-.41l-1-20.74-4.31-.39-.91-6.51L66,367.33l-.12,7.37-3.92.78.23,25.36,2.48-.18c14.61-1.21,25.18-1.82,27.33.33,1.51,1.51-19.9,6.71-11,13.33C94,424,109,418,121,418c17,0,2.18,7,24,12.33,32.67,8,57,6.51,74,1.67,16.65-4.73,17-10.67,29.33-11.33,9.56-.52,13.33,11.33,47.33,6,38.18-6,4.09-21.31,9.33-22.67,4.88-1.26,9.46-.77,14.44-.85l-.78-15.76C316.53,386.65,315.48,386.08,316.67,385.67Z"/>
      <path class="cls-5" d="M320,416.09s-4.32,1.06-4.11,2.76,4.39,2.41,4.39,2.41Z"/>
      <polygon class="cls-6" points="61.17 368.25 190.67 417 316.67 358.5 309.92 356.5 69.67 364.5 61.17 368.25"/>
    </g>
    <g id="Ebene_14" data-name="Ebene 14">
      <polygon class="cls-7" points="189 194.67 328.33 151.33 325.33 216 191 265.67 189 194.67"/>
      <polygon class="cls-8" points="191 269.33 324.33 220.33 319.67 315.67 192.67 368.33 191 269.33"/>
      <polygon class="cls-9" points="191 373.33 318 321 317 350 191 405 191 373.33"/>
      <polygon class="cls-10" points="49 158.67 189 194.67 328.33 151.33 186.67 124.67 49 158.67"/>
      <polygon class="cls-11" points="63 159 189.33 189.33 311.33 152.33 187.33 128.33 63 159"/>
      <polygon class="cls-12" points="48 159 189 194.67 191 265.67 52 224.67 48 159"/>
      <polygon class="cls-12" points="53 229.33 58.67 324 192.67 368.33 191 269.33 53 229.33"/>
      <polygon class="cls-12" points="59.54 328.38 61.67 359 191 405 191 373.33 59.54 328.38"/>
      <polygon class="cls-10" points="58.33 227 53 229.33 191 269.33 191 265.67 58.33 227"/>
      <polygon class="cls-10" points="59.33 329 191 373.33 192.67 368.33 65.67 326.67 59.33 329"/>
      <polygon class="cls-12" points="191 269.33 324.33 220.33 317.17 219 191 265.67 191 269.33"/>
      <polygon class="cls-12" points="190.92 372.5 192.67 368.33 312.17 319 318 321 190.92 372.5"/>
      <polygon class="cls-10" points="56.42 292.5 191.17 334.75 191.42 336.75 56.17 293.75 56.42 292.5"/>
      <polygon class="cls-13" points="65.92 360.75 66.42 366.75 190.42 413 190.17 404.5 65.92 360.75"/>
      <polygon class="cls-14" points="190.42 413 312.42 357.5 312.17 351.75 191 405 190.42 413"/>
      <polygon class="cls-15" points="183.42 243.71 183.42 247.06 186.42 248.12 186.24 244.59 183.42 243.71"/>
      <polygon class="cls-15" points="177.92 242.04 177.92 245.4 180.92 246.46 180.74 242.93 177.92 242.04"/>
      <polygon class="cls-15" points="172.08 240.38 172.08 243.73 175.08 244.79 174.91 241.26 172.08 240.38"/>
      <polygon class="cls-16" points="65.67 359.5 66.42 363.63 190.42 407.75 190.17 404.5 65.67 359.5"/>
      <polygon class="cls-17" points="309.04 283.5 318.79 279.5 319.04 272 309.54 275.75 309.04 283.5"/>
      <polygon class="cls-15" points="152.67 385.38 184.42 396.75 184.04 383.13 152.29 372.25 152.67 385.38"/>
      <polyline class="cls-18" points="59.79 334.88 108.46 351.92 109.08 361.17 60.92 344.25 59.79 334.88"/>
      <polygon class="cls-11" points="133.42 384.38 133.29 380.58 147.54 385.58 147.92 389.63 133.42 384.38"/>
      <polygon class="cls-11" points="133.42 348.88 133.29 345.58 147.42 350.08 147.79 353.63 133.42 348.88"/>
      <polygon class="cls-19" points="287.67 333.13 287.92 361.75 316.92 349.41 317.54 320.25 287.67 333.13"/>
      <polygon class="cls-14" points="263.42 338.5 263.42 326.75 320.04 303.5 319.67 315.67 263.42 338.5"/>
      <polygon class="cls-12" points="191.17 334.75 321.67 282 321.5 283.33 191.42 336.5 191.17 334.75"/>
      <polygon class="cls-12" points="190 241.5 325.5 194.83 325.83 196 190.33 242.83 190 241.5"/>
      <polygon class="cls-12" points="189.33 217.33 327.17 171.83 327.17 172.83 189.33 218.5 189.33 217.33"/>
      <polygon class="cls-10" points="51.33 202.33 190 241.5 189.83 243 51.83 203.17 51.33 202.33"/>
      <polygon class="cls-10" points="49.67 179.83 189.33 217.33 189.33 218.5 49.67 180.83 49.67 179.83"/>
      <path class="cls-20" d="M201.76,186l4.5,3c17.25,28.25,50.34,53.33,71,43,13-6.5-32.5-61.5-32.5-61.5Z"/>
      <path class="cls-21" d="M189.33,189A69,69,0,0,1,180,222c-10.87,18.36-30,25.33-34.33,25S157,227.67,158,205c.66-15-3-20-3-20Z"/>
      <path class="cls-22" d="M74.17,161.92s14.33-4.33,21-5,7.33,0,11.67-1a53.29,53.29,0,0,0,9.67-3.67l-2.67,19.33-39.67-9.67"/>
      <path class="cls-23" d="M80.33,163.74s-1.5-1.91,3-3.24,17.33-1.83,17.33-1.83,8-3.33,10-3.5a17.53,17.53,0,0,1,5.17.83l-2.17,3a11.11,11.11,0,0,0-2.67,3.5c-1.33,2.5-1,8.33-1,8.33Z"/>
    </g>
    <g id="Ebene_15" data-name="Ebene 15" class="cls-24">
      <text class="cls-25" transform="matrix(0.79, 0.13, 0.13, 0.94, 98.87, 283.96)">D</text>
      <text class="cls-26" transform="matrix(0.81, 0.2, 0.07, 0.95, 103.62, 282.11)">o</text>
      <text class="cls-27" transform="matrix(0.79, 0.18, 0.09, 1, 108.53, 282.14)">l</text>
      <text class="cls-28" transform="matrix(0.85, 0.18, 0.1, 1, 111.38, 284.71)">p</text>
      <text class="cls-29" transform="matrix(0.79, 0.25, 0.01, 0.96, 115.25, 280.6)">h</text>
      <text class="cls-30" transform="matrix(0.86, 0.22, 0.06, 1, 121.4, 280.75)">i</text>
      <text class="cls-31" transform="matrix(0.66, 0.2, 0.01, 0.75, 124.15, 281.59)">n</text>
      <text class="cls-32" transform="matrix(0.85, 0.21, 0.07, 1, 99.74, 300.03)"> <tspan class="cls-33" x="10.25" y="-6.38">i</tspan><tspan class="cls-34" x="13.75" y="-6.5">n</tspan></text>
      <text class="cls-35" transform="matrix(0.82, 0.2, 0.07, 0.96, 116.62, 295.98)">s</text>
      <text class="cls-36" transform="matrix(0.85, 0.21, 0.07, 1, 121.34, 295.12)">i<tspan class="cls-37" x="2.69" y="-0.37">d</tspan><tspan class="cls-38" x="9.83" y="-3.38">e</tspan></text>
      <path class="cls-39" d="M132.69,267.23s-2.1-3.58-11.84-6-25.16,4.08-24.13,15.14c1.09,11.65,11.67,22,22.25,23.85s20.77-4.85,19.34-14.67C136.64,274.14,125.52,269,125.52,269l0-4.36s13.71,6.21,15.06,21c1.23,13.42-8.82,20.42-20.66,18S97,292,94.85,276.52s13.81-21.16,22.77-20.17a39.35,39.35,0,0,1,15.78,5.25Z"/>
    </g>
    <g id="Ebene_13" data-name="Ebene 13">
      <path d="M47.53,158.23C94.7,170,141.9,182,188.77,194.09l.3.08v.32l2.58,71,.05,1.38-1.33-.39L51.77,225.67l-.67-.2,0-.7C49.72,202.6,48.6,180.29,47.53,158.23Zm1.27,1.54c1.51,21.75,3,43.24,4.24,64.88l-.72-.9L191,264.54l-1.28,1-1.42-71,.32.39C141.78,183.3,95.3,171.65,48.81,159.77Z"/>
      <polygon points="190.32 264.56 324.83 214.59 324.19 215.48 327.37 150.96 328.41 151.77 188.81 194.96 188.53 194.04 327.93 150.23 328.97 151.04 326.18 215.57 325.53 216.46 191.02 266.44 190.32 264.56"/>
      <path d="M191.33,269l1.84,99.49-1.32,1L57.52,324.71l-.68-.9-4.43-95.09.74-.58ZM190,270,52.82,229.25l.74-.58,5.29,95-.68-.9,134.33,44.74-1.32,1Z"/>
      <polyline class="cls-40" points="48.17 159 187 125 328.17 151"/>
      <path d="M187.71,129.33,63.33,159.66v-1.29l125.94,30h-.52L311,151.81l.07,1.32Zm0-1.26L311.3,151.79l2.71.52-2.64.8-122,37.13-.26.08-.26-.06L63,159.66,60.36,159l2.65-.64Z"/>
      <polygon points="190.5 269.03 324.27 219.26 325.38 220.07 320.98 315.44 320.37 316.32 192.55 369.42 191.79 367.58 319.6 314.47 318.98 315.35 323.73 219.99 324.84 220.8 190.84 269.98 190.5 269.03"/>
      <path d="M58.82,327.46c44.19,14.87,88.43,30,132.33,45.1l.32.44.87,32-1.34,1L60.91,359.4l-.66-.88C59.6,348.17,59.19,337.68,58.82,327.46ZM60,329.05c.84,9.92,1.65,19.55,2.21,29.34l-.66-.88,130.09,46.54-1.34,1,.2-32,.32.44C147,358.75,103.56,344,60,329.05Z"/>
      <polygon points="49.37 179.4 189.47 216.52 189.18 216.53 327.11 171.5 327.22 171.85 189.49 217.47 189.35 217.52 189.21 217.48 49.27 179.75 49.37 179.4"/>
      <polygon points="51.98 201.97 189.81 240.85 189.51 240.86 326.62 194.17 326.74 194.52 189.83 241.81 189.68 241.86 189.53 241.81 51.88 202.32 51.98 201.97"/>
      <polygon points="190.93 404.09 316.52 348.5 315.92 349.38 317.29 320.38 318.31 321.08 191.24 373.57 190.77 372.44 317.74 319.72 318.76 320.43 317.92 349.45 317.33 350.33 191.74 405.92 190.93 404.09"/>
      <line class="cls-40" x1="53.34" y1="229" x2="58.85" y2="226.78"/>
      <polygon points="324.48 220.48 316.71 219.75 317.04 217.77 324.63 219.58 324.48 220.48"/>
      <polygon points="57.57 292.15 191.49 334.19 191.15 334.2 321.21 281.77 321.44 282.33 191.52 335.13 191.36 335.2 191.19 335.14 57.39 292.73 57.57 292.15"/>
      <polyline class="cls-40" points="65.54 360.84 66 367.33 190.67 412.67 190.67 404.67"/>
      <polyline class="cls-40" points="190.67 412.67 312.32 357.62 312.27 351.45"/>
      <line class="cls-40" x1="318.03" y1="320.94" x2="312.26" y2="318.62"/>
      <line class="cls-40" x1="59.43" y1="328.26" x2="66.17" y2="326.5"/>
      <polygon class="cls-41" points="164.09 378 164.75 388 182.42 394.33 182.42 384.33 164.09 378"/>
      <line class="cls-42" x1="290.42" y1="337.25" x2="312.08" y2="328.12"/>
      <line class="cls-42" x1="290.54" y1="341.25" x2="312.11" y2="331.98"/>
      <line class="cls-42" x1="290.67" y1="345.25" x2="312.15" y2="336.2"/>
      <line class="cls-42" x1="290.67" y1="349.49" x2="312.18" y2="340.06"/>
      <line class="cls-42" x1="290.67" y1="353.27" x2="312.21" y2="343.85"/>
      <path class="cls-43" d="M70.65,342.94a1.53,1.53,0,0,1-2,1.63,3.06,3.06,0,0,1-2.05-2.78,1.53,1.53,0,0,1,2-1.63A3.06,3.06,0,0,1,70.65,342.94Z"/>
      <path class="cls-43" d="M78.87,345.74a1.53,1.53,0,0,1-2,1.63,3.06,3.06,0,0,1-2.05-2.78,1.53,1.53,0,0,1,2-1.63A3.06,3.06,0,0,1,78.87,345.74Z"/>
      <path class="cls-43" d="M87.37,348.74a1.53,1.53,0,0,1-2,1.63,3.06,3.06,0,0,1-2.05-2.78,1.53,1.53,0,0,1,2-1.63A3.06,3.06,0,0,1,87.37,348.74Z"/>
      <path class="cls-43" d="M95.53,351.24a1.53,1.53,0,0,1-2,1.63,3.06,3.06,0,0,1-2.05-2.78,1.53,1.53,0,0,1,2-1.63A3.06,3.06,0,0,1,95.53,351.24Z"/>
      <path class="cls-44" d="M103.7,354.24a1.53,1.53,0,0,1-2,1.63,3.06,3.06,0,0,1-2.05-2.78,1.53,1.53,0,0,1,2-1.63A3.06,3.06,0,0,1,103.7,354.24Z"/>
      <path class="cls-45" d="M312.08,312.3c0,1,.75,1.66,1.64,1.36a2.62,2.62,0,0,0,1.56-2.44c0-1-.75-1.66-1.64-1.36A2.62,2.62,0,0,0,312.08,312.3Z"/>
      <path class="cls-45" d="M304.71,315.13c0,1,.75,1.66,1.64,1.36a2.62,2.62,0,0,0,1.56-2.44c0-1-.75-1.66-1.64-1.36A2.62,2.62,0,0,0,304.71,315.13Z"/>
      <path class="cls-45" d="M297.23,318.32c0,1,.75,1.66,1.64,1.36a2.62,2.62,0,0,0,1.56-2.44c0-1-.75-1.66-1.64-1.36A2.62,2.62,0,0,0,297.23,318.32Z"/>
      <path class="cls-45" d="M289.75,321.31c0,1,.75,1.66,1.64,1.36a2.62,2.62,0,0,0,1.56-2.44c0-1-.75-1.66-1.64-1.36A2.62,2.62,0,0,0,289.75,321.31Z"/>
      <path class="cls-45" d="M282.28,324.07c0,1,.75,1.66,1.64,1.36a2.62,2.62,0,0,0,1.56-2.44c0-1-.75-1.66-1.64-1.36A2.62,2.62,0,0,0,282.28,324.07Z"/>
      <path class="cls-46" d="M274.69,327.29c0,1,.75,1.66,1.64,1.36a2.62,2.62,0,0,0,1.56-2.44c0-1-.75-1.66-1.64-1.36A2.62,2.62,0,0,0,274.69,327.29Z"/>
      <path class="cls-47" d="M267.23,330.37c0,1,.75,1.66,1.64,1.36a2.62,2.62,0,0,0,1.56-2.44c0-1-.75-1.66-1.64-1.36A2.62,2.62,0,0,0,267.23,330.37Z"/>
      <path class="cls-11" d="M69,318a1.12,1.12,0,0,1-1.44,1.22,2.23,2.23,0,0,1-1.54-2A1.12,1.12,0,0,1,67.47,316,2.23,2.23,0,0,1,69,318Z"/>
      <path class="cls-11" d="M74.49,319.72a1.12,1.12,0,0,1-1.44,1.22,2.23,2.23,0,0,1-1.54-2,1.12,1.12,0,0,1,1.44-1.22A2.23,2.23,0,0,1,74.49,319.72Z"/>
      <path class="cls-11" d="M71,354.12a1.12,1.12,0,0,1-1.44,1.22,2.23,2.23,0,0,1-1.54-2,1.12,1.12,0,0,1,1.44-1.22A2.23,2.23,0,0,1,71,354.12Z"/>
      <path class="cls-11" d="M76.68,355.82A1.12,1.12,0,0,1,75.24,357a2.23,2.23,0,0,1-1.54-2,1.12,1.12,0,0,1,1.44-1.22A2.23,2.23,0,0,1,76.68,355.82Z"/>
      <path class="cls-11" d="M80.33,321.72a1.12,1.12,0,0,1-1.44,1.22,2.23,2.23,0,0,1-1.54-2,1.12,1.12,0,0,1,1.44-1.22A2.23,2.23,0,0,1,80.33,321.72Z"/>
      <g>
        <polygon class="cls-48" points="184.92 327.75 155.92 318.75 155.92 314 184.67 322.5 184.92 327.75"/>
        <path d="M185.22,328.15c-9.8-2.95-19.67-6-29.41-9.06l-.25-.08v-5.48l.45.14,28.71,8.65.13,0,0,.14C185.06,324.28,185.2,326.23,185.22,328.15Zm-.61-.79a45.13,45.13,0,0,1-.14-4.85l.14.18-28.79-8.35.45-.34v4.75l-.25-.33C165.62,321.33,175.08,324.3,184.61,327.36Z"/>
      </g>
      <polygon class="cls-44" points="161.67 387.13 158.67 386 158.67 383.25 161.54 384.25 161.67 387.13"/>
      <polygon class="cls-44" points="156.54 385.38 153.54 384.25 153.54 381.5 156.42 382.5 156.54 385.38"/>
      <polygon class="cls-49" points="321.83 194.5 321.33 203.17 307.83 207.83 308.33 199 321.83 194.5"/>
      <g class="cls-50">
        <polygon class="cls-51" points="303.71 265.54 306.17 264.59 305.53 285.71 303.2 286.77 303.71 265.54"/>
        <path d="M305.91,265l-.62,20.58-1.83.83.5-20.67,2-.75m.52-.74-.7.27-2,.75-.31.12v.33l-.5,20.67,0,.8.73-.33,1.83-.83.28-.13v-.31l.63-20.58,0-.75Z"/>
      </g>
      <g class="cls-50">
        <polygon class="cls-51" points="298.79 267.41 301.3 266.52 300.79 287.51 298.38 288.45 298.79 267.41"/>
        <path d="M301,266.88l-.5,20.46-1.91.75.4-20.5,2-.71m.52-.71-.68.24-2,.71-.33.12v.35l-.4,20.5v.75l.7-.27,1.91-.75.31-.12v-.33l.5-20.46,0-.72Z"/>
      </g>
    </g>
    <g id="Ebene_20" data-name="Ebene 20">
      <path class="cls-52" d="M112.67,170l41.75,10.75s-.75,15.58-7.08,26.25-26,27-25,28.33,13.67.33,26.33-4S172.33,217.67,177,210s10-22.67,10-22.67l15.67-3.67s22,14,37.67,18.67,37.69,4.56,43.83,4.42c10.58-.25,18.84-5.19,18.11-8.58-.67-3.08-13.61-10.51-13.61-10.51S306,189.33,314,189s17.67-3.67,18.33-6S330,173.67,321,165.67,292,147,292,147s2.76-20.23-4-35.5C280.6,94.75,272,88,272,88L184.33,70s-8.58-1.33-32.58,18.67c-20,16.7-28.76,43-33.09,53C115.87,148.12,112.67,170,112.67,170Z"/>
      <path class="cls-53" d="M302.27,198.17c-.67-3.08-13.61-10.51-13.61-10.51S308,190.33,316,190s15.67-4.67,16.33-7c0,0-26,5.67-61.67-7.33s-33.83-26.5-46.17-30.5c-9.22-3-20.91,2.95-28.5,9.67-10.17,9-18.5,4.5-38,11.5-5.43,1.95-10,8.67-10.33,12l7,1.67s-1,16.33-7.33,27-26,27-25,28.33,13.67.33,26.33-4S172.33,217.67,177,210s10.17-22.17,10.17-22.17l1.63.42,14.71-4.08s21.17,13.5,36.83,18.17,33.69,5.48,39.83,5.33C290.75,207.42,303,201.56,302.27,198.17Z"/>
      <path class="cls-54" d="M273.21,184.82s6.91,5.81,8.33,7.86,3.77,6.76,3.77,6.76,8.33.31,10.84-.47a13,13,0,0,0,4.71-3.14l-6.91-6.13-20.74-4.87"/>
      <path class="cls-55" d="M214,149.33s4,22.33,23.67,33.33,26.67,13,32,14,15.64,2.77,15.64,2.77-5.64-9.77-12-13.43-22.67-9-27-11S232,164.33,227,161s-11-12-11-12Z"/>
      <path class="cls-56" d="M122.93,234.56s20.88,1.51,38.09-10.33,15.07-12.7,17.86-17.22,8.28-19.18,8.28-19.18l1.84.67,14.49-4.33s17.79,13.59,39.31,18.75,28,6.46,40,5a37.26,37.26,0,0,0,19.15-8,71.2,71.2,0,0,1-32.33,3.34c-13-1.58-37.91-10.29-49.73-16.44-10.33-5.38-22.1-12.43-22.1-12.43a13.68,13.68,0,0,1-5.18,5.53c-2.58,1.52-7.94-3.11-7.94-3.11S179.54,198,172,207.66s-16.57,14.2-24.32,18.29-24.54,7.32-24.54,7.32l-.22,1.29"/>
      <path class="cls-56" d="M184.33,70s4.09,8.33,12.33,11.67c6.5,2.63,18.67,5,18.67,5s13,17.67,30,21.33,29.92-1.75,29.92-1.75,4.25,7.25,6.5,20A59,59,0,0,1,282,143.5l11,4.5s2.33-17.33-3-31.33-16.33-26-16.33-26Z"/>
      <path class="cls-56" d="M112.67,170l41.5,11,.25-7.25s-4.5,2.5-17,0a37.53,37.53,0,0,1-15.33-6.08c-4.67-3-7.67-9.33-7.67-9.33Z"/>
      <path class="cls-57" d="M195.26,69s-25,.1-49.5,26.33C119,124,114.26,160,114.26,160s21.5-46.25,42.5-66.25C174.17,77.17,195.26,69,195.26,69Z"/>
      <path class="cls-58" d="M264.26,140.25s11-1,31.75,9c16.42,7.91,31,22,33.5,25s2,10.5,2,10.5-8.5-11.5-29.25-25C291.37,152.66,264.26,140.25,264.26,140.25Z"/>
    </g>
    <g id="Ebene_11" data-name="Ebene 11">
      <path class="cls-39" d="M184.26,66.92l3.39-12.86s30.59-1.21,53.52,6.87c12,4.24,36.55,27.9,36.55,27.9l-13.41,6.89S236.58,80.2,225.48,78.14C205.44,74.43,184.26,66.92,184.26,66.92Z"/>
      <path class="cls-59" d="M274,91l5.5,5.75S302,88.25,298,85.15C294.55,82.5,274,91,274,91Z"/>
      <path class="cls-60" d="M185.5,67.64s7.15,7.58,10.63,9.52c8.6,4.8,15,5.21,15,5.21S209.35,51.58,215.42,45a33.67,33.67,0,0,1,17.36-10.38,86,86,0,0,1,19.33-2.59l-15.85-4.49s-4.87-6.66-8.84-5a24.47,24.47,0,0,0-7.4,5.4s-15.38-1.08-28.11,12.48C182.81,50.1,185.5,67.64,185.5,67.64Z"/>
      <path class="cls-61" d="M218.25,82.54S233.86,100,246.88,101s21.61-6.78,29.45-10.27a99.87,99.87,0,0,1,20.35-6.51L270.56,71.82a115.43,115.43,0,0,1-23,7.71C233.82,82.66,218.25,82.54,218.25,82.54Z"/>
      <path class="cls-39" d="M211.58,81s20.79,2,36.94-1.59c16-3.59,20.72-7.45,20.72-7.45s-1.89-27.49-7.56-32.3a95.46,95.46,0,0,0-8.28-6.51s-23.94-2.4-36.84,10.13C208,51.61,211.58,81,211.58,81Z"/>
      <path d="M278.08,95.48a59.42,59.42,0,0,0,13-4.93,30.92,30.92,0,0,0,5.69-3.73,8.11,8.11,0,0,0,1.06-1.12,2.47,2.47,0,0,0,.3-.5c.06-.15,0-.1.1.06s.12.06-.07,0a5.07,5.07,0,0,0-.72-.13,10.63,10.63,0,0,0-1.63,0A36.06,36.06,0,0,0,289,86.37a59.54,59.54,0,0,0-6.65,2.23A61.46,61.46,0,0,0,276,91.53c-2,1.1-4.1,2.3-6.19,3.48a51.9,51.9,0,0,1-13.61,5.64,29.13,29.13,0,0,1-15.07-.44,46.25,46.25,0,0,1-13.3-6.64,61.88,61.88,0,0,1-5.75-4.63,56.45,56.45,0,0,1-5.2-5.33h0l1.46.74a64.62,64.62,0,0,1-9.25-1.44q-4.51-1-8.9-2.42L198,79.76c-.74-.28-1.49-.54-2.21-.87a39.41,39.41,0,0,1-4.25-2.09,39,39,0,0,1-4-2.57A29.66,29.66,0,0,1,183.87,71h0l-.53-.55.05-.73a113.94,113.94,0,0,1,2.2-15.93A67.42,67.42,0,0,1,187.73,46a32.11,32.11,0,0,1,3.6-7.49,15.57,15.57,0,0,1,2.93-3.22,36.63,36.63,0,0,1,3.31-2.46,37.78,37.78,0,0,1,7.31-3.73,40.27,40.27,0,0,1,7.9-2.12,36.24,36.24,0,0,1,8.23-.45h0L219.6,27.6a6.26,6.26,0,0,1,.41-1.51,7.83,7.83,0,0,1,.68-1.31,7.92,7.92,0,0,1,2-2.13,10.69,10.69,0,0,1,5.33-1.83,9.63,9.63,0,0,1,5.64,1.07,7.35,7.35,0,0,1,2.28,2,7,7,0,0,1,.76,1.3,6.35,6.35,0,0,1,.47,1.51h0l-1.31-1A40,40,0,0,1,244,26.88a44.19,44.19,0,0,1,7.66,2.64,40.38,40.38,0,0,1,7.06,4.09,19.9,19.9,0,0,1,3.11,3A27.32,27.32,0,0,1,264.22,40a52.77,52.77,0,0,1,5.64,15.15A98.49,98.49,0,0,1,272.1,71h0L271,69.24c4.61,2.4,9.27,4.79,13.95,7s9.45,4.58,14.11,7L298,85.39c-4.73-2.16-9.51-4.28-14.32-6.21S274,75,269.19,72.88l-1.07-.48-.06-1.26h0a94.9,94.9,0,0,0-1.84-15.2,49.39,49.39,0,0,0-4.94-14.22,24,24,0,0,0-2-3,16.66,16.66,0,0,0-2.51-2.49,37.3,37.3,0,0,0-6.4-3.88,41.19,41.19,0,0,0-7.09-2.61,37.53,37.53,0,0,0-7.39-1.26l-1.31-1h0c-.11-.14-.3-.47-.48-.69a5.54,5.54,0,0,0-.6-.67,5.14,5.14,0,0,0-1.44-1,7.82,7.82,0,0,0-3.69-.58,8.66,8.66,0,0,0-3.73,1,6,6,0,0,0-1.44,1.13,4.86,4.86,0,0,0-.57.73c-.15.24-.33.59-.41.74l-.67,1.22-.74-.16h0a33.94,33.94,0,0,0-7.53.54,37.48,37.48,0,0,0-7.33,2.07,34.87,34.87,0,0,0-6.7,3.54,33.64,33.64,0,0,0-3,2.3,12.42,12.42,0,0,0-2.34,2.64A29.14,29.14,0,0,0,190.75,47a64.25,64.25,0,0,0-1.93,7.46,110.78,110.78,0,0,0-1.92,15.42l-.48-1.29h0a28.08,28.08,0,0,0,3.26,2.61,37.13,37.13,0,0,0,7.57,4c1.32.53,2.7,1,4.12,1.42,2.82.89,5.68,1.64,8.56,2.26q2.16.47,4.33.82c1.43.23,2.93.44,4.27.54l.9.07.56.68h0A53,53,0,0,0,224.77,86a57.85,57.85,0,0,0,5.37,4.33,42.42,42.42,0,0,0,12.09,6.21,25.81,25.81,0,0,0,13.17.6,50.15,50.15,0,0,0,12.81-5c2.1-1.07,4.19-2.23,6.41-3.27a65.61,65.61,0,0,1,6.79-2.69c2.3-.78,4.64-1.42,7-2A41,41,0,0,1,295.67,83a14.48,14.48,0,0,1,1.94,0,7.18,7.18,0,0,1,1,.16,2.17,2.17,0,0,1,1.41.93,2.12,2.12,0,0,1,.15,1.79,4.49,4.49,0,0,1-.54,1.08,10.27,10.27,0,0,1-1.3,1.55,27.94,27.94,0,0,1-6,4.4,44.83,44.83,0,0,1-13.76,4.92Z"/>
      <path d="M217.16,80.26c4.56.18,9.16.18,13.73,0A96.73,96.73,0,0,0,244.47,79c4.48-.83,8.95-1.91,13.33-3.15,2.19-.63,4.35-1.35,6.49-2.12a34.94,34.94,0,0,0,6.08-2.81l.76.88A26,26,0,0,1,265,75.44,59.63,59.63,0,0,1,258.47,78c-2.22.74-4.46,1.37-6.72,1.92s-4.51,1.07-6.82,1.52a91.12,91.12,0,0,1-14,1.3c-4.66.12-9.29,0-13.95-.31Z"/>
      <path d="M210,81a139.26,139.26,0,0,1,0-20.39,53.45,53.45,0,0,1,1.71-10.15,18,18,0,0,1,2.14-4.86,24.81,24.81,0,0,1,3.42-4,27.22,27.22,0,0,1,8.86-5.33A74.68,74.68,0,0,1,236,33.42a40.83,40.83,0,0,1,20.3-.26l-.27.9a35.75,35.75,0,0,0-9.88-1,43,43,0,0,0-9.85,1.53,73.42,73.42,0,0,0-9.55,3,25.69,25.69,0,0,0-8.28,5.18,23.22,23.22,0,0,0-3.1,3.73,16.29,16.29,0,0,0-1.83,4.4,51.66,51.66,0,0,0-1.46,9.8,137.22,137.22,0,0,0,.36,20Z"/>
      <g class="cls-62">
        <path d="M237,33.34a38.16,38.16,0,0,1,5.59,3.36,28.37,28.37,0,0,1,4.88,4.37,19.07,19.07,0,0,1,3.39,5.65,43.5,43.5,0,0,1,2,6.24,97.26,97.26,0,0,1,2.06,12.85c.42,4.32.68,8.63.73,13H254c0-4.27-.15-8.58-.5-12.85a96,96,0,0,0-1.82-12.71,42.45,42.45,0,0,0-1.8-6.12,18.28,18.28,0,0,0-3.13-5.44,27.53,27.53,0,0,0-4.65-4.33,37.51,37.51,0,0,0-5.41-3.41Z"/>
      </g>
      <polygon points="153.64 181.13 63.03 159.59 63.31 158.43 153.94 179.87 153.64 181.13"/>
    </g>
    <g id="Ebene_21" data-name="Ebene 21">
      <path class="cls-63" d="M95.83,164.33s.83-11.08-3.5-21c-2.51-5.74-10.17-7.83-11.33-11-.83-2.26,7.33-5,13.67.67s12.25,22.5,12.25,22.5,1.25-7.33-2.75-17.17c-1.59-3.91,3.83-1.78,7.17,3C116.33,148.5,113,160,113,160"/>
      <path class="cls-63" d="M94.33,163.5s-.84-12-4.67-15.5c-4.33-4-7.17-4.53-9.5-2.67-3.33,2.67,4.19,6.23,6.17,10.5a9.76,9.76,0,0,1,.33,7.83"/>
      <path class="cls-63" d="M98,129.33s-2.5-7.5-7.67-11.67c-3.25-2.62.5-6.83,5-2.33C98.87,118.87,98,129.33,98,129.33Z"/>
      <path class="cls-63" d="M115.72,135.69s-5.27-14.52-1.69-15.57S115.72,135.69,115.72,135.69Z"/>
      <path class="cls-63" d="M78.82,159.4s-3.44-7.94-6.35-9.72-7.3-1.82-8.49.21,4.65,3.26,7,5A64.58,64.58,0,0,0,78.82,159.4Z"/>
      <path class="cls-64" d="M300.85,153s-1.71-10.23,1.75-16.91,11.38-10.38,14.08-7.34-5.3,7.49-8.35,12.5c-2,3.32-3.71,12.57-3.71,12.57"/>
      <path class="cls-63" d="M296.93,132.09s.14-5.75,2.05-8.22,4.7-3.48,4.93-1C304.32,127.16,296.93,132.09,296.93,132.09Z"/>
      <path class="cls-63" d="M314.92,143.5s3.08-7.5,8.42-8.83,6,3.25.33,4.58A20.32,20.32,0,0,0,314.92,143.5Z"/>
      <path class="cls-22" d="M72.2,160.37c-1.33-.18-6.53.31-7.78,3.14-2.25,5.08-.92,15.25,1.08,15.75s3.17-12.33,3.17-12.33-.33,15.83,2,17.33,1.5-17.67,1.5-17.67.5,10.17,3,10.67,1.5-7.5,3-9.67,8.5-3.67,8.5-3.67S75.17,160.76,72.2,160.37Z"/>
      <path class="cls-22" d="M77.51,181.26s-2.5,13.85.5,15.35S77.51,181.26,77.51,181.26Z"/>
      <path class="cls-65" d="M94.11,179.3s-2.95,23.21.27,27.32c1.5,1.91,2-12.7,2-12.7S96,224,99,226.31s.27-29.82.27-29.82.44,8.39,2.63,9-.53-22.89-.53-22.89-2.14,4.13-3.25,3.92C95,185.91,94.11,179.3,94.11,179.3Z"/>
      <path class="cls-22" d="M111.37,177.75s-3.37,18.27,0,21.93S111.37,177.75,111.37,177.75Z"/>
      <path class="cls-66" d="M81.36,236.76s-1.21,22.62,1.66,25S85.58,243,85.58,243s1.37,46.84,3.66,48.47c3.83,2.73.6-52.32.6-52.32Z"/>
      <path class="cls-67" d="M216.43,192.25s-.33,20.07,2.17,21c4.07,1.55,3.47-14.38,3.47-14.38s0,47.58,3.47,49.05,0-52.37,0-52.37l-9.1-3.32"/>
      <path class="cls-68" d="M248.92,210.72s-3.17,16.35,0,18S248.92,210.72,248.92,210.72Z"/>
      <path class="cls-67" d="M204.86,236.57s.49,17.88,2,18.65,2.22-17.88,2.22-17.88.77,12.4,2.32,12.78.39-15.88.39-15.88Z"/>
      <path class="cls-69" d="M308,225.61s-2.24,26.08.37,26.45,3-24.59,3-24.59.75,13.41,3,13.78.75-18.25.75-18.25Z"/>
      <path class="cls-70" d="M234.06,252.72s-.91,35.88,1.52,36.41S238,266.81,238,266.81s-.3,42.53,2.73,43.06S242,254.58,242,254.58s0,11.69,1.82,12.23S245.29,249,245.29,249Z"/>
      <path class="cls-68" d="M248.35,301.06s-2.84,24.31-.26,26.38C251.73,330.36,248.35,301.06,248.35,301.06Z"/>
      <path class="cls-63" d="M165,200.66s-1.9,6.62-4.2,9.1c-2.45,2.63,2.18,4.95,4.07-.14C166.08,206.24,165,200.66,165,200.66Z"/>
      <path class="cls-71" d="M139.38,233.49s-3.23,10.63,0,11.86,0-11.86,0-11.86"/>
      <path class="cls-72" d="M129.75,141.37s-9.06,16-5.16,19.71S129.75,141.37,129.75,141.37Z"/>
      <path class="cls-72" d="M131.95,157.22s-5.69,10.26-2.73,12.27S131.95,157.22,131.95,157.22Z"/>
      <path class="cls-72" d="M147.72,155s-5.54,12.49-2.55,14.72S147.72,155,147.72,155Z"/>
      <path class="cls-73" d="M101.54,152.38s-4.25-10.25-10.54-16A17.47,17.47,0,0,0,83,132s3.23-4.06,8.83.33C101.83,140.17,101.54,152.38,101.54,152.38Z"/>
      <path class="cls-74" d="M65.34,150.1a5.85,5.85,0,0,1,4.71-.47c2.36.94,4.24,4.71,4.24,4.71Z"/>
      <path class="cls-75" d="M81.61,145.29a8.06,8.06,0,0,1,5.44,1.58c2.31,1.91,4.24,8.1,4.24,8.1S81.29,148,81.61,145.29Z"/>
      <path class="cls-76" d="M110.75,159.21s-3.46,1.1-4.56,3.93,3.3,5.18,3.3,5.18-7.07-1.1-5.66-4.71S110.75,159.21,110.75,159.21Z"/>
      <path class="cls-76" d="M100.85,166.59s-3.14-3-1.89-4.4,6-2.67,6-2.67-3.77,1.26-4.24,2.67S100.85,166.59,100.85,166.59Z"/>
      <path class="cls-73" d="M302,142.67s.67-7.5,4.83-10.67,5.33-3.17,6.83-2.17-3.33,3.5-6.17,6.17A45.36,45.36,0,0,0,302,142.67Z"/>
      <path class="cls-77" d="M82.31,242.08S81,255.29,82.68,256,82.31,242.08,82.31,242.08Z"/>
      <path class="cls-78" d="M93.93,190.5s-.87,9.6,0,10.65S93.93,190.5,93.93,190.5Z"/>
      <path class="cls-79" d="M97.67,205.81s-.7,13.79.7,15.36S97.67,205.81,97.67,205.81Z"/>
      <path class="cls-73" d="M70.33,161.08s-4.49,1.44-5.33,3.5c-1.17,2.83-1.17,6.83,0,7.33s.6-5.75,1.67-7.17A22.19,22.19,0,0,1,70.33,161.08Z"/>
      <path class="cls-78" d="M69.79,171s-1.25,7.5.5,8.33C71.39,179.85,69.79,171,69.79,171Z"/>
      <path class="cls-78" d="M77.33,186.33s-.83,7,0,7.67S77.33,186.33,77.33,186.33Z"/>
      <path class="cls-80" d="M235.68,252s-1,16.48.4,17.37S235.68,252,235.68,252Z"/>
      <path class="cls-81" d="M206.25,236.79s-.71,8.32.53,8.67S206.25,236.79,206.25,236.79Z"/>
      <g class="cls-82">
        <path class="cls-83" d="M74.54,177.13a1.51,1.51,0,0,0,1.81-.92,8.66,8.66,0,0,0,.67-2.48c.29-1.8.59-3.6.93-5.42.08.92.1,1.85.09,2.77s-.06,1.84-.15,2.76a7.81,7.81,0,0,1-.66,2.83A1.94,1.94,0,0,1,76,177.78,1.3,1.3,0,0,1,74.54,177.13Z"/>
      </g>
      <g class="cls-82">
        <path class="cls-83" d="M70.17,184.38a1.82,1.82,0,0,0,1.66-1.52,12.6,12.6,0,0,0,.32-2.59c.12-1.82.21-3.66.4-5.51a24.28,24.28,0,0,1,.55,5.55c0,.47,0,.93-.06,1.4a4.81,4.81,0,0,1-.32,1.47,2.41,2.41,0,0,1-1,1.22A1.54,1.54,0,0,1,70.17,184.38Z"/>
      </g>
      <g class="cls-82">
        <path class="cls-83" d="M65.37,179.57a8.51,8.51,0,0,0,1.13-1.41,4.92,4.92,0,0,0,.66-1.56c.29-1.22.54-2.46.88-3.73a12.79,12.79,0,0,1,0,3.9,4.07,4.07,0,0,1-.78,2A2.09,2.09,0,0,1,65.37,179.57Z"/>
      </g>
      <g class="cls-82">
        <path class="cls-83" d="M101.17,205.5a1.36,1.36,0,0,0,1-.23,1.42,1.42,0,0,0,.42-.8,12.76,12.76,0,0,0,.27-2.2c.09-1.53,0-3.09,0-4.64s-.13-3.12-.25-4.68l-.3-4.7c.35,1.53.65,3.08.88,4.63s.45,3.11.57,4.69a36.6,36.6,0,0,1,.12,4.76,8.08,8.08,0,0,1-.45,2.43,1.75,1.75,0,0,1-1,1A1.27,1.27,0,0,1,101.17,205.5Z"/>
      </g>
      <g class="cls-82">
        <path class="cls-83" d="M98.42,226.38a1.53,1.53,0,0,0,.79.35c.21,0,.33-.13.48-.34a.83.83,0,0,0,.1-.28c0-.14.07-.25.09-.41s.09-.59.13-.9c.15-1.23.19-2.51.25-3.77s.1-2.54.1-3.82l.06-3.84a36.52,36.52,0,0,1,.51,3.82c.09,1.28.2,2.56.21,3.85a31,31,0,0,1-.15,3.88,6.59,6.59,0,0,1-.17,1,2.7,2.7,0,0,1-.17.52,1.68,1.68,0,0,1-.36.54,1.54,1.54,0,0,1-.56.32,1,1,0,0,1-.68,0A1.24,1.24,0,0,1,98.42,226.38Z"/>
      </g>
      <g class="cls-82">
        <path class="cls-83" d="M111.42,200.38a1.4,1.4,0,0,0,1-1,6.25,6.25,0,0,0,.33-1.45,19.66,19.66,0,0,0,.08-3.21c-.08-2.19-.25-4.39-.31-6.62a36.35,36.35,0,0,1,1.22,6.56,15.3,15.3,0,0,1,0,3.42,3.71,3.71,0,0,1-.67,1.69,1.79,1.79,0,0,1-.76.61A1.08,1.08,0,0,1,111.42,200.38Z"/>
      </g>
      <g class="cls-82">
        <path class="cls-83" d="M160.42,212.5a2.52,2.52,0,0,0,1.47.05,2.45,2.45,0,0,0,1.12-.74,7.53,7.53,0,0,0,1.33-2.55,18.62,18.62,0,0,0,.83-6,8.67,8.67,0,0,1,.58,3.13,10.06,10.06,0,0,1-.48,3.19,6.17,6.17,0,0,1-1.72,2.82,2.7,2.7,0,0,1-1.6.66A2.2,2.2,0,0,1,160.42,212.5Z"/>
      </g>
      <g class="cls-82">
        <path class="cls-83" d="M145.18,169.68a2.68,2.68,0,0,0,1.78-1.91,10.91,10.91,0,0,0,.51-2.79c.16-2,.19-4,.33-6a24.25,24.25,0,0,1,.61,6,8.49,8.49,0,0,1-.56,3.1,3.17,3.17,0,0,1-1.07,1.3A1.81,1.81,0,0,1,145.18,169.68Z"/>
      </g>
      <g class="cls-82">
        <path class="cls-83" d="M129.22,169.49c.81-.3,1-1,1.29-1.75a16.64,16.64,0,0,0,.53-2.29c.3-1.6.6-3.19.88-4.83a11.08,11.08,0,0,1,.25,2.49,20.68,20.68,0,0,1-.17,2.49,7.59,7.59,0,0,1-.65,2.49,3.11,3.11,0,0,1-.83,1.08A1.34,1.34,0,0,1,129.22,169.49Z"/>
      </g>
      <g class="cls-82">
        <path class="cls-83" d="M124,161a1.87,1.87,0,0,0,1.27.22,1.71,1.71,0,0,0,.76-.76,14.62,14.62,0,0,0,1-2.69c.57-1.91,1.1-3.85,1.7-5.78,0,1-.15,2-.29,3s-.32,2-.56,3a11.88,11.88,0,0,1-1,3,1.89,1.89,0,0,1-1.53,1A1.46,1.46,0,0,1,124,161Z"/>
      </g>
      <g class="cls-82">
        <path class="cls-83" d="M77.29,196.5a3.3,3.3,0,0,0,1.13,0,.56.56,0,0,0,.46-.51,5.72,5.72,0,0,0,.05-1c0-.38,0-.78,0-1.17,0-1.58-.1-3.17,0-4.79a21.35,21.35,0,0,1,1,4.73c0,.4.05.81.06,1.22a3.59,3.59,0,0,1-.17,1.34,1.35,1.35,0,0,1-.52.66,1.17,1.17,0,0,1-.79.17A1.9,1.9,0,0,1,77.29,196.5Z"/>
      </g>
      <g class="cls-82">
        <path class="cls-83" d="M88.54,290.75c.3.31.74.65,1,.56s.4-.5.47-.91a19.11,19.11,0,0,0,.25-2.62c.11-1.8.22-3.6.29-5.41.14-3.62.22-7.25.25-10.87s.11-7.24-.09-10.87-.25-7.25-.32-10.88c.32,3.62.59,7.24.86,10.86s.37,7.27.4,10.9,0,7.27-.15,10.9c-.06,1.82-.1,3.64-.27,5.46a10.51,10.51,0,0,1-.55,2.75,3,3,0,0,1-.36.67,1,1,0,0,1-.75.45,1,1,0,0,1-.71-.38A2.2,2.2,0,0,1,88.54,290.75Z"/>
      </g>
      <g class="cls-82">
        <path class="cls-83" d="M81.92,260.5c.42.37.79.74,1.17,1a1.79,1.79,0,0,0,.53.29c.16,0,.16,0,.25-.07a2.66,2.66,0,0,0,.49-1.15c.12-.48.21-1,.3-1.5.33-2,.55-4.14.88-6.23a30.83,30.83,0,0,1,0,6.35,12.68,12.68,0,0,1-.26,1.6,6.39,6.39,0,0,1-.24.82,2,2,0,0,1-.56.85,1.22,1.22,0,0,1-.6.27,1.16,1.16,0,0,1-.62-.11,1.9,1.9,0,0,1-.73-.63A3.58,3.58,0,0,1,81.92,260.5Z"/>
      </g>
      <g class="cls-82">
        <path class="cls-83" d="M138.67,245.13a1.22,1.22,0,0,0,1.19,0,1.72,1.72,0,0,0,.59-1,10.68,10.68,0,0,0,.36-2.59,20,20,0,0,0-.64-5.36,7.21,7.21,0,0,1,1.27,2.54,9.25,9.25,0,0,1,.37,2.85,7.32,7.32,0,0,1-.64,2.85,2,2,0,0,1-1.11,1.13A1.3,1.3,0,0,1,138.67,245.13Z"/>
      </g>
      <g class="cls-84">
        <path class="cls-85" d="M218.39,213.75c.48-.24.92-.43,1.31-.64a2,2,0,0,0,.81-.7,1,1,0,0,0,.08-.19c0-.08,0-.21.07-.32l.11-.71.21-1.44c.29-1.93.6-3.86,1.09-5.78a41.88,41.88,0,0,1-.07,5.89c0,.49-.08,1-.14,1.47l-.1.74c0,.13,0,.25-.07.4a1.67,1.67,0,0,1-.2.49,2.08,2.08,0,0,1-1.52,1A2.86,2.86,0,0,1,218.39,213.75Z"/>
      </g>
      <g class="cls-86">
        <path class="cls-85" d="M206.29,254.5a2.5,2.5,0,0,0,.58.5c.24.1.26,0,.34-.08a4.44,4.44,0,0,0,.46-1.29,29.64,29.64,0,0,0,.51-3.06c.26-2.09.44-4.2.73-6.33a31.37,31.37,0,0,1,.2,6.42,15.81,15.81,0,0,1-.51,3.23,3.22,3.22,0,0,1-.93,1.55.82.82,0,0,1-.61.16.74.74,0,0,1-.47-.3A1.61,1.61,0,0,1,206.29,254.5Z"/>
      </g>
      <g class="cls-86">
        <path class="cls-85" d="M211.45,250.13a15.38,15.38,0,0,0,.74-3.6,25.54,25.54,0,0,0,.13-3.7l-.1-3.78c0-1.26-.05-2.53-.05-3.8.26,1.24.49,2.49.64,3.75s.33,2.52.41,3.79a19.74,19.74,0,0,1,0,3.87,7.33,7.33,0,0,1-.51,1.9A3.4,3.4,0,0,1,211.45,250.13Z"/>
      </g>
      <g class="cls-86">
        <path class="cls-85" d="M224.83,247.9a.81.81,0,0,0,.79.07,1.45,1.45,0,0,0,.48-.53,5.62,5.62,0,0,0,.45-1.57,28.62,28.62,0,0,0,.35-3.68c.05-1.25.09-2.51.12-3.77l.11-3.8c.25,1.25.43,2.51.57,3.77s.21,2.54.22,3.82a21.54,21.54,0,0,1-.25,3.87,3.5,3.5,0,0,1-.89,1.94,1.66,1.66,0,0,1-1.06.5A.92.92,0,0,1,224.83,247.9Z"/>
      </g>
      <g class="cls-86">
        <path class="cls-85" d="M247.67,228a3.51,3.51,0,0,0,1.25.88,1,1,0,0,0,.61,0,1.55,1.55,0,0,0,.11-.37,26.79,26.79,0,0,0,.25-3.1c.09-2.13.14-4.28.41-6.44a24.46,24.46,0,0,1,.47,3.22,29.67,29.67,0,0,1,.11,3.25,12,12,0,0,1-.43,3.31,2.14,2.14,0,0,1-.21.45,1.09,1.09,0,0,1-.22.25.94.94,0,0,1-.22.11.58.58,0,0,1-.15,0,1.55,1.55,0,0,1-.95-.25A2.7,2.7,0,0,1,247.67,228Z"/>
      </g>
      <g class="cls-86">
        <path class="cls-85" d="M307.3,251.54a1.9,1.9,0,0,0,.76.54.69.69,0,0,0,.69-.13,2,2,0,0,0,.51-.63,5.36,5.36,0,0,0,.26-.8c.25-1.22.43-2.52.6-3.82.33-2.6.62-5.22,1.11-7.85a38.81,38.81,0,0,1,.06,8,17.2,17.2,0,0,1-.76,4,3.89,3.89,0,0,1-.53,1,2.23,2.23,0,0,1-.92.71,1.17,1.17,0,0,1-1.2-.13A1.7,1.7,0,0,1,307.3,251.54Z"/>
      </g>
      <g class="cls-86">
        <path class="cls-85" d="M313.64,241.72a.66.66,0,0,0,.67-.35,2.65,2.65,0,0,0,.31-.73A12.76,12.76,0,0,0,315,239c.21-1.14.39-2.31.49-3.49.22-2.37.3-4.76.42-7.2a22.87,22.87,0,0,1,.61,3.61,27.62,27.62,0,0,1,.1,3.67,18.09,18.09,0,0,1-.49,3.68,6.33,6.33,0,0,1-.77,1.77,2.42,2.42,0,0,1-.72.73A.79.79,0,0,1,313.64,241.72Z"/>
      </g>
      <g class="cls-86">
        <path class="cls-85" d="M248.09,327.44a.82.82,0,0,0,.88-.09,1.63,1.63,0,0,0,.4-.78,9.27,9.27,0,0,0,.25-1.94c.07-1.33.08-2.72.07-4.09,0-2.75-.09-5.51-.15-8.29a45,45,0,0,1,1.09,8.27,29.67,29.67,0,0,1-.07,4.21,6.41,6.41,0,0,1-.59,2.11,1.84,1.84,0,0,1-.81.86A.92.92,0,0,1,248.09,327.44Z"/>
      </g>
      <g class="cls-86">
        <path class="cls-85" d="M239.92,308.87c0,.46.24.9.59.9s.9-.13.86-.32a10.58,10.58,0,0,0,.4-2.49c.14-1.76.24-3.54.31-5.32l.21-5.37c.08-1.79.16-3.59.28-5.38a84.47,84.47,0,0,1,.57,10.78,43,43,0,0,1-.35,5.42,7.59,7.59,0,0,1-.81,2.73,1,1,0,0,1-.39.34,1.25,1.25,0,0,1-.4.09,1.72,1.72,0,0,1-.78-.08.82.82,0,0,1-.53-.59A1.25,1.25,0,0,1,239.92,308.87Z"/>
      </g>
      <g class="cls-86">
        <path class="cls-85" d="M234.79,289a1.46,1.46,0,0,0,1.43-.12,1.69,1.69,0,0,0,.24-.21s0-.12.06-.22a6.7,6.7,0,0,0,.15-.74c.16-1.05.31-2.15.43-3.25.26-2.2.5-4.42.91-6.64a37.25,37.25,0,0,1,.13,6.73,19.09,19.09,0,0,1-.48,3.38,4.76,4.76,0,0,1-.32.86,1.45,1.45,0,0,1-.37.49,1.62,1.62,0,0,1-.47.23A1.5,1.5,0,0,1,234.79,289Z"/>
      </g>
      <g class="cls-86">
        <path class="cls-85" d="M242.65,265.14a3.66,3.66,0,0,0,.67,1,.74.74,0,0,0,.78.22c.35-.09.37-.16.55-.48a5.48,5.48,0,0,0,.34-1,27.57,27.57,0,0,0,.42-4.86c.05-3.31,0-6.64-.11-10,.32,1.64.55,3.3.74,5s.31,3.34.34,5a23.35,23.35,0,0,1-.33,5.1,4.49,4.49,0,0,1-.46,1.32,1.74,1.74,0,0,1-.56.64,1.67,1.67,0,0,1-.84.25,1.5,1.5,0,0,1-.83-.21,1.51,1.51,0,0,1-.52-.59A2.27,2.27,0,0,1,242.65,265.14Z"/>
      </g>
      <path class="cls-73" d="M77.67,162.25s-4.12,1-4.62,3.75a12.53,12.53,0,0,0,.63,5.75s.13-3.75.88-5.37A21.87,21.87,0,0,1,77.67,162.25Z"/>
      <path class="cls-79" d="M110.92,187.38s-1.37,7.63-.12,8.63C112.67,197.5,110.92,187.38,110.92,187.38Z"/>
      <path class="cls-73" d="M126.79,149.13s-3.12,6.25-2.12,8.25S126.79,149.13,126.79,149.13Z"/>
      <path class="cls-79" d="M130.54,160.75s-2.63,4.88-1.37,6S130.54,160.75,130.54,160.75Z"/>
      <path class="cls-73" d="M163.67,205.75s-3.2,4.49-2.37,5.25C162.79,212.38,163.67,205.75,163.67,205.75Z"/>
      <path class="cls-87" d="M146.29,160s-2.37,4.63-1.37,6.25S146.29,160,146.29,160Z"/>
      <path class="cls-88" d="M87.28,256.39s-.45,20,1.39,24.23C90.27,284.28,87.28,256.39,87.28,256.39Z"/>
      <path class="cls-73" d="M139,237.5s-1.25,4.38-.25,5.13S139,237.5,139,237.5Z"/>
      <path class="cls-89" d="M248.29,219.38s-1.25,6.31.13,7.48S248.29,219.38,248.29,219.38Z"/>
      <path class="cls-89" d="M314,223.3s1.71,10.89.53,12.23C312.19,238.25,314,223.3,314,223.3Z"/>
      <path class="cls-89" d="M248.07,313.34s-1.34,8.45.1,10.31S248.07,313.34,248.07,313.34Z"/>
      <path class="cls-89" d="M238.82,278s-.33,20,1.08,20.69S238.82,278,238.82,278Z"/>
      <path class="cls-89" d="M242.93,253.45s-.87,10,.33,10.82S242.93,253.45,242.93,253.45Z"/>
      <path class="cls-89" d="M218.37,201.29s-1.32,8.75.33,10.06S218.37,201.29,218.37,201.29Z"/>
      <path class="cls-90" d="M224.16,223.67s-.69,18.46.83,20.33S224.16,223.67,224.16,223.67Z"/>
    </g>
    <g id="Ebene_16" data-name="Ebene 16">
      <path d="M110.59,170.17a125.74,125.74,0,0,1,2.9-16.41,153.93,153.93,0,0,1,4.73-15.87,136.51,136.51,0,0,1,14.71-29.63A128.46,128.46,0,0,1,143,95.1a104.75,104.75,0,0,1,11.82-11.66,79.85,79.85,0,0,1,13.77-9.37,60.12,60.12,0,0,1,7.65-3.43c1.32-.48,2.66-.91,4-1.28a29.08,29.08,0,0,1,4.28-.84l.25,3a27,27,0,0,0-3.73.79c-1.26.35-2.52.77-3.75,1.23a57,57,0,0,0-7.23,3.33A76.63,76.63,0,0,0,157,86a101.37,101.37,0,0,0-11.33,11.4A126.49,126.49,0,0,0,136,110.26a132.76,132.76,0,0,0-14.06,28.94,150,150,0,0,0-4.48,15.5,122.41,122.41,0,0,0-2.67,15.8Z"/>
      <path d="M271.67,140.67a90.44,90.44,0,0,1,24.95,7.49A101.77,101.77,0,0,1,319,161.89a75.11,75.11,0,0,1,9.61,9.16,36,36,0,0,1,4,5.57,15.83,15.83,0,0,1,1.48,3.4,8.2,8.2,0,0,1,.23,1,5.65,5.65,0,0,1,.11,1.17,5.88,5.88,0,0,1-.52,2.39,8.57,8.57,0,0,1-2.7,3.26,16,16,0,0,1-3.22,1.88,29.82,29.82,0,0,1-6.67,2,65.66,65.66,0,0,1-13.36.91,137,137,0,0,1-26.07-3.46,151.84,151.84,0,0,1-25.12-7.62,108.51,108.51,0,0,1-23.05-12.69,82.87,82.87,0,0,1-10-8.56c-1.55-1.57-3-3.2-4.43-4.91a40.3,40.3,0,0,1-3.84-5.49l1.91-1.1a57.16,57.16,0,0,0,8.45,9.32,94.14,94.14,0,0,0,10,7.82,118.48,118.48,0,0,0,22.58,11.66c4,1.57,8,2.93,12.08,4.11s8.23,2.24,12.41,3.15a141.6,141.6,0,0,0,25.24,3.38,61.45,61.45,0,0,0,12.46-.77,27.86,27.86,0,0,0,5.75-1.63,11.85,11.85,0,0,0,2.39-1.33,4.56,4.56,0,0,0,1.46-1.62,2.24,2.24,0,0,0,0-1.77,11.91,11.91,0,0,0-1.07-2.54,32.19,32.19,0,0,0-3.48-5,75,75,0,0,0-8.91-8.93A97.62,97.62,0,0,0,306.51,157c-1.77-1.17-3.62-2.23-5.46-3.3s-3.72-2.09-5.63-3.05A160.78,160.78,0,0,0,271.67,140.67Z"/>
      <path d="M275,88.67a11.33,11.33,0,0,1,1,.68c.3.22.59.44.87.67.56.46,1.08.94,1.59,1.42a33.7,33.7,0,0,1,2.79,3.1,47.56,47.56,0,0,1,4.5,6.83,65.06,65.06,0,0,1,3.4,7.32l.73,1.87.65,1.9c.46,1.24.82,2.57,1.18,3.88a61.24,61.24,0,0,1,1.44,7.94c.33,2.66.5,5.31.58,8a118,118,0,0,1-.6,15.9l-3-.33a115.17,115.17,0,0,0,.29-15.44,70.92,70.92,0,0,0-2.19-15.12c-.36-1.2-.7-2.4-1.17-3.6l-.65-1.8-.73-1.77a61.3,61.3,0,0,0-3.32-6.84,43.67,43.67,0,0,0-4.23-6.18,29.7,29.7,0,0,0-2.5-2.69c-.44-.41-.89-.8-1.35-1.17-.23-.18-.46-.35-.69-.51s-.5-.33-.6-.38Z"/>
      <path d="M154.42,173.82a42.76,42.76,0,0,1,.3,10.38,55.39,55.39,0,0,1-1.84,10.27,52.92,52.92,0,0,1-9.5,18.66c-4.24,5.55-9.34,10.27-14.29,14.94-1.24,1.16-2.46,2.35-3.56,3.55a9.78,9.78,0,0,0-1.36,1.79,1.34,1.34,0,0,0-.12.3c0,.06,0,0,0-.09s-.09-.1,0-.06a3.3,3.3,0,0,0,.4.13,14.89,14.89,0,0,0,4.68.3,40,40,0,0,0,4.94-.63,80.82,80.82,0,0,0,19.07-6.3,61.11,61.11,0,0,0,16.55-10.91,53.28,53.28,0,0,0,11.31-16.09A95.36,95.36,0,0,0,187.33,181a35.13,35.13,0,0,1-.42,10.38,45.68,45.68,0,0,1-3,10A51.68,51.68,0,0,1,172,218.68a63,63,0,0,1-17.74,11.07,89.3,89.3,0,0,1-19.87,5.95,49.94,49.94,0,0,1-5.21.6,24.19,24.19,0,0,1-2.68,0,11.48,11.48,0,0,1-2.8-.44,4.42,4.42,0,0,1-.8-.3,2.18,2.18,0,0,1-.94-.93,2.13,2.13,0,0,1-.16-1.34,3.46,3.46,0,0,1,.31-.9,11.59,11.59,0,0,1,1.67-2.31c1.18-1.33,2.41-2.52,3.6-3.74a118.27,118.27,0,0,0,13.29-15.21,62.7,62.7,0,0,0,8.79-17.69c1-3.16,1.88-6.39,2.7-9.66S153.7,177.21,154.42,173.82Z"/>
      <path d="M196.53,178.22c4.78,2.88,9.47,5.68,14.21,8.4s9.47,5.39,14.38,7.75a135.1,135.1,0,0,0,15.1,6.12,113,113,0,0,0,15.71,4.17c10.62,2,21.65,2.67,32.19.71a37,37,0,0,0,7.56-2.27,16.8,16.8,0,0,0,3.29-1.86,6.54,6.54,0,0,0,2.15-2.51c.06,0,.05-.41-.19-.88a7.19,7.19,0,0,0-1-1.42,23.27,23.27,0,0,0-2.85-2.69,63.74,63.74,0,0,0-6.63-4.67l.92-1.65a61,61,0,0,1,7.17,4.44,25.64,25.64,0,0,1,3.3,2.83,9.75,9.75,0,0,1,1.45,1.9,4.75,4.75,0,0,1,.52,1.33,3.23,3.23,0,0,1-.09,1.76,9.19,9.19,0,0,1-3,3.88,19.73,19.73,0,0,1-3.8,2.36,37.74,37.74,0,0,1-8.17,2.73A71.42,71.42,0,0,1,272,210.19a99.88,99.88,0,0,1-16.75-1.71A114.72,114.72,0,0,1,239,204.21a138.94,138.94,0,0,1-15.5-6.43C213.46,192.88,203.86,186.73,196.53,178.22Z"/>
      <path d="M210.58,155.71a7.39,7.39,0,0,1,.86-4.25,7,7,0,0,1,1.35-1.84,7.24,7.24,0,0,1,1.85-1.37,11.94,11.94,0,0,1,4.18-1.28,12.07,12.07,0,0,1,4.27.15c-1.34.54-2.64,1-3.91,1.41a29.57,29.57,0,0,0-3.61,1.48,8.82,8.82,0,0,0-2.89,2.28A15.1,15.1,0,0,0,210.58,155.71Z"/>
      <path d="M215,149.21a46.51,46.51,0,0,0,4.48,12.37A50,50,0,0,0,227,172.4a52.76,52.76,0,0,0,4.73,4.6,66,66,0,0,0,5.29,4,102.68,102.68,0,0,0,11.51,6.8,100.72,100.72,0,0,0,25.3,8.69,90.55,90.55,0,0,0,13.32,1.74,53.25,53.25,0,0,0,6.68,0,18.12,18.12,0,0,0,3.21-.54,8.78,8.78,0,0,0,1.48-.54,3.55,3.55,0,0,0,.62-.39,2,2,0,0,0,.23-.22c.06-.05.11-.2.11-.13l1,.09a1.45,1.45,0,0,1-.26.63,2.93,2.93,0,0,1-.34.4,4.55,4.55,0,0,1-.77.58,8.79,8.79,0,0,1-1.65.76,17,17,0,0,1-3.44.8,54.36,54.36,0,0,1-6.89.3,92.52,92.52,0,0,1-13.66-1.34,97.83,97.83,0,0,1-26.12-8.39,89.67,89.67,0,0,1-11.9-6.94,56.32,56.32,0,0,1-10.51-9.07A49,49,0,0,1,213,149.46Z"/>
      <g class="cls-24">
        <path class="cls-39" d="M223.63,132.75c-.63,3.91-4.28,5.93-10,5.75-5.17-.17-8.85-4.35-8-8.4a9.7,9.7,0,0,1,10.45-7.45C221.78,123.29,224.54,127.13,223.63,132.75Z"/>
      </g>
      <g class="cls-24">
        <path class="cls-39" d="M289.46,131.29c.36,3.67-1,7.37-6,7.71-4,.27-8.17-1.41-8.47-6.16a7.92,7.92,0,0,1,8.81-8C287,125.16,289.07,127.38,289.46,131.29Z"/>
      </g>
      <path d="M220.15,131.39c-.31,3.41-2.61,6-5.14,5.78s-4.34-3.16-4-6.57,2.61-6,5.14-5.78S220.45,128,220.15,131.39Z"/>
      <path d="M286.3,132.48c-.38,3-2.43,5.28-4.57,5s-3.58-2.92-3.2-6,2.43-5.28,4.57-5S286.68,129.45,286.3,132.48Z"/>
      <path d="M205.19,130.23a8.89,8.89,0,0,1,2.72-5.46,10.26,10.26,0,0,1,5.72-2.73,10.45,10.45,0,0,1,6.3.86,6.49,6.49,0,0,1,3.61,5,8.26,8.26,0,0,0-4.32-3.31,13.45,13.45,0,0,0-7.9.22,11.07,11.07,0,0,0-2.38,1.22A12.45,12.45,0,0,0,205.19,130.23Z"/>
      <path d="M275.25,129.53a7.31,7.31,0,0,1,3-4.25,7.84,7.84,0,0,1,5.27-1.33,7.27,7.27,0,0,1,4.94,2.34,5.86,5.86,0,0,1,1.3,5,7.74,7.74,0,0,0-2.41-3.92,7.36,7.36,0,0,0-4-1.45,8.41,8.41,0,0,0-4.29.68A11.66,11.66,0,0,0,275.25,129.53Z"/>
      <g class="cls-82">
        <path d="M202,118.85a7.13,7.13,0,0,1,2-2.69,12.62,12.62,0,0,1,2.68-1.77,18.9,18.9,0,0,1,6-1.82,17.47,17.47,0,0,1,6.32.35,15.13,15.13,0,0,1,5.7,2.64l-.68,1.08a26.17,26.17,0,0,0-5.47-1.39,21.69,21.69,0,0,0-5.55-.06,24,24,0,0,0-5.41,1.34,14.53,14.53,0,0,0-2.47,1.19,8.22,8.22,0,0,0-2,1.66Z"/>
      </g>
      <g class="cls-82">
        <path d="M276.08,118a15.94,15.94,0,0,1,3.95-1.69,13.08,13.08,0,0,1,4.39-.54,8.74,8.74,0,0,1,4.42,1.46,6.64,6.64,0,0,1,2.75,3.9l-1.77.51a6.59,6.59,0,0,0-1-1.32,6.24,6.24,0,0,0-1.32-1,8.31,8.31,0,0,0-3.29-1.07,21.65,21.65,0,0,0-7.61.92Z"/>
      </g>
      <path d="M258.17,180a34.61,34.61,0,0,1,8.32,1.89,43.84,43.84,0,0,1,7.76,3.6A27.23,27.23,0,0,1,281,191a17.89,17.89,0,0,1,4.17,7.54,38.49,38.49,0,0,0-5.81-5.85,49.53,49.53,0,0,0-6.64-4.58C268,185.28,263.12,182.82,258.17,180Z"/>
      <path d="M191.71,182.38c1.86.78,3.55,1.44,5.32,2,.88.27,1.76.55,2.67.8s1.83.47,2.81.81a8.21,8.21,0,0,1-3,.43,10.16,10.16,0,0,1-3-.51,10,10,0,0,1-2.72-1.35A6.91,6.91,0,0,1,191.71,182.38Z"/>
    </g>
  </g>
</svg>
