<svg xmlns="http://www.w3.org/2000/svg" width="775.67" height="340.33" viewBox="0 0 775.67 340.33">
  <defs>
    <style>
      .cls-1 {
        isolation: isolate;
      }

      .cls-10, .cls-2 {
        fill: #a9ebed;
      }

      .cls-3 {
        fill: #fff;
      }

      .cls-4 {
        fill: #78b7cc;
      }

      .cls-5 {
        fill: #70afc4;
      }

      .cls-6 {
        fill: #a1dae3;
      }

      .cls-7 {
        fill: #99d2db;
      }

      .cls-25, .cls-8 {
        fill: #578a9e;
      }

      .cls-8 {
        opacity: 0.3;
        mix-blend-mode: multiply;
      }

      .cls-9 {
        fill: #87d9dd;
      }

      .cls-10 {
        opacity: 0.75;
      }

      .cls-11, .cls-27 {
        fill: #5d8c9b;
      }

      .cls-11 {
        opacity: 0.82;
      }

      .cls-12 {
        fill: #bf6d87;
      }

      .cls-13, .cls-14, .cls-15, .cls-16 {
        fill: #89cfe0;
      }

      .cls-13 {
        opacity: 0.66;
      }

      .cls-14, .cls-34 {
        opacity: 0.7;
      }

      .cls-16 {
        opacity: 0.61;
      }

      .cls-17 {
        fill: #597b7c;
      }

      .cls-18 {
        fill: #26484c;
      }

      .cls-19 {
        fill: #1c5c6b;
      }

      .cls-20 {
        opacity: 0.71;
      }

      .cls-21 {
        opacity: 0.8;
      }

      .cls-22 {
        fill: #6daabf;
      }

      .cls-23 {
        fill: #68a5b5;
      }

      .cls-24 {
        fill: #96cdd6;
      }

      .cls-26 {
        fill: #bc5c6c;
      }

      .cls-28 {
        opacity: 0.9;
      }

      .cls-29 {
        opacity: 0.5;
      }

      .cls-30 {
        fill: #303b3f;
      }

      .cls-31 {
        fill: #be1432;
      }

      .cls-32 {
        fill: #455b60;
      }

      .cls-33 {
        opacity: 0.11;
      }

      .cls-35 {
        fill: #1f3235;
      }
    </style>
  </defs>
  <title>dolphins</title>
  <g class="cls-1">
    <g id="Ebene_7" data-name="Ebene 7">
      <path class="cls-2" d="M9.39,197.31C5.45,204.25,25.66,218.09,88,215.84c37.49-1.36,48.64-9.89,45-15.81-3.06-4.95-36-11.18-60-11.86S14,189.18,9.39,197.31Z"/>
      <path class="cls-2" d="M113.17,275.83c27.33-15.83,75.12-10.24,113.75-7.75,41.33,2.67,84.33,19.58,80.58,28.42-5.33,12.58-57.35,17-120.33,11.83C147.42,305.08,96,285.76,113.17,275.83Z"/>
      <path class="cls-2" d="M339.17,229.83c-2.72,8.59,29.6,19,91.33,17,31.33-1,50.58-11.56,48.33-16.33-2.66-5.67-16-12.33-65-12.67C379.83,217.6,341.17,223.5,339.17,229.83Z"/>
      <path class="cls-2" d="M197.21,167.1c24.5.64,45.2-2.43,43.13-4.46s-19.89-5.91-34.61-5.43-37,1.12-38.23,4.52C166.42,164.72,183.9,166.76,197.21,167.1Z"/>
      <path class="cls-2" d="M563.31,315.23c3.52,6.27-45.35,14-91.81,13.27s-80.33-10-76.42-16.06,44.63-12.71,91.09-11.94S559.7,308.8,563.31,315.23Z"/>
      <path class="cls-2" d="M335.31,226.08s-5.38,4-2,7.75,17.84,8.5,17.84,8.5-18.4-1.5-25.76-7.25S335.31,226.08,335.31,226.08Z"/>
      <path class="cls-2" d="M385.92,248.33s31,2.5,47.75,1.25a236.37,236.37,0,0,0,33.25-5.25s-10,9.77-32.5,10.5C403.67,255.83,385.92,248.33,385.92,248.33Z"/>
      <path class="cls-2" d="M434.38,216.21s25.54,2.07,41.07,6.89c9.45,2.94,8.61,9.54,8.61,9.54s11.59-7.11-4.6-11.93C459.14,214.66,434.38,216.21,434.38,216.21Z"/>
      <path class="cls-2" d="M341.92,243.83s17,2.25,24.25,3,16.75,4.25,16.75,4.25-8.25.25-21.25-.75S341.92,243.83,341.92,243.83Z"/>
      <path class="cls-3" d="M381,230l4.09-5.33,6.74,6.83s-4-2.5-5.83-2.33-5,.83-5,.83"/>
      <path class="cls-3" d="M400.17,229.5l3.28-7.63a41.68,41.68,0,0,0,5.38,5.13c2,1.33,7.67,4.67,7.67,4.67s-8-3.17-11-3.67a7.12,7.12,0,0,0-5.33,1.5h0"/>
      <path class="cls-3" d="M432.5,231.17s2.17-2.17,3.33-3.67L437,226l1.39-3.11a19,19,0,0,0,2.94,3.44c1.17.84,3.17,2,3.17,2s-3.83,0-5,.17a71.56,71.56,0,0,0-7,2.67"/>
      <path class="cls-3" d="M379.67,236a96.11,96.11,0,0,0,37.16,6c20.17-1,30.67-5.83,30.67-5.83s-23.17,4-34.67,3.66S379.67,236,379.67,236Z"/>
      <path class="cls-3" d="M455.33,234.5s6.5-2.5,5.84-4.83-5.34-5-5.34-5,10.17,2,10,4.33S455.33,234.5,455.33,234.5Z"/>
      <path class="cls-3" d="M358.83,225.67s-9.33,1.66-6.66,4.83,17.66,5,17.66,5-12.5-4.17-12.83-5.33S358.83,225.67,358.83,225.67Z"/>
      <path class="cls-2" d="M399.67,306.5s-11.5,1.33-13.67,6.83S409.67,325,409.67,325s-24.29-.52-32.84-8.17c-9.5-8.5,23.5-10.33,23.5-10.33"/>
      <path class="cls-2" d="M427.33,329.67s26.17,5.33,53,4.33,48.84-2.5,48.84-2.5-27.84,7.67-56.34,7.17c-31.17-.55-46.16-8.67-46.16-8.67"/>
      <path class="cls-3" d="M415.67,308.83s-10.67,1.34-7.67,5,21.5,6.5,21.5,6.5-16-5.83-16.83-7.33S415.67,308.83,415.67,308.83Z"/>
      <path class="cls-2" d="M406.83,307.67s12.5-9.34,16-15.34,2.34-3.16,2.34-3.16l3.16-1.5,1.34,5s.16,9.16,2.66,9.74,6-5.41,7.34-7.91,2.83-5.5,2.83-5.5,3-3.67,3.83-3.33,1.34,11.33,3.17,16.83,1.67,8,4.67,8,13-8.67,15.5-11.5,4.83-5.83,4.83-5.83,4.33-3.5,5.67-3.17.66,12.67.83,14.5,1,5.17,2.83,5.33,7.34-3,9-4.83,8.34-9,8.34-9-1.84,7.67-.34,10.5a16.35,16.35,0,0,0,3.84,4.67s-20.67,3.66-35,3.5-40.84-5.17-40.84-5.17l.67-4.83Z"/>
      <polygon class="cls-3" points="450.83 303.17 465.33 302.67 464 304.5 450.67 304.33 450.83 303.17"/>
      <path class="cls-3" d="M498.17,305.08a155.17,155.17,0,0,1,39.75,5.5c7,2-1.5,7.25-1.5,7.25s19.75-3.25,15.5-5.75C535.22,302.26,498.17,305.08,498.17,305.08Z"/>
      <path class="cls-2" d="M539.42,326.83s26.75-3.75,31-8.5-9.5-9.5-9.5-9.5,18,2.75,19.5,8.5C582.59,325.67,539.42,326.83,539.42,326.83Z"/>
      <path class="cls-3" d="M453.67,323.33s24.5,3,48.25,1.5,29.75-6.25,29.75-6.25-22.5,2.75-38.75,4S453.67,323.33,453.67,323.33Z"/>
      <path class="cls-2" d="M501.17,301.58s16.5-4.75,23.75-9,7.75-6.25,7.75-6.25,2.25-1.25,3-.5S538,291.6,538,291.6a4,4,0,0,0,3.69,1.73,43,43,0,0,0,6.5-1.5s-4.33,2.64-4,7.07,3.29,9.68,3.29,9.68a166.12,166.12,0,0,0-23.5-4C512.17,303.58,501.17,301.58,501.17,301.58Z"/>
      <path class="cls-2" d="M549.92,303.58s16.75,2.25,24.5,5.25,10.5,6,10.5,6-2.25-7-12.25-9.75S549.92,303.58,549.92,303.58Z"/>
      <polygon class="cls-3" points="480.92 303.33 492.92 303.83 491.42 305.58 481.17 305.33 480.92 303.33"/>
      <path class="cls-2" d="M13.83,209.58a154.36,154.36,0,0,0,39.34,7.67c20.66,1,31.66,1,31.66,1s-12.33,4.33-40.66,2.67S13.83,209.58,13.83,209.58Z"/>
      <path class="cls-2" d="M120.5,214.17s16.67-3.34,19.67-10.67-17.67-10-17.67-10,18.67-.67,25.67,8.67C155.85,212.41,120.5,214.17,120.5,214.17Z"/>
      <path class="cls-3" d="M116.42,207.83s9.5-2.5,11.75-4.75-2.5-5.5-2.5-5.5,8.25,2.75,5.75,6S116.42,207.83,116.42,207.83Z"/>
      <path class="cls-3" d="M26.67,203.83s2.75,3.75,14.25,5.25c6.76.89,20,.25,20,.25s-12.25-1.5-19.25-2.75S26.67,203.83,26.67,203.83Z"/>
      <path class="cls-3" d="M53.67,201.83s7.25,1,10.25-.25,7.75-5,7.75-5l2.25,3-.5-7.25s-6.75,6.5-9.5,7.25-10.25,2.25-10.25,2.25"/>
      <path class="cls-3" d="M80.17,201.58a11.53,11.53,0,0,0,3.75-1,25.41,25.41,0,0,0,4.84-2.72l2.74,4.64a13.14,13.14,0,0,0-4.83-.92h-6.5"/>
      <path class="cls-2" d="M77.67,221.83s17.75-4.5,25-5,24.25-1.5,24.25-1.5a59,59,0,0,1-15.5,4.75C101.67,221.83,77.67,221.83,77.67,221.83Z"/>
      <path class="cls-3" d="M18.42,200.33s-3.75.5-4.25-2.5,10-8,13.75-8.75,12.25,1.5,12.25,1.5-17.5,3.25-22,6.25c-2.08,1.39.25,3.5.25,3.5"/>
      <path class="cls-3" d="M28.42,198.83s5.25,1.25,7.5,1,6.75-2.25,6.75-2.25l-.07-4.7s-5.25,4.17-7.47,4.94a34.07,34.07,0,0,1-6.71,1"/>
      <path class="cls-2" d="M284.69,311.54S312,306,314.52,296.39s-24.09-17.65-24.09-17.65,24,2.59,35,16.59C333.73,305.91,284.69,311.54,284.69,311.54Z"/>
      <path class="cls-3" d="M157.17,289.83s1.4,7.49,25.75,12,57-2.75,57-2.75-26.5,2.25-46.25-.25A173.46,173.46,0,0,1,157.17,289.83Z"/>
      <path class="cls-3" d="M230.17,305.58s41,1.25,52.75-5.5-5-8-5-8,7.25,3.25,2.75,5-20.5,5.75-28,6.25S230.17,305.58,230.17,305.58Z"/>
      <path class="cls-3" d="M131.67,272.58s-9.5,2.5-6.75,6.25,17.5,5.75,17.5,5.75-12.5-5-13-6.75S131.67,272.58,131.67,272.58Z"/>
      <path class="cls-3" d="M111.67,285.83a50.26,50.26,0,0,0,22.25,8.75c12.75,1.5,22.25,2.75,22.25,2.75a88.63,88.63,0,0,1-23.25.5C121.17,296.33,111.67,285.83,111.67,285.83Z"/>
      <path class="cls-2" d="M111.42,290.58s20.25,10.5,37.5,15,54.5,7,54.5,7-34,2.5-63.5-4.25S111.42,290.58,111.42,290.58Z"/>
      <path class="cls-3" d="M180.92,289.83s8,0,12.75-2.5a28.73,28.73,0,0,0,7.1-5s3.4,5,5.15,6.26a52.24,52.24,0,0,0,5.25,3s-7-4.5-12.25-3.75-18,2-18,2"/>
      <path class="cls-3" d="M216.42,292.83a15.21,15.21,0,0,0,7.25.5c3.75-.75,5.75-2.25,7-2l6.25,1.25-6.83-4.88s-4.92,3.63-7.42,4.13S216.42,292.83,216.42,292.83Z"/>
      <path class="cls-2" d="M255.17,269.58s31.75,4,43.25,6.75,17.25,5.5,17.25,5.5-9-7.75-25.25-11.5C281.24,268.22,255.17,269.58,255.17,269.58Z"/>
      <path class="cls-3" d="M142.42,278.08s-6.5-1.25-2.75-3.75,11.25-3.5,11.25-3.5-5.75,2.75-7.25,4A3.91,3.91,0,0,0,142.42,278.08Z"/>
      <path class="cls-2" d="M182.17,160.5s3.33-3,5.66-5,3.17-2.83,3.17-2.83l3.17-1.17s-2.67,7-1,7.17,7.16-5,7.16-5,2.34-1,2.5.5.34,5.33.34,5.33-10,2.33-13.34,2.33A32,32,0,0,1,182.17,160.5Z"/>
      <path class="cls-2" d="M216.17,159.67l6.33-5s1,3.83,1.67,4.5a18.07,18.07,0,0,0,3,1.83Z"/>
      <path class="cls-2" d="M169.83,158.67s-7.83,1.16-6,4.33,16,5.67,16,5.67-19.92-.28-23.33-4.5S169.83,158.67,169.83,158.67Z"/>
      <path class="cls-2" d="M182,168.17a239.58,239.58,0,0,0,33.33,1.33c16.67-.67,31.52-3.7,31.34-5.33-.34-3-10-5-10-5S254,159.67,256,165c1.59,4.25-31.83,8.83-43.83,8.33S182,168.17,182,168.17Z"/>
      <path class="cls-2" d="M158.83,168.67s19,1.66,25.5,2.5,17,3.16,17,3.16a196.56,196.56,0,0,1-23-.83A85.36,85.36,0,0,1,158.83,168.67Z"/>
      <path class="cls-2" d="M208.67,154.83s24.5,1,33.33,2.5A78.84,78.84,0,0,1,256.33,161s-2.33-4.33-15.16-6C231.54,153.75,208.67,154.83,208.67,154.83Z"/>
    </g>
    <g id="Ebene_5" data-name="Ebene 5">
      <path class="cls-4" d="M28.17,197.5a46.57,46.57,0,0,1,7.16-14.67c5.17-6.83,14.34-11.5,16-11.83l5.84-1.17s9.66-14.83,19.5-22.5,24.66-14.16,33-15.16,20.33,2.16,23.66,4.16,11,13.5,11,13.5a80.81,80.81,0,0,1,12.34-2c5.66-.33,12.16,0,12.33.67s-5.5,9.17-16.67,12-10,4.83-10,4.83l4.5.5s5.67-.66,8.67-1.16,9.33-1.5,9.33-1.5,1.84,2.16,1,3.83-7.5,9.67-13.83,11.33-21,7.17-23.5,7.67-7.67,2-7.67,2a18.73,18.73,0,0,0-4.16,3.33c-1.34,1.67-5.5,10.34-5.5,10.34A26.9,26.9,0,0,1,101,204.33c-5.33.17-8.33-.83-9.5-1.83a19.89,19.89,0,0,1-2.83-4.17S81,203.67,77,201.5s-3.67-10-3.67-10-6.16,8-13,9.17-6.66.83-8,.5-2.5-3.34-2.5-3.34-1.5,4.5-4.5,3.17-2.66-7.67-2.66-7.67-4,3.67-7.84,4.34A16.14,16.14,0,0,1,28.17,197.5Z"/>
      <path class="cls-5" d="M149.43,275.73a18.34,18.34,0,0,0,5.5-.07c2.24-.53,5.45-3.82,5.45-3.82s1.54,3.23,2.8,3.47a18.89,18.89,0,0,1,3,1l.12,9.25a22.78,22.78,0,0,0,16.8,4,48.11,48.11,0,0,0,17.66-7.23s6.64,10.92,13.88,10.08,15.44-4.7,15.44-4.7,5.56,4.43,9.31,4.88,10-.63,10-.63-.49-18.5-.05-23.25,1.13-9.52,2.59-12.54,9.39-8.62,9.39-8.62,22.51,1.21,33.48-1.43,12.45-4.41,13.67-6.18,1.93-6,1.17-6.26-14.28-2.32-14.28-2.32,19.25-.5,20.7-4.51-13.17-13.09-17.19-14a75,75,0,0,0-9-1.39s-.26-20-6.62-28.42S269,164.19,246,164.73a64,64,0,0,0-45.74,20.59c-6.9,7.84-21.28,36.78-22.24,39.54s-5.31,14.57-5.31,14.57-5.5.07-11.89,8.65S149.43,275.73,149.43,275.73Z"/>
      <path class="cls-4" d="M181.83,148.17s17.34-12.34,23.34-9.34,12.33,12,12.33,12,4-7.33,1.67-13-3.67-11-5-10.66,12-18.67,25.66-26.34S271.5,87.5,271.5,87.5s-1,5.33-3.33,8.33a98.92,98.92,0,0,1-7.67,8s16.67-2.66,20.67-9.33a115.39,115.39,0,0,0,5.66-10.33l9.67.33a27.54,27.54,0,0,1,11,2.67c5.33,2.66,12.67,7.66,20,8.66s18,1.67,17.67-1.33-6.34-4.67-9.34-6.33a60.66,60.66,0,0,1-7.33-5.34s8.67,3.67,15,4,11.94.09,12.5-1.16c1.33-3-7.5-10.84-11.5-13.17s-6-2.67-6-2.67a21.93,21.93,0,0,0,.67-22c-6.34-12-16.67-21-36-22a163.11,163.11,0,0,0-34,1.67s-8.34-7.33-25.67-5-23.33,8.67-22,9.67,8-1,13.67.33a34.73,34.73,0,0,1,11,5.33s-21.34,12-31,32.34-10.34,30-11.34,35.33-2,20-2,20-9.66,2-13.66,7S180.83,147.5,181.83,148.17Z"/>
      <path class="cls-5" d="M281.81,168.82s26-7.39,24-16.83-7.14-19.63-9.44-23.46-7.65-10.71-7.65-10.71a39.3,39.3,0,0,1,23.21,11c10.2,10.2,13,19.63,13,19.63s33.92,3.83,59.93,18.11S419,192.29,419,192.29a20.72,20.72,0,0,0,1.53-11.48c-1-6.38-4.59-21.93-4.59-21.93s21.93,12.24,26.26,33.66,1,34.68,1,34.68l-4.84-4.33s-6.38,11.22-12.75,11.47-22.19-12.49-22.19-12.49-5.61,11.22-8.16,11.22-10.2-8.42-10.2-8.42-2.55,3.06-3.32,4.08-3.82,2-3.82,2,1-4.59-2.3-12.49-10.2-22.44-15.81-28.56-22.44-18.11-26-20.15-12-4.85-12-4.85-12.49,7.4-21.93,7.14S282.06,170.1,281.81,168.82Z"/>
      <path class="cls-6" d="M169,148.5s-18.33,11.33-34.5,13.17-17.5-1-23.83,0-7.84,10-8.17,13.5-1.83,13-3.5,18a97.26,97.26,0,0,1-4.5,10.66s6.5.84,10.33-.16a58.53,58.53,0,0,0,6.34-2s6-11.5,8.5-13,20.83-5.5,28.66-8.84,14.5-8.5,16-10.33,1.84-4.67,1.5-5.17-2-1-2-1-17.16,2.67-19,2.5a7.7,7.7,0,0,1-2.5-.5,144.43,144.43,0,0,0,13.67-6c4.5-2.5,8.83-5,10.33-6.33S169,148.5,169,148.5Z"/>
      <path class="cls-7" d="M316.07,226.84s-24.47,3.06-43.05-3.2-19.15-11.51-27.38-9.65-11.42,5.65-15.81,14.21-8.47,21.86-9.84,32.12-.34,32-.34,32a47,47,0,0,0,5.73-1.82,22.63,22.63,0,0,0,4.71-2.81,10.91,10.91,0,0,0,7.81,4.4,51.28,51.28,0,0,0,11.5-.15l-.56-4.49S250,261.94,251,258.93s5.41-7.57,5.41-7.57l4.95-3.82s15,2.31,26.25.16,17.21-3,19.67-6.5,3.91-7,2.4-7.53-12.28-2.59-12.28-2.59a60.91,60.91,0,0,0,10.49-.64A27.6,27.6,0,0,0,316.07,226.84Z"/>
      <path class="cls-7" d="M322.1,163.21s27.29,7.91,44.63,24.74,24.73,42.59,24.73,42.59l-6.37-5.87a11,11,0,0,1-2,3.32c-1.28,1.27-5.1,2.8-5.1,2.8s-1.28-17.08-6.89-25.24-7.39-13.77-17.34-21.68S322.1,163.21,322.1,163.21Z"/>
      <path class="cls-6" d="M181.83,148.17s6.14-8.73,12-13.84c7.84-6.83,13.84-8.16,13.84-8.16s4.33-19.67,29.5-38.5,33-16.62,51-21c12.33-3,15.83-8,24-5.5,4.17,1.27,4.91,9.26,18.5,17C341.5,84.33,356,85.5,356,85.5s-8.5,3-14,1.17-15.17-5.84-15.17-5.84,2,2.67,7.17,5.67,11.5,6.33,11.5,7.17-2.17,4.66-9.17,3.66-17-4-21-6S307,86.5,304.17,85.67,289,84.17,288,84.33l-2,.34s-3.67,8.5-6.5,11.16-17.67,9.67-18.83,8.84,6.33-7.5,7.83-9.34,3-7.83,3-7.83-16.83,5.67-25.33,9.83A72.23,72.23,0,0,0,226.5,111.5c-4.33,4.5-12.33,15.67-12.33,15.67s4.5,7.5,5,10.66-1,12-1.67,12.17-6.5-9.83-12.33-11.17S181.83,148.17,181.83,148.17Z"/>
      <path class="cls-8" d="M376.83,221.67c.17.5,1.5,9.66,1.5,9.66l5-4.16a5.75,5.75,0,0,1-2.83-.17C379.67,226.5,376.83,221.67,376.83,221.67Z"/>
      <path class="cls-8" d="M386.5,226.67s6.91,7.18,8.79,6.42,7-7.76,7-7.76-5.5,4.17-7.16,4.17S386.5,226.67,386.5,226.67Z"/>
      <path class="cls-8" d="M408.83,227s11.18,2.09,15.5,1.67c6.84-.67,12.84-5.17,12.84-5.17s-2.5,8.83-10,9.67S408.83,227,408.83,227Z"/>
      <path class="cls-8" d="M282,169.33s14.17,4.67,22.17,2.5,18-7.66,18-7.66-15.34,4.66-22.67,5S282,169.33,282,169.33Z"/>
      <path class="cls-8" d="M431.83,172.33s7.17,19.34,7.84,31a82.36,82.36,0,0,1-1.28,19.56l4.84,4.33s2.27-12.39.94-22.22-3.34-18.17-5.17-21S431.83,172.33,431.83,172.33Z"/>
      <path class="cls-9" d="M449.33,200s2.68-8,4.89-7.41.32,2.52-.47,3.31S449.33,200,449.33,200Z"/>
      <path class="cls-9" d="M449.32,219.33s.37-5.67,3.2-8.51,7.9-3.58,8.52-2-3.7,3-6.3,4.93A38.67,38.67,0,0,0,449.32,219.33Z"/>
      <path class="cls-9" d="M457.83,218.83s2.84-3.16,6-3.66,4.17-.34,4.17.66-2,1.67-3.67,2S457.83,218.83,457.83,218.83Z"/>
      <path class="cls-10" d="M432.5,217.17s.67-11.84,3.67-10.5S432.5,217.17,432.5,217.17Z"/>
      <path class="cls-10" d="M423.17,226.5s-3.17-9.83-1.34-9.83,2.84,1.66,2.84,4A19.29,19.29,0,0,1,423.17,226.5Z"/>
      <path class="cls-9" d="M365.17,204.33s-5-2.83-6.67-3.83-2.5-3.67-.67-3.5,3,1,4.5,2.67A21.73,21.73,0,0,1,365.17,204.33Z"/>
      <path class="cls-11" d="M279.17,230.33l16.2,1s13.61.73,13.95,2.36-1.65,2.62-5.65,3.62-16,1.5-18.25,1.5-6.25-8.5-6.25-8.5"/>
      <path class="cls-11" d="M141.92,166.33s5.75-.5,11-1.25,11.91-1.91,11.91-1.91a24.31,24.31,0,0,1-7.41,4.91c-4,1.5-7.75,2.75-7.75,2.75Z"/>
      <path class="cls-11" d="M326.83,80.83l-.16,2.5,3.25,8s1.25.75,5.5,1.5a46.2,46.2,0,0,0,9,.5s-11.5-7-13.5-8.5A30,30,0,0,1,326.83,80.83Z"/>
      <path class="cls-4" d="M296.5,84.5s-2.08,5.33-3.83,7.58a67.49,67.49,0,0,1-5.5,5.75s7.75.25,12.75-3.75a24.61,24.61,0,0,0,6.75-7.75Z"/>
      <path class="cls-12" d="M112,166.5s11.17,1,16,.67a108.93,108.93,0,0,0,10.83-1.5s5.5.5,8.17,1.66a56.6,56.6,0,0,1,5.67,3s-13.84,4.84-23.67,4.17-12.17-2.67-13.5-3.5S112,166.5,112,166.5Z"/>
      <path class="cls-12" d="M308.33,63.67a16.76,16.76,0,0,0,3.34,14c5.33,6.5,9.33,8.83,11.66,10s6.67,3,6.67,3-2.17-7.17-3.83-9-3.84-4.34-3.84-4.34-5.83-3.66-8.16-6.16A90.09,90.09,0,0,1,308.33,63.67Z"/>
      <path class="cls-12" d="M245.83,218.5s4.17,11.17,15,15.67,27.67,5,27.67,5-3.83-6.17-6-7.17-7.17-2.67-7.17-2.67-9.16-2.33-16.83-4.83A52.56,52.56,0,0,1,245.83,218.5Z"/>
      <path class="cls-5" d="M253.17,254.33s1.75,6.5,4,10.25a48.94,48.94,0,0,0,5.25,7s-5.25.5-8.25-.25a34.51,34.51,0,0,1-4.75-1.5s-.5-5.5.75-8.5S253.17,254.33,253.17,254.33Z"/>
      <path class="cls-8" d="M249.4,292s1.11,3.38-.56-4.49.58-17.63,1.08-22.13.5-8.5,3.25-11,8.16-6.79,8.16-6.79,5.79.87,18.84.29c17-.75,25.75-5.5,25.75-5.5s-23.75,3.5-32,3.5-25-1.75-25-1.75l2.5,2.5a44.18,44.18,0,0,0-7.75,12.5c-2.49,6.72-1.5,28-1.5,28l-6.5.25,6.25,5.5Z"/>
      <path class="cls-8" d="M253.17,254.33l2.75,7-6.5,8.5s.86-9.56,1.55-10.9S253.17,254.33,253.17,254.33Z"/>
      <path class="cls-8" d="M171.67,239.58s-4.25,11.75-6,17-2.49,18.73-2.49,18.73l3,1,.12,9.25,7.11,3.06a176.85,176.85,0,0,1,2.25-43.25c2.75-15.5,12.5-40.25,12.5-40.25Z"/>
      <path class="cls-8" d="M273.92,173.08a75.83,75.83,0,0,1,10,21.75,36.31,36.31,0,0,1,.75,15.75l5.2.84s1.3-9.84-1.7-18.09S273.92,173.08,273.92,173.08Z"/>
      <path class="cls-13" d="M188.42,203.33s20.75-35,47.25-37.75,38.25,7.5,38.25,7.5-23.75-7.5-46.75,1S188.42,203.33,188.42,203.33Z"/>
      <path class="cls-13" d="M266.17,209.83a99.48,99.48,0,0,1,27.5,2.5c15.75,4,21.5,13,21.5,13a97.94,97.94,0,0,0-22.25-9.75C281.78,212.4,266.17,209.83,266.17,209.83Z"/>
      <path class="cls-8" d="M70.17,153.58s-13.25,20.5-16.25,27.75a73.11,73.11,0,0,0-4.09,16.5,9,9,0,0,1-1.41,2.5c-.75.75-3.09.67-3.09.67l-1.82-1.34a111.45,111.45,0,0,1,4.16-13.08c2.5-6.25,9.5-16.75,9.5-16.75a47.63,47.63,0,0,1,5.75-8.5c3-3.25,7.25-7.75,7.25-7.75"/>
      <path class="cls-8" d="M111.17,201.67s5.25-10.92,8.5-13,18-5.09,25.25-7.84a151.76,151.76,0,0,0,16.25-7.75s-18,6-27.25,8.5-15,2.5-19.5,5.5-8.25,16.25-8.25,16.25A14.65,14.65,0,0,0,111.17,201.67Z"/>
      <path class="cls-9" d="M191.17,254s-6.84,8.83-3.17,10.67S191.17,254,191.17,254Z"/>
      <path class="cls-9" d="M159.83,258.67s-4.83,7.66-2.83,8.5S159.83,258.67,159.83,258.67Z"/>
      <path class="cls-9" d="M174.5,269.67s-4.17,9.16-1.33,9.66S174.5,269.67,174.5,269.67Z"/>
      <path class="cls-9" d="M216,276.83s-4.17,8.5-1.5,9.34S216,276.83,216,276.83Z"/>
      <path class="cls-2" d="M60.83,181.5s-8.55,11-6.33,11.67C58.33,194.33,60.83,181.5,60.83,181.5Z"/>
      <path class="cls-2" d="M101,186.17s-2.5,7.83-.33,8.16S101,186.17,101,186.17Z"/>
      <path class="cls-2" d="M130.5,188.33s-3,5.17-1.5,5.67S130.5,188.33,130.5,188.33Z"/>
      <path class="cls-2" d="M244.17,102.67s-6.67,7.16-5,8S244.17,102.67,244.17,102.67Z"/>
      <path class="cls-2" d="M198.33,112.83s-3.33,6.34-1.83,6.84S198.33,112.83,198.33,112.83Z"/>
      <path class="cls-9" d="M524.19,278.73s1.23-8.4,4-9.9,4.75-3,5.5-1-3.25,4.75-4.75,6-4.73,4.9-4.73,4.9"/>
      <path class="cls-9" d="M541.93,257.33s9.4-4.85,12.57-4.3,4.67,2.05,3.67,2.8-5.5.75-9,1l-7.24.5"/>
      <path class="cls-9" d="M592.92,222.33s-13,3.75-10.5,5,10.5-5,10.5-5"/>
      <path class="cls-9" d="M455.17,263.83s-3.25-10-4.25-11.5.5-6,2.25-4,3,4,2.75,6.75-.75,8.75-.75,8.75"/>
      <path class="cls-14" d="M219.17,62.33s18.48-25.14,41.5-32c23.5-7,33.75-6,40.75-5s20.25,5.25,20.25,5.25-36.14-3.92-60.75,4.5C233.17,44.58,219.17,62.33,219.17,62.33Z"/>
      <path class="cls-14" d="M328.17,66.08s11.25,2.5,17.25,6.5S356,85.5,356,85.5s-6.58-7.17-13.58-11.17S328.17,66.08,328.17,66.08Z"/>
      <path class="cls-15" d="M66.17,158.58s13.5-19,31.25-23.25,16.25-3.75,21.25-3.25,15.5,5.25,15.5,5.25-14.25-3.75-35.75,2.25C85.62,143.16,66.17,158.58,66.17,158.58Z"/>
      <path class="cls-15" d="M129.42,156.33s11.25-6.75,22-8,17.33-.08,17.5.25-11.75,1-19.5,2.75S129.42,156.33,129.42,156.33Z"/>
      <path class="cls-15" d="M28.67,196.33s6.5-11.5,11.5-15.25,16.25-9.5,16.25-9.5-6.5-1.75-16.75,6.75S28.67,196.33,28.67,196.33Z"/>
      <path class="cls-16" d="M324.9,148.42s43.27,13.66,57.52,21.66,35.5,26.25,35.5,26.25l1.5-4s-17-17.15-37-26.5C355.17,153.08,324.9,148.42,324.9,148.42Z"/>
    </g>
    <g id="Ebene_3" data-name="Ebene 3">
      <path d="M377.07,227.23a86,86,0,0,0-3.2-10.33,93.66,93.66,0,0,0-4.32-9.91,72.33,72.33,0,0,0-12.21-17.6,97.75,97.75,0,0,0-16.7-13.63q-4.5-3-9.25-5.7c-3.14-1.81-6.37-3.52-9.6-5.09l1-.11h0a41.62,41.62,0,0,1-9.12,5.18,39.9,39.9,0,0,1-10.16,2.75,44.59,44.59,0,0,1-10.46-.1c-1.72-.2-3.44-.46-5.14-.8a33.69,33.69,0,0,1-5.07-1.36,6.31,6.31,0,0,1-1.29-.66,1.71,1.71,0,0,1-.68-.83,1.06,1.06,0,0,1,.11-.87,1.2,1.2,0,0,1,.48-.44,8,8,0,0,1,1.33-.53l1.25-.37c1.65-.46,3.28-.91,4.89-1.42a38.84,38.84,0,0,0,9.1-4.13,14.5,14.5,0,0,0,6.08-7.14,9.77,9.77,0,0,0,.48-2.23,12.18,12.18,0,0,0-.07-2.33,27,27,0,0,0-1.07-4.76,83.15,83.15,0,0,0-9-18c-.91-1.43-1.88-2.82-2.89-4.18a36.61,36.61,0,0,0-3.17-3.86l-.21-.19a3.76,3.76,0,0,1-.29-.28,1.72,1.72,0,0,1-.31-.46,1,1,0,0,1-.06-.52.86.86,0,0,1,.32-.55,1.33,1.33,0,0,1,.62-.25,2.13,2.13,0,0,1,.42,0,5.48,5.48,0,0,1,.72,0,18,18,0,0,1,2.61.55,48.21,48.21,0,0,1,4.91,1.7,62.25,62.25,0,0,1,9.3,4.59q2.23,1.33,4.34,2.88a29.6,29.6,0,0,1,4,3.49,47.64,47.64,0,0,1,6.1,8.48,77.19,77.19,0,0,1,4.58,9.25h0l-.56-.42a225.57,225.57,0,0,1,26.24,5.75,206.88,206.88,0,0,1,25.4,8.84c4.12,1.77,8.19,3.72,12.14,5.88a123.29,123.29,0,0,1,11.43,7.18c3.68,2.54,7.32,5.17,10.83,8,1.76,1.4,3.48,2.87,5.13,4.43.82.79,1.63,1.59,2.4,2.46.39.43.76.89,1.12,1.36.18.26.36.48.53.77.08.14.16.27.24.44a2.47,2.47,0,0,1,.26.65l-2,.4c0,.13,0,0-.08-.11a3.09,3.09,0,0,0-.17-.29c-.12-.2-.29-.4-.44-.6-.32-.41-.66-.81-1-1.2-.73-.78-1.52-1.53-2.33-2.27-1.63-1.46-3.32-2.88-5.07-4.23-3.48-2.73-7.1-5.3-10.75-7.84s-7.35-4.93-11.21-7.08-7.83-4.12-11.89-5.91a202.31,202.31,0,0,0-25-9,251.85,251.85,0,0,0-25.94-6.15l-.39-.07-.17-.34h0c-1.68-2.93-3.39-5.86-5.19-8.71a62.32,62.32,0,0,0-5.82-8.11,10,10,0,0,0-.84-.88c-.28-.28-.56-.56-.88-.83-.62-.55-1.27-1.08-1.92-1.61-1.3-1-2.65-2-4.05-2.95a60.11,60.11,0,0,0-8.84-4.84,43.1,43.1,0,0,0-4.72-1.73,17.85,17.85,0,0,0-2.39-.55,3.62,3.62,0,0,0-.55,0h-.21c-.06,0-.09,0,0,0a.51.51,0,0,0,.16-.29.29.29,0,0,0,0-.2s0,0,.06.06l.17.16.27.23a64.91,64.91,0,0,1,6.4,8.17c2,2.82,3.8,5.72,5.48,8.73a54.76,54.76,0,0,1,4.31,9.47,24.21,24.21,0,0,1,1.21,5.19,14.31,14.31,0,0,1,0,2.78,11.38,11.38,0,0,1-.63,2.74,13.19,13.19,0,0,1-2.92,4.66,19.82,19.82,0,0,1-4.22,3.3,42.15,42.15,0,0,1-9.63,4c-1.64.51-3.31.94-5,1.39a15.43,15.43,0,0,0-2.26.73c-.05,0-.07.07,0,0a.37.37,0,0,0,0-.26c-.05-.1,0,0,.16.1a4.9,4.9,0,0,0,1,.48,36.33,36.33,0,0,0,9.86,1.53,51.54,51.54,0,0,0,10-.5,43.58,43.58,0,0,0,9.52-2.64,57.24,57.24,0,0,0,8.92-4.39h0l.44-.34.56.23a126.21,126.21,0,0,1,19.65,10.2,94.3,94.3,0,0,1,17.36,13.94,71.66,71.66,0,0,1,12.45,18.53,84.21,84.21,0,0,1,6.83,21.13Z"/>
      <path d="M417,198.36c.53-2.45,1.2-4.74,1.73-7,.28-1.14.51-2.27.67-3.38a13.44,13.44,0,0,0,.06-3.36c-.36-4.72-1-9.52-1.78-14.27-.39-2.38-.86-4.76-1.39-7.11-.29-1.17-.57-2.35-.9-3.49l-.12-.41-.07-.21c0-.07,0-.16-.06-.24a1.06,1.06,0,0,1,0-.42.82.82,0,0,1,.41-.5.87.87,0,0,1,.42-.12h.25l.18,0a2.93,2.93,0,0,1,.55.19,12.28,12.28,0,0,1,1.68,1,71.19,71.19,0,0,1,19.79,21.62,48.36,48.36,0,0,1,3.18,6.75A34.18,34.18,0,0,1,442.8,191c.33,1.18.68,2.37.94,3.57a72.39,72.39,0,0,1,1.95,14.66,44.32,44.32,0,0,1-2,14.67l-1.17-.32A91.38,91.38,0,0,0,441,195.15c-.22-1.17-.54-2.32-.84-3.47s-.59-2.29-1-3.41a45.7,45.7,0,0,0-2.78-6.5,64.19,64.19,0,0,0-8-11.79,65.83,65.83,0,0,0-5-5.21,44,44,0,0,0-5.52-4.53,11.12,11.12,0,0,0-1.46-.86l-.3-.12h0c.08,0,.07,0,.22-.06a.6.6,0,0,0,.26-.34.49.49,0,0,0,0-.19v0l.07.22.14.46c.35,1.18.65,2.36.95,3.54.62,2.36,1.2,4.72,1.77,7.09a93.16,93.16,0,0,1,2.53,14.47,17.31,17.31,0,0,1,.05,1.93,13.85,13.85,0,0,1-.19,2,16.74,16.74,0,0,1-1,3.69A19.79,19.79,0,0,1,417,198.36Z"/>
      <path d="M165.45,282a125.31,125.31,0,0,1,2.45-28.6,155.52,155.52,0,0,1,8.21-27.54A162.06,162.06,0,0,1,188.77,200a92,92,0,0,1,18.48-22.12,61.75,61.75,0,0,1,12-8.09,55.91,55.91,0,0,1,13.66-4.86,58.31,58.31,0,0,1,14.43-1.21,60.37,60.37,0,0,1,14.3,2.18,41.22,41.22,0,0,1,13.08,6.34,36.67,36.67,0,0,1,9.73,10.8,46,46,0,0,1,5.25,13.52A53.11,53.11,0,0,1,290.93,211l-1.94-.18A51.67,51.67,0,0,0,287.88,197a42.9,42.9,0,0,0-5-13,34.74,34.74,0,0,0-9.27-10.23,39.15,39.15,0,0,0-12.48-6,58.7,58.7,0,0,0-13.84-2.07,56.22,56.22,0,0,0-13.94,1.2,54.92,54.92,0,0,0-24.58,12.76,91.12,91.12,0,0,0-17.53,21.85A179,179,0,0,0,179,227c-.86,2.2-1.73,4.4-2.55,6.62l-1.18,3.33c-.39,1.11-.78,2.22-1.11,3.35-1.48,4.47-2.59,9.06-3.68,13.64s-1.89,9.25-2.5,13.93a126.09,126.09,0,0,0-1.2,14.1Z"/>
      <path d="M174.4,238.32a41.83,41.83,0,0,0-4.69,3.06,48,48,0,0,0-4.32,3.61,52.93,52.93,0,0,0-3.85,4.08,40.16,40.16,0,0,0-3.22,4.58,53.53,53.53,0,0,0-4.73,10.27c-.65,1.78-1.21,3.61-1.72,5.45s-1,3.71-1.37,5.57l-1-.13a60.88,60.88,0,0,1,2.18-11.51,50.48,50.48,0,0,1,4.52-10.91,40,40,0,0,1,17.39-15.84Z"/>
      <path d="M270.44,209.41a51.66,51.66,0,0,1,15.75,0,59.64,59.64,0,0,1,15.25,4.3,52.63,52.63,0,0,1,7.07,3.67,29.13,29.13,0,0,1,6.29,5.06,11.13,11.13,0,0,1,1.26,1.73,4.57,4.57,0,0,1,.65,2.31,2.52,2.52,0,0,1-.48,1.41,4.07,4.07,0,0,1-1,.84,10.21,10.21,0,0,1-2,.88,41.76,41.76,0,0,1-7.84,1.58,115.84,115.84,0,0,1-31.45-.93,70.08,70.08,0,0,1-15.33-4.06,62,62,0,0,1-7.21-3.35,52.48,52.48,0,0,1-6.76-4.32l1.45-1.8a60.29,60.29,0,0,0,13.4,7.24,67.74,67.74,0,0,0,14.83,3.95,139.27,139.27,0,0,0,15.4,1.6,110.76,110.76,0,0,0,15.46-.21,36.74,36.74,0,0,0,7.48-1.37c1.12-.38,2.42-1,2.25-1.53a4.92,4.92,0,0,0-1.5-2.8,25,25,0,0,0-6-4.52,54.65,54.65,0,0,0-6.91-3.29C291,212,280.83,210.5,270.44,209.41Z"/>
      <path d="M246.44,218.48a22.13,22.13,0,0,0,4.19,7.27,27.42,27.42,0,0,0,6.44,5.51c4.8,3.06,10.52,4.37,16.17,5.54a75.32,75.32,0,0,0,17.21,1.46,80.24,80.24,0,0,0,8.62-.78c2.86-.41,5.71-.87,8.56-1.57a31.17,31.17,0,0,1-8.35,2.82,56.19,56.19,0,0,1-8.77,1,77.34,77.34,0,0,1-17.58-1.31,81.82,81.82,0,0,1-8.57-2.12,34.48,34.48,0,0,1-8.13-3.7,27.82,27.82,0,0,1-6.71-5.91,22.25,22.25,0,0,1-4.26-7.9Z"/>
      <path d="M253.75,245.42c6.81.18,13.34,1.32,20,1.36,3.32,0,6.65,0,10-.27a88.11,88.11,0,0,0,9.86-1.32c1.62-.33,3.24-.68,4.83-1.13a26.47,26.47,0,0,0,4.59-1.6,13.31,13.31,0,0,0,3.86-2.6,6.55,6.55,0,0,0,2-3.81,3.71,3.71,0,0,0,0-1,2.6,2.6,0,0,0-.1-.44c0-.11-.13-.23,0-.15s0,0-.16,0l-.54-.11-1.21-.17-5-.57a54.62,54.62,0,0,1-10-2.09l.38-1.29A65.48,65.48,0,0,0,302,231.8l5,.48,1.29.16.7.13a2.23,2.23,0,0,1,1,.46,2.1,2.1,0,0,1,.58.93,4,4,0,0,1,.2.79,5.47,5.47,0,0,1,0,1.51,8.46,8.46,0,0,1-2.5,5,15.54,15.54,0,0,1-4.41,3.08,28.66,28.66,0,0,1-4.91,1.78c-1.64.48-3.3.87-5,1.23a85.19,85.19,0,0,1-20.33,1.58c-3.39-.14-6.78-.42-10.14-.87a42.3,42.3,0,0,1-5-1A27.59,27.59,0,0,1,253.75,245.42Z"/>
      <path d="M264,247.61a34.71,34.71,0,0,0-6,4.09,31.18,31.18,0,0,0-2.62,2.52c-.39.45-.8.89-1.17,1.36l-.56.71a5.89,5.89,0,0,0-.42.64,22.1,22.1,0,0,0-1.82,6.79c-.36,2.42-.63,4.9-.94,7.35h-2a35,35,0,0,1,.21-7.72,28.86,28.86,0,0,1,.78-3.85,15.68,15.68,0,0,1,1.5-3.83,6.92,6.92,0,0,1,.63-.93l.63-.76c.42-.52.89-1,1.35-1.45a33.06,33.06,0,0,1,3-2.58,30.4,30.4,0,0,1,3.24-2.16,26.25,26.25,0,0,1,3.53-1.73Z"/>
      <g>
        <path class="cls-17" d="M285.4,256.79l-1.62-1.47c-.1-.11-.27-.27-.27-.27a1.16,1.16,0,0,0-.87-.3l-14.27.75a2.26,2.26,0,0,0-2.06,1.67l-7.9,29.2a1.07,1.07,0,0,0,.51,1.05l2.05,1.83,2.75-.46L274,285.91a2.42,2.42,0,0,0,2.05-1.74l6.64-23.79Z"/>
        <path d="M285.07,256.82c-.42-.33-.83-.64-1.22-1-.19-.16-.38-.33-.59-.53a.79.79,0,0,0-.54-.19l-3.4.22-6.84.44-3.43.2-.8.05a1.91,1.91,0,0,0-.62.22,1.76,1.76,0,0,0-.78,1l-1.74,6.62-3.5,13.26c-.61,2.2-1.19,4.41-1.83,6.61l-.47,1.65c-.12.5-.41,1.29-.31,1.23a7.56,7.56,0,0,0,1,1.06l1.25,1.19h0l-.4-.12,2.75-.46h-.05l10.28-2.88H274a1.9,1.9,0,0,0,1.19-.6,2.73,2.73,0,0,0,.6-1.35l.92-3.32,1.85-6.63,3.71-13.26h0l0-.1.05-.06C283.18,259,284.11,258,285.07,256.82Zm.66-.06c-.84,1.26-1.72,2.6-2.65,3.91l.08-.16h0l-3.71,13.26-1.85,6.63-.92,3.32a3.77,3.77,0,0,1-.82,1.75,2.87,2.87,0,0,1-1.81.91h.08l-10.28,2.88h-.05l-2.75.47-.23,0-.18-.15h0l-1.31-1.1-.65-.55a2.58,2.58,0,0,1-.73-.79,1.27,1.27,0,0,1-.15-.73,4.24,4.24,0,0,1,.11-.52l.21-.83.42-1.67c.56-2.21,1.18-4.41,1.76-6.63L264,263.58,265.8,257a2.82,2.82,0,0,1,2.3-1.95c.37,0,.59,0,.9-.06l3.42-.15,6.86-.29,3.45-.13a1.52,1.52,0,0,1,1,.41l.66.64C284.87,255.86,285.31,256.32,285.73,256.76Z"/>
      </g>
      <g>
        <path class="cls-18" d="M285.88,258l-7.83,28.05A2.38,2.38,0,0,1,276,287.8l-14.62,1.59a.9.9,0,0,1-1-1.13l7.89-29.2a2.26,2.26,0,0,1,2.07-1.66l14.39-.77A1.1,1.1,0,0,1,285.88,258Z"/>
        <path d="M286.22,258.11c-2.1,7.9-4.17,15.8-6.33,23.67l-.8,3-.4,1.48a3.05,3.05,0,0,1-1,1.6,3.09,3.09,0,0,1-1.76.66l-1.52.16c-1,.1-2,.21-3.05.29l-6.1.51-3.05.28-.78.07a1.33,1.33,0,0,1-1-.37,1.33,1.33,0,0,1-.34-1.26l.05-.18.1-.37L266.69,264l.8-3,.4-1.48a3.63,3.63,0,0,1,.64-1.5,2.61,2.61,0,0,1,1.44-.87,15,15,0,0,1,1.57-.12l3.06-.18,6.11-.35,3.06-.17.76-.05a1.78,1.78,0,0,1,.91.12A1.45,1.45,0,0,1,286.22,258.11Zm-.67-.18a.75.75,0,0,0-.4-.89c-.26-.15-.85,0-1.35,0l-3.06.15-6.11.29-3.06.15c-.49,0-1.07,0-1.49.1a2,2,0,0,0-1.12.69,3.07,3.07,0,0,0-.53,1.3l-.4,1.48-.79,2.95-6.3,23.68-.1.37,0,.18s0,.07,0,.11a.52.52,0,0,0,.15.39.49.49,0,0,0,.4.13l.75-.09,3-.38,6.07-.81c1-.14,2-.26,3-.37l1.52-.18a1.92,1.92,0,0,0,1.07-.39,1.8,1.8,0,0,0,.61-.91l.42-1.47.85-2.94C280.94,273.6,283.25,265.76,285.55,257.93Z"/>
      </g>
      <g>
        <path class="cls-7" d="M231.34,263.59s14.23,7.09,26.67,7.75c19,1,27-4.94,28.5-3,2.49,3.24-8.58,18.28-32.22,19.14-19.26.7-29.07-3.82-29.07-3.82"/>
        <path d="M231.34,263.59a134,134,0,0,0,15,4.94,73.25,73.25,0,0,0,7.69,1.56,59.42,59.42,0,0,0,7.8.55,67.37,67.37,0,0,0,15.64-1.4c1.29-.28,2.56-.6,3.84-.95a26,26,0,0,1,4-.88,2.14,2.14,0,0,1,1.28.29,1.35,1.35,0,0,1,.49.56,1.77,1.77,0,0,1,.24.61,4.41,4.41,0,0,1-.2,2.25,12.77,12.77,0,0,1-2,3.64,28.59,28.59,0,0,1-5.86,5.61,37.84,37.84,0,0,1-7,4.07,48.47,48.47,0,0,1-15.64,4,90.65,90.65,0,0,1-16.06-.28,50.57,50.57,0,0,1-7.91-1.48,29.77,29.77,0,0,1-7.45-3A108.06,108.06,0,0,0,240.79,286c2.61.23,5.22.39,7.84.41,1.31,0,2.62,0,3.93,0s2.62-.06,3.91-.14a47.38,47.38,0,0,0,15.13-3.39,36.93,36.93,0,0,0,6.85-3.66,25.51,25.51,0,0,0,5.7-5.21,11.64,11.64,0,0,0,1.89-3.25,3.38,3.38,0,0,0,.21-1.65c-.15-.51-.24-.62-.88-.62a22.68,22.68,0,0,0-3.75.83c-1.29.35-2.57.69-3.87,1a69.19,69.19,0,0,1-15.9,1.94,47.12,47.12,0,0,1-8-.53A61,61,0,0,1,246,269.9,74,74,0,0,1,231.34,263.59Z"/>
      </g>
      <path d="M272.23,228.5a19.55,19.55,0,0,1,4.82.76,20.23,20.23,0,0,1,4.56,1.83,14.73,14.73,0,0,1,3.86,3.15,13.17,13.17,0,0,1,2.58,4.17,38.83,38.83,0,0,0-7.39-5.62C278,231.32,275.07,230.13,272.23,228.5Z"/>
      <path d="M242.68,220.59a3.91,3.91,0,0,1,.28-2.43,4,4,0,0,1,1.79-1.95,5.08,5.08,0,0,1,1.22-.38,5.82,5.82,0,0,1,1.17-.13,4.86,4.86,0,0,1,2.35.47,18.51,18.51,0,0,1-2,1l-1.84.76a6.13,6.13,0,0,0-1.39,1C243.74,219.46,243.27,220,242.68,220.59Z"/>
      <path d="M254.09,253.9c.43,1.54.92,3.09,1.43,4.61s1.08,3,1.73,4.46a31.46,31.46,0,0,0,2.39,4.1c.88,1.32,1.83,2.63,2.8,3.88l-1.54,1.19c-1-1.34-1.9-2.69-2.78-4.1a32.41,32.41,0,0,1-2.38-4.39,49.1,49.1,0,0,1-1.66-4.67c-.48-1.57-.92-3.14-1.32-4.73Z"/>
      <path d="M271.42,88.2c-5.57,2-11.11,4.16-16.53,6.54a129.29,129.29,0,0,0-15.74,8.13c-1.28.74-2.46,1.61-3.69,2.41s-2.39,1.71-3.51,2.65a67.83,67.83,0,0,0-6.53,5.93,81.57,81.57,0,0,0-5.81,6.65,69.41,69.41,0,0,0-5.07,7.21l-.12-.86h0a24.06,24.06,0,0,1,3.52,5.51,21.15,21.15,0,0,1,1.92,6.21,23,23,0,0,1-.16,6.48,28.23,28.23,0,0,1-.69,3.16c-.15.52-.31,1-.51,1.56a6.15,6.15,0,0,1-.37.83.77.77,0,0,1-.1.15.66.66,0,0,1-.5.25.78.78,0,0,1-.21,0l-.14-.05a1.17,1.17,0,0,1-.33-.27,3,3,0,0,1-.3-.36,62.17,62.17,0,0,0-3.75-5.07,22.52,22.52,0,0,0-4.46-4.08,10.86,10.86,0,0,0-2.56-1.26,8.63,8.63,0,0,0-2.73-.41,19.62,19.62,0,0,0-5.81.92,44.93,44.93,0,0,0-11.17,5.35c-.88.58-1.75,1.17-2.61,1.79a15.86,15.86,0,0,1-1.35.91,1.12,1.12,0,0,1-.26.11.34.34,0,0,1-.16,0c-.06,0-.32-.1-.33-.22a.31.31,0,0,1,0-.17v-.08c0-.16,0-.3.05-.43,0-.28.08-.54.13-.8a45.94,45.94,0,0,1,1.58-6.21,25.13,25.13,0,0,1,2.7-5.87,18.81,18.81,0,0,1,4.44-4.8,27.16,27.16,0,0,1,11.7-5.42h0l-.51.59a126,126,0,0,1,.65-13.33c.42-4.43,1-8.84,1.87-13.22a124.41,124.41,0,0,1,3.22-13l.49-1.6.56-1.59c.37-1,.75-2.11,1.15-3.15.91-2,1.68-4.16,2.76-6.14A93.43,93.43,0,0,1,219,61.63a88.13,88.13,0,0,1,8.4-10.47,70.67,70.67,0,0,1,10.06-8.87,48.55,48.55,0,0,1,11.73-6.37A85.29,85.29,0,0,0,229,52.63a92.57,92.57,0,0,0-8.14,10.26,90.3,90.3,0,0,0-6.67,11.28c-1,1.91-1.79,4-2.67,6l-1.14,3.08-.57,1.54-.49,1.56A117.8,117.8,0,0,0,205.93,99a170.4,170.4,0,0,0-3.29,26.16l0,.51-.49.08h0a29.17,29.17,0,0,0-11,5.37c-3.3,2.45-5.41,6.08-7.11,9.87a27.78,27.78,0,0,0-1.84,6c0,.25-.09.51-.12.76a2.38,2.38,0,0,0,0,.36v.06s0-.09,0-.12a.27.27,0,0,0-.11-.13.29.29,0,0,0-.14,0s-.08,0-.07,0l.1-.06c.4-.25.82-.6,1.23-.92l2.5-2a42.32,42.32,0,0,1,11-6.74,17.52,17.52,0,0,1,6.62-1.2,9.92,9.92,0,0,1,3.48.65,12.08,12.08,0,0,1,3,1.74c3.58,2.8,5.72,6.7,8,10.16l.19.26s.07.05,0,0a.19.19,0,0,0-.09,0,.38.38,0,0,0-.16,0,.59.59,0,0,0-.42.21s0,0,0,0a4.14,4.14,0,0,0,.27-.61c.18-.46.34-1,.49-1.45a25.73,25.73,0,0,0,.69-3,20.12,20.12,0,0,0,.2-6.14,21.13,21.13,0,0,0-5.34-10.85h0l-.38-.39.26-.47a74.76,74.76,0,0,1,10.81-14.47,70.33,70.33,0,0,1,6.6-6.19c1.14-1,2.37-1.87,3.58-2.79s2.48-1.73,3.78-2.5a131.64,131.64,0,0,1,16-8.27c5.48-2.44,11.06-4.59,16.76-6.49Z"/>
      <path d="M265,29a44.67,44.67,0,0,1,12.53-3.92,92.85,92.85,0,0,1,13.12-1.18,95.06,95.06,0,0,1,13.16.77,79.27,79.27,0,0,1,12.89,3c1,.36,2.07.79,3.11,1.18.51.21,1,.39,1.54.62l1.5.72c1,.49,2,.91,3,1.48l2.88,1.68a26.75,26.75,0,0,1,9.42,9.57,30.65,30.65,0,0,1,3.73,12.86A40.66,40.66,0,0,1,340.69,69l-1.61-.46c1.8-8.19,1.39-17.32-2.79-24.59a24.41,24.41,0,0,0-8.73-8.78A60.24,60.24,0,0,0,316,29.77a76.82,76.82,0,0,0-12.47-3,93.37,93.37,0,0,0-12.84-.88,104.43,104.43,0,0,0-12.86,1C273.57,27.43,269.34,28.18,265,29Z"/>
      <path d="M245,38.14a6.39,6.39,0,0,0-.69-.68,9.92,9.92,0,0,0-.87-.66,13.57,13.57,0,0,0-2-1.1,26,26,0,0,0-4.39-1.56,38.09,38.09,0,0,0-9.42-1.31c-1.61,0-3.21.07-4.87.13a4.45,4.45,0,0,1-1.39-.14.89.89,0,0,1-.5-.39.75.75,0,0,1-.06-.64c0-.13.08-.27.13-.4l.18-.3a8.66,8.66,0,0,1,1.77-1.89,30.48,30.48,0,0,1,8.67-4.72,54,54,0,0,1,9.5-2.5,41.47,41.47,0,0,1,9.83-.73,36.29,36.29,0,0,1,18.76,6l-1,1.3a31.27,31.27,0,0,0-8.4-4.29,36,36,0,0,0-9.39-1.8,40.58,40.58,0,0,0-9.58.57A53.1,53.1,0,0,0,232,25.42,29.57,29.57,0,0,0,223.56,30,7.56,7.56,0,0,0,222,31.6l-.14.22a1.27,1.27,0,0,1-.06.18c0,.09,0,0,0-.06s-.07-.06,0,0a4.52,4.52,0,0,0,1,.05c1.58-.08,3.23-.29,4.87-.38a34.48,34.48,0,0,1,9.91.69,22.72,22.72,0,0,1,4.8,1.65,15.55,15.55,0,0,1,2.22,1.36,9.23,9.23,0,0,1,1,.89,5,5,0,0,1,.9,1.17Z"/>
      <path d="M328.27,65.82a34,34,0,0,1,21.18,9.45,50,50,0,0,1,4.18,4.18,27,27,0,0,1,1.85,2.35,7.14,7.14,0,0,1,1.32,3c0,.17,0,.34,0,.51a3,3,0,0,1-.16.56,2.54,2.54,0,0,1-.36.5,3.52,3.52,0,0,1-.42.29,6.59,6.59,0,0,1-1.52.59c-.5.16-1,.22-1.5.33s-1,.14-1.49.19a30.32,30.32,0,0,1-6,0c-7.93-.68-15.4-3.94-21.95-8.19a58,58,0,0,1-9.31-7.24,33.71,33.71,0,0,1-3.88-4.53,22.45,22.45,0,0,1-1.57-2.58,11.91,11.91,0,0,1-1.13-2.94l1.64-.3a10.79,10.79,0,0,0,1,2.43,22.25,22.25,0,0,0,1.5,2.35,38.27,38.27,0,0,0,3.72,4.24,57.26,57.26,0,0,0,9,7,59.11,59.11,0,0,0,10.15,5.24,45.32,45.32,0,0,0,11,2.94,28.1,28.1,0,0,0,5.65.2c.46,0,.92-.1,1.39-.15s.92-.15,1.35-.28a5.76,5.76,0,0,0,1.18-.42,1.57,1.57,0,0,0,.19-.12s0,0,.06-.07a.37.37,0,0,1,0-.14.81.81,0,0,1,0-.22,5.85,5.85,0,0,0-1.1-2.27,21.69,21.69,0,0,0-1.8-2.16,46.69,46.69,0,0,0-4.23-3.83C342.47,71.61,335.6,68.48,328.27,65.82Z"/>
      <path d="M272.35,80.1a21.21,21.21,0,0,1-.14,8.76,17.87,17.87,0,0,1-1.5,4.24,17.23,17.23,0,0,1-2.58,3.68c-1.93,2.23-4.21,4.09-6.2,6.09a9,9,0,0,0-.67.75,1.41,1.41,0,0,0-.18.3.54.54,0,0,0-.05-.21.2.2,0,0,0-.09-.09s0,0,0,0h0a4.47,4.47,0,0,0,.88-.07c.33,0,.68-.12,1-.18a40,40,0,0,0,4.08-1.15,42.19,42.19,0,0,0,7.66-3.6,23.45,23.45,0,0,0,6.26-5.39,36.45,36.45,0,0,0,6.46-15.47,21,21,0,0,1-1,8.67,27.12,27.12,0,0,1-4.07,7.84,22.57,22.57,0,0,1-6.85,5.68,44.66,44.66,0,0,1-8.06,3.45,40,40,0,0,1-4.24,1.13c-.37.06-.72.14-1.1.18a4.79,4.79,0,0,1-1.28,0,.86.86,0,0,1-.28-.1l-.15-.1a.83.83,0,0,1-.27-.63,1.08,1.08,0,0,1,.05-.29,2.48,2.48,0,0,1,.35-.64,9.21,9.21,0,0,1,.75-.87c2-2.11,4.06-4.1,5.8-6.31C270.5,91.45,271.35,85.8,272.35,80.1Z"/>
      <path d="M285.7,83.69A46.79,46.79,0,0,1,297,83.18a44.62,44.62,0,0,1,5.62.76,24.36,24.36,0,0,1,5.5,1.78c3.47,1.65,6.5,3.7,9.74,5.35a53.07,53.07,0,0,0,10.1,4,34.16,34.16,0,0,0,10.65,1.61,14.13,14.13,0,0,0,2.61-.35,7.07,7.07,0,0,0,2.34-.92,3.79,3.79,0,0,0,.88-.74,1.57,1.57,0,0,0,.36-.8.2.2,0,0,0,.05.15l-.05,0s-.12-.1-.17-.15a5.06,5.06,0,0,0-.51-.35c-.38-.23-.77-.46-1.17-.68a95.79,95.79,0,0,1-9.54-5.75q-2.29-1.59-4.48-3.35c-.73-.59-1.45-1.19-2.14-1.84a18.68,18.68,0,0,1-2-2.11l1.37-1a17.89,17.89,0,0,0,1.74,1.94c.64.63,1.32,1.24,2,1.84,1.38,1.18,2.84,2.29,4.32,3.36a80.28,80.28,0,0,0,9.4,5.71c.4.22.81.45,1.22.71a5.87,5.87,0,0,1,.63.43,1.85,1.85,0,0,1,.35.31l.18.21a1.94,1.94,0,0,1,.16.48,2.71,2.71,0,0,1-.63,1.73,4.93,4.93,0,0,1-1.19,1.06,8.71,8.71,0,0,1-2.76,1.15,14.86,14.86,0,0,1-2.87.43,37.17,37.17,0,0,1-11.19-1.41,54.47,54.47,0,0,1-10.55-3.87c-1.69-.83-3.34-1.71-4.95-2.61s-3.2-1.8-4.81-2.52a21.67,21.67,0,0,0-5-1.55,47.35,47.35,0,0,0-5.34-.77,72.66,72.66,0,0,0-10.84-.11Z"/>
      <path d="M309.74,63.4a10.26,10.26,0,0,0-.83,2.85,13,13,0,0,0-.1,3,15.52,15.52,0,0,0,1.72,5.88,21.55,21.55,0,0,0,3.68,5.06A37,37,0,0,0,319,84.46a46.12,46.12,0,0,0,5.44,3.38,48.44,48.44,0,0,0,5.85,2.71,56.62,56.62,0,0,0,6.14,2,26.13,26.13,0,0,0,6.38,1.07,12.35,12.35,0,0,1-3.27,0,27.35,27.35,0,0,1-3.25-.47,45.27,45.27,0,0,1-6.35-1.66,46.53,46.53,0,0,1-11.81-5.87A37.7,37.7,0,0,1,313,81.37a22.09,22.09,0,0,1-4-5.4,15.08,15.08,0,0,1-.74-13.36Z"/>
      <path d="M320.41,76.67a16.16,16.16,0,0,1,3.8,2.4,18.06,18.06,0,0,1,3.12,3.29,13.72,13.72,0,0,1,1.18,2,22.23,22.23,0,0,1,.84,2.09,11.45,11.45,0,0,1,.74,4.45A43.43,43.43,0,0,0,328.16,87c-.36-.62-.68-1.26-1.06-1.88A14.45,14.45,0,0,0,326,83.33c-.81-1.15-1.74-2.24-2.68-3.33S321.38,77.82,320.41,76.67Z"/>
      <path d="M305.7,62.72a3.24,3.24,0,0,1,1.17-1.24,3.55,3.55,0,0,1,1.7-.57,4,4,0,0,1,1.74.38,2.7,2.7,0,0,1,1.29,1.14,9.78,9.78,0,0,0-1.54-.37,8.06,8.06,0,0,0-1.44-.1A10.53,10.53,0,0,0,305.7,62.72Z"/>
      <path d="M296.8,84.67a21.81,21.81,0,0,1-5.08,9.13c-1.11,1.31-2.41,2.51-3.54,3.69a2.14,2.14,0,0,0-.3.39s0,0,0-.08a.21.21,0,0,0-.07-.15.14.14,0,0,0-.08-.07l.2,0a6.44,6.44,0,0,0,1.17,0,14.63,14.63,0,0,0,2.45-.36A26.13,26.13,0,0,0,300.48,93c.66-.49,1.34-1,2-1.52a14.45,14.45,0,0,0,1.69-1.72,17.34,17.34,0,0,0,2.53-4.09l1.56.6a16.84,16.84,0,0,1-2.85,4.54,19,19,0,0,1-4,3.42,26.91,26.91,0,0,1-9.59,4,17.24,17.24,0,0,1-2.61.33,7.12,7.12,0,0,1-1.37-.06c-.13,0-.25-.06-.41-.12a.61.61,0,0,1-.35-.46.79.79,0,0,1,.06-.39,3.05,3.05,0,0,1,.44-.64c1.19-1.3,2.39-2.44,3.46-3.74a17.87,17.87,0,0,0,4.21-8.8Z"/>
      <polygon points="251.06 287.85 250.27 291.53 248.81 291.57 247.81 287.94 251.06 287.85"/>
      <path d="M53.13,178.27a45.64,45.64,0,0,1,2.79-6.84,67.16,67.16,0,0,1,3.6-6.48,77.46,77.46,0,0,1,9.09-11.73,82.37,82.37,0,0,1,11.09-9.93,71.84,71.84,0,0,1,12.87-7.55,60.84,60.84,0,0,1,14.26-4.51,43.14,43.14,0,0,1,15-.36,30.12,30.12,0,0,1,13.86,6,29.47,29.47,0,0,1,9.19,12l-1.73.65a27.26,27.26,0,0,0-3.73-5.94,28.38,28.38,0,0,0-5.09-4.89,29,29,0,0,0-12.9-5.35,40.89,40.89,0,0,0-14.16.45,64,64,0,0,0-13.68,4.34,69.31,69.31,0,0,0-12.47,7.18,79.34,79.34,0,0,0-10.84,9.55A113.92,113.92,0,0,0,61.1,166,136.82,136.82,0,0,0,53.13,178.27Z"/>
      <path d="M58.09,170.49a14.61,14.61,0,0,0-2.34.33,21.93,21.93,0,0,0-2.37.66,38.43,38.43,0,0,0-4.6,1.91c-1.5.72-3,1.57-4.38,2.43a27.61,27.61,0,0,0-3.95,3A37.74,37.74,0,0,0,34,186.3a68.45,68.45,0,0,0-5,8.82l-.36-.1a30.29,30.29,0,0,1,3.67-9.77A34.17,34.17,0,0,1,38.92,177a30.41,30.41,0,0,1,4.27-3.19,49.13,49.13,0,0,1,4.65-2.47,32.1,32.1,0,0,1,5-1.79,21,21,0,0,1,2.62-.54,11.93,11.93,0,0,1,2.77-.13Z"/>
      <path d="M111.33,199.41a38.25,38.25,0,0,1,2.7-5.58,25.76,25.76,0,0,1,3.81-5.05,9.11,9.11,0,0,1,2.87-2c1-.37,2-.65,3-.93l5.88-1.64c7.8-2.22,15.65-4.37,23-7.58a42.11,42.11,0,0,0,5.25-2.75,29.16,29.16,0,0,0,4.66-3.63,15.54,15.54,0,0,0,1.89-2.19,5.31,5.31,0,0,0,.94-2.49,2.5,2.5,0,0,0-.21-1.16,3.27,3.27,0,0,0-.32-.5c-.07-.06-.13-.14-.2-.19s-.12-.1,0,0,0,0,0,0a8.28,8.28,0,0,0-1.34.07c-.5.06-1,.13-1.49.21-4,.66-8,1.48-12.06,2.05a51,51,0,0,1-12.41,0l.32-1.91a42.51,42.51,0,0,0,11.92.49c4-.42,8-1.28,12-1.9.51-.07,1-.15,1.54-.2a7.69,7.69,0,0,1,1.7-.06,1.25,1.25,0,0,1,.37.12,1.18,1.18,0,0,1,.27.18c.13.1.23.22.35.33a4.2,4.2,0,0,1,.53.77,3.88,3.88,0,0,1,.38,1.79,7,7,0,0,1-1.07,3.2,15.28,15.28,0,0,1-1.95,2.54,28.65,28.65,0,0,1-4.72,4.14,37.26,37.26,0,0,1-5.47,3.05A113,113,0,0,1,142,183c-3.88,1.29-7.8,2.43-11.74,3.51l-5.89,1.59c-1,.26-2,.53-2.83.83a7,7,0,0,0-2.12,1.47c-2.7,2.68-4.87,6.17-7.08,9.52Z"/>
      <path d="M131.82,154.66a43.19,43.19,0,0,1,11.69-5.32,53.3,53.3,0,0,1,6.28-1.55c2.12-.36,4.26-.63,6.4-.81s4.29-.26,6.44-.26a32.51,32.51,0,0,1,3.26.12,16.41,16.41,0,0,1,1.65.24,6,6,0,0,1,.87.24,2.33,2.33,0,0,1,1,.61,1.44,1.44,0,0,1,.22.4,2.76,2.76,0,0,1,.06.4,2.47,2.47,0,0,1-.08.59,4.17,4.17,0,0,1-.38.88,7.4,7.4,0,0,1-1,1.43,18.54,18.54,0,0,1-2.36,2.33,41.26,41.26,0,0,1-5.37,3.69,82.26,82.26,0,0,1-11.64,5.57,66.61,66.61,0,0,1-12.46,3.55,72.51,72.51,0,0,1-12.88,1.17,65.49,65.49,0,0,1-12.87-1.16l.21-1.28a103.84,103.84,0,0,0,25.1-1.18,75.85,75.85,0,0,0,12.12-3.18,86.59,86.59,0,0,0,11.57-5,35.07,35.07,0,0,0,5.25-3.38,17.56,17.56,0,0,0,2.22-2.08,6.62,6.62,0,0,0,.86-1.17,4.09,4.09,0,0,0,.27-.57c0-.07.05-.19,0-.2h0s0,.05,0,.06a1.4,1.4,0,0,0-.38-.2,6.11,6.11,0,0,0-.68-.18,12,12,0,0,0-1.5-.2c-1-.09-2.07-.11-3.12-.11-2.1,0-4.2.21-6.3.44C147.93,149.44,140,152,131.82,154.66Z"/>
      <path class="cls-19" d="M25.56,198.2c1.57-.22,3.12-.32,4.65-.44a26.13,26.13,0,0,0,4.44-.58,14.72,14.72,0,0,0,3.92-2c1.26-.83,2.51-1.74,3.72-2.67l1-.73-.19,1.11h0c0,1,.07,2,.14,3a11.8,11.8,0,0,0,.44,2.79,2.2,2.2,0,0,0,.67,1,6.54,6.54,0,0,0,1.11.86,20.81,20.81,0,0,0,2.66,1.38,9.18,9.18,0,0,1-3-.64,6.51,6.51,0,0,1-1.43-.79,3.64,3.64,0,0,1-.64-.61,3.14,3.14,0,0,1-.45-.79,9.12,9.12,0,0,1-.58-3.16,14.66,14.66,0,0,1,.21-3.1h0l.76.37a26.49,26.49,0,0,1-3.55,3.14A13.26,13.26,0,0,1,35,198.6a17.46,17.46,0,0,1-4.8.36A19.55,19.55,0,0,1,25.56,198.2Z"/>
      <path class="cls-19" d="M51.87,201.2a19.14,19.14,0,0,0,6.14-.11,11.07,11.07,0,0,0,2.85-.93,23.2,23.2,0,0,0,2.59-1.57c1.69-1.16,3.3-2.47,4.92-3.75s3.2-2.63,4.77-4l1.26-1.08-.17,1.64h0a27.56,27.56,0,0,0,.21,6,7.35,7.35,0,0,0,.87,2.63,1.86,1.86,0,0,0,.82.76,5.8,5.8,0,0,0,1.32.35,11.69,11.69,0,0,0,5.74-.77,26.87,26.87,0,0,0,5.43-2.68l.25-.16.11.31A9,9,0,0,0,90.8,201a6,6,0,0,0,1.35,1.07,8.12,8.12,0,0,0,1.65.66,33,33,0,0,0,3.69.8l3.86.63a16.84,16.84,0,0,1-3.94.4,15.24,15.24,0,0,1-4-.51,8.21,8.21,0,0,1-2-.81,6,6,0,0,1-1.59-1.46,6.58,6.58,0,0,1-1.33-3.89l.37.15a22.63,22.63,0,0,1-5.33,3.28,12.38,12.38,0,0,1-6.31,1.13A6.83,6.83,0,0,1,75.6,202a3.32,3.32,0,0,1-1.46-1.24A8.17,8.17,0,0,1,73,197.63a24,24,0,0,1-.1-6.33h0l1.09.55c-1.57,1.4-3.15,2.76-4.8,4a60.29,60.29,0,0,1-5.13,3.66,18.14,18.14,0,0,1-2.82,1.52,11.85,11.85,0,0,1-3.14.78A16,16,0,0,1,51.87,201.2Z"/>
      <path d="M59.57,182.38,57,187.15c-.42.79-.85,1.58-1.22,2.39a13.19,13.19,0,0,0-1,2.42,1.82,1.82,0,0,0-.08,1c0,.08.24.18.52.08A5.09,5.09,0,0,0,57,191.35a44.87,44.87,0,0,0,2.78-4.62,19.88,19.88,0,0,1-2.07,5.09,8.56,8.56,0,0,1-.83,1.17,3.83,3.83,0,0,1-1.23,1,1.78,1.78,0,0,1-1,.1,1.28,1.28,0,0,1-.88-.69,2.64,2.64,0,0,1,0-1.69,19.22,19.22,0,0,1,2.5-5A35.91,35.91,0,0,1,59.57,182.38Z"/>
      <path class="cls-19" d="M38.2,203.39c4.37,1,8.76,1.72,13.17,2.28s8.82.91,13.25,1,8.89.12,13.35.1,8.92-.11,13.4-.11A130,130,0,0,1,78,208.25c-4.47.32-9,.44-13.46.32a85.14,85.14,0,0,1-13.42-1.45A65.86,65.86,0,0,1,38.2,203.39Z"/>
      <g class="cls-20">
        <path class="cls-19" d="M56.11,210.48a54.6,54.6,0,0,0,7.08.9c2.37.19,4.75.27,7.12.33,4.74.08,9.49,0,14.24-.27s9.48-.6,14.19-1.18c2.35-.29,4.7-.64,7-1.08a55.46,55.46,0,0,0,6.94-1.63,57.81,57.81,0,0,1-13.79,4,116.59,116.59,0,0,1-14.3,1.54A121,121,0,0,1,70.25,213,57.49,57.49,0,0,1,56.11,210.48Z"/>
      </g>
      <path class="cls-3" d="M199.42,97.83a124.25,124.25,0,0,1,8.5-13,152.58,152.58,0,0,1,11.5-13s-12.75,21.5-14.75,25.75a83.41,83.41,0,0,0-3.5,9Z"/>
      <path class="cls-3" d="M186.92,148.08a92.12,92.12,0,0,1,6.75-10.25c2.75-3.25,5.75-6.5,5.75-6.5l-6.5,13Z"/>
      <path class="cls-3" d="M209.42,151.08s3.25-8.5,6-14,8.25-12,8.25-12-6.25,13.5-8.25,18-3.5,8-3.5,8Z"/>
      <path class="cls-19" d="M107.92,204.71c1.88-.46,3.75-.84,5.6-1.24s3.7-.81,5.46-1.36a14.83,14.83,0,0,0,2.52-1,2.42,2.42,0,0,0,.84-.61.25.25,0,0,0,0-.2.78.78,0,0,0-.19-.36,7.47,7.47,0,0,0-2.18-1.49c-.83-.44-1.7-.83-2.58-1.23a14.7,14.7,0,0,1,2.86.53,7.26,7.26,0,0,1,2.76,1.36,2.06,2.06,0,0,1,.56.84,1.6,1.6,0,0,1-.1,1.18,3.39,3.39,0,0,1-1.31,1.24,15.26,15.26,0,0,1-2.78,1.18,30.59,30.59,0,0,1-5.73,1.07A31.88,31.88,0,0,1,107.92,204.71Z"/>
      <path class="cls-19" d="M32.82,202.27a40.89,40.89,0,0,1-6.64,0,31.62,31.62,0,0,1-6.62-1.12,12.41,12.41,0,0,1-1.64-.65A2.92,2.92,0,0,1,16.37,199a1.58,1.58,0,0,1,.14-1.36,3.68,3.68,0,0,1,.64-.79,6.38,6.38,0,0,1,1.5-1,18.51,18.51,0,0,1,6.48-1.72,34.22,34.22,0,0,0-5.9,2.72,6,6,0,0,0-1.15.94,2.12,2.12,0,0,0-.37.51c-.06.15,0,.16,0,.21a2.2,2.2,0,0,0,.89.65,10.07,10.07,0,0,0,1.43.53,30.69,30.69,0,0,0,3.11.76c1.06.24,2.14.41,3.21.62C28.48,201.45,30.64,201.82,32.82,202.27Z"/>
      <path d="M100.7,187.82c-.17,1.1-.37,2.18-.5,3.24a9.13,9.13,0,0,0-.09,1.55,1.56,1.56,0,0,0,.33,1.1.77.77,0,0,0,.85,0,2.05,2.05,0,0,0,.65-1.11,17.52,17.52,0,0,0,.46-3.18,7.56,7.56,0,0,1,.37,3.36,2.78,2.78,0,0,1-.85,1.75,1.35,1.35,0,0,1-.5.28,1.5,1.5,0,0,1-.55.11,1.53,1.53,0,0,1-1.14-.35,1.87,1.87,0,0,1-.56-1,3.55,3.55,0,0,1-.09-.95,8,8,0,0,1,.28-1.72A11.36,11.36,0,0,1,100.7,187.82Z"/>
      <path class="cls-19" d="M131,188c-.48,1.08-1,2.12-1.42,3.16a8.92,8.92,0,0,0-.49,1.55,1.77,1.77,0,0,0,0,.64c0,.15.07.18.19.22s.1.06.23-.05a1.8,1.8,0,0,0,.34-.56,9.16,9.16,0,0,0,.48-1.56C130.55,190.26,130.74,189.12,131,188Zm0,0a13.06,13.06,0,0,1,.15,3.53,7.44,7.44,0,0,1-.36,1.81,2.64,2.64,0,0,1-.54.93,1.32,1.32,0,0,1-.61.37,1.23,1.23,0,0,1-.74,0,1.37,1.37,0,0,1-.88-1,2.7,2.7,0,0,1,.06-1.08,6.89,6.89,0,0,1,.74-1.7A12.34,12.34,0,0,1,131,188Z"/>
      <path class="cls-3" d="M291.92,143.58h20.5a60.46,60.46,0,0,0-12.25-3c-6.25-.75-12.5-1-12.5-1Z"/>
      <path class="cls-19" d="M172.13,157.41a26.53,26.53,0,0,0,6.61,2.64,8,8,0,0,0,.82.1,1.38,1.38,0,0,0,.62-.07,7.11,7.11,0,0,0,1.48-.71,29.49,29.49,0,0,0,2.92-2.08c1.89-1.51,3.72-3.14,5.53-4.78l5.44-5h0c-.59,2.29-1.27,4.54-1.81,6.78a13.57,13.57,0,0,0-.49,3.25,1.07,1.07,0,0,0,.08.42s-.08-.08-.11-.08l.11,0a6.57,6.57,0,0,0,1.32-.67A64.67,64.67,0,0,0,200.1,153c1.8-1.51,3.58-3,5.43-4.5h0c-.37,1.7-.75,3.38-1.05,5.06-.16.84-.3,1.68-.39,2.51a14.69,14.69,0,0,0-.12,2.46,3.91,3.91,0,0,0,.5,2,5.6,5.6,0,0,0,.77.72c.31.26.63.49,1,.72a28.79,28.79,0,0,0,4.5,2.31,9.53,9.53,0,0,1-5.23-1.07,8.61,8.61,0,0,1-1.18-.74,5,5,0,0,1-1.09-1,5.29,5.29,0,0,1-.73-2.91,18.64,18.64,0,0,1,1-5.26,28.37,28.37,0,0,1,2.07-4.8h0a53.61,53.61,0,0,1-4.62,5.37,35.46,35.46,0,0,1-5.41,4.69,5.93,5.93,0,0,1-1.82.88,1.92,1.92,0,0,1-.77,0,1.32,1.32,0,0,1-.83-.54,2.25,2.25,0,0,1-.35-1.27,12.26,12.26,0,0,1,.78-3.65,34.08,34.08,0,0,1,3-6.43h0c-.73,1-1.52,1.94-2.31,2.89s-1.59,1.88-2.43,2.79a62.23,62.23,0,0,1-5.31,5.21,24,24,0,0,1-3,2.28,8.41,8.41,0,0,1-1.83.89,3.09,3.09,0,0,1-1.19.15,8.49,8.49,0,0,1-1-.16,10,10,0,0,1-3.56-1.57A11.72,11.72,0,0,1,172.13,157.41Z"/>
      <path class="cls-19" d="M211.38,160.53a22.8,22.8,0,0,0,3.12-1,25.33,25.33,0,0,0,2.92-1.41,18.78,18.78,0,0,0,2.64-1.82c.83-.68,1.63-1.42,2.41-2.17h0l.47-.54.09.76a9.24,9.24,0,0,0,.28,1.54,7.26,7.26,0,0,0,.53,1.46,5.74,5.74,0,0,0,1.93,2.27,10.56,10.56,0,0,0,2.89,1.24,26.19,26.19,0,0,0,3.24.67,11.26,11.26,0,0,1-3.38.05,8.56,8.56,0,0,1-3.31-1.09,6.45,6.45,0,0,1-1.39-1.17,6,6,0,0,1-.95-1.54,6.67,6.67,0,0,1-.47-3.47l.56.21h0a13.73,13.73,0,0,1-5.05,4.51,14.56,14.56,0,0,1-3.17,1.23A9.79,9.79,0,0,1,211.38,160.53Z"/>
      <path d="M205.1,134.59c-.84,1.47-1.67,2.93-2.45,4.4a22.34,22.34,0,0,0-1,2.23,6.91,6.91,0,0,0-.32,1.11.94.94,0,0,0,.08.74.13.13,0,0,0,.13.06.53.53,0,0,0,.31-.15,3.93,3.93,0,0,0,.75-.81,19.66,19.66,0,0,0,1.29-2.08c.79-1.46,1.55-3,2.3-4.48a26.29,26.29,0,0,1-1.57,4.84,15.27,15.27,0,0,1-1.21,2.29,4.8,4.8,0,0,1-.94,1,1.61,1.61,0,0,1-.81.37,1.18,1.18,0,0,1-1-.36,1.85,1.85,0,0,1-.33-1.65,6.58,6.58,0,0,1,.41-1.3,16.56,16.56,0,0,1,1.24-2.27A27.11,27.11,0,0,1,205.1,134.59Z"/>
      <g class="cls-21">
        <path class="cls-19" d="M185.68,153.5a102.66,102.66,0,0,1,6.79-12.17c2.56-3.87,5.21-7.69,8.1-11.34-2.21,4.11-4.69,8-7.22,11.91S188.34,149.68,185.68,153.5Z"/>
      </g>
      <g class="cls-21">
        <path class="cls-19" d="M208.39,154.59c.81-2,1.69-4,2.53-5.94l2.64-5.91c.87-2,1.8-3.91,2.71-5.87l1.36-2.93c.5-1,1-1.94,1.56-2.87a128.57,128.57,0,0,1,7.28-10.72c1.3-1.73,2.62-3.43,4-5.13s2.71-3.34,4.14-5l-3.74,5.27q-1.87,2.63-3.71,5.28c-2.43,3.55-4.9,7.08-7,10.78-.55.92-1.06,1.85-1.56,2.79l-1.4,2.91c-1,1.93-1.86,3.88-2.84,5.8l-2.9,5.77C210.38,150.77,209.42,152.7,208.39,154.59Z"/>
      </g>
      <path class="cls-3" d="M300.17,153.83s11,.25,17.5,1.25,15.75,2.5,15.75,2.5-11.5-4.25-19.5-5.5-15-1.75-15-1.75Z"/>
      <path class="cls-19" d="M244.57,102.23l-3,4.21c-.48.71-1,1.41-1.37,2.14a6.65,6.65,0,0,0-.52,1.08,1.83,1.83,0,0,0-.12.58c-.14,0,.22,0,.47-.36a7.14,7.14,0,0,0,.74-.94c.48-.68.9-1.43,1.33-2.17Zm0,0a31.93,31.93,0,0,1-1.76,4.91,20,20,0,0,1-1.22,2.34,7.72,7.72,0,0,1-.84,1.11,2.7,2.7,0,0,1-.62.5,1.29,1.29,0,0,1-.49.18,1.08,1.08,0,0,1-.65-.15,1.1,1.1,0,0,1-.4-.51,1.24,1.24,0,0,1-.06-.52,2.49,2.49,0,0,1,.18-.78,7.58,7.58,0,0,1,.63-1.24,22.35,22.35,0,0,1,1.57-2.12A32.16,32.16,0,0,1,244.57,102.23Z"/>
      <path class="cls-19" d="M198.57,112.37l-1.26,3.84c-.19.64-.39,1.27-.51,1.89a4.11,4.11,0,0,0-.1.89.85.85,0,0,0,0,.29s0,0,0,0,.15,0,.31-.24a3.94,3.94,0,0,0,.36-.8,14,14,0,0,0,.48-1.88C198.13,115,198.35,113.71,198.57,112.37Zm0,0a18.63,18.63,0,0,1,.12,4.09,10.8,10.8,0,0,1-.35,2.07,4,4,0,0,1-.45,1,1.65,1.65,0,0,1-.48.52,1.12,1.12,0,0,1-.85.2,1,1,0,0,1-.76-.6,1.74,1.74,0,0,1-.12-.7,4.39,4.39,0,0,1,.16-1.12,14.27,14.27,0,0,1,.71-2A21.1,21.1,0,0,1,198.57,112.37Z"/>
      <g class="cls-21">
        <path class="cls-19" d="M189.58,123.69c2-5,4.19-9.94,6.46-14.84s4.68-9.72,7.26-14.48c1.31-2.36,2.72-4.69,4.25-6.92s3-4.46,4.66-6.62c3.19-4.35,6.47-8.64,9.92-12.78l-4.65,6.61q-2.34,3.3-4.62,6.63a145.64,145.64,0,0,0-8.65,13.59c-2.64,4.68-5,9.51-7.45,14.32Z"/>
      </g>
      <g class="cls-21">
        <path class="cls-19" d="M223.86,133.94c2.26-3.31,4.75-6.47,7.26-9.59s5.1-6.18,7.81-9.17a112.51,112.51,0,0,1,8.74-8.32,94.1,94.1,0,0,1,9.62-7.24c-1.56,1.26-3.11,2.53-4.61,3.86s-3,2.62-4.48,4c-2.94,2.7-5.81,5.48-8.51,8.43s-5.3,6-7.95,9l-4,4.53C226.46,130.89,225.16,132.42,223.86,133.94Z"/>
      </g>
      <g class="cls-21">
        <path class="cls-19" d="M224.05,143.32c2.12-3.08,4.4-6,6.74-9s4.78-5.75,7.35-8.48a90.13,90.13,0,0,1,8.24-7.64,80,80,0,0,1,9.07-6.59c-1.47,1.15-2.92,2.32-4.33,3.53s-2.84,2.42-4.21,3.67c-2.76,2.51-5.49,5-8,7.75s-5,5.48-7.49,8.27Z"/>
      </g>
      <path class="cls-19" d="M375.87,231a9.67,9.67,0,0,0,2.82-.81,9.45,9.45,0,0,0,2.29-1.58,19.57,19.57,0,0,0,2-2.09c.62-.76,1.22-1.55,1.86-2.38h0v-.07l.07.06c1.81,1.57,3.51,3.21,5.3,4.71a28.75,28.75,0,0,0,2.71,2.08,7.45,7.45,0,0,0,1.39.73,1.82,1.82,0,0,0,1.24.09,5.79,5.79,0,0,0,2.57-1.6,16.71,16.71,0,0,0,2.12-2.63,49.14,49.14,0,0,0,3.41-6.13h0l.08-.29.21.24a44.54,44.54,0,0,0,3.91,3.74,42,42,0,0,0,4.26,3.28,24.79,24.79,0,0,0,9.61,4.19,13.71,13.71,0,0,0,5.07,0,11.62,11.62,0,0,0,4.48-2.18,18.28,18.28,0,0,0,3.55-3.74,23.85,23.85,0,0,0,2.64-4.51l.62-1.41.87,1.22h0a23.36,23.36,0,0,0,1.81,2.38,19.56,19.56,0,0,0,2.13,2.14,11.37,11.37,0,0,0,2.5,1.67,6.45,6.45,0,0,0,2.94.72,6.71,6.71,0,0,1-3.1-.32,12.37,12.37,0,0,1-2.86-1.38,21.32,21.32,0,0,1-2.53-1.92,23.16,23.16,0,0,1-2.27-2.27h0l1.49-.19a22.41,22.41,0,0,1-6.63,9.11,12.78,12.78,0,0,1-5.26,2.48,15.07,15.07,0,0,1-5.76-.07,25.61,25.61,0,0,1-10-4.9,41.92,41.92,0,0,1-7.72-7.8l.29-.06h0a26.06,26.06,0,0,1-2.53,6.76,15.34,15.34,0,0,1-2.14,3,6.74,6.74,0,0,1-3.36,2.15,4,4,0,0,1-1.13.12,3.94,3.94,0,0,1-1.11-.25,8.05,8.05,0,0,1-1.74-1,19.62,19.62,0,0,1-2.78-2.42,30.69,30.69,0,0,1-4.35-5.73h.09a8.09,8.09,0,0,1-1,3,9.09,9.09,0,0,1-2,2.52,6.81,6.81,0,0,1-2.89,1.54A5,5,0,0,1,375.87,231Z"/>
      <path class="cls-19" d="M449.27,219.3a16.21,16.21,0,0,1,2.57-8.68,9.93,9.93,0,0,1,3.59-3,6.28,6.28,0,0,1,2.35-.69,4.33,4.33,0,0,1,2.52.48,3.05,3.05,0,0,1,1,.9,2.44,2.44,0,0,1,.52,1.35,1.88,1.88,0,0,1-.6,1.44,4.69,4.69,0,0,1-1,.75c-1.42.73-2.81,1.19-4.11,1.86a13.91,13.91,0,0,0-1.85,1.16,21,21,0,0,0-1.75,1.36A29.54,29.54,0,0,0,449.27,219.3Zm0,0a21.18,21.18,0,0,1,6.37-6.45c1.32-.81,2.78-1.32,4-2,.61-.34,1.1-.79,1-1.13a1.27,1.27,0,0,0-.31-.7,1.86,1.86,0,0,0-.65-.56,4.22,4.22,0,0,0-3.79.18,9.63,9.63,0,0,0-3.33,2.58A19.07,19.07,0,0,0,449.27,219.3Z"/>
      <path class="cls-19" d="M457.57,218.77a9.38,9.38,0,0,1,2-2.29,9.87,9.87,0,0,1,2.59-1.63,7.41,7.41,0,0,1,3.11-.65,6.71,6.71,0,0,1,1.61.21c.27.06.52.16.78.24l.38.16a3,3,0,0,1,.42.2,1.32,1.32,0,0,1,.58.6,1.08,1.08,0,0,1,.06.73,1.24,1.24,0,0,1-.26.48,2.69,2.69,0,0,1-.89.59,11,11,0,0,1-1.5.5,27.9,27.9,0,0,1-2.93.55A30.77,30.77,0,0,1,457.57,218.77Zm.09,0c1.79-.63,3.75-1.06,5.6-1.55.93-.26,1.86-.47,2.75-.77a9.23,9.23,0,0,0,1.26-.46,1.81,1.81,0,0,0,.33-.19.38.38,0,0,0-.08.16.62.62,0,0,0,0,.38c.09.17.11.12.06.1a2,2,0,0,0-.24-.11l-.29-.14c-.21-.06-.4-.15-.61-.2a6.74,6.74,0,0,0-1.27-.21,7.11,7.11,0,0,0-2.61.31A16.72,16.72,0,0,0,457.66,218.73Z"/>
      <path class="cls-19" d="M449.28,200.24a14.18,14.18,0,0,1,.85-5.33,6.91,6.91,0,0,1,1.53-2.47,3.47,3.47,0,0,1,1.45-.84,3.34,3.34,0,0,1,1.69,0,1.65,1.65,0,0,1,1,.65,1.58,1.58,0,0,1,.23,1.18,4,4,0,0,1-.66,1.46,12.68,12.68,0,0,1-1.82,2.08A24.28,24.28,0,0,1,449.28,200.24Zm0,0c1.13-1.38,2.3-2.69,3.39-4a18.92,18.92,0,0,0,1.46-2,3.24,3.24,0,0,0,.39-.94c0-.12,0-.14,0-.09s0,0-.12,0a2.59,2.59,0,0,0-.92,0,1.87,1.87,0,0,0-.83.46,6.77,6.77,0,0,0-1.39,1.89A38.71,38.71,0,0,0,449.28,200.24Z"/>
      <path class="cls-19" d="M371.45,231.2a6.73,6.73,0,0,0,2.42,1.73,20.91,20.91,0,0,0,2.79,1.08,48.36,48.36,0,0,0,5.81,1.45,110.79,110.79,0,0,0,11.89,1.68,173.14,173.14,0,0,0,24,.55,210.07,210.07,0,0,0,23.88-2.49,66,66,0,0,0,11.6-2.88,14.33,14.33,0,0,0,2.65-1.26,2.56,2.56,0,0,0,.93-.92,1.28,1.28,0,0,0-.23-1.17,5.88,5.88,0,0,0-2.42-1.57,18.69,18.69,0,0,0-2.87-.88,17.75,17.75,0,0,1,3,.64,6,6,0,0,1,2.69,1.52,1.79,1.79,0,0,1,.4,1.65,3.08,3.08,0,0,1-1.09,1.26,14.08,14.08,0,0,1-2.7,1.51,65.73,65.73,0,0,1-11.67,3.41,162.15,162.15,0,0,1-24.05,2.91,140.87,140.87,0,0,1-24.21-1,107.35,107.35,0,0,1-11.93-2.18,49.27,49.27,0,0,1-5.79-1.84,21.45,21.45,0,0,1-2.75-1.28A6.82,6.82,0,0,1,371.45,231.2Z"/>
      <g class="cls-20">
        <path class="cls-19" d="M390,243.29c4.47.57,9,.92,13.43,1.19s8.95.34,13.42.21,8.95-.38,13.42-.74,8.94-.86,13.37-1.66a78.44,78.44,0,0,1-13.24,2.85,129.9,129.9,0,0,1-13.51,1.08,105.82,105.82,0,0,1-13.56-.55A88.64,88.64,0,0,1,390,243.29Z"/>
      </g>
      <path class="cls-19" d="M461.41,234.5c1.92-.73,3.83-1.38,5.6-2.17a11.87,11.87,0,0,0,2.41-1.38,2.7,2.7,0,0,0,.74-.8.82.82,0,0,0,.09-.69,3.69,3.69,0,0,0-1.49-1.66,17.36,17.36,0,0,0-2.48-1.4c-1.77-.84-3.64-1.57-5.53-2.38a20.17,20.17,0,0,1,6.1.9,13.46,13.46,0,0,1,2.95,1.25,6.33,6.33,0,0,1,.71.48,4,4,0,0,1,.67.58,3.63,3.63,0,0,1,.61.76,3.06,3.06,0,0,1,.43.95,2.86,2.86,0,0,1-.32,2.22,4.34,4.34,0,0,1-1.35,1.35,10.38,10.38,0,0,1-3,1.31A19.1,19.1,0,0,1,461.41,234.5Z"/>
      <path d="M432.51,217.6a24,24,0,0,1-.06-6.45,12.7,12.7,0,0,1,.79-3.26,4.23,4.23,0,0,1,1.11-1.59,2.22,2.22,0,0,1,1.12-.5,1.77,1.77,0,0,1,.32,0H436a3.51,3.51,0,0,1,.53.1,2.11,2.11,0,0,1,1.06.63,2.2,2.2,0,0,1,.52,1.12,4.42,4.42,0,0,1-.2,1.9,13.77,13.77,0,0,1-1.43,3A26.85,26.85,0,0,1,432.51,217.6Zm0,0c1-1.89,2-3.75,2.91-5.63a16.5,16.5,0,0,0,1.06-2.82,3.53,3.53,0,0,0,.11-1.24c-.09-.32-.13-.36-.44-.46a1.71,1.71,0,0,0-.25,0h-.23a.56.56,0,0,0-.31.14,2.61,2.61,0,0,0-.69,1,13.72,13.72,0,0,0-.94,2.84C433.25,213.4,432.9,215.49,432.51,217.6Z"/>
      <g class="cls-21">
        <path class="cls-19" d="M281.31,151.29c7.21-.09,14.42.14,21.62.62a177.06,177.06,0,0,1,21.5,2.66,100.09,100.09,0,0,1,10.48,2.84q5.16,1.67,10.17,3.73a192.75,192.75,0,0,1,19.55,9.25c-3.26-1.54-6.53-3-9.85-4.45s-6.63-2.8-10-4.07a129.82,129.82,0,0,0-20.57-6.3,195.55,195.55,0,0,0-21.35-2.88q-5.37-.49-10.77-.81C288.51,151.63,284.91,151.45,281.31,151.29Z"/>
      </g>
      <path class="cls-19" d="M377.42,224.44a8.26,8.26,0,0,1-3-1.3,17.43,17.43,0,0,1-2.56-2,29.48,29.48,0,0,1-2.22-2.39,28.46,28.46,0,0,1-1.94-2.64l1.53-.46a28,28,0,0,1-.52,4.58,14.75,14.75,0,0,1-1.52,4.43,5.17,5.17,0,0,1-1.73,1.75,10.74,10.74,0,0,1-2.14,1,23.22,23.22,0,0,1-4.54,1.05l-.07-1.51a14.6,14.6,0,0,0,4.24-.62,5.59,5.59,0,0,0,3.31-2.25,10.62,10.62,0,0,0,1.12-4.08,35.42,35.42,0,0,0,.19-4.36l0-2.73,1.57,2.28c1.16,1.7,2.41,3.41,3.73,5,.68.8,1.37,1.58,2.11,2.32A12.81,12.81,0,0,0,377.42,224.44Z"/>
      <g class="cls-21">
        <path class="cls-19" d="M281.73,142.37a59.12,59.12,0,0,1,8-.8c2.67-.12,5.35-.09,8,0s5.34.33,8,.71c1.33.16,2.65.39,4,.6s2.63.51,3.93.81c-2.67-.18-5.31-.45-8-.62s-5.3-.34-7.95-.47-5.3-.19-8-.25c-1.33,0-2.66,0-4,0S283.06,142.35,281.73,142.37Z"/>
      </g>
      <path class="cls-19" d="M359.91,224.13c-1.68.46-3.34,1-5,1.53a26.68,26.68,0,0,0-4.65,2.06,7.57,7.57,0,0,0-1.83,1.47,2.26,2.26,0,0,0-.28.43,1.57,1.57,0,0,0-.12.21l0,.16a.74.74,0,0,0,.21.63,5.65,5.65,0,0,0,1.79,1.31,20.76,20.76,0,0,0,2.31,1,92.23,92.23,0,0,0,9.91,2.76l10.16,2.3A84.58,84.58,0,0,1,362,236.91a59.55,59.55,0,0,1-10.23-2.48,22.37,22.37,0,0,1-2.47-1.09,6.35,6.35,0,0,1-2.31-1.83,2.67,2.67,0,0,1-.4-.81,2.17,2.17,0,0,1,0-1c0-.16.09-.32.14-.47a4.05,4.05,0,0,1,.21-.35,3,3,0,0,1,.46-.63,7.56,7.56,0,0,1,2.3-1.66,21.73,21.73,0,0,1,5-1.71A33.73,33.73,0,0,1,359.91,224.13Z"/>
      <path d="M423.1,225.5a25.89,25.89,0,0,1-2-4.58,13.57,13.57,0,0,1-.57-2.5,4.3,4.3,0,0,1,0-1.38,1.77,1.77,0,0,1,.37-.79,1.29,1.29,0,0,1,.89-.42,1.84,1.84,0,0,1,1.48.69,4.26,4.26,0,0,1,.71,1.2,10.82,10.82,0,0,1,.64,2.5,21.55,21.55,0,0,1,.13,5c-.26-1.65-.54-3.28-.91-4.86a13.29,13.29,0,0,0-.74-2.26c-.3-.7-.8-1.33-1.24-1.26a.26.26,0,0,0-.21.08.85.85,0,0,0-.15.33,3.79,3.79,0,0,0,0,1.08,16.63,16.63,0,0,0,.37,2.37C422.24,222.3,422.66,223.9,423.1,225.5Z"/>
      <path class="cls-19" d="M365.54,204.33a25.47,25.47,0,0,0-3.55-4.86,8.2,8.2,0,0,0-2.3-1.76,3.67,3.67,0,0,0-1.31-.36,1.14,1.14,0,0,0-1,.24.84.84,0,0,0-.05.88,1.83,1.83,0,0,0,.7.83.94.94,0,0,0,.24.13l.12.06.19.07c.26.1.49.22.73.33.46.24.91.5,1.34.77A34.39,34.39,0,0,1,365.54,204.33Zm0,0c-1.9-.76-3.71-1.67-5.51-2.56l-1.34-.64-.65-.31-.16-.07-.21-.12a1.87,1.87,0,0,1-.41-.25,2.93,2.93,0,0,1-1.06-1.57,2.34,2.34,0,0,1-.06-1,1.66,1.66,0,0,1,.52-1,2.07,2.07,0,0,1,1.83-.4,4.7,4.7,0,0,1,1.56.56,9.27,9.27,0,0,1,2.34,2.1A23.72,23.72,0,0,1,365.54,204.33Z"/>
      <path d="M112,166.46a10,10,0,0,0,2.06,2.52,14.24,14.24,0,0,0,2.74,1.93,22.18,22.18,0,0,0,6.39,2.19,32.19,32.19,0,0,0,3.4.41c.57,0,1.14.1,1.71.11H130a67.11,67.11,0,0,0,6.93-.42,69.85,69.85,0,0,0,13.6-2.91c2.23-.68,4.4-1.53,6.56-2.43a54.22,54.22,0,0,0,6.3-3.12,47,47,0,0,1-12.39,6.9,57.35,57.35,0,0,1-13.85,3.44,44.55,44.55,0,0,1-14.34-.23,22.35,22.35,0,0,1-6.83-2.61,15.22,15.22,0,0,1-2.89-2.3,9.62,9.62,0,0,1-2.13-3.1Z"/>
      <path d="M112.41,162.62c-.82,1.2-1.57,2-2.18,2.93s-1.17,1.82-1.94,3a3.32,3.32,0,0,1-.37-2.11,4.49,4.49,0,0,1,.79-2,4.58,4.58,0,0,1,1.62-1.42A3.63,3.63,0,0,1,112.41,162.62Z"/>
      <path d="M136.73,166a14.45,14.45,0,0,1,4.34-.5,18.77,18.77,0,0,1,4.34.61,19.69,19.69,0,0,1,4.08,1.61,9.76,9.76,0,0,1,3.42,2.73,28.42,28.42,0,0,0-3.93-1.56c-1.32-.42-2.67-.86-4-1.2s-2.68-.65-4.06-.93Z"/>
      <path class="cls-19" d="M163,282a9,9,0,0,0,3.64,3.58,20.16,20.16,0,0,0,4.75,2,33.12,33.12,0,0,0,5.06,1,49.38,49.38,0,0,0,5.17.45,20.92,20.92,0,0,0,9.94-1.85,36.68,36.68,0,0,0,8.72-5.45l.46-.4.29.5h0a29.55,29.55,0,0,0,5.75,6,16.73,16.73,0,0,0,7.24,3.36,20.43,20.43,0,0,0,8-.55,21.93,21.93,0,0,0,3.89-1.37,24.55,24.55,0,0,0,3.65-1.95h0l.28-.27.38.32a24.78,24.78,0,0,0,5.14,3.25,17.63,17.63,0,0,0,5.73,1.63,30.63,30.63,0,0,0,6.13,0,17.46,17.46,0,0,0,6-1.62,12.6,12.6,0,0,1-5.75,2.8,22.3,22.3,0,0,1-6.46.48A15.8,15.8,0,0,1,234.7,292a17.42,17.42,0,0,1-5.13-4l.67,0h0a21.82,21.82,0,0,1-7.66,4.27,19.45,19.45,0,0,1-8.85.75,16.6,16.6,0,0,1-8-4,24.36,24.36,0,0,1-5.53-6.77h0l.75.11a32.63,32.63,0,0,1-8.88,5.89A23.2,23.2,0,0,1,187,290a19.11,19.11,0,0,1-5.38.28,52.35,52.35,0,0,1-5.29-.53,33.06,33.06,0,0,1-5.17-1.27,17.58,17.58,0,0,1-4.79-2.38c-.37-.23-.7-.55-1.05-.82a12.15,12.15,0,0,1-.94-1A6.13,6.13,0,0,1,163,282Z"/>
      <path class="cls-19" d="M146.83,275.21a19.55,19.55,0,0,0,7.27,0,8.6,8.6,0,0,0,3.1-1.4,12,12,0,0,0,2.52-2.42l.57-.71.3.72a10.41,10.41,0,0,0,.72,1.41,11.93,11.93,0,0,0,.9,1.33,7.25,7.25,0,0,0,2.46,2.07,7.48,7.48,0,0,1-2.82-1.74,13.83,13.83,0,0,1-2.14-2.64l.87,0a8.53,8.53,0,0,1-2.47,3.17,8.21,8.21,0,0,1-3.72,1.69,10.59,10.59,0,0,1-4-.09A10.25,10.25,0,0,1,146.83,275.21Z"/>
      <path class="cls-19" d="M155.63,287.57a14.24,14.24,0,0,0,5.55,3.81,51.23,51.23,0,0,0,6.4,2.28c1.1.29,2.18.65,3.29.89l3.32.79c2.24.41,4.45.93,6.72,1.23A243.22,243.22,0,0,0,208.17,299q6.84.3,13.69.26c4.56,0,9.13-.17,13.67-.52a130.86,130.86,0,0,0,13.55-1.66,51,51,0,0,0,6.62-1.56,20.92,20.92,0,0,0,3.17-1.21,6.67,6.67,0,0,0,1.42-.89,2.28,2.28,0,0,0,.54-.62.77.77,0,0,0,0-.79.81.81,0,0,1,.15.83,2.33,2.33,0,0,1-.49.74,7.54,7.54,0,0,1-1.37,1.09,20.65,20.65,0,0,1-3.12,1.56,51.26,51.26,0,0,1-6.62,2.07,94.5,94.5,0,0,1-13.67,2.12,209.87,209.87,0,0,1-27.58.47,234.08,234.08,0,0,1-27.44-2.83c-2.28-.34-4.52-.89-6.78-1.35s-4.48-1.14-6.66-1.93a42.7,42.7,0,0,1-6.37-2.76l-1.5-.88-1.41-1A8.58,8.58,0,0,1,155.63,287.57Z"/>
      <path class="cls-19" d="M145,270.62a78,78,0,0,0-8.14,3.05,10.59,10.59,0,0,0-3.33,2.22c-.13.1-.13.22-.21.33l-.1.16c0,.05,0,.06,0,.09s0,.14.14.32a4.38,4.38,0,0,0,1.56.87,25.09,25.09,0,0,0,4.07,1.11c1.4.31,2.83.53,4.26.78l8.65,1.37a60.11,60.11,0,0,1-8.8-.08,34.23,34.23,0,0,1-8.78-1.64,5.68,5.68,0,0,1-2.17-1.34,1.94,1.94,0,0,1-.51-1.67,2.19,2.19,0,0,1,.13-.43l.18-.31a2.5,2.5,0,0,1,.4-.57,10.57,10.57,0,0,1,4-2.4A34,34,0,0,1,145,270.62Z"/>
      <g class="cls-20">
        <path class="cls-19" d="M215.67,305.67c3.29-.12,6.58-.24,9.87-.42l9.85-.59c6.57-.45,13.11-1.11,19.62-1.93a110,110,0,0,0,19.16-4c.8-.2,1.51-.57,2.27-.84s1.53-.55,2.22-.91a7.28,7.28,0,0,0,1.88-1.19,1.65,1.65,0,0,0,.42-.64c0-.15,0-.36-.26-.6a6.09,6.09,0,0,0-1.86-1.2,23.3,23.3,0,0,0-2.25-.87c-1.55-.51-3.14-.93-4.75-1.32a31.56,31.56,0,0,1,4.94.58,17.71,17.71,0,0,1,2.45.65,6.38,6.38,0,0,1,2.37,1.29,2,2,0,0,1,.69,1.59,2.63,2.63,0,0,1-.73,1.5,8.66,8.66,0,0,1-2.2,1.57,23.62,23.62,0,0,1-2.31,1c-.79.3-1.55.69-2.35.91a106.61,106.61,0,0,1-19.5,3.91c-6.56.83-13.16,1.2-19.75,1.46l-4.95.15-4.95,0C222.26,305.83,219,305.8,215.67,305.67Z"/>
      </g>
      <g class="cls-20">
        <path class="cls-19" d="M126.79,274.07a15.61,15.61,0,0,0-2.61,2.66,3.67,3.67,0,0,0-1,3,4.3,4.3,0,0,0,2.24,2.16,21.7,21.7,0,0,0,3.38,1.3c2.34.74,4.79,1.27,7.24,1.79s4.94,1,7.42,1.54a45.13,45.13,0,0,1-7.62-.26,40.4,40.4,0,0,1-7.54-1.49,21.07,21.07,0,0,1-3.64-1.51A9.45,9.45,0,0,1,123,282a3.89,3.89,0,0,1-1.08-2,3.62,3.62,0,0,1,.38-2.2,6.23,6.23,0,0,1,1.24-1.61A11.1,11.1,0,0,1,126.79,274.07Z"/>
      </g>
      <path d="M190.69,255.16a49.15,49.15,0,0,0-2.4,4.52,12.09,12.09,0,0,0-.78,2.31,2.68,2.68,0,0,0,.18,2,1.2,1.2,0,0,0,.62.51c.13.05.33,0,.57-.31a7.18,7.18,0,0,0,1.1-2.08c.58-1.57,1-3.23,1.5-4.89a19.83,19.83,0,0,1-.61,5.18,7.26,7.26,0,0,1-1.13,2.53,2.27,2.27,0,0,1-.65.56,1.54,1.54,0,0,1-1,.16,2.3,2.3,0,0,1-1.4-1,3.76,3.76,0,0,1-.29-3,10.7,10.7,0,0,1,1.06-2.47A18.22,18.22,0,0,1,190.69,255.16Z"/>
      <path d="M215.74,278.11c-.43,1.44-.91,2.84-1.27,4.24a11,11,0,0,0-.38,2,2.17,2.17,0,0,0,.07.87c.09.24.13.33.34.4.61.19.92.14,1.22-.36a5,5,0,0,0,.47-1.92,33.89,33.89,0,0,0,0-4.39,15.24,15.24,0,0,1,.89,4.41,5.31,5.31,0,0,1-.39,2.4,1.93,1.93,0,0,1-1.1,1,2.32,2.32,0,0,1-1.44-.06,1.68,1.68,0,0,1-1.12-1.15,3.61,3.61,0,0,1-.08-1.33,8.63,8.63,0,0,1,.59-2.26A15.68,15.68,0,0,1,215.74,278.11Z"/>
      <path d="M173.86,272.71a19.16,19.16,0,0,0-1.13,4.1,2.69,2.69,0,0,0,.27,1.73,1.2,1.2,0,0,0,.59.4.75.75,0,0,0,.6,0,2.13,2.13,0,0,0,.69-1.4,13.51,13.51,0,0,0,.26-2.05c.09-1.41.09-2.85.14-4.31a16.61,16.61,0,0,1,.83,4.32,10.77,10.77,0,0,1-.09,2.26,5,5,0,0,1-.34,1.18,2.09,2.09,0,0,1-1,1.08,2,2,0,0,1-1.51,0,2.19,2.19,0,0,1-1.1-.9,3.28,3.28,0,0,1-.22-2.47A10.47,10.47,0,0,1,173.86,272.71Z"/>
      <path d="M159.32,259.48l-1.63,3.72A16.69,16.69,0,0,0,157,265a2.88,2.88,0,0,0-.11,1.58.45.45,0,0,0,.34.28c.1,0,.19,0,.37-.15a5,5,0,0,0,.83-1.59c.43-1.23.73-2.56,1.06-3.88a14,14,0,0,1-.2,4.13,4.68,4.68,0,0,1-.87,2.07,1.82,1.82,0,0,1-.58.46,1.36,1.36,0,0,1-.84.1,1.64,1.64,0,0,1-1.19-.93,2.43,2.43,0,0,1-.16-1.3,5.21,5.21,0,0,1,.25-1.1,11.28,11.28,0,0,1,.88-1.93A16.05,16.05,0,0,1,159.32,259.48Z"/>
      <path class="cls-19" d="M190.51,283.22a41.81,41.81,0,0,1,.31-4.76c.18-1.58.43-3.14.74-4.7.17-.78.35-1.56.56-2.34s.53-1.51.82-2.26c.58-1.48,1.2-2.94,1.92-4.36a44.54,44.54,0,0,1-1,4.64c-.44,1.53-.8,3-1.09,4.56C192.09,277.07,191.47,280.17,190.51,283.22Z"/>
      <path class="cls-19" d="M220.88,278.7a25.87,25.87,0,0,1-.91,11,22.47,22.47,0,0,1-.15-5.55A22.93,22.93,0,0,1,220.88,278.7Z"/>
      <g class="cls-20">
        <path class="cls-19" d="M284.24,302.55c2.71-.93,5.4-1.84,8-2.94a19.92,19.92,0,0,0,3.6-1.94,4.08,4.08,0,0,0,1.22-1.24,1,1,0,0,0-.14-1.14,9.49,9.49,0,0,0-3-2.37,26.29,26.29,0,0,0-3.79-1.65A80,80,0,0,0,281.9,289a33,33,0,0,1,8.55,1.08,21.1,21.1,0,0,1,4.13,1.5,10.41,10.41,0,0,1,3.67,2.81,2.33,2.33,0,0,1,.35.62,2.48,2.48,0,0,1-.14,2.23,5.2,5.2,0,0,1-1.75,1.77,17.87,17.87,0,0,1-4,1.85A37.61,37.61,0,0,1,284.24,302.55Z"/>
      </g>
      <path class="cls-2" d="M207,132.67s-7.5,10.16-5.83,10.66S207,132.67,207,132.67Z"/>
    </g>
    <g id="Ebene_17" data-name="Ebene 17">
      <path class="cls-22" d="M680.71,125s-37.83-15.65-90.17-.18-79,64.18-86.3,80.51-11.59,44.14-11.59,44.14-15.87,3-24.57,16.46-13.55,32.62-13.55,32.62S480,276.22,490.2,279.53s21.57,23.31,21.57,23.31,5.91-18.78,5.77-26.85-5.21-19.09-5.21-19.09,18.39-24.53,44.06-31.89,60.83-12.42,74.07-11.35,40.21,9.1,51.43,14.78,30.69,13.05,39.56,13.47,22.84-3.31,22.35-6.06-25.37-12.71-25.37-12.71S734,226.79,742.28,228s13.88-.17,14.86-2.26-12.38-17.48-16.55-19.44-13.15-7.76-13.15-7.76,2.37-22,1.22-29.31-8.56-23.61-14.9-29S680.71,125,680.71,125Z"/>
      <path class="cls-23" d="M659.74,218.51s-3.23,7.06-7.08,9.34S641.91,235,643,235.48s10.86,1.26,19.46-2.49,10.83-8.62,10.83-8.62Z"/>
      <path class="cls-24" d="M721.45,241.91c8.88.43,22.84-3.31,22.35-6.06s-25.37-12.71-25.37-12.71S734,226.79,742.28,228s13.88-.17,14.86-2.26a177.56,177.56,0,0,1-52.2-17.13c-18.38-9.65-12.69-13.84-25-21.47s-29.88,3.24-40.67,3c-23.72-.5-42.93-2-81.57,16.72-38.23,18.53-55.53,46.72-55.53,46.72s-9.35-.48-26.36,14.76c-12.34,11.06-18,27.36-18,27.36l.06,0c7.27-5.91,24.35-18.78,32.28-16.22,10.24,3.31,21.57,23.31,21.57,23.31s5.91-18.78,5.77-26.85-5.21-19.09-5.21-19.09,18.39-24.53,44.06-31.89,60.83-12.42,74.07-11.35,40.21,9.1,51.43,14.78S712.58,241.49,721.45,241.91Z"/>
      <path class="cls-22" d="M581.21,129.64s-8.05-10.18-20.52-13.45-24.07-4.83-24.42-6.22,14.2-7.88,28-9.1a86.17,86.17,0,0,1,25.55,1.71Z"/>
      <path class="cls-22" d="M589.83,101.58s10.76,2.79,16.16,5.66,14,11.5,14,11.5-21.91,3.87-27.87,5.68-12.9,4.15-12.9,4.15l-4-5.74,14.51-20.69"/>
      <path class="cls-25" d="M674.66,127.05s4.64,8.23,8.05,11.25a52.12,52.12,0,0,0,8.85,5.84s3.4,13.24,11.11,17.73,18,5.52,18,5.52,2,10.51,2,14.38-.72,11.62-.72,11.62l5.42,3s1.29-13.21.88-19.47-3.86-18-3.86-18-11.39,1.73-16.12,0S694,142.16,694,142.16s-6.19-3.44-9.84-6S674.66,127.05,674.66,127.05Z"/>
      <path d="M578,130.56a23.11,23.11,0,0,0-2.53-3.17,34.6,34.6,0,0,0-3-2.89,39.46,39.46,0,0,0-7-4.7,53.64,53.64,0,0,0-7.91-3.27q-4.11-1.41-8.34-2.52c-2.83-.73-5.68-1.38-8.57-2a22.24,22.24,0,0,1-4.41-1.28l-.14-.07a1.08,1.08,0,0,1-.2-.12,1,1,0,0,1-.44-.81,1.41,1.41,0,0,1,.45-1,6.21,6.21,0,0,1,1-.8,20,20,0,0,1,2-1.12,61.83,61.83,0,0,1,8.32-3.21c2.83-.89,5.69-1.64,8.59-2.27a90.74,90.74,0,0,1,17.63-2.11,64.94,64.94,0,0,1,8.92.38,68.08,68.08,0,0,1,8.79,1.64,76.26,76.26,0,0,1,16.74,6.24,54.24,54.24,0,0,1,7.63,4.8c1.21.91,2.38,1.87,3.51,2.91a26.64,26.64,0,0,1,3.21,3.44l-2.57,1.77a24.08,24.08,0,0,0-2.68-3.08,37.47,37.47,0,0,0-3.19-2.83,52.41,52.41,0,0,0-7.13-4.77A74.59,74.59,0,0,0,582,101.56a65.81,65.81,0,0,0-8.66-.54A88.6,88.6,0,0,0,556.05,103c-2.85.59-5.68,1.31-8.46,2.16a60.1,60.1,0,0,0-8.13,3.06,17,17,0,0,0-1.84,1,4.21,4.21,0,0,0-.73.56c-.09.06-.1.22-.06-.06a.49.49,0,0,0-.17-.35s0,0,0,0l.1,0a19.11,19.11,0,0,0,4.06,1.09c2.86.55,5.79,1,8.69,1.52s5.82,1.18,8.69,2a48.59,48.59,0,0,1,8.46,3.16,38.81,38.81,0,0,1,7.68,4.94,32.27,32.27,0,0,1,3.35,3.16c.53.56,1,1.15,1.51,1.76a20.17,20.17,0,0,1,1.4,2Z"/>
      <path class="cls-26" d="M673.12,189.33s-1.79,13.92,13,26.39c11.79,9.94,32.7,16.75,32.7,16.75s-2.67-9.11-8-11.9-9.21-5.72-13.88-8.09a66.54,66.54,0,0,1-16-12.09A49.84,49.84,0,0,1,673.12,189.33Z"/>
      <path class="cls-27" d="M742.27,233.77l-30.61-13.92s5.18,4.62,5.89,6.57,2.31,5.87,2.31,5.87,1.61,1.58,8.71,2.3S744,236.55,742.27,233.77Z"/>
      <g class="cls-28">
        <path class="cls-3" d="M683.84,175.35c-1.33,3-4.46,3.47-7.59,2.32-3.82-1.41-4.7-4.61-3.56-7.09a6.52,6.52,0,0,1,7.88-3.22A5.71,5.71,0,0,1,683.84,175.35Z"/>
      </g>
      <g class="cls-28">
        <path class="cls-3" d="M726.61,184.09c-.32,2.42-1.56,4.86-5.23,4.47a4.77,4.77,0,0,1-4.32-5.66,5.26,5.26,0,0,1,6.91-3.85C725.93,179.75,727,181.51,726.61,184.09Z"/>
      </g>
      <ellipse cx="679.62" cy="173.49" rx="4.2" ry="3.05" transform="matrix(0.29, -0.96, 0.96, 0.29, 314.28, 772.24)"/>
      <ellipse cx="722.61" cy="184.33" rx="3.75" ry="2.59" transform="translate(336.67 822.44) rotate(-73.14)"/>
      <path d="M672.39,170.6a6.33,6.33,0,0,1,2.53-3.43,6.68,6.68,0,0,1,4.29-1.1,6.52,6.52,0,0,1,4.12,1.71,4.54,4.54,0,0,1,1.26,4.09,5.67,5.67,0,0,0-2-3.21,7.48,7.48,0,0,0-7.09-.55A8.83,8.83,0,0,0,672.39,170.6Z"/>
      <path d="M717.71,180.8a5.33,5.33,0,0,1,2.53-2.54,5,5,0,0,1,3.77-.2,5.55,5.55,0,0,1,1.7.93,4.32,4.32,0,0,1,1.17,1.57,4.45,4.45,0,0,1-.1,3.6A6.34,6.34,0,0,0,726,181a4.35,4.35,0,0,0-2.37-1.71,5.06,5.06,0,0,0-3-.09A8.61,8.61,0,0,0,717.71,180.8Z"/>
      <path d="M725.24,196.19a61.69,61.69,0,0,0,1.94-10.61,65.55,65.55,0,0,0,.17-10.85,50.25,50.25,0,0,0-5.73-20.63,45.11,45.11,0,0,0-14.36-15.76,94,94,0,0,0-19.39-10.09,136.69,136.69,0,0,0-43-8.55,163.4,163.4,0,0,0-43.87,4,138.66,138.66,0,0,0-40.81,16.23,119.22,119.22,0,0,0-32.39,29.49,196.6,196.6,0,0,0-12.47,18.26c-1.92,3.15-3.81,6.36-5.59,9.57s-3.4,6.51-4.88,9.87a133.69,133.69,0,0,0-7.18,20.82q-1.38,5.34-2.3,10.78a96.38,96.38,0,0,0-1.29,10.87l-.06,1-.93.3h0a49.92,49.92,0,0,0-10.32,4.84,46.07,46.07,0,0,0-9,7.09,79,79,0,0,0-13,19.06,70.4,70.4,0,0,0-4.29,10.71c-.27.92-.51,1.84-.71,2.75a12.38,12.38,0,0,0-.34,2.57l0,.14v0a.13.13,0,0,0,0-.08,1,1,0,0,0-.4-.43,1.15,1.15,0,0,0-.91-.12c-.05,0-.19.09-.16.07l0,0,.18-.15c.32-.26.7-.59,1.05-.91l2.19-2c5.88-5.26,12-10.54,19.41-14.16A28.6,28.6,0,0,1,489,277.09a17,17,0,0,1,6.62,1.26,18.65,18.65,0,0,1,5.5,3.65,26.09,26.09,0,0,1,4,4.89,41.33,41.33,0,0,1,2.95,5.36c.84,1.83,1.63,3.67,2.34,5.52l1.09,2.74c.18.44.37.89.55,1.27l.14.25c0,.05.12.14-.08,0a1.17,1.17,0,0,0-.15-.07.69.69,0,0,0-.24-.05.88.88,0,0,0-.63.18.69.69,0,0,0-.15.15v0a2.09,2.09,0,0,0,.13-.23,43.34,43.34,0,0,0,1.94-5.36c.57-1.86,1.1-3.73,1.53-5.62a68,68,0,0,0,1.83-11.44,34.28,34.28,0,0,0-1.25-11.3,55.1,55.1,0,0,0-1.85-5.43,40.79,40.79,0,0,0-2.44-5.11h0l-.57-1.08.85-.85c3.6-3.64,7.34-7,11.2-10.27s7.86-6.37,12-9.31A121.08,121.08,0,0,1,561,221.39a161.11,161.11,0,0,1,29.47-7.59,237.82,237.82,0,0,1,30.22-3.09l.07,4.8a232,232,0,0,0-29.58,2.66,156.82,156.82,0,0,0-28.76,7,117.22,117.22,0,0,0-26,14c-4.07,2.82-8,5.83-11.86,9s-7.58,6.46-11.08,9.9l.28-1.94h0a59.17,59.17,0,0,1,3.78,11.51,39.23,39.23,0,0,1,.91,12,80.79,80.79,0,0,1-2,11.75c-.47,1.92-1,3.84-1.53,5.74a44.78,44.78,0,0,1-2,5.71c-.08.14-.12.25-.23.42l-.09.13,0,.06a1.52,1.52,0,0,1-.22.21,1.17,1.17,0,0,1-.8.24,1.16,1.16,0,0,1-.32-.08.65.65,0,0,1-.23-.12,1.74,1.74,0,0,1-.55-.58c-.09-.14-.16-.27-.23-.39-.26-.49-.47-.94-.68-1.4-.41-.9-.79-1.8-1.21-2.68a48.55,48.55,0,0,0-2.74-5.08,30.69,30.69,0,0,0-7.22-8.38,16.31,16.31,0,0,0-4.47-2.48,13.61,13.61,0,0,0-4.89-.81,29,29,0,0,0-10.45,2.39,60.51,60.51,0,0,0-10,5.32,90.71,90.71,0,0,0-9.34,6.87l-2.25,1.9c-.39.32-.76.63-1.21,1a4.27,4.27,0,0,1-.41.29l-.13.08a2,2,0,0,1-.33.14,1.55,1.55,0,0,1-.57.07,1.52,1.52,0,0,1-.69-.22A1.55,1.55,0,0,1,453,299a1.52,1.52,0,0,1-.15-.44,3,3,0,0,1-.08-.6,14.21,14.21,0,0,1,.43-3.25c.23-1,.5-2,.8-2.93a72.89,72.89,0,0,1,4.57-11.06,91.87,91.87,0,0,1,6.07-10.26c1.12-1.64,2.29-3.25,3.52-4.81.61-.78,1.24-1.56,1.88-2.32s1.34-1.51,2-2.24a53.5,53.5,0,0,1,9.36-7.57,56.61,56.61,0,0,1,10.83-5.37h0l-1,1.29a100.88,100.88,0,0,1,1.33-11.24q.94-5.55,2.35-11A137.86,137.86,0,0,1,502.26,206q2.28-5.15,5-10.09c1.82-3.28,3.7-6.48,5.65-9.67a197.8,197.8,0,0,1,12.65-18.52,121.94,121.94,0,0,1,33.14-30.15A141.1,141.1,0,0,1,600.34,121,169.41,169.41,0,0,1,645,116.8a139.75,139.75,0,0,1,44,8.58,96.65,96.65,0,0,1,20.08,10.35,48.15,48.15,0,0,1,15.42,16.82,53.65,53.65,0,0,1,6.16,21.95,70,70,0,0,1-.17,11.4,64.49,64.49,0,0,1-2.05,11.28Z"/>
      <path class="cls-22" d="M577.57,124.77a60.6,60.6,0,0,1,4.84,6.88c1.05,2.15,2.44,4.61,2.44,4.61l38.27-10.09A20.7,20.7,0,0,0,619,119.1a23.77,23.77,0,0,0-6.29-5Z"/>
      <path class="cls-10" d="M571.67,195.67s-16.34,5.66-13.5,8.33S571.67,195.67,571.67,195.67Z"/>
      <g class="cls-29">
        <path d="M672.1,162.71a9.52,9.52,0,0,1,3.58-2.23,13,13,0,0,1,8.31,0,8,8,0,0,1,3.55,2.35l-.61.58a12.58,12.58,0,0,0-3.41-1.38,17.08,17.08,0,0,0-3.7-.5,13.66,13.66,0,0,0-3.71.39,11.54,11.54,0,0,0-3.43,1.43Z"/>
      </g>
      <path d="M667.66,192.48a4.58,4.58,0,0,1,1.7-3,7.52,7.52,0,0,1,3.11-1.6,8,8,0,0,1,3.47-.17,5.48,5.48,0,0,1,3.08,1.53c-1.16.07-2.15.18-3.13.33a26.13,26.13,0,0,0-2.82.6,21.9,21.9,0,0,0-2.71.87A12.05,12.05,0,0,0,667.66,192.48Z"/>
      <g class="cls-29">
        <path d="M720.32,171.94a7.9,7.9,0,0,1,2.86-.17,8.71,8.71,0,0,1,2.8.8,6.88,6.88,0,0,1,2.36,1.8,6.25,6.25,0,0,1,1.32,2.68l-1.17.34a8.6,8.6,0,0,0-1.37-1.95,7.28,7.28,0,0,0-1.88-1.44,11.16,11.16,0,0,0-2.29-.91,12.53,12.53,0,0,0-2.49-.34Z"/>
      </g>
      <g class="cls-28">
        <path class="cls-3" d="M313.07,56.63c-.88,1.87-2.84,2.1-4.78,1.32-2.36-.94-2.86-3-2.1-4.48a4.06,4.06,0,0,1,5-1.88A3.56,3.56,0,0,1,313.07,56.63Z"/>
      </g>
      <g class="cls-28">
        <path class="cls-3" d="M339.64,62.8c-.24,1.51-1.06,3-3.34,2.71a3,3,0,0,1-2.6-3.61,3.28,3.28,0,0,1,4.37-2.29A2.64,2.64,0,0,1,339.64,62.8Z"/>
      </g>
      <ellipse cx="310.47" cy="55.4" rx="2.63" ry="1.91" transform="translate(158.96 331.99) rotate(-71.4)"/>
      <ellipse cx="337.14" cy="62.88" rx="2.34" ry="1.62" transform="translate(171.15 362.99) rotate(-71.62)"/>
      <path d="M306,53.47a4,4,0,0,1,1.63-2.09,4.09,4.09,0,0,1,2.7-.61,4,4,0,0,1,2.55,1.13,2.81,2.81,0,0,1,.72,2.57,3.56,3.56,0,0,0-1.22-2A4.73,4.73,0,0,0,308,52,5.59,5.59,0,0,0,306,53.47Z"/>
      <path d="M334.14,60.6a3.24,3.24,0,0,1,1.62-1.54,3.11,3.11,0,0,1,2.36-.07,2.91,2.91,0,0,1,1.74,1.61,2.74,2.74,0,0,1-.12,2.25,3.75,3.75,0,0,0-.47-2,2.68,2.68,0,0,0-1.44-1.11,3.07,3.07,0,0,0-1.85-.11A5.33,5.33,0,0,0,334.14,60.6Z"/>
      <g class="cls-29">
        <path d="M306,48.54a5.8,5.8,0,0,1,2.27-1.32,7.24,7.24,0,0,1,2.61-.37,7.9,7.9,0,0,1,2.58.48,5.26,5.26,0,0,1,2.18,1.53l-.39.36a7.41,7.41,0,0,0-2.11-.93,11.15,11.15,0,0,0-2.3-.37,9,9,0,0,0-2.32.17,7.55,7.55,0,0,0-2.17.85Z"/>
      </g>
      <g class="cls-29">
        <path d="M335.91,55.11a5.32,5.32,0,0,1,3.52.49,4.16,4.16,0,0,1,1.45,1.16,3.9,3.9,0,0,1,.78,1.7l-.73.19a5.27,5.27,0,0,0-.83-1.24,4.37,4.37,0,0,0-1.14-.94,7.12,7.12,0,0,0-1.42-.6,7.57,7.57,0,0,0-1.56-.25Z"/>
      </g>
      <g class="cls-28">
        <path class="cls-3" d="M114.11,156c.34,2.13-1.22,3.48-3.35,4-2.59.58-4.21-.87-4.46-2.64a4.26,4.26,0,0,1,3.2-4.55A3.72,3.72,0,0,1,114.11,156Z"/>
      </g>
      <g class="cls-28">
        <path class="cls-3" d="M140.71,145.73c.68,1.45.86,3.23-1.29,4.31a3.13,3.13,0,0,1-4.38-1.59,3.43,3.43,0,0,1,2.44-4.55A2.75,2.75,0,0,1,140.71,145.73Z"/>
      </g>
      <ellipse cx="111.14" cy="156.5" rx="1.99" ry="2.75" transform="matrix(0.96, -0.27, 0.27, 0.96, -38.11, 35.79)"/>
      <ellipse cx="138.6" cy="147.28" rx="1.7" ry="2.45" transform="translate(-34.99 43.51) rotate(-15.87)"/>
      <path d="M106.14,157.47a4.24,4.24,0,0,1,.18-2.78,4.32,4.32,0,0,1,2-2.11,4.11,4.11,0,0,1,2.86-.52,3,3,0,0,1,2.14,1.8,3.68,3.68,0,0,0-2.25-1,4.37,4.37,0,0,0-2.31.58A4.51,4.51,0,0,0,107,155,5.92,5.92,0,0,0,106.14,157.47Z"/>
      <path d="M134.66,147.07a3.47,3.47,0,0,1,.49-2.29,3.3,3.3,0,0,1,2-1.44,3,3,0,0,1,2.45.36,2.91,2.91,0,0,1,1.22,2,4,4,0,0,0-1.56-1.41,2.81,2.81,0,0,0-1.9-.11,3.25,3.25,0,0,0-1.67,1A5.42,5.42,0,0,0,134.66,147.07Z"/>
      <g class="cls-29">
        <path d="M103.2,153.24a6.23,6.23,0,0,1,1.18-2.49,8.5,8.5,0,0,1,4.56-2.95,5.25,5.25,0,0,1,2.78,0l-.13.53a8.14,8.14,0,0,0-2.37.45,11.34,11.34,0,0,0-2.21,1,9.26,9.26,0,0,0-1.9,1.52,8,8,0,0,0-1.38,2Z"/>
      </g>
      <g class="cls-29">
        <path d="M133,141.28a5.17,5.17,0,0,1,1.52-1.11,5.92,5.92,0,0,1,1.81-.54,4.56,4.56,0,0,1,1.94.15,4.16,4.16,0,0,1,1.68,1l-.53.59a5.5,5.5,0,0,0-1.44-.58,4.39,4.39,0,0,0-1.54-.13,6.6,6.6,0,0,0-1.58.31,7.53,7.53,0,0,0-1.49.7Z"/>
      </g>
      <g class="cls-28">
        <path class="cls-3" d="M249.93,205c-.84,3.18-3.31,4.23-6.2,3.93-3.51-.36-5-3.13-4.54-5.47.5-2.68,4.16-4.36,6.94-4.17S250.77,201.85,249.93,205Z"/>
      </g>
      <g class="cls-28">
        <path class="cls-3" d="M286.54,203.72c.24,2.11-1.23,5-3.91,5.11s-4.91-1.26-4.77-3.52,2.36-5.54,5.37-5.26C285,200.21,286.27,201.47,286.54,203.72Z"/>
      </g>
      <ellipse cx="245.17" cy="206.01" rx="3.45" ry="2.56" transform="translate(-73.74 235.11) rotate(-45.25)"/>
      <ellipse cx="282.27" cy="206.06" rx="3.05" ry="2.25" transform="translate(-66.08 234.08) rotate(-40.73)"/>
      <path d="M239.08,204.22a5.61,5.61,0,0,1,1.46-3.28,6.1,6.1,0,0,1,3.26-1.81,6.78,6.78,0,0,1,3.73.18,3.5,3.5,0,0,1,2.38,2.71,4.29,4.29,0,0,0-2.71-1.6,10,10,0,0,0-3.13,0,6.86,6.86,0,0,0-2.84,1.23A8.35,8.35,0,0,0,239.08,204.22Z"/>
      <path d="M278.34,202.85a4.91,4.91,0,0,1,4.7-3,4.13,4.13,0,0,1,2.87,1.09,2.88,2.88,0,0,1,.78,2.81,3.87,3.87,0,0,0-1.48-2,4.5,4.5,0,0,0-2.21-.6,6,6,0,0,0-2.38.37A8.81,8.81,0,0,0,278.34,202.85Z"/>
      <g class="cls-29">
        <path d="M237.45,197.09a8.2,8.2,0,0,1,2.49-2.68,10.73,10.73,0,0,1,3.33-1.53,11,11,0,0,1,3.63-.38,7,7,0,0,1,3.5,1.16l-.37.63a10.92,10.92,0,0,0-3.18-.39,15.2,15.2,0,0,0-3.21.43,12,12,0,0,0-3,1.17,9.87,9.87,0,0,0-2.55,2Z"/>
      </g>
      <g class="cls-29">
        <path d="M278.65,194.74A6.84,6.84,0,0,1,281,194a7.91,7.91,0,0,1,2.52.14,5.7,5.7,0,0,1,2.35,1.07,5.47,5.47,0,0,1,1.64,2l-.93.51a7,7,0,0,0-1.53-1.38,6.5,6.5,0,0,0-1.87-.86,8.84,8.84,0,0,0-2.12-.32,10.59,10.59,0,0,0-2.18.19Z"/>
      </g>
      <path d="M710.49,189.34a37.78,37.78,0,0,1,9.74,2.64,69.58,69.58,0,0,1,9,4.48A122.61,122.61,0,0,1,745.77,208a83.39,83.39,0,0,1,7.42,6.92,36.73,36.73,0,0,1,3.3,4,19.09,19.09,0,0,1,1.41,2.32,8.69,8.69,0,0,1,.93,2.85,4.27,4.27,0,0,1-.17,1.87c-.07.17-.14.34-.22.5a2.86,2.86,0,0,1-.32.48,3.79,3.79,0,0,1-.7.69,8.11,8.11,0,0,1-2.78,1.26,24.81,24.81,0,0,1-5.25.72A60.52,60.52,0,0,1,739.2,229a111,111,0,0,1-19.63-4.63,143,143,0,0,1-18.65-7.51,68.7,68.7,0,0,1-16.75-11.37,49.45,49.45,0,0,1-6.71-7.66,42.2,42.2,0,0,1-2.66-4.38,26.55,26.55,0,0,1-2-4.81l1.91-.51a24,24,0,0,0,2,4.3,38.47,38.47,0,0,0,2.65,4,50.46,50.46,0,0,0,6.55,7.16,66.24,66.24,0,0,0,16.29,10.62c11.92,5.45,24.5,9.89,37.42,11.74a57.34,57.34,0,0,0,9.67.59,21.28,21.28,0,0,0,4.6-.59,5.38,5.38,0,0,0,1.76-.74,1,1,0,0,0,.18-.17s0-.06.06-.11a1.34,1.34,0,0,0,0-.59,5.67,5.67,0,0,0-.65-1.84,15.23,15.23,0,0,0-1.19-1.93A34.91,34.91,0,0,0,751,217a76.44,76.44,0,0,0-7.23-6.54,168,168,0,0,0-16-11.39c-2.78-1.74-5.63-3.34-8.49-5S713.47,190.9,710.49,189.34Z"/>
      <path class="cls-3" d="M675.52,124.82l4.72-7.45s19.58,5.37,32.45,15.08c6.75,5.09,17.51,25,17.51,25l-9.86,1.67s-14.42-15.38-21-18.91A208.34,208.34,0,0,1,675.52,124.82Z"/>
      <path class="cls-30" d="M726.26,158.42l2.22,4.55s17.15-1.07,15.24-3.83C742.09,156.77,726.26,158.42,726.26,158.42Z"/>
      <path class="cls-31" d="M676.15,125.52s3,6.22,4.81,8.15a26.14,26.14,0,0,0,8.44,6.3s5.05-19.82,10.2-22.74a22.26,22.26,0,0,1,13-3.08,56.52,56.52,0,0,1,12.73,2.24l-9.11-6s-1.75-5.18-4.58-4.94a16.21,16.21,0,0,0-5.76,1.92,25.17,25.17,0,0,0-20.27,2.25C678,113.9,676.15,125.52,676.15,125.52Z"/>
      <path class="cls-32" d="M693.86,141.5s6.38,14.14,14.41,17.38,15,.05,20.67-.58a66.11,66.11,0,0,1,14.17,0l-14-13a76.31,76.31,0,0,1-16.1.25A97.94,97.94,0,0,1,693.86,141.5Z"/>
      <path class="cls-3" d="M690,139.17s12.73,5.46,23.66,6.4,14.59-.55,14.59-.55,4.32-17.76,1.7-21.93a63.91,63.91,0,0,0-3.93-5.78s-14.65-6.31-25.31-1C693.56,119.89,690,139.17,690,139.17Z"/>
      <path d="M728,161.63a42.58,42.58,0,0,0,9.37-.48,28.08,28.08,0,0,0,4.52-1.07,6.09,6.09,0,0,0,1.86-.93c.1-.07.11-.16.09,0a.31.31,0,0,0,.05.17s0,0,0,0a5,5,0,0,0-.92-.42,19,19,0,0,0-4.57-.73,39.12,39.12,0,0,0-4.72,0,40.37,40.37,0,0,0-4.68.54c-1.54.27-3.1.63-4.68,1a35.11,35.11,0,0,1-9.87.9,19.29,19.29,0,0,1-9.59-3.32,32.08,32.08,0,0,1-7.21-6.93,43.77,43.77,0,0,1-5.09-8.56h0l.78.75a39.12,39.12,0,0,1-5.5-2.73c-1.74-1-3.43-2.11-5.06-3.28a28.07,28.07,0,0,1-4.65-4,22.52,22.52,0,0,1-3.62-5.11h0l-.22-.46.18-.45a76.36,76.36,0,0,1,4.58-9.62,46.87,46.87,0,0,1,2.92-4.51,21.34,21.34,0,0,1,3.78-4,9.9,9.9,0,0,1,2.5-1.45,21.84,21.84,0,0,1,2.58-.89,24.51,24.51,0,0,1,5.37-.9,26.22,26.22,0,0,1,10.71,1.61h0l-1.1.39a4.66,4.66,0,0,1,1.25-1.56,5.23,5.23,0,0,1,1.72-.93,6.81,6.81,0,0,1,3.74-.08,6.3,6.3,0,0,1,3.34,1.8,4.58,4.58,0,0,1,1,1.73,4.49,4.49,0,0,1,.22,2h0l-.62-.93a28.88,28.88,0,0,1,9.17,5.58,27.21,27.21,0,0,1,3.64,4,14.54,14.54,0,0,1,2.21,5.13,34.87,34.87,0,0,1,.53,10.71A66.94,66.94,0,0,1,730.22,145h0l-.37-1.33c2.44,2.44,4.9,4.88,7.42,7.21s5.05,4.78,7.51,7.25l-1.11,1.15c-2.56-2.31-5.15-4.61-7.8-6.79s-5.28-4.55-7.87-6.88l-.59-.53.22-.8h0a61.89,61.89,0,0,0,1.89-10,32.58,32.58,0,0,0-.27-10,12.31,12.31,0,0,0-1.77-4.4,25,25,0,0,0-3.26-3.74,27.17,27.17,0,0,0-8.38-5.34l-.62-.93h0a4.33,4.33,0,0,0-.41-1.07,3.14,3.14,0,0,0-.72-.9,5.27,5.27,0,0,0-2.22-1.1,5.57,5.57,0,0,0-2.55-.13,3.77,3.77,0,0,0-1.13.43,4.17,4.17,0,0,0-.92.73l-.63.65-.48-.26h0a24.56,24.56,0,0,0-9.91-1.33,23.69,23.69,0,0,0-5,.89c-.79.25-1.59.52-2.36.85a8.21,8.21,0,0,0-2,1.21,27.9,27.9,0,0,0-6.06,8,73.9,73.9,0,0,0-4.3,9.36l0-.91h0a22,22,0,0,0,3.35,4.4,27.58,27.58,0,0,0,4.34,3.6c1.58,1.11,3.21,2.16,4.88,3.11a42,42,0,0,0,5.08,2.52l.56.23.22.52h0a41.38,41.38,0,0,0,4.74,8,29.37,29.37,0,0,0,6.51,6.47,16.88,16.88,0,0,0,8.36,3,34.77,34.77,0,0,0,9.26-.69c1.57-.26,3.15-.59,4.8-.78a44.91,44.91,0,0,1,4.91-.29c1.63,0,3.27.06,4.9.2a24.32,24.32,0,0,1,4.9.89,5.86,5.86,0,0,1,1.27.57,1.34,1.34,0,0,1,.41.39,1.16,1.16,0,0,1,.22.74,1.61,1.61,0,0,1-.49,1,7.33,7.33,0,0,1-2.33,1.38,23.65,23.65,0,0,1-4.79,1.36,32.74,32.74,0,0,1-9.83.3Z"/>
      <path d="M693.94,140.3c2.84.95,5.74,1.76,8.64,2.51a72.56,72.56,0,0,0,8.79,1.72c3,.36,6,.57,9,.66,1.49,0,3,0,4.47,0a23.63,23.63,0,0,0,4.35-.56l.3.71a17.26,17.26,0,0,1-4.54,1.09,37.22,37.22,0,0,1-4.59.29,75.45,75.45,0,0,1-9.14-.51,66.2,66.2,0,0,1-9-1.79c-2.95-.78-5.84-1.7-8.72-2.73Z"/>
      <path d="M689,138.88a92,92,0,0,1,4.1-12.89,35.13,35.13,0,0,1,3.11-6.07,11.85,11.85,0,0,1,2.33-2.64,16.13,16.13,0,0,1,3-1.82,17.86,17.86,0,0,1,6.67-1.59,47.57,47.57,0,0,1,6.76.14,27,27,0,0,1,12.88,3.91l-.35.51a26.23,26.23,0,0,0-12.58-3.59,47.48,47.48,0,0,0-6.64,0,16.94,16.94,0,0,0-6.27,1.61c-4.15,1.74-6,6-7.64,10.06a90.81,90.81,0,0,0-3.79,12.73Z"/>
      <g class="cls-33">
        <path d="M715.58,114.17a22.64,22.64,0,0,1,5.07,7,12.52,12.52,0,0,1,1,4.25,29.93,29.93,0,0,1,0,4.34,64.29,64.29,0,0,1-1.28,8.53c-.6,2.81-1.3,5.59-2.14,8.35l-1-.32c.87-2.69,1.62-5.45,2.26-8.22a63.18,63.18,0,0,0,1.4-8.4c.22-2.8.3-5.72-.8-8.3a22.21,22.21,0,0,0-4.8-6.9Z"/>
      </g>
      <path d="M648.29,214.63A170.54,170.54,0,0,1,665.67,219c2.86.89,5.71,1.88,8.51,3.05s5.49,2.42,8.16,3.7c10.63,5.16,21.25,10.1,32.52,12.68a49.82,49.82,0,0,0,16.94,1.26,19.07,19.07,0,0,0,7.67-2.44,4.51,4.51,0,0,0,2.08-2.37,1.45,1.45,0,0,0,0-.28v-.07s0-.18,0,.16.23.46.25.49a4.35,4.35,0,0,0-.53-.31c-.56-.3-1.23-.58-1.89-.86-2.68-1.1-5.48-2.12-8.23-3.22s-5.51-2.21-8.24-3.38a88.89,88.89,0,0,1-15.68-8.69l1-1.46c10,6.05,21.14,9.78,32.29,14,.71.29,1.41.57,2.16.94a5.11,5.11,0,0,1,1.32.89,1.91,1.91,0,0,1,.54,1,2,2,0,0,1,0,.44v.21a3.74,3.74,0,0,1-.08.82,6,6,0,0,1-1.32,2.65,9.81,9.81,0,0,1-2,1.76,22.16,22.16,0,0,1-9,3.23,52.42,52.42,0,0,1-18.29-.79,99.21,99.21,0,0,1-17.24-5.42c-5.55-2.27-10.91-4.9-16.22-7.47-2.65-1.27-5.28-2.57-7.94-3.73s-5.36-2.16-8.12-3.08c-5.53-1.83-11.21-3.41-16.88-4.77Z"/>
      <path d="M677.12,223.59a21.77,21.77,0,0,1-2.62,3.19,30.91,30.91,0,0,1-3,2.65,34.42,34.42,0,0,1-6.77,4.1,46.75,46.75,0,0,1-15.09,3.68,27.82,27.82,0,0,1-4,0l-1-.15a10.12,10.12,0,0,1-1-.27,6.2,6.2,0,0,1-1.06-.48,1.59,1.59,0,0,1-.49-.45,1.77,1.77,0,0,1-.17-.52,1.07,1.07,0,0,1,0-.41,1.56,1.56,0,0,1,.22-.51,2.13,2.13,0,0,1,.22-.3,10.51,10.51,0,0,1,1.58-1.38l1.54-1.14c1-.74,2-1.5,3-2.28,3.84-3.1,7.35-6.77,9.19-11.13l2.79,1.39a38.83,38.83,0,0,1-10.74,11.34c-1,.78-2.06,1.51-3.09,2.24l-1.52,1.1a10.25,10.25,0,0,0-1.28,1.08s-.09.09-.07.08,0,0,0-.09,0-.06,0-.18a.45.45,0,0,0-.1-.28c0-.11-.26-.23-.13-.16a5.86,5.86,0,0,0,.67.28c.26.06.51.15.79.19l.85.1a18.05,18.05,0,0,0,3.58-.2,44.51,44.51,0,0,0,7.16-1.75,50.06,50.06,0,0,0,6.81-2.64,35.59,35.59,0,0,0,6.11-3.82,33.78,33.78,0,0,0,2.7-2.36,21.09,21.09,0,0,0,2.27-2.58Z"/>
      <path d="M673.26,190.27a20.7,20.7,0,0,0,.92,5.32,29.87,29.87,0,0,0,2,5.1,43.78,43.78,0,0,0,6.15,9.11,63.26,63.26,0,0,0,17.29,13.63,89.33,89.33,0,0,0,20.65,8,106.33,106.33,0,0,0,10.9,2.23,72.26,72.26,0,0,0,11.06.91l.12,1.1a51.52,51.52,0,0,1-11.44.14A78.07,78.07,0,0,1,719.66,234a86.07,86.07,0,0,1-21.24-8.35,61.1,61.1,0,0,1-17.7-14.45,41.31,41.31,0,0,1-6.13-9.72,31.54,31.54,0,0,1-1.91-5.46,20.59,20.59,0,0,1-.69-5.8Z"/>
      <path d="M719.87,233.71c-.83-1.52-1.7-3-2.54-4.4-.44-.7-.84-1.51-1.27-2.06a14,14,0,0,0-1.56-1.73c-2.33-2.22-5.11-4.1-7.77-6.31a19.49,19.49,0,0,1,4.85,1.84,18.91,18.91,0,0,1,4.29,3,11,11,0,0,1,1.75,2.12,15.66,15.66,0,0,1,1.11,2.43A16,16,0,0,1,719.87,233.71Z"/>
      <g>
        <path class="cls-24" d="M625.15,201.66a38.41,38.41,0,0,1-8.26,17.14c-8.57,9.9-23.84,13.95-22.93,16.22,1.22,3.06,26.93,2.41,43.93-9.58,11-7.76,14.46-17.41,14.46-17.41"/>
        <path d="M625.24,201.67c-.21,10-6.59,19.6-15.09,24.92-4.14,2.81-8.72,4.87-12.92,7.13-.51.29-1,.58-1.45.88a3.77,3.77,0,0,0-.53.42l-.08.09a.63.63,0,0,0,.05-.39.56.56,0,0,0-.13-.33l.08.05a3,3,0,0,0,.57.23,9.08,9.08,0,0,0,1.57.32,36.58,36.58,0,0,0,7,.08,71,71,0,0,0,14.08-2.58,69,69,0,0,0,13.26-5.22,50,50,0,0,0,11.47-8.19,57.12,57.12,0,0,0,9.2-11.05A24.66,24.66,0,0,1,649.6,215c-.3.55-.64,1.08-1,1.61s-.69,1.05-1.06,1.56-.75,1-1.15,1.49-.79,1-1.22,1.44a37.51,37.51,0,0,1-5.59,5.09,43.77,43.77,0,0,1-6.36,4.08,70.63,70.63,0,0,1-28.73,7.63,37.89,37.89,0,0,1-7.58-.22,11.88,11.88,0,0,1-2-.45,5.48,5.48,0,0,1-1.11-.49,3,3,0,0,1-.64-.51,1.94,1.94,0,0,1-.29-2.39,3.43,3.43,0,0,1,.48-.62,5.61,5.61,0,0,1,.89-.74,19.6,19.6,0,0,1,1.67-1c2.19-1.23,4.36-2.28,6.45-3.49s4.14-2.43,6.1-3.78A45.44,45.44,0,0,0,614,219.7a33.33,33.33,0,0,0,4.5-5.33,66.2,66.2,0,0,0,6.59-12.72Z"/>
      </g>
      <path class="cls-8" d="M455.5,297.28s16-22.09,32.48-22.32,23.82,15.6,23.82,15.6a55.1,55.1,0,0,0,2.29-15.42,133.31,133.31,0,0,0-1.76-18.24s5.84,13.19,5.45,20.47c-.57,10.64-6,25.47-6,25.47s-5.35-18.78-18.06-21.34C474.51,277.65,455.5,297.28,455.5,297.28Z"/>
      <path class="cls-8" d="M512.59,258.16l-2.1-1.65s19-26.66,46.9-38.28,66.08-11.64,66.08-11.64l-2.76,6.52s-34,.1-58.75,10.49C524.79,239.2,512.59,258.16,512.59,258.16Z"/>
      <path class="cls-8" d="M651.39,210.4S668,213.54,677,218.23s24.17,13.3,34.37,16.83,25.38,5.11,25.38,5.11-8.32,4.13-32.38-3.13S670,220.86,664.05,220s-16.58-3.47-16.58-3.47Z"/>
      <path class="cls-8" d="M595,234.31s21.8-2.35,31.64-6.92,26-20.27,26-20.27-9.85,18.2-20.53,22.43-18.48,7.08-26.77,7.2S595.43,235.94,595,234.31Z"/>
      <path d="M575.35,129.62a30.43,30.43,0,0,1,4.36-2c1.49-.57,3-1,4.55-1.46a43.72,43.72,0,0,1,4.68-1,27.42,27.42,0,0,1,4.8-.36c-1.45.73-2.92,1.32-4.38,1.91s-2.93,1.13-4.4,1.66c-2.94,1-5.88,2.12-8.89,2.94Z"/>
      <path d="M609,120.91a40.2,40.2,0,0,1,8.22-2.52,39.76,39.76,0,0,1,8.48-.93l.2,2.28c-1.39.28-2.78.44-4.18.58s-2.8.23-4.2.31C614.67,120.78,611.86,120.9,609,120.91Z"/>
      <path class="cls-3" d="M466.67,293s5.12-12,7.87-15.5a107.5,107.5,0,0,1,7.63-8.25s-5.63,11.12-7.13,14.37-3.5,6.75-3.5,6.75Z"/>
      <polygon class="cls-3" points="488.79 273.33 479.92 286.83 484.04 288.46 488.79 273.33"/>
      <path class="cls-3" d="M488.79,289.46a79.61,79.61,0,0,1,5-11.63c2.75-4.87,9.25-14.75,9.25-14.75s-5.5,17.13-7.12,21.25-3,8.88-3,8.88Z"/>
      <path class="cls-3" d="M490.83,230.5A81.79,81.79,0,0,1,500,218.33c5.17-5.5,11.5-12,11.5-12s-16.17,26.34-18,29.5l-3.17,5.5Z"/>
      <path class="cls-10" d="M510.83,226.17s-9.33,9.83-6.5,13.5S510.83,226.17,510.83,226.17Z"/>
      <path class="cls-19" d="M411.22,302.19a27.8,27.8,0,0,0,6.95-6.31,60.92,60.92,0,0,0,5.42-7.71c1.63-2.7,3.13-5.51,4.55-8.36s2.78-5.74,4.05-8.65h0l1.24.33A168.52,168.52,0,0,0,431,288.93a50.84,50.84,0,0,0-.07,8.72,13.9,13.9,0,0,0,.37,2.08,4.36,4.36,0,0,0,.8,1.72,1.15,1.15,0,0,0,.57.39,1,1,0,0,0,.64-.13,5.36,5.36,0,0,0,1.47-1.27,38.67,38.67,0,0,0,4.51-7.41c1.31-2.62,2.5-5.31,3.65-8,2.28-5.42,4.37-10.94,6.32-16.48l1.63-4.68-.38,4.94h0c-.22,3.86-.34,7.74-.39,11.61s-.05,7.74.12,11.59a79.76,79.76,0,0,0,1.16,11.42,16.41,16.41,0,0,0,1.74,5.14,3.52,3.52,0,0,0,.72.87,1,1,0,0,0,.69.26,5,5,0,0,0,2.22-.73,25.68,25.68,0,0,0,4.47-3.33c1.42-1.26,2.79-2.61,4.12-4,2.67-2.77,5.18-5.71,7.68-8.66s4.91-6,7.29-9.05,4.76-6.12,7.06-9.24l2.61-3.55-1.48,4.13h0c-1.51,4.92-2.84,9.91-4,14.9-.58,2.5-1.07,5-1.49,7.54a37.56,37.56,0,0,0-.59,7.49,6.6,6.6,0,0,0,.78,3.16,2,2,0,0,0,2.37.45,10.38,10.38,0,0,0,3.07-1.69,28.2,28.2,0,0,0,2.84-2.44,99.38,99.38,0,0,0,10-11.61l1.92-2.52-.78,3.09a43.35,43.35,0,0,0-1.33,8.09,16.4,16.4,0,0,0,.21,3.92,5.47,5.47,0,0,0,1.56,3.08,6.89,6.89,0,0,0,3.33,1.36,20.41,20.41,0,0,0,4,.14,61.06,61.06,0,0,0,8.26-1.12,27.38,27.38,0,0,1-8.1,2.68,17,17,0,0,1-4.4.17,8.28,8.28,0,0,1-4.4-1.68,7.21,7.21,0,0,1-2.27-4.23,16,16,0,0,1-.15-4.46,30.65,30.65,0,0,1,2.07-8.37l1.14.58a75.62,75.62,0,0,1-9.68,12.3,31.63,31.63,0,0,1-3,2.64,12.51,12.51,0,0,1-3.68,2,4.93,4.93,0,0,1-2.41.2,3.81,3.81,0,0,1-1.25-.48,3.61,3.61,0,0,1-1-.94,8.28,8.28,0,0,1-1.14-4.26,39.2,39.2,0,0,1,.67-7.93c.43-2.58,1-5.12,1.67-7.64,1.28-5,2.85-10,4.58-14.88h0l1.14.57q-3.3,4.83-6.76,9.53t-7.16,9.24q-3.66,4.56-7.69,8.84c-1.35,1.43-2.74,2.82-4.21,4.15a27.31,27.31,0,0,1-4.84,3.63,6.93,6.93,0,0,1-3.29,1,3.12,3.12,0,0,1-2-.76,5.93,5.93,0,0,1-1.14-1.36,18.07,18.07,0,0,1-2-5.85,72.94,72.94,0,0,1-1.08-11.75,204.73,204.73,0,0,1,.89-23.37h0l1.25.26c-1.95,5.59-4,11.11-6.35,16.57-1.15,2.72-2.36,5.43-3.68,8.09a40.61,40.61,0,0,1-4.68,7.67,6.55,6.55,0,0,1-1.88,1.58,2.21,2.21,0,0,1-1.49.23,2.49,2.49,0,0,1-1.26-.78,5.6,5.6,0,0,1-1.07-2.25,16.4,16.4,0,0,1-.41-2.27,51.4,51.4,0,0,1,.07-9,168.15,168.15,0,0,1,2.46-17.6l1.23.34h0c-.43,1.58-1,3.1-1.53,4.62s-1.17,3-1.82,4.51a73.33,73.33,0,0,1-4.48,8.67,45.24,45.24,0,0,1-5.89,7.87,22.06,22.06,0,0,1-3.85,3.15A12.08,12.08,0,0,1,411.22,302.19Z"/>
      <path class="cls-19" d="M515.51,296.49c2.59-1.3,5.08-2.65,7.46-4.14a38.66,38.66,0,0,0,6.63-5.09c2-1.95,4-4,5.93-6.1s3.85-4.2,5.75-6.32l2.76-3.08-1.76,3.66h0c-.79,2.43-1.55,4.89-2.21,7.34-.33,1.23-.6,2.47-.84,3.69a18.47,18.47,0,0,0-.39,3.63,4.57,4.57,0,0,0,0,.84,3.69,3.69,0,0,0,.16.74,1.44,1.44,0,0,0,.71.87,4.72,4.72,0,0,0,3.07-.15,37.63,37.63,0,0,0,6.85-3.11h0l1.15-.64-.67,1.14-2.48,4.2c-.4.69-.82,1.38-1.18,2.09a20.71,20.71,0,0,0-1,2.11c-.17.35-.3.7-.43,1.05a5.44,5.44,0,0,0-.21,1,9.18,9.18,0,0,0,.06,2.15,30.75,30.75,0,0,0,1.2,4.63,8.59,8.59,0,0,1-2.85-4.25,6.87,6.87,0,0,1,0-4.13c.15-.41.3-.83.48-1.22a25.56,25.56,0,0,1,2.63-4.31,32.42,32.42,0,0,1,3.27-3.75l.48.5h0a22.14,22.14,0,0,1-6.69,4.26,9.12,9.12,0,0,1-2.07.54,4.55,4.55,0,0,1-2.42-.31,3.38,3.38,0,0,1-1.75-2,5.07,5.07,0,0,1-.25-1.15,5.86,5.86,0,0,1-.09-1.09,18.93,18.93,0,0,1,.48-4,36.17,36.17,0,0,1,1-3.81A55.54,55.54,0,0,1,541.2,275h0l1,.58c-1.66,2.36-3.44,4.62-5.31,6.81a80.47,80.47,0,0,1-6,6.29,35.37,35.37,0,0,1-3.4,2.8,31.41,31.41,0,0,1-3.77,2.27A28.8,28.8,0,0,1,515.51,296.49Z"/>
      <g class="cls-34">
        <path class="cls-19" d="M488.14,298.12a280.71,280.71,0,0,1,10.72-28,175.63,175.63,0,0,1,14.23-26.46,145.61,145.61,0,0,1,9.16-11.93q4.85-5.74,10-11.15A297.87,297.87,0,0,1,554,200c-3.52,3.55-7,7.09-10.43,10.72s-6.84,7.25-10.17,10.95-6.62,7.43-9.74,11.3a148.44,148.44,0,0,0-9,11.85,144.39,144.39,0,0,0-7.68,12.71c-2.38,4.36-4.63,8.79-6.79,13.27Q493.84,284.27,488.14,298.12Z"/>
      </g>
      <g class="cls-34">
        <path class="cls-19" d="M455.21,273.13q5.16-12.51,11.07-24.71c3.92-8.12,8.05-16.16,12.6-24a207,207,0,0,1,15.4-22.35q8.31-10.69,17.53-20.63-8.32,10.66-16.29,21.57c-2.63,3.65-5.24,7.31-7.74,11s-4.92,7.5-7.18,11.38-4.45,7.8-6.59,11.75-4.24,7.94-6.35,11.92Z"/>
      </g>
      <g class="cls-21">
        <path class="cls-19" d="M481.23,250.35q7.81-13.75,16.71-26.83a289.87,289.87,0,0,1,19-25.31,143.4,143.4,0,0,1,11-11.42q5.84-5.37,12-10.3a226.56,226.56,0,0,1,26-17.93c-4.32,3-8.59,6.08-12.75,9.3s-8.28,6.47-12.3,9.84a193.83,193.83,0,0,0-22.56,21.81q-5.1,6-9.87,12.24c-3.22,4.15-6.3,8.41-9.39,12.66Q490.06,237.24,481.23,250.35Z"/>
      </g>
      <path class="cls-9" d="M523,153.33s-7.33,3.34-9.33,7.67-1,7,.33,6.5,2.5-4.5,4.33-7.17S523,153.33,523,153.33Z"/>
      <path d="M454.92,264.77a36.57,36.57,0,0,0,.73-9.32,16.31,16.31,0,0,0-.87-4.51,10.18,10.18,0,0,0-1-2c-.39-.59-1-1.12-1.41-1s-.82.7-1,1.35a5.3,5.3,0,0,0-.12,2.1,4.81,4.81,0,0,0,.69,1.94,19.19,19.19,0,0,1,1.08,2.18A25.18,25.18,0,0,1,454.92,264.77Zm0,0a56.27,56.27,0,0,0-3.05-8.79c-.31-.7-.69-1.36-1.06-2a5.9,5.9,0,0,1-.8-2.47,6.39,6.39,0,0,1,.28-2.57,4,4,0,0,1,.63-1.2,1.76,1.76,0,0,1,2.75-.28,4.84,4.84,0,0,1,.83,1,10.66,10.66,0,0,1,1,2.24,16.73,16.73,0,0,1,.69,4.74A34.16,34.16,0,0,1,454.92,264.77Z"/>
      <path class="cls-19" d="M524.19,278.73a19.7,19.7,0,0,1,2.07-8.15,13.69,13.69,0,0,1,2.47-3.51,4.86,4.86,0,0,1,1.93-1.2,2.87,2.87,0,0,1,2.4.28,3.2,3.2,0,0,1,.91,4.47,4.75,4.75,0,0,1-.79.94,9.91,9.91,0,0,1-1,.68c-.59.33-1.15.69-1.72,1.08A44.51,44.51,0,0,0,524.19,278.73Zm0,0a23.22,23.22,0,0,1,5.59-6.4,18.86,18.86,0,0,1,1.79-1.23l.76-.52a3.17,3.17,0,0,0,.57-.65,2.07,2.07,0,0,0-.38-2.94c-.92-.69-2.32-.25-3.28.64a13.2,13.2,0,0,0-2.52,3.2A20.32,20.32,0,0,0,524.19,278.73Z"/>
      <g class="cls-21">
        <path class="cls-19" d="M520.88,264.85a108.36,108.36,0,0,1,10.88-13,110.61,110.61,0,0,1,12.7-11.36,102.16,102.16,0,0,1,14.49-9,112.25,112.25,0,0,1,15.62-6.66c-5.06,2.52-10,5.23-14.87,8a141.36,141.36,0,0,0-14,9.21,161,161,0,0,0-12.81,10.87c-2.06,1.91-4.08,3.87-6.07,5.86S522.82,262.8,520.88,264.85Z"/>
      </g>
      <g class="cls-34">
        <path class="cls-19" d="M523.76,220.44q7.56-8.64,15.92-16.53T557,188.83c3.06-2.35,6.2-4.56,9.46-6.61s6.57-4,10-5.72a145.83,145.83,0,0,1,21.1-9.05c-7,3.16-13.73,6.67-20.35,10.42a160.74,160.74,0,0,0-19,12.53q-4.5,3.51-8.85,7.2c-2.93,2.44-5.79,5-8.66,7.46Q532.17,212.64,523.76,220.44Z"/>
      </g>
      <path class="cls-19" d="M541.93,257.33a36.8,36.8,0,0,1,8.26-3.85,19.6,19.6,0,0,1,4.53-.93,7.34,7.34,0,0,1,2.41.2,3,3,0,0,1,2.07,1.65,1.86,1.86,0,0,1-.2,1.51,2.71,2.71,0,0,1-1.07.88,4.77,4.77,0,0,1-2.44.4c-.42,0-.79-.05-1.15-.09s-.74,0-1.11-.06L551,257c-1.5,0-3,.06-4.52.13S543.44,257.27,541.93,257.33Zm0,0a73.7,73.7,0,0,1,9-1.09,33,33,0,0,1,4.56,0,4.07,4.07,0,0,0,2-.34,1.78,1.78,0,0,0,.66-.53.83.83,0,0,0,.08-.67,2.05,2.05,0,0,0-1.39-1,6.55,6.55,0,0,0-2.09-.19,22,22,0,0,0-4.37.72,40.25,40.25,0,0,0-4.28,1.38C544.7,256.11,543.31,256.71,541.93,257.33Z"/>
      <path d="M510.35,226.76a38.2,38.2,0,0,0-4.21,5.24,16.15,16.15,0,0,0-1.57,2.88,6.88,6.88,0,0,0-.65,3,2.3,2.3,0,0,0,.07.74,3.6,3.6,0,0,0,.18.67.57.57,0,0,0,.09.18h0a.08.08,0,0,0-.07,0,1.55,1.55,0,0,0,.29-.22,13.84,13.84,0,0,0,1.81-2.6c1.11-1.92,2.15-3.92,3.33-5.87a29.25,29.25,0,0,1-2.29,6.44,16.18,16.18,0,0,1-.84,1.52,6.89,6.89,0,0,1-1.14,1.46,1.74,1.74,0,0,1-1.18.55,1.29,1.29,0,0,1-.47-.11,1.35,1.35,0,0,1-.69-.81,5.18,5.18,0,0,1-.24-1,3.3,3.3,0,0,1-.09-.94,8.1,8.1,0,0,1,.89-3.5,16.48,16.48,0,0,1,1.87-2.94A26.22,26.22,0,0,1,510.35,226.76Z"/>
      <path d="M523.74,153.06a24.14,24.14,0,0,0-8,5.26,13,13,0,0,0-2.64,3.87,8,8,0,0,0-.59,2.21,3.4,3.4,0,0,0,.36,2c.34.55.84.53,1.36.15a5,5,0,0,0,1.25-1.69c.33-.66.59-1.39,1-2.18s.78-1.44,1.19-2.14a44.34,44.34,0,0,1,2.68-4.05,21.54,21.54,0,0,1,1.53-1.9A6.47,6.47,0,0,1,523.74,153.06Zm0,0a7.07,7.07,0,0,0-1.57,1.79c-.44.67-.88,1.33-1.28,2-.8,1.38-1.58,2.78-2.3,4.2-.36.71-.71,1.43-1,2.14s-.55,1.49-1,2.24a5.55,5.55,0,0,1-1.72,2,2.19,2.19,0,0,1-.69.32l-.39.09-.43,0a1.72,1.72,0,0,1-.77-.34,2.08,2.08,0,0,1-.49-.59,4.19,4.19,0,0,1-.38-2.64,8.22,8.22,0,0,1,.77-2.4,13.22,13.22,0,0,1,3-3.91A24.34,24.34,0,0,1,523.74,153.06Z"/>
      <g class="cls-21">
        <path class="cls-35" d="M531,146.4a74.13,74.13,0,0,1,8-6.76A76.49,76.49,0,0,1,548,134a91.22,91.22,0,0,1,9.62-4.27,80.26,80.26,0,0,1,10-3.2c-3.12,1.6-6.25,3.12-9.38,4.63l-4.69,2.28c-1.57.76-3.11,1.48-4.61,2.32-3,1.61-6,3.42-8.95,5.21Z"/>
      </g>
      <g class="cls-20">
        <path class="cls-19" d="M426.41,311.18a5.26,5.26,0,0,0,1.53,1.25,15.49,15.49,0,0,0,1.77.9,30.87,30.87,0,0,0,3.76,1.29,78.79,78.79,0,0,0,7.8,1.63c5.27.78,10.59,1.34,15.92,1.68s10.69.45,16,.33a135,135,0,0,0,16-1.23,87.69,87.69,0,0,1-16,2.63,129.08,129.08,0,0,1-16.22.21A107.07,107.07,0,0,1,441,318a51.21,51.21,0,0,1-7.84-2.26,25.18,25.18,0,0,1-3.7-1.78A8.16,8.16,0,0,1,426.41,311.18Z"/>
      </g>
      <path d="M570.36,195.77a31.81,31.81,0,0,0-3.52,1.23,31,31,0,0,0-3.35,1.57,35.5,35.5,0,0,0-3.12,2l-.74.55-.65.56a3,3,0,0,0-.83,1.33.93.93,0,0,0,.45,1.07,2,2,0,0,0,1.45.17c1.09-.16,1.88-1.11,2.88-1.91a46.6,46.6,0,0,1,6.15-4.32c-1,.81-1.93,1.59-2.86,2.42s-1.88,1.62-2.78,2.47c-.46.44-.82.86-1.36,1.31a4.41,4.41,0,0,1-1.83,1,3,3,0,0,1-2.16-.26,1.58,1.58,0,0,1-.47-.39,1.67,1.67,0,0,1-.34-.52,1.88,1.88,0,0,1-.15-.61,3,3,0,0,1,0-.6,5.73,5.73,0,0,1,2.66-3,24.54,24.54,0,0,1,3.31-1.86A24,24,0,0,1,570.36,195.77Z"/>
      <path class="cls-19" d="M593.68,222.08c-1.07.24-2.13.49-3.16.82a24.36,24.36,0,0,0-3,1.08,15.18,15.18,0,0,0-2.77,1.53,8.62,8.62,0,0,0-1.17,1,2.83,2.83,0,0,0-.42.54.52.52,0,0,0-.11.33s.08.11.3.13a2.47,2.47,0,0,0,.67,0,6.49,6.49,0,0,0,1.46-.36,18.79,18.79,0,0,0,2.83-1.43c.93-.55,1.83-1.15,2.73-1.77S592.78,222.7,593.68,222.08Zm0,0a35.21,35.21,0,0,1-5,4.28,14.59,14.59,0,0,1-2.91,1.67,6.75,6.75,0,0,1-1.7.45,3.37,3.37,0,0,1-1,0,1.3,1.3,0,0,1-1-.69,1.38,1.38,0,0,1,.15-1.22,4.42,4.42,0,0,1,.58-.74,9.13,9.13,0,0,1,1.34-1.09,13,13,0,0,1,3-1.46A22.25,22.25,0,0,1,593.68,222.08Z"/>
      <path d="M507.28,265.51c-.82,1.45-1.62,2.92-2.32,4.4a14.42,14.42,0,0,0-.86,2.25c-.21.74-.29,1.58,0,1.95a.93.93,0,0,0,.69.3,1.25,1.25,0,0,0,.75-.44,7.39,7.39,0,0,0,1.21-2,43.83,43.83,0,0,0,1.7-4.67,19.21,19.21,0,0,1-1,5,7.19,7.19,0,0,1-1.25,2.34,2.13,2.13,0,0,1-1.35.78,1.89,1.89,0,0,1-1.54-.63,2.22,2.22,0,0,1-.45-1.51,4.9,4.9,0,0,1,.25-1.35,12.27,12.27,0,0,1,1.08-2.35A22.58,22.58,0,0,1,507.28,265.51Z"/>
      <g class="cls-34">
        <path class="cls-19" d="M533.05,259.05a138.91,138.91,0,0,1,11.9-8.28q6.13-3.87,12.64-7.15c2.18-1.07,4.39-2.08,6.64-3s4.55-1.7,6.84-2.46c4.57-1.53,9.17-3,13.89-4.11-4.45,1.87-8.88,3.77-13.34,5.58-2.23.92-4.49,1.78-6.66,2.74s-4.34,2-6.48,3c-4.29,2.12-8.51,4.41-12.74,6.7Z"/>
      </g>
      <g class="cls-21">
        <path class="cls-19" d="M468.08,291.88c1.56-3.49,3.34-6.86,5.21-10.18s3.85-6.58,5.93-9.78c1-1.58,2.14-3.16,3.26-4.71s2.26-3.06,3.46-4.55a102.35,102.35,0,0,1,7.48-8.65c-2,3.24-4.11,6.41-6.22,9.57s-4.26,6.27-6.31,9.44l-6.28,9.49C472.5,285.67,470.36,288.81,468.08,291.88Z"/>
      </g>
      <path class="cls-16" d="M530.92,166.33s26.25-34.5,69.75-42.75c43-8.15,74.16.92,74.16.92s-40.66-2.92-73.91,4.33C561.93,137.33,530.92,166.33,530.92,166.33Z"/>
    </g>
  </g>
</svg>
