<?xml version="1.0" encoding="utf-8"?>
<!-- Generator: Adobe Illustrator 22.0.0, SVG Export Plug-In . SVG Version: 6.00 Build 0)  -->
<svg version="1.1" id="Ebene_1" xmlns="http://www.w3.org/2000/svg" xmlns:xlink="http://www.w3.org/1999/xlink" x="0px" y="0px"
	 viewBox="0 0 521.7 376.1" style="enable-background:new 0 0 521.7 376.1;" xml:space="preserve">
<style type="text/css">
	.st0{fill:#050506;}
	.st1{fill:#283775;}
	.st2{fill:#FDFDFD;}
</style>
<g>
	<path class="st0" d="M196.3,311.8c-3.6,1.6-7.3,3.4-11.3,3.7c-3.4,0.3-6.2,1.6-9,3.3c-4.1,2.5-8.8,3.5-13.6,3.5
		c-2.5,0-5-0.4-7.5-0.9c-7.2-2-13.4-5.8-19.3-10.6c-0.1,2.6-0.7,5.1-1.4,7.5c-1.4,3.5-3.1,6.7-5.8,9.4c-3.1,3.2-6.7,5.5-11.1,6.4
		c-2.7,0.6-5.4,0.4-8.1,0c-1.5-0.2-2.9-0.6-4.4-0.6c-0.3-0.1-0.6-0.3-0.9-0.3c-6.4-1.6-12.3-4-17.8-7.8
		c-11.4-7.9-17.3-18.8-17.7-32.7c-0.1-4.8,0-9.7,0.9-14.5c0.3-1.6-0.2-2.4-1.2-3.3c-8.4-7.8-14.1-17.2-17-28.3c-2-7.6-2.1-15.4,0-23
		c3.1-11.3,9.2-20.9,17.7-29c5.6-5.3,11.9-9.5,18.8-12.8c1.4-0.6,1.4-0.7,0.8-2.2c-1.4-3.2-2.3-6.4-2.7-9.8
		c-0.7-6.5,0.3-12.9,3.1-18.8c0.6-1.3,1.3-2.7,2-4c0.3-0.6,0.2-0.9-0.4-1.1c-0.3-0.1-0.6-0.2-0.9-0.3c-4.2-1.6-8.1-3.8-11.3-7
		c-3.5-3.3-5.9-7.4-7.5-11.8c-1.6-4.3-2.1-8.8-1.2-13.3c1-5.5,4.2-9.8,7.7-13.8C83.1,93.4,89.9,88,97,83.2c6.4-4.3,13.3-8,20.5-10.7
		c5.6-2.1,11.3-3.8,17.2-4.7c2.1-0.3,4.3-0.6,6.4-1c4,0,8-0.2,12.1,0c9.8,0.4,19.1,2.9,27.6,7.9c0.3,0.2,0.7,0.4,1,0.5
		c1.9,1.1,3.7,2.4,5.5,3.8c1.1,0.9,1.2,0.9,2.3-0.1c3.4-2.8,7.2-4.9,11.4-6.6c2-0.8,4.2-1,6.2-1.9c1.1-0.1,2.1,0.1,3.1-0.4
		c3.9,0,7.8-0.3,11.6,0.7c0.8,0.2,1.2-0.2,1.5-0.9c1-2.2,2-4.4,3-6.6c2.4-5.1,5.7-9.4,10.7-12.2c1.8-1,3.8-1.6,5.7-2.5
		c0.9,0.1,1.8-0.3,2.7-0.4c8.3-1.2,15.8,1.3,22.7,5.6c3,1.9,5.9,4.1,8.4,6.7c0.4,0.4,0.7,0.9,1.2,1.1c0.9,1.5,2.1,2.8,2.9,4.3
		c0.5,1,0.6,1,1.6,0.3c2.5-1.8,5.1-3.3,7.9-4.4c0.8-0.3,1.7-0.3,2.4-1c1.3,0,2.7-0.1,3.9-0.8c0.4,0,0.9,0.1,1.3,0.1
		c3.3-0.2,6.5,0.2,9.7,1.1c1.4,0.4,1.4,0.3,1.9-1.1c1.7-4.6,3.3-9.2,5.3-13.7c3.6-8.2,9.9-13.1,18.9-14.4c4.8-0.8,9.5-0.6,14.2,0.4
		c3.2,0.6,6.1,1.7,9,3.2c1.3,0.7,1.3,0.7,2.2-0.5c4.1-5.7,9.7-9.3,16.5-10.9c10.4-1.9,19.8,0.5,28.1,6.8c5.4,4,9.1,9.4,11.1,15.9
		c0.5,1.5,0.5,1.5,2,1.4c6.6-0.6,12.9,0.5,18.8,3.6c9.6,5.1,16,12.8,17.9,23.7c0.6,3.4,0.2,6.9-0.3,10.4c-0.6,4.3-1.9,8.3-3.4,12.3
		c-2.8,7.1-5.6,14.1-7.5,21.5c-0.1,0.5-0.3,1.1-0.4,1.6c-0.5,2-0.1,3.6,1.4,5.1c1.5,1.5,2.8,3.3,4.1,5c3.3,4.3,4.6,9.1,4.2,14.4
		c-0.1,1.5-0.1,1.6,1.4,1.4c2.2-0.3,4.3-0.5,6.5-0.4c7,0.4,13.7,1.8,19.9,5.1c7.4,4,11.8,10.3,13.7,18.3c1.4,6,1.2,12.2,0.2,18.3
		c-1.2,7.7-3.4,15.1-5.6,22.5c-1.6,5.2-2.4,10.5-2.4,15.9c0,2.6-0.1,5.2,0,7.8c0,1.2,0.3,1.9,1.3,2.6c3.2,2.2,5.8,5,7.5,8.5
		c4.8,9.8,3,20.1-5.6,28c-3,2.7-6.6,4.3-10.5,5.1c-5,0.9-10,1.5-15.1,1.5c-1.9,0-3.7-0.2-5.6-0.4c-0.4-0.3-0.8-0.3-1.2-0.3
		c-2.2-0.1-4.3-0.4-6.3-1.2c-2-0.8-3.8-0.9-5.6,0.6c-0.3,0.2-0.6,0.4-0.9,0.6c-2.9,1.3-5.9,2.4-9.1,2.8c-3.9,0.5-7.7,0.5-11.6-0.3
		c-0.2-0.1-0.5-0.1-0.7-0.1c-0.9-0.3-1.9-0.4-2.8-0.8c-1.1-0.5-1.9-0.3-2.6,0.6c-0.2,0.3-0.5,0.5-0.8,0.8c-2.9,2.2-5.9,4.2-9.4,5.5
		c-3.8,1.5-7.8,2.3-11.9,2.3c-2.2,0-4.3-0.3-6.4-0.8c-3.4-0.8-6.7-2.2-9.7-4.1c-3-1.9-5.1-4.8-7.8-7.3c-1.4,2.8-3.1,5.2-5.3,7.2
		c-5.6,5.3-12.2,8.3-19.8,9.4c-3.9,0.6-7.8,0.6-11.6-0.2c-0.6-0.1-1.2-0.1-1.8-0.1c-3.4-1-6.8-1.9-9.8-3.7c-0.5-0.3-0.9-0.3-1.3,0.1
		c-1.1,1-2.4,1.7-3.4,2.8c-0.7,0.1-1.2,0.6-1.8,0.9c-4.9,3.1-10.2,5.2-15.9,6.1c-4.2,0.7-8.5,0.6-12.7-0.1c-1.7-0.3-3.6,0.1-5.3,0.2
		c-0.6,0-0.7,0.7-0.8,1.1c-1.6,3.8-3.2,7.6-5.1,11.3c-2.8,5.4-6,10.4-10.4,14.6c-5.3,5-11.2,8.8-18.5,10.4
		c-3.6,0.8-7.2,0.6-10.9,0.1c-0.7-0.1-1.3-0.2-2-0.4c-7.7-1.8-13.8-6-18.4-12.3c-3.1-4.2-5-9-6.1-14c-0.2-0.9-0.5-1.1-1.4-1
		c-2.1,0.4-4.2,0.5-6.3,0.1C199.8,310.5,198,310.6,196.3,311.8z M269.2,293.4c-1.9,3.9-3.9,7.7-6.2,11.4c-2.4,3.8-4.9,7.4-8.2,10.5
		c-2.6,2.4-5.4,4.3-8.9,5.2c-1.5,0.4-3,0.5-4.5,0.8c1.3,0.1,2.6,0.5,4,0.4c3.5-0.3,6.6-1.6,9.4-3.7c4.2-3.1,7.2-7.3,9.8-11.8
		c2.2-4,3.9-8.3,5.1-12.7c0.1-0.5,0.5-1,0.2-1.6C269.6,292.4,269.2,292.8,269.2,293.4z M344.6,92.4c0,0.3,0.1,0.5,0.1,0.8
		c-0.3,0.9-0.7,1.8-1,2.8c-4.1,10.9-7.5,22-9,33.7c-1,8.2-0.1,16.1,2.8,23.8c1,2.7,2.4,5.3,4.5,7.4c3.1,3.1,6.8,3.7,10.7,1.8
		c2.4-1.2,4.4-2.9,6.2-4.9c-0.2-0.2-0.2-0.4-0.4-0.5c-3.5-3.2-5.6-7.2-7-11.6c-2-6.7-1.9-13.5-0.9-20.3c1-6.2,2.5-12.4,4-18.5
		c1.5-6.1,3.3-12,4.5-18.2c0.4-2.2,0.8-4.4,0.2-6.6c-0.3-1.4-1.1-2.5-2.4-3.2c-1.2-0.6-2.3-1.1-3.6-1.5c-3.8-1.1-6.4-0.3-8.9,2.8
		c-1.3,1.6-2.2,3.4-3.1,5.3c-4.9,10.1-9.5,20.4-14.2,30.7c-0.6,1.4-1.3,2.8-2,4.2c0.1-1.8,0.7-3.5,1.2-5.2
		c2.3-7.2,4.6-14.4,7.2-21.5c3.2-8.8,6.5-17.5,11.5-25.5c0.8-1.4,1.5-2.9,2.1-4.3c0.5-1.2,0.9-2.4,1.1-3.7c0.4-2.7-0.7-4.5-3.3-5.2
		c-2-0.6-4-0.5-6.1-0.5c-1.2,0-1.8,0.4-2.2,1.6c-7.5,20.4-15,40.7-22,61.3c-1.9,5.6-3.8,11.1-5.2,16.9c-0.3,1.3-0.2,2.4,0.6,3.5
		c1.8,2.6,4.1,4.6,7.2,5.6c2.6,0.8,4.3,0.1,5.7-2.2c0.4-0.6,0.7-1.3,1-2c2.2-4.9,4-9.9,5.9-14.8c3.3-8.5,6.6-17.1,10.8-25.3
		C342,96.7,343.1,94.4,344.6,92.4z M411.3,92.1c0.1,0.1,0.2,0.2,0.3,0.3c-0.1,0.4-0.2,0.7-0.3,1.1c-2.4,7.2-4.6,14.5-5.9,22
		c-1,5.9-1.6,11.8-0.6,17.7c0.7,3.8,1.8,7.3,4.3,10.3c2.6,3.1,6,4.4,10,4c3.2-0.3,6.1-1.5,8.9-3.1c0.4-0.2,1-0.3,1.1-0.9
		c-0.4-0.5-0.9-0.9-1.3-1.3c-7.5-7.7-10.2-16.7-7.5-27.1c1.8-7,4.2-13.7,6.7-20.4c1.5-3.8,3-7.6,4-11.6c0.4-1.6,0.8-3.1,0.5-4.8
		c-0.7-3.7-3.2-6-6.6-7.2c-3.8-1.3-6.5-0.8-8.7,2.5c-0.7,1-1.3,2-1.9,3c-0.9,1.6-1.7,3.2-2.5,4.8c-6.2,11.2-12.9,22.2-19.5,33.1
		c-0.1,0.2-0.3,0.4-0.5,0.5c-0.1-0.1-0.1-0.1-0.2-0.2c0.6-2.8,1.6-5.5,2.5-8.1c3.3-10,6.8-19.9,12-29.1c0.5-0.8,0.8-1.7,1.2-2.5
		c0.2-0.6,0.4-1.3,0.5-2c0.2-1-0.2-1.9-1.2-2.3c-2.4-1-4.8-2-7.4-2.4c-3-0.5-3.8-0.1-5,2.8c-1.6,3.8-3.2,7.7-4.7,11.5
		c-1.9,4.7-3.6,9.5-6.2,13.9c-3.2,5.5-6.5,11-9.8,16.4c-1.2,2-2.5,4-3.9,5.9c-0.4,0.5-0.7,1.2-1.5,1.3c-0.1-1.1,0.2-2,0.4-3
		c2.4-8.9,5.5-17.5,9.6-25.7c1.2-2.5,2.5-5,3.4-7.6c0.5-1.4,0.8-2.9,0.7-4.4c-0.1-1.1-0.5-2.1-1.5-2.7c-2.6-1.6-5.4-2.7-8.6-2.5
		c-1.1,0.1-1.8,0.5-2.2,1.6c-1.5,3.7-3.2,7.3-4.7,10.9c-3.8,9.2-7.3,18.5-9.7,28.2c-0.9,3.9-1.7,7.8-1.3,11.8c0.2,2.6,0.9,5,2.3,7.2
		c1.8,2.7,4.5,3.7,7.7,3.1c3.3-0.7,5.8-2.7,7.9-5.3c1.4-1.8,2.6-3.8,3.7-5.8c1.8-3.4,3.4-7,4.9-10.6c0.2-0.4,0-1.2,0.8-1.1l0,0
		c-0.7,4.5-1.8,8.9-3.3,13.1c-0.7,2-0.5,2.9,1.2,4.1c1.6,1.2,3.5,1.8,5.4,2.3c1.5,0.3,2.6-0.1,3.5-1.4c1.4-2.1,2.8-4.3,4-6.4
		C398.9,114.9,405.1,103.5,411.3,92.1z M101,266.9c-0.3,0.3-0.7,0.2-1.1,0.3c-0.7,0-1.3-0.3-2-0.5c-1.1-0.2-1.4-0.2-1.8,0.9
		c-0.3,0.7-0.5,1.5-0.7,2.3c-0.3,1.8-0.7,3.5-0.9,5.3c-0.6,4.4-1.6,8.7-1.8,13.1c-0.3,6.5,1.5,12.3,6.5,16.7c2.8,2.5,6.2,4.1,9.8,5
		c1.2,0.3,2.4,0.8,3.9,0.7c-0.8-1.5-1.5-3-1.9-4.5c-1.2-3.9-1.5-7.9-1.6-11.9c-0.1-4.9,0.2-9.8,2-14.5c0.4-1.1,0.8-2.2,0.9-3.4
		c0.1-0.9,0-1.5-1.1-1.8c-1.2-0.3-2.2-1-3.1-2.1c0.8-0.2,1.5-0.1,2.1,0c3.1,0.5,6.3,0.5,9.5,0.2c7.8-0.9,14.7-3.9,20.7-8.9
		c8.2-6.8,13.6-15.5,16.9-25.5c1.4-4.1,2.3-8.4,2-12.8c-0.5-7.7-3.8-14-9.6-19.1c-6.5-5.7-14.3-8.2-22.8-8.8
		c-4.4-0.3-8.9-0.1-13.3,0.6c-6.6,1-12.9,3-18.6,6.4c-7.8,4.5-14.1,10.6-17.9,18.8c-2.9,6.2-3.8,12.7-1.7,19.3
		c1.5,4.8,4.2,9,7.6,12.6C88.1,260.5,94.2,264.2,101,266.9z M260.1,162.5c-0.3-1.9,0.4-3.7,0.8-5.5c0.8-3.7,1.6-7.4,2.5-11
		c3.2-13.5,6.6-26.9,12.7-39.5c1.2-2.4,2.1-5,2.6-7.7c0.7-4.1-0.4-6.4-4.1-8.4c-2-1.1-4.1-1.8-6.2-2.5c-1.8-0.6-1.5-0.5-2.2,0.9
		c-1.6,3.1-3,6.4-4.4,9.6c-5.6,13.8-9.7,28.1-13.3,42.5c-1,4.1-2.5,7.9-4.5,11.6c-0.5,0.9-1,1.8-1.9,2.5c-0.7,0.6-1.2,0.5-1.7-0.3
		c-0.6-1-0.7-2.1-0.9-3.2c-0.7-5.1-0.2-10.2,0.5-15.2c1.5-10.9,4.5-21.3,9-31.3c3.4-7.6,7.2-15.1,10.8-22.6c0.6-1.2,1.1-2.5,1.5-3.8
		c0.4-1.4,0.1-2.6-1.1-3.4c-1.4-1.1-2.9-2.1-4.5-3c-1.2-0.7-2.4-1.2-3.8-1.5c-1.4-0.3-2.2,0.1-2.9,1.4c-0.2,0.3-0.3,0.7-0.5,1
		c-5.3,11.3-10.3,22.8-14.4,34.6c-1,2.7-2.6,4.9-4.7,6.7c-2.2,1.9-4.7,2.8-7.7,2.5c2.3-0.9,3.6-2.5,4.3-4.8c1-3.2,1.4-6.4,0.8-9.7
		c-1.3-7-7.7-11-14.6-9.2c-7.6,2-11.9,8.2-11.2,16c0.2,1.8,0.7,3.6,1,5.5c-1.5-0.3-2.8-0.7-4.2-0.2c-1.6,0.6-3.3,0.7-4.9,1
		c-2.5,0.5-4.9,1-7.4,1.5c-0.1-0.5-0.2-0.8-0.2-1.2c-1.3-8.2-5.6-14.5-12.1-19.3c-6.8-5.1-14.7-7-23-7.3c-5.4-0.1-10.7,0.6-16,2
		c-10,2.6-19,7.4-27.2,13.7c-4.6,3.5-8.8,7.4-12.6,11.8c-1,1.2-1,1.2-0.2,2.5c1.4,2.4,3.5,4,6.1,4.9c3.4,1.1,6.8,0.8,10.2-0.1
		c4.2-1.2,7.9-3.5,11.4-6.1c3.3-2.6,6.8-5,10.8-6.4c1.8-0.7,3.2-1.6,4-3.5c0.7-1.7,1.6-2.4,3-3c-0.5,1.3-1.1,2.6-1.6,3.8
		c-4.5,11.6-8.5,23.4-12.6,35.1c-0.4,1-0.9,1.8-1.8,2.5c-3.1,2.3-5.9,4.9-8.4,7.9c-2.1,2.5-4,5.2-4.9,8.5c-1.1,3.9-0.3,7.3,2.6,10.3
		c1.3,1.3,2.8,2.4,4.5,3.3c5.4,2.8,11.2,4.4,17.2,4.8c7.4,0.5,14.3-1.3,20.7-5.4c5.3-3.3,9.6-7.7,13.2-12.7
		c7.9-10.8,12.7-22.9,16.1-35.7c0.1-0.3,0.3-0.7-0.2-1c-0.4,0.2-0.9,0.3-1.3,0.6c-5.2,2.6-10,5.8-14.7,9.1c-0.5,0.4-0.9,0.9-1.3,1.3
		c-2.1,2.8-4.4,5.4-6.8,7.9c-6.4,6.7-13.3,12.7-20.5,18.4c-1.6,1.3-3.2,2.7-5.4,4c2.2-7.4,4.3-14.4,6.5-21.6
		c-3.2,1.1-5.8,2.6-8.8,3.4c0.6-0.8,1.3-1.4,2.1-1.9c2.1-1.6,4.3-3.1,6.6-4.5c14.5-8.4,30-14.2,46-18.8c0.9-0.3,1.8-0.7,3-0.4
		c-1,3.3-1.7,6.7-2.1,10.2c-0.7,6-0.6,12,0.9,17.9c1.1,4.1,2.8,8,6,10.9c2.9,2.6,6.2,3.6,10,2.6c1.8-0.5,3.4-1.3,5-2.5
		c2.7-2,4.8-4.6,6.6-7.5c4.1-6.8,6.2-14.3,6.7-22.2c0.1-1,0.2-2.1,0-3.2c-2.9,0.4-5.7,0.7-8.5-0.4c-1,4.1-2,8-3.4,11.9
		c-0.8,2.2-1.6,4.3-3,6.1c-1.5,1.9-2.9,1.7-3.8-0.5c-0.3-0.6-0.5-1.3-0.6-2c-0.2-1.1-0.4-2.2-0.5-3.3c-0.3-6.3-0.1-12.5,1.8-18.6
		c0.2-0.5,0-0.9-0.2-1.4c-0.8-1.6-0.8-1.8-0.5-3.3c2.7,3.9,5.9,7,10.4,8.8c4.6,1.8,9,1.2,13.5-0.9c-0.3,1.7-0.6,3.1-0.9,4.5
		c-0.8,4.6-1.5,9.2-1.3,13.9c0.1,3.6,0.6,7,2.2,10.3c1.7,3.4,4.3,5.8,8,6.6c2.4,0.6,4.9,0.8,7.2-0.7c0,0.6,0.1,1,0,1.3
		c-0.5,3-0.4,5.9,0.1,8.9c1.3,7.7,5.6,12.9,13.3,15c1.5,0.4,2.9,0.8,4.6,0.7c-0.3-4.1,0.5-8,1.3-11.9c2.1-10.2,5.1-20.2,8.3-30.1
		c0.3-1,0.5-2,1.1-2.9c0.7,0.2,1.1,0.7,1.6,1.1c1.7,1.3,3.6,2.5,5.5,3.4c2.7,1.2,5.5,2,8.4,1.8c4.1-0.2,7.6-1.9,10.6-4.8
		c2.3-2.2,4-4.7,5.6-7.4c5.9-10.3,8.5-21.5,8.4-33.3c0-3.9-0.5-7.7-1.6-11.4c-0.9-3.1-2.5-5.6-5.4-7.3c-3.6-2.2-5.6-2.1-8.8,0.8
		c-3.1,2.9-5.8,6.1-7.8,9.9C277,116.6,267.2,139,260.1,162.5L260.1,162.5L260.1,162.5z M205.6,245.8c-0.2-0.2-0.4-0.1-0.6,0
		c0-0.4,0-0.7-0.1-1.1c-0.4-2.9-1.2-5.6-3.1-7.9c-3.2-3.8-7.8-4.3-11.7-1.4c-1.3,1-2.4,2.1-3.5,3.4c-2.3,2.8-4.2,6-6,9.2
		c-2.3,4.3-4.3,8.8-6.5,13.1c-3.1,5.9-4,12.1-3.2,18.6c0.1,0.6,0.1,1.2-0.2,1.8c-1.1,2.6-2.2,5.1-3.7,7.5c-0.5,0.7-1,1.5-1.6,2
		c-1,0.9-1.8,0.7-2.1-0.7c-0.4-1.6-0.4-3.3-0.3-5c0.2-2.7,0.5-5.3,0.9-7.9c1.6-9.9,4.1-19.5,8-28.7c2.9-6.8,6.4-13.4,9.7-20.1
		c2.4-4.8,4.9-9.6,6.7-14.7c0.5-1.3,0.9-2.7,1-4.1c0-0.7,0-1.4-0.5-1.9c-2.5-2.5-5.3-4.5-8.7-5.4c-1.6-0.4-2.2-0.2-3,1.3
		c-2.7,5-5.3,10-7.7,15c-6,12.3-11.5,24.7-15.6,37.7c-2.5,8-4.1,16.1-4.1,24.5c0,2.7,0.3,5.3,1,7.9c1,3.4,3,5.9,6.3,7.4
		c1.2,0.5,2.3,1.1,3.5,1.7c2.3,1.2,4.5,1,6.6-0.6c1.2-0.8,2.1-1.9,3-3.1c1.1-1.5,2-3.1,2.8-4.8c0.2-0.4,0.2-1,0.8-1.1
		c0.1,0.2,0.3,0.3,0.4,0.4c2,3,4.8,3.9,8.2,3.3c2.4-0.4,4.6-1.4,6.6-2.7c4.4-3,7.6-7.1,9.9-11.9c0.2-0.4,0.3-0.9,0.8-1.3
		c0.1,1,0.1,1.8,0.2,2.6c0.3,2.4,0.9,4.8,2.5,6.7c1.5,1.8,3.2,2.2,5.3,1.1c1.3-0.7,2.4-1.6,3.4-2.6c2-1.9,3.7-4,5.3-6.2
		c0.3-0.4,0.4-0.9,1.1-1c0.1,0.5,0.3,1.1,0.4,1.6c0.6,2,1.3,4,2.9,5.5c2.6,2.4,5.8,3.7,9.1,4.8c1.2,0.4,2.4-0.3,3.7-0.4
		c-0.1,0.9-0.2,1.7-0.3,2.5c-0.3,3.2-0.7,6.4-0.5,9.7c0.2,3.3,0.6,6.5,2.1,9.6c2.1,4.3,7,7,12.5,3.2c2-1.4,3.6-3,5-4.9
		c3.8-5,6.4-10.6,8.4-16.5c3-8.7,4.8-17.6,4.3-26.8c-0.1-1.8-0.5-3.6-0.8-5.3c-0.1-0.5-0.3-0.9-0.9-1c-1.9-0.6-3.7-0.9-5.7-0.9
		c-1.3,0-1.5,0.2-1.5,1.5c-0.1,5.2-0.6,10.3-1.2,15.4c-0.8,6.5-1.9,12.9-4.1,19c-1.1,3.2-2.5,6.3-4.8,9c-0.3,0.3-0.5,0.8-1,0.7
		c-0.6-0.2-0.5-0.8-0.5-1.3c-0.1-1.9,0.2-3.7,0.5-5.5c1.3-8.2,3.2-16.3,5.5-24.3c1.3-4.6,2.7-9.1,4.7-13.5c0.8-1.7,2-2.4,3.8-2.6
		c4.4-0.5,8.8-1.1,13.3-1.7c3-0.4,6-0.7,9-1.1c0.1,3.3,0.3,6.3,0.8,9.4c0.5,3.3,1.3,6.6,2.9,9.5c1.2,2.2,3,3.7,5.4,4.5
		c2.8,0.9,5.6,0.9,8.4,0.1c5.1-1.4,9-4.6,12.2-8.7c3.8-4.9,6.2-10.4,7.8-16.3c1-3.4,1.8-6.9,2.2-10.5c-3.2-0.2-6.2-0.4-9.2-1.5
		c-0.4,1.2-0.8,2.3-1.2,3.4c-1.5,4.2-3.1,8.4-5.4,12.2c-0.7,1.1-1.4,2.2-2.5,3c-1.5,1.1-2.8,0.9-3.8-0.7c-0.6-0.9-0.8-1.9-1-3
		c-0.3-2.4-0.2-4.8,0.2-7.2c0.8-5.3,2.2-10.4,4.2-15.4c0.4-0.9,0.4-1.6,0-2.5c-0.5-1.1-1-2.2-1-3.6c0.7,0.4,0.9,1.1,1.2,1.7
		c1.9,3.1,4.1,6,7.1,8.3c2.5,1.9,5.2,2.9,8.3,2.7c1.7-0.1,3.4-0.3,5.1-0.7c5.2-1.2,10.1-3.1,15-5.2c0.5-0.2,1-0.7,1.7-0.4
		c-1.5,1.7-3.1,3.3-5,4.3c-1.6,0.8-2.3,1.9-2.7,3.5c-0.7,2.8-1,5.7-1.2,8.6c-0.4,5.1-0.3,10.2-0.2,15.3c0.1,3,1.4,5.1,4.2,6.1
		c5,1.8,9.8,1.3,14.4-1.5c0.6-0.3,0.9-0.7,0.8-1.5c-0.4-6.3,0.4-12.5,1.6-18.7c2.5-12.4,7.1-24.1,12.6-35.4c0.2-0.3,0.2-0.7,0.8-0.9
		c1.1,1.4,2.3,2.7,3.5,3.9c2,1.9,4.2,3.6,6.9,4.7c3.8,1.5,7.2,0.8,10.1-2.1c1-1,1.8-2.2,2.6-3.4c0.2-0.3,0.3-0.8,0.8-0.9
		c0.1,0.3-0.2,1.1,0.6,0.6c0.7-0.4,1.3-0.9,2.3-1.6c-0.8,3.8-2.2,7-4.6,9.6c-0.5,0.6-0.9,1.1-1.1,1.9c-1.6,6-3.3,12.1-4.7,18.1
		c-0.5,2.1-0.7,4.3-0.3,6.4c0.7,3.6,2.6,6.5,4.8,9.3c1.6,2,3.6,3.6,5.1,5.7c0.4,0.6,1,0.9,1.7,1.2c2.6,1.1,5.1,0.9,7.4-0.7
		c1.6-1.1,2.8-2.6,3.8-4.2c1.4-2.4,2.4-4.9,3.1-7.5c2.4-9.7,4.9-19.4,7.8-29c0.9-3,1.8-6,2.7-9c0.1,0,0.2,0.1,0.3,0.1
		c0.1,0.8-0.4,1.5-0.4,2.3c-0.2,3.1-0.9,6.1-1.3,9.2c-0.6,4.6-1.4,9.2-1.8,13.8c-0.7,8.8,7.5,16.8,14.1,18c3.8,0.7,7.2-0.8,9.1-4.2
		c0.8-1.4,1.3-2.9,1.8-4.5c2-6.1,3.2-12.5,4.5-18.8c0.4-2.2,0.8-4.5,1.2-6.7c0.2,2.6,0.2,5.1,0.3,7.7c0.2,4.7,0.5,9.3,1.8,13.8
		c1.5,5.2,4.8,8.5,10.1,9.8c5.4,1.4,10.7,0.9,16-0.3c0.2,0,0.5,0,0.4-0.4c-0.4-0.2-0.8-0.4-1.2-0.6c-6-3.3-9.2-8.1-9.4-15.1
		c-0.2-6.1-0.4-12.3,0.1-18.4c0.4-5.1,1.1-10.2,2.5-15.2c2.1-7.3,4.3-14.6,5.5-22.1c0.4-2.9,0.8-5.8,0.2-8.7
		c-0.4-1.7-1.2-2.9-2.9-3.6c-1.6-0.7-3.2-1.3-4.9-1.6c-1.9-0.3-3.9-0.8-5.9-0.1c-1,0.3-1.8,0.8-2,2c-1.1,5.8-3,11.4-4.7,17
		c-0.1,0.4-0.1,1-0.7,1.3c-0.3-0.3-0.6-0.6-1-0.8c-1.1-0.7-1.7-0.5-2.1,0.7c-0.2,0.6-0.3,1.2-0.5,1.8c-2.8,11.8-5.6,23.6-8.9,35.3
		c-1.3,4.3-2.6,8.7-4.4,12.8c-0.5,1.1-1,2.3-1.9,3.2c-0.8,0.8-1.4,0.7-1.9-0.3c-0.3-0.7-0.4-1.6-0.4-2.4c0.1-5,1.1-9.8,2-14.7
		c2-10,4.6-19.8,6.7-29.7c0.5-2.4,1-4.7,0.9-7.2c-0.3-5.2-3.1-8.9-7.8-10c-2.2-0.5-4.4-0.2-6.6,0.4c-0.9,0.2-1.5,0.9-1.9,1.7
		c-0.5,0.9-0.9,1.9-1.2,2.9c-0.8,2.5-1.6,5.1-2.4,7.6c-5.1,15.7-10.6,31.3-16,46.9c-0.6,1.7-1.4,3.2-1.8,5c-0.2-0.2-0.4-0.3-0.6-0.5
		c0.3-1.4,0.7-2.9,1-4.3c2.2-10.2,4.5-20.3,6.6-30.5c0.6-2.7,1.4-5.4,1.3-8.2c-0.1-4.2-2.4-7.2-6.5-8.2c-1.8-0.5-3.7-0.4-5.5-0.4
		c-1.7,0-1.7,0.1-2.2,1.7c-1.4,4.9-2.8,9.8-4.2,14.6c-0.4,1.4-0.8,1.7-2.3,1.5c-1.2-0.2-2.2-0.7-3.1-1.5c-1-0.9-1.8-2.1-2.4-3.3
		c-1.1-2.1-1.9-4.4-2.5-6.8c-1.2-4.3-2.1-8.6-3.6-12.9c-0.4-1.2-0.9-2.3-1.6-3.3c-1-1.2-1.9-1.5-3.4-1c-1.8,0.6-3.1,1.7-4.1,3.3
		c-1.9,2.9-3.3,6-4.6,9.1c-4.6,10.6-8.5,21.5-12.3,32.4c-0.3,0.9-0.8,1.8-1.1,2.7c-0.4,1.6-0.9,3.1-1.5,4.5c-0.1,0-0.3,0-0.4,0
		c0.5-2.1,1-4.2,1.6-6.3c2-7.8,3.8-15.7,4.6-23.7c0.2-2.3,0.4-4.7-0.2-7c-0.2-0.9-0.5-1.8-1.4-2.3c-2.4-1.1-7.2-1.6-10,1
		c-1.8,1.7-2.8,3.8-3.1,6.2c-0.5,3.4-0.5,6.9-1.1,10.4c-0.6,3.3-1.3,6.6-3,9.5c-1.2,2.1-2.9,3.7-5.3,4.4c-1.4,0.4-2.9,0.8-4.3,1.1
		c-1.4,0.3-2.8,0.7-4.3,0.4c3-1.2,4.7-3.4,5.3-6.5c0.4-1.8,0.5-3.6,0.4-5.4c-0.3-3.2-0.8-6.4-2.5-9.2c-1.3-2.3-3.2-4-5.9-4.4
		c-3.1-0.4-6.3-0.4-9.4,0.4c-4.9,1.2-8.2,4.2-9.4,9.2c-0.6,2.4-0.7,4.9-0.4,7.4c0.1,1.3,0.3,2.6,0.5,4c-4.1-2.3-6.8-2-10.2,1.2
		c-2.4,2.2-4.2,4.9-5.3,8c-1.6,4.1-2.4,8.3-2.9,12.6c-0.1,1.2-0.7,1.5-1.6,1.8c-7.2,1.9-14.5,3.8-21.7,5.6c-0.4,0.1-0.9,0.5-1.3,0.1
		c0-0.2,0-0.3,0.1-0.4c3.6-8,7.3-15.9,11.5-23.5c1.8-3.2,3.6-6.4,5.9-9.3c0.8-1.1,1.7-2.1,2.9-2.9c0.3-0.2,0.7-0.5,1.2-0.3
		c0.6,0.3,0.5,0.8,0.5,1.3c-0.1,1.7-0.7,3.3-1.4,4.8c-3.7,9-8.5,17.4-14.4,25.1c-1.1,1.4-2.4,2.6-3.8,4c0.4,0,0.6,0,0.8,0
		c3.3-1.1,6.6-2.2,9.7-3.7c0.9-0.4,1.6-1.1,2.2-1.9c3-3.8,5.6-7.9,7.6-12.3c1.9-4,3.4-8.1,3.7-12.6c0.3-4.1-0.5-7.9-3.2-11.1
		c-0.9-1.1-2-2-3.4-2.4c-2.3-0.8-4.3,0.1-6.2,1.2c-2.1,1.3-3.9,3.1-5.5,5c-0.3,0.4-0.5,0.9-1.1,0.9c-1.7-4-3.2-6.1-6.3-8
		c-1.6-1-2.3-1.9-1.6-3.8c0.6-1.5,0-2.7-1.2-3.8c-1.9-1.6-3.8-3-6-3.9c-0.8-0.3-1.6-0.6-2.5-0.7c-1-0.1-1.8,0.2-2.2,1.2
		c-0.9,1.8-1.9,3.5-2.8,5.3c-0.3,0.6-0.6,0.9-1.4,0.9c-5.3-0.3-10.7,0.2-16,0.6c-6.4,0.5-12.7,1.3-19,2c-3.6,0.4-6.7-0.3-8.7-3.6
		c-0.2-0.3-0.3-0.6-0.7-0.4c-0.1,0.4-0.3,0.9-0.4,1.4c-0.5,2.8-0.9,5.6-0.1,8.5c0.7,2.4,2.4,3.7,4.9,3.7c0.9,0,1.7,0,2.6-0.1
		c3.9-0.6,7.8-1.1,11.8-1.5c6.8-0.7,13.6-1.1,20.4-1c0.3,0,0.7-0.1,1.1,0.3c-0.3,0.6-0.6,1.3-0.9,1.9c-3.9,8.1-7.6,16.3-10.7,24.7
		c-3.6,9.5-6.8,19.2-7.5,29.4c-0.1,2-1,3.4-2.3,4.6c-0.3,0.3-0.5,0.6-0.8,0.7c-1,0.5-1.2,1.3-1.2,2.3c-0.1,1.8-0.3,2.2-1.1,3.2
		c-0.7-4.9-0.5-9.6,0.7-14.3c1-4,2.2-7.9,3.3-11.8c1.3-4.8,2.4-9.6,2.7-14.6c0.2-3.6-0.3-4.2-3.9-5.1c-3.9-0.9-6.7,0.6-8,4.4
		c-0.5,1.4-0.7,2.9-0.7,4.4C205.6,241.7,205.6,243.7,205.6,245.8z M376.1,61.3c0,2.2,0.1,4.3,0.4,6.5c0.1,0.4,0.1,0.9,0.3,1.3
		c0.6,1.7,1.5,2.1,3.2,1.5c1-0.3,1.8-0.8,2.6-1.4c3.1-2.3,5.9-4.9,8.4-7.8c0.9-1.1,1.7-2.3,2.3-3.6c1.4-3.2,0.8-5.9-1.9-8.1
		c-1.9-1.6-4-2.7-6.4-3.2c-1.1-0.3-2.2-0.3-3.3,0.1c-1.8,0.5-2.9,1.8-3.7,3.4C376.5,53.5,376,57.3,376.1,61.3z M111.6,192.8
		c-16.5-1.6-32.1,9-36.1,22.2c4.2-6.3,9.1-11.5,15.4-15.3C97.1,195.9,104,193.9,111.6,192.8z M86.1,292c-2.3,7.1,0.2,15.7,6.5,20.6
		c4.2,3.3,9.1,5.1,15.5,5.6c-0.9-0.3-1.6-0.6-2.3-0.9c-3-1.1-5.9-2.4-8.7-4.1c-5.1-3.2-8.6-7.6-10.1-13.5
		C86.4,297.2,86.2,294.7,86.1,292z M221.2,158.8c-0.5,0.2-0.7,0.7-1,1c-1.9,2.3-3.9,4.5-6.2,6.4c-5.1,4.1-10.8,5.5-17.2,4
		c-2.2-0.5-4.3-1.3-6.5-2c5,3.8,10.5,5.8,16.9,4c6.9-2,11.1-6.8,14.1-13.1C221.3,159.1,221.2,158.9,221.2,158.8z M351.6,168.5
		c-2.1,0.1-4.1,0.1-6.1-0.3c-4.5-0.9-7.8-3.6-10.2-7.3c-2-3.1-3.3-6.5-4.4-10c-0.3-0.9-0.6-1.9-0.9-2.8c-0.1,5.6,1.2,10.8,4.5,15.4
		c2.7,3.7,6.3,5.9,10.9,6.2C347.4,169.9,349.6,169.6,351.6,168.5z M146.2,266.9c-8.2,7.6-17.6,11.9-29.1,11.3
		C125.6,282.2,140.1,277.9,146.2,266.9z M400.9,135c-0.2,4.7,0.9,9.1,3.7,12.9c3.8,5.2,10.5,7,17,4.5c-1.2,0-2,0-2.7,0
		c-6.3-0.1-11-2.8-14.2-8.3C403,141.2,401.9,138.1,400.9,135z M112.3,134.6c-2.2,0.3-4.4,0.4-6.6,0.3c-3.9-0.1-7.2-1.6-10-4.3
		c-2-2-3.5-4.3-4.8-6.8c-0.3-0.5-0.4-1.2-1-1.7C91.5,134.8,102.8,140,112.3,134.6z M476.6,251.5c-3-3.3-5.3-6.6-6.9-10.3
		c-1.6-3.7-2.3-7.8-3.1-11.7C464.1,239.6,470.3,249,476.6,251.5z M231.5,98.1c0.9-4-1.2-8.4-4.8-10.5c-2.4-1.3-5-1.9-7.7-1.8
		c-1.5,0-3,0.1-4.6,0.9c2.5,0.2,4.7,0.6,7,1.2c4.9,1.3,8.3,4.1,9.6,9.2C231.1,97.5,231.1,97.9,231.5,98.1z M411.6,264.5
		c-1.6,1.1-3.2,2.3-4.9,3.4c-2.7,1.8-5.6,3.4-8.8,4.1c-2.1,0.5-4.1,0.2-6.3,0.2c1.9,1.3,4.2,2,6.2,1.8
		C404.1,273.4,408.4,269.8,411.6,264.5z M289,214.1c1.2-3.3,0.7-6.4-1.1-9.3c-2.4-3.8-5.9-5.7-10.3-6.2
		C283.6,202.2,288.2,206.7,289,214.1z M383.3,40.9c-4.5-0.7-8.5,0.1-11.6,3.6c-2.3,2.6-3.1,5.7-2.5,9.2c1.1-3.2,2.4-6.3,5-8.6
		C376.8,42.9,380.1,42,383.3,40.9z M204.4,230.9c1.7-4,4.7-6,9.3-6.1C207.9,222.5,203.9,226.9,204.4,230.9z"/>
	<path class="st1" d="M141.2,66.8c-2.1,0.3-4.3,0.6-6.4,1c-5.9,0.9-11.6,2.6-17.2,4.7c-7.3,2.8-14.1,6.4-20.5,10.7
		C89.9,88,83.1,93.4,77.4,99.9c-3.5,4-6.7,8.3-7.7,13.8c-0.9,4.6-0.4,9,1.2,13.3c1.7,4.5,4.1,8.5,7.5,11.8c3.3,3.1,7.1,5.4,11.3,7
		c0.3,0.1,0.6,0.2,0.9,0.3c0.6,0.2,0.7,0.5,0.4,1.1c-0.7,1.3-1.4,2.6-2,4c-2.9,6-3.8,12.3-3.1,18.8c0.4,3.4,1.3,6.7,2.7,9.8
		c0.7,1.5,0.6,1.5-0.8,2.2c-7,3.3-13.3,7.5-18.8,12.8c-8.5,8.1-14.6,17.7-17.7,29c-2.1,7.6-1.9,15.3,0,23c2.8,11.1,8.6,20.5,17,28.3
		c1,0.9,1.5,1.8,1.2,3.3c-0.9,4.8-1,9.6-0.9,14.5c0.4,13.9,6.4,24.7,17.7,32.7c5.4,3.8,11.4,6.2,17.8,7.8c0.3,0.1,0.6,0.2,0.9,0.3
		c-1.6,0.7-3.4,0.8-5.1,0.6c-11.4-0.9-21.7-4.6-30.4-12.1c-7.7-6.6-12.3-14.9-13.5-25.1c-0.8-6.5-0.3-13,0.6-19.4
		c0.2-1,0-1.7-0.8-2.4c-9.6-9-16-19.8-18.3-32.8c-1.7-9.8,0-19.1,4.2-28c2.8-5.9,6.4-11.4,10.8-16.2c3.7-4,7.8-7.5,12.3-10.7
		c3.6-2.5,7.3-4.6,11.3-6.5c-5.8-12.1-4.3-23.6,2.2-34.8c-5-1.9-9.4-4.4-13.1-8.1c-4.7-4.8-7.7-10.5-8.6-17.2
		c-0.9-6,0.8-11.5,4.3-16.5c3.7-5.2,8.2-9.6,13-13.7c8.4-7,17.6-12.9,27.7-17.2c8.1-3.5,16.4-5.8,25.2-6.7
		C131.5,66.5,136.3,66.4,141.2,66.8z"/>
	<path class="st1" d="M333.7,31.9c-9,1.3-15.2,6.2-18.9,14.4c-2,4.5-3.5,9.1-5.3,13.7c-0.5,1.5-0.5,1.5-1.9,1.1
		c-3.2-0.9-6.4-1.2-9.7-1.1c-0.4,0-0.9,0-1.3-0.1c1.7-5,3.3-10.1,5.7-14.9c3.9-7.9,10.4-12.3,19.2-13.5
		C325.6,31.1,329.7,31.3,333.7,31.9z"/>
	<path class="st1" d="M196.3,311.8c1.7-1.2,3.4-1.3,5.4-1c2,0.4,4.2,0.3,6.3-0.1c0.8-0.2,1.2,0.1,1.4,1c1.1,5.1,3,9.8,6.1,14
		c4.7,6.3,10.8,10.5,18.4,12.3c-15,2.9-29.6-5.2-35.4-19.5C197.6,316.3,197,314.1,196.3,311.8z"/>
	<path class="st0" d="M353.9,304.7c1.2-1.5,2.3-3,3.9-4.1c4.3-3,10.1-2.3,13.6,1.8c3.4,3.9,3.2,9.8-0.4,13.5
		c-0.7,0.7-1.2,1.6-2.2,1.9c-0.3,0.1-0.5,0.3-0.8,0.4c-7.1,3.2-14.7-2.1-14.5-9.3C353.4,307.5,354,306.1,353.9,304.7z"/>
	<path class="st0" d="M137.5,334.8c1.4-1.8,2.9-3.5,5.1-4.5c4.5-2,9.8-0.6,12.6,3.5c2.8,4,2.3,9.5-1.2,12.9c-0.6,0.6-1.1,1.4-2,1.6
		c-0.4,0.2-0.8,0.4-1.2,0.5c-6.9,3-14.3-2.2-14.2-9.1c0-1.5,0.5-2.9,0.4-4.4c0,0,0,0,0,0C137.5,335.5,137.5,335.1,137.5,334.8z"/>
	<path class="st0" d="M27.6,277.5c1.1-1.6,2.3-3.1,4-4.1c4.5-2.7,10-1.7,13.3,2.3c3,3.7,3.1,9.6-0.5,13.4c-0.6,0.6-1.3,1.2-1.9,1.7
		c-1.3,0.5-2.5,1.1-3.8,1.3c-6.2,1.2-11.9-4.1-11.9-9.6C26.8,280.9,27.2,279.2,27.6,277.5z"/>
	<path class="st0" d="M475.6,101.6c1-1.4,2-2.7,3.3-3.7c3.7-3.1,10.1-3.1,13.9,1.1c3.5,3.9,3.5,10-0.2,13.8
		c-0.6,0.6-1.2,1.1-1.8,1.6c-0.4,0-0.7,0.2-0.8,0.7c0,0,0,0,0,0c-1.9,0.4-3.7,0.9-5.6,0.9c-4.1-0.1-9.1-3.9-9.3-9.2
		C475.1,105,475.3,103.3,475.6,101.6z"/>
	<path class="st0" d="M279,33.6c0.8-1.2,1.8-2.2,2.9-3.1c4.1-3.4,10.2-2.9,13.9,1c3.6,3.8,3.6,9.8,0.1,13.6
		c-0.7,0.8-1.5,1.5-2.3,2.2c-1.7,0.6-3.4,1.2-5.3,1.3c-5.1,0.1-10.3-4.3-10.2-10.1C278.1,36.8,278.7,35.2,279,33.6z"/>
	<path class="st1" d="M242.9,48.5c-1.9,0.9-3.9,1.5-5.7,2.5c-5,2.8-8.3,7.1-10.7,12.2c-1,2.2-2.1,4.4-3,6.6
		c-0.3,0.7-0.7,1.2-1.5,0.9c-3.8-1-7.7-0.7-11.6-0.7c1.3-2.8,2.5-5.6,3.9-8.4c4.1-7.9,10.5-12.6,19.4-13.8
		C236.7,47.5,239.9,47.6,242.9,48.5z"/>
	<path class="st0" d="M385.1,301.7c0.5-0.9,1.2-1.7,2-2.4c2.8-2.7,7.2-2.7,10.1-0.1c2.8,2.5,3.1,6.9,0.7,9.9c-0.6,0.7-1.2,1.4-2,1.9
		c-0.5,0-0.9,0.3-1.4,0.4c-4.4,1.5-8.8-1.5-9.5-5.5C384.7,304.4,385.2,303.1,385.1,301.7z"/>
	<path class="st0" d="M51.5,149.9c1.5-2.4,3.4-4.1,6.3-4.2c3.6-0.2,6.6,2,7.5,5.3c0.9,3.5-0.5,6.8-3.8,8.6c-0.4,0.1-0.8,0.3-1.2,0.4
		c-5,1.4-9.4-2.1-9.3-7.3c0-0.7,0.1-1.5,0.1-2.2c0,0,0,0,0,0C51.3,150.4,51.5,150.2,51.5,149.9z"/>
	<path class="st0" d="M181.1,324.1c0.8-1.2,1.7-2.4,3-3.2c3-2.1,7.1-1.7,9.6,1.1c2.5,2.7,2.5,6.9,0.1,9.6c-0.6,0.6-1.3,1.2-1.9,1.8
		c-0.6,0.2-1.2,0.3-1.8,0.5c-4.8,1.4-9.4-2.7-9.1-7C181,325.9,181.4,325,181.1,324.1z"/>
	<path class="st0" d="M254.8,27.6c1.4-2,2.9-3.6,5.4-4.1c2.9-0.6,5.8,0.5,7.5,2.9c1.7,2.4,1.8,5.7,0.1,8.2c-0.6,0.9-1.4,1.7-2.3,2.4
		c-0.5,0.2-1,0.4-1.6,0.5c-4.3,1.3-8.3-1-9.4-5.3C254.2,30.6,254.6,29.1,254.8,27.6z"/>
	<path class="st0" d="M460.4,130.1c0.5-0.7,1-1.4,1.6-2c2.7-2.8,7.3-3.1,10.2-0.5c3,2.8,3.2,7.3,0.7,10.2c-0.6,0.7-1.3,1.3-2,1.8
		c-0.4,0.1-0.8,0.3-1.2,0.4c-4.3,1.3-8.7-1.3-9.5-5.7C459.8,132.9,460.3,131.5,460.4,130.1z"/>
	<path class="st0" d="M59.3,76.3c1.4-2.3,3.1-4.1,6-4.5c2.9-0.4,5.2,0.6,6.9,3c1.7,2.4,1.8,5,0.6,7.5c-0.7,1.5-1.9,2.8-3.5,3.5
		c-0.5,0.1-1,0.2-1.4,0.3c-3.4,1-8.1-1.3-8.9-6.2C58.8,78.7,59.3,77.5,59.3,76.3z"/>
	<path class="st1" d="M375.6,24.1c-6.8,1.6-12.4,5.2-16.5,10.9c-0.9,1.2-0.9,1.2-2.2,0.5c-2.9-1.5-5.8-2.6-9-3.2
		c0.7-0.2,1.1-0.8,1.6-1.2c5.7-5.3,12.5-7.7,20.2-7.5C371.7,23.5,373.7,23.6,375.6,24.1z"/>
	<path class="st1" d="M365.2,285.5c2.2-2,3.9-4.4,5.3-7.2c2.7,2.4,4.8,5.4,7.8,7.3c3,1.9,6.2,3.2,9.7,4.1c-2.6,0.2-5.3,0.7-7.9,0.5
		c-4.8-0.3-9.2-1.6-13.4-3.9C366.2,286,365.7,285.7,365.2,285.5z"/>
	<path class="st1" d="M207.1,70.5c-2,0.8-4.2,1.1-6.2,1.9c-4.1,1.6-7.9,3.8-11.4,6.6c-1.1,0.9-1.2,0.9-2.3,0.1
		c-1.8-1.4-3.5-2.7-5.5-3.8c7.2-4.2,15-5.9,23.3-5.1C205.8,70.2,206.5,70.4,207.1,70.5z"/>
	<path class="st1" d="M134.2,318.4c0.7-2.4,1.3-4.9,1.4-7.5c5.9,4.8,12.1,8.6,19.3,10.6c-3.8,1-7.5,0.8-11.3,0.1
		C140.3,321,137.2,319.8,134.2,318.4z"/>
	<path class="st1" d="M279,33.6c-0.4,1.6-0.9,3.2-0.9,4.9c-0.1,5.8,5.1,10.2,10.2,10.1c1.9-0.1,3.6-0.7,5.3-1.3
		c-2.6,2.7-5.8,3.6-9.3,2.8c-3.9-0.9-6.5-3.4-7.5-7.2C275.9,39.5,276.5,36.3,279,33.6z"/>
	<path class="st1" d="M137,335.5c0.1,1.5-0.4,2.9-0.4,4.4c0,6.9,7.4,12.1,14.2,9.1c0.4-0.2,0.8-0.4,1.2-0.5c0.1,0.4-0.3,0.7-0.5,0.9
		c-5.3,4.5-13.6,2.2-15.9-4.4C134.4,341.4,134.7,338.3,137,335.5z"/>
	<path class="st1" d="M353.9,304.7c0.1,1.4-0.5,2.8-0.5,4.2c-0.1,7.2,7.5,12.5,14.5,9.3c0.3-0.1,0.6-0.3,0.8-0.4
		c0.1,0.5-0.3,0.7-0.7,1c-6.2,4.7-14.5,1.2-16.1-5.8C351.3,310,351.9,307.2,353.9,304.7z"/>
	<path class="st1" d="M292.8,60.8c-0.7,0.6-1.6,0.7-2.4,1c-2.8,1.1-5.5,2.6-7.9,4.4c-1,0.7-1.1,0.7-1.6-0.3c-0.8-1.5-2-2.8-2.9-4.3
		C282.8,59.7,287.8,59.5,292.8,60.8z"/>
	<path class="st1" d="M27.6,277.5c-0.4,1.7-0.8,3.3-0.8,5.1c0,5.5,5.6,10.8,11.9,9.6c1.4-0.3,2.6-0.9,3.8-1.3
		c-3.2,3.7-9.6,4.6-14,0.5C24.3,287.6,24.1,281.2,27.6,277.5z"/>
	<path class="st1" d="M475.6,101.6c-0.3,1.7-0.5,3.4-0.5,5.1c0.2,5.3,5.3,9.1,9.3,9.2c2,0,3.8-0.4,5.6-0.9
		c-3.5,3.5-9.5,3.5-13.4-0.1C473.1,111.7,472.2,105.6,475.6,101.6z"/>
	<path class="st1" d="M317.4,293.8c1-1.1,2.3-1.9,3.4-2.8c0.4-0.4,0.8-0.4,1.3-0.1c3.1,1.8,6.5,2.7,9.8,3.7c-2,0.6-4.1,0.4-6.2,0.4
		C322.9,295,320.1,294.6,317.4,293.8z"/>
	<path class="st1" d="M254.8,27.6c-0.2,1.5-0.6,3-0.2,4.6c1.1,4.3,5.1,6.6,9.4,5.3c0.5-0.2,1-0.4,1.6-0.5c-2.8,3.1-7.4,2.5-9.7,0.5
		C252.9,34.8,252.4,30.8,254.8,27.6z"/>
	<path class="st1" d="M385.1,301.7c0,1.4-0.4,2.8-0.1,4.2c0.7,4,5.1,7,9.5,5.5c0.5-0.2,0.9-0.4,1.4-0.4c-2.1,2.5-6.6,3-9.7,0.3
		C383.2,308.7,382.9,304.2,385.1,301.7z"/>
	<path class="st1" d="M181.1,324.1c0.3,0.9-0.1,1.8-0.1,2.7c-0.2,4.4,4.3,8.5,9.1,7c0.6-0.2,1.2-0.3,1.8-0.5
		c-2.7,2.6-6.7,2.7-9.6,0.3C179.6,331.4,178.8,327,181.1,324.1z"/>
	<path class="st1" d="M51.1,150.5c0,0.7-0.1,1.5-0.1,2.2c-0.1,5.2,4.3,8.6,9.3,7.3c0.4-0.1,0.8-0.3,1.2-0.4c-1.1,1.6-2.8,2-4.5,1.9
		c-2.7,0-4.9-1.3-6.2-3.7C49.5,155.4,49.4,152.8,51.1,150.5z"/>
	<path class="st1" d="M59.3,76.3c0,1.2-0.5,2.4-0.3,3.7c0.7,4.8,5.5,7.2,8.9,6.2c0.5-0.1,1-0.2,1.4-0.3c-1,1.4-2.6,1.7-4.1,1.7
		c-2.9,0.1-5.2-1.3-6.5-3.8C57.5,81.2,57.5,78.7,59.3,76.3z"/>
	<path class="st1" d="M460.4,130.1c-0.1,1.4-0.6,2.8-0.4,4.2c0.9,4.4,5.2,7.1,9.5,5.7c0.4-0.1,0.8-0.3,1.2-0.4
		c-2.6,2.6-6.6,2.3-8.9,0.6c-2.7-2-3.7-5.6-2.3-8.7C459.7,131,459.9,130.4,460.4,130.1z"/>
	<path class="st1" d="M443.2,279.6c0.3-0.2,0.7-0.3,0.9-0.6c1.7-1.5,3.5-1.4,5.6-0.6c2,0.8,4.1,1.1,6.3,1.2c0.4,0,0.9-0.1,1.2,0.3
		C452.6,280,447.9,280.3,443.2,279.6z"/>
	<path class="st1" d="M415.7,282.6c0.3-0.3,0.5-0.5,0.8-0.8c0.7-0.9,1.5-1.1,2.6-0.6c0.9,0.4,1.9,0.6,2.8,0.8
		C419.8,282.5,417.7,282.7,415.7,282.6z"/>
	<path class="st1" d="M490.1,115.1c0-0.5,0.4-0.6,0.8-0.7C490.7,114.8,490.5,115,490.1,115.1z"/>
	<path class="st1" d="M51.5,149.9c0,0.3-0.1,0.5-0.4,0.6C51,150.2,51.2,150,51.5,149.9z"/>
	<path class="st1" d="M137.5,334.8c0,0.4,0,0.7-0.5,0.7C137,335.2,137.2,334.9,137.5,334.8z"/>
	<path class="st2" d="M417.7,215.3c-0.9,3-1.8,6-2.7,9c-2.9,9.6-5.4,19.3-7.8,29c-0.7,2.7-1.7,5.2-3.1,7.5c-1,1.7-2.2,3.2-3.8,4.2
		c-2.3,1.5-4.8,1.8-7.4,0.7c-0.6-0.3-1.3-0.6-1.7-1.2c-1.4-2.1-3.4-3.7-5.1-5.7c-2.3-2.8-4.1-5.7-4.8-9.3c-0.4-2.2-0.2-4.3,0.3-6.4
		c1.4-6.1,3.1-12.1,4.7-18.1c0.2-0.7,0.6-1.3,1.1-1.9c2.4-2.6,3.8-5.7,4.6-9.6c-0.9,0.7-1.6,1.2-2.3,1.6c-0.8,0.5-0.5-0.3-0.6-0.6
		c-0.5,0.1-0.6,0.6-0.8,0.9c-0.8,1.2-1.6,2.4-2.6,3.4c-2.9,2.8-6.3,3.5-10.1,2.1c-2.7-1-4.8-2.7-6.9-4.7c-1.3-1.2-2.5-2.6-3.5-3.9
		c-0.5,0.2-0.6,0.6-0.8,0.9c-5.5,11.3-10.1,23-12.6,35.4c-1.3,6.2-2.1,12.4-1.6,18.7c0.1,0.8-0.2,1.1-0.8,1.5
		c-4.6,2.8-9.4,3.3-14.4,1.5c-2.8-1-4.2-3.1-4.2-6.1c-0.1-5.1-0.2-10.2,0.2-15.3c0.2-2.9,0.5-5.8,1.2-8.6c0.4-1.6,1.1-2.7,2.7-3.5
		c1.9-1,3.5-2.5,5-4.3c-0.8-0.3-1.3,0.2-1.7,0.4c-4.9,2.1-9.8,4-15,5.2c-1.7,0.4-3.4,0.6-5.1,0.7c-3.1,0.2-5.8-0.8-8.3-2.7
		c-3-2.3-5.2-5.2-7.1-8.3c-0.4-0.6-0.5-1.3-1.2-1.7c-0.1,1.3,0.5,2.5,1,3.6c0.4,0.9,0.4,1.6,0,2.5c-2,4.9-3.5,10.1-4.2,15.4
		c-0.3,2.4-0.5,4.8-0.2,7.2c0.1,1.1,0.4,2.1,1,3c1,1.5,2.3,1.8,3.8,0.7c1.1-0.8,1.8-1.9,2.5-3c2.3-3.8,3.9-8,5.4-12.2
		c0.4-1.1,0.8-2.2,1.2-3.4c3,1.1,6.1,1.3,9.2,1.5c-0.5,3.6-1.2,7.1-2.2,10.5c-1.7,5.9-4,11.4-7.8,16.3c-3.2,4.1-7.1,7.3-12.2,8.7
		c-2.8,0.8-5.6,0.8-8.4-0.1c-2.5-0.8-4.2-2.2-5.4-4.5c-1.6-3-2.4-6.2-2.9-9.5c-0.5-3.1-0.7-6.1-0.8-9.4c-3.1,0.4-6.1,0.7-9,1.1
		c-4.4,0.6-8.8,1.2-13.3,1.7c-1.9,0.2-3,0.9-3.8,2.6c-2,4.3-3.4,8.9-4.7,13.5c-2.3,8-4.2,16.1-5.5,24.3c-0.3,1.8-0.6,3.7-0.5,5.5
		c0,0.5-0.1,1.1,0.5,1.3c0.5,0.1,0.7-0.4,1-0.7c2.2-2.6,3.6-5.7,4.8-9c2.2-6.2,3.3-12.6,4.1-19c0.6-5.1,1.1-10.2,1.2-15.4
		c0-1.3,0.2-1.5,1.5-1.5c1.9,0,3.8,0.3,5.7,0.9c0.6,0.2,0.8,0.5,0.9,1c0.4,1.8,0.7,3.5,0.8,5.3c0.5,9.3-1.3,18.1-4.3,26.8
		c-2,5.9-4.6,11.5-8.4,16.5c-1.4,1.9-3.1,3.6-5,4.9c-5.4,3.7-10.3,1-12.5-3.2c-1.5-3-1.9-6.3-2.1-9.6c-0.2-3.2,0.1-6.4,0.5-9.7
		c0.1-0.8,0.2-1.6,0.3-2.5c-1.3,0.1-2.4,0.8-3.7,0.4c-3.3-1.1-6.5-2.4-9.1-4.8c-1.6-1.5-2.4-3.5-2.9-5.5c-0.2-0.5-0.3-1.1-0.4-1.6
		c-0.6,0.1-0.8,0.6-1.1,1c-1.6,2.2-3.3,4.3-5.3,6.2c-1,1-2.1,1.9-3.4,2.6c-2.1,1.1-3.8,0.7-5.3-1.1c-1.6-1.9-2.2-4.3-2.5-6.7
		c-0.1-0.8-0.2-1.6-0.2-2.6c-0.6,0.4-0.7,0.9-0.8,1.3c-2.3,4.8-5.5,8.9-9.9,11.9c-2,1.4-4.2,2.3-6.6,2.7c-3.5,0.5-6.2-0.3-8.2-3.3
		c-0.1-0.2-0.2-0.3-0.4-0.4c-0.6,0.1-0.6,0.7-0.8,1.1c-0.8,1.7-1.7,3.3-2.8,4.8c-0.8,1.2-1.8,2.2-3,3.1c-2.1,1.5-4.3,1.8-6.6,0.6
		c-1.1-0.6-2.3-1.2-3.5-1.7c-3.3-1.4-5.3-4-6.3-7.4c-0.7-2.6-1-5.2-1-7.9c0-8.4,1.6-16.5,4.1-24.5c4.1-13,9.7-25.4,15.6-37.7
		c2.5-5.1,5-10.1,7.7-15c0.8-1.5,1.3-1.8,3-1.3c3.5,0.9,6.3,2.9,8.7,5.4c0.5,0.5,0.6,1.2,0.5,1.9c-0.1,1.4-0.5,2.8-1,4.1
		c-1.8,5.1-4.3,9.9-6.7,14.7c-3.3,6.7-6.8,13.2-9.7,20.1c-3.9,9.2-6.4,18.9-8,28.7c-0.4,2.6-0.7,5.3-0.9,7.9c-0.1,1.7-0.1,3.4,0.3,5
		c0.3,1.3,1.1,1.5,2.1,0.7c0.7-0.6,1.2-1.3,1.6-2c1.5-2.4,2.6-4.9,3.7-7.5c0.3-0.6,0.3-1.2,0.2-1.8c-0.8-6.5,0.2-12.7,3.2-18.6
		c2.3-4.3,4.2-8.8,6.5-13.1c1.7-3.2,3.6-6.4,6-9.2c1-1.2,2.1-2.4,3.5-3.4c4-2.9,8.6-2.4,11.7,1.4c1.9,2.3,2.7,5,3.1,7.9
		c0.1,0.4,0.1,0.7,0.1,1.1c-0.1,0.5,0,0.9,0.1,1.4c0.5-0.4,0.6-0.9,0.5-1.4c0-2,0.1-4.1,0.1-6.1c0-1.5,0.2-3,0.7-4.4
		c1.3-3.7,4.1-5.3,8-4.4c3.6,0.8,4.1,1.4,3.9,5.1c-0.3,5-1.4,9.8-2.7,14.6c-1,3.9-2.3,7.8-3.3,11.8c-1.2,4.7-1.3,9.4-0.7,14.3
		c0.8-1,1-1.4,1.1-3.2c0.1-1,0.2-1.8,1.2-2.3c0.3-0.2,0.6-0.5,0.8-0.7c1.3-1.3,2.2-2.6,2.3-4.6c0.6-10.3,3.9-19.9,7.5-29.4
		c3.2-8.4,6.9-16.6,10.7-24.7c0.3-0.7,0.6-1.3,0.9-1.9c-0.4-0.5-0.8-0.3-1.1-0.3c-6.8-0.2-13.6,0.2-20.4,1
		c-3.9,0.4-7.9,0.9-11.8,1.5c-0.9,0.1-1.7,0.1-2.6,0.1c-2.6,0-4.2-1.3-4.9-3.7c-0.8-2.8-0.4-5.7,0.1-8.5c0.1-0.5,0.2-0.9,0.4-1.4
		c0.4-0.2,0.6,0.1,0.7,0.4c2,3.3,5.1,4,8.7,3.6c6.3-0.7,12.7-1.5,19-2c5.3-0.4,10.6-1,16-0.6c0.8,0.1,1.1-0.3,1.4-0.9
		c0.9-1.8,1.9-3.5,2.8-5.3c0.5-1,1.2-1.3,2.2-1.2c0.9,0.1,1.7,0.4,2.5,0.7c2.3,0.9,4.2,2.4,6,3.9c1.2,1.1,1.8,2.3,1.2,3.8
		c-0.7,1.8,0,2.8,1.6,3.8c3.2,1.9,4.6,4,6.3,8c0.6,0,0.8-0.6,1.1-0.9c1.6-1.9,3.3-3.7,5.5-5c1.9-1.1,3.9-2,6.2-1.2
		c1.4,0.5,2.5,1.3,3.4,2.4c2.7,3.2,3.6,7,3.2,11.1c-0.4,4.4-1.8,8.6-3.7,12.6c-2.1,4.4-4.6,8.5-7.6,12.3c-0.6,0.8-1.3,1.5-2.2,1.9
		c-3.1,1.5-6.4,2.6-9.7,3.7c-0.2,0.1-0.4,0-0.8,0c1.4-1.4,2.7-2.6,3.8-4c5.9-7.7,10.6-16.1,14.4-25.1c0.6-1.5,1.3-3.1,1.4-4.8
		c0-0.5,0.1-1-0.5-1.3c-0.5-0.2-0.9,0.1-1.2,0.3c-1.2,0.7-2,1.8-2.9,2.9c-2.2,2.9-4.1,6.1-5.9,9.3c-4.2,7.7-7.9,15.5-11.5,23.5
		c0,0.1,0,0.2-0.1,0.4c0.5,0.3,0.9,0,1.3-0.1c7.2-1.8,14.5-3.7,21.7-5.6c1-0.2,1.5-0.6,1.6-1.8c0.5-4.3,1.3-8.6,2.9-12.6
		c1.2-3.1,2.9-5.7,5.3-8c3.4-3.1,6.1-3.4,10.2-1.2c-0.2-1.4-0.3-2.7-0.5-4c-0.3-2.5-0.1-4.9,0.4-7.4c1.2-5.1,4.5-8,9.4-9.2
		c3.1-0.8,6.3-0.8,9.4-0.4c2.7,0.4,4.6,2.1,5.9,4.4c1.7,2.9,2.2,6,2.5,9.2c0.1,1.8,0,3.6-0.4,5.4c-0.6,3-2.3,5.3-5.3,6.5
		c1.5,0.3,2.9-0.1,4.3-0.4c1.4-0.3,2.9-0.7,4.3-1.1c2.4-0.6,4.1-2.2,5.3-4.4c1.7-3,2.4-6.2,3-9.5c0.6-3.4,0.6-6.9,1.1-10.4
		c0.4-2.4,1.3-4.5,3.1-6.2c2.8-2.6,7.6-2.1,10-1c0.9,0.4,1.2,1.4,1.4,2.3c0.6,2.3,0.5,4.7,0.2,7c-0.8,8-2.5,15.9-4.6,23.7
		c-0.5,2.1-1.1,4.2-1.6,6.3c-0.3,1-0.5,1.9-0.8,2.9c0.6-0.9,1.1-1.9,1.2-3c0.6-1.5,1.1-3,1.5-4.5c0.2-0.9,0.7-1.8,1.1-2.7
		c3.8-10.9,7.6-21.8,12.3-32.4c1.4-3.1,2.8-6.2,4.6-9.1c1-1.6,2.4-2.7,4.1-3.3c1.5-0.5,2.5-0.3,3.4,1c0.8,1,1.2,2.1,1.6,3.3
		c1.5,4.2,2.4,8.6,3.6,12.9c0.7,2.3,1.4,4.6,2.5,6.8c0.6,1.2,1.4,2.3,2.4,3.3c0.9,0.8,1.9,1.4,3.1,1.5c1.5,0.2,1.8-0.1,2.3-1.5
		c1.4-4.9,2.8-9.7,4.2-14.6c0.5-1.7,0.5-1.7,2.2-1.7c1.9,0,3.7-0.1,5.5,0.4c4,1.1,6.3,4,6.5,8.2c0.1,2.8-0.7,5.5-1.3,8.2
		c-2.2,10.2-4.4,20.3-6.6,30.5c-0.3,1.4-0.6,2.9-1,4.3c-0.3,1.2-0.6,2.4-0.8,3.9c0.6-1.2,1-2.3,1.3-3.4c0.4-1.7,1.2-3.3,1.8-5
		c5.4-15.6,10.9-31.2,16-46.9c0.8-2.5,1.6-5.1,2.4-7.6c0.3-1,0.7-2,1.2-2.9c0.4-0.8,1-1.5,1.9-1.7c2.2-0.6,4.4-1,6.6-0.4
		c4.7,1.1,7.6,4.8,7.8,10c0.1,2.4-0.4,4.8-0.9,7.2c-2.2,9.9-4.7,19.8-6.7,29.7c-1,4.9-2,9.7-2,14.7c0,0.8,0.1,1.6,0.4,2.4
		c0.4,1,1.1,1.1,1.9,0.3c0.9-0.9,1.4-2,1.9-3.2c1.8-4.1,3.2-8.5,4.4-12.8c3.4-11.7,6.2-23.5,8.9-35.3c0.1-0.6,0.3-1.2,0.5-1.8
		c0.4-1.2,1-1.4,2.1-0.7c0.4,0.2,0.7,0.5,1,0.8c0.6-0.2,0.5-0.8,0.7-1.3c1.7-5.6,3.6-11.2,4.7-17c0.2-1.1,0.9-1.6,2-2
		c2-0.6,3.9-0.2,5.9,0.1c1.7,0.3,3.3,0.9,4.9,1.6c1.7,0.7,2.5,1.9,2.9,3.6c0.6,2.9,0.2,5.8-0.2,8.7c-1.2,7.5-3.4,14.8-5.5,22.1
		c-1.4,5-2.1,10.1-2.5,15.2c-0.5,6.1-0.2,12.3-0.1,18.4c0.2,7,3.4,11.8,9.4,15.1c0.4,0.2,0.8,0.4,1.2,0.6c0.1,0.4-0.3,0.4-0.4,0.4
		c-5.3,1.1-10.6,1.6-16,0.3c-5.3-1.3-8.6-4.6-10.1-9.8c-1.3-4.5-1.7-9.1-1.8-13.8c-0.1-2.5,0-5.1-0.3-7.7c-0.4,2.2-0.8,4.5-1.2,6.7
		c-1.2,6.3-2.5,12.6-4.5,18.8c-0.5,1.5-1,3.1-1.8,4.5c-2,3.4-5.3,4.9-9.1,4.2c-6.6-1.2-14.8-9.2-14.1-18c0.4-4.6,1.1-9.2,1.8-13.8
		c0.4-3.1,1.2-6.1,1.3-9.2c0-0.8,0.5-1.5,0.4-2.3c0.4-0.5,0.2-1,0.2-1.8C418,214.4,417.8,214.9,417.7,215.3z M230.3,276.5
		c0,1.1,0,2.2,0,3.3c0,0.3,0.1,0.6,0.2,0.9c0.4,1.1,1,1.3,2,0.6c0.6-0.5,1.1-1.2,1.6-1.8c1.6-2,2-4.5,2.6-6.9
		c5.1-18.5,12.9-35.8,22.6-52.3c0.6-1,0.6-1.6,0-2.5c-1.5-2.4-3.7-3.9-6.2-5.1c-1-0.5-1.3-0.1-1.7,0.7c-2.3,4.7-4.6,9.3-6.9,14
		c-5.3,10.3-9.5,21.1-11.9,32.5C231.5,265.3,230.4,270.8,230.3,276.5z M198.6,249.9c0-1.2,0-2.2-0.4-3.1c-0.6-1.4-1.7-2.1-3.1-2.4
		c-1.2-0.2-2.1,0.6-2.8,1.6c-0.7,0.9-1.2,2-1.7,3.1c-2.3,5.7-4.5,11.5-6,17.5c-0.7,2.8-1.4,5.6-1.4,8.6c0,1,0.2,2,0.8,2.8
		c0.7,1,1.5,1.2,2.5,0.5c0.6-0.4,1.1-0.9,1.5-1.4c0.9-1.2,1.7-2.5,2.4-3.8c2.6-4.9,4.8-9.9,6.5-15.2
		C197.8,255.5,198.6,252.7,198.6,249.9z M311.3,214.2c0.1,2.9,0.9,5.5,2.4,7.9c0.4,0.6,0.9,1.2,1.5,1.6c0.8,0.6,1.1,0.5,1.5-0.4
		c1.2-2.4,2-4.9,2.4-7.6c0.1-1,0-2-0.3-2.9c-0.6-1.9-2.6-3.2-4.6-3c-1.8,0.2-2.8,1.4-3,3.7C311.3,213.7,311.3,213.9,311.3,214.2z"/>
	<path class="st2" d="M260.2,162.6c7-23.6,16.8-46,28.5-67.6c2-3.8,4.7-7,7.8-9.9c3.2-2.9,5.2-3,8.8-0.8c2.8,1.7,4.4,4.2,5.4,7.3
		c1.1,3.7,1.6,7.5,1.6,11.4c0.1,11.8-2.5,23-8.4,33.3c-1.5,2.7-3.3,5.2-5.6,7.4c-3,2.9-6.5,4.6-10.6,4.8c-3,0.1-5.8-0.6-8.4-1.8
		c-2-0.9-3.8-2-5.5-3.4c-0.5-0.4-0.9-0.9-1.6-1.1c-0.6,0.9-0.7,1.9-1.1,2.9c-3.2,9.9-6.2,19.8-8.3,30.1c-0.8,3.9-1.5,7.8-1.3,11.9
		c-1.6,0.1-3.1-0.3-4.6-0.7c-7.8-2-12-7.2-13.3-15c-0.5-2.9-0.6-5.9-0.1-8.9c0.1-0.4,0-0.7,0-1.3c-2.3,1.6-4.8,1.3-7.2,0.7
		c-3.8-0.9-6.4-3.2-8-6.6c-1.6-3.2-2.1-6.7-2.2-10.3c-0.2-4.7,0.5-9.3,1.3-13.9c0.3-1.4,0.6-2.8,0.9-4.5c-4.5,2-8.9,2.7-13.5,0.9
		c-4.4-1.8-7.7-4.9-10.4-8.8c-0.3,1.4-0.3,1.7,0.5,3.3c0.2,0.5,0.4,0.8,0.2,1.4c-2,6.1-2.2,12.3-1.8,18.6c0.1,1.1,0.2,2.2,0.5,3.3
		c0.1,0.7,0.3,1.3,0.6,2c0.9,2.2,2.3,2.4,3.8,0.5c1.4-1.8,2.2-4,3-6.1c1.4-3.8,2.4-7.8,3.4-11.9c2.8,1,5.6,0.8,8.5,0.4
		c0.3,1.1,0.1,2.2,0,3.2c-0.6,7.9-2.6,15.4-6.7,22.2c-1.8,2.9-3.9,5.5-6.6,7.5c-1.5,1.1-3.1,2-5,2.5c-3.8,1-7.1-0.1-10-2.6
		c-3.3-2.9-4.9-6.8-6-10.9c-1.6-5.9-1.6-11.9-0.9-17.9c0.4-3.4,1.1-6.8,2.1-10.2c-1.1-0.4-2.1,0.1-3,0.4c-16,4.5-31.5,10.4-46,18.8
		c-2.3,1.3-4.5,2.8-6.6,4.5c-0.7,0.6-1.4,1.2-2.1,1.9c3-0.8,5.7-2.3,8.8-3.4c-2.2,7.2-4.3,14.2-6.5,21.6c2.2-1.4,3.8-2.7,5.4-4
		c7.2-5.7,14.1-11.7,20.5-18.4c2.4-2.5,4.7-5.1,6.8-7.9c0.4-0.5,0.7-1,1.3-1.3c4.7-3.3,9.5-6.5,14.7-9.1c0.4-0.2,0.9-0.4,1.3-0.6
		c0.6,0.3,0.3,0.7,0.2,1c-3.4,12.8-8.2,24.9-16.1,35.7c-3.6,5-7.9,9.4-13.2,12.7c-6.3,4-13.2,5.9-20.7,5.4c-6-0.4-11.8-2-17.2-4.8
		c-1.7-0.9-3.2-1.9-4.5-3.3c-2.9-2.9-3.7-6.3-2.6-10.3c0.9-3.2,2.8-5.9,4.9-8.5c2.5-2.9,5.3-5.6,8.4-7.9c0.9-0.7,1.4-1.5,1.8-2.5
		c4.1-11.8,8.1-23.5,12.6-35.1c0.5-1.3,1-2.5,1.6-3.8c-1.3,0.6-2.3,1.3-3,3c-0.8,1.9-2.2,2.9-4,3.5c-4,1.4-7.5,3.8-10.8,6.4
		c-3.5,2.7-7.1,4.9-11.4,6.1c-3.4,1-6.8,1.3-10.2,0.1c-2.6-0.9-4.7-2.5-6.1-4.9c-0.8-1.4-0.8-1.4,0.2-2.5c3.8-4.4,8-8.3,12.6-11.8
		c8.2-6.3,17.1-11.1,27.2-13.7c5.2-1.4,10.6-2.1,16-2c8.3,0.2,16.2,2.2,23,7.3c6.5,4.9,10.8,11.2,12.1,19.3c0.1,0.4,0.1,0.7,0.2,1.2
		c2.5-0.5,5-1,7.4-1.5c1.6-0.3,3.3-0.4,4.9-1c1.3-0.5,2.7,0,4.2,0.2c-0.3-1.9-0.8-3.7-1-5.5c-0.7-7.8,3.6-14,11.2-16
		c6.9-1.8,13.3,2.2,14.6,9.2c0.6,3.3,0.3,6.6-0.8,9.7c-0.7,2.2-2.1,3.9-4.3,4.8c3,0.3,5.5-0.7,7.7-2.5c2.1-1.8,3.8-4,4.7-6.7
		c4.1-11.8,9.1-23.3,14.4-34.6c0.2-0.3,0.3-0.7,0.5-1c0.7-1.2,1.5-1.7,2.9-1.4c1.3,0.3,2.6,0.9,3.8,1.5c1.6,0.9,3,1.9,4.5,3
		c1.2,0.9,1.5,2,1.1,3.4c-0.4,1.3-0.9,2.6-1.5,3.8c-3.6,7.5-7.4,15-10.8,22.6c-4.5,10-7.5,20.4-9,31.3c-0.7,5-1.2,10.1-0.5,15.2
		c0.2,1.1,0.3,2.2,0.9,3.2c0.4,0.8,1,0.8,1.7,0.3c0.9-0.7,1.4-1.6,1.9-2.5c2-3.7,3.5-7.5,4.5-11.6c3.6-14.4,7.8-28.7,13.3-42.5
		c1.3-3.3,2.7-6.5,4.4-9.6c0.7-1.3,0.5-1.5,2.2-0.9c2.1,0.7,4.2,1.4,6.2,2.5c3.7,2,4.8,4.3,4.1,8.4c-0.5,2.7-1.4,5.3-2.6,7.7
		c-6.1,12.6-9.6,26-12.7,39.5c-0.9,3.7-1.6,7.4-2.5,11C260.5,158.8,259.8,160.7,260.2,162.6c-1,0.8-0.3,2.1-0.8,3.1
		C259.4,164.6,260.2,163.7,260.2,162.6z M156.3,96.4c0.7,0.3,1.5,0.6,2.2,0.9c3.1,1.3,6.2,2.7,9.1,4.7c1.2,0.8,2.3,1.6,3.1,2.9
		c-7.6-3-14.8-2.7-19.2-1.4c0.4,0.2,0.8,0.3,1.2,0.5c2.7,1.2,3.6,3.2,2.9,6.1c-0.2,0.8-0.5,1.7-0.8,2.5c-2.2,5.9-4.8,11.7-7.4,17.4
		c-0.4,0.9-0.8,1.9-1.3,2.9c0.9-0.1,1.4-0.5,2-0.8c4-2,8.1-4.1,12.1-6c4.6-2.2,9.3-4.4,14.3-5.6c1.1-0.3,1.4-0.7,1.6-1.6
		c1.2-6.6-0.3-12.3-5.5-16.8c-4-3.4-8.7-5-13.8-6.1c-0.8-0.2-1.5-0.3-2.5-0.5C155,96,155.6,96.2,156.3,96.4z M275.5,133.6
		c0.5-0.1,1-0.3,1.5-0.4c0.4-0.1,0.9-0.3,1.2,0.2c0.2,0.3,0.1,0.7-0.1,1.1c-0.2,0.3-0.4,0.7-0.5,1c-0.8,1.7-0.4,3.2,0.7,4.7
		c0.5,0.6,1,0.7,1.6,0.3c1.7-0.8,3.2-1.9,4.5-3.2c2.6-2.4,4.7-5.3,6.5-8.3c5.7-9.8,9.3-20.3,11.1-31.5c0.3-1.6,0.4-3.3,0.1-5
		c-0.2-1.3-0.9-1.5-2-0.8c-0.6,0.5-1.2,1.1-1.7,1.7c-1.8,2.1-3.3,4.5-4.8,6.8c-6.5,10.5-12.3,21.5-17.9,32.5
		C275.5,132.9,275.2,133.1,275.5,133.6z M130,167.4c-0.8-0.6-1.6-1.1-2.3-1.7c-2-1.7-4-3.5-4.9-6.2c-0.3-1-0.9-1.1-1.6-0.2
		c-1.8,2.2-2.7,4.7-2.5,7.5c0.1,1.9,1.1,2.7,3,2.7c2.2-0.1,4.3-0.5,6.4-1.1C128.8,168.3,129.5,168.1,130,167.4z M217.2,115.1
		c0.8-2.5,1.3-5,1.1-7.6c-0.1-1.1-0.3-2.1-0.8-3c-0.7-1.3-2.3-2.2-3.3-1.9c-1.4,0.5-1.7,1.8-1.7,3c-0.1,2.8,0.6,5.4,2.2,7.7
		C215.2,114.1,215.9,114.9,217.2,115.1z"/>
	<path class="st2" d="M101,266.9c-6.8-2.7-12.9-6.3-17.9-11.6c-3.5-3.6-6.1-7.8-7.6-12.6c-2.1-6.7-1.2-13.1,1.7-19.3
		c3.8-8.3,10.1-14.3,17.9-18.8c5.8-3.4,12-5.4,18.6-6.4c4.4-0.7,8.9-0.9,13.3-0.6c8.5,0.6,16.3,3.1,22.8,8.8
		c5.7,5.1,9.1,11.4,9.6,19.1c0.3,4.4-0.7,8.6-2,12.8c-3.3,10.1-8.7,18.7-16.9,25.5c-6,5-12.9,8-20.7,8.9c-3.1,0.3-6.3,0.3-9.5-0.2
		c-0.7-0.1-1.3-0.2-2.1,0c0.9,1,1.9,1.7,3.1,2.1c1.1,0.3,1.2,0.9,1.1,1.8c-0.1,1.2-0.5,2.3-0.9,3.4c-1.8,4.7-2.1,9.5-2,14.5
		c0.1,4,0.5,8,1.6,11.9c0.5,1.5,1.1,3,1.9,4.5c-1.4,0.1-2.6-0.3-3.9-0.7c-3.6-0.9-7-2.5-9.8-5c-5.1-4.4-6.8-10.2-6.5-16.7
		c0.2-4.4,1.2-8.7,1.8-13.1c0.2-1.8,0.6-3.5,0.9-5.3c0.2-0.8,0.4-1.6,0.7-2.3c0.4-1.1,0.7-1.2,1.8-0.9c0.7,0.1,1.3,0.5,2,0.5
		c0.6,0.5,1.2,0.3,2.2,0.3C101.5,267.1,101.2,267,101,266.9z M114.9,265.4c3.3-1.2,6.5-2.8,9.4-4.6c7-4.3,12.8-9.8,16.7-17.1
		c3-5.6,4.2-11.5,2.8-17.8c-1.6-7.3-5.6-12.5-13-14.5c-2.9-0.8-5.9-1.1-9-0.5c0.7,0.6,1.2,1,1.7,1.5c2.2,2.1,3.4,4.6,3.7,7.7
		c0.2,2.4-0.1,4.8-0.6,7.2c-0.8,3.4-2.2,6.6-3.5,9.8c-3.5,8.5-5.7,17.4-7.9,26.3C115,264,114.6,264.6,114.9,265.4z M99.3,259.6
		c1.4-5.5,2.8-10.7,4.2-15.9c1.4-5.3,2.8-10.5,4.1-15.8c1.3-5.2,2.8-10.3,4-15.7c-1.3,0.4-2.2,0.6-3.2,0.9
		c-5.6,1.9-10.9,4.4-15.2,8.6c-5.9,5.6-8.1,12.5-6.3,20.5c1,4.5,3.4,8.3,6.4,11.8C95,256,96.9,257.8,99.3,259.6z"/>
	<path class="st2" d="M381.5,114.4c-0.8-0.1-0.7,0.7-0.8,1.1c-1.5,3.6-3.1,7.2-4.9,10.6c-1.1,2-2.2,4-3.7,5.8
		c-2.1,2.6-4.5,4.5-7.9,5.3c-3.2,0.7-5.9-0.3-7.7-3.1c-1.4-2.2-2.1-4.6-2.3-7.2c-0.3-4,0.4-7.9,1.3-11.8c2.3-9.7,5.9-19,9.7-28.2
		c1.5-3.7,3.1-7.3,4.7-10.9c0.4-1.1,1.1-1.5,2.2-1.6c3.2-0.2,6,0.9,8.6,2.5c0.9,0.6,1.4,1.5,1.5,2.7c0.1,1.5-0.2,3-0.7,4.4
		c-0.9,2.6-2.2,5.1-3.4,7.6c-4,8.3-7.1,16.9-9.6,25.7c-0.3,0.9-0.6,1.9-0.4,3c0.9-0.1,1.2-0.8,1.5-1.3c1.3-2,2.6-3.9,3.9-5.9
		c3.3-5.5,6.6-10.9,9.8-16.4c2.6-4.4,4.3-9.2,6.2-13.9c1.6-3.8,3.1-7.7,4.7-11.5c1.2-2.8,2-3.2,5-2.8c2.6,0.4,5,1.5,7.4,2.4
		c1,0.4,1.4,1.2,1.2,2.3c-0.1,0.7-0.3,1.3-0.5,2c-0.3,0.9-0.7,1.7-1.2,2.5c-5.2,9.2-8.7,19.1-12,29.1c-0.9,2.7-1.9,5.3-2.5,8.1
		c-0.3,0.2-0.3,0.5-0.1,0.7c0.1,0,0.3-0.3,0.3-0.5c0.2-0.2,0.4-0.3,0.5-0.5c6.6-11,13.3-21.9,19.5-33.1c0.9-1.6,1.7-3.2,2.5-4.8
		c0.6-1,1.2-2,1.9-3c2.2-3.2,4.8-3.8,8.7-2.5c3.4,1.1,5.9,3.5,6.6,7.2c0.3,1.6-0.1,3.2-0.5,4.8c-1,4-2.6,7.7-4,11.6
		c-2.6,6.7-4.9,13.5-6.7,20.4c-2.7,10.5,0,19.4,7.5,27.1c0.4,0.4,0.9,0.9,1.3,1.3c-0.1,0.6-0.7,0.7-1.1,0.9
		c-2.8,1.5-5.6,2.8-8.9,3.1c-4.1,0.4-7.4-0.9-10-4c-2.5-3-3.6-6.6-4.3-10.3c-1.1-6-0.5-11.9,0.6-17.7c1.3-7.5,3.5-14.8,5.9-22
		c0.1-0.3,0.2-0.7,0.3-1.1c0.5-0.4,0.4-1,0.6-1.6c-0.5,0.3-0.7,0.8-0.9,1.2c-6.2,11.4-12.4,22.9-19,34c-1.3,2.2-2.6,4.3-4,6.4
		c-0.9,1.3-2,1.7-3.5,1.4c-2-0.4-3.8-1.1-5.4-2.3c-1.7-1.3-1.9-2.1-1.2-4.1C379.7,123.3,380.8,118.9,381.5,114.4
		c0-0.1,0.1-0.2,0.1-0.3c0-0.2,0-0.4,0-0.5c-0.3-0.1-0.2,0.2-0.2,0.3C381.3,114.2,381.3,114.3,381.5,114.4z"/>
	<path class="st2" d="M344.6,92.4c-1.5,2.1-2.6,4.3-3.8,6.6c-4.2,8.2-7.5,16.7-10.8,25.3c-1.9,5-3.7,10-5.9,14.8
		c-0.3,0.7-0.6,1.4-1,2c-1.3,2.3-3.1,3-5.7,2.2c-3.1-1-5.4-3-7.2-5.6c-0.7-1.1-0.9-2.2-0.6-3.5c1.4-5.7,3.3-11.3,5.2-16.9
		c7-20.6,14.5-40.9,22-61.3c0.4-1.2,1-1.6,2.2-1.6c2.1,0,4.1-0.1,6.1,0.5c2.6,0.8,3.7,2.6,3.3,5.2c-0.2,1.3-0.6,2.6-1.1,3.7
		c-0.7,1.5-1.3,3-2.1,4.3c-4.9,8-8.3,16.7-11.5,25.5c-2.6,7.1-4.9,14.3-7.2,21.5c-0.5,1.7-1.1,3.4-1.2,5.2c0.7-1.4,1.3-2.8,2-4.2
		c4.7-10.3,9.3-20.5,14.2-30.7c0.9-1.8,1.8-3.7,3.1-5.3c2.5-3.1,5.1-3.9,8.9-2.8c1.3,0.4,2.4,0.9,3.6,1.5c1.3,0.7,2,1.7,2.4,3.2
		c0.5,2.2,0.2,4.5-0.2,6.6c-1.1,6.2-3,12.1-4.5,18.2c-1.5,6.1-3.1,12.3-4,18.5c-1,6.8-1.1,13.6,0.9,20.3c1.3,4.5,3.5,8.5,7,11.6
		c0.1,0.1,0.2,0.3,0.4,0.5c-1.8,2-3.8,3.7-6.2,4.9c-3.9,1.9-7.6,1.3-10.7-1.8c-2.1-2.1-3.5-4.7-4.5-7.4c-2.9-7.7-3.8-15.6-2.8-23.8
		c1.4-11.6,4.8-22.7,9-33.7c0.3-0.9,0.7-1.8,1-2.8c0.4-0.5,0.6-1.1,0.7-1.8C345,91.7,344.7,91.9,344.6,92.4z"/>
	<path class="st2" d="M376.1,61.3c-0.1-3.9,0.3-7.8,2-11.4c0.7-1.6,1.8-2.9,3.7-3.4c1.1-0.3,2.2-0.3,3.3-0.1
		c2.4,0.6,4.5,1.6,6.4,3.2c2.7,2.2,3.3,4.9,1.9,8.1c-0.6,1.3-1.4,2.5-2.3,3.6c-2.5,3-5.3,5.6-8.4,7.8c-0.8,0.6-1.6,1.1-2.6,1.4
		c-1.7,0.5-2.6,0.1-3.2-1.5c-0.1-0.4-0.2-0.8-0.3-1.3C376.2,65.6,376.2,63.4,376.1,61.3z"/>
	<path class="st2" d="M111.6,192.8c-7.6,1.1-14.5,3.1-20.8,6.9c-6.3,3.8-11.2,9.1-15.4,15.3C79.6,201.8,95.1,191.2,111.6,192.8z"/>
	<path class="st2" d="M269.7,293.5c-1.3,4.4-2.9,8.7-5.1,12.7c-2.5,4.5-5.6,8.6-9.8,11.8c-2.8,2.1-5.9,3.4-9.4,3.7
		c-1.4,0.1-2.7-0.3-4-0.4c1.5-0.3,3-0.4,4.5-0.8c3.5-0.9,6.3-2.8,8.9-5.2c3.3-3.1,5.9-6.7,8.2-10.5c2.3-3.7,4.3-7.5,6.2-11.4
		C269.3,293.4,269.5,293.5,269.7,293.5z"/>
	<path class="st2" d="M86.1,292c0.1,2.7,0.3,5.2,0.9,7.7c1.5,5.9,5,10.3,10.1,13.5c2.7,1.7,5.7,3,8.7,4.1c0.7,0.3,1.5,0.6,2.3,0.9
		c-6.4-0.5-11.3-2.3-15.5-5.6C86.3,307.7,83.8,299.1,86.1,292z"/>
	<path class="st2" d="M221.2,158.8c0,0.1,0.1,0.3,0,0.4c-2.9,6.3-7.2,11.1-14.1,13.1c-6.3,1.8-11.9-0.2-16.9-4
		c2.1,0.7,4.3,1.5,6.5,2c6.4,1.4,12.1,0.1,17.2-4c2.3-1.9,4.4-4,6.2-6.4C220.5,159.4,220.7,159,221.2,158.8z"/>
	<path class="st2" d="M351.6,168.5c-2,1.1-4.2,1.4-6.4,1.2c-4.6-0.3-8.2-2.5-10.9-6.2c-3.3-4.6-4.6-9.8-4.5-15.4
		c0.3,0.9,0.6,1.9,0.9,2.8c1.1,3.5,2.4,6.9,4.4,10c2.5,3.8,5.7,6.5,10.2,7.3C347.5,168.6,349.5,168.5,351.6,168.5z"/>
	<path class="st2" d="M146.2,266.9c-6.1,11-20.6,15.2-29.1,11.3C128.6,278.9,138,274.5,146.2,266.9z"/>
	<path class="st2" d="M400.9,135c1,3.1,2.1,6.2,3.8,9.1c3.2,5.5,7.9,8.2,14.2,8.3c0.8,0,1.5,0,2.7,0c-6.5,2.5-13.2,0.7-17-4.5
		C401.8,144.1,400.6,139.7,400.9,135z"/>
	<path class="st2" d="M112.3,134.6c-9.5,5.5-20.9,0.2-22.5-12.4c0.6,0.5,0.8,1.1,1,1.7c1.3,2.5,2.8,4.8,4.8,6.8
		c2.8,2.7,6.1,4.1,10,4.3C107.9,135,110.2,134.9,112.3,134.6z"/>
	<path class="st2" d="M476.6,251.5c-6.3-2.5-12.5-11.9-10-22c0.8,4,1.5,8,3.1,11.7C471.3,245,473.6,248.3,476.6,251.5z"/>
	<path class="st2" d="M231.5,98.1c-0.4-0.2-0.4-0.6-0.5-0.9c-1.2-5.1-4.6-8-9.6-9.2c-2.2-0.6-4.5-1-7-1.2c1.6-0.8,3.1-0.9,4.6-0.9
		c2.7-0.1,5.3,0.5,7.7,1.8C230.3,89.7,232.4,94.1,231.5,98.1z"/>
	<path class="st2" d="M411.6,264.5c-3.1,5.3-7.5,8.8-13.8,9.5c-1.9,0.2-4.3-0.5-6.2-1.8c2.2,0,4.2,0.3,6.3-0.2
		c3.3-0.7,6.1-2.3,8.8-4.1C408.4,266.8,409.9,265.7,411.6,264.5z"/>
	<path class="st2" d="M289,214.1c-0.8-7.4-5.4-11.9-11.4-15.4c4.4,0.4,8,2.4,10.3,6.2C289.7,207.7,290.2,210.8,289,214.1z"/>
	<path class="st2" d="M383.3,40.9c-3.2,1.1-6.4,2-9,4.2c-2.6,2.3-3.9,5.3-5,8.6c-0.6-3.5,0.1-6.6,2.5-9.2
		C374.8,41,378.8,40.2,383.3,40.9z"/>
	<path class="st2" d="M204.4,230.9c-0.4-4,3.6-8.4,9.3-6.1C209,225,206,227,204.4,230.9z"/>
	<path class="st1" d="M401.4,243.1c-0.3,1.1-0.7,2.2-1.3,3.4c0.1-1.5,0.4-2.7,0.8-3.9C401.1,242.8,401.3,243,401.4,243.1z"/>
	<path class="st1" d="M348.7,232.2c0,1.1-0.6,2-1.2,3c0.3-1,0.5-2,0.8-2.9C348.5,232.3,348.6,232.2,348.7,232.2z"/>
	<path class="st1" d="M260.2,162.6c-0.1,1.1-0.8,2-0.8,3.1C259.9,164.7,259.2,163.4,260.2,162.6c-0.1-0.1,0-0.1,0-0.1L260.2,162.6z"
		/>
	<path class="st1" d="M344.6,92.4c0.1-0.4,0.4-0.7,0.7-1c0,0.7-0.3,1.3-0.7,1.8C344.7,92.9,344.6,92.6,344.6,92.4z"/>
	<path class="st1" d="M417.7,215.3c0.2-0.5,0.3-0.9,0.6-1.7c0,0.8,0.2,1.4-0.2,1.8C417.9,215.4,417.8,215.4,417.7,215.3z"/>
	<path class="st1" d="M411.3,92.1c0.2-0.4,0.3-0.9,0.9-1.2c-0.2,0.6-0.1,1.2-0.6,1.6C411.5,92.3,411.4,92.2,411.3,92.1z"/>
	<path class="st1" d="M205.6,245.8c0.1,0.5,0,1-0.5,1.4c-0.1-0.5-0.2-0.9-0.1-1.4C205.2,245.7,205.4,245.6,205.6,245.8z"/>
	<path class="st1" d="M269.7,293.5c-0.2,0-0.3-0.1-0.5-0.2c0-0.6,0.4-1,0.7-1.4C270.1,292.6,269.8,293,269.7,293.5z"/>
	<path class="st1" d="M101,266.9c0.2,0.1,0.5,0.2,1.1,0.5c-1.1,0-1.7,0.2-2.2-0.3C100.3,267.1,100.6,267.1,101,266.9z"/>
	<path class="st0" d="M230.3,276.5c0.1-5.7,1.2-11.2,2.3-16.7c2.4-11.4,6.6-22.1,11.9-32.5c2.4-4.6,4.6-9.3,6.9-14
		c0.4-0.8,0.7-1.1,1.7-0.7c2.5,1.2,4.7,2.7,6.2,5.1c0.5,0.9,0.5,1.5,0,2.5c-9.7,16.5-17.6,33.8-22.6,52.3c-0.7,2.4-1.1,4.8-2.6,6.9
		c-0.5,0.6-0.9,1.3-1.6,1.8c-0.9,0.7-1.6,0.5-2-0.6c-0.1-0.3-0.2-0.6-0.2-0.9C230.3,278.7,230.3,277.6,230.3,276.5z"/>
	<path class="st0" d="M198.6,249.9c-0.1,2.8-0.8,5.6-1.7,8.3c-1.7,5.3-3.9,10.3-6.5,15.2c-0.7,1.3-1.5,2.6-2.4,3.8
		c-0.4,0.5-0.9,1-1.5,1.4c-1.1,0.6-1.8,0.5-2.5-0.5c-0.6-0.8-0.8-1.8-0.8-2.8c0-2.9,0.8-5.8,1.4-8.6c1.5-6,3.7-11.8,6-17.5
		c0.4-1.1,1-2.2,1.7-3.1c0.7-0.9,1.5-1.8,2.8-1.6c1.4,0.2,2.5,0.9,3.1,2.4C198.6,247.8,198.6,248.8,198.6,249.9z"/>
	<path class="st0" d="M311.3,214.2c0-0.2,0-0.5,0-0.7c0.2-2.3,1.2-3.5,3-3.7c2-0.2,4,1.1,4.6,3c0.3,1,0.4,1.9,0.3,2.9
		c-0.4,2.7-1.2,5.2-2.4,7.6c-0.5,0.9-0.7,1-1.5,0.4c-0.6-0.4-1.1-1-1.5-1.6C312.1,219.7,311.3,217,311.3,214.2z"/>
	<path class="st0" d="M156.8,95.9c5,1,9.8,2.7,13.8,6.1c5.2,4.5,6.7,10.2,5.5,16.8c-0.2,0.9-0.5,1.4-1.6,1.6
		c-5,1.2-9.7,3.4-14.3,5.6c-4.1,1.9-8.1,4-12.1,6c-0.6,0.3-1.1,0.7-2,0.8c0.5-1.1,0.9-2,1.3-2.9c2.6-5.7,5.2-11.5,7.4-17.4
		c0.3-0.8,0.6-1.6,0.8-2.5c0.7-2.8-0.2-4.9-2.9-6.1c-0.4-0.2-0.8-0.3-1.2-0.5c4.4-1.3,11.6-1.6,19.2,1.4c-0.8-1.3-2-2.1-3.1-2.9
		c-2.8-1.9-5.9-3.3-9.1-4.7c-0.7-0.3-1.5-0.6-2.2-0.9C156.5,96.2,156.6,96.1,156.8,95.9z"/>
	<path class="st0" d="M275.5,133.6c-0.3-0.4,0-0.7,0.2-0.9c5.6-11,11.4-22,17.9-32.5c1.5-2.4,3-4.7,4.8-6.8c0.5-0.6,1.1-1.2,1.7-1.7
		c1-0.8,1.7-0.5,2,0.8c0.3,1.7,0.2,3.4-0.1,5c-1.8,11.2-5.4,21.7-11.1,31.5c-1.8,3.1-3.9,5.9-6.5,8.3c-1.4,1.3-2.9,2.4-4.5,3.2
		c-0.6,0.3-1.1,0.3-1.6-0.3c-1.1-1.5-1.5-3-0.7-4.7c0.2-0.3,0.3-0.7,0.5-1c0.2-0.3,0.3-0.7,0.1-1.1c-0.3-0.4-0.8-0.3-1.2-0.2
		C276.5,133.3,276,133.4,275.5,133.6z"/>
	<path class="st0" d="M130,167.4c-0.6,0.7-1.2,0.9-1.9,1.1c-2.1,0.6-4.2,1-6.4,1.1c-1.9,0.1-2.9-0.8-3-2.7c-0.2-2.8,0.7-5.4,2.5-7.5
		c0.7-0.9,1.3-0.8,1.6,0.2c0.9,2.7,2.8,4.4,4.9,6.2C128.4,166.3,129.2,166.8,130,167.4z"/>
	<path class="st0" d="M217.2,115.1c-1.3-0.2-2-0.9-2.6-1.8c-1.6-2.3-2.3-4.9-2.2-7.7c0.1-1.2,0.3-2.5,1.7-3c1-0.3,2.6,0.6,3.3,1.9
		c0.5,0.9,0.8,1.9,0.8,3C218.4,110.1,218,112.6,217.2,115.1z"/>
	<path class="st1" d="M156.8,95.9c-0.2,0.2-0.3,0.3-0.5,0.4c-0.7-0.2-1.3-0.4-2-1C155.2,95.6,156,95.8,156.8,95.9z"/>
	<path class="st0" d="M114.9,265.4c-0.3-0.8,0.1-1.4,0.2-2c2.2-8.9,4.4-17.8,7.9-26.3c1.3-3.2,2.7-6.4,3.5-9.8
		c0.6-2.4,0.9-4.7,0.6-7.2c-0.3-3-1.5-5.6-3.7-7.7c-0.5-0.5-1-0.9-1.7-1.5c3.2-0.6,6.1-0.3,9,0.5c7.4,2,11.4,7.2,13,14.5
		c1.3,6.3,0.2,12.2-2.8,17.8c-3.9,7.3-9.7,12.8-16.7,17.1C121.4,262.6,118.3,264.2,114.9,265.4z"/>
	<path class="st0" d="M99.3,259.6c-2.4-1.8-4.3-3.7-6-5.7c-3-3.5-5.4-7.3-6.4-11.8c-1.8-8,0.3-14.8,6.3-20.5
		c4.3-4.1,9.6-6.7,15.2-8.6c0.9-0.3,1.9-0.5,3.2-0.9c-1.2,5.4-2.7,10.5-4,15.7c-1.3,5.3-2.7,10.5-4.1,15.8
		C102.1,248.9,100.8,254.1,99.3,259.6z"/>
	<path class="st0" d="M381.5,114.4c-0.2-0.1-0.2-0.3-0.1-0.4c0.1-0.1,0-0.4,0.2-0.3c0,0,0.1,0.3,0,0.5
		C381.6,114.2,381.5,114.3,381.5,114.4C381.5,114.4,381.5,114.4,381.5,114.4z"/>
	<path class="st0" d="M391.9,115.2c0,0.2-0.2,0.6-0.3,0.5c-0.3-0.2-0.2-0.5,0.1-0.7C391.8,115.1,391.9,115.1,391.9,115.2z"/>
</g>
</svg>
