<svg xmlns="http://www.w3.org/2000/svg" width="618.17" height="380.67" viewBox="0 0 618.17 380.67">
  <defs>
    <style>
      .cls-1 {
        isolation: isolate;
      }

      .cls-2 {
        fill: #eaf6f9;
      }

      .cls-3 {
        fill: #5a899b;
      }

      .cls-4 {
        fill: #6daabf;
      }

      .cls-5 {
        fill: #96cdd6;
      }

      .cls-6 {
        fill: #5d8c9b;
      }

      .cls-7 {
        fill: #bc5c6c;
      }

      .cls-8 {
        fill: #578a9e;
        opacity: 0.3;
        mix-blend-mode: multiply;
      }

      .cls-9 {
        fill: #7abacc;
      }

      .cls-10 {
        opacity: 0.9;
      }

      .cls-11 {
        fill: #fff;
      }

      .cls-12 {
        opacity: 0.5;
      }

      .cls-13 {
        fill: #303b3f;
      }

      .cls-14 {
        fill: #be1432;
      }

      .cls-15 {
        fill: #455b60;
      }

      .cls-16, .cls-19 {
        opacity: 0.11;
      }

      .cls-17 {
        opacity: 0.97;
      }

      .cls-18 {
        fill: #e51727;
      }

      .cls-19 {
        fill: #142a30;
      }
    </style>
  </defs>
  <title>dolphin_duke_cloud</title>
  <g class="cls-1">
    <g id="Ebene_10" data-name="Ebene 10">
      <g>
        <path class="cls-2" d="M34.17,209.5s-18.8-.58-13.67-11.33c7-14.67,32.33-7,32.33-7s0-4,6-5.34,9.34.67,9.34.67-14.83-22.17,2.33-39.33c21.33-21.34,38.33-7,38.33-7s1.34-10,13.67-12.34,16.67,10,16.67,10l82,33.67s7-6.33,15-5.67,12.33,8.34,12.33,8.34,9.67-5.34,18.33-1.34,9.67,14,9.67,14,6.33-21.33,25.33-24,25.34,5,25.34,5,5.33-10.66,18-9,16.33,10,16.33,10l99-15.66s7.67-12,16.67-10.34,12,14.67,12,14.67,20-6.67,36.66,7,9.34,28,9.34,28a41.82,41.82,0,0,1,37.66,6.33c18.34,13.67,11.67,31.34,11.67,31.34s15.33,3.33,13.33,14.33-20.33,8.67-20.33,8.67,5.33,12.66-4.33,15.33-16-1.33-16-1.33,9.33,40.33-23,56-69.34-1-69.34-1-8.49,26.29-41,31.66c-38.33,6.34-58.33-22.66-58.33-22.66s-6.71,30.27-46.33,32.33c-32,1.67-42.34-18.67-42.34-18.67s-11.63,9.79-36.33,5.67c-28-4.67-32-24.33-32-24.33s-34.33,37.33-83,18.66c-44-16.87-36.67-49.66-36.67-49.66s-9.1,8-21.66.66c-10.34-6-1-17.33-1-17.33s-40.1,4.09-50-29.67C7.17,218.17,34.17,209.5,34.17,209.5Z"/>
        <path class="cls-3" d="M33.76,209.56c0,.15.27.4.38.35h-.22l-.23,0-.46.05-.93,0c-.61,0-1.23,0-1.84,0a23.28,23.28,0,0,1-3.7-.48,12.48,12.48,0,0,1-7-3.67,6.54,6.54,0,0,1-1.6-4.15,9.4,9.4,0,0,1,1-4.09,15.35,15.35,0,0,1,5-6,19.46,19.46,0,0,1,7-3,31.68,31.68,0,0,1,7.43-.71,45.72,45.72,0,0,1,7.31.72,47.83,47.83,0,0,1,7.11,1.73h0l-1.07.8a6.05,6.05,0,0,1,2.56-4.51,11.53,11.53,0,0,1,4.53-1.93,18.56,18.56,0,0,1,4.78-.45,14.68,14.68,0,0,1,2.44.31,9.61,9.61,0,0,1,2.48.85h0l-1.65,1.73a41.55,41.55,0,0,1-4.54-10A35.12,35.12,0,0,1,61,166.24a27.76,27.76,0,0,1,2.31-10.87,30.26,30.26,0,0,1,6.32-9.12,49.29,49.29,0,0,1,8.48-6.92,33.36,33.36,0,0,1,10.14-4.4,25.92,25.92,0,0,1,16.49,1.42,22.3,22.3,0,0,1,4.9,2.88h0l-2,.77a13.6,13.6,0,0,1,.91-2.68,16.27,16.27,0,0,1,1.31-2.39,17,17,0,0,1,3.64-4,20.51,20.51,0,0,1,9.72-4,15.47,15.47,0,0,1,5.34.12,14.41,14.41,0,0,1,5,2.06,17.1,17.1,0,0,1,3.94,3.65,20.38,20.38,0,0,1,2.86,4.62h0l-.69-.73,81.7,34.4h0l-.45.08a27,27,0,0,1,6.79-4.43,18.51,18.51,0,0,1,8-1.77,15,15,0,0,1,8,2.58,19.74,19.74,0,0,1,3.23,2.68,20,20,0,0,1,2.67,3.32h0l-1.66-.47a26.6,26.6,0,0,1,4.48-1.81,27.67,27.67,0,0,1,4.7-1,19.28,19.28,0,0,1,9.63,1.18,16.93,16.93,0,0,1,7.53,6.18,21.31,21.31,0,0,1,2.23,4.32,21.64,21.64,0,0,1,1.22,4.75h0l-2.35-.22a46.56,46.56,0,0,1,3.51-7.36,44,44,0,0,1,4.67-6.6,30.83,30.83,0,0,1,13.15-9.28,28.27,28.27,0,0,1,3.95-1c1.34-.28,2.66-.35,4-.53s2.67-.19,4-.26,2.69,0,4,.09a33,33,0,0,1,8,1.44,23,23,0,0,1,3.82,1.59c.61.34,1.21.7,1.8,1.11a10,10,0,0,1,1.71,1.45h0l-1.86.21a19.63,19.63,0,0,1,7.7-7.67,18.43,18.43,0,0,1,10.64-2.07,26.81,26.81,0,0,1,10.3,3.06,21,21,0,0,1,4.41,3.22,18,18,0,0,1,1.86,2,13.94,13.94,0,0,1,1.54,2.42h0l-1.31-.72,99-15.67-.84.56a33.58,33.58,0,0,1,3.27-4.15,28.87,28.87,0,0,1,3.91-3.57,18.33,18.33,0,0,1,4.76-2.62,11.55,11.55,0,0,1,5.58-.6,11.8,11.8,0,0,1,5.18,2.13,16.77,16.77,0,0,1,3.82,3.89,29.36,29.36,0,0,1,4.37,9.63l-1.58-.88a41.29,41.29,0,0,1,9-1.58,45.65,45.65,0,0,1,9.05.27,39.08,39.08,0,0,1,16.89,6.36,41.91,41.91,0,0,1,6.91,5.91,29.5,29.5,0,0,1,5.18,7.56,22.91,22.91,0,0,1,2.19,9,21.93,21.93,0,0,1-.33,4.65,17.88,17.88,0,0,1-1.39,4.55h0l-1.53-1.71a39.15,39.15,0,0,1,9.55-2.07,42.81,42.81,0,0,1,9.73.18,42.27,42.27,0,0,1,18.15,6.89,40.32,40.32,0,0,1,7.45,6.38,30.39,30.39,0,0,1,5.39,8.33,25.88,25.88,0,0,1,.65,19.54h0l-.89-1.63a25.62,25.62,0,0,1,5.86,1.64,19.57,19.57,0,0,1,5.37,3.25,12.15,12.15,0,0,1,3.77,5.64,10.66,10.66,0,0,1,.47,3.49,12.09,12.09,0,0,1-.53,3.45,11,11,0,0,1-4.18,5.73,16.2,16.2,0,0,1-6,2.65,24.72,24.72,0,0,1-12.14-.43h0l1.28-1.7a18.4,18.4,0,0,1,1.81,4.33,15.38,15.38,0,0,1,.57,4.85,9.77,9.77,0,0,1-1.65,5.18,9.49,9.49,0,0,1-4.49,3.43c-.41.13-.87.3-1.25.39l-1.16.27a23.15,23.15,0,0,1-2.33.4,21.64,21.64,0,0,1-4.76,0,20.3,20.3,0,0,1-4.63-1,14.81,14.81,0,0,1-4.22-2.31h0l1.85-1.31a63.14,63.14,0,0,1,1.28,8.65,70.48,70.48,0,0,1,.17,8.72,56.27,56.27,0,0,1-3.35,17.2,42,42,0,0,1-9.45,15,45.62,45.62,0,0,1-14.74,9.85c-10.82,4.72-22.77,6.32-34.39,5.7a105.38,105.38,0,0,1-17.27-2.48c-2.84-.65-5.64-1.42-8.42-2.29s-5.47-1.84-8.26-3.05h0l3-1.34a31.84,31.84,0,0,1-1.54,3.77c-.56,1.18-1.18,2.34-1.84,3.47a49.33,49.33,0,0,1-4.46,6.45,53,53,0,0,1-11.52,10.56,59.42,59.42,0,0,1-29.3,9.56,60.35,60.35,0,0,1-30.18-5.45,62.68,62.68,0,0,1-13-8.19,57.73,57.73,0,0,1-10.59-11.14h0l2.21-.43a32.65,32.65,0,0,1-2.3,6.74,44.52,44.52,0,0,1-19,20.4,49.9,49.9,0,0,1-6.42,3,60.12,60.12,0,0,1-13.66,3.37,71.08,71.08,0,0,1-14,.47,52,52,0,0,1-13.81-2.73c-8.91-3.05-17.09-8.8-21.79-17.29h0l1.88.38a23.64,23.64,0,0,1-4.41,3,36.5,36.5,0,0,1-4.78,2.14,45.88,45.88,0,0,1-10.14,2.38c-1.72.21-3.45.32-5.18.39s-3.46,0-5.18-.1a69.43,69.43,0,0,1-10.23-1.37,49.73,49.73,0,0,1-9.95-3.13,39.84,39.84,0,0,1-9-5.34,34.06,34.06,0,0,1-7.19-7.68,30,30,0,0,1-2.57-4.6,22.48,22.48,0,0,1-1.65-5.09h0l2.1.59a65,65,0,0,1-7.25,6.95,83.79,83.79,0,0,1-8.08,5.93A82.38,82.38,0,0,1,176,348.66a72.85,72.85,0,0,1-40,1.95,83,83,0,0,1-9.69-2.88c-3.16-1.17-6.23-2.53-9.26-4a65.4,65.4,0,0,1-16.62-11.58,45,45,0,0,1-11.09-17,40.79,40.79,0,0,1-2.19-10,33.64,33.64,0,0,1,.52-10.23l2,1.19h0a13.71,13.71,0,0,1-2.36,1.84,16.81,16.81,0,0,1-2.59,1.36,18.31,18.31,0,0,1-5.72,1.4,19.41,19.41,0,0,1-5.89-.46,24.14,24.14,0,0,1-5.47-2.05,14.84,14.84,0,0,1-4.85-3.7,9.77,9.77,0,0,1-2.13-6.06,13.87,13.87,0,0,1,1.43-5.86,20.79,20.79,0,0,1,3.16-4.84l1.07,2h0a54.62,54.62,0,0,1-14.28,0,52.88,52.88,0,0,1-13.91-3.64,42,42,0,0,1-12.25-7.82,38.44,38.44,0,0,1-8.61-11.72,45,45,0,0,1-2.56-6.77c-.33-1.16-.59-2.33-.88-3.49s-.49-2.35-.6-3.56a33.19,33.19,0,0,1,1-14.38,27.69,27.69,0,0,1,7.66-12.1,33.25,33.25,0,0,1,5.7-4.27,32.32,32.32,0,0,1,3.14-1.64c.54-.24,1.08-.48,1.63-.69l.84-.3.42-.15.21-.07.11,0h0a.38.38,0,0,0-.13.08A.36.36,0,0,0,33.76,209.56Zm.82-.12a.54.54,0,0,1-.18.38.66.66,0,0,1-.18.1h0l-.1,0-.19.08-.39.17-.78.36c-.51.25-1,.51-1.52.79-1,.56-2,1.16-2.9,1.8a30.69,30.69,0,0,0-5.16,4.4,26.64,26.64,0,0,0-6.45,11.54,31.18,31.18,0,0,0-.36,13.19A44.41,44.41,0,0,0,20.5,255a35.92,35.92,0,0,0,8,10.41,40.89,40.89,0,0,0,11.2,6.94,59.2,59.2,0,0,0,12.86,3.73A76.25,76.25,0,0,0,66,277.28h2.42l-1.35,2c-1.82,2.73-3.3,6.09-3.13,9.05a6.37,6.37,0,0,0,1.54,3.88,11.59,11.59,0,0,0,3.77,2.67,19.8,19.8,0,0,0,9.47,2.19,18.94,18.94,0,0,0,4.81-.82,19.36,19.36,0,0,0,4.46-2h0l2.57-2.56L90,295.43a28.27,28.27,0,0,0-.25,4.64,41,41,0,0,0,.38,4.7,37.68,37.68,0,0,0,2.49,9.06A41,41,0,0,0,97.17,322a47.07,47.07,0,0,0,6.21,7,52.51,52.51,0,0,0,7.46,5.78,74.38,74.38,0,0,0,8.27,4.66,88.34,88.34,0,0,0,18,6.32,72.45,72.45,0,0,0,9.37,1.47,68.06,68.06,0,0,0,9.47.26,73.34,73.34,0,0,0,18.67-3.24,84.21,84.21,0,0,0,17.5-7.66,92,92,0,0,0,8.08-5.23,75.75,75.75,0,0,0,7.44-6.05l2.1-2v2.57h0a24.13,24.13,0,0,0,1.89,4.26,30.87,30.87,0,0,0,2.64,3.95,33.31,33.31,0,0,0,6.85,6.51,45.3,45.3,0,0,0,17.52,7.22,73,73,0,0,0,19.27,1.25,52.1,52.1,0,0,0,9.46-1.6,42.48,42.48,0,0,0,4.54-1.53,26.19,26.19,0,0,0,4.17-2.09l1.39-.88.5,1.27h0a21,21,0,0,0,1.85,2.58c.68.85,1.41,1.66,2.17,2.44a38,38,0,0,0,5,4.22,41.55,41.55,0,0,0,11.71,5.74c8.37,2.58,17.38,2.85,26.14,1.68a59.7,59.7,0,0,0,12.77-3.11,47.24,47.24,0,0,0,11.48-6.17,40.19,40.19,0,0,0,4.95-4.25,43.75,43.75,0,0,0,7.78-10.52c.51-1,1-2,1.4-3a26.57,26.57,0,0,0,1.12-3l.78-2.67,1.43,2.24h0A57.42,57.42,0,0,0,377,340.58a64.89,64.89,0,0,0,6.07,4.07,60.92,60.92,0,0,0,6.5,3.29,57.75,57.75,0,0,0,28.37,4.44c9.63-.9,19.13-3.74,27-9.18a49.15,49.15,0,0,0,10.54-9.61,49.71,49.71,0,0,0,4.14-5.84c.62-1,1.2-2.06,1.72-3.12a29.72,29.72,0,0,0,1.39-3.14l.85-2.33,2.16,1h0a81.35,81.35,0,0,0,7.79,2.78c2.67.82,5.37,1.52,8.09,2.14a100.32,100.32,0,0,0,16.51,2.39,72.83,72.83,0,0,0,32.51-5,41.71,41.71,0,0,0,13.66-8.75,39.68,39.68,0,0,0,8.92-13.53,54.36,54.36,0,0,0,3.57-16.12,66.62,66.62,0,0,0-.82-16.64l-.51-2.78,2.36,1.47h0a24.29,24.29,0,0,0,3.83.84,26,26,0,0,0,3.94.23,28.27,28.27,0,0,0,3.89-.36c.64-.14,1.29-.21,1.93-.39l1-.24c.32-.08.55-.17.82-.24a5.46,5.46,0,0,0,2.4-1.65,6.59,6.59,0,0,0,1.21-2.89,22.62,22.62,0,0,0-.42-7.79l-.45-2.3,1.74.61h0a68.11,68.11,0,0,0,10.68-1.68,14.51,14.51,0,0,0,4.43-1.93,6.79,6.79,0,0,0,2.56-3.31,8.26,8.26,0,0,0,.43-2.19,7.18,7.18,0,0,0-.18-2.18,8.46,8.46,0,0,0-2.28-3.95,23.91,23.91,0,0,0-9.06-5.34l-1.48-.53.59-1.11h0a27.13,27.13,0,0,0,.68-4.34,31.33,31.33,0,0,0,0-4.44,25.24,25.24,0,0,0-2.09-8.56,28,28,0,0,0-4.83-7.42,38.83,38.83,0,0,0-6.79-5.91,39.79,39.79,0,0,0-16.73-6.61,43.06,43.06,0,0,0-9.08-.38,38.68,38.68,0,0,0-8.91,1.58l-2.93.93,1.4-2.64h0a16.48,16.48,0,0,0,1.17-3.87,19.71,19.71,0,0,0,.29-4.13,20.68,20.68,0,0,0-2-8c-2.37-5.07-6.56-9.25-11.23-12.48a36.75,36.75,0,0,0-15.84-6,43.73,43.73,0,0,0-8.56-.25,39.92,39.92,0,0,0-8.38,1.45l-1.25.38-.33-1.26a26.91,26.91,0,0,0-4-8.75,11.27,11.27,0,0,0-7.36-5c-2.94-.45-6,.84-8.51,2.75a30.39,30.39,0,0,0-6.59,7.08l-.31.47-.53.08-99,15.67-.84.13-.47-.85h0a12.39,12.39,0,0,0-1.23-1.93,16.91,16.91,0,0,0-1.61-1.78,18.63,18.63,0,0,0-3.89-2.87,24.55,24.55,0,0,0-9.36-2.83,16.07,16.07,0,0,0-9.33,1.75,17.26,17.26,0,0,0-3.88,2.87,17.71,17.71,0,0,0-2.92,3.79l-.75,1.38-1.1-1.17h0a9.21,9.21,0,0,0-1.27-1.15,16.43,16.43,0,0,0-1.54-1,20.88,20.88,0,0,0-3.43-1.57,29.72,29.72,0,0,0-7.52-1.52c-1.29-.14-2.58-.13-3.88-.15s-2.6.06-3.9.19-2.61.24-3.86.49a25.34,25.34,0,0,0-10.52,4.48,31.57,31.57,0,0,0-5.58,5.32,38.77,38.77,0,0,0-7.16,13.57l-1.31,4.72-1-5h0a19.27,19.27,0,0,0-3.05-7.94,14.45,14.45,0,0,0-6.46-5.3,16.75,16.75,0,0,0-8.41-1,25.51,25.51,0,0,0-8.29,2.53l-1.06.54-.6-1h0a18.53,18.53,0,0,0-4.93-5.52,13.18,13.18,0,0,0-6.87-2.62,17.14,17.14,0,0,0-7.47,1.28,26,26,0,0,0-6.7,3.91l-.23.18-.23-.1h0L138.7,139l-.48-.19-.21-.54h0a15.72,15.72,0,0,0-5.47-7.67,12.22,12.22,0,0,0-9.13-2.13,20.2,20.2,0,0,0-4.73,1.29,15.92,15.92,0,0,0-4.14,2.53,13.74,13.74,0,0,0-3,3.69,13.92,13.92,0,0,0-1,2.17,9.71,9.71,0,0,0-.51,2.21l-.15,2L108,141.11h0a20.81,20.81,0,0,0-4.31-2.48,24.16,24.16,0,0,0-4.84-1.48,23.71,23.71,0,0,0-10.06.27,31.09,31.09,0,0,0-9.35,4.11,47.09,47.09,0,0,0-8.06,6.54,27.86,27.86,0,0,0-5.81,8.33,25.23,25.23,0,0,0-2.12,9.89A32.78,32.78,0,0,0,65,176.42a39.82,39.82,0,0,0,4.21,9.4l1.25,2-2.9-.27h0a7.63,7.63,0,0,0-1.77-.67,11.43,11.43,0,0,0-2-.34,16.3,16.3,0,0,0-4.23.22,9.34,9.34,0,0,0-3.82,1.41,4.83,4.83,0,0,0-1.36,1.34,3.83,3.83,0,0,0-.64,1.66l-.11,1.11-1-.31h0a57.56,57.56,0,0,0-13.93-1.55,32.14,32.14,0,0,0-6.82.84,17.5,17.5,0,0,0-6,2.68,12.74,12.74,0,0,0-4.07,4.93,6.66,6.66,0,0,0-.72,2.83,3.75,3.75,0,0,0,.92,2.42,12.91,12.91,0,0,0,5.47,3.12c1.08.38,2.19.69,3.33,1l1.71.43.86.22.44.1L34,209l.1,0,.06,0h0C34.28,209,34.6,209.29,34.58,209.44Z"/>
      </g>
    </g>
    <g id="Ebene_18" data-name="Ebene 18">
      <path class="cls-4" d="M299.5,109.5c-5.58-7.5-35.19-7.83-35.19-7.83s-2-12.83-5.26-19.74-6.25-9.86-17.44-16.77S190,61.54,185,62.86s-18.75,12.5-31.58,27.3-20.4,51-20.4,51-6.91,5.6-14.89,17.69-3.34,28.34-3.34,28.34,11.65-4.91,15.93-5.24,10.53,3.62,20.72,7.9S165,206.28,165,206.28s26.32-23.36,46.38-25.33S240,187.86,240,187.86s-2-7.9-2.3-10.2-2.63-6.25-3.95-8.23-3.95-8.55-3.95-8.55l3-5.92a86.9,86.9,0,0,0,25.33-1.64c13.49-3,23-7.9,26.65-10.86s7.23-9.54,6.9-11.18a7.87,7.87,0,0,0-2-3.29s-6.25,2-18.42,2-27.3-2.63-27.3-2.63l14.47-.33S304.45,116.14,299.5,109.5Z"/>
      <path class="cls-5" d="M246.42,120.25c-25-2.75-25.5-7.5-37.75-8s-23.2,22.83-26,40.5c-3.25,20.5,1.75,37.25,2.44,38.73,8.23-5.07,17.79-9.7,26.24-10.53,20.07-2,28.62,6.91,28.62,6.91s-2-7.9-2.3-10.2-2.63-6.25-3.95-8.23-3.95-8.55-3.95-8.55l3-5.92a86.9,86.9,0,0,0,25.33-1.64c13.49-3,23-7.9,26.65-10.86s7.23-9.54,6.9-11.18a7.87,7.87,0,0,0-2-3.29s-6.25,2-18.42,2-27.3-2.63-27.3-2.63l14.47-.33s37.31-8.8,41.16-15.4l-.05-2.1S271.08,123,246.42,120.25Z"/>
      <path class="cls-6" d="M251.67,128.25a40.91,40.91,0,0,0,13.75,2.25c7-.25,24.75-1.25,24.75-1.25s-1.75,2.5-7.25,4.5-9.5,3.5-13.75,4.25a84.38,84.38,0,0,1-8.5,1s-5.25-5-9-6.75-10.25-3.75-9.5-4S251.67,128.25,251.67,128.25Z"/>
      <path class="cls-7" d="M207.92,121.25a33.49,33.49,0,0,0,21,15.75c15,3.75,33,2.25,33,2.25s-9.25-7.75-13.5-9-9-2.5-9-2.5-11.25-2.25-19.5-3.75A98.25,98.25,0,0,1,207.92,121.25Z"/>
      <path class="cls-8" d="M290.17,135.5a67.69,67.69,0,0,1-33.25,14,346.1,346.1,0,0,1-36.5,3l5,4.5s-3.75,7-4.75,12.25,2,10.5,2,10.5,7,1,10,1.75a47.94,47.94,0,0,1,7.5,3s-4.25-11.75-5.75-14.25-5-7.25-5-7.25l2.5-7.5a124.27,124.27,0,0,0,30-3.25c15.25-3.75,19.58-7.58,22.79-9.79S290.17,135.5,290.17,135.5Z"/>
      <path class="cls-8" d="M185,62.86s9.63,5.64,13.38,6.39a83,83,0,0,0,10,1s8.5,9.25,20.75,12a45.57,45.57,0,0,0,22.5-.75,107.73,107.73,0,0,1,4.5,11.5,45.91,45.91,0,0,1,1.75,9.5h6s-.75-10.75-3.5-17.5-10.5-13.75-10.5-13.75-14,7.5-20.5,5.75-20-11.5-20-11.5Z"/>
      <path class="cls-8" d="M141.17,114s-2.5,7.75-4,13-4.25,17.75-4.25,17.75-4,14-5,21.5a82.09,82.09,0,0,0-.25,15.75l9,.25s-.75-24,.5-36.75S141.17,114,141.17,114Z"/>
      <path class="cls-9" d="M240.42,105s15-4.25,28.25-3.25,29.25,5.5,30.5,6.5.33,1.25.33,1.25a153.74,153.74,0,0,0-30.08-4.75A264.29,264.29,0,0,0,240.42,105Z"/>
      <path class="cls-9" d="M185,62.86S173.17,68,160.17,82s-18.75,32.75-18.75,32.75,14.5-24,26.5-34.75c9.31-8.34,19.5-16.25,19.5-16.25L184.17,63"/>
      <path class="cls-9" d="M133.06,141.14s-9.89,6.61-13.64,15.11-4.5,23.25-4.5,23.25,5-17,7.75-21.5,10.39-16.86,10.39-16.86"/>
    </g>
    <g id="Ebene_8" data-name="Ebene 8">
      <path d="M129.79,183.22a173.23,173.23,0,0,1,.68-30.47,157.14,157.14,0,0,1,6.1-29.92,122.78,122.78,0,0,1,5.49-14.29A144.49,144.49,0,0,1,149,94.9a86.36,86.36,0,0,1,19.47-23.69,66.22,66.22,0,0,1,27.65-13.36A87.32,87.32,0,0,1,211.4,55.8a63.29,63.29,0,0,1,15.46,1.12,49,49,0,0,1,14.59,5.47A57.7,57.7,0,0,1,253.7,72c.92.93,1.78,1.83,2.67,2.84a24.84,24.84,0,0,1,2.39,3.27,40.74,40.74,0,0,1,3.41,7.12,71.26,71.26,0,0,1,3.69,15.11l-3.38.38a68.18,68.18,0,0,0-3.4-14.34A37.6,37.6,0,0,0,256,79.78a22.85,22.85,0,0,0-2.06-2.86c-.77-.89-1.66-1.82-2.51-2.7a54.16,54.16,0,0,0-11.52-9.14,46,46,0,0,0-13.66-5.23c-9.62-2-19.81-1.32-29.5.72-2.43.54-4.81,1.22-7.17,2A59.74,59.74,0,0,0,176.21,69a67.46,67.46,0,0,0-6,4.36,84.58,84.58,0,0,0-18.86,23,141.43,141.43,0,0,0-6.85,13.37,133.68,133.68,0,0,0-5.46,14,148,148,0,0,0-3.9,14.52c-1,4.91-1.87,9.87-2.52,14.86s-1.06,10-1.31,15-.34,10.09-.1,15.08Z"/>
      <path d="M239.5,104.83a94,94,0,0,1,19.84-4.09,84.36,84.36,0,0,1,10.19-.37,86.17,86.17,0,0,1,10.16.91,88.68,88.68,0,0,1,10,2c1.65.45,3.3.91,4.93,1.51a24.17,24.17,0,0,1,2.44,1,11.1,11.1,0,0,1,2.39,1.52,3.64,3.64,0,0,1,1.06,1.5,2.59,2.59,0,0,1,.1,1.16,3.62,3.62,0,0,1-.27.91,8.67,8.67,0,0,1-1.74,2.37,27.73,27.73,0,0,1-4.13,3.29,67.24,67.24,0,0,1-9.05,4.92,84.79,84.79,0,0,1-9.59,3.65,87.18,87.18,0,0,1-9.94,2.53,96.34,96.34,0,0,1-20.41,1.66c-3.42-.07-6.83-.29-10.21-.68s-6.75-1-10.08-1.69-6.63-1.54-9.87-2.57a81.38,81.38,0,0,1-9.57-3.59l.79-1.83a124.57,124.57,0,0,0,39,6.66,109.06,109.06,0,0,0,19.67-1.73,99.76,99.76,0,0,0,19-5.17,53.89,53.89,0,0,0,8.83-4.32,25.14,25.14,0,0,0,3.82-2.85,6.53,6.53,0,0,0,1.31-1.61c.12-.27.12-.38.11-.37a1.47,1.47,0,0,0-.42-.51,14.13,14.13,0,0,0-4.07-2.07,39.32,39.32,0,0,0-4.72-1.36,94.78,94.78,0,0,0-9.79-1.65c-1.65-.2-3.3-.35-5-.49s-3.31-.25-4.95-.33c-3.3-.15-6.62-.16-9.94,0C252.85,103.34,246.18,104,239.5,104.83Z"/>
      <path d="M222.5,153.83a125.14,125.14,0,0,0,15.22.31,96.75,96.75,0,0,0,15-1.59,116.48,116.48,0,0,0,14.64-3.77,71.78,71.78,0,0,0,13.74-5.93,31.46,31.46,0,0,0,5.81-4.42,10.82,10.82,0,0,0,3.31-5.84,5.91,5.91,0,0,0,0-1.57c0-.26-.12-.5-.17-.75s-.07-.31-.08-.33v0a2.22,2.22,0,0,0-1.05-.32,12.22,12.22,0,0,0-1.74-.07c-2.44.06-5,.39-7.53.66a91.35,91.35,0,0,1-15.47.82,68.77,68.77,0,0,1-15.22-3l.36-1.2a72.3,72.3,0,0,0,15,2.29,57.64,57.64,0,0,0,7.53-.32c2.53-.23,5.05-.55,7.58-.89s5.06-.71,7.74-.83a13.46,13.46,0,0,1,2.09,0,4.25,4.25,0,0,1,2.5,1,2.65,2.65,0,0,1,.55.8,3.63,3.63,0,0,1,.19.6,10.56,10.56,0,0,1,.27,1.11,8.92,8.92,0,0,1,0,2.25,13.33,13.33,0,0,1-3.9,7.4,33.41,33.41,0,0,1-6.28,5,68.83,68.83,0,0,1-14.26,6.44,98.55,98.55,0,0,1-15.08,3.82c-2.56.43-5.14.75-7.73,1-1.29.12-2.59.16-3.89.24s-2.6,0-3.9,0A42.76,42.76,0,0,1,222.5,153.83Z"/>
      <path d="M232.6,156.65a22.53,22.53,0,0,0-1.24,3c-.36,1.07-.68,2.17-1,3.28s-.54,2.23-.78,3.35a16.73,16.73,0,0,0-.3,3.25,28.26,28.26,0,0,0,.84,6.62,41.09,41.09,0,0,0,2.06,6.39l-2.77,1.15a43.94,43.94,0,0,1-1.94-7,31.25,31.25,0,0,1-.6-7.25,19.29,19.29,0,0,1,.51-3.68c.29-1.15.59-2.29.94-3.42s.72-2.26,1.15-3.38a23.68,23.68,0,0,1,1.55-3.35Z"/>
      <path d="M207.89,120.79a28.14,28.14,0,0,0,3.2,4.27,35.33,35.33,0,0,0,3.89,3.75,38.63,38.63,0,0,0,9.2,5.59,40.58,40.58,0,0,0,10.39,2.87c3.61.44,7.3.78,11,1a100.32,100.32,0,0,0,21.91-.95,90.63,90.63,0,0,0,10.68-2.42c3.51-1,6.93-2.32,10.39-3.71a42.74,42.74,0,0,1-9.89,5.23,59.19,59.19,0,0,1-10.86,2.82,102.58,102.58,0,0,1-22.34,1.21c-3.74-.15-7.42-.54-11.15-1a42.92,42.92,0,0,1-10.92-3.08,37.83,37.83,0,0,1-9.61-6.05,32.77,32.77,0,0,1-7.29-8.74Z"/>
      <path d="M203.34,124.05a6.35,6.35,0,0,1-.2-3.12,6.86,6.86,0,0,1,1.27-3,7.32,7.32,0,0,1,2.5-2,5.7,5.7,0,0,1,3.08-.64c-.81.68-1.52,1.29-2.19,1.94a21.5,21.5,0,0,0-1.81,1.94,14.33,14.33,0,0,0-1.36,2.24C204.2,122.23,203.82,123.11,203.34,124.05Z"/>
      <path d="M134.33,140.56a49.19,49.19,0,0,0-13.11,14.59,39.82,39.82,0,0,0-2.77,5.92,47.69,47.69,0,0,0-2.78,12.8,56.33,56.33,0,0,0,.44,13.06l-2.56.47a58.66,58.66,0,0,1-.26-13.75,50.38,50.38,0,0,1,3.12-13.35,41.78,41.78,0,0,1,3-6.2,51.41,51.41,0,0,1,13.91-15Z"/>
      <path d="M236.83,127.5a24.06,24.06,0,0,1,7.23.4,25.17,25.17,0,0,1,6.93,2.42,37.33,37.33,0,0,1,5.93,4.22,27.09,27.09,0,0,1,4.91,5.29c-1.94-1.42-3.9-2.73-5.85-4.05-1-.63-2-1.3-3-1.91a34.42,34.42,0,0,0-3-1.79,39.47,39.47,0,0,0-6.37-2.68C241.45,128.67,239.18,128.06,236.83,127.5Z"/>
      <path d="M230.2,162.33c1.29,1.8,2.48,3.62,3.63,5.49a55.32,55.32,0,0,1,3.13,5.84,51.27,51.27,0,0,1,2.25,6.25c.62,2.11,1.16,4.23,1.61,6.4l-2,.38c-.4-2.08-.91-4.19-1.5-6.25a49.18,49.18,0,0,0-2.09-6,53.74,53.74,0,0,0-3-5.67c-1.1-1.84-2.27-3.67-3.49-5.41Z"/>
      <path class="cls-2" d="M261.5,193.5a8.83,8.83,0,0,0-5-8.67c-5.67-2.66-12,3-12,3s-14-15-48-4.66c-16.48,5-31,22-31,22a44.74,44.74,0,0,0-3.83-7.92,24.45,24.45,0,0,0-6.84-6.42s5.5-6.91-2.16-11.58-11.5,4.92-11.5,4.92-5.25-3.34-15.25-1.67a28.25,28.25,0,0,0-15.42,7.67s-2.67-8.34-11.67-9.67-13.66,9.33-13.66,9.33c-3.42,6.91,12,15.79,15.33,15.79s45.72,3.29,45.72,3.29,24.34,6.58,35.53,5.26,52.63-10.85,52.63-10.85S261.65,204.41,261.5,193.5Z"/>
      <path class="cls-3" d="M85.17,189.83a16.17,16.17,0,0,1,4.36-7.45,12.54,12.54,0,0,1,3.82-2.53,10.54,10.54,0,0,1,4.65-.77,14.1,14.1,0,0,1,12.83,11h0l-.58-.12a18.11,18.11,0,0,1,3-3,23.35,23.35,0,0,1,3.53-2.36,28.87,28.87,0,0,1,8-3,30.84,30.84,0,0,1,8.53-.78,22.78,22.78,0,0,1,4.32.59c.71.18,1.42.37,2.12.62a12.92,12.92,0,0,1,2.16,1l-2,.65a15.07,15.07,0,0,1,2.05-3.29,10.65,10.65,0,0,1,3-2.59,7.24,7.24,0,0,1,4-.91,8.73,8.73,0,0,1,3.77,1.25,11.57,11.57,0,0,1,3,2.41,7.43,7.43,0,0,1,1.74,3.54,8,8,0,0,1-.31,3.87,11,11,0,0,1-1.77,3.33h0l-.18-1a16.88,16.88,0,0,1,4.09,2.43,15.91,15.91,0,0,1,3.3,3.58,18.18,18.18,0,0,1,1.19,2.08c.36.69.68,1.41,1,2.14a24.59,24.59,0,0,1,1.37,4.47h0l-1.14-.21a87.54,87.54,0,0,1,16.35-15.29,60.52,60.52,0,0,1,9.78-5.68,46.52,46.52,0,0,1,5.34-2l2.71-.78,2.73-.68a66.18,66.18,0,0,1,22.45-1.74,43.52,43.52,0,0,1,11.06,2.64,35.28,35.28,0,0,1,5.13,2.51,22.39,22.39,0,0,1,4.6,3.55l-1.22,0h0a13.92,13.92,0,0,1,5.15-3.73,10.81,10.81,0,0,1,3.24-.84,8.87,8.87,0,0,1,3.5.33,9.32,9.32,0,0,1,3,1.65,8.45,8.45,0,0,1,2.16,2.64,8,8,0,0,1,.49,6.27,11.41,11.41,0,0,0-2.39-5,8.18,8.18,0,0,0-1.92-1.61,8.57,8.57,0,0,0-2.23-1,7.77,7.77,0,0,0-2.37-.19,8.86,8.86,0,0,0-1.24.19,11.8,11.8,0,0,0-1.27.32,26.21,26.21,0,0,0-5,2.28h0l-.56.55-.66-.61a22.88,22.88,0,0,0-4.33-3,34.61,34.61,0,0,0-4.91-2.15,43.4,43.4,0,0,0-10.53-2.21A67.94,67.94,0,0,0,202.54,183l-2.65.67-2.63.74a42.36,42.36,0,0,0-5,1.83,60.55,60.55,0,0,0-9.46,5.27,89.69,89.69,0,0,0-8.72,6.62,107.17,107.17,0,0,0-8,7.49l-.76.8-.38-1h0l-2.2-3.92c-.74-1.28-1.49-2.57-2.28-3.74a47.61,47.61,0,0,0-5.92-6.3l-.62-.61.44-.42h0a7.89,7.89,0,0,0,1.48-6,7.22,7.22,0,0,0-4-4.49,5.38,5.38,0,0,0-5.59-.06,10.42,10.42,0,0,0-3.71,4.82l-.62,1.49-1.4-.84a10.63,10.63,0,0,0-1.61-.74A18.51,18.51,0,0,0,137,184a23.6,23.6,0,0,0-3.85-.63,32,32,0,0,0-7.93.38,29.81,29.81,0,0,0-7.62,2.37,30.93,30.93,0,0,0-6.84,4.26l-.46.39-.12-.52h0a18.4,18.4,0,0,0-5.24-6,14.37,14.37,0,0,0-7.09-2.59,10.7,10.7,0,0,0-7,2.22A27.2,27.2,0,0,0,85.17,189.83Z"/>
      <g>
        <path class="cls-2" d="M267.5,208.83s5.67-12.66,18-13,17.67,8,17.67,8,5-19.66,19.33-22,19.67,4.34,19.67,4.34"/>
        <path class="cls-3" d="M267.5,208.83a23.06,23.06,0,0,1,6.08-9.18,19.2,19.2,0,0,1,4.7-3.19,8,8,0,0,1,1.32-.56c.45-.17.91-.34,1.36-.49l1.41-.32.71-.16.72-.07A22.7,22.7,0,0,1,295,196.35a20.16,20.16,0,0,1,4.91,2.88,17.26,17.26,0,0,1,3.85,4.22l-1.29.21h0a43.91,43.91,0,0,1,5.23-12.07,25.06,25.06,0,0,1,9.59-9.24,18.44,18.44,0,0,1,3.21-1.26c.55-.18,1.12-.26,1.68-.4l1.65-.25a32.52,32.52,0,0,1,6.7-.31,24,24,0,0,1,6.7,1.3,18.69,18.69,0,0,1,3.18,1.48,17.47,17.47,0,0,1,1.48,1,10,10,0,0,1,1.44,1.32L341,187.1a9.17,9.17,0,0,0-.93-.88c-.37-.3-.76-.57-1.17-.84a16.27,16.27,0,0,0-2.64-1.32,20.64,20.64,0,0,0-5.92-1.33,30.63,30.63,0,0,0-6.2.1,16.84,16.84,0,0,0-5.87,1.51,23,23,0,0,0-9,8.24A42.68,42.68,0,0,0,303.86,204h0l-.28,1.44-1-1.23a18.17,18.17,0,0,0-3.8-3.45,21.14,21.14,0,0,0-4.57-2.38,23,23,0,0,0-10.14-1.3,18.62,18.62,0,0,0-9.37,3.89A32,32,0,0,0,267.5,208.83Z"/>
      </g>
      <g>
        <path class="cls-2" d="M181.83,232.17s8.67-7.67,15.67-5.34a20.25,20.25,0,0,1,10.33,8s8.34-18,25.34-17.66,24.33,15,24.33,15"/>
        <path class="cls-3" d="M181.83,232.17a19.8,19.8,0,0,1,5.95-5.07,13.65,13.65,0,0,1,7.93-1.88,10.43,10.43,0,0,1,2.13.42c.64.26,1.28.48,1.88.79a17.88,17.88,0,0,1,8.38,8.24h0l-.55,0a35,35,0,0,1,9.26-12.87,28.88,28.88,0,0,1,6.93-4.31c.63-.28,1.3-.45,1.95-.68a10.78,10.78,0,0,1,2-.55l2-.39c.68-.09,1.38-.1,2.07-.15a26.7,26.7,0,0,1,15.67,4.13,25.76,25.76,0,0,1,6,5.4,22.8,22.8,0,0,1,4,6.89,38.87,38.87,0,0,0-11.44-9.93,30.64,30.64,0,0,0-6.85-2.74,13.71,13.71,0,0,0-1.8-.38,14,14,0,0,0-1.82-.28,22.73,22.73,0,0,0-3.68-.13c-.61,0-1.22,0-1.83.08l-1.8.3a8.4,8.4,0,0,0-1.78.43c-.58.19-1.18.31-1.75.55a27.44,27.44,0,0,0-6.49,3.57A41.23,41.23,0,0,0,208.12,235l-.29.47-.27-.44h0a25.78,25.78,0,0,0-5.62-4.74,20.55,20.55,0,0,0-3.2-1.64c-.54-.25-1.12-.41-1.67-.61a9.6,9.6,0,0,0-1.6-.3,16.18,16.18,0,0,0-6.81,1.27A65.35,65.35,0,0,0,181.83,232.17Z"/>
      </g>
      <g>
        <path class="cls-2" d="M470.5,204.5s15.33-7.67,26,1.33,9.33,15.67,9.33,15.67,10.34-9.33,18.67-3.67,6.33,12.67,6.33,12.67"/>
        <path class="cls-3" d="M470.05,203.61a30.35,30.35,0,0,1,11.46-3.71,21.81,21.81,0,0,1,12.21,2l1.41.76a12.79,12.79,0,0,1,1.31.91l1.27.95,1.11,1a33.44,33.44,0,0,1,4.09,4.47,22.32,22.32,0,0,1,3.08,5.35,15.82,15.82,0,0,1,.84,3.05A12,12,0,0,1,507,220a7.4,7.4,0,0,1-.17,1.74h0l-1.65-.94a24.11,24.11,0,0,1,7.86-4.85,16.5,16.5,0,0,1,4.64-1,11.4,11.4,0,0,1,4.79.72,7.4,7.4,0,0,1,1.12.48l1,.61a7,7,0,0,1,1,.68l.92.72a16.35,16.35,0,0,1,3,3.53,11.71,11.71,0,0,1,1.65,4.35,9.25,9.25,0,0,1,.08,2.29,7.2,7.2,0,0,1-.46,2.21,11.57,11.57,0,0,0-2.55-8,17.64,17.64,0,0,0-3-2.92,12,12,0,0,0-3.55-2,12.15,12.15,0,0,0-7.92.4,28.39,28.39,0,0,0-7.31,4.18L504.32,224l.53-2.67h0a6.7,6.7,0,0,0-.12-1.15,9.13,9.13,0,0,0-.31-1.25,15,15,0,0,0-1-2.43,23,23,0,0,0-3.08-4.43,37.72,37.72,0,0,0-3.92-3.87l-1-.92-1.06-.76a8.53,8.53,0,0,0-1.08-.73l-1.15-.61c-.19-.1-.37-.21-.57-.3l-.61-.24-1.21-.47c-.42-.13-.85-.22-1.28-.33a10.78,10.78,0,0,0-1.28-.28,25.13,25.13,0,0,0-5.36-.33A38.92,38.92,0,0,0,471,205.39Z"/>
      </g>
      <g>
        <path class="cls-2" d="M468.17,168.5s4-5,9.66-6.67"/>
        <path class="cls-3" d="M467,167.56a15.79,15.79,0,0,1,2.35-2.16,20.27,20.27,0,0,1,2.61-1.72,14,14,0,0,1,5.87-1.85,26,26,0,0,0-2.48,1.65,28.17,28.17,0,0,0-2.23,1.83c-.71.63-1.36,1.33-2,2s-1.26,1.44-1.77,2.11Z"/>
      </g>
      <g>
        <path class="cls-2" d="M390.5,264.5s4.33-13.67,15-14.67,15.67,1,15.67,1-1.67-11,4.33-17"/>
        <path class="cls-3" d="M390.5,264.5a24.75,24.75,0,0,1,3.78-8.85,16.86,16.86,0,0,1,7.72-6.33l1.23-.44,1.28-.26a23,23,0,0,1,2.46-.34c1.61-.14,3.23-.22,4.86-.22a38.27,38.27,0,0,1,4.89.27c.82.1,1.64.23,2.46.4a14.86,14.86,0,0,1,2.54.71h0l-2,1.62a30,30,0,0,1-.2-4.8,29.56,29.56,0,0,1,.55-4.75,22.47,22.47,0,0,1,1.54-4.63,16.27,16.27,0,0,1,2.87-4.11l2.12,2.12a13.33,13.33,0,0,0-2.28,3.29,18.32,18.32,0,0,0-1.31,3.95,25.84,25.84,0,0,0-.49,4.24,27,27,0,0,0,.17,4.24l.29,2.26-2.33-.64h0a18.5,18.5,0,0,0-2-.5c-.72-.15-1.47-.26-2.22-.35-1.5-.16-3-.29-4.56-.32s-3.07,0-4.62.07a19.11,19.11,0,0,0-2.24.19l-1.05.14-1,.31a16.29,16.29,0,0,0-7.17,5A37.6,37.6,0,0,0,390.5,264.5Z"/>
      </g>
      <path class="cls-5" d="M186.42,184a59.13,59.13,0,0,1,9.25,13.5c3.75,7.75,4,21.5,6.5,21.75s8.25-11.5,8.75-17-1-18-2.75-22.25-3.25-7.25-3.25-7.25Z"/>
      <path class="cls-8" d="M203.42,169.5a34,34,0,0,1,4.5,4.5c1.75,2.25,4,6,4,6l-3.25.75s3,11.5,2.25,19.5-4.25,17-5.75,18-3.75-.5-3.75-.5,6-9.75,6.25-20C207.84,190.75,203.42,169.5,203.42,169.5Z"/>
      <path d="M184.17,183.17a24.35,24.35,0,0,1,9.09,8.24,43.75,43.75,0,0,1,5.75,11A81.24,81.24,0,0,1,202,214.31c.19,1,.4,1.93.66,2.81a5.29,5.29,0,0,0,.42,1.08c.06.13.13.16,0,.09a.77.77,0,0,0-.46-.07l.14-.08L203,218a1.92,1.92,0,0,0,.49-.33,6.24,6.24,0,0,0,.93-.86,7.9,7.9,0,0,0,.85-1,10.48,10.48,0,0,0,.75-1.16,29.81,29.81,0,0,0,3.33-11,53.05,53.05,0,0,0,.15-11.82c-.67-7.9-3.18-15.54-6.32-23a49.94,49.94,0,0,1,5.48,10.84,51.19,51.19,0,0,1,2.8,11.92,56,56,0,0,1,.19,12.28,32.37,32.37,0,0,1-3.32,12,12.75,12.75,0,0,1-.85,1.4,9.88,9.88,0,0,1-1,1.33,8.48,8.48,0,0,1-.58.63l-.68.57a3.7,3.7,0,0,1-.75.52l-.4.24a2,2,0,0,1-.53.25,2.38,2.38,0,0,1-.93.13,2.27,2.27,0,0,1-1-.32,2.93,2.93,0,0,1-1-1,8.34,8.34,0,0,1-.72-1.7c-.31-1.06-.53-2.06-.74-3.06a102.37,102.37,0,0,0-2.84-11.54,41.2,41.2,0,0,0-5.26-10.4C188.8,189.73,186.42,186.66,184.17,183.17Z"/>
    </g>
    <g id="Ebene_13" data-name="Ebene 13">
      <g class="cls-10">
        <path class="cls-11" d="M214,99.67c-.09,3.51-3,5.2-6.53,5.32-4.31.15-6.46-2.64-6.33-5.54a6.9,6.9,0,0,1,6.45-6.31A6,6,0,0,1,214,99.67Z"/>
      </g>
      <g class="cls-10">
        <path class="cls-11" d="M259.53,91.12c.65,2.51.41,5.39-3.35,6.48a5.06,5.06,0,0,1-6.51-3.83,5.57,5.57,0,0,1,5.24-6.54C257.12,87.13,258.83,88.44,259.53,91.12Z"/>
      </g>
      <ellipse cx="209.11" cy="99.54" rx="3.24" ry="4.46" transform="translate(-8.06 19.08) rotate(-5.13)"/>
      <ellipse cx="255.69" cy="92.95" rx="2.75" ry="3.98" transform="translate(-7.54 24.2) rotate(-5.34)"/>
      <path d="M200.85,99.59A6.72,6.72,0,0,1,202,95.22a7.11,7.11,0,0,1,3.78-2.81,6.87,6.87,0,0,1,4.73,0A4.78,4.78,0,0,1,213.35,96a6,6,0,0,0-3.29-2.34,7.39,7.39,0,0,0-3.86.24,7.32,7.32,0,0,0-3.33,2.07A9.5,9.5,0,0,0,200.85,99.59Z"/>
      <path d="M249.47,91.44a5.58,5.58,0,0,1,1.46-3.5,5.31,5.31,0,0,1,3.63-1.71,4.87,4.87,0,0,1,3.81,1.31,4.72,4.72,0,0,1,1.35,3.57,6.68,6.68,0,0,0-2.07-2.73,4.67,4.67,0,0,0-3-.73,5.3,5.3,0,0,0-3,1.1A9.11,9.11,0,0,0,249.47,91.44Z"/>
      <g class="cls-12">
        <path d="M197.41,92A10,10,0,0,1,200,88.34,13,13,0,0,1,203.84,86a13.41,13.41,0,0,1,4.34-1,8.61,8.61,0,0,1,4.43.89l-.36.82a13.14,13.14,0,0,0-3.91,0,19.21,19.21,0,0,0-3.84,1A14.75,14.75,0,0,0,201,89.55a12.36,12.36,0,0,0-2.8,2.79Z"/>
      </g>
      <g class="cls-12">
        <path d="M248.47,81.7a8.62,8.62,0,0,1,2.75-1.32,9.29,9.29,0,0,1,3.06-.33,7.2,7.2,0,0,1,3.06.82A6.73,6.73,0,0,1,259.71,83l-1,.79a9.14,9.14,0,0,0-2.12-1.36,8,8,0,0,0-2.43-.66,11.49,11.49,0,0,0-2.62,0,12.53,12.53,0,0,0-2.58.66Z"/>
      </g>
      <path class="cls-11" d="M183.23,59,185,48.65s21.81-2.43,38.62,2.18c8.81,2.42,29.55,18.08,29.55,18.08l-11.23,5.61s-20.63-9.69-28.67-10.59C198.75,62.29,183.23,59,183.23,59Z"/>
      <path class="cls-13" d="M250.79,70.39l4.71,3.28s15-6.42,11.95-8.43C264.87,63.52,250.79,70.39,250.79,70.39Z"/>
      <path class="cls-14" d="M184.15,59.46a75,75,0,0,0,8.08,5.26,28,28,0,0,0,11,3s-2.85-21.92,1.15-26.91,8.39-6.19,12.47-7.65c6.3-2.25,15.62-3.11,15.62-3.11l-14.69-2.28s-3.92-4.25-6.68-2.89a17.54,17.54,0,0,0-5,4.24s-10.33-.75-18.75,9.59C181.33,46.06,184.15,59.46,184.15,59.46Z"/>
      <path class="cls-15" d="M208.32,67.44s14.05,11.66,23.41,11.71,15.11-6,20.54-8.85a71.44,71.44,0,0,1,14.21-5.69l-21.3-7.5a83.18,83.18,0,0,1-16.07,6.69A106.45,106.45,0,0,1,208.32,67.44Z"/>
      <path class="cls-11" d="M203.48,66.65s15,.4,26.32-3,14.44-6.38,14.44-6.38-2.76-19.56-7.06-22.71a67.08,67.08,0,0,0-6.25-4.23c1.78.05-19,1.42-25.82,9.12C199.39,45.85,203.48,66.65,203.48,66.65Z"/>
      <path d="M252.62,74A45.91,45.91,0,0,0,262,69.71a29,29,0,0,0,4.16-3,9.81,9.81,0,0,0,.85-.86,2.3,2.3,0,0,0,.48-.76s0,0,0,.1a.29.29,0,0,0,.12.13c.06,0-.17,0-.35,0a5.85,5.85,0,0,0-1.18,0,23.45,23.45,0,0,0-5,1.23,41.36,41.36,0,0,0-4.81,2A74.49,74.49,0,0,0,247.39,74a34.78,34.78,0,0,1-9.93,4.65,20.58,20.58,0,0,1-5.59.68,21.28,21.28,0,0,1-5.54-.85,45.14,45.14,0,0,1-10-4.27,68.91,68.91,0,0,1-9-6.07h0l.79.27a38.35,38.35,0,0,1-6.47-.36,58,58,0,0,1-6.29-1.14A47,47,0,0,1,189.18,65a31.2,31.2,0,0,1-5.86-2.94h0l-.57-.38v-.65a90.73,90.73,0,0,1,.69-11.54,37.5,37.5,0,0,1,3-11.35,12.67,12.67,0,0,1,1.71-2.62,23.39,23.39,0,0,1,2.21-2.06,26.56,26.56,0,0,1,5-3.23,27,27,0,0,1,5.55-2,22.82,22.82,0,0,1,5.93-.7h0l-1,.86a4.77,4.77,0,0,1,.61-2.14,5.53,5.53,0,0,1,1.42-1.66,7.69,7.69,0,0,1,3.83-1.49,6.41,6.41,0,0,1,4.17.8,5.81,5.81,0,0,1,1.6,1.48,5.72,5.72,0,0,1,.92,2h0l-1-.68A41.34,41.34,0,0,1,229,28a25.24,25.24,0,0,1,5.56,2.17,13.79,13.79,0,0,1,4.63,4.08A33.81,33.81,0,0,1,244.1,45a66.6,66.6,0,0,1,2.14,11.5h0l-1-1.29c3.86,1.3,7.71,2.6,11.55,4s7.6,3,11.34,4.61l-.65,1.61c-3.79-1.41-7.61-2.79-11.44-4s-7.76-2.32-11.65-3.44l-1-.27-.07-1h0a64.69,64.69,0,0,0-1.82-11,31.28,31.28,0,0,0-4.29-10,11.48,11.48,0,0,0-3.8-3.51,23.36,23.36,0,0,0-5-2.07,40.34,40.34,0,0,0-11-1.43H217l-.55-.68h0a5.84,5.84,0,0,0-.85-1.05,4.28,4.28,0,0,0-1.07-.76,4.56,4.56,0,0,0-2.6-.4,6.21,6.21,0,0,0-2.69.83,3.73,3.73,0,0,0-1.58,2l-.37,1-.62-.1h0a21.6,21.6,0,0,0-5.35.73,24.52,24.52,0,0,0-5.11,2,24.17,24.17,0,0,0-4.52,3A20.26,20.26,0,0,0,189.75,37a10.27,10.27,0,0,0-1.36,2.16,35.52,35.52,0,0,0-2.6,10.66A87.65,87.65,0,0,0,185.26,61l-.57-1h0a27.42,27.42,0,0,0,2.66,1.3c.92.41,1.86.78,2.81,1.12A52.37,52.37,0,0,0,196,64.15c2,.51,4,.89,6,1.23a50.74,50.74,0,0,0,6,.65h.49l.3.26h0a65.58,65.58,0,0,0,8.68,5.7A42.93,42.93,0,0,0,227,76a18.58,18.58,0,0,0,9.84.21A33,33,0,0,0,246.11,72c1.5-.9,3-1.88,4.55-2.78a48.81,48.81,0,0,1,4.88-2.38c1.67-.7,3.37-1.29,5.09-1.83A29.25,29.25,0,0,1,266,63.8a7.91,7.91,0,0,1,1.47,0l.39.05a1.5,1.5,0,0,1,.56.18,1.27,1.27,0,0,1,.56.6,1.38,1.38,0,0,1,.11.74,3.59,3.59,0,0,1-.76,1.57,10,10,0,0,1-.95,1.08,25,25,0,0,1-4.32,3.4,35,35,0,0,1-9.93,4.34Z"/>
      <path d="M207.92,66.2c3.23-.18,6.47-.52,9.68-.93a77,77,0,0,0,9.51-1.78c3.13-.82,6.22-1.81,9.26-2.91,1.51-.56,3-1.18,4.47-1.83A24.71,24.71,0,0,0,245,56.46l.59.58A18.54,18.54,0,0,1,241.45,60,41.84,41.84,0,0,1,237,62.08a82.59,82.59,0,0,1-9.38,3.14A72.75,72.75,0,0,1,217.82,67c-3.27.4-6.54.62-9.84.74Z"/>
      <path d="M202.37,66.75a100.23,100.23,0,0,1-1-14.48A39.13,39.13,0,0,1,202,45a13.15,13.15,0,0,1,1.23-3.57,15.15,15.15,0,0,1,2.25-3,18.32,18.32,0,0,1,6.23-4c2.26-.91,4.57-1.63,6.87-2.32a39,39,0,0,1,14.35-1.93l-.07.67a37.9,37.9,0,0,0-14,2.12c-2.28.73-4.56,1.49-6.73,2.41a17.22,17.22,0,0,0-5.79,3.81c-3.45,3.32-3.5,8.39-3.57,13.07a99.53,99.53,0,0,0,1.28,14.21Z"/>
      <g class="cls-16">
        <path d="M219.24,32.05a29,29,0,0,1,8.09,4.57A13.77,13.77,0,0,1,229,38.28a12.7,12.7,0,0,1,1.32,2,23.9,23.9,0,0,1,1.8,4.32,55.52,55.52,0,0,1,1.94,9.09,88.79,88.79,0,0,1,.79,9.24l-1.14,0a87.48,87.48,0,0,0-.61-9.14,54.49,54.49,0,0,0-1.75-9c-.88-2.89-2.08-5.78-4.44-7.7a28.15,28.15,0,0,0-7.83-4.61Z"/>
      </g>
    </g>
    <g id="Ebene_7" data-name="Ebene 7">
      <path d="M367.1,118.27c-2.7,3.19-5.37,6.18-8.23,9.1s-5.75,5.78-8.88,8.44a70.61,70.61,0,0,1-10.08,7.29,33.47,33.47,0,0,1-5.88,2.69,17.54,17.54,0,0,1-6.81,1,12.51,12.51,0,0,1-6.77-2.6,17,17,0,0,1-4.41-5.3,39.77,39.77,0,0,1-3.93-12.1,86.27,86.27,0,0,1-1.28-12.26c-.2-4.1-.19-8.11,0-12.31l6.21.62c-.27,1.84-.45,3.82-.58,5.75s-.22,3.89-.23,5.84A82,82,0,0,0,317,126a32.84,32.84,0,0,0,3.21,10.63,12.46,12.46,0,0,0,3.14,3.86,7.59,7.59,0,0,0,4.25,1.6,12.66,12.66,0,0,0,4.93-.81,26,26,0,0,0,4.93-2.38,55.7,55.7,0,0,0,9-7,114.12,114.12,0,0,0,15.27-17.6Z"/>
      <g>
        <path class="cls-11" d="M370.17,103.17c-8.42,20-20.34,43.66-30.67,68.33-10.74,25.64-14.33,63.67-2,66.67s44-24.06,56.67-23c24,2,42.33,36.23,60,36.66,13.66.34,17-50,14.66-74.33s-9-55.45-21.33-82.33c-17.33-37.67-46.66-78.67-52-78.67C389.17,16.5,389.5,57.17,370.17,103.17Z"/>
        <path d="M371,103.52c-5.07,12.15-10.63,24-15.91,36.07q-4,9-7.84,18l-3.79,9.07c-1.23,3-2.5,6.06-3.58,9.08a131.66,131.66,0,0,0-5.33,18.63,151.62,151.62,0,0,0-3,19.14,70.3,70.3,0,0,0-.16,9.62,28.18,28.18,0,0,0,1.82,9.18,9.17,9.17,0,0,0,2.45,3.54,5.62,5.62,0,0,0,3.81,1.28c3,0,6.06-1.1,9-2.31a147,147,0,0,0,17.25-9.14c5.68-3.29,11.31-6.72,17.42-9.54,3.09-1.34,6.24-2.72,10.1-2.88a17.71,17.71,0,0,1,2.73.21c.88.07,1.72.3,2.58.45s1.68.45,2.52.67,1.64.56,2.46.84c6.47,2.51,12,6.58,17.1,10.81s9.81,8.9,14.68,13.2a80.14,80.14,0,0,0,7.52,6,27.39,27.39,0,0,0,8.23,4.08c.35.11.71.15,1.07.23a5.73,5.73,0,0,0,1.08.15c.34,0,.74.07,1.05.07a3.74,3.74,0,0,0,.81-.1,5.82,5.82,0,0,0,3-2.14,26.11,26.11,0,0,0,4-8.18,104.21,104.21,0,0,0,3.68-18.91,244.35,244.35,0,0,0,1.1-38.91,286.23,286.23,0,0,0-5.6-38.61,257.33,257.33,0,0,0-11-37.49,295.37,295.37,0,0,0-16.91-35.32A387,387,0,0,0,412.68,37a164.67,164.67,0,0,0-12-15.49,30.23,30.23,0,0,0-3.45-3.35,7.09,7.09,0,0,0-.93-.65,1.92,1.92,0,0,0-.82-.32c-.42,0-.92.46-1.31,1.09a19.28,19.28,0,0,0-1.68,4.42c-.43,1.56-.8,3.15-1.15,4.75-1.35,6.4-2.53,12.87-3.81,19.31s-2.69,12.87-4.3,19.25A268.3,268.3,0,0,1,371,103.52Zm-1.69-.71a264.62,264.62,0,0,0,12.53-37.18c1.65-6.34,3.09-12.73,4.41-19.15s2.46-12.88,3.82-19.33c.35-1.61.72-3.22,1.16-4.82a20.26,20.26,0,0,1,1.82-4.76,4.82,4.82,0,0,1,.9-1.11,2.32,2.32,0,0,1,1.55-.63,3.23,3.23,0,0,1,1.48.49,8.8,8.8,0,0,1,1.1.74,32.52,32.52,0,0,1,3.67,3.45A167.42,167.42,0,0,1,414.08,36Q425.57,52,435.46,69.17a296.44,296.44,0,0,1,17.77,35.35,261.81,261.81,0,0,1,11.92,37.79c1.51,6.43,2.82,12.92,3.88,19.45s1.94,13.06,2.41,19.74a194.56,194.56,0,0,1,.24,19.91A196.91,196.91,0,0,1,470,221.23a106.59,106.59,0,0,1-4.3,19.59,29.57,29.57,0,0,1-4.79,9.33,12.23,12.23,0,0,1-2.12,2,8.06,8.06,0,0,1-2.88,1.31,7.47,7.47,0,0,1-1.63.18c-.51,0-.93-.07-1.4-.11a8.57,8.57,0,0,1-1.36-.19c-.44-.1-.9-.16-1.33-.28a30.83,30.83,0,0,1-9.37-4.57,93.19,93.19,0,0,1-7.93-6.17c-5-4.32-9.8-8.82-14.79-12.94s-10.21-7.9-16-10.29c-.73-.27-1.45-.56-2.19-.8s-1.47-.47-2.22-.63-1.5-.37-2.26-.44a14.8,14.8,0,0,0-2.17-.21c-2.74.05-5.84,1.14-8.76,2.34-5.9,2.5-11.62,5.73-17.38,8.88-2.88,1.58-5.77,3.16-8.71,4.67s-5.9,3-9,4.28-6.34,2.4-10,2.4a7.18,7.18,0,0,1-1.38-.1,7.85,7.85,0,0,1-2.74-.88l-.63-.36c-.2-.14-.38-.3-.56-.45a12.33,12.33,0,0,1-3.23-4.39,33.6,33.6,0,0,1-2.46-9.95,72.07,72.07,0,0,1-.38-10.06,119.12,119.12,0,0,1,8.17-39c5.09-12.28,10.86-24,16.53-35.89S364.17,114.86,369.32,102.81Z"/>
      </g>
      <path class="cls-17" d="M364.17,116.5s8.32-1.52,40,.33c37,2.17,55,9.34,55,9.34S446.83,87.83,429.5,60.5s-30.56-45-34-44c-5.67,1.67-12.67,51.67-17,63.67S364.17,116.5,364.17,116.5Z"/>
      <g>
        <path class="cls-18" d="M372.83,117.17c3.1-14.59,17-20.67,34.34-20.67,19,0,29,13,30.33,25.33s-16,23-37.67,20.67S370.5,128.17,372.83,117.17Z"/>
        <path d="M372.19,117a23.47,23.47,0,0,1,4.93-10.13,26.29,26.29,0,0,1,8.93-6.8c6.83-3.22,14.42-4.24,21.86-4.23s15.19,2.36,21,7.42a28.72,28.72,0,0,1,6.95,9,31,31,0,0,1,2,5.38l.35,1.4c.11.47.17,1,.25,1.42a14.2,14.2,0,0,1,.27,3,15.83,15.83,0,0,1-4.77,10.69,29.42,29.42,0,0,1-9.58,6.39A47.57,47.57,0,0,1,402,144c-1.89-.12-3.76-.41-5.63-.69-.93-.12-1.85-.4-2.78-.59l-1.38-.31c-.46-.12-.91-.28-1.37-.41a33.74,33.74,0,0,1-10.32-4.85,21.76,21.76,0,0,1-7.31-8.81c-.1-.22-.21-.44-.3-.66l-.22-.69-.44-1.38-.27-1.43-.13-.71-.05-.72-.1-1.44.08-1.45,0-.71.12-.71Zm1.29.27-.18,1.33-.1.66V120l0,1.33.12,1.32.07.66.14.65.28,1.29.44,1.25.22.62c.09.2.2.4.29.6a19.64,19.64,0,0,0,7,7.81,32.72,32.72,0,0,0,9.82,4.2,60.92,60.92,0,0,0,10.68,1.69c1.8.11,3.61.13,5.41.07s3.59-.25,5.37-.49a41.26,41.26,0,0,0,10.35-2.79,26.7,26.7,0,0,0,8.81-5.74,13.69,13.69,0,0,0,4.28-9,12,12,0,0,0-.19-2.57c-.07-.43-.1-.88-.2-1.31l-.29-1.3a28.91,28.91,0,0,0-1.75-5,27.13,27.13,0,0,0-6.29-8.58,30,30,0,0,0-19.81-7.44,60.71,60.71,0,0,0-10.94.7A37.62,37.62,0,0,0,386.49,101a24.51,24.51,0,0,0-8.54,6.57A22.2,22.2,0,0,0,373.48,117.3Z"/>
      </g>
      <path class="cls-19" d="M384.17,138.83s7.33,8.34,23,9,25.66-3.33,32.33-7.66c2.77-1.8,7.67-10,7.67-10s7,17,8.66,47.33c1.34,24.38-.33,47.67-10.66,51.33s-31.34-14.33-44-16.33-17.67-3-27,.67-19.67,9.66-27.34,10a58.38,58.38,0,0,1-13.66-1l12,9s15.66-2.34,22.33-5,22-11.34,26.67-11,20,7,25.33,12.33,25,23.67,32.33,24.33,17.34-24.33,18-36-.33-40-2.66-53-10-41.66-10-41.66L434.5,112.5s-.82,13.36-17.33,20.33C402.17,139.17,384.17,138.83,384.17,138.83Z"/>
      <path class="cls-11" d="M392.83,104.17c12.28-3.14,17.67,3.33,18,8.66s-6.32,8.67-15,9c-6.83.27-14-1.66-14.33-6.66S386.32,105.83,392.83,104.17Z"/>
      <path d="M458.51,115.28c1.92.47,3.62,1,5.41,1.52s3.5,1.14,5.23,1.76a104,104,0,0,1,10.2,4.24c6.59,3.27,13.13,7.2,18.15,13.18a29.41,29.41,0,0,1,3.29,4.91,23.79,23.79,0,0,1,2,5.65,34.07,34.07,0,0,1,.33,11.55A59.09,59.09,0,0,1,500.58,169c-.58,1.77-1.2,3.53-1.91,5.25-.35.87-.71,1.72-1.1,2.58s-.74,1.68-1.23,2.62l-5.68-3.31a44.19,44.19,0,0,0,2.43-4.38c.76-1.53,1.47-3.09,2.09-4.68a47.25,47.25,0,0,0,2.71-9.76,27.15,27.15,0,0,0-.1-9.73,18.24,18.24,0,0,0-1.55-4.4,21.38,21.38,0,0,0-2.71-3.93,32.68,32.68,0,0,0-3.49-3.47,42.68,42.68,0,0,0-4-3,56.14,56.14,0,0,0-9.06-4.75,83,83,0,0,0-9.75-3.46q-2.51-.7-5-1.28c-1.66-.39-3.42-.73-5-1Z"/>
      <path d="M493.67,172s-9.75,5.25-14,10-9.25,14.75-4.5,16,5.1-8.92,7.5-12c3.5-4.5,6.75-5.5,6.75-5.5s-4.75,8.25-5.75,13,1.25,9.25,4.25,9.75,2-7,2.5-10.75,1.75-10.25,1.75-10.25,0,8.5,3.25,11.75,8.25,3,8.5.75-3-4-5-5.75-2.25-4.5-2.25-8.5a34,34,0,0,1,1.25-8.25Z"/>
      <path d="M447,92s5.38,12.75,12.79,20.5c4.32,4.52,12.46,7.37,12.46,7.37v6.25s-6.5-2.37-8.75-.25c-1.8,1.7-.5,9.75-.5,9.75Z"/>
      <path d="M310.67,109s-.75-2.75-1.25-4.5a36.73,36.73,0,0,0-3-5.75s8,1.5,10.75,1.5a14.74,14.74,0,0,0,4.25-.5s-4.75,5.25-5.5,8.75S310.67,109,310.67,109Z"/>
      <path d="M357.42,120.25s7.25-10.75,10-15.25,7-14,7-14-8.75,23.25-10,25.25S357.42,120.25,357.42,120.25Z"/>
      <g>
        <path class="cls-2" d="M305.42,97.5a18.1,18.1,0,0,0,13.75,6.2c9.51-.13,9.56-5.13,9.56-5.13s5,6.79,15.1,2.4c8.86-3.86.81-11,.81-11s8.14-3.07,6.48-7-6.71-5-6.71-5,8-6.82,2.51-12.36c-6.21-6.28-11.87-2.77-11.87-2.77s7.12-22.31-13.89-22.22-16.88,22.19-16.88,22.19-2.7-4.89-7.6-2.19S295,68.89,295,68.89s-7.28-.71-10.09,10.41,4,20.81,12,21.45C303.17,101.25,305.42,97.5,305.42,97.5Z"/>
        <path class="cls-3" d="M305.37,96.76a.81.81,0,0,1,.41.09A1.09,1.09,0,0,1,306,97l.06.07,0,0,0,0,.07.07.14.14.29.27.62.54c.41.35.85.67,1.29,1a20.24,20.24,0,0,0,2.81,1.62,17.18,17.18,0,0,0,6.13,1.6,18.62,18.62,0,0,0,6.26-.63,7.43,7.43,0,0,0,2.57-1.2,5.35,5.35,0,0,0,.93-.91,4.8,4.8,0,0,0,.32-.54c.08-.16.18-.43.21-.48h0l1.85-.6a11,11,0,0,0,2.74,1.88,10.79,10.79,0,0,0,3.18,1,14.16,14.16,0,0,0,6.71-.79,12.21,12.21,0,0,0,3-1.46,3.49,3.49,0,0,0,1.51-2.2,5.11,5.11,0,0,0-.61-3,13.45,13.45,0,0,0-2-2.92h0l-.92-.81,1.16-.49a18.56,18.56,0,0,0,4-2.22c1.17-.88,2.22-2.08,2.08-3.12a1.87,1.87,0,0,0-.26-.8,4.9,4.9,0,0,0-.53-.88,7.26,7.26,0,0,0-1.5-1.48,10.94,10.94,0,0,0-3.92-1.77h0l-1.93-.45,1.47-1.34a13.83,13.83,0,0,0,3.65-5.09,5.67,5.67,0,0,0,.35-2.85,5,5,0,0,0-1.22-2.53,11.77,11.77,0,0,0-5.13-3.46,7.82,7.82,0,0,0-3-.34,7.08,7.08,0,0,0-2.8.79h0l-1.53-1.19a27.39,27.39,0,0,0,1.34-7.62A15.85,15.85,0,0,0,334,47.37a10.36,10.36,0,0,0-5.51-5,19.51,19.51,0,0,0-7.68-1.27,19.8,19.8,0,0,0-7.67,1.47,13.08,13.08,0,0,0-5.84,4.94c-2.77,4.43-3.1,10.11-2.18,15.13h0l.8,4.24-2.32-3.69a5.42,5.42,0,0,0-3-2.4,4.69,4.69,0,0,0-3.67.76,3.8,3.8,0,0,0-1.91,3,7.26,7.26,0,0,0,.94,3.83h0l1,1.58-2,0a6.13,6.13,0,0,0-1.32.16,7.55,7.55,0,0,0-1.36.47,8.59,8.59,0,0,0-2.39,1.65,13.75,13.75,0,0,0-3.15,5.17,21.53,21.53,0,0,0-1.31,6.12,18.21,18.21,0,0,0,.7,6.19A14.66,14.66,0,0,0,293.69,99a11.18,11.18,0,0,0,6,.84,9,9,0,0,0,2.88-.88,7.89,7.89,0,0,0,1.24-.83,5.08,5.08,0,0,0,.54-.5,3.08,3.08,0,0,0,.24-.27l.11-.13,0-.07,0,0A.86.86,0,0,1,305.37,96.76Zm.09,1.48A.7.7,0,0,0,306,98l0,0-.07.11-.14.19c-.1.12-.2.24-.31.35a6.65,6.65,0,0,1-.65.65,9,9,0,0,1-1.48,1,10.61,10.61,0,0,1-3.39,1.14,13,13,0,0,1-3.52.09,11.81,11.81,0,0,1-3.45-.91,16.6,16.6,0,0,1-8.83-10.39,20.39,20.39,0,0,1-.9-6.89,23,23,0,0,1,1.35-6.79,15.34,15.34,0,0,1,3.72-6,9.27,9.27,0,0,1,6.81-2.71l-1,1.54h0a10.29,10.29,0,0,1-.9-2.42,7.81,7.81,0,0,1-.19-2.61,5.64,5.64,0,0,1,.91-2.58,6,6,0,0,1,2-1.83,7.68,7.68,0,0,1,2.42-1,5.7,5.7,0,0,1,2.69.1,6.29,6.29,0,0,1,2.32,1.29,7.82,7.82,0,0,1,1.65,2l-1.51.54h0a30,30,0,0,1,.13-8.25,19,19,0,0,1,2.84-7.7,14.08,14.08,0,0,1,6.28-5.27,22.38,22.38,0,0,1,8-1.59,20.49,20.49,0,0,1,8.11,1.22,12,12,0,0,1,6.26,5.44,17.75,17.75,0,0,1,1.9,8.09,30.85,30.85,0,0,1-1,8.25l-1.52-1.19h0a8.13,8.13,0,0,1,1.85-.76,9.77,9.77,0,0,1,5.64.09,11.7,11.7,0,0,1,3.34,1.65,15.88,15.88,0,0,1,2.76,2.44,7.08,7.08,0,0,1,1.69,3.56,7.87,7.87,0,0,1-.45,3.87,13.42,13.42,0,0,1-1.8,3.24,17.42,17.42,0,0,1-2.46,2.71l-.46-1.79h0a12.76,12.76,0,0,1,4.68,2.24,9.64,9.64,0,0,1,1.85,1.92,7.73,7.73,0,0,1,.67,1.19,3.67,3.67,0,0,1,.41,1.47,4.25,4.25,0,0,1-1,2.8,9.27,9.27,0,0,1-1.93,1.79,20.5,20.5,0,0,1-4.42,2.32l.24-1.3h0a12.86,12.86,0,0,1,2.78,3,7,7,0,0,1,1.28,4.28,5.32,5.32,0,0,1-.74,2.36,6.55,6.55,0,0,1-1.56,1.77,13,13,0,0,1-3.72,2,15,15,0,0,1-8.25.88,12.2,12.2,0,0,1-3.95-1.57,11.15,11.15,0,0,1-1.67-1.3,8.55,8.55,0,0,1-1.43-1.64l1.86-.6h0a4,4,0,0,1-.15,1.18,5.93,5.93,0,0,1-.38,1,6.5,6.5,0,0,1-1.28,1.69,8.87,8.87,0,0,1-3.47,1.9,14.86,14.86,0,0,1-1.84.43c-.61.09-1.22.15-1.82.2a22.3,22.3,0,0,1-3.65-.07,17.82,17.82,0,0,1-6.91-2.26,17.37,17.37,0,0,1-2.95-2.07c-.45-.4-.89-.81-1.3-1.24-.21-.22-.41-.44-.61-.67l-.28-.35-.14-.19-.07-.09,0,0,0,0,.06.06a.48.48,0,0,0,.16.12A.72.72,0,0,0,305.46,98.24Z"/>
      </g>
      <g>
        <path class="cls-2" d="M284.88,234.59s.29-10,12.32-11.44a18.86,18.86,0,0,1,17.3,7.33s5.19-15.52,20.67-13.31c11.66,1.66,15.7,12.14,15.7,12.14s11.73-8.21,22.59-1.47S382.55,244,382.55,244"/>
        <path class="cls-3" d="M284.88,234.59a11,11,0,0,1,3.7-8.87,16.29,16.29,0,0,1,9.21-3.72,19.11,19.11,0,0,1,14.14,4.16,17.88,17.88,0,0,1,3.52,3.68h0l-2,.28a23.91,23.91,0,0,1,2.77-5.62,22.7,22.7,0,0,1,4.16-4.72,18.32,18.32,0,0,1,5.53-3.22,19.22,19.22,0,0,1,6.31-1.1,21.16,21.16,0,0,1,12,3.67,22.12,22.12,0,0,1,4.59,4.31,23.7,23.7,0,0,1,1.77,2.59,17.37,17.37,0,0,1,1.4,2.87l-1.73-.53h0a25.33,25.33,0,0,1,10.5-4.43,20.38,20.38,0,0,1,5.84-.16,18.36,18.36,0,0,1,5.65,1.65,22.79,22.79,0,0,1,4.84,3.19,19.94,19.94,0,0,1,3.85,4.34c2.07,3.27,2.95,7.47,1.66,11a18.71,18.71,0,0,0-3.83-9.52,19.35,19.35,0,0,0-3.53-3.59,22.87,22.87,0,0,0-4.28-2.66,17.49,17.49,0,0,0-9.74-1.28,28.12,28.12,0,0,0-9.64,3.32h0l-1.08.83-.65-1.36a20.87,20.87,0,0,0-3.06-4.59,19.71,19.71,0,0,0-4.15-3.65,18.85,18.85,0,0,0-10.4-3,16.23,16.23,0,0,0-5.33.87,16.79,16.79,0,0,0-4.72,2.65,20,20,0,0,0-3.8,4,23.87,23.87,0,0,0-2.75,4.85l-.91,2.17-1.12-1.89h0a18.64,18.64,0,0,0-3.12-3.09,20.2,20.2,0,0,0-3.79-2.33,17.61,17.61,0,0,0-8.67-1.54,19.83,19.83,0,0,0-4.41.81,13.24,13.24,0,0,0-3.91,2A13.67,13.67,0,0,0,284.88,234.59Z"/>
      </g>
    </g>
  </g>
</svg>
