<svg xmlns="http://www.w3.org/2000/svg" xmlns:xlink="http://www.w3.org/1999/xlink" width="579" height="293" viewBox="0 0 579 293">
  <defs>
    <style>
      .cls-1, .cls-27 {
        fill: none;
      }

      .cls-2 {
        isolation: isolate;
      }

      .cls-3 {
        fill: #a9ebed;
      }

      .cls-4 {
        fill: #fff;
      }

      .cls-5 {
        fill: #e51727;
      }

      .cls-6 {
        fill: #a6b8bf;
      }

      .cls-7 {
        fill: #9aaab1;
      }

      .cls-8 {
        fill: #d5e2e6;
      }

      .cls-9 {
        fill: #70868c;
      }

      .cls-10 {
        opacity: 0.44;
      }

      .cls-11 {
        fill: #171d1e;
        opacity: 0.1;
      }

      .cls-12 {
        opacity: 0.8;
      }

      .cls-13 {
        fill: #6d6960;
      }

      .cls-14 {
        fill: #83bbc4;
      }

      .cls-15, .cls-18 {
        fill: #728c93;
      }

      .cls-16 {
        fill: #587077;
      }

      .cls-17 {
        fill: #dfebef;
        opacity: 0.82;
      }

      .cls-18 {
        opacity: 0.75;
      }

      .cls-19 {
        fill: #578a9e;
        opacity: 0.3;
        mix-blend-mode: multiply;
      }

      .cls-20 {
        opacity: 0.5;
      }

      .cls-21 {
        opacity: 0.63;
      }

      .cls-22 {
        clip-path: url(#clip-path);
      }

      .cls-23 {
        fill: #6daabf;
      }

      .cls-24 {
        fill: #96cdd6;
      }

      .cls-25 {
        fill: #5d8c9b;
      }

      .cls-26 {
        fill: #bc5c6c;
      }

      .cls-27 {
        stroke: #000;
        stroke-miterlimit: 10;
        stroke-width: 4px;
      }

      .cls-28 {
        opacity: 0.9;
      }

      .cls-29 {
        fill: #303b3f;
      }

      .cls-30 {
        fill: #be1432;
      }

      .cls-31 {
        fill: #455b60;
      }

      .cls-32 {
        opacity: 0.11;
      }
    </style>
    <clipPath id="clip-path">
      <path class="cls-1" d="M285.25,185.83a18.33,18.33,0,0,0,8-1.5c3.5-1.75,7-7,7-7l91,.75L369.5,234.33l-82-6Z"/>
    </clipPath>
  </defs>
  <title>dolphin_duke_dose</title>
  <g class="cls-2">
    <g id="Ebene_14" data-name="Ebene 14">
      <path d="M84.86,98.89a117.48,117.48,0,0,1-6.76,11.48c-1.24,1.85-2.56,3.64-4,5.39a32.41,32.41,0,0,1-4.81,4.85,14.29,14.29,0,0,1-3,1.91,8.94,8.94,0,0,1-3.72.86,16.42,16.42,0,0,1-6.91-1.76,39.55,39.55,0,0,1-5.9-3.41,58.38,58.38,0,0,1-5.39-4.13l2.39-2.52A41.78,41.78,0,0,0,56.86,119a13.61,13.61,0,0,0,5.67,1.6,8.22,8.22,0,0,0,5.12-2.14,41.62,41.62,0,0,0,8.18-9.64,93.67,93.67,0,0,0,6.31-11.27Z"/>
      <path d="M45.85,115.52a9.17,9.17,0,0,1-5,1.56c-2.6-.14-3.85-1-4-2.17a3.61,3.61,0,0,1,1.08-2.38s-2.6-1.44-2.31-3a2.72,2.72,0,0,1,1.87-2s-1.87-3.18.29-4.19,6.93-.43,8.37,3S47.15,114.51,45.85,115.52Z"/>
      <path d="M46.26,113s2.1-3.79,1.58-6.21a15.1,15.1,0,0,1,0-6.2c.57-2.89,3.08-5.8,1-6.49-3-1-5.44,2.26-4.91,6.49.46,3.63.72,6.64.72,6.64Z"/>
      <path class="cls-3" d="M17.14,174.22s35-3.2,48.37-3.2,36.06,2.08,46.27,2.43,32.54-2.58,50.75-2.78c29.8-.34,37.1,1.69,43.16,2s34.76,1.51,34.76,1.51a348,348,0,0,1-39.29,10.2c-30.92,6.19-61.12,2.71-87.29,3.4a564.76,564.76,0,0,1-61.21-1.13C32.55,185.3,17.14,174.22,17.14,174.22Z"/>
      <g>
        <path class="cls-4" d="M82.16,98.62c6.76-23.78,6.06-46.69,10.68-46.69,3.63,0,19.54,16.52,31.49,42.95,11.27,24.92,13.29,28.19,17.48,48.23,3.3,15.81,2.15,33.53-4.68,33.7-8.79.22-21.73-17.64-32.52-18.06C93.39,158.31,81,174.61,74,174.61c-5.72,0-8.73-13.22-5.2-31.5C71.92,127,78.63,111,82.16,98.62Z"/>
        <path d="M81.42,98.41A206,206,0,0,0,86,77.49c.61-3.53,1.16-7.06,1.71-10.61s1.08-7.1,2-10.61a15.7,15.7,0,0,1,.9-2.6,4.65,4.65,0,0,1,.32-.63,3.42,3.42,0,0,1,.42-.6,3.09,3.09,0,0,1,.55-.53,1.88,1.88,0,0,1,.77-.28,2.52,2.52,0,0,1,1.47.32,10.93,10.93,0,0,1,1.21.7,21.07,21.07,0,0,1,2.17,1.66,68,68,0,0,1,7.47,7.81,137.68,137.68,0,0,1,12.34,17.7q2.76,4.65,5.2,9.47c1.63,3.21,3.11,6.49,4.62,9.74,3,6.51,6.12,13,8.87,19.64a105.33,105.33,0,0,1,3.61,10.24c1,3.47,1.87,7,2.67,10.49A86.8,86.8,0,0,1,144.91,161a36,36,0,0,1-1.72,11A14.33,14.33,0,0,1,142,174.6a7.48,7.48,0,0,1-2.07,2.34,5,5,0,0,1-3.18.9,9.37,9.37,0,0,1-2.93-.59,22.37,22.37,0,0,1-5-2.59c-1.54-1-3-2.1-4.42-3.21-2.84-2.22-5.6-4.49-8.48-6.56s-5.88-4-9.13-4.81-6.61.08-9.69,1.62a57.58,57.58,0,0,0-8.82,5.77,108.43,108.43,0,0,1-8.81,6.37,17.63,17.63,0,0,1-2.57,1.29,7.89,7.89,0,0,1-3.07.62,5,5,0,0,1-3.16-1.28,9,9,0,0,1-1.93-2.42,19.76,19.76,0,0,1-1.93-5.4,38.44,38.44,0,0,1-.77-5.51c-.5-7.36.62-14.65,2.25-21.69a203.33,203.33,0,0,1,6.19-20.72C76.82,111.94,79.36,105.24,81.42,98.41Zm1.48.42c-1.91,7-4.28,13.74-6.44,20.56S72.25,133.05,70.77,140a82.27,82.27,0,0,0-2,21,36.56,36.56,0,0,0,.59,5.15,17.4,17.4,0,0,0,1.53,4.75c.73,1.41,1.82,2.55,3,2.57a9,9,0,0,0,4.4-1.55c5.93-3.6,11.2-8.79,17.87-12A20.94,20.94,0,0,1,101.5,158a12.74,12.74,0,0,1,5.76.16c3.73,1,6.84,3.05,9.8,5.14s5.71,4.43,8.54,6.59C127,171,128.44,172,129.91,173a21.29,21.29,0,0,0,4.55,2.33,7.39,7.39,0,0,0,2.32.45,2.71,2.71,0,0,0,1.87-.56,7.78,7.78,0,0,0,2.32-4,39.65,39.65,0,0,0,1.26-10.27,79.32,79.32,0,0,0-.53-10.55,102.8,102.8,0,0,0-1.81-10.47,128.61,128.61,0,0,0-5.8-20.5c-2.58-6.64-5.56-13.17-8.46-19.73-1.47-3.28-2.88-6.56-4.45-9.76s-3.22-6.37-5-9.47a136.48,136.48,0,0,0-12-17.75A66.49,66.49,0,0,0,97,54.87a21.57,21.57,0,0,0-2.06-1.65,7.91,7.91,0,0,0-1.11-.66,2,2,0,0,0-1.1-.27,1.28,1.28,0,0,0-.48.18,2.6,2.6,0,0,0-.4.41,3,3,0,0,0-.33.51,5.18,5.18,0,0,0-.28.58,15.77,15.77,0,0,0-.77,2.5c-.8,3.45-1.2,7-1.67,10.57s-.91,7.12-1.43,10.67A164.13,164.13,0,0,1,82.9,98.83Z"/>
      </g>
      <path d="M80.85,103.27s4.41,2.09,19.8,2.09a237,237,0,0,0,28-1.67A144.23,144.23,0,0,0,112.88,74c-10.51-15.2-17.81-22.25-20-22-4.24.43-5.42,26-7.31,33.92S80.85,103.27,80.85,103.27Z"/>
      <path class="cls-5" d="M83.18,105.17c.65,8.37,10,12.73,20.38,11.53,11.32-1.3,16.44-8.74,15.26-14.32-1.47-7-8.33-13.4-20-12.29S82.75,99.59,83.18,105.17Z"/>
      <path class="cls-4" d="M93.88,94.59c5.55-1.74,10.24-1.22,12,2.25s-5,6.08-9.73,6.78-8.33-.52-8.16-3S90.78,95.55,93.88,94.59Z"/>
      <path d="M83.6,105.13a10.23,10.23,0,0,0,2.19,5.43,12.75,12.75,0,0,0,4.68,3.57,22.91,22.91,0,0,0,11.73,1.73,21.7,21.7,0,0,0,11.08-3.75,12.58,12.58,0,0,0,3.77-4.29,8.23,8.23,0,0,0,.86-5.4,14.45,14.45,0,0,0-6.67-9.3,20,20,0,0,0-11.6-2.61,21.26,21.26,0,0,0-6,1.09,15.85,15.85,0,0,0-5.29,2.92A13,13,0,0,0,83.6,105.13Zm-.84.07A14.19,14.19,0,0,1,88,94a20.14,20.14,0,0,1,11.63-4.43A21.48,21.48,0,0,1,111.93,92,15.88,15.88,0,0,1,119.65,102a9.76,9.76,0,0,1-.89,6.64,14.57,14.57,0,0,1-4.28,5,18.93,18.93,0,0,1-5.82,2.91,26,26,0,0,1-6.33,1.14,29.12,29.12,0,0,1-6.39-.37,21.29,21.29,0,0,1-6.08-2,14.62,14.62,0,0,1-4.93-4.12A11.19,11.19,0,0,1,82.76,105.2Z"/>
      <g id="Ebene_15" data-name="Ebene 15">
        <path d="M129.33,99.33a74,74,0,0,0,10.08,12.84,34.29,34.29,0,0,0,6.22,5.06,17.54,17.54,0,0,0,3.47,1.67,9.34,9.34,0,0,0,3.55.52,1.12,1.12,0,0,0,.86-.38,2.07,2.07,0,0,0,.28-1.18,11.89,11.89,0,0,0-.75-3.61,46.07,46.07,0,0,0-3.39-7.33c-1.34-2.38-2.8-4.71-4.33-7-.78-1.13-1.58-2.25-2.4-3.33-.41-.54-.83-1.07-1.25-1.59a16.26,16.26,0,0,0-1.22-1.36l2.48-2.59a16.85,16.85,0,0,1,1.49,1.81c.43.58.85,1.16,1.25,1.75.8,1.17,1.57,2.36,2.32,3.56,1.51,2.38,2.93,4.82,4.24,7.33a51.34,51.34,0,0,1,3.47,7.85,14.49,14.49,0,0,1,.83,4.55,4.71,4.71,0,0,1-.86,2.76,3.81,3.81,0,0,1-2.76,1.42,14.85,14.85,0,0,1-8.69-2.57,40.88,40.88,0,0,1-6.74-5.41,75.47,75.47,0,0,1-5.71-6.3c-1.79-2.2-3.48-4.43-5.08-6.83Z"/>
        <path class="cls-6" d="M125.94,99.92l14.87,2s-4.34-5.24-2.51-10.37S142.7,85,142.7,85l-15-1.22s-3.79,3.16-4.55,7.13S125.94,99.92,125.94,99.92Z"/>
        <path class="cls-7" d="M144.38,84.9c2.25.07,4.56,6,4,9.19s-2.46,8-5.28,7.71-6.42-5.71-4.75-10.27S141.94,84.82,144.38,84.9Z"/>
        <polygon class="cls-8" points="126.05 85.14 140.32 86.39 138.55 93.01 123.73 90.79 126.05 85.14"/>
        <polygon class="cls-9" points="123.52 95.91 138.38 97.7 140.21 100.99 125.35 99.2 123.52 95.91"/>
        <path d="M148.76,94.43a13.3,13.3,0,0,1-1.15,4.08l0,0a6.87,6.87,0,0,1-3.7,3.62,3.66,3.66,0,0,1-2.72-.16,4.66,4.66,0,0,1-1.89-1.84,10.59,10.59,0,0,1-1.3-4.87,15.68,15.68,0,0,1,.62-5,10.75,10.75,0,0,1,2.39-4.41,4.84,4.84,0,0,1,2.21-1.38,3.21,3.21,0,0,1,2.64.45,5.44,5.44,0,0,1,1.7,2,10.49,10.49,0,0,1,.88,2.4A15.06,15.06,0,0,1,148.76,94.43Zm-1-.12a13.91,13.91,0,0,0-.13-4.73,6.55,6.55,0,0,0-2.13-4,2.42,2.42,0,0,0-2-.4,4.15,4.15,0,0,0-1.93,1.15,9.83,9.83,0,0,0-2.29,4.13,14,14,0,0,0-.55,4.77,9.46,9.46,0,0,0,1.3,4.51,3.86,3.86,0,0,0,1.62,1.49,2.72,2.72,0,0,0,2.08,0,5.94,5.94,0,0,0,3-3.24l0,0A12.55,12.55,0,0,0,147.74,94.31Z"/>
        <path d="M142.26,102.18l-16.21-1.8H126l-.09-.05h0a7.73,7.73,0,0,1-3.18-4,10.34,10.34,0,0,1-.37-5,13.06,13.06,0,0,1,1.62-4.72,7.38,7.38,0,0,1,3.88-3.35h0l.09,0H128l16.46,1.39,0,.41-16.5-.68.18,0h0a5.47,5.47,0,0,0-1.8,1.11,7.64,7.64,0,0,0-1.4,1.74,11.92,11.92,0,0,0-1.47,4.31,9.12,9.12,0,0,0,.32,4.47,6.69,6.69,0,0,0,2.65,3.4h0l-.2-.06,16.14,2.32Z"/>
        <g class="cls-10">
          <path d="M137.89,84.1a6,6,0,0,0-3.65,3.14A13,13,0,0,0,133,92a12.72,12.72,0,0,0,.42,4.88,7.66,7.66,0,0,0,1.09,2.2,6.44,6.44,0,0,0,1.76,1.77,6.65,6.65,0,0,1-3.46-3.75,12.48,12.48,0,0,1,.89-10.16A6.73,6.73,0,0,1,135.47,85,4.82,4.82,0,0,1,137.89,84.1Z"/>
        </g>
        <g class="cls-10">
          <path d="M135.92,83.86A5.93,5.93,0,0,0,132.28,87a14.41,14.41,0,0,0-.84,9.62,7.93,7.93,0,0,0,1.09,2.2,6.28,6.28,0,0,0,1.76,1.76,6.67,6.67,0,0,1-3.46-3.74,12.48,12.48,0,0,1,.89-10.16,6.73,6.73,0,0,1,1.78-1.94A4.82,4.82,0,0,1,135.92,83.86Z"/>
        </g>
        <path d="M142.21,84.53s-1-3-3.38-3.51-6.56,7-2.34,7.54c2.4.32,3.32-4.21,3.32-4.21Z"/>
        <path d="M137.86,84.57s-.77-4.91-2.61-5.22c-3.4-.55-8.49,8.23-5.22,9.07s4.43-4.54,4.43-4.54Z"/>
        <path d="M133.05,83.66a11.33,11.33,0,0,0-5.3-5.66c-3.58-1.67-6.87.29-5.5,2.62.75,1.29,4,.81,5.68,1.58a6.45,6.45,0,0,1,2.63,2.27Z"/>
      </g>
      <polygon points="132.16 111.15 131.18 105.26 128.51 102.32 132.16 111.15"/>
      <path class="cls-4" d="M129,177.22a18,18,0,0,0,4.21.78,33.47,33.47,0,0,0,4.25,0c1.42-.08,2.85-.22,4.26-.4.71-.11,1.41-.22,2.1-.39a5.69,5.69,0,0,0,2-.77,4.8,4.8,0,0,1-1.81,1.27,12.21,12.21,0,0,1-2.11.72,23.83,23.83,0,0,1-4.36.68,17.86,17.86,0,0,1-4.44-.26A9.87,9.87,0,0,1,129,177.22Z"/>
      <path class="cls-4" d="M66.48,173.35a1.43,1.43,0,0,0,1,1.47,7.46,7.46,0,0,0,1.89.53,32.06,32.06,0,0,0,4.06.29,39.79,39.79,0,0,0,4.09,0,13.29,13.29,0,0,0,2-.31,2.66,2.66,0,0,0,1.7-1,1.54,1.54,0,0,1-.59.89,4.54,4.54,0,0,1-.92.6,8.84,8.84,0,0,1-2.06.66,18.87,18.87,0,0,1-4.23.33,16.59,16.59,0,0,1-4.24-.53,6.57,6.57,0,0,1-2-.93,2.59,2.59,0,0,1-.73-.88A1.17,1.17,0,0,1,66.48,173.35Z"/>
      <path class="cls-4" d="M62.51,177.13a7.31,7.31,0,0,0,2.84,1.35,23,23,0,0,0,3.08.63,55.46,55.46,0,0,0,6.32.46,51.69,51.69,0,0,0,6.35-.19,16.07,16.07,0,0,0,3.09-.59,5.45,5.45,0,0,0,1.41-.64,1.86,1.86,0,0,0,.91-1.21,1.87,1.87,0,0,1-.74,1.43,6,6,0,0,1-1.4.88,12.87,12.87,0,0,1-3.15.95,34.4,34.4,0,0,1-6.48.51,30.71,30.71,0,0,1-6.48-.65,16.56,16.56,0,0,1-3.13-1A6.37,6.37,0,0,1,62.51,177.13Z"/>
      <path class="cls-4" d="M126.18,180.47a20.14,20.14,0,0,0,3.49.69c1.18.15,2.35.24,3.53.29a66.89,66.89,0,0,0,7.08-.08,43.82,43.82,0,0,0,7-.88,8.9,8.9,0,0,0,3.16-1.27c.43-.31.75-.8.47-1.28a2.91,2.91,0,0,0-1.36-1,2.67,2.67,0,0,1,1.61.86,1.08,1.08,0,0,1,.18,1,2.12,2.12,0,0,1-.53.86,8.7,8.7,0,0,1-3.29,1.7,31.83,31.83,0,0,1-7.15,1.15,42.47,42.47,0,0,1-7.22-.18A20.92,20.92,0,0,1,126.18,180.47Z"/>
      <path class="cls-4" d="M153.28,175.53c4.36-.63,8.75-1,13.15-1.21s8.82-.2,13.22-.11,8.79.38,13.18.69,8.77.69,13.14,1.21l-6.59-.17-6.59-.23c-4.39-.16-8.78-.36-13.17-.46s-8.77-.19-13.16-.13c-2.2,0-4.39.08-6.59.16S155.48,175.43,153.28,175.53Z"/>
      <path class="cls-4" d="M87.92,174.38l4.45.44c1.47.16,2.95.31,4.44.44,3,.26,5.91.52,8.86.6s6,.13,8.93.27l4.47.22c1.48.11,3,.19,4.46.33-1.5.1-3,.12-4.48.18l-4.46.07c-3,0-5.94,0-8.94,0a78.17,78.17,0,0,1-8.94-.85C93.76,175.62,90.82,175.09,87.92,174.38Z"/>
      <path class="cls-3" d="M69.23,173.58a6.33,6.33,0,0,0,4.3,2.41c2.54.06,5.86-1.76,5.86-1.76s-4.69.07-6.9-.13A17.83,17.83,0,0,1,69.23,173.58Z"/>
      <path class="cls-3" d="M130.2,175.86s3.91,2.47,6.84,2.28,5.28-3.13,5.28-3.13a28,28,0,0,1-7.56,1.3A18.66,18.66,0,0,1,130.2,175.86Z"/>
      <path class="cls-11" d="M69.79,171.25a22,22,0,0,0,11.65-3.66c6-3.89,16.38-13.16,24.79-12.51s23.72,14.66,27.38,14.23,3.67-19,1.73-31.05-13.37-36-13.37-36,3.62,8.69-5.39,14.23c-12.29,7.54-29.11-3-29.11-3s12.94,3.45,20.7-1.51,8.2-15.31,8.2-15.31l6,2.16,5.82,2.58a216.23,216.23,0,0,1,11,31.7c5.17,19.19,5.17,29.11,4.31,32.34s-3,9.7-3,9.7a10.3,10.3,0,0,1-3.23.86,30.54,30.54,0,0,1-5.39-.21s-15.31-12.72-19.19-14.45-8.19-3.23-11.21-2.15a82.51,82.51,0,0,0-13.15,6.9C86.4,167.59,78,173.62,78,173.62h-6.9Z"/>
      <g class="cls-12">
        <path class="cls-13" d="M143.54,93.15a269.11,269.11,0,0,0,24.83,20.35q13,9.48,26.67,17.91a244.05,244.05,0,0,0,28.33,15q7.33,3.24,14.87,6a152,152,0,0,0,15.24,4.69l-.46,2a152.48,152.48,0,0,1-15.44-4.94c-5-1.88-10-4-14.91-6.19a244.72,244.72,0,0,1-28.34-15.41q-13.62-8.63-26.52-18.29a264.77,264.77,0,0,1-24.65-20.73Z"/>
      </g>
      <path class="cls-3" d="M30,184.8s8.69,2.64,28,4.16,38.54,1.13,38.54,1.13a132.84,132.84,0,0,1-33.25,3.78C45.48,193.49,30,184.8,30,184.8Z"/>
      <path class="cls-3" d="M78.35,195s23.81-4.53,34.77-5.67,36.27.76,36.27.76a121.56,121.56,0,0,1-28.34,5.67C104.05,197.27,78.35,195,78.35,195Z"/>
      <path class="cls-3" d="M121.74,198.72s19.92-3.63,29.76-3.17,20.85,1.64,20.85,1.64-21.82,3.68-28.64,3.13S121.74,198.72,121.74,198.72Z"/>
      <path class="cls-3" d="M154.78,190.18s16.53-.55,25.89-1.1,25.07-4.14,25.07-4.14a48.61,48.61,0,0,1-25.34,8.82C171,194.11,154.78,190.18,154.78,190.18Z"/>
    </g>
    <g id="Ebene_13" data-name="Ebene 13">
      <path class="cls-3" d="M433.38,208.76c55.24-.32,121.52.58,133.84,11.74,7.59,6.87-18.61,13.17-18.61,13.17s10.34,28-47.91,33.58C451.14,272,460,279.74,398.32,278.11c-62.39-1.64-67.56-26.83-67.56-26.83s-52.08-12.21-42.56-22.89C300.3,214.82,376.51,209.09,433.38,208.76Z"/>
      <path class="cls-14" d="M290,186s11,29.33,31.67,34,39.66,0,39.66,0l5.17-19.67L357.67,195s-15.67,3.33-21,3.33-9.34,1-13.67-.33-26.33-15.33-26.33-15.33Z"/>
      <path class="cls-6" d="M255.4,176.67l30.2,9.7s-9.45-9.55-5.1-20.42,12.17-13.37,12.17-13.37l-23.75-8s-9.87.45-15,8C247.08,162.65,255.4,176.67,255.4,176.67Z"/>
      <path class="cls-15" d="M294.66,153.14c5.22.92,9.9,11.32,6.33,21.21s-9.92,13.2-13.65,12.58-11.18-10.36-6.84-21,9.93-13.69,14.16-12.81"/>
      <path class="cls-16" d="M280.77,181.09s8.84-3.76,11.84-10.63c3.78-8.63.08-18.25.08-18.25s-6.11,0-10.31,8.58C276.37,173,280.77,181.09,280.77,181.09Z"/>
      <path class="cls-17" d="M260,146.58l27.25,6-6.54,11-28.46-8a54.33,54.33,0,0,1,3.75-6.5,11.25,11.25,0,0,1,4-2.5"/>
      <polyline class="cls-18" points="253.03 172.34 280.26 181.45 278.43 175.89 250.73 166.01 253.03 172.34"/>
      <path class="cls-19" d="M296.67,182.67c-.34-.34-6.67,3.33-6.67,3.33s8.67,26,27.33,32,42.34,2.67,42.34,2.67l7-18.67s-3.34,7.67-21.67,10-31.67-.33-36.33-4.33S293.33,188,293.33,188l3.34-5.33"/>
    </g>
    <g id="Ebene_8" data-name="Ebene 8">
      <path d="M285.79,187.23c-2.52-.59-5-1.3-7.46-2s-4.92-1.49-7.35-2.3-4.91-1.53-7.34-2.36-4.87-1.63-7.29-2.52l-.23-.09-.11-.08h0a16.83,16.83,0,0,1-4-4.63,17.84,17.84,0,0,1-2.13-5.61A20.11,20.11,0,0,1,251.41,156a20.73,20.73,0,0,1,7.08-9.28,16.28,16.28,0,0,1,5.41-2.46,15.94,15.94,0,0,1,6-.38h0l.07,0,12.2,3.74,12.22,3.68-.59,1.91-12.17-3.81-12.2-3.75.11,0a14.21,14.21,0,0,0-5.21.35,14.45,14.45,0,0,0-4.81,2.18,15.93,15.93,0,0,0-3.77,3.74,22.4,22.4,0,0,0-2.54,4.76A18.1,18.1,0,0,0,252,167.23a14.71,14.71,0,0,0,2,4.84,16.21,16.21,0,0,0,1.59,2.09,12.81,12.81,0,0,0,1.86,1.72h0l-.34-.17c2.49.66,5,1.38,7.42,2.13s4.93,1.49,7.36,2.34,4.86,1.73,7.27,2.64,4.8,1.88,7.16,2.93Z"/>
      <g class="cls-20">
        <path d="M281.93,149.63a14.37,14.37,0,0,0-9.12,4.34,17.48,17.48,0,0,0-3,4.11,24.68,24.68,0,0,0-1.92,4.73,22.64,22.64,0,0,0-.66,10.12,23.82,23.82,0,0,0,3.84,9.59,19.91,19.91,0,0,1-5-9.36,21.38,21.38,0,0,1,.37-10.77,20.05,20.05,0,0,1,5.5-9.28A13.05,13.05,0,0,1,281.93,149.63Z"/>
      </g>
      <g class="cls-20">
        <path d="M277.68,148.11a14.28,14.28,0,0,0-9.11,4.33,17.69,17.69,0,0,0-3,4.11,23.54,23.54,0,0,0-1.92,4.74,22.78,22.78,0,0,0-.67,10.12,23.83,23.83,0,0,0,3.85,9.59,19.76,19.76,0,0,1-5-9.37,21.45,21.45,0,0,1,.36-10.76,20,20,0,0,1,5.5-9.28A13.07,13.07,0,0,1,277.68,148.11Z"/>
      </g>
      <path d="M279.63,164.36a20,20,0,0,1,6.45-10,14.39,14.39,0,0,1,5.51-2.69,11.64,11.64,0,0,1,3.13-.31,7.39,7.39,0,0,1,1.67.26,6,6,0,0,1,1.56.73,11.93,11.93,0,0,1,4,4.77,19.09,19.09,0,0,1,1.74,5.73,21.88,21.88,0,0,1,0,5.94,32.93,32.93,0,0,1-1.27,5.71,22.37,22.37,0,0,1-6.18,10,12.39,12.39,0,0,1-5.41,2.85,9.85,9.85,0,0,1-3.16.17,7.45,7.45,0,0,1-3.08-1.1,11.59,11.59,0,0,1-4-4.68,20,20,0,0,1-1.81-5.69A25.6,25.6,0,0,1,279.63,164.36Zm2.22.72a23.36,23.36,0,0,0-.94,10.66,18.09,18.09,0,0,0,1.54,5.09,9.39,9.39,0,0,0,3.23,3.86,5.34,5.34,0,0,0,2.21.81,7.4,7.4,0,0,0,2.48-.12,10.22,10.22,0,0,0,4.52-2.36,19.76,19.76,0,0,0,5.54-9.1,24.22,24.22,0,0,0,1.1-10.71,16.3,16.3,0,0,0-1.57-5.06,9.76,9.76,0,0,0-3.21-3.84,3.78,3.78,0,0,0-2.13-.62,9.24,9.24,0,0,0-2.49.28,12,12,0,0,0-4.57,2.3A18.69,18.69,0,0,0,281.85,165.08Z"/>
      <g class="cls-21">
        <path d="M292.43,153a19,19,0,0,1,4.46,8.12,24.17,24.17,0,0,1,.81,4.62,17,17,0,0,1-.21,4.72,20.67,20.67,0,0,1-4.12,8.37,24.84,24.84,0,0,1-3.14,3.42c-.58.52-1.17,1-1.79,1.48a7.59,7.59,0,0,1-2,1.15,8.13,8.13,0,0,0,1.88-1.31c.58-.5,1.13-1,1.66-1.58a32.55,32.55,0,0,0,2.91-3.52,22.29,22.29,0,0,0,3.72-8.18,22.12,22.12,0,0,0-.64-8.92A28.63,28.63,0,0,0,292.43,153Z"/>
      </g>
      <g class="cls-22">
        <path d="M361.35,221.46a86.8,86.8,0,0,1-20.4,2.48,69.55,69.55,0,0,1-20.47-2.75l-1.25-.37-1.22-.46-2.45-.94a33.23,33.23,0,0,1-4.7-2.44,39.94,39.94,0,0,1-8.07-6.66,59.27,59.27,0,0,1-11.15-17.23,46.87,46.87,0,0,1-3.16-9.77,13,13,0,0,1-.23-2.68,3.17,3.17,0,0,1,.41-1.58,1.2,1.2,0,0,1,.4-.44,1.54,1.54,0,0,1,.54-.22,2.4,2.4,0,0,1,.88,0,9.14,9.14,0,0,1,2.58.94c.78.39,1.52.81,2.26,1.24,5.82,3.51,11.34,7.36,17.09,10.78a71.18,71.18,0,0,0,8.76,4.59,20.34,20.34,0,0,0,2.23.77c.78.14,1.52.36,2.31.44s1.57.22,2.38.23l1.21.06h1.21a74.28,74.28,0,0,0,19.35-3.51l.95,2.85a79.63,79.63,0,0,1-10,2.51,59.84,59.84,0,0,1-10.3,1h-1.3l-1.32-.08c-.87,0-1.76-.18-2.64-.3s-1.75-.41-2.62-.61a21.39,21.39,0,0,1-2.51-1,63.38,63.38,0,0,1-8.91-5.14c-2.81-1.89-5.56-3.85-8.31-5.79s-5.49-3.89-8.34-5.62c-.71-.42-1.43-.83-2.16-1.19a8.32,8.32,0,0,0-2.14-.8,1.18,1.18,0,0,0-.37,0l0,0s0,0,0,0a2.18,2.18,0,0,0-.16.84A12.89,12.89,0,0,0,290,183a40.05,40.05,0,0,0,3.32,9.3,55.75,55.75,0,0,0,11.56,15.91,40,40,0,0,0,7.76,5.78,33.49,33.49,0,0,0,4.32,2.06l2.29.81,1.15.41,1.17.31,2.35.66c.79.19,1.6.34,2.4.51,1.58.37,3.22.56,4.83.8s3.27.34,4.9.45,3.29.16,4.94.16a90.85,90.85,0,0,0,9.89-.39,98.26,98.26,0,0,0,9.8-1.27Z"/>
      </g>
    </g>
    <g id="Ebene_10" data-name="Ebene 10">
      <path class="cls-23" d="M282,140.83c.82,6.53,30,16,39,17s26,2.5,26,2.5-1,3-16,5.5-33.5,1.5-35.5,4-4,4,1.5,9,18.5,12,34.5,14a204.84,204.84,0,0,0,29.5,1.5l3,4.5,2.5,1.5a75.44,75.44,0,0,1-2.5,12.5c-2,7-8.5,20-8.5,20s5,5,10.5,6.5,13.5,4,13.5,4l-5.5,8.5s6.5,4,18.5,5,19.5-.5,19.5-.5l7-8.5s15,3.5,37.5.5,41-9,42.5-10.5,1.5-5,1.5-5l-.5-6.5a79.9,79.9,0,0,0,8.5-1.5,54.58,54.58,0,0,0,12.5-4s-5-30-11.5-41.5a199.42,199.42,0,0,0-12.5-19.5s-7.43-38.89-22.5-63-26.5-28-34.5-31-61.5-5.5-74,3-17.5,18.5-21.5,25.5-9.5,25.5-9.5,25.5l-1.5,6a107.06,107.06,0,0,0-25,2.5C295,131.33,281.5,136.83,282,140.83Z"/>
      <path class="cls-24" d="M282,140.83s30,13.5,64,10,40-8,51.5-12c13.63-4.74,24,5.5,30,18.5,5.75,12.47,9.5,26.5,9,48.5a154.3,154.3,0,0,1-7.5,43.5l-10-1.5-7,8.5s-7.5,1.5-19.5.5-18.5-5-18.5-5l5.5-8.5s-9-3-13.5-4-10.5-6.5-10.5-6.5,7.5-16,8.5-20,2.5-12.5,2.5-12.5l-5.5-6a98.35,98.35,0,0,1-37-2c-20-5-31.5-17-30.5-20.5s11.5-4,19-4,20.5-1,23-3a12,12,0,0,0,3.5-5s-24.5-3-33-4.5-15-6-18-7.5S282,140.83,282,140.83Z"/>
      <path class="cls-25" d="M407,145.83s-3,20.5-34,27.5-51,2.5-60.5,1.5a51.64,51.64,0,0,1-17-5s20-1,30-3a90.65,90.65,0,0,0,18.5-6s11,0,30.5-3.5A102.1,102.1,0,0,0,407,145.83Z"/>
      <path class="cls-26" d="M329.5,176.33s3-5.5,11.5-9.5,13.5-6,13.5-6a237.41,237.41,0,0,0,27-5.5,199,199,0,0,0,25.5-9.5s-4.5,18-23,24.5a141.89,141.89,0,0,1-41.5,7.5A103.51,103.51,0,0,1,329.5,176.33Z"/>
      <path class="cls-19" d="M342.67,126.33S345,112.67,348.33,107s6-10,6-10,11.34,5,29,2.67S410.67,79,410.67,79a68.31,68.31,0,0,0,16.66-2.33c8-2.34,13.67-11,13.67-11l-82,8.66s-9.33,9.67-15,19S334.67,126,334.67,126Z"/>
      <path class="cls-19" d="M298.33,180a71.84,71.84,0,0,0,33.17,12.83c20.17,2.5,29.5,1.5,29.5,1.5l5.33,5s-1.66,12.34-2.66,15.67-7,18-7,18l9.33,6.33s4.67-17.66,5.33-22,.34-17,.34-17L368,193.67,389,189a212.65,212.65,0,0,1-48.67-.33C315,185.33,298.33,180,298.33,180Z"/>
      <path class="cls-19" d="M477,102.67s14,44.66,16,86.66C494.51,221,490.33,242,490.33,242l9.67-5.33,2.33-11,7.34-.67s-3-22-5.34-31.33-6.66-22-6.66-22-1.67-21-6.34-34.34S477,102.67,477,102.67Z"/>
      <path class="cls-19" d="M425.67,234.33s-11.34,12-15,15S401,257,401,257l11-.67,7-8.5,5.33.17Z"/>
    </g>
    <g id="Ebene_7" data-name="Ebene 7">
      <path class="cls-27" d="M334.5,124.83a74.78,74.78,0,0,1,11-33.5c10.5-17,36.51-31.39,71-30.5,38.5,1,53.5,23,66.5,53.5,15.17,35.6,20,96,18,121.5"/>
      <path d="M366,128.33a39.76,39.76,0,0,0-6.84-.94c-2.3-.14-4.59-.25-6.88-.24s-4.59,0-6.88.08c-1.15,0-2.29.06-3.44.12s-2.29.09-3.43.17a269.41,269.41,0,0,0-27.31,2.66A108.79,108.79,0,0,0,297.9,133a56.56,56.56,0,0,0-6.38,2.23,26.85,26.85,0,0,0-5.74,3.14,7.53,7.53,0,0,0-2,2,2.48,2.48,0,0,0-.19.43c0,.05,0,.11,0,.14s0,0,0,0a2.86,2.86,0,0,0,.5.78,13.16,13.16,0,0,0,2.31,2,31.4,31.4,0,0,0,2.8,1.74,71.44,71.44,0,0,0,12.51,5.22,143.07,143.07,0,0,0,26.7,5.59,169.8,169.8,0,0,0,27.21,1.2c4.53-.22,9.05-.64,13.54-1.31a135.89,135.89,0,0,0,13.37-2.72c2.2-.59,4.39-1.19,6.57-1.87s4.33-1.45,6.47-2.24a97.43,97.43,0,0,0,12.49-5.63l.84,1.22a74.38,74.38,0,0,1-12.13,7.2,106.81,106.81,0,0,1-13.09,5.27A114.25,114.25,0,0,1,356,162.77a133.56,133.56,0,0,1-55.53-8.34,87,87,0,0,1-12.88-6,36.17,36.17,0,0,1-3.06-2,16.51,16.51,0,0,1-2.88-2.61,5.24,5.24,0,0,1-1.15-2.23,2.87,2.87,0,0,1-.05-.89,3.89,3.89,0,0,1,.13-.71,5.4,5.4,0,0,1,.48-1.17,10.65,10.65,0,0,1,2.8-3c4.08-3,8.52-4.68,13-6.28a109.3,109.3,0,0,1,13.67-3.63,134.46,134.46,0,0,1,28-2.37c1.17,0,2.34.06,3.51.11s2.34.1,3.51.18,2.34.18,3.51.32,2.33.24,3.49.42a65,65,0,0,1,6.92,1.34,33.72,33.72,0,0,1,3.39,1A18.45,18.45,0,0,1,366,128.33Z"/>
      <path d="M391.5,188.83a71.93,71.93,0,0,1-9.67,3.49c-3.28,1-6.64,1.73-10,2.39a120.54,120.54,0,0,1-20.52,2c-.87,0-1.73.05-2.59,0l-2.59-.07-2.59-.07-2.58-.17a99.32,99.32,0,0,1-10.3-1.19,83.09,83.09,0,0,1-20-5.76,56.39,56.39,0,0,1-9.21-5.1,29,29,0,0,1-7.73-7.52,10.68,10.68,0,0,1-2-5.65,6.7,6.7,0,0,1,.08-.87l.09-.45a2.65,2.65,0,0,1,.29-.72,3.68,3.68,0,0,1,1.75-1.44,11.36,11.36,0,0,1,2.9-.7c3.59-.43,7-.37,10.37-.47s6.75-.19,10.08-.48a98.69,98.69,0,0,0,9.92-1.42,89.62,89.62,0,0,0,9.72-2.42c1.6-.49,3.17-1,4.72-1.62s3.12-1.24,4.49-1.92l1.64,3.17a51.52,51.52,0,0,1-4.9,2c-1.64.59-3.29,1.14-4.95,1.63-3.33,1-6.69,1.79-10.09,2.43a100.65,100.65,0,0,1-10.27,1.43c-3.45.28-6.89.38-10.3.44s-6.84,0-10,.4a8.71,8.71,0,0,0-2,.46c-.25.09-.35.24-.24.09a.39.39,0,0,0,.05-.13l0,.17a2.73,2.73,0,0,0,0,.41,7.55,7.55,0,0,0,1.46,3.82,25.8,25.8,0,0,0,6.9,6.53,48.19,48.19,0,0,0,8.69,4.63,84.15,84.15,0,0,0,19.2,5.21c3.3.5,6.63.88,10,1.07l2.5.19,2.51.09c1.68.07,3.35.12,5,.1A220.41,220.41,0,0,0,391.5,188.83Z"/>
      <path d="M360.38,194.18c.29.22.75.58,1.17.84s.89.55,1.35.8a24.37,24.37,0,0,0,2.89,1.32,39,39,0,0,0,6.27,1.78c2.18.46,4.39.8,6.62,1.08a46.59,46.59,0,0,0,6.82.33,20.12,20.12,0,0,1-6.84,1.66,35.53,35.53,0,0,1-7.07-.14c-1.18-.15-2.37-.37-3.54-.64A24.22,24.22,0,0,1,364.6,200a17.69,17.69,0,0,1-3.23-1.8,16.48,16.48,0,0,1-1.45-1.2,8.47,8.47,0,0,1-1.29-1.54Z"/>
      <path class="cls-27" d="M355.5,232.83s4.5-9.5,8-19.5a40.73,40.73,0,0,0,2-14"/>
      <path d="M389.21,219.17a43.7,43.7,0,0,1-1.43,8.73,61.33,61.33,0,0,1-2.85,8.42,68.07,68.07,0,0,1-4,7.9,55,55,0,0,1-5,7.3l-2.47-1.7c1.34-2.52,2.77-5,4.19-7.51s2.84-5,4.2-7.49,2.63-5.06,3.87-7.67S388.09,221.89,389.21,219.17Z"/>
      <path d="M411.25,254.29c1.19-1.34,2.41-2.67,3.55-4.08s2.29-2.81,3.37-4.28,2.16-3,3.2-4.48,2.1-3,3.13-4.62a39.91,39.91,0,0,1-4.29,10.43,45.1,45.1,0,0,1-3.08,4.77,38.29,38.29,0,0,1-3.71,4.34Z"/>
      <path d="M518.6,221.06c-.64-5.68-1.63-11.45-2.8-17.12s-2.58-11.32-4.24-16.88l-.63-2.09c-.22-.68-.46-1.33-.69-2-.51-1.32-1.06-2.65-1.68-4-1.22-2.6-2.59-5.16-4-7.67-2.93-5-6.12-9.91-9.5-14.64l1-.73q5.38,7,10.13,14.41c1.57,2.49,3.05,5,4.42,7.67.69,1.31,1.31,2.67,1.9,4,.27.7.56,1.41.81,2.11l.72,2.08c1.9,5.57,3.52,11.23,4.94,17s2.62,11.45,3.51,17.37Z"/>
      <path d="M296.57,170c5,1.39,10.06,2.54,15.16,3.47s10.24,1.71,15.4,2.23a137.88,137.88,0,0,0,30.93-.06c10.18-1.33,20.34-3.89,29.34-8.74a47,47,0,0,0,12.13-9.13,31.84,31.84,0,0,0,7.67-12.91l1.6.38a27.68,27.68,0,0,1-2.91,7.53,37.66,37.66,0,0,1-4.64,6.57,49.56,49.56,0,0,1-12.54,9.94,58.89,58.89,0,0,1-7.22,3.44,72.7,72.7,0,0,1-7.52,2.61,94,94,0,0,1-15.56,3.19,119.43,119.43,0,0,1-15.81.79,138.15,138.15,0,0,1-15.76-1.1,161.66,161.66,0,0,1-30.74-6.77Z"/>
      <path d="M327.81,176.85a8,8,0,0,1,1.1-2.48,14.67,14.67,0,0,1,1.59-2.08,24.13,24.13,0,0,1,3.89-3.4,43.88,43.88,0,0,1,9-4.66c1.56-.62,3.17-1.12,4.77-1.62s3.23-.86,4.88-1.16a40.7,40.7,0,0,1,10-.78c-3.2.94-6.32,1.91-9.4,3s-6.12,2.15-9.1,3.4a74,74,0,0,0-8.65,4.13,33.79,33.79,0,0,0-3.89,2.66,18.4,18.4,0,0,0-1.72,1.58,9.94,9.94,0,0,0-1.38,1.76Z"/>
      <path d="M354.41,231.45a12.9,12.9,0,0,0,2.51,2.17,27.75,27.75,0,0,0,2.92,1.74,41.24,41.24,0,0,0,6.3,2.58c2.16.74,4.39,1.29,6.62,1.85l3.38.74c1.13.23,2.27.43,3.4.7l-.41,2.87c-1.19-.11-2.38-.3-3.57-.44s-2.37-.46-3.54-.71-2.34-.62-3.5-1-2.3-.75-3.42-1.25a31.8,31.8,0,0,1-6.44-3.47,15.56,15.56,0,0,1-5.06-5.38Z"/>
      <path d="M418.47,246.43c3.65.32,7.35.5,11,.64s7.38.23,11.07.24a210.51,210.51,0,0,0,22.05-1,145.62,145.62,0,0,0,21.67-3.82A66.11,66.11,0,0,0,494.62,239a28.14,28.14,0,0,0,4.66-2.6,12.24,12.24,0,0,0,2-1.67,8.31,8.31,0,0,0,.75-1,4.08,4.08,0,0,0,.28-.49c.07-.14.14-.39.14-.36l1.85.14a3.62,3.62,0,0,1-.27,1,5.54,5.54,0,0,1-.37.73,9.1,9.1,0,0,1-.91,1.27,14.42,14.42,0,0,1-2.18,2,29.81,29.81,0,0,1-4.92,3A65.59,65.59,0,0,1,485,245a137.94,137.94,0,0,1-22.06,4.26,194.74,194.74,0,0,1-22.39,1c-3.73-.07-7.46-.18-11.18-.4s-7.43-.55-11.16-1Z"/>
      <path d="M501.67,224.5c.8-.05,1.77-.12,2.67-.23l2.78-.33c1.85-.24,3.71-.52,5.58-.82,3.73-.59,7.47-1.28,11.3-1.79-.86.44-1.74.83-2.62,1.23s-1.78.74-2.67,1.09c-1.81.67-3.63,1.3-5.49,1.81s-3.73,1-5.64,1.37a33.81,33.81,0,0,1-5.91.67Z"/>
      <path d="M371.66,249.07a10.66,10.66,0,0,0,1,.74c.38.25.77.47,1.17.69a26.7,26.7,0,0,0,2.48,1.16,41.11,41.11,0,0,0,5.27,1.73,77.86,77.86,0,0,0,11,2,103.85,103.85,0,0,0,11.28.73,62.11,62.11,0,0,0,11.3-.82l.18.48A35.79,35.79,0,0,1,404,258.51a63.62,63.62,0,0,1-11.71,0l-2.92-.35-2.9-.47a48.21,48.21,0,0,1-5.73-1.48,30.67,30.67,0,0,1-5.48-2.35,22.87,22.87,0,0,1-2.54-1.64A11.31,11.31,0,0,1,370.5,250Z"/>
      <path class="cls-4" d="M361.49,250.24a2.61,2.61,0,0,0,.16,2.22,6.35,6.35,0,0,0,1.39,1.79,17.92,17.92,0,0,0,3.78,2.61,48.75,48.75,0,0,0,8.55,3.54,70,70,0,0,0,9,2.19,66.1,66.1,0,0,0,9.19,1c3.06.13,6.18,0,9.28-.17s6.19-.5,9.27-.91a74.51,74.51,0,0,0,9.14-1.78,29.13,29.13,0,0,0,4.4-1.47,9.82,9.82,0,0,0,2-1.13,3,3,0,0,0,.78-.81,1.19,1.19,0,0,0,.15-1.1,1.28,1.28,0,0,1,0,1.16,3.32,3.32,0,0,1-.72,1,10.2,10.2,0,0,1-2,1.38,30.2,30.2,0,0,1-4.35,1.94,60.87,60.87,0,0,1-9.17,2.38,91.15,91.15,0,0,1-18.89,1.53,62.85,62.85,0,0,1-18.62-3.74,43.09,43.09,0,0,1-8.55-4.17,18.63,18.63,0,0,1-3.66-3.09,6.55,6.55,0,0,1-1.29-2A2.77,2.77,0,0,1,361.49,250.24Z"/>
      <path class="cls-4" d="M524.33,215a32.56,32.56,0,0,1,10.48,1.47,18.87,18.87,0,0,1,5,2.28,6.59,6.59,0,0,1,2.12,2.2,2.24,2.24,0,0,1,.25,1.13,2.49,2.49,0,0,1-.3,1,4.44,4.44,0,0,1-1.11,1.28,16.69,16.69,0,0,1-5,2.4,38,38,0,0,1-5.19,1.24,46.05,46.05,0,0,1-10.54.64c3.46-.62,6.87-1.29,10.21-2.15,1.66-.46,3.32-.92,4.91-1.51a16,16,0,0,0,4.36-2.17,2.9,2.9,0,0,0,.63-.67c.1-.21.09-.21,0-.34a5.15,5.15,0,0,0-1.47-1.54,20.53,20.53,0,0,0-4.4-2.35A60.19,60.19,0,0,0,524.33,215Z"/>
      <path class="cls-4" d="M352.67,227a37.1,37.1,0,0,0-9.32,3.66,7.16,7.16,0,0,0-1.64,1.46,1.51,1.51,0,0,0-.33.72.84.84,0,0,0,.12.59,9.31,9.31,0,0,0,1.48,1.7,24.16,24.16,0,0,0,1.9,1.55,34.59,34.59,0,0,0,4.21,2.69,42.19,42.19,0,0,0,4.54,2.19,60,60,0,0,0,9.7,3.11,38.17,38.17,0,0,1-10.18-1.82,35.55,35.55,0,0,1-9.4-4.61c-.72-.51-1.42-1.07-2.1-1.66a10.58,10.58,0,0,1-1.88-2.16,2.85,2.85,0,0,1-.34-1.88,3.46,3.46,0,0,1,.73-1.58,7.54,7.54,0,0,1,2.26-1.83,17.29,17.29,0,0,1,5.05-1.73A23.34,23.34,0,0,1,352.67,227Z"/>
      <path class="cls-4" d="M436.5,256.17c7.48,0,14.95-.37,22.39-.91s14.85-1.44,22.19-2.63l2.75-.46,2.74-.53c1.83-.34,3.63-.77,5.43-1.19s3.57-1,5.35-1.45c.89-.25,1.74-.6,2.61-.9a24.64,24.64,0,0,0,2.56-1c.83-.38,1.7-.7,2.51-1.11s1.62-.82,2.42-1.26,1.55-.93,2.28-1.45l1.06-.82.54-.41.48-.46c.31-.31.65-.6.95-.92l.81-1a7.89,7.89,0,0,0,1.18-2.31l.11-.31,0-.31.09-.65a2.76,2.76,0,0,0,0-.64,2.82,2.82,0,0,0-.08-.65,4.31,4.31,0,0,0-1.4-2.27,4.27,4.27,0,0,1,2,2.09,3.44,3.44,0,0,1,.22.71,4,4,0,0,1,.14.75v1.13l-.08.37a10.05,10.05,0,0,1-2.79,5.18,26.55,26.55,0,0,1-9.66,6.22c-.87.4-1.76.71-2.66,1s-1.79.65-2.7.91c-1.83.49-3.63,1.09-5.48,1.45s-3.68.85-5.53,1.15l-2.78.49-2.78.42a205.44,205.44,0,0,1-22.41,2c-3.74.18-7.49.22-11.23.17S440.23,256.45,436.5,256.17Z"/>
      <path class="cls-4" d="M365.16,267a53.93,53.93,0,0,0,8.53,2.36c2.89.61,5.8,1.06,8.73,1.39a140.52,140.52,0,0,0,17.65.75,157.22,157.22,0,0,0,17.62-1.21,72.36,72.36,0,0,0,8.66-1.68,38.79,38.79,0,0,0,4.21-1.33,17.29,17.29,0,0,0,3.91-2,14.85,14.85,0,0,1-3.75,2.39,39.24,39.24,0,0,1-4.16,1.67,70.07,70.07,0,0,1-8.69,2.11A116.44,116.44,0,0,1,400.09,273a108.41,108.41,0,0,1-17.82-1.11C376.4,270.92,370.51,269.61,365.16,267Z"/>
      <path class="cls-4" d="M455.32,262.59c3.71-.18,7.42-.44,11.12-.75,1.85-.19,3.7-.34,5.54-.56s3.69-.39,5.53-.63a217.35,217.35,0,0,0,21.87-3.83,109.45,109.45,0,0,0,21-6.88l2.49-1.15,2.38-1.31c.77-.47,1.51-1,2.27-1.45l1-.82.52-.41c.17-.15.31-.31.47-.46a7.62,7.62,0,0,0,2.65-4.29,6.06,6.06,0,0,0-1.49-4.93,6,6,0,0,1,2.54,5v.39l-.07.37-.15.75a12.25,12.25,0,0,1-.55,1.42c-.25.43-.52.84-.79,1.27a14.58,14.58,0,0,1-.94,1.14,6.82,6.82,0,0,1-1,1l-1.09,1c-.78.55-1.55,1.15-2.36,1.64l-2.48,1.42-2.57,1.2a102.85,102.85,0,0,1-21.4,6.8,186.32,186.32,0,0,1-22.14,3.24c-3.71.37-7.43.55-11.15.7S459,262.7,455.32,262.59Z"/>
      <path class="cls-4" d="M345.93,246.29A71.12,71.12,0,0,1,334.59,244a45.75,45.75,0,0,1-5.5-2,17.58,17.58,0,0,1-5.13-3.24,5,5,0,0,1-1.58-3.11,3.43,3.43,0,0,1,.06-1c.06-.31.14-.55.21-.82a8,8,0,0,1,.68-1.49,11.41,11.41,0,0,1,4.6-4.12,22.16,22.16,0,0,1,5.57-2,26.43,26.43,0,0,1,5.79-.71,42.92,42.92,0,0,0-10.49,4.23,11,11,0,0,0-3.78,3.59,8.65,8.65,0,0,0-.5,1.13c0,.19-.13.41-.16.57a1.87,1.87,0,0,0,0,.47,3.16,3.16,0,0,0,1,1.9,17.38,17.38,0,0,0,4.49,3,53.74,53.74,0,0,0,5.21,2.24C338.58,244,342.24,245.16,345.93,246.29Z"/>
      <path d="M402.67,141.33a10,10,0,0,1,3.85,0,8.87,8.87,0,0,1,3.71,1.54,6.38,6.38,0,0,1,1.43,1.65,10.64,10.64,0,0,1,.88,1.71,10,10,0,0,1,.79,3.76,18.76,18.76,0,0,1-2.75-2.53l-1.15-1.27a10.56,10.56,0,0,0-1-1c-.7-.52-1.73-1.09-2.71-1.7A20.33,20.33,0,0,1,402.67,141.33Z"/>
    </g>
    <g id="Ebene_11" data-name="Ebene 11">
      <g class="cls-28">
        <path class="cls-4" d="M400.21,124c.22,4.76,4.19,7,9,7,5.85.09,8.69-3.75,8.44-7.69a9.36,9.36,0,0,0-8.92-8.39C403.94,114.71,400,118.57,400.21,124Z"/>
      </g>
      <g class="cls-28">
        <path class="cls-4" d="M338.22,113.62c-.82,3.42-.41,7.33,4.71,8.71a6.88,6.88,0,0,0,8.74-5.38,7.57,7.57,0,0,0-7.3-8.73C341.38,108.14,339.09,110,338.22,113.62Z"/>
      </g>
      <ellipse cx="406.83" cy="123.68" rx="6.05" ry="4.4" transform="matrix(0.07, -1, 1, 0.07, 255.18, 520.94)"/>
      <ellipse cx="343.47" cy="116.01" rx="5.4" ry="3.74" transform="translate(202.62 450.07) rotate(-85.8)"/>
      <path d="M418.05,123.53a12.93,12.93,0,0,0-2.84-4.93,10.49,10.49,0,0,0-2.1-1.67,11.93,11.93,0,0,0-2.47-1,10,10,0,0,0-5.25-.23,8.11,8.11,0,0,0-4.4,3.26,6.52,6.52,0,0,1,3.81-4.84,9.23,9.23,0,0,1,6.42-.17,9.64,9.64,0,0,1,5.2,3.71A9.07,9.07,0,0,1,418.05,123.53Z"/>
      <path d="M351.88,113.8a12.58,12.58,0,0,0-3.09-3.6,7.21,7.21,0,0,0-4-1.41,6.2,6.2,0,0,0-4.06,1.08,8.84,8.84,0,0,0-2.73,3.75,6.37,6.37,0,0,1,1.73-4.88,6.13,6.13,0,0,1,2.38-1.51,8.47,8.47,0,0,1,2.76-.37,7.11,7.11,0,0,1,5,2.22A7.67,7.67,0,0,1,351.88,113.8Z"/>
      <g class="cls-20">
        <path d="M421.42,113.62a17,17,0,0,0-3.87-3.7,20.34,20.34,0,0,0-4.78-2.44,25.83,25.83,0,0,0-5.23-1.24,18.15,18.15,0,0,0-5.31.1l-.5-1.1a11.57,11.57,0,0,1,6-1.33,18.31,18.31,0,0,1,5.92,1.25,18,18,0,0,1,5.23,3.08,13.49,13.49,0,0,1,3.65,4.85Z"/>
      </g>
      <g class="cls-20">
        <path d="M352.35,101.57a16.71,16.71,0,0,0-3.52-.83,16.28,16.28,0,0,0-3.56,0,10.4,10.4,0,0,0-3.27,1,12.36,12.36,0,0,0-2.84,1.9l-1.41-1a8.94,8.94,0,0,1,3.17-2.92A9.91,9.91,0,0,1,345,98.46a12.61,12.61,0,0,1,4.16.38,11.37,11.37,0,0,1,3.77,1.71Z"/>
      </g>
      <path class="cls-4" d="M441.09,61l-2.81-12.59s-29.6-2.3-52.12,4.69c-11.81,3.67-36.45,25.69-36.45,25.69l12.73,7.17s27.46-14,38.29-15.61C420.3,67.47,441.09,61,441.09,61Z"/>
      <path class="cls-29" d="M353,80.67l-5.33,5s-21.43-8.36-17.44-11.22C333.65,72,353,80.67,353,80.67Z"/>
      <path class="cls-30" d="M439.87,61.62s-7.21,7.09-10.65,8.84c-8.51,4.33-14.74,4.5-14.74,4.5s2.86-29.78-2.77-36.35-11.63-8-17.21-9.78c-8.62-2.76-21.25-3.5-21.25-3.5L393,21.58s5.12-5.92,8.9-4.2a23.75,23.75,0,0,1,7,5.51S422.82,21.41,434.66,35C443.12,44.73,439.87,61.62,439.87,61.62Z"/>
      <path class="cls-31" d="M407.58,74.86s-15.77,16.3-28.42,16.79-20.69-7.36-28.16-11a96.7,96.7,0,0,0-19.48-7.06l25.76-11a111.66,111.66,0,0,0,22,8.32C392.49,74.4,407.58,74.86,407.58,74.86Z"/>
      <path class="cls-4" d="M414.1,73.57s-20.22,1.21-35.74-2.9c-15.34-4.06-19.8-8-19.8-8s2.85-26.57,8.52-31a92.66,92.66,0,0,1,8.26-6c-2.41.15,25.68,1.08,35.32,11.18C418.7,45.26,414.1,73.57,414.1,73.57Z"/>
      <path d="M350.1,88a48,48,0,0,1-13.38-5.28,35.55,35.55,0,0,1-5.91-4.24c-.45-.42-.9-.86-1.33-1.34a6.76,6.76,0,0,1-1.19-1.72,2.27,2.27,0,0,1-.19-1.6,1.69,1.69,0,0,1,.67-.92,2.18,2.18,0,0,1,.76-.32,8.53,8.53,0,0,1,2-.16,34.4,34.4,0,0,1,7.19,1.19c2.32.62,4.61,1.31,6.85,2.14a63,63,0,0,1,6.62,2.83c2.17,1.08,4.18,2.32,6.21,3.46a51,51,0,0,0,12.39,5.58,25.33,25.33,0,0,0,13.05,0A42.84,42.84,0,0,0,396.12,82a60.24,60.24,0,0,0,10.59-8.58h0l.42-.49.77,0c1.29-.07,2.73-.25,4.1-.46s2.78-.43,4.16-.71c2.76-.56,5.52-1.2,8.23-2,1.37-.41,2.69-.77,4-1.26a34.63,34.63,0,0,0,3.76-1.62,34.8,34.8,0,0,0,3.58-2,27.51,27.51,0,0,0,3.24-2.34h0l-.51,1.23A107.68,107.68,0,0,0,437.18,49a63.47,63.47,0,0,0-1.54-7.2A29.14,29.14,0,0,0,433,35.17a11.89,11.89,0,0,0-2-2.68,30.7,30.7,0,0,0-2.73-2.35,32.68,32.68,0,0,0-6.17-3.75,33.2,33.2,0,0,0-6.86-2.32,29,29,0,0,0-7.11-.72h0l-.39.06-1-1.11c-.06-.08-.22-.4-.38-.6a4,4,0,0,0-.55-.62,5.66,5.66,0,0,0-1.43-.95,10.76,10.76,0,0,0-3.66-.9,7.29,7.29,0,0,0-3.46.47,5.3,5.3,0,0,0-1.38.88,5,5,0,0,0-.59.62c-.18.2-.37.5-.47.63h0l-1.3,1a53.35,53.35,0,0,0-14.79,2.43,30.84,30.84,0,0,0-6.72,3,16,16,0,0,0-5,4.92,42.62,42.62,0,0,0-5.34,13.78,86.23,86.23,0,0,0-2,15h0l-.07,1.28-1.1.45c-4.71,1.92-9.41,3.82-14.24,5.56s-9.43,3.58-14.1,5.5l-1-2.14c4.6-2.18,9.21-4.29,13.93-6.26S352.42,62.18,357,60l-1.16,1.72h0A89.22,89.22,0,0,1,358.2,46.1a45.59,45.59,0,0,1,6.14-14.8A21.86,21.86,0,0,1,367,28.11a17.84,17.84,0,0,1,1.61-1.39c.59-.42,1.18-.83,1.76-1.16a34.45,34.45,0,0,1,7.44-3.18,49.86,49.86,0,0,1,7.77-1.68,56.29,56.29,0,0,1,7.93-.59l-1.29,1h0a6,6,0,0,1,.49-1.41,6.93,6.93,0,0,1,2.94-3.07,9.23,9.23,0,0,1,5.36-.93,11.76,11.76,0,0,1,5,1.6,7.21,7.21,0,0,1,2.81,3.1,5.2,5.2,0,0,1,.44,1.51l-1.37-1.06h0a31.07,31.07,0,0,1,7.87.66A35.78,35.78,0,0,1,430,27.84a34.59,34.59,0,0,1,3,2.52,14.8,14.8,0,0,1,2.56,3.3,32.19,32.19,0,0,1,3,7.29,66.53,66.53,0,0,1,1.72,7.53,111.37,111.37,0,0,1,1.5,15.27l0,.7-.53.53h0a27.64,27.64,0,0,1-3.59,3,37.47,37.47,0,0,1-3.89,2.34,41,41,0,0,1-8.42,3.18,84.18,84.18,0,0,1-8.61,1.9,54,54,0,0,1-8.9.8l1.18-.53h0a63.4,63.4,0,0,1-11.1,9.3A46.1,46.1,0,0,1,384.74,91a28,28,0,0,1-14.8-.12,51.32,51.32,0,0,1-13.16-6.08c-2-1.24-4-2.49-6-3.63a63.19,63.19,0,0,0-6.17-3.06,53.72,53.72,0,0,0-6.5-2.37,28,28,0,0,0-6.65-1.27,5.57,5.57,0,0,0-1.47.12c-.07,0-.08,0,0,0a.47.47,0,0,0,.16-.21c0-.19,0-.06.1.09a5.39,5.39,0,0,0,.89,1.11,14.5,14.5,0,0,0,1.22,1.09A40.91,40.91,0,0,0,338,80.39a63.28,63.28,0,0,0,12.65,5.3Z"/>
      <path d="M408.06,75.26c-4.47,0-8.9-.18-13.34-.56a96.81,96.81,0,0,1-13.27-2c-2.18-.53-4.32-1.1-6.47-1.72-1.07-.3-2.13-.66-3.2-1s-2.11-.73-3.16-1.12a56.94,56.94,0,0,1-6.17-2.68,24.79,24.79,0,0,1-5.71-3.75l.77-.82a33.3,33.3,0,0,0,5.71,2.92c2,.81,4.06,1.58,6.13,2.26,4.15,1.36,8.38,2.56,12.65,3.53a105,105,0,0,0,12.93,2c4.37.41,8.77.7,13.14.82Z"/>
      <path d="M413.31,73.37a132.23,132.23,0,0,0,1.09-19.28,50.88,50.88,0,0,0-1-9.5,15.93,15.93,0,0,0-1.55-4.33A18.59,18.59,0,0,0,409,36.59a23,23,0,0,0-8-4.9c-3-1.15-6.1-2.08-9.21-3a56.09,56.09,0,0,0-9.44-2,44.82,44.82,0,0,0-9.61-.22l-.12-.91a52.68,52.68,0,0,1,19.48,2c3.15.83,6.3,1.7,9.4,2.83a24.4,24.4,0,0,1,8.6,5.06,20.74,20.74,0,0,1,3.19,4,18.39,18.39,0,0,1,1.82,4.77A53.2,53.2,0,0,1,416.35,54a134.19,134.19,0,0,1-.75,19.64Z"/>
      <g class="cls-32">
        <path d="M391.43,28.09a24.56,24.56,0,0,0-10.24,6.4c-2.68,3-4,7-5,11A91.71,91.71,0,0,0,374,57.6c-.48,4.09-.81,8.21-.94,12.31l-1.54,0c.21-4.17.61-8.3,1.16-12.43a95.08,95.08,0,0,1,2.42-12.25,45.24,45.24,0,0,1,2.06-5.93,18.82,18.82,0,0,1,3.38-5.36,21.64,21.64,0,0,1,5-3.88,28.38,28.38,0,0,1,5.75-2.53Z"/>
      </g>
    </g>
  </g>
</svg>
