<svg xmlns="http://www.w3.org/2000/svg" xmlns:xlink="http://www.w3.org/1999/xlink" width="610.67" height="642.5" viewBox="0 0 610.67 642.5">
  <defs>
    <style>
      .cls-1 {
        fill: none;
      }

      .cls-2 {
        isolation: isolate;
      }

      .cls-3 {
        fill: url(#Unbenannter_Verlauf_178);
      }

      .cls-4 {
        opacity: 0.5;
      }

      .cls-5 {
        fill: #9bc9dd;
      }

      .cls-6 {
        fill: #2c7599;
      }

      .cls-7 {
        clip-path: url(#clip-path);
      }

      .cls-8 {
        clip-path: url(#clip-path-2);
      }

      .cls-9 {
        fill: #578a9e;
        opacity: 0.3;
        mix-blend-mode: multiply;
      }

      .cls-10 {
        fill: #afdee2;
      }

      .cls-11 {
        fill: #89cfe0;
        opacity: 0.61;
      }

      .cls-12, .cls-13 {
        fill: #ccb57a;
      }

      .cls-13, .cls-14 {
        stroke: #000;
        stroke-miterlimit: 10;
        stroke-width: 1.97px;
      }

      .cls-14 {
        fill: #e2c447;
      }

      .cls-15 {
        opacity: 0.11;
      }

      .cls-16 {
        fill: #ddc14b;
      }

      .cls-17 {
        fill: #8dbfc9;
      }

      .cls-18 {
        fill: #6daabf;
      }

      .cls-19 {
        fill: #96cdd6;
      }

      .cls-20 {
        fill: #629999;
      }

      .cls-21 {
        fill: #8e8059;
      }

      .cls-22 {
        fill: #5d8c9b;
      }

      .cls-23 {
        fill: #bc5c6c;
      }

      .cls-24, .cls-29 {
        fill: #fff;
      }

      .cls-24 {
        opacity: 0.51;
      }

      .cls-25 {
        fill: #d6953e;
      }

      .cls-26 {
        fill: #f9ba53;
      }

      .cls-27 {
        fill: #e58cc7;
      }

      .cls-28 {
        opacity: 0.9;
      }

      .cls-30 {
        fill: #303b3f;
      }

      .cls-31 {
        fill: #be1432;
      }

      .cls-32 {
        fill: #455b60;
      }
    </style>
    <linearGradient id="Unbenannter_Verlauf_178" data-name="Unbenannter Verlauf 178" x1="1526.29" y1="543.46" x2="1526.29" y2="235.35" gradientTransform="matrix(-1, 0, 0, 1, 1828.83, 0)" gradientUnits="userSpaceOnUse">
      <stop offset="0.15" stop-color="#c5f0ff"/>
      <stop offset="0.7" stop-color="#e4fbff"/>
      <stop offset="0.87" stop-color="#efffff"/>
    </linearGradient>
    <clipPath id="clip-path">
      <path class="cls-1" d="M232.66,413.33s27.67-32,59-30c42.44,2.71,72,56.34,72,56.34s58.67,13,125-45-22-140.34-82.33-162-210.67-26.67-266-1.34-54,109.34-32,139S232.66,413.33,232.66,413.33Z"/>
    </clipPath>
    <clipPath id="clip-path-2">
      <path class="cls-1" d="M493,388,370.33,32.67,239,31.33,110.33,174l53.33,71.33L131,331.67s11.18-9.39,26-6c11.66,2.66,13.66,21.33,13.66,21.33l86,50c4.34-6.67,16.67-14,31-15,27.65-1.93,62,19.33,62,19.33l78,9.34Z"/>
    </clipPath>
  </defs>
  <title>dolphin_cloud</title>
  <g class="cls-2">
    <g id="cloud_1">
      <path class="cls-3" d="M109.3,344.88l1.49,0c7.52-65.19,56.62-109.55,121.32-109.55,46.36,0,94.86,24.32,118.15,61l.43-.06a80.69,80.69,0,0,1,61.48-28.43c43.54,0,79.07,34.6,81.09,78,1.27-.07,2.55-.12,3.84-.12,41.66,0,75.44,34.09,75.44,76.14S538.76,498,497.1,498A74.35,74.35,0,0,1,468,492.12a122.33,122.33,0,0,1-176.73,24A95.66,95.66,0,0,1,143,492a75.91,75.91,0,0,1-33.66,7.82c-42.39,0-76.76-34.68-76.76-77.47S66.91,344.88,109.3,344.88Z"/>
      <g class="cls-4">
        <path class="cls-5" d="M48.33,468.67s36,34.31,61,31.15S143,492,143,492s35.36,52.46,83.7,49.23,64.56-25.13,64.56-25.13S333.66,554,392.33,540,468,492.12,468,492.12s31.71,17.88,72.38-8.79S570.33,404,571,406s-15.34,48-52,60-68.67-16.67-68.67-16.67-18.67,44-76,53.34C333.66,509.29,285,480,285,480s-34,26.67-70.67,28S149,469.33,149,469.33a123,123,0,0,1-51.34,11.34C68.33,480.67,48.33,468.67,48.33,468.67Z"/>
      </g>
      <path class="cls-6" d="M109.3,342.63h1.53l-2.28,2h0a138,138,0,0,1,10.38-38.91,121.84,121.84,0,0,1,21.88-33.83,116.58,116.58,0,0,1,32-24.49A123.62,123.62,0,0,1,211.07,235a140.29,140.29,0,0,1,40.2-.24A154.49,154.49,0,0,1,290,245.36a149.21,149.21,0,0,1,34.7,20.27A120.39,120.39,0,0,1,352,295.25l-2-.92.43-.06-1.25.69a93.46,93.46,0,0,1,8.6-9,60.56,60.56,0,0,1,4.87-3.89c1.67-1.23,3.4-2.39,5.16-3.48a80,80,0,0,1,22.79-9.72,84.54,84.54,0,0,1,88,31,82.81,82.81,0,0,1,11.88,21.64,91.39,91.39,0,0,1,3.38,12,87.88,87.88,0,0,1,1.54,12.32l-2.19-2a75.1,75.1,0,0,1,17.4,1.09,77.6,77.6,0,0,1,16.67,5,80.38,80.38,0,0,1,15.09,8.66,76.32,76.32,0,0,1,12.86,11.7,79.82,79.82,0,0,1,19.14,65.09,78.23,78.23,0,0,1-39,56.38,72.24,72.24,0,0,1-16.45,6.73,77.18,77.18,0,0,1-17.53,2.64,80.16,80.16,0,0,1-17.57-1.45A82.58,82.58,0,0,1,467,494.43h0l3-.85A124.14,124.14,0,0,1,433,528.32a123.55,123.55,0,0,1-47.88,17,126.41,126.41,0,0,1-12.75,1c-2.13,0-4.26.1-6.39,0l-3.2-.07-3.19-.21a118.49,118.49,0,0,1-25.14-4.41,124.38,124.38,0,0,1-23.68-9.5A129.73,129.73,0,0,1,289.65,518h0l3.26-.1a101.52,101.52,0,0,1-17.74,13.22A100.39,100.39,0,0,1,254.82,540,98.87,98.87,0,0,1,233,544a95.17,95.17,0,0,1-22.17-1.06,96.73,96.73,0,0,1-40.74-16.84,99.85,99.85,0,0,1-16.48-14.79,102.11,102.11,0,0,1-12.8-18h0l3.28,1a73.18,73.18,0,0,1-34.54,9,77.33,77.33,0,0,1-35-8,79.4,79.4,0,0,1-15.14-9.8,83.17,83.17,0,0,1-6.64-6.09,80.86,80.86,0,0,1-5.87-6.82,81.9,81.9,0,0,1-9.3-15.34,80.85,80.85,0,0,1,10.19-84A82.9,82.9,0,0,1,75.05,351a79.51,79.51,0,0,1,16.62-6.14A78.67,78.67,0,0,1,109.3,342.63Zm0,4.51a75.11,75.11,0,0,0-32.66,7.1,72,72,0,0,0-26.12,21.07,73.51,73.51,0,0,0-14.09,30.41,76,76,0,0,0,6.21,49,74.68,74.68,0,0,0,66.87,41.65,79.76,79.76,0,0,0,32.34-6.66l2.21-1,1.07,2h0a94.68,94.68,0,0,0,28.11,30.74,93.24,93.24,0,0,0,38.49,15.55,94,94,0,0,0,60.7-10.68,99.18,99.18,0,0,0,17.09-12.14l1.59-1.41,1.67,1.31h0a122.19,122.19,0,0,0,43.25,22,119.71,119.71,0,0,0,24,4l3,.19,3.05.06c2,.07,4.06,0,6.09,0A122.54,122.54,0,0,0,408,533.67a122.83,122.83,0,0,0,22-10.35,124.54,124.54,0,0,0,35.91-32.66l1.19-1.61,1.81.77h0a69.72,69.72,0,0,0,32,4.92,73.81,73.81,0,0,0,15.91-3,74.27,74.27,0,0,0,52.93-73.62,73.43,73.43,0,0,0-8.31-31.58,75.81,75.81,0,0,0-9.29-13.64,72.16,72.16,0,0,0-26.55-19.32A75,75,0,0,0,493.37,348l-2.11.12-.08-2.09A81.78,81.78,0,0,0,476,301.78c-1.14-1.63-2.4-3.16-3.64-4.71s-2.6-3-4-4.4a74.25,74.25,0,0,0-8.93-7.88,75.73,75.73,0,0,0-21-11.2A75.84,75.84,0,0,0,415,269.4a77.5,77.5,0,0,0-23.48,3,80.25,80.25,0,0,0-21.43,9.83,88.78,88.78,0,0,0-9.39,7.12,74.73,74.73,0,0,0-8.47,8.22l-.52.6-.74.1-.42.05-1.31.18-.7-1.1a116.27,116.27,0,0,0-26.32-28.65A145.16,145.16,0,0,0,288.48,249c-24.1-10.13-51-14.24-76.8-10.14a119.44,119.44,0,0,0-37,12.11,112.24,112.24,0,0,0-30.79,23.72,117,117,0,0,0-21,32.72A133.6,133.6,0,0,0,113,345.15h0l-.25,2-2,0Z"/>
      <g class="cls-7">
        <g class="cls-4">
          <path class="cls-5" d="M148.44,342.51c16.06,24.95,82.24,49.38,148.37,58.47,66.34,9.11,104.41-5.27,114.19-20.22,12.81-19.59-29.05-49.56-73.6-64.27-32.36-10.69-69.31-20.28-94.51-23.32C193.87,287.25,124.06,304.64,148.44,342.51Z"/>
        </g>
      </g>
    </g>
    <g id="dolphin">
      <g class="cls-8">
        <path class="cls-9" d="M217.19,110.85s8.1,7,13.73,8.47a38.86,38.86,0,0,0,11.54,1s17.25,16.59,29.37,15.25,15-3.08,15-3.08,5.91,11,6,15.28l.22,7.22,8.24.75s-2.79-16.69-6.28-23.49A91.89,91.89,0,0,0,286.47,119s-33.15-9.22-43-9.92-26.25,1.76-26.25,1.76"/>
        <path class="cls-9" d="M335.36,183s-12.71,14.84-33,18.07-46.9,3.68-46.9,3.68,8.7,5.33,16.28,6.09,19.09.76,19.09.76.75,2.94,10,14.83a55.11,55.11,0,0,0,15.54,14S305.81,228.9,303,222.08,297.6,207,297.6,207s20.44-4,31.93-12.77S335.36,183,335.36,183"/>
        <path class="cls-9" d="M181.44,158.58S166.15,231,199.34,275.43c30.39,40.63,65.4,43.77,90.41,44.68s56.73-2.8,71.38,1.52c18.24,5.38,27.72,14.64,27.72,14.64l2.28-.73s-13.15-17-35.49-22c-27.47-6.09-68.2.13-95.94-9-33.86-11.17-62.76-43.86-70.87-73.54C179.09,195.33,181.44,158.58,181.44,158.58Z"/>
        <path class="cls-10" d="M310.74,234.51s3.13,14.21,24.93,25.9c28.31,15.18,44,20.16,57.47,34.31a83.08,83.08,0,0,1,20,35.51,123.81,123.81,0,0,1,20.25,9.63c10.9,6.29,22.37,22.39,22.37,22.39s-11-21.49-23.54-28.76a81.6,81.6,0,0,0-17-7.2s-9.26-31.45-32-48.54-36.29-18.41-47.55-24S310.74,234.51,310.74,234.51Z"/>
        <path class="cls-9" d="M398.18,399.12s0-32.34,11.53-43.74c14.14-14,42.38,8.34,42.38,8.34s-24.79-14-38.48-1.55-15.43,36.95-15.43,36.95"/>
        <path class="cls-11" d="M270.22,156.3a146.55,146.55,0,0,1,37.95-.86c24,2.5,31.13,10.42,31.13,10.42a194,194,0,0,0-34.22-6.39C286.54,157.8,270.22,156.3,270.22,156.3Z"/>
        <g>
          <polygon class="cls-12" points="373.3 355.14 227.69 177.28 232.84 173.51 378.76 350.7 373.3 355.14"/>
          <path d="M373.16,356.51q-73.28-89.26-146.08-178.73l-.52-.65.67-.49,5.14-3.76.61-.44.47.57L379.36,350.2l.47.56-.58.55A65.59,65.59,0,0,1,373.16,356.51Zm.28-2.75a39,39,0,0,1,4.82-3.67l-.11,1.11L232.23,174l1.08.14-5.15,3.77.14-1.14Q301.18,265.31,373.44,353.76Z"/>
        </g>
        <g>
          <path class="cls-12" d="M159.32,322.27l89.1-26.85a2.25,2.25,0,0,0,1-3.43h0a2.24,2.24,0,0,0-2.6-.79l-88.93,26.71Z"/>
          <path d="M160.08,320.83l45.5-13.56,22.89-6.79,11.47-3.39,5.75-1.7,1.43-.42.72-.21c.11,0,.26-.07.35-.11a1.18,1.18,0,0,0,.19-.1,1.46,1.46,0,0,0,.66-1.68,1.48,1.48,0,0,0-1.52-1,9.58,9.58,0,0,0-1.27.34l-1.45.43L239,294.32l-11.57,3.43-23.13,6.86-23.1,7-23.07,7.07.53-1a19.17,19.17,0,0,0,.69,1.79A9.49,9.49,0,0,0,160.08,320.83Zm-1.52,2.88c-.24-1.12-.46-2.08-.69-3s-.44-1.76-.69-2.57l-.24-.77.76-.23,23.14-6.8,23.11-6.9,23.07-7,11.54-3.52,5.76-1.75,1.45-.44.72-.22a4,4,0,0,1,.91-.21,3,3,0,0,1,1.8,5.62,2.6,2.6,0,0,1-.47.24l-.38.12-.73.22-1.45.45-5.8,1.79-11.62,3.56-23.31,7.13Z"/>
        </g>
        <polygon class="cls-13" points="305.51 341.92 384.77 312.23 386.64 316.86 307.12 346.31 305.51 341.92"/>
        <g>
          <polygon class="cls-12" points="151.6 322.35 309.62 347.47 309.38 339.34 150.94 316.7 151.6 322.35"/>
          <path d="M152.31,321.67l157.53,24.4-1.64,1.44.2-8.14.84.95L150.86,317.25l.64-.61C151.85,318.39,152.13,320,152.31,321.67ZM150.89,323c-.26-2.12-.42-4.26-.5-6.26l0-.72.66.1,158.5,22.22.78.11.07.83.67,8.12.14,1.74-1.78-.29Z"/>
        </g>
        <g>
          <path class="cls-12" d="M291.39,387.13l80.42-35a2.25,2.25,0,0,0,.73-3.51h0a2.25,2.25,0,0,0-2.66-.56l-80.26,34.88Z"/>
          <path d="M292,385.62l41.14-17.77,20.7-8.91,10.38-4.46,5.2-2.22,1.3-.56.65-.28a1.61,1.61,0,0,0,.42-.24,1.47,1.47,0,0,0-1.07-2.59,1.57,1.57,0,0,0-.46.12l-.63.27-1.31.56-5.24,2.26-10.47,4.5-20.93,9-20.89,9.12-20.85,9.21.42-1a16.23,16.23,0,0,0,.84,1.72A10.14,10.14,0,0,0,292,385.62Zm-1.21,3c-.34-1.09-.66-2-1-2.92s-.6-1.71-.93-2.51l-.29-.72.71-.3,20.95-8.95,20.91-9.05L352,355l10.43-4.58,5.22-2.29,1.3-.57.67-.3a3.11,3.11,0,0,1,.92-.23,3,3,0,0,1,3.07,1.84,3.08,3.08,0,0,1-.83,3.5,4,4,0,0,1-.4.28,2.92,2.92,0,0,1-.39.2l-.66.29-1.31.58-5.24,2.33-10.51,4.64L333.21,370Z"/>
        </g>
        <g>
          <polygon class="cls-12" points="144.96 186.78 230.69 178.84 232.43 181.74 146.88 190.83 144.96 186.78"/>
          <path d="M144.53,186.53c28.64-2.77,57.4-5.54,86.12-8.19l.31,0,.16.26,1.73,2.91.39.66-.76.08L147,191.81l-.75.08-.24-.64C145.37,189.58,145,187.9,144.53,186.53Zm.86.49c.86,1.34,1.73,2.36,2.38,3.39l-1-.56,85.59-8.6L232,182l-1.73-2.9.47.24C202.3,182,173.91,184.5,145.39,187Z"/>
        </g>
        <path class="cls-14" d="M159.7,190.62S171.34,250.93,207,291.31c38.86,43.94,108,46.14,108,46.14s3.37.07,4.09,2.18a5.48,5.48,0,0,1-.46,4.13l59.91-22.64L227.15,181.24l-1.09-3.58-70.65,6.84s3.46.06,4.34,2.17A5.06,5.06,0,0,1,159.7,190.62Z"/>
        <path class="cls-15" d="M173.88,183.79s-2.18,19.12-1.65,30.3c.86,18.3,18.68,62.65,37.89,78.61,16.82,14,37.34,31.53,72.24,33.14s58.44-3.51,65.28-1.92a23.23,23.23,0,0,1,8.77,4.67L373,321.94l-186-139Z"/>
        <g class="cls-4">
          <line class="cls-16" x1="315.01" y1="334.99" x2="357" y2="320.93"/>
          <polygon points="315.01 334.99 356.69 320 357.32 321.87 315.01 334.99"/>
        </g>
        <g class="cls-4">
          <line class="cls-16" x1="162.01" y1="191.04" x2="185.12" y2="188.72"/>
          <polygon points="161.97 190.58 185.03 187.74 185.22 189.7 162.06 191.51 161.97 190.58"/>
        </g>
        <g>
          <path class="cls-17" d="M298.15,221.1s5.93,2.19,21.91-2.25,23.41-12.47,24.46-10.53c2.19,4-1.46,16.43-12,24.14-10.23,7.44-23.79,8.12-23.79,8.12"/>
          <path d="M298.61,219.85a3.58,3.58,0,0,0,.59.16c.23.06.46.1.71.14.49.08,1,.15,1.5.19a28.8,28.8,0,0,0,3.09.07,49.36,49.36,0,0,0,6.28-.58,85,85,0,0,0,12.38-2.94,68.05,68.05,0,0,0,11.66-5.06c1.88-1,3.7-2.1,5.56-3.2.47-.28.94-.55,1.44-.82a7.17,7.17,0,0,1,1.78-.7,1.58,1.58,0,0,1,.34,0,1.34,1.34,0,0,1,.42,0,1.42,1.42,0,0,1,.89.58,1,1,0,0,1,.17.3l.1.23.19.46a4.86,4.86,0,0,1,.23.91,4,4,0,0,1,.13.89,18.07,18.07,0,0,1-1,6.75,31.79,31.79,0,0,1-2.67,6.13,34,34,0,0,1-8.74,10.1,38.78,38.78,0,0,1-11.87,6.1,47.16,47.16,0,0,1-13.05,2.34l-.13-2.65c8.18-1.11,16.49-3.58,23.21-8.27.81-.62,1.64-1.22,2.4-1.92s1.51-1.39,2.24-2.11a34,34,0,0,0,3.83-4.86,29.52,29.52,0,0,0,2.76-5.54,16,16,0,0,0,1-5.91A3,3,0,0,0,344,210a3.2,3.2,0,0,0-.15-.66l-.11-.29,0-.14,0-.05.12.1.12.05h0s0,0,0,0a4.78,4.78,0,0,0-1.21.5c-.45.24-.91.5-1.37.77-1.83,1.09-3.69,2.22-5.6,3.25a75.23,75.23,0,0,1-12,5.23A87,87,0,0,1,311.14,222a52.65,52.65,0,0,1-6.54.83c-1.11,0-2.22.09-3.35,0-.56,0-1.13-.06-1.71-.12-.28,0-.57-.08-.87-.13a6.54,6.54,0,0,1-1-.24Z"/>
        </g>
        <path class="cls-18" d="M300,154.11s-1.05-35.47-28-47.83-70.85-5.81-86.34,37.72-10.45,80.85,6.76,118.15,53.87,54.64,90.45,57.51c26.67,2.09,54.17-2.58,73.34.8,23.24,4.1,32.68,15.81,32.68,15.81s-7.62,9.1-6.74,27.81c.81,17.41,14.56,37.05,14.56,37.05s6.23-34.37,20.79-42.36,40.61,7,40.61,7-9.16-20.77-22.25-29.92a71.91,71.91,0,0,0-20.6-9.56s-8.81-31.43-33.72-50c-22.52-16.76-41.92-16.85-60.78-32.08a64.6,64.6,0,0,1-22.41-35.5"/>
        <path class="cls-18" d="M300,154.11s37.94,7.36,39.3,11.75-10.84,8.71-20.65,10.47-31.17,4.86-31.17,4.86"/>
        <path class="cls-19" d="M339.34,167.34s-22.76,5.92-54.57,5.55c-30.1-.35-32.63-11.12-47.87-9.44S219,187.37,219.55,210.56c.61,27.44,11.43,53.62,35.72,68.18,27.86,16.69,72.29,12.94,95.06,19.21,31.57,8.69,47.17,36.31,47.17,36.31a77.4,77.4,0,0,0-6.35,27.09c-.78,15.56,5.06,37.82,5.06,37.82S406.3,360,420.37,357c17.64-3.72,36.24,11.36,36.24,11.36s-3-23.75-23.13-34c-13.09-6.64-18.66-7.56-18.66-7.56s-3.5-25.79-28.49-45.77c-19.4-15.5-30.1-17.36-47.61-25.72S312.3,237.18,309,233.08,297.6,207,297.6,207s26.63-8.42,31.93-12.77,6.78-12.77,4.27-14.18-.78-1.21-14.3.17a163.06,163.06,0,0,1-27.61.08,208.45,208.45,0,0,0,28-3.54C337.3,173.32,339.34,167.34,339.34,167.34Z"/>
        <path d="M299,155.13a66.27,66.27,0,0,0-1.1-7.73c-.5-2.57-1.11-5.12-1.85-7.62a66.48,66.48,0,0,0-6-14.33,45.07,45.07,0,0,0-9.67-11.88A37.64,37.64,0,0,0,274,109.2a46.81,46.81,0,0,0-7-3.13,65,65,0,0,0-30.63-3A60.19,60.19,0,0,0,208,114.86a59.59,59.59,0,0,0-10.88,11,66.86,66.86,0,0,0-7.84,13.41,78,78,0,0,0-2.8,7.3c-.44,1.25-.86,2.5-1.24,3.76s-.8,2.5-1.15,3.77a153.42,153.42,0,0,0-3.64,15.35,137.65,137.65,0,0,0-2.11,31.39,147.1,147.1,0,0,0,5,31.1A204.2,204.2,0,0,0,194,261.71a98.7,98.7,0,0,0,7.44,13.81,88.26,88.26,0,0,0,9.67,12.28,86.93,86.93,0,0,0,25.13,18.33A114.27,114.27,0,0,0,266,315.6c5.16.92,10.38,1.56,15.62,2s10.51.6,15.79.6c10.56,0,21.16-.48,31.84-.73,5.34-.11,10.7-.15,16.08.15,2.69.16,5.39.4,8.08.78s5.35.95,8,1.59a68,68,0,0,1,15.21,5.74,53.78,53.78,0,0,1,6.93,4.31,34.8,34.8,0,0,1,6.11,5.57l.57.66-.58.7h0a28.35,28.35,0,0,0-3,5.9,44.74,44.74,0,0,0-1.89,6.46,51.76,51.76,0,0,0-.93,6.69l-.13,1.68-.05,1.7c-.05,1.12,0,2.26,0,3.39a44.34,44.34,0,0,0,.67,6.7,66.8,66.8,0,0,0,1.43,6.62A79.85,79.85,0,0,0,390.45,389a66.32,66.32,0,0,0,3.17,6.09c.58,1,1.19,1.95,1.84,2.87.33.47.66.92,1,1.36.17.21.35.43.52.62l.26.29.12.13c.07.07,0,0-.06,0a.73.73,0,0,0-.5-.08.62.62,0,0,0-.31.14c-.07.05,0,0,0-.07a4,4,0,0,0,.26-.63c.17-.49.32-1,.46-1.58.27-1.09.52-2.22.76-3.36l1.41-6.84a95.17,95.17,0,0,1,3.82-13.64,38.36,38.36,0,0,1,7.23-12.64,20.48,20.48,0,0,1,13.41-6.84,25.52,25.52,0,0,1,7.47.34,40.23,40.23,0,0,1,7,2,78.77,78.77,0,0,1,12.63,6.5l3,1.82,1.47.87a9.87,9.87,0,0,0,1.36.67c.05,0,.17,0-.09,0a.84.84,0,0,0-.59.47c-.11.22-.06.4-.08.3a4.19,4.19,0,0,0-.1-.7c-.1-.51-.25-1.05-.41-1.58-.33-1.07-.72-2.14-1.14-3.2a65.23,65.23,0,0,0-6.49-12.06A59.05,59.05,0,0,0,439,339.76a50.8,50.8,0,0,0-24-12.42h0l-.7-.15-.14-.73A59,59,0,0,0,411,316.31a82.31,82.31,0,0,0-4.63-9.66,88.87,88.87,0,0,0-12.72-17.21,96.13,96.13,0,0,0-16.37-13.81,122.93,122.93,0,0,0-18.86-10.3c-6.56-2.95-13.34-5.53-20-8.63a89.11,89.11,0,0,1-18.81-11.45,65.19,65.19,0,0,1-14.57-16.66,70.7,70.7,0,0,1-5-9.89A58.05,58.05,0,0,1,296.74,208l3.09-.52a55.53,55.53,0,0,0,3.09,10,65.8,65.8,0,0,0,4.77,9.49,62.38,62.38,0,0,0,13.81,16,86.88,86.88,0,0,0,18.17,11.19c6.49,3.07,13.25,5.69,19.88,8.72a126.06,126.06,0,0,1,19.19,10.62,99.24,99.24,0,0,1,16.7,14.26,91,91,0,0,1,12.95,17.75,84.45,84.45,0,0,1,4.7,9.95,59.78,59.78,0,0,1,3.18,10.62l-.84-.88h0a60.91,60.91,0,0,1,13.26,5,55.86,55.86,0,0,1,6.07,3.66,54,54,0,0,1,5.48,4.5,68.9,68.9,0,0,1,16,23.06c.46,1.1.88,2.21,1.24,3.35a16.61,16.61,0,0,1,.49,1.78,7.06,7.06,0,0,1,.15,1,1.49,1.49,0,0,1-.12.72,1.33,1.33,0,0,1-.94.72,2,2,0,0,1-.94-.07,10.59,10.59,0,0,1-1.8-.8l-1.55-.86c-1-.57-2-1.14-3-1.69a67.23,67.23,0,0,0-12.5-5.46,30.27,30.27,0,0,0-12.91-1.4,18.72,18.72,0,0,0-5.93,1.85,18.25,18.25,0,0,0-4.92,3.77,30.28,30.28,0,0,0-3.91,5.19,49.19,49.19,0,0,0-3.11,5.94A95.12,95.12,0,0,0,402,388.49c-.63,2.22-1.16,4.47-1.73,6.72-.28,1.14-.54,2.27-.86,3.42-.16.58-.32,1.15-.54,1.76a7.77,7.77,0,0,1-.44,1,2.25,2.25,0,0,1-.51.63,1.38,1.38,0,0,1-.69.33,1.42,1.42,0,0,1-.92-.15,2.07,2.07,0,0,1-.4-.31l-.18-.18-.32-.36c-.21-.24-.4-.48-.59-.72-.38-.47-.73-1-1.07-1.44-.68-1-1.34-2-2-3-1.25-2-2.44-4-3.54-6.13A75.92,75.92,0,0,1,382.7,377a49.58,49.58,0,0,1-2.26-14.13,52.85,52.85,0,0,1,1.49-14.21,40.17,40.17,0,0,1,2.34-6.8,27.11,27.11,0,0,1,3.76-6.26h0v1.36a35.67,35.67,0,0,0-5.87-4.92,52.28,52.28,0,0,0-6.73-3.89A70.16,70.16,0,0,0,360.7,323a80.45,80.45,0,0,0-15.5-1.94c-5.24-.2-10.52-.12-15.81.05-10.59.33-21.24,1-31.95,1a174,174,0,0,1-32.1-2.71,118.19,118.19,0,0,1-30.73-10,90.29,90.29,0,0,1-26-19.27A97.82,97.82,0,0,1,191,263a206.63,206.63,0,0,1-10.82-30.25,151.11,151.11,0,0,1-5.1-31.79,141.86,141.86,0,0,1,2.14-32.14,155.46,155.46,0,0,1,3.71-15.69c.36-1.29.77-2.57,1.17-3.85s.82-2.56,1.26-3.83c.84-2.53,1.81-5.1,2.91-7.58a70,70,0,0,1,8.23-14.08,62,62,0,0,1,41.42-24.1,67.26,67.26,0,0,1,32.25,3.21,49.37,49.37,0,0,1,7.51,3.38,41.24,41.24,0,0,1,6.79,4.77,47.43,47.43,0,0,1,10.3,12.8,64.24,64.24,0,0,1,6,15.14,70.93,70.93,0,0,1,2.34,16Z"/>
        <g>
          <polygon class="cls-12" points="147.66 183.57 297.36 388.93 289.91 392.76 141.88 188.35 147.66 183.57"/>
          <path d="M147.78,182.6,298.16,388.35l.63.86-1,.59-7.18,4.36-1.15.7-.85-1.17L141.08,188.93l-.54-.75.71-.59C143.36,185.83,145.62,184.15,147.78,182.6Zm-.24,2c-1.69,1.64-3.28,3.13-5,4.56l.17-1.34L291.19,391.84l-2-.48,7.72-3.31-.35,1.46Z"/>
        </g>
        <g>
          <polygon class="cls-12" points="153.67 325.74 183.42 236.94 190.75 240.17 158.68 328.31 153.67 325.74"/>
          <path d="M152.94,326l29.73-89.36.26-.79.81.32,7.43,3,.92.37-.35.95-32.32,88-.31.83-.79-.4C156.5,328.08,154.67,327.06,152.94,326Zm1.46-.59c1.61.69,3.13,1.37,4.64,2.16l-1.1.43,31.81-88.23.57,1.33-7.22-3.48,1.06-.47Z"/>
        </g>
        <ellipse class="cls-20" cx="185.4" cy="244.36" rx="1.36" ry="1.97" transform="translate(-7.09 5.55) rotate(-1.68)"/>
        <ellipse class="cls-21" cx="289.51" cy="384.8" rx="1.36" ry="1.97" transform="translate(-42.32 35.84) rotate(-6.6)"/>
        <ellipse class="cls-20" cx="157.83" cy="320.2" rx="1.36" ry="1.97" transform="translate(-9.33 4.77) rotate(-1.68)"/>
        <ellipse class="cls-21" cx="147.05" cy="189.51" rx="1.36" ry="1.97" transform="translate(-5.5 4.4) rotate(-1.68)"/>
        <ellipse class="cls-20" cx="253.53" cy="335.07" rx="1.69" ry="2.46" transform="translate(-9.73 7.59) rotate(-1.68)"/>
        <path class="cls-22" d="M300.45,180.73l24.31-.71c4.59-.14,6-2.15,8.79.07s-.17,2.63-9,4.86S302,189.23,302,189.23l-20.71-8.59Z"/>
        <path class="cls-23" d="M279.07,180.37s11.85.64,18.17,3.09a52.14,52.14,0,0,1,11,5.92s-25.84,4.37-44.4-.67S241,172,241,172s16.68,8,25.25,8.79S279.07,180.37,279.07,180.37Z"/>
        <path d="M273.9,155.54a79.7,79.7,0,0,1,10.85-1.79,109.35,109.35,0,0,1,11-.56c3.67,0,7.35.11,11,.42a83.22,83.22,0,0,1,11,1.65,78,78,0,0,1,10.67,3.12c1.74.66,3.46,1.36,5.15,2.2a24.69,24.69,0,0,1,4.87,3,9,9,0,0,1,1.11,1.11,4.55,4.55,0,0,1,.93,1.62,2.77,2.77,0,0,1,.07,1.23,3.58,3.58,0,0,1-.37,1,5.72,5.72,0,0,1-1.09,1.37,19.17,19.17,0,0,1-5,3.08,71.3,71.3,0,0,1-10.53,3.64,159.12,159.12,0,0,1-21.66,4.25q-5.47.72-11,1.16c-3.67.25-7.32.45-11,.52a86.31,86.31,0,0,1-22.16-2.07,50.56,50.56,0,0,1-10.6-3.78,31.61,31.61,0,0,1-4.84-2.95,18,18,0,0,1-4.17-4l1.32-1a15.14,15.14,0,0,0,1.93,1.62,21.68,21.68,0,0,0,2.19,1.43,35.68,35.68,0,0,0,4.75,2.27,56.45,56.45,0,0,0,10.18,2.91,106.87,106.87,0,0,0,21.33,1.65c14.42-.4,29-1.47,43-4.78A65.81,65.81,0,0,0,333,170.66a16.62,16.62,0,0,0,4.36-2.52c.58-.48.85-1.11.74-1.13a3.84,3.84,0,0,0-1.26-1.55,22.85,22.85,0,0,0-4.39-2.71,46.32,46.32,0,0,0-4.92-2.05,77,77,0,0,0-10.37-2.78,95.89,95.89,0,0,0-10.66-1.49c-3.6-.32-7.21-.54-10.83-.7C288.47,155.43,281.22,155.37,273.9,155.54Z"/>
        <path d="M239.59,171a42.58,42.58,0,0,0,8.59,8.92,40.77,40.77,0,0,0,10.56,6,42.4,42.4,0,0,0,11.88,2.52c4.15.37,8.31.54,12.47.64s8.32,0,12.48-.18,8.3-.55,12.42-1.13,8.22-1.28,12.29-2.17c2-.43,4.06-.92,6.08-1.45s4-1.12,6-1.81a54.8,54.8,0,0,1-11.65,5,92.26,92.26,0,0,1-12.38,2.89A141.27,141.27,0,0,1,283,192.09c-4.24-.05-8.47-.31-12.68-.7a42.78,42.78,0,0,1-12.61-3,34.92,34.92,0,0,1-10.93-6.92,31.45,31.45,0,0,1-4.22-4.86A23.14,23.14,0,0,1,239.59,171Z"/>
        <path d="M295.9,179.18c5.59.3,11.23.21,16.87,0s11.25-.57,17-.68c.72,0,1.44,0,2.2,0,.38,0,.77.06,1.19.13a3.94,3.94,0,0,1,.77.21,3.18,3.18,0,0,1,.72.41,6.12,6.12,0,0,1,2.16,4.7,9.87,9.87,0,0,1-1.07,4.7,14.27,14.27,0,0,1-2.74,3.74,34.88,34.88,0,0,1-7.1,5.22,69.67,69.67,0,0,1-7.75,3.83,107,107,0,0,1-16.3,5.4,111.46,111.46,0,0,1-16.92,2.91,84.6,84.6,0,0,1-17.21,0,41.29,41.29,0,0,1-4.27-.7,36,36,0,0,1-4.19-1.13,21.87,21.87,0,0,1-7.6-4.05,35.59,35.59,0,0,0,8,2.34c1.36.26,2.74.46,4.11.63.69.11,1.38.15,2.07.22s1.38.15,2.07.18a89.54,89.54,0,0,0,16.69-.31,122.86,122.86,0,0,0,32.44-8,69.83,69.83,0,0,0,7.5-3.6,31.83,31.83,0,0,0,6.59-4.73,9.21,9.21,0,0,0,3.14-6.53,3.76,3.76,0,0,0-1.14-2.82.74.74,0,0,0-.44-.19c-.28,0-.6-.08-.92-.1-.66,0-1.35,0-2,0-11.21.19-22.62,1.1-34,.27Z"/>
        <path d="M260.13,215.53c3-.28,6-.48,9-.71s5.95-.47,8.88-.9a55.51,55.51,0,0,0,8.64-1.81,50.46,50.46,0,0,0,8.31-3.27,25.88,25.88,0,0,1-7.8,4.72,37.23,37.23,0,0,1-4.37,1.44,43.42,43.42,0,0,1-4.52.87,60.21,60.21,0,0,1-9.09.48A57.11,57.11,0,0,1,260.13,215.53Z"/>
        <path class="cls-24" d="M269.05,275.7c.07,2.33,8.68,4.49,15.23,3.81s9.65-1.65,8.44-3.56-5.73-5.07-10.81-4.43S269,273.26,269.05,275.7Z"/>
        <path class="cls-24" d="M265.79,225.73s3.68-4.73,14.68-4.11,14.68,2.5,14.93,5.61,1,22.33-3.12,27.88-12,11.53-12,11.53a37.15,37.15,0,0,1-12-17.4C265,238.32,265.79,225.73,265.79,225.73Z"/>
        <path class="cls-25" d="M267,233.49s3.17-2.19,13.52-2.33,12.92,1.56,12.92,1.56.69,12.47-1.45,17.79S281.52,264,281.52,264s-2.86-2.22-9.16-9.92S267,233.49,267,233.49Z"/>
        <path class="cls-26" d="M267.23,233.88s3.77,2.47,12,2.53c9,.07,14.47-3.74,14.15-3.69s-6.81-1.81-13.85-1.44A40.72,40.72,0,0,0,267.23,233.88Z"/>
        <polygon class="cls-27" points="279.32 228.04 280.01 234.99 283.46 234.89 282.44 228.11 279.32 228.04"/>
        <path d="M266.73,225.43a53.61,53.61,0,0,0-.78,11.7,57.77,57.77,0,0,0,.52,5.89,42.38,42.38,0,0,0,1.15,5.77A27,27,0,0,0,270,254.1a32.68,32.68,0,0,0,3.38,4.8,45.55,45.55,0,0,0,8.55,8h0l-1.26.05a54,54,0,0,0,7.31-8.5,37.72,37.72,0,0,0,5.09-9.89c.34-.87.48-1.78.73-2.66s.36-1.84.48-2.77a47.56,47.56,0,0,0,.49-5.59,54.89,54.89,0,0,0-.71-11.19L296,226a56.35,56.35,0,0,1,.75,11.65,51.57,51.57,0,0,1-.51,5.81c-.12,1-.32,1.92-.5,2.88s-.43,1.94-.78,2.86a40,40,0,0,1-5.35,10.42,56.51,56.51,0,0,1-7.61,8.84l-.62.59-.63-.54h0a58.38,58.38,0,0,1-4.36-4.24,51.88,51.88,0,0,1-3.92-4.59,34.43,34.43,0,0,1-5.77-10.57,60.64,60.64,0,0,1-1.94-11.86q-.24-3-.23-6c0-2,.05-4,.23-6.07Z"/>
        <path d="M295.72,226a3,3,0,0,1-.15.73,2.92,2.92,0,0,1-.34.6c-.14.15-.27.32-.42.46l-.45.37a9.36,9.36,0,0,1-1.92,1,24.66,24.66,0,0,1-4,1.17,42.49,42.49,0,0,1-8.1.83,40.59,40.59,0,0,1-8.13-.74,22.84,22.84,0,0,1-4-1.17,9.08,9.08,0,0,1-2-1.06l-.47-.4a5.47,5.47,0,0,1-.45-.51,2.54,2.54,0,0,1-.52-1.53,3.22,3.22,0,0,1,.19-.84,3.32,3.32,0,0,1,.4-.64,5.35,5.35,0,0,1,.47-.48l.49-.37a9.5,9.5,0,0,1,2-.95,22.36,22.36,0,0,1,4-1,49.91,49.91,0,0,1,8.08-.46,51.7,51.7,0,0,1,8,.83,24.18,24.18,0,0,1,3.95,1,9,9,0,0,1,1.92,1l.45.35a4.47,4.47,0,0,1,.42.45,3.06,3.06,0,0,1,.35.59A3.25,3.25,0,0,1,295.72,226Zm-1.35,0a1.55,1.55,0,0,0-.76-1.08A8,8,0,0,0,292,224a20,20,0,0,0-3.72-1.1,39.48,39.48,0,0,0-7.83-.63,40.54,40.54,0,0,0-7.8.79,21,21,0,0,0-3.67,1.07,7.92,7.92,0,0,0-1.56.83,1.35,1.35,0,0,0-.66.83,1.57,1.57,0,0,0,.69.75,7.32,7.32,0,0,0,1.56.77,21.27,21.27,0,0,0,3.65,1,52.27,52.27,0,0,0,7.73.71,49.11,49.11,0,0,0,7.77-.41,20.05,20.05,0,0,0,3.73-.87,8.22,8.22,0,0,0,1.64-.76A1.64,1.64,0,0,0,294.37,225.93Z"/>
        <path d="M293.63,275.85a2.12,2.12,0,0,1-.36,1.39,3.42,3.42,0,0,1-.78.82,7.42,7.42,0,0,1-1.65.93,17.64,17.64,0,0,1-3.37,1,31.79,31.79,0,0,1-6.8.54,34.44,34.44,0,0,1-6.77-.77,16.24,16.24,0,0,1-3.34-1.08,5.7,5.7,0,0,1-1.63-1.08,2.42,2.42,0,0,1-.66-1,2.06,2.06,0,0,1,0-1.37,4.18,4.18,0,0,1,1.26-1.65,9,9,0,0,1,1.5-1,15.9,15.9,0,0,1,3.24-1.33,24.39,24.39,0,0,1,6.79-.92,22.81,22.81,0,0,1,6.79,1.06,14.3,14.3,0,0,1,3.2,1.44,8.74,8.74,0,0,1,1.48,1.14A3.53,3.53,0,0,1,293.63,275.85Zm-1.81.2a1.88,1.88,0,0,0-.53-.91,7.49,7.49,0,0,0-1.13-.91,13.35,13.35,0,0,0-2.8-1.33,20.78,20.78,0,0,0-6.28-1.06,20.1,20.1,0,0,0-6.31.88,14.78,14.78,0,0,0-2.88,1.23,8.51,8.51,0,0,0-1.22.85,2.66,2.66,0,0,0-.75,1,.35.35,0,0,0,0,.26.93.93,0,0,0,.25.33,4.45,4.45,0,0,0,1.15.72,15.42,15.42,0,0,0,3,.9,33.5,33.5,0,0,0,6.42.61,35,35,0,0,0,6.4-.52,17,17,0,0,0,3-.82,6.12,6.12,0,0,0,1.25-.66C291.73,276.33,291.84,276.07,291.82,276.05Z"/>
        <path class="cls-19" d="M242.21,226.66s8.19,10.36,25.58,14.78c20.87,5.31,31.81-2.23,33.08,1.25,1.34,3.66-7.56,19.46-32.7,19.95-22.45.44-28.27-5.37-28.27-5.37"/>
        <path class="cls-9" d="M300.87,242.69a33.07,33.07,0,0,1-20,13.36c-19.59,4.44-42.76.25-42.76.25s3,6.41,12.82,8.87,14.17-1.48,14.17-1.48,13.43-1.72,20-4.06,12.33-8,13.56-10,2.27-7,2.27-7"/>
        <path d="M242.21,226.66A60.3,60.3,0,0,0,256,235.81,61.43,61.43,0,0,0,271.62,241a59.15,59.15,0,0,0,16.37.91c2.74-.22,5.43-.7,8.24-1.16.71-.11,1.43-.21,2.22-.26a7.23,7.23,0,0,1,1.29.05,3.08,3.08,0,0,1,1.63.69,2.81,2.81,0,0,1,.86,1.69,5.09,5.09,0,0,1,0,1.41,9.39,9.39,0,0,1-.64,2.33,22,22,0,0,1-5.17,7.25,33.08,33.08,0,0,1-7.1,5.13,43.55,43.55,0,0,1-16.58,4.84c-1.43.14-2.87.23-4.3.25l-4.26,0c-2.84-.1-5.68-.25-8.52-.62-1.41-.18-2.82-.44-4.22-.71s-2.79-.68-4.15-1.16c-.68-.25-1.35-.5-2-.78s-1.32-.59-2-.95a11.79,11.79,0,0,1-3.42-2.6,16.89,16.89,0,0,0,3.87,1.54c1.31.41,2.66.68,4,1a80,80,0,0,0,8.17,1.06c2.74.28,5.51.33,8.27.37l4.15-.05c1.37,0,2.73-.12,4.09-.25A42.34,42.34,0,0,0,288,256.54a29.06,29.06,0,0,0,6.57-4.6,19.31,19.31,0,0,0,4.63-6.27,7.52,7.52,0,0,0,.5-1.7,2.76,2.76,0,0,0,0-.69c0-.19-.06-.19,0-.17a1.55,1.55,0,0,0-.3-.08,4.17,4.17,0,0,0-.8,0,18.21,18.21,0,0,0-2,.23c-2.72.45-5.56.95-8.41,1.2a58.34,58.34,0,0,1-17.09-.93,55,55,0,0,1-8.26-2.3,51.81,51.81,0,0,1-7.84-3.48,43,43,0,0,1-7.07-4.82A30.17,30.17,0,0,1,242.21,226.66Z"/>
        <g>
          <path class="cls-27" d="M278.85,229s-4.32-26.75-4-31c.28-3.14,4.2-9.29,6.15-12.19a2.24,2.24,0,0,1,2.81-.78h0a2.24,2.24,0,0,1,1,3.19c-1.84,3-5,8.47-5.48,10.39-.66,2.73,4.1,30.37,4.1,30.37"/>
          <path d="M278.37,229.11q-.93-5.82-1.77-11.66c-.58-3.9-1.14-7.79-1.62-11.7-.23-2-.46-3.91-.57-5.91a8.52,8.52,0,0,1,.22-3.08,20.07,20.07,0,0,1,1.08-2.84,54.92,54.92,0,0,1,2.87-5.22c.52-.84,1.05-1.68,1.59-2.5l.41-.62a3.08,3.08,0,0,1,.63-.67,2.88,2.88,0,0,1,1.72-.59,2.84,2.84,0,0,1,2.75,2.11,2.94,2.94,0,0,1-.13,1.85,7.57,7.57,0,0,1-.38.72l-.37.64c-1,1.7-1.91,3.42-2.81,5.15-.44.86-.89,1.73-1.28,2.59-.19.44-.37.88-.5,1.28a2.3,2.3,0,0,0-.08.57v.64c.06,1.88.29,3.85.52,5.78,1,7.78,2.16,15.56,3.29,23.33l-1,.17c-1.47-7.73-2.85-15.48-3.88-23.3-.25-2-.51-3.9-.59-5.95l0-.39c0-.14,0-.3,0-.45a3.05,3.05,0,0,1,.16-.87,11,11,0,0,1,.59-1.47c.43-.92.88-1.8,1.37-2.67,1-1.73,2-3.42,3-5.09l.39-.63c.13-.21.27-.42.34-.56a1.61,1.61,0,0,0,.1-1,1.68,1.68,0,0,0-1.58-1.26,1.74,1.74,0,0,0-1.41.74l-.4.6c-.55.82-1.08,1.64-1.59,2.47a52,52,0,0,0-2.84,5.1,18.35,18.35,0,0,0-1,2.65,7.66,7.66,0,0,0-.21,2.76c.11,1.94.32,3.89.54,5.84.92,7.79,2.11,15.57,3.36,23.33Z"/>
        </g>
        <polygon points="282.95 267.62 282.69 275.52 280.55 275.59 279.8 267.72 282.95 267.62"/>
        <path d="M274,180.52a58.63,58.63,0,0,1,8.69-.29,55.55,55.55,0,0,1,8.69,1,33.06,33.06,0,0,1,4.27,1.11,36.76,36.76,0,0,1,4.09,1.58,26.16,26.16,0,0,1,7.37,4.71c-2.65-1.21-5.3-2.21-8-3.13a75.26,75.26,0,0,0-8.13-2.39c-2.77-.58-5.59-1-8.42-1.44Z"/>
        <path d="M234.24,173.67a5.26,5.26,0,0,1,.28-3.3,6.53,6.53,0,0,1,2.09-2.72,7.78,7.78,0,0,1,3-1.4,5.48,5.48,0,0,1,3.3.19c-.95.6-1.76,1.13-2.54,1.65s-1.53,1-2.23,1.57a14.83,14.83,0,0,0-1.92,1.75C235.58,172.07,235,172.81,234.24,173.67Z"/>
        <g class="cls-28">
          <path class="cls-29" d="M245.22,154.57c-.17,3.84-3.36,5.64-7.23,5.71-4.72.09-7-3-6.84-6.17a7.55,7.55,0,0,1,7.16-6.8C242.18,147.09,245.4,150.19,245.22,154.57Z"/>
        </g>
        <g class="cls-28">
          <path class="cls-29" d="M295.17,146c.67,2.75.35,5.91-3.77,7a5.55,5.55,0,0,1-7.07-4.3,6.11,6.11,0,0,1,5.85-7.07C292.6,141.58,294.45,143.05,295.17,146Z"/>
        </g>
        <ellipse cx="240.18" cy="154.97" rx="4.88" ry="3.54" transform="translate(56.41 373.9) rotate(-82.82)"/>
        <ellipse cx="291.25" cy="148.56" rx="4.35" ry="3.01" transform="translate(114.34 423.51) rotate(-84.27)"/>
        <path d="M230.83,154.26a7.39,7.39,0,0,1,1.29-4.77,7.7,7.7,0,0,1,4.18-3,7.46,7.46,0,0,1,5.18.11,5.24,5.24,0,0,1,3.09,3.89,6.47,6.47,0,0,0-3.56-2.61,7.94,7.94,0,0,0-4.23.19,8,8,0,0,0-3.68,2.2A10.52,10.52,0,0,0,230.83,154.26Z"/>
        <path d="M284.15,146.18a6.14,6.14,0,0,1,1.67-3.82,5.63,5.63,0,0,1,1.81-1.29,6.37,6.37,0,0,1,2.18-.51,6.53,6.53,0,0,1,2.22.29,4.87,4.87,0,0,1,1.93,1.21,5.08,5.08,0,0,1,1.41,3.93,7.11,7.11,0,0,0-2.21-3,5,5,0,0,0-3.28-.85,5.65,5.65,0,0,0-3.25,1.14A10.21,10.21,0,0,0,284.15,146.18Z"/>
        <g class="cls-4">
          <path d="M227.19,145.85a11.16,11.16,0,0,1,2.93-3.92,14.49,14.49,0,0,1,4.21-2.5,14.65,14.65,0,0,1,4.77-1,9.46,9.46,0,0,1,4.83,1l-.41.89a14.26,14.26,0,0,0-4.28-.06,20.52,20.52,0,0,0-4.21,1,15.88,15.88,0,0,0-3.84,2,13.69,13.69,0,0,0-3.12,3Z"/>
        </g>
        <g class="cls-4">
          <path d="M283.23,135.5a9.48,9.48,0,0,1,3-1.4,10.22,10.22,0,0,1,3.36-.31,7.75,7.75,0,0,1,3.32,1,7.16,7.16,0,0,1,2.56,2.34l-1.13.85a9.77,9.77,0,0,0-2.3-1.52,8.14,8.14,0,0,0-2.64-.77,11.9,11.9,0,0,0-2.86,0,12.91,12.91,0,0,0-2.84.67Z"/>
        </g>
        <path class="cls-29" d="M214.13,106.55l2.11-11.3s23.9-2.29,42.21,3c9.6,2.79,32,20.29,32,20.29l-12.38,5.94s-22.4-11-31.18-12.08C231.05,110.41,214.13,106.55,214.13,106.55Z"/>
        <path class="cls-30" d="M288.78,119.27l4.16,4.55s16.49-6.77,13.22-9C303.36,112.88,288.78,119.27,288.78,119.27Z"/>
        <path class="cls-31" d="M215.13,107.06s6,4.53,8.75,5.9c6.94,3.38,12,3.42,12,3.42s-2.74-24,1.72-29.42,9.29-6.63,13.77-8.15c6.93-2.36,17.14-3.14,17.14-3.14l-16-2.75s-4.22-4.71-7.25-3.27a19.12,19.12,0,0,0-5.56,4.55s-11.29-1-20.67,10.18C212.27,92.36,215.13,107.06,215.13,107.06Z"/>
        <path class="cls-32" d="M241.44,116.2s15.17,13,25.41,13.21,16.62-6.25,22.61-9.33a78.11,78.11,0,0,1,15.64-6l-23.17-8.56a90.79,90.79,0,0,1-17.69,7A115.78,115.78,0,0,1,241.44,116.2Z"/>
        <path class="cls-29" d="M236.15,115.26s16.37.69,28.85-2.86,15.9-6.73,15.9-6.73-2.68-21.44-7.33-25A73.7,73.7,0,0,0,266.8,76c1.95.08-20.75,1.24-28.4,9.54C232,92.43,236.15,115.26,236.15,115.26Z"/>
        <path d="M290.34,124.05a48.44,48.44,0,0,0,10.26-4.59,27.26,27.26,0,0,0,4.48-3.24,8.3,8.3,0,0,0,.86-1,2.76,2.76,0,0,0,.26-.44c.06-.13,0-.18.08,0s.17.11,0,.09a3.53,3.53,0,0,0-.59-.07,9.9,9.9,0,0,0-1.32,0,38.2,38.2,0,0,0-10.7,3.48,86.77,86.77,0,0,0-9.82,5.8A37.59,37.59,0,0,1,272.94,129a23.11,23.11,0,0,1-6.1.6,24.2,24.2,0,0,1-6-1.06A49.49,49.49,0,0,1,250,123.72a75.51,75.51,0,0,1-9.66-6.77h0l.86.31a43.2,43.2,0,0,1-7.07-.5,69,69,0,0,1-6.87-1.36,51.23,51.23,0,0,1-6.71-2.14,35.05,35.05,0,0,1-6.36-3.31h0l-.62-.41v-.72a98.57,98.57,0,0,1,1-12.62,58.88,58.88,0,0,1,1.21-6.25A29.86,29.86,0,0,1,218,83.82,13.46,13.46,0,0,1,219.87,81a23.75,23.75,0,0,1,2.45-2.22,28.81,28.81,0,0,1,11.59-5.58,25.41,25.41,0,0,1,6.5-.68h0l-1.09.93a5.15,5.15,0,0,1,.71-2.33,5.86,5.86,0,0,1,1.58-1.78,8.23,8.23,0,0,1,4.21-1.58,7,7,0,0,1,4.55,1,6.33,6.33,0,0,1,1.73,1.65,6.21,6.21,0,0,1,1,2.15h0L252,71.74a45.93,45.93,0,0,1,12.73,1.61,27.57,27.57,0,0,1,6.06,2.47,15.23,15.23,0,0,1,5,4.55A36.68,36.68,0,0,1,281,92.24a71.44,71.44,0,0,1,2.15,12.62h0L282,103.44c4.2,1.49,8.38,3,12.57,4.56s8.25,3.41,12.32,5.24l-.74,1.75c-4.12-1.61-8.28-3.18-12.45-4.57s-8.44-2.67-12.68-4l-1-.31-.07-1.11h0A68.85,68.85,0,0,0,278.13,93a34.42,34.42,0,0,0-4.51-11.07,12.48,12.48,0,0,0-4.1-3.89,25.07,25.07,0,0,0-5.46-2.35,43.93,43.93,0,0,0-12-1.76L251,73.14h0a6,6,0,0,0-.91-1.16,4.56,4.56,0,0,0-1.15-.85,5.23,5.23,0,0,0-2.85-.5,7.21,7.21,0,0,0-3,.87,3.94,3.94,0,0,0-1.09.94,4.45,4.45,0,0,0-.68,1.2l-.41,1-.68-.1h0a23.72,23.72,0,0,0-5.86.71,26.86,26.86,0,0,0-5.62,2.06,26.46,26.46,0,0,0-5,3.25,21.81,21.81,0,0,0-2.15,2,11.39,11.39,0,0,0-1.53,2.34,38.78,38.78,0,0,0-3,11.62,96.63,96.63,0,0,0-.77,12.25l-.61-1.14h0a32.21,32.21,0,0,0,2.88,1.46c1,.46,2,.89,3.06,1.27a58.79,58.79,0,0,0,6.36,2c2.17.58,4.36,1,6.56,1.44,1.1.2,2.21.36,3.31.51s2.24.26,3.26.3l.53,0,.34.29h0a73.24,73.24,0,0,0,9.35,6.36,48.11,48.11,0,0,0,10.24,4.54,20.45,20.45,0,0,0,10.72.46,35.18,35.18,0,0,0,10.16-4.42c1.65-1,3.28-2,5-2.94a50.21,50.21,0,0,1,5.35-2.54c1.82-.74,3.68-1.37,5.56-1.94a33.5,33.5,0,0,1,5.81-1.25,11.31,11.31,0,0,1,1.56-.08,6.65,6.65,0,0,1,.85.09,1.58,1.58,0,0,1,1.19.8,1.7,1.7,0,0,1,0,1.4,4.28,4.28,0,0,1-.42.83,9.83,9.83,0,0,1-1,1.25,24.27,24.27,0,0,1-4.69,3.76,36.72,36.72,0,0,1-10.87,4.61Z"/>
        <path d="M241,114.84c3.53-.14,7.09-.46,10.61-.85a84.46,84.46,0,0,0,10.43-1.79c3.43-.85,6.84-1.88,10.17-3,1.67-.58,3.31-1.24,4.93-1.92a26.88,26.88,0,0,0,4.57-2.44l.64.65a20.09,20.09,0,0,1-4.57,3.11,44.05,44.05,0,0,1-4.95,2.26,89.39,89.39,0,0,1-10.31,3.27,78.6,78.6,0,0,1-10.7,1.79c-3.59.38-7.17.57-10.79.65Z"/>
        <path d="M234.94,115.35a109.37,109.37,0,0,1-.89-15.87,43.18,43.18,0,0,1,.86-8,14.5,14.5,0,0,1,1.41-3.88,16.29,16.29,0,0,1,2.51-3.25,19.86,19.86,0,0,1,6.89-4.22c2.49-1,5-1.7,7.55-2.42A42.68,42.68,0,0,1,269,75.87l-.08.74a41.47,41.47,0,0,0-15.37,2.07c-2.51.76-5,1.55-7.41,2.53a18.77,18.77,0,0,0-6.39,4.07c-3.83,3.57-4,9.11-4.12,14.23a106.82,106.82,0,0,0,1.15,15.57Z"/>
        <g class="cls-15">
          <path d="M254,77.67a31.82,31.82,0,0,1,8.76,5.14,15.74,15.74,0,0,1,1.81,1.84,13.92,13.92,0,0,1,1.4,2.18,25.88,25.88,0,0,1,1.9,4.75,60.64,60.64,0,0,1,2,10,100.57,100.57,0,0,1,.7,10.13h-1.24a98.55,98.55,0,0,0-.52-10A59.32,59.32,0,0,0,267,91.83c-.91-3.18-2.18-6.36-4.73-8.5a30.8,30.8,0,0,0-8.48-5.18Z"/>
        </g>
      </g>
      <path class="cls-6" d="M253,395a47,47,0,0,1,9.26-7.31,54.83,54.83,0,0,1,5.22-2.86,52.12,52.12,0,0,1,5.51-2.31c1.89-.66,3.81-1.25,5.75-1.73a59.55,59.55,0,0,1,5.94-1.06,51.76,51.76,0,0,1,23.88,2.53,54.19,54.19,0,0,1,10.8,5.32,58.19,58.19,0,0,1,4.87,3.49q2.32,1.89,4.45,4a46.61,46.61,0,0,1,7.32,9.28,76.08,76.08,0,0,0-18.29-13.94,57.21,57.21,0,0,0-32.65-7.05,64,64,0,0,0-11.18,2,70.54,70.54,0,0,0-10.76,4A66.07,66.07,0,0,0,253,395Z"/>
    </g>
  </g>
</svg>
