<?xml version="1.0" encoding="utf-8"?>
<!-- Generator: Adobe Illustrator 22.0.0, SVG Export Plug-In . SVG Version: 6.00 Build 0)  -->
<svg version="1.1" xmlns="http://www.w3.org/2000/svg" xmlns:xlink="http://www.w3.org/1999/xlink" x="0px" y="0px"
	 viewBox="0 0 400 391.2" style="enable-background:new 0 0 400 391.2;" xml:space="preserve">
<style type="text/css">
	.st0{fill:#FFFFFF;}
	.st1{fill:#E51727;}
	.st2{opacity:0.2;}
	.st3{fill:#7898A0;}
	.st4{opacity:0.8;}
	.st5{opacity:0.6;}
	.st6{opacity:0.71;}
	.st7{fill:#D12020;}
	.st8{fill:#EDECE6;}
	.st9{fill:#93724E;}
	.st10{fill:#D6B87B;}
	.st11{fill:#68ABBA;}
	.st12{fill:#B6D9DD;}
	.st13{fill:#F2F9F9;}
	.st14{fill:#8C8B87;}
	.st15{opacity:0.87;}
	.st16{opacity:0.5;fill:#FFFFFF;stroke:#000000;stroke-width:0.9972;stroke-miterlimit:10;}
	.st17{display:none;fill:#FFFFFF;stroke:#000000;stroke-width:1.0169;stroke-miterlimit:10;}
	.st18{fill:#FFFFFF;stroke:#000000;stroke-width:1.0175;stroke-miterlimit:10;}
	.st19{opacity:0.4;fill:#FFFFFF;stroke:#000000;stroke-width:1.0175;stroke-miterlimit:10;}
	.st20{fill:#68ABBA;stroke:#000000;stroke-width:1.0175;stroke-miterlimit:10;}
	.st21{opacity:0.6;fill:none;stroke:#000000;stroke-width:0.4002;stroke-miterlimit:10;}
	.st22{opacity:0.5;fill:none;stroke:#000000;stroke-width:0.2502;stroke-miterlimit:10;}
	.st23{opacity:0.61;fill:none;stroke:#000000;stroke-width:0.5003;stroke-miterlimit:10;}
	.st24{fill:#4A818E;}
</style>
<g id="Ebene_5">
	<g>
		<path d="M212.4,140.8c1.3,2.3,2.7,4.7,4.2,7c1.5,2.3,3,4.6,4.6,6.9c3.2,4.5,6.5,8.9,10.1,13.1c3.6,4.2,7.3,8.2,11.4,11.8
			c4,3.6,8.3,6.9,12.9,9.5c4.6,2.6,9.4,4.4,14.3,4.7c0.6,0,1.2,0,1.8,0c0.6,0,1.3,0,1.9-0.1c1.3-0.1,2.5-0.2,3.7-0.5
			c2.4-0.5,4.7-1.2,6.8-2.3c4.2-2.2,7.6-5.7,9.9-9.9c1.2-2.1,2.1-4.4,2.8-6.8c0.3-1.2,0.6-2.4,0.8-3.6c0.1-0.6,0.2-1.2,0.3-1.8
			l0.1-0.9c0-0.3,0-0.6,0-0.7l11.7,1.2c-0.1,0.6-0.2,0.9-0.3,1.4l-0.3,1.2c-0.2,0.8-0.4,1.5-0.7,2.3c-0.5,1.5-1,3-1.6,4.5
			c-1.2,2.9-2.7,5.7-4.5,8.4c-3.6,5.3-8.6,9.9-14.6,12.5c-3,1.3-6.1,2.2-9.2,2.6c-1.6,0.2-3.1,0.3-4.7,0.4c-0.8,0-1.5,0-2.3,0
			c-0.8,0-1.6-0.1-2.4-0.1c-6.4-0.6-12.2-3.1-17.3-6.1c-10.2-6.2-18.4-14.4-26-23c-3.8-4.3-7.3-8.8-10.7-13.4
			c-3.4-4.6-6.6-9.2-9.8-14.1L212.4,140.8z"/>
	</g>
	<g>
		<path class="st0" d="M74.6,175.5c3.5-34.3,4.8-46.5-1.5-84.7C68.6,64,55.4,37.7,63.7,33.9c7.7-3.6,53.6,18.4,82.7,41.1
			c36.1,28.2,79.6,80,104,128.7c31.7,63.4,37.8,133.5,17.8,137.7c-26.2,5.5-54.4-40.1-91.6-37.7c-33.7,2.2-77.9,58.5-102.1,57
			c-20.2-1.3-17.8-51.5-14.3-86.6C64.2,234.9,71.1,209.1,74.6,175.5z"/>
		<path d="M72,175.2c1.1-10,2.4-19.9,3-29.9c0.3-5,0.5-9.9,0.4-14.9c-0.1-5-0.4-9.9-0.8-14.9c-0.5-5-1-9.9-1.7-14.9
			c-0.3-2.5-0.7-5-1-7.4c-0.3-2.5-0.7-4.9-1.2-7.4c-1.8-9.8-4.6-19.4-7.3-29.1c-1.3-4.9-2.6-9.7-3.1-14.9c-0.1-1.3-0.1-2.6,0.1-3.9
			c0.2-1.3,0.6-2.7,1.7-3.8c0.5-0.5,1.2-0.9,1.9-1c0.7-0.2,1.4-0.2,2-0.2c1.3,0,2.6,0.2,3.8,0.5c5,1.1,9.7,2.9,14.4,4.7
			c4.7,1.9,9.3,4,13.8,6.1c9.1,4.4,17.9,9.2,26.6,14.4c8.6,5.2,17,10.9,25,17.1c15.9,12.5,30.2,26.8,43.7,41.9
			c13.4,15.1,25.8,31,37.1,47.8c11.3,16.7,21.5,34.3,29.7,52.9c4.1,9.3,7.8,18.7,10.9,28.4c3.2,9.6,5.9,19.5,8,29.4
			c2.1,10,3.6,20.1,4.1,30.4c0.2,5.2,0.2,10.4-0.4,15.6c-0.3,2.6-0.7,5.3-1.4,8c-0.7,2.7-1.7,5.4-3.2,8c-0.8,1.3-1.8,2.6-3,3.7
			c-1.2,1.1-2.8,2.2-4.5,2.8c-0.4,0.2-0.9,0.3-1.3,0.4c-0.5,0.1-0.8,0.2-1.2,0.3c-0.7,0.1-1.5,0.2-2.2,0.3c-1.5,0.1-2.9,0.1-4.4,0
			c-2.9-0.2-5.7-0.9-8.3-1.7c-2.6-0.9-5.1-2-7.4-3.2c-4.7-2.5-9-5.3-13.2-8.2c-4.2-2.9-8.2-5.9-12.2-8.9c-8-5.8-16.2-11.4-25.3-14.9
			c-4.5-1.7-9.2-2.9-14.1-3.2c-2.4-0.1-4.8-0.1-7.2,0.2c-2.4,0.3-4.7,0.9-7,1.7c-2.3,0.7-4.6,1.7-6.8,2.7c-2.2,1-4.4,2.2-6.6,3.4
			c-4.3,2.4-8.4,5.2-12.5,8.1c-8.1,5.8-15.8,12.3-23.5,18.7c-7.8,6.4-15.6,12.8-24.6,18.2c-2.3,1.3-4.6,2.5-7.2,3.6
			c-2.5,1-5.2,1.9-8.2,2.2c-1.5,0.1-3,0.2-4.7,0c-1.6-0.2-3.3-0.8-4.8-1.6c-3-1.6-5.2-4.1-6.7-6.5c-1.6-2.5-2.7-5.1-3.5-7.7
			c-0.8-2.6-1.4-5.2-1.9-7.8c-1-5.2-1.4-10.3-1.7-15.5c-0.4-10.3-0.1-20.4,0.6-30.5c1.4-20.2,4-40.3,7.5-60.1l5.3-29.7
			C69.4,195,70.9,185.1,72,175.2z M77.1,175.7c-0.9,10.1-2.3,20.1-3.8,30l-4.7,29.8c-3.1,19.8-5.5,39.6-6.6,59.5
			c-0.5,9.9-0.8,19.9-0.2,29.7c0.3,4.9,0.8,9.8,1.7,14.5c0.9,4.7,2.2,9.3,4.4,12.9c1.1,1.8,2.4,3.2,3.8,4c0.7,0.4,1.5,0.7,2.3,0.8
			c0.8,0.1,1.9,0.1,2.8,0c4.1-0.4,8.5-2.3,12.7-4.5c4.3-2.2,8.4-4.9,12.5-7.7c4.1-2.8,8.2-5.7,12.2-8.6l12.2-8.9
			c4.1-3,8.2-5.8,12.4-8.7c8.4-5.6,17.1-11,26.9-14.4c4.9-1.7,10.2-2.6,15.4-2.4c5.2,0.1,10.4,1.1,15.4,2.6c5,1.5,9.7,3.6,14.3,6
			c4.6,2.4,9,5,13.2,7.8c8.6,5.4,16.7,11.4,25.1,15.7c4.2,2.1,8.6,3.8,12.8,4.1c1.1,0.1,2.1,0.1,3.1,0c1-0.1,2.2-0.3,2.7-0.5
			c1.3-0.5,2.5-1.6,3.6-3.3c1-1.7,1.8-3.8,2.4-5.9c0.6-2.2,1-4.5,1.3-6.9c0.6-4.7,0.7-9.6,0.5-14.5c-0.3-9.8-1.6-19.6-3.5-29.3
			c-3.8-19.4-9.7-38.6-17.3-56.9c-7.6-18.4-17.3-35.9-28.2-52.6c-11-16.7-23.2-32.6-36.3-47.7c-6.6-7.5-13.4-14.9-20.5-21.9
			c-7.1-7.1-14.4-13.9-22.1-20.2c-7.7-6.3-15.9-12.1-24.4-17.4c-8.5-5.3-17.2-10.3-26.1-14.9c-4.5-2.3-9-4.4-13.6-6.4
			c-4.6-1.9-9.3-3.8-14.1-4.8c-1.2-0.2-2.4-0.4-3.6-0.5c-0.6,0-1.2,0-1.7,0.2c-0.5,0.1-1,0.4-1.3,0.8c-0.7,0.7-1.1,1.8-1.3,3
			c-0.1,1.2-0.1,2.4,0,3.6c0.5,4.9,2,9.7,3.4,14.5c2.9,9.6,6,19.2,8.2,29.1c0.5,2.5,1,5,1.4,7.5c0.4,2.5,0.9,5,1.3,7.4
			c0.8,5,1.5,10,2.1,15c0.6,5,1,10.1,1.2,15.2c0.2,5.1,0.2,10.2,0,15.2C78.9,155.7,77.9,165.7,77.1,175.7z"/>
	</g>
	<path d="M75.1,172c0,0,17.9-24.3,68.6-39.9c42.9-13.2,52.8-5.3,52.8-5.3s-25.4-34.5-58-57.3S74.1,30,63.7,33.9
		c-6,2.3,2,27.1,7,41.8c5.8,17.2,6.9,41.4,6.4,55.2C76.5,144.8,75.1,172,75.1,172z"/>
	<g>
		<path class="st1" d="M112.5,149.6c8.5,19.5,37,22.2,66.1,10.7c27.7-11.5,32-35.3,22.4-49.5c-9.8-14.6-28.8-24.7-55-15.9
			C113.3,105.9,104.2,130.6,112.5,149.6z"/>
		<path d="M114.6,148.7c2.1,4.7,5.8,8.5,10.3,11c4.5,2.5,9.8,3.8,15.1,4.3c2.7,0.2,5.4,0.2,8,0.1c2.7-0.1,5.4-0.3,8.1-0.7
			c5.4-0.7,10.7-2,16-3.7c2.6-0.9,5.2-1.8,7.6-2.9c2.5-1.1,4.8-2.4,7.1-3.8c4.5-2.9,8.5-6.5,11.5-10.9c3-4.4,4.8-9.4,5.1-14.7
			c0.3-5.2-0.9-10.6-3.6-15c-2.8-4.6-6.6-8.7-11-11.8c-4.4-3.2-9.5-5.4-14.8-6.7c-5.3-1.2-10.9-1.3-16.4-0.6
			c-5.5,0.7-10.8,2.3-16,4.3c-5.2,2-10.1,4.7-14.5,8c-2.2,1.7-4.2,3.5-6.1,5.6c-1.8,2-3.5,4.3-4.8,6.6c-2.8,4.7-4.4,10-4.7,15.3
			C111.3,138.6,112.3,143.9,114.6,148.7z M110.4,150.5c-2.3-5.6-3.1-11.7-2.5-17.6c0.6-5.9,2.9-11.6,6-16.5c1.6-2.4,3.4-4.7,5.5-6.8
			c2-2.1,4.2-4,6.5-5.7c2.3-1.7,4.7-3.3,7.2-4.7c2.5-1.4,5.1-2.6,7.7-3.7c5.3-2.2,10.8-3.9,16.5-4.7c5.7-0.8,11.6-0.8,17.3,0.3
			c5.7,1.1,11.2,3.4,16,6.7c4.8,3.3,9,7.5,12.3,12.5c3.3,5.1,4.9,11.2,4.7,17.2c-0.2,6.1-2.2,12-5.4,17.1
			c-3.3,5.1-7.6,9.3-12.6,12.6c-2.5,1.7-5,3.1-7.7,4.4c-2.7,1.3-5.4,2.3-8.1,3.2c-5.5,1.9-11.1,3.4-16.9,4.2
			c-2.9,0.5-5.8,0.8-8.7,0.9c-2.9,0.1-5.9-0.1-8.8-0.4c-5.9-0.7-11.8-2.3-17.1-5.5c-2.6-1.6-5-3.5-7.1-5.9
			C113.2,156,111.5,153.4,110.4,150.5z"/>
	</g>
	<path class="st0" d="M131,126.9c5,7.1,19.5,6.8,31.8-0.1c11.6-6.5,10.4-16.9,5.2-21.9c-5.3-5-14.4-7-25.6-1.5
		C128.4,110.3,126.1,120,131,126.9z"/>
	<g id="Ebene_11" class="st2">
		<path class="st3" d="M57.7,328.7c0,0,6.4,15.8,25.8,9c22.7-8,49.1-38.9,76-43.3c38.8-6.3,48.1,0.3,58.7,5.3
			c20.6,9.8,27.3,6.5,36.5-0.3c9.4-7,4-41-6.7-73.3c-10.7-32.3-38-69.3-38-69.3s-15,14.4-42.3,19.3c-37,6.7-51-19.3-51-19.3
			s33,5.7,59.7-12.3c24.2-16.3,7-48.7,7-48.7s19.3,9.3,22.7,26c1.8,9.2-0.7,14.3-0.7,14.3s36.1,42,50.3,76.7
			c15.6,38.1,24.2,88,22.9,99.7c-1.3,11.7-2.8,28.7-9.4,30c-6.6,1.3-23.6-7.7-43.6-19.3s-35.2-22-51.5-19.7
			c-16.3,2.3-54.1,33.5-72.3,44c-15.7,9-21.7,13.7-30,12C63.3,357.7,57.7,328.7,57.7,328.7z"/>
		<path class="st3" d="M246.7,210.3c0,0-21.3,10.3-34,19.3c-10,7.1-27.3,21.7-27.3,21.7s-2.4,9.9,14.5,11.2c16.9,1.3,26-4,29.7-1.3
			s-3.8,16.1-12.2,22.5c-13,9.9-23.3,12-23.3,12l-31.3,0.3l5.1-49.2l71.1-64.7l7.8,14.5L246.7,210.3z"/>
		<path class="st3" d="M189,217c0,0-8.4-5.1-9.8-11.1c-1.3-6.1,16.2-11.8,15.8-16.9c-0.3-5.1-8.2-5.6-16.7-1.8
			c-8.5,3.8-11.6,20-11.6,20l4.7,16.5L189,217z"/>
	</g>
</g>
<g id="Ebene_8_Kopie">
	<g class="st4">
		<path class="st3" d="M265.7,210.7c3.7,0.2,7.4,0.1,11-0.4c3.6-0.4,7.2-1.2,10.7-2.2c3.5-1.1,6.9-2.4,10.1-4.1c3.2-1.7,6.3-3.7,9-6
			c5.4-4.8,9.5-11,12.9-17.4c1.7-3.3,3.2-6.6,4.6-10c1.4-3.4,2.6-6.9,3.7-10.4c-1.4,7.3-3.7,14.4-6.9,21.1c-1.6,3.4-3.4,6.7-5.5,9.7
			c-1.1,1.5-2.2,3.1-3.4,4.5c-1.2,1.4-2.6,2.8-4,4c-5.8,5-12.7,8.3-19.9,10.2C280.6,211.5,273,212,265.7,210.7z"/>
	</g>
	<g class="st5">
		<path class="st3" d="M285.3,217.3c2.2-0.2,4.3-0.5,6.4-1.1c2.1-0.5,4.2-1.1,6.2-1.9c4-1.5,7.9-3.4,11.5-5.7
			c1.9-1.1,3.5-2.4,5.2-3.8c1.6-1.4,3.2-2.9,4.7-4.5c2.9-3.2,5.5-6.6,7.7-10.4c-1.6,4-4,7.8-6.8,11.2c-1.4,1.7-3,3.3-4.6,4.8
			c-1.7,1.4-3.4,2.8-5.3,4c-3.7,2.4-7.7,4.3-11.9,5.6C294.1,216.8,289.7,217.6,285.3,217.3z"/>
	</g>
	<g class="st4">
		<path class="st3" d="M41.3,253.3c-0.7,4.2-1,8.3-1.2,12.5c0,2.1-0.1,4.2,0,6.2c0,1,0.1,2.1,0.2,3.1c0.1,1,0.2,2.1,0.4,3.1
			c0.6,4.1,1.7,8.1,3.3,11.9c1.5,3.9,3.4,7.6,5.6,11.2c-2.9-3.1-5.2-6.7-7-10.6c-1.9-3.8-3.2-8-3.8-12.2c-0.6-4.3-0.6-8.6-0.2-12.8
			C39,261.5,39.8,257.3,41.3,253.3z"/>
	</g>
	<g class="st4">
		<path class="st3" d="M137.3,355c4.3-1.6,8.3-3.7,12-6.2c1.8-1.3,3.7-2.6,5.3-4c1.7-1.5,3.3-3,4.7-4.7c2.9-3.4,5.2-7.2,7.4-11.2
			c2.2-4,4.1-8,5.9-12.2c-1,4.5-2.6,8.8-4.5,12.9c-1.9,4.2-4.3,8.1-7.3,11.7c-3,3.6-6.7,6.5-10.7,8.8
			C146.2,352.5,141.8,354.2,137.3,355z"/>
	</g>
	<g class="st6">
		<path class="st3" d="M272.3,227.3c3.2,6.8,6,13.7,8.4,20.8c2.4,7.1,4.6,14.2,6.2,21.6c1.6,7.4,2.2,14.9,2.6,22.3
			c0.4,7.5,0.4,14.9,0.1,22.4c-0.5-7.4-1-14.9-1.6-22.3c-0.7-7.4-1.4-14.8-3.1-22c-1.6-7.2-3.6-14.4-5.8-21.5
			C277,241.5,274.8,234.4,272.3,227.3z"/>
	</g>
	<g class="st5">
		<path class="st3" d="M30.7,272.7c0.5,3.4,1.1,6.8,1.7,10.2c0.7,3.4,1.4,6.7,2.7,9.9c1.3,3.1,2.9,6.2,4.6,9.2l5.1,9.1
			c-2.2-2.7-4.2-5.5-6.1-8.5c-1.9-2.9-3.6-6-5-9.2c-1.3-3.3-2-6.8-2.4-10.2C30.8,279.6,30.6,276.1,30.7,272.7z"/>
	</g>
	<g class="st4">
		<path class="st3" d="M331,141.7c3-0.6,5.9-1.9,8.6-3.2c1.4-0.7,2.7-1.4,4-2.2c0.6-0.4,1.3-0.8,1.9-1.2c0.6-0.5,1.2-0.9,1.8-1.4
			c1.2-0.9,2.3-2,3.3-3c0.6-0.5,1.1-1.1,1.6-1.6l1.5-1.7c2-2.3,4-4.7,5.9-7.1c-1.2,2.9-2.9,5.5-4.7,8.1c-1.8,2.5-4,4.9-6.4,6.9
			c-0.6,0.5-1.3,1-1.9,1.4c-0.7,0.4-1.4,0.9-2.1,1.2c-1.4,0.7-2.8,1.4-4.3,1.9C337.3,141,334.1,141.9,331,141.7z"/>
	</g>
	<g class="st5">
		<path class="st3" d="M339,148.3c2-0.9,3.9-1.8,5.8-2.8c1.9-1,3.8-2,5.5-3.2c0.9-0.6,1.6-1.3,2.4-2c0.8-0.7,1.5-1.5,2.3-2.2
			c1.5-1.5,2.9-3.1,4.3-4.8c-0.9,2-2,3.9-3.4,5.6c-1.4,1.7-2.9,3.3-4.7,4.6c-1.8,1.3-3.8,2.3-5.9,3.1
			C343.3,147.4,341.2,148,339,148.3z"/>
	</g>
	<g class="st4">
		<path class="st3" d="M266.3,142c1.3-3.2,3.1-6.2,5.2-9c2.1-2.8,4.5-5.3,7.4-7.5c1.5-1.1,3-1.9,4.6-2.7c1.6-0.8,3.2-1.4,4.8-2
			c3.3-1.2,6.6-2.2,10-2.8c-3.2,1.4-6.3,2.7-9.4,4.2c-1.5,0.7-3.1,1.5-4.6,2.3c-1.5,0.8-2.9,1.6-4.2,2.6c-1.3,1-2.6,2.1-3.8,3.3
			c-1.2,1.1-2.4,2.4-3.5,3.6C270.5,136.5,268.4,139.2,266.3,142z"/>
	</g>
	<g class="st4">
		<path class="st3" d="M91.3,26.7c4.3,1.1,8.5,2.6,12.6,4.3c4.1,1.7,8.2,3.5,12.2,5.5c8,4,15.6,8.7,22.9,13.8c0.9,0.7,1.8,1.3,2.7,2
			l2.7,2c1.8,1.3,3.5,2.8,5.2,4.2c3.4,2.9,6.7,5.9,9.8,9.1c6.2,6.4,12,13.3,16.4,21.1c-2.5-3.7-5.3-7.1-8.3-10.4
			c-2.9-3.3-6-6.5-9.2-9.5c-6.4-6.1-13.2-11.7-20.4-16.9c-7.2-5.2-14.7-9.9-22.4-14.1c-3.9-2.1-7.8-4.1-11.8-6
			C99.6,29.9,95.5,28.2,91.3,26.7z"/>
	</g>
	<g class="st5">
		<path class="st3" d="M135.1,32.4c6,3,11.6,6.9,16.9,11.1c5.3,4.2,10.3,8.8,14.9,13.7c4.6,5,8.5,10.6,12.1,16.3
			c1.8,2.9,3.5,5.8,5.2,8.7c1.6,3,3.2,5.9,4.6,9c-1.7-2.9-3.4-5.8-5.3-8.6c-1.8-2.9-3.6-5.7-5.5-8.5c-3.8-5.5-7.7-11-12.3-15.9
			c-4.5-4.9-9.5-9.5-14.6-13.9c-2.6-2.2-5.2-4.3-7.9-6.2C140.7,36,138,34.1,135.1,32.4z"/>
	</g>
	<g class="st5">
		<path class="st3" d="M48.5,57.4c1.7,2.8,3.2,5.6,4.7,8.5c1.4,2.9,2.8,5.8,4.1,8.8c2.6,5.9,4.8,12.1,6.3,18.4
			c1.5,6.3,2.8,12.6,3.6,19.1c0.8,6.4,1.3,12.9,1,19.4c-0.1-3.2-0.4-6.4-0.7-9.6c-0.4-3.2-0.8-6.4-1.3-9.6
			c-1.1-6.3-2.4-12.6-3.9-18.9c-0.7-3.1-1.6-6.2-2.7-9.2c-1-3.1-2.1-6.1-3.3-9.1c-1.2-3-2.4-6-3.7-8.9
			C51.2,63.3,49.9,60.4,48.5,57.4z"/>
	</g>
</g>
<g id="Ebene_4_Kopie">
	<g>
		<path class="st7" d="M187.1,215c0,0-8.9,0-13.6-7.7c-4-6.5-2.7-15.2,4.5-21.4c4.4-3.7,11.7-9.2,9.4-12.5
			c-2.3-3.2-8.4-6.3-19.5-1.1c-21.7,10.1-29.1,38.1-45.5,48.3c-13.3,8.3-51.7,4.4-66.7,30.1c-15.1,25.8,7.4,55.1,17.6,68.4
			c10.1,13.2,27.4,32.4,49.7,31.1c22-1.3,34.4-20.6,40-33.9c4.7-11.3,9-24.7,21.9-28.8c12.8-4.1,21.7-6.1,30.3-14.5
			c8.6-8.4,8.2-16.5,4.4-18.1c-3.8-1.7-10.6,5.2-18.6,6c-8,0.8-13.4-4.7-14.6-8.1c-2.3-6.6,0-11.6,0-11.6"/>
		<path d="M187.1,216.2c-1.7,0-3.1-0.2-4.7-0.6c-1.5-0.4-3-0.9-4.4-1.7c-1.4-0.8-2.7-1.7-3.8-2.9c-1.1-1.1-2.1-2.4-2.9-3.9
			c-1.6-2.8-2.2-6.2-2-9.4c0.3-3.2,1.5-6.4,3.3-8.9c0.9-1.3,2-2.5,3.2-3.5c1.2-1.1,2.3-1.9,3.5-2.8c2.2-1.7,4.5-3.5,6.2-5.5
			c0.8-1,1.4-2.2,1.1-2.8c0-0.1-0.1-0.2-0.1-0.3l-0.3-0.4c-0.2-0.2-0.4-0.5-0.6-0.7c-0.5-0.4-1-0.8-1.5-1.1
			c-2.3-1.3-5.1-1.5-7.8-1.1c-2.7,0.4-5.4,1.3-7.9,2.5c-2.5,1.2-4.9,2.7-7.2,4.4c-4.5,3.4-8.3,7.7-11.8,12.2
			c-3.5,4.5-6.6,9.3-9.9,14.1c-3.3,4.7-6.8,9.5-11.1,13.6c-1.1,1-2.2,2-3.4,2.9c-0.6,0.4-1.2,0.8-1.9,1.3c-0.7,0.4-1.3,0.8-2,1.1
			c-2.8,1.3-5.6,2.1-8.4,2.8c-5.7,1.4-11.4,2.4-17,3.6c-5.6,1.2-11.1,2.7-16.4,4.7c-5.3,2.1-10.3,4.8-14.5,8.4
			c-4.2,3.6-7.5,8.2-9.7,13.3c-2.2,5.1-3,10.7-2.6,16.2c0.3,5.5,1.8,11,3.9,16.2c2.1,5.2,4.8,10.2,7.9,15c3,4.8,6.4,9.4,10,13.9
			c3.5,4.6,7.1,8.9,11.1,13c4,4,8.3,7.7,12.9,10.8c4.7,3.1,9.8,5.4,15.1,6.6c5.3,1.2,10.9,1.1,16.2-0.2c5.3-1.3,10.2-4,14.5-7.4
			c4.3-3.5,7.9-7.8,11-12.5c1.5-2.4,2.9-4.8,4.2-7.3c1.3-2.5,2.3-5.1,3.5-7.8c2.2-5.3,4.5-10.8,7.9-15.8c1.7-2.5,3.8-4.8,6.3-6.7
			c1.2-0.9,2.6-1.8,4-2.5c1.4-0.7,2.9-1.2,4.3-1.7c5.5-1.7,11.1-3.3,16.3-5.4c5.2-2.1,9.9-5.1,13.9-9.1c1.9-2,3.6-4.2,4.7-6.7
			c0.5-1.2,0.9-2.5,1-3.8c0.1-1.3,0-2.6-0.6-3.5c-0.3-0.5-0.6-0.8-1.1-1.1c-0.4-0.2-0.9-0.3-1.5-0.2c-1.1,0.1-2.4,0.7-3.7,1.3
			c-2.5,1.2-5.1,2.7-7.9,3.7c-2.8,1.1-6,1.6-9.1,1.2c-3.1-0.4-6.1-1.8-8.5-3.9c-1.2-1-2.2-2.2-3-3.7c-0.2-0.4-0.4-0.8-0.5-1.2
			l-0.4-1.1c-0.2-0.7-0.4-1.5-0.6-2.3c-0.3-1.5-0.4-3.1-0.3-4.7c0.1-0.8,0.1-1.6,0.3-2.4c0.1-0.4,0.2-0.8,0.3-1.2
			c0.1-0.4,0.2-0.7,0.4-1.3l3.2,1.4c-0.1,0.2-0.2,0.5-0.3,0.8c-0.1,0.3-0.2,0.6-0.3,0.9c-0.2,0.6-0.3,1.3-0.3,1.9
			c-0.1,1.3-0.1,2.6,0.1,3.9c0.1,0.7,0.2,1.3,0.4,2l0.3,1c0.1,0.3,0.2,0.5,0.3,0.8c0.6,1.1,1.4,2.1,2.4,3c1.9,1.8,4.4,3,7,3.4
			c2.6,0.4,5.3,0,7.9-1c2.6-0.9,5.1-2.3,7.8-3.6c1.3-0.6,2.7-1.3,4.4-1.5c0.8-0.1,1.9,0,2.7,0.5c0.9,0.4,1.5,1.1,2,1.9
			c0.9,1.6,1.1,3.3,1,4.9c-0.1,1.6-0.6,3.1-1.1,4.5c-1.2,2.9-2.9,5.4-5,7.6c-2,2.2-4.3,4.2-6.7,5.9c-2.4,1.7-5.1,3.2-7.8,4.4
			c-5.4,2.4-11.1,3.9-16.5,5.7c-2.7,0.8-5,2-7.1,3.6c-2.1,1.6-3.9,3.7-5.5,5.9c-3.1,4.5-5.3,9.8-7.4,15.2
			c-4.2,10.8-10.2,21.6-19.6,29.3c-4.7,3.8-10.1,6.8-16.1,8.2c-5.9,1.5-12.1,1.6-18.1,0.3c-5.9-1.3-11.5-3.9-16.5-7.2
			c-5-3.3-9.4-7.2-13.5-11.4c-4.1-4.2-7.8-8.8-11.3-13.4c-3.5-4.6-7-9.3-10-14.3c-3.1-5-5.9-10.2-8-15.7c-2.1-5.5-3.7-11.3-4-17.3
			c-0.3-6,0.6-12.1,3-17.6c2.4-5.5,6-10.5,10.6-14.4c4.6-3.9,9.9-6.7,15.4-8.8c5.5-2.1,11.2-3.5,16.9-4.7c5.7-1.2,11.4-2.1,16.9-3.4
			c2.8-0.7,5.5-1.4,8-2.6c0.6-0.3,1.2-0.6,1.8-0.9c0.6-0.4,1.2-0.7,1.7-1.2c1.1-0.8,2.2-1.7,3.2-2.6c4.1-3.8,7.5-8.5,10.8-13.1
			c3.3-4.7,6.5-9.6,10.1-14.2c3.6-4.6,7.5-9,12.3-12.5c2.4-1.8,4.9-3.3,7.6-4.6c2.7-1.2,5.5-2.3,8.5-2.7c3-0.4,6.2-0.2,9.1,1.3
			c0.7,0.4,1.4,0.9,2,1.4c0.3,0.3,0.6,0.6,0.9,0.9l0.4,0.5c0.1,0.2,0.3,0.4,0.4,0.7c0.5,1,0.4,2.1,0.1,3c-0.3,0.9-0.7,1.6-1.1,2.3
			c-1.8,2.6-4,4.6-6.1,6.6l-1.6,1.5c-0.5,0.5-1.1,0.9-1.5,1.4c-0.9,0.9-1.8,1.9-2.5,3c-1.4,2.1-2.4,4.6-2.7,7.1
			c-0.3,2.5,0.2,5.1,1.4,7.4c1.1,2.3,2.9,4.3,5.1,5.6c1.1,0.7,2.3,1.3,3.6,1.7c1.2,0.4,2.6,0.7,3.9,0.9L187.1,216.2z"/>
	</g>
	<g>
		<path class="st8" d="M174.1,224.8c0,0-0.2-9.6-5-9.5c-4.8,0.1-9.6,15-24.5,21.3c-15,6.3-31.6,6.9-40.1,21.3
			c-8.1,13.8,16.8,33.7,21.1,39.5c4.4,5.8,8.3,11.2,9.2,20.8c1,10.6,0.2,17.6,4.9,19.1c4.6,1.5,9.3-2.1,14.6-13.7
			c5.4-12,11.5-28.1,19.4-34.8c9.5-8,22.1-6.8,32-13c9.8-6.1,12.1-14.9,12.1-14.9s-12.1,7.4-24.4,4.6c-12.4-2.8-12.5-17.9-12.5-17.9
			"/>
		<path d="M173.6,224.8c0-1.5-0.2-3.1-0.6-4.5c-0.4-1.5-0.9-2.9-2-3.9c-0.5-0.5-1.2-0.7-1.9-0.7c-0.7,0-1.3,0.3-1.9,0.8
			c-1.2,0.9-2.1,2.1-3.1,3.3c-1.9,2.4-3.8,4.9-5.9,7.3c-2.1,2.3-4.4,4.5-7,6.3c-2.6,1.8-5.4,3.3-8.3,4.4c-2.9,1.1-5.9,2.1-8.9,3
			c-5.9,1.9-12,3.5-17.4,6.4c-2.7,1.4-5.2,3.2-7.4,5.4c-1.1,1.1-2.1,2.3-3,3.5c-0.9,1.3-1.7,2.5-2.2,3.9c-1,2.8-0.7,6,0.2,8.9
			c0.9,2.9,2.5,5.6,4.2,8.2c3.5,5.1,7.7,9.7,12.1,14.1l3.3,3.3c0.5,0.6,1.1,1.1,1.6,1.7c0.5,0.6,1,1.3,1.5,1.9
			c1.9,2.5,3.7,5.1,5.1,7.9c1.4,2.8,2.5,5.9,3,9c0.5,3.1,0.7,6.2,0.9,9.3c0.1,1.6,0.2,3.1,0.3,4.6c0.2,1.5,0.3,3.1,0.8,4.5
			c0.4,1.4,1.2,2.7,2.5,3.2c1.3,0.6,2.8,0.6,4.2,0.1c1.4-0.5,2.6-1.5,3.6-2.5c1-1.1,2-2.3,2.8-3.6c1.7-2.6,3-5.4,4.3-8.2
			c2.5-5.7,4.9-11.4,7.7-17c1.4-2.8,2.8-5.6,4.5-8.2c1.6-2.7,3.5-5.3,5.7-7.5c2.3-2.2,5-4,7.8-5.3c2.9-1.3,5.9-2.2,8.9-3
			c3-0.8,6-1.5,9-2.5c2.9-1,5.8-2.1,8.4-3.9c2.6-1.7,4.9-3.7,6.8-6.2c1-1.2,1.8-2.5,2.6-3.8c0.7-1.3,1.4-2.8,1.8-4.2l0.4,0.3l0,0
			c-3.6,2.1-7.4,3.5-11.4,4.5c-4,0.9-8.2,1.2-12.3,0.4c-2-0.4-4.1-1.1-5.8-2.2c-1.8-1.1-3.3-2.7-4.4-4.4c-1.2-1.7-2-3.7-2.6-5.7
			c-0.6-2-0.9-4-1-6.2l1,0c0.1,3.9,1.2,8,3.3,11.4c1.1,1.7,2.5,3.1,4.1,4.2c1.7,1.1,3.5,1.8,5.5,2.1c4,0.8,8.1,0.6,12-0.3
			c3.9-0.9,7.8-2.3,11.3-4.3l0,0l0.6-0.4l-0.2,0.6c-0.4,1.5-1.1,3-1.9,4.3c-0.8,1.4-1.6,2.7-2.6,3.9c-1.9,2.5-4.3,4.6-6.9,6.3
			c-2.6,1.8-5.5,3-8.5,4c-3,1-6,1.7-9,2.5c-3,0.8-6,1.7-8.8,3c-2.8,1.3-5.4,3-7.6,5.1c-2.2,2.2-3.9,4.7-5.6,7.3
			c-1.6,2.6-3,5.4-4.4,8.2c-2.7,5.6-5.1,11.3-7.6,17c-1.3,2.9-2.6,5.7-4.3,8.3c-0.9,1.3-1.8,2.6-2.9,3.8c-1.1,1.2-2.4,2.2-4,2.8
			c-1.6,0.6-3.4,0.5-4.9-0.1c-0.8-0.3-1.5-0.9-2-1.6c-0.5-0.7-0.8-1.5-1.1-2.2c-0.5-1.6-0.7-3.1-0.8-4.7c-0.2-1.6-0.3-3.1-0.4-4.7
			c-0.2-3.1-0.4-6.2-0.9-9.2c-0.5-3-1.5-5.9-2.9-8.7c-1.4-2.7-3.2-5.3-5-7.7c-0.5-0.6-0.9-1.2-1.4-1.8c-0.5-0.6-1-1.1-1.6-1.7
			l-3.3-3.3c-4.3-4.5-8.6-9-12.2-14.2c-1.7-2.6-3.3-5.4-4.3-8.4c-1-3-1.3-6.4-0.2-9.5c2.6-5.9,7.5-10.4,13.1-13.3
			c5.6-3,11.7-4.6,17.6-6.4c3-0.9,5.9-1.9,8.8-3c2.9-1.1,5.7-2.5,8.2-4.2c2.5-1.8,4.8-3.9,6.9-6.2c2.1-2.3,4-4.8,5.9-7.2
			c1-1.2,2-2.4,3.2-3.5c0.6-0.5,1.4-0.9,2.4-0.9c0.9,0,1.8,0.3,2.4,0.9c1.3,1.2,1.9,2.8,2.3,4.3c0.4,1.6,0.6,3.1,0.7,4.7
			L173.6,224.8z"/>
	</g>
	<g>
		<polygon class="st9" points="165.1,231.5 309.6,119.3 318.1,132.4 178.6,248.7 		"/>
		<path d="M164.1,231.4c48.2-37.6,96.5-75.3,144.9-112.8l0.9-0.7l0.6,0.9l8.5,13.1l0.5,0.8l-0.7,0.6L284,162.4l-34.9,29.1l-34.9,29
			L196.8,235l-8.7,7.3c-2.9,2.4-5.8,4.8-9.1,6.8l-0.4,0.2l-0.3-0.3l-7-8.7l-3.5-4.4l-1.8-2.2l-0.9-1.1l-0.4-0.6
			C164.5,231.7,164.4,231.6,164.1,231.4z M166.1,231.6c0,0.2,0.2,0.3,0.3,0.5l0.4,0.5l0.8,1l1.6,2.1l3.2,4.2l6.5,8.5l-0.7-0.1
			c2.5-2.9,5.4-5.3,8.3-7.7l8.7-7.3l17.4-14.6l34.8-29.1l34.9-29.1l35-29l-0.2,1.3l-8.5-13.1l1.5,0.3
			C262.3,157.4,214.3,194.5,166.1,231.6z"/>
	</g>
	<g>
		<path class="st10" d="M318.1,132.4c0,0,5.7-4.8,7.3-4.9c1.6-0.1,10.2,4.5,10.2,4.5l20.1-24.8c0,0,3.7,5.9,12,4.1
			c6.8-1.5,9.7-10.6,5.7-17.6c-3.3-5.7-9.5-4.6-13.5-3.7c-4,0.9-50.1,19.5-50.1,19.5s1.5,2.6,1.6,4.2c0.1,1.7-1.8,5.5-1.8,5.5"/>
		<path d="M317.5,131.7c1.1-1.3,2.3-2.5,3.7-3.6c0.7-0.5,1.4-1.1,2.2-1.5c0.2-0.1,0.4-0.2,0.7-0.4c0.3-0.1,0.5-0.2,1.1-0.3
			c0.6,0,0.9,0.1,1.2,0.1c0.3,0.1,0.5,0.1,0.7,0.2c0.9,0.3,1.7,0.7,2.5,1c0.8,0.4,1.5,0.8,2.3,1.2c1.5,0.8,2.9,1.7,4.3,2.8l0,0
			l-1.3,0.3l19.8-24.9l2.1,0.1l0,0c0.2,0.3,0.6,0.6,0.9,0.9c0.4,0.3,0.7,0.6,1.1,0.9c0.8,0.5,1.6,0.9,2.5,1.2
			c1.7,0.6,3.7,0.7,5.6,0.3c3.7-0.5,6.4-3.9,7-7.8c0.3-1.9,0.2-4-0.4-5.9c-0.6-1.9-1.7-3.7-3.3-4.8c-1.6-1.1-3.7-1.5-5.7-1.3
			c-2,0.1-4.2,0.5-6.1,1.2c-8.1,2.9-16.2,6-24.2,9.2c-8,3.2-16,6.5-24,9.7l0.4-1.2l0,0c0.5,0.8,0.9,1.6,1.2,2.4
			c0.2,0.4,0.3,0.9,0.5,1.3c0.1,0.2,0.1,0.5,0.1,0.8c0,0.3,0,0.6,0,0.8c-0.1,1-0.4,1.9-0.7,2.7c-0.3,0.9-0.6,1.7-1,2.5l-1.8-0.9
			c0.4-0.7,0.7-1.5,1.1-2.3c0.3-0.8,0.6-1.6,0.7-2.3c0.1-0.5-0.1-1.3-0.4-2.1c-0.3-0.8-0.6-1.5-1-2.2l0,0l-0.5-0.8l0.9-0.3l24.1-9.5
			c8.1-3.1,16-6.4,24.2-9.4c0.5-0.2,1-0.4,1.6-0.5c0.5-0.2,1.1-0.3,1.6-0.4c1.1-0.2,2.2-0.4,3.3-0.5c2.2-0.1,4.7,0.2,6.7,1.5
			c1,0.6,1.9,1.5,2.6,2.5c0.7,1,1.2,2,1.6,3.1c0.8,2.2,1.2,4.5,1,6.9c-0.2,2.3-1,4.7-2.5,6.6c-1.4,2-3.8,3.5-6.2,3.9
			c-2.3,0.5-4.9,0.5-7.2-0.4c-1.2-0.4-2.3-1.1-3.2-1.8c-0.5-0.4-0.9-0.8-1.3-1.3c-0.4-0.5-0.8-0.9-1.1-1.5l0,0l2.1,0.1l-20.3,24.6
			l-0.5,0.7l-0.7-0.4l0,0c-1.6-0.6-3.1-1.2-4.6-1.8c-1.5-0.6-3.1-1.3-4.5-1.8c-0.2-0.1-0.3-0.1-0.5-0.1c-0.1,0-0.2,0,0,0
			c0.1,0,0,0-0.1,0c-0.1,0-0.3,0.1-0.4,0.2c-0.6,0.3-1.3,0.7-2,1.2c-1.4,0.8-2.8,1.8-4.2,2.6L317.5,131.7z"/>
	</g>
	<g>
		<polygon class="st11" points="98.8,278.3 119.1,305 126,300.4 122.8,296.2 128.1,292.9 110.6,270.1 103.8,275.3 		"/>
		<path d="M99.3,278.4c6.9,8.8,13.8,17.4,20.6,26l-1.2-0.2l7.1-4.2l-0.1,0.7l-3.2-4.2l-0.3-0.4l0.5-0.3l5.3-3.3l-0.1,0.7l-17.5-22.8
			l0.7,0.1l-6.9,5.2l0,0l0,0C102.5,276.7,100.9,277.5,99.3,278.4z M98.3,278.2c1.7-1.1,3.5-2.3,5.2-3.3l0,0l6.9-5.2l0.4-0.3l0.3,0.4
			l17.5,22.8l0.3,0.4l-0.5,0.3l-5.3,3.3l0.1-0.7l3.2,4.2l0.3,0.4l-0.4,0.3l-6.7,4.9l-0.7,0.5l-0.5-0.7
			C111.6,296.4,104.9,287.2,98.3,278.2z"/>
	</g>
	<g>
		<line class="st0" x1="107.3" y1="275.3" x2="122.8" y2="296.2"/>
		<polygon points="107.3,275.3 123.2,295.9 122.4,296.5 		"/>
	</g>
	<g>
		<path class="st12" d="M135.7,254.3l14.6,16.8c1.2,1.3,3.2,1.5,4.5,0.3l0.2-0.2c1.3-1.2,1.4-3.1,0.3-4.5l-14.4-17
			c-1.1-1.3-3.2-1.5-4.5-0.4l-0.4,0.3C134.7,250.9,134.5,252.9,135.7,254.3z"/>
		<path d="M136,254l10.8,12.3l2.7,3.1c0.4,0.5,0.9,1.1,1.3,1.5c0.4,0.4,0.9,0.7,1.5,0.8c0.6,0.1,1.2,0,1.7-0.3
			c0.3-0.1,0.5-0.3,0.7-0.5c0.2-0.2,0.4-0.4,0.5-0.7c0.6-1,0.5-2.3-0.3-3.2l-10.5-12.5l-2.6-3.1c-0.4-0.5-0.9-1.1-1.3-1.5
			c-0.4-0.4-1-0.7-1.6-0.8c-0.6-0.1-1.2,0.1-1.8,0.4c-0.3,0.1-0.5,0.4-0.8,0.6c-0.2,0.2-0.4,0.4-0.6,0.7
			C135,251.7,135.2,253.1,136,254z M135.4,254.5c-1-1.2-1.1-3-0.3-4.2c0.2-0.3,0.5-0.6,0.7-0.8c0.3-0.2,0.5-0.5,0.9-0.6
			c0.6-0.4,1.4-0.5,2.2-0.5c0.7,0.1,1.5,0.4,2,0.9c0.5,0.5,0.9,1,1.4,1.6l2.7,3.1l10.6,12.4c0.5,0.5,0.9,1.3,1,2.1
			c0.1,0.8-0.1,1.6-0.5,2.3c-0.2,0.3-0.4,0.7-0.7,0.9c-0.2,0.2-0.6,0.5-0.9,0.7c-0.7,0.4-1.5,0.5-2.3,0.4c-0.8-0.1-1.5-0.5-2.1-1.1
			c-0.5-0.6-0.9-1-1.4-1.6l-2.7-3.1L135.4,254.5z"/>
	</g>
	<g>
		<path class="st12" d="M155.2,239.9l12.9,16.9c1.1,1.5,3.3,1.7,4.7,0.4l0,0c1.3-1.1,1.5-3.1,0.4-4.4l-12.9-16.9
			c-1.1-1.5-3.3-1.7-4.8-0.4l0,0C154.4,236.6,154.2,238.5,155.2,239.9z"/>
		<path d="M155.5,239.7l9.7,12.4l2.4,3.1l0.6,0.8c0.2,0.3,0.4,0.5,0.6,0.7c0.4,0.4,0.9,0.7,1.4,0.8c1.1,0.2,2.3-0.3,2.9-1.3
			c0.6-0.9,0.6-2.3-0.1-3.2l-9.4-12.6l-2.4-3.2c-0.4-0.5-0.8-1.1-1.2-1.5c-0.4-0.4-1-0.7-1.6-0.8c-1.2-0.2-2.5,0.4-3.1,1.4
			C154.7,237.4,154.7,238.8,155.5,239.7z M155,240.1c-0.9-1.2-0.9-2.8-0.2-4c0.7-1.2,2.3-1.9,3.7-1.7c0.7,0.1,1.4,0.5,1.9,1
			c0.5,0.5,0.8,1,1.3,1.6l2.4,3.1l9.6,12.5c0.9,1.2,1,3,0.2,4.3c-0.8,1.3-2.4,2.1-3.9,1.8c-0.8-0.1-1.5-0.5-2-1.1
			c-0.3-0.3-0.5-0.6-0.7-0.8l-0.6-0.8l-2.4-3.2L155,240.1z"/>
	</g>
	<g>
		<path class="st13" d="M143,293.4c0.2,2.5-1.6,4.7-4,4.9c-2.5,0.3-4.6-1.5-4.9-4c-0.2-2.5,1.6-4.7,4-4.9
			C140.6,289.1,142.8,290.9,143,293.4z"/>
		<path class="st14" d="M143.6,293.3c0.2,1.3-0.2,2.7-1.1,3.8c-0.8,1.1-2.1,1.8-3.5,2c-1.4,0.2-2.8-0.3-3.9-1.1
			c-1.1-0.9-1.7-2.2-1.8-3.5c-0.1-1.3,0.4-2.7,1.2-3.7c0.9-1,2.1-1.7,3.4-1.8c1.3-0.1,2.6,0.2,3.7,1.1
			C142.8,290.7,143.5,292,143.6,293.3z M142.4,293.4c-0.1-1-0.5-2-1.3-2.7c-0.8-0.7-1.9-1-2.9-0.8c-1,0.1-2,0.7-2.6,1.5
			c-0.6,0.8-0.9,1.9-0.8,2.8c0.1,1,0.6,1.9,1.4,2.5c0.8,0.6,1.8,0.8,2.7,0.8c1-0.1,1.9-0.6,2.5-1.3
			C142.1,295.4,142.4,294.4,142.4,293.4z"/>
	</g>
	<g>
		<path class="st13" d="M146.7,310.5c0.2,2.4-1.6,4.7-4,4.9c-2.5,0.3-4.6-1.5-4.9-3.9c-0.2-2.5,1.6-4.7,4-4.9
			C144.3,306.3,146.4,308.1,146.7,310.5z"/>
		<path class="st14" d="M147.2,310.5c0.1,1.3-0.3,2.7-1.1,3.7c-0.8,1-2.1,1.7-3.4,1.9c-1.3,0.2-2.7-0.2-3.7-1.1
			c-1-0.8-1.7-2.1-1.8-3.4c-0.1-1.3,0.3-2.7,1.2-3.7c0.8-1,2.1-1.7,3.3-1.8c1.3-0.2,2.7,0.2,3.7,1
			C146.4,307.9,147.1,309.2,147.2,310.5z M146.1,310.6c-0.1-1-0.6-2-1.4-2.6c-0.8-0.7-1.9-1-2.9-0.8c-1,0.1-2,0.7-2.6,1.5
			c-0.6,0.8-1,1.9-0.8,2.9c0.1,1,0.6,2,1.4,2.6c0.8,0.6,1.8,0.9,2.8,0.8C144.6,314.7,146.3,312.7,146.1,310.6z"/>
	</g>
	<g>
		<path class="st13" d="M146.5,327.8c0.2,2.4-1.6,4.7-4,4.9c-2.5,0.3-4.6-1.5-4.9-3.9c-0.2-2.5,1.6-4.7,4-4.9
			C144.1,323.6,146.3,325.3,146.5,327.8z"/>
		<path class="st14" d="M147.1,327.7c0.1,1.3-0.3,2.7-1.1,3.7c-0.8,1-2.1,1.7-3.4,1.9c-1.3,0.2-2.7-0.2-3.7-1.1
			c-1-0.8-1.7-2.1-1.8-3.4c-0.1-1.3,0.3-2.7,1.1-3.7c0.8-1,2-1.7,3.3-1.8c1.3-0.2,2.7,0.2,3.7,1C146.3,325.2,147,326.4,147.1,327.7z
			 M146,327.8c-0.1-1-0.6-2-1.4-2.6c-0.8-0.6-1.9-0.9-2.9-0.8c-1,0.1-2,0.7-2.6,1.5c-0.6,0.8-1,1.9-0.9,2.9c0.1,1,0.6,2,1.4,2.6
			c0.8,0.6,1.8,0.9,2.8,0.8C144.5,331.9,146.2,329.9,146,327.8z"/>
	</g>
	<g>
		<path class="st11" d="M120.8,345.3c2.1,0,6.8-9.4,6.7-18.1c-0.1-8.6-1.7-14.3-6.6-14.5c-4.2-0.1-6.5,9.1-6.2,15.6
			C115.1,336.6,118.3,345.2,120.8,345.3z"/>
		<path d="M120.8,344.8c0.1,0,0.4-0.2,0.7-0.4c0.2-0.2,0.5-0.5,0.7-0.8c0.4-0.6,0.8-1.2,1.2-1.9c0.7-1.3,1.3-2.7,1.8-4.2
			c1-2.9,1.7-5.9,1.8-8.9c0.1-3-0.1-6.2-0.7-9.1c-0.3-1.5-0.8-2.9-1.6-4.2c-0.4-0.6-0.9-1.1-1.5-1.5c-0.6-0.4-1.3-0.6-2-0.7
			c-0.4-0.1-0.7,0-1,0c-0.3,0.1-0.6,0.2-0.9,0.5c-0.6,0.4-1,1-1.5,1.6c-0.8,1.3-1.3,2.7-1.7,4.2c-0.8,2.9-1.1,6-1,9.1
			c0.2,3.1,0.7,6.1,1.6,9c0.4,1.5,0.9,2.9,1.6,4.3c0.3,0.7,0.7,1.3,1.1,1.9C119.8,344.2,120.4,344.8,120.8,344.8z M120.8,345.8
			c-0.6,0-1-0.3-1.3-0.6c-0.3-0.3-0.6-0.6-0.8-0.9c-0.5-0.7-0.9-1.4-1.2-2.1c-0.7-1.4-1.2-2.9-1.6-4.4c-0.8-3-1.4-6.1-1.5-9.2
			c-0.1-3.1,0.2-6.3,1.1-9.3c0.4-1.5,1-3,1.9-4.4c0.5-0.7,1-1.3,1.7-1.8c0.3-0.3,0.7-0.4,1.2-0.6c0.4-0.1,0.9-0.1,1.3-0.1
			c0.8,0,1.6,0.3,2.4,0.8c0.7,0.4,1.3,1.1,1.8,1.7c0.9,1.4,1.4,2.9,1.7,4.4c0.6,3.1,0.8,6.2,0.7,9.3c-0.1,3.1-0.8,6.2-1.8,9.2
			c-0.5,1.5-1.1,2.9-1.8,4.3c-0.4,0.7-0.8,1.4-1.3,2c-0.2,0.3-0.5,0.6-0.8,0.9C121.8,345.4,121.4,345.8,120.8,345.8z"/>
	</g>
	<g class="st15">
		<line class="st0" x1="155.4" y1="308.2" x2="157.4" y2="292.5"/>
		<polygon points="154.8,308.1 156.6,292.4 158.2,292.6 156,308.3 		"/>
	</g>
	<line class="st16" x1="266.2" y1="153" x2="276.9" y2="167"/>
	<line class="st16" x1="257.9" y1="160.1" x2="268.7" y2="174.4"/>
	<line class="st16" x1="248.9" y1="165.9" x2="260.7" y2="180.8"/>
	<line class="st16" x1="241.5" y1="171.6" x2="253.7" y2="187.2"/>
	<line class="st16" x1="234.4" y1="178" x2="246.1" y2="193.6"/>
	<line class="st16" x1="227.6" y1="183" x2="239.3" y2="199.3"/>
	<line class="st16" x1="220.7" y1="188.4" x2="233" y2="203.6"/>
	<line class="st16" x1="214.8" y1="193.3" x2="226.2" y2="208.7"/>
	<line class="st16" x1="208.5" y1="197.6" x2="221" y2="213.9"/>
	<line class="st16" x1="203.2" y1="202.2" x2="215" y2="218.2"/>
	<line class="st16" x1="197.5" y1="206.5" x2="210.4" y2="222.7"/>
	<line class="st16" x1="193.7" y1="209.6" x2="206" y2="226.2"/>
	<line class="st16" x1="189" y1="213.8" x2="201.6" y2="230"/>
	<line class="st16" x1="183.8" y1="216.3" x2="196.5" y2="233.3"/>
	<line class="st16" x1="180.8" y1="220" x2="193.2" y2="237.4"/>
	<line class="st16" x1="176" y1="223.9" x2="189.4" y2="239.8"/>
	<line class="st16" x1="172.5" y1="226.3" x2="184.9" y2="243.3"/>
	<line class="st16" x1="169" y1="228.7" x2="182.2" y2="246.3"/>
	<line class="st17" x1="281.8" y1="136.2" x2="290.8" y2="150.3"/>
	<line class="st18" x1="276.9" y1="144.7" x2="286.5" y2="158.4"/>
	<g>
		<path class="st0" d="M69.2,239.9c-2.3,2.2-4.5,4.5-6.4,7c-1.9,2.5-3.6,5.2-5,8c-1.3,2.8-2.4,5.7-2.9,8.8c-0.5,3-0.6,6.1,0,9.2
			c0.8,6.2,2.6,12.3,4.9,18.1c2.4,5.8,5.2,11.5,8.6,16.9c-4-4.9-7.3-10.5-10-16.3c-1.3-2.9-2.4-5.9-3.4-9c-0.9-3.1-1.6-6.2-2.1-9.4
			c-0.1-0.8-0.2-1.6-0.3-2.4l-0.1-2.5l0-0.6l0.1-0.6l0.1-1.2l0.1-1.2c0-0.4,0.2-0.8,0.2-1.2c0.6-3.2,1.8-6.3,3.4-9.2
			C59.6,248.5,64,243.7,69.2,239.9z"/>
	</g>
	<line class="st17" x1="292.7" y1="128.8" x2="301.6" y2="141.9"/>
	<line class="st19" x1="306.9" y1="121.6" x2="316.6" y2="133.5"/>
	<path class="st20" d="M318.2,103.9l-1.6,0.5c-1,0.3-2.1-0.2-2.4-1.3l-0.4-1.2c-0.4-1.1,0.2-2.2,1.2-2.5l1.6-0.5
		c1-0.3,2.1,0.2,2.4,1.3l0.4,1.2C319.7,102.4,319.2,103.5,318.2,103.9z"/>
	<path class="st20" d="M326.2,101.2l-1.1,0.4c-1,0.3-2.1-0.2-2.4-1.3l-0.6-1.8c-0.4-1,0.2-2.2,1.2-2.5l1.1-0.4
		c1-0.3,2.1,0.2,2.4,1.3l0.6,1.8C327.7,99.7,327.2,100.8,326.2,101.2z"/>
	<path class="st20" d="M334.4,97.5l-1.6,0.5c-1,0.3-2.1-0.2-2.4-1.3l-0.4-1.2c-0.3-1,0.2-2.2,1.2-2.5l1.6-0.5c1-0.3,2.1,0.2,2.4,1.3
		l0.4,1.2C335.9,96,335.4,97.1,334.4,97.5z"/>
	<path class="st20" d="M342.3,94.7l-0.8,0.3c-1,0.3-2.1-0.2-2.4-1.3l-0.4-1.2c-0.3-1,0.2-2.2,1.2-2.5l0.8-0.3c1-0.3,2.1,0.2,2.4,1.3
		l0.4,1.2C343.8,93.2,343.2,94.3,342.3,94.7z"/>
	<path class="st20" d="M350.5,91.6l-1.6,0.5c-1,0.3-2.1-0.2-2.4-1.3l-0.4-1.2c-0.3-1,0.2-2.2,1.2-2.5l1.6-0.5c1-0.3,2.1,0.2,2.4,1.3
		l0.4,1.2C352,90.1,351.5,91.3,350.5,91.6z"/>
	<path class="st20" d="M359.7,88.5l-2.4,0.8c-1,0.3-2.1-0.2-2.4-1.3l-0.4-1.1c-0.3-1,0.2-2.2,1.2-2.5l2.4-0.8c1-0.3,2.1,0.2,2.4,1.3
		l0.4,1.1C361.2,87,360.7,88.1,359.7,88.5z"/>
	<g>
		<path d="M75.9,171.3c-2.3,1.5-4.7,3.3-7,5c-2.3,1.7-4.6,3.5-6.9,5.4c-4.5,3.7-8.8,7.5-12.9,11.6c-4.1,4.1-7.8,8.4-11,12.9
			c-3.2,4.5-5.8,9.5-6.8,14.3c-0.1,0.6-0.2,1.1-0.2,1.6c0,0.5,0,1,0,1.5c0.1,1,0.4,1.9,0.8,2.9c0.9,1.9,2.4,3.8,4.3,5.5
			c3.8,3.4,8.7,6.2,13.8,8.4c5.1,2.3,10.6,4.1,16.1,5.7c2.8,0.8,5.6,1.5,8.4,2.2c2.8,0.7,5.7,1.3,8.4,1.7l-2,10.8
			c-3.1-0.7-6-1.4-8.9-2.3c-2.9-0.8-5.8-1.7-8.7-2.6c-5.8-1.9-11.5-4-17.1-6.7c-5.6-2.7-11.1-5.8-16.1-10.4
			c-2.4-2.3-4.8-5.1-6.3-8.6c-0.8-1.8-1.3-3.7-1.4-5.7c-0.1-1-0.1-2,0-3c0.1-1,0.2-2,0.4-2.8c1.5-6.8,4.8-12.4,8.4-17.5
			c3.6-5.1,7.8-9.6,12.1-14c4.3-4.3,8.8-8.3,13.5-12.2c4.7-3.9,9.4-7.5,14.5-11L75.9,171.3z"/>
	</g>
	<path d="M304.1,182.7c0,0,13.2-15.2,17.4-32.3c3.2-13-16.6-30.6-20.4-20.8c-4,10.2,7.8,10.2,9.3,16.3c2.5,9.9-3.2,17.5-3.2,17.5
		s1.8-17.9-4.4-24.8c-6.2-6.9-19.1-12.2-22.2-3c-2.9,8.7,9.6,8.6,14.5,13.7c4.9,5.1,4.4,14.2,4.4,14.2s-4-14.1-13.5-16.4
		c-9.4-2.3-18.1,5.5-14.3,11.2c5.3,8,8.5,0.5,12.9,1s6,3.5,8.6,8.9c3.6,7.4,0.2,16.2,0.2,16.2L304.1,182.7z"/>
	<path d="M78.8,250.4c0,0,28.1-4.2,38.6-3c10.5,1.3,25.4,16.7,19.5,21.8c-9.1,7.8-11-4.9-18.1-9.6c-6.5-4.2-18.7-2.8-18.7-2.8
		s15.9,4.5,22.4,11.5c5.3,5.6,0.7,24.5-5.9,23.4c-10.3-1.7-2.7-12.3-5.4-18.2c-2.1-4.4-13.7-11.2-13.7-11.2s10.1,10.2,9.6,16.9
		c-0.6,9-6.8,17.7-14.1,14.2c-7.2-3.4,2.3-8.9,3.6-15.5c0.9-4.5-5.5-14.2-12.1-16.2s-8.8-3.4-8.8-3.4L78.8,250.4z"/>
	<path d="M76.7,129.3c0,0-2.3,18-9,30.3C61.3,171.5,51.8,179,51.8,179l5.7,5.3c0,0,8.4-5.3,10.5-4.4c3.5,1.5,2.2,21.7,2.2,21.7
		s5.5-14.7,6.7-36.8C77.7,150.7,76.7,129.3,76.7,129.3z"/>
	<path d="M318.9,111c0.1,0.9-0.6,1.7-1.5,1.8c-0.9,0.1-1.7-0.6-1.8-1.5c-0.1-0.9,0.6-1.7,1.5-1.8C318,109.4,318.8,110.1,318.9,111z"
		/>
	<path d="M360.9,94.7c0.1,0.9-0.6,1.7-1.5,1.8c-0.9,0.1-1.7-0.6-1.8-1.5c-0.1-0.9,0.6-1.7,1.5-1.8C360,93,360.8,93.7,360.9,94.7z"/>
	<path d="M352.6,97.8c0.1,0.9-0.6,1.7-1.5,1.8c-0.9,0.1-1.7-0.6-1.8-1.5c-0.1-0.9,0.6-1.7,1.5-1.8C351.8,96.2,352.6,96.9,352.6,97.8
		z"/>
	<path d="M343.9,101c0.1,0.9-0.6,1.7-1.5,1.8c-0.9,0.1-1.7-0.6-1.8-1.5c-0.1-0.9,0.6-1.7,1.5-1.8C343,99.4,343.8,100.1,343.9,101z"
		/>
	<path d="M335.3,104.2c0.1,0.9-0.6,1.7-1.5,1.8c-0.9,0.1-1.7-0.6-1.8-1.5c-0.1-0.9,0.6-1.7,1.5-1.8
		C334.4,102.6,335.2,103.2,335.3,104.2z"/>
	<path d="M326.9,107.7c0.1,0.9-0.6,1.7-1.5,1.8c-0.9,0.1-1.7-0.6-1.8-1.5c-0.1-0.9,0.6-1.7,1.5-1.8
		C326,106.1,326.8,106.8,326.9,107.7z"/>
	<polyline class="st21" points="326.3,108.4 311.2,122.7 115.3,276.5 	"/>
	<polyline class="st21" points="334.9,105 312.5,124.9 117.4,279.9 	"/>
	<polyline class="st22" points="343.6,101.8 313.2,127.2 120.2,282.7 	"/>
	<polyline class="st22" points="352.4,98.5 314.6,128.8 122.3,286 	"/>
	<polyline class="st22" points="360.5,95.4 316.3,131 124.1,288.9 	"/>
	<polyline class="st23" points="113.2,273.2 310,120.9 318.3,112 	"/>
	<path class="st24" d="M120.9,340.5c0.9,0.1,3.4-3.8,4-9.1c0.4-3.7,0.4-8.3,0.4-8.3l-8.8,0.3c0,0,0,3.9,0.5,8.3
		C117.5,335.6,119.3,340.4,120.9,340.5z"/>
	<g>
		<path class="st13" d="M158.8,295.7c0.1,1-0.7,2-1.7,2.1c-1,0.1-2-0.7-2.1-1.7c-0.1-1,0.7-2,1.7-2.1
			C157.8,293.9,158.7,294.6,158.8,295.7z"/>
		<path class="st14" d="M159.2,295.6c0.1,0.6-0.1,1.2-0.5,1.7c-0.4,0.5-1,0.8-1.6,0.8c-0.6,0-1.2-0.2-1.7-0.6
			c-0.4-0.4-0.7-1-0.7-1.6c0-0.6,0.2-1.1,0.6-1.6c0.4-0.4,0.9-0.7,1.4-0.7C157.8,293.6,159.1,294.4,159.2,295.6z M158.4,295.7
			c0-0.8-0.7-1.6-1.6-1.5c-0.9,0-1.6,1-1.4,1.8c0.1,0.8,1,1.4,1.7,1.3C157.8,297.1,158.4,296.5,158.4,295.7z"/>
	</g>
	<g>
		<path class="st0" d="M100.7,228.4c4.2-0.6,8.3-1.7,12.2-3.1c3.9-1.4,7.8-3.2,11.3-5.5c1.7-1.1,3.4-2.4,4.9-3.8
			c1.5-1.4,2.9-2.9,4.3-4.5c2.7-3.2,5.1-6.7,7.4-10.2c2.4-3.5,4.7-7,7.2-10.5c2.5-3.4,5.2-6.8,8.4-9.7c1.6-1.5,3.2-2.8,5-4.1
			c1.8-1.2,3.7-2.3,5.6-3.2c3.9-1.8,8.2-2.7,12.4-3c-4.1,1-8.1,2.3-11.8,4.3c-1.8,1-3.6,2.1-5.2,3.3c-1.7,1.2-3.2,2.6-4.7,4
			c-6,5.8-10.6,12.9-15.3,19.9c-2.4,3.5-4.9,7-7.7,10.2c-1.4,1.6-2.9,3.2-4.5,4.6c-1.6,1.4-3.4,2.7-5.2,3.8
			c-3.7,2.2-7.6,3.9-11.7,5.1C109.1,227.3,104.9,228.2,100.7,228.4z"/>
	</g>
</g>
</svg>
