<svg xmlns="http://www.w3.org/2000/svg" width="375.33" height="372" viewBox="0 0 375.33 372">
  <defs>
    <style>
      .cls-1 {
        isolation: isolate;
      }

      .cls-2, .cls-5, .cls-6 {
        fill: #fff;
      }

      .cls-3 {
        fill: #131719;
      }

      .cls-4 {
        fill: #263138;
      }

      .cls-5 {
        opacity: 0.14;
      }

      .cls-6 {
        opacity: 0.08;
      }

      .cls-7 {
        fill: #e51727;
      }

      .cls-8 {
        fill: #7898a0;
        mix-blend-mode: multiply;
      }

      .cls-11, .cls-8 {
        opacity: 0.2;
      }

      .cls-9 {
        opacity: 0.44;
      }

      .cls-10, .cls-11 {
        fill: #4f676d;
      }

      .cls-12 {
        opacity: 0.4;
      }

      .cls-13 {
        fill: #79c2d3;
      }

      .cls-14 {
        fill: #3175a8;
      }

      .cls-15 {
        fill: #5ab3e0;
      }

      .cls-16 {
        fill: #91d9e5;
      }

      .cls-17 {
        opacity: 0.49;
      }

      .cls-18 {
        fill: #a3e8ef;
      }

      .cls-19 {
        fill: #efeee6;
      }

      .cls-20 {
        fill: #e0ddd1;
      }

      .cls-20, .cls-28 {
        opacity: 0.6;
      }

      .cls-21 {
        fill: #f2f0e9;
      }

      .cls-22 {
        fill: #d6d3c8;
      }

      .cls-23 {
        fill: #82694a;
      }

      .cls-24 {
        fill: #474541;
      }

      .cls-25 {
        opacity: 0.59;
      }

      .cls-26 {
        fill: #ce1128;
      }

      .cls-27 {
        fill: #3a2e30;
      }

      .cls-28 {
        fill: none;
        stroke: #3a2e30;
        stroke-miterlimit: 10;
      }
    </style>
  </defs>
  <title>duke_togo</title>
  <g class="cls-1">
    <g id="Ebene_10" data-name="Ebene 10">
      <path d="M177.87,141.88c-.66.86-1.21,1.5-1.83,2.2s-1.24,1.34-1.88,2q-1.92,1.93-4,3.68a71.43,71.43,0,0,1-8.84,6.36,77.42,77.42,0,0,1-20.28,8.62,51.44,51.44,0,0,1-23.71.59A68.12,68.12,0,0,1,106,162c-1.84-.71-3.66-1.49-5.46-2.36-.9-.43-1.8-.89-2.7-1.38-.45-.24-.9-.5-1.37-.77l-.71-.42c-.27-.17-.44-.26-.86-.56L108,140c-.08,0,.09.13.17.21l.33.32.75.68c.52.46,1.07.91,1.63,1.35,1.13.89,2.31,1.75,3.53,2.55a50.52,50.52,0,0,0,7.68,4.2,37,37,0,0,0,16.81,3.32,60.77,60.77,0,0,0,9.3-1.54,65.27,65.27,0,0,0,9.11-2.91,63.35,63.35,0,0,0,8.65-4.28c1.39-.83,2.74-1.71,4-2.66.65-.47,1.3-1,1.92-1.46s1.26-1.05,1.73-1.48Z"/>
      <path d="M303.75,156.72c.94.88,1.68,1.66,2.47,2.5s1.55,1.64,2.28,2.49c1.5,1.67,2.92,3.39,4.3,5.14q4.18,5.21,7.88,10.74a176.1,176.1,0,0,1,13,23.2,66.18,66.18,0,0,1,4.14,13,99.11,99.11,0,0,1,1.88,13.38q.5,6.72.32,13.44c0,2.24-.13,4.48-.29,6.72-.08,1.12-.17,2.24-.28,3.37s-.2,2.22-.37,3.47l-8.89-1.72c.22-.88.45-2,.65-3s.37-2.06.53-3.09c.32-2.07.6-4.16.81-6.26a103.71,103.71,0,0,0,.47-12.61c-.23-8.38-1.53-16.77-4.71-24.3A137.92,137.92,0,0,0,315.62,181c-2.43-3.49-5-6.91-7.7-10.14-1.38-1.61-2.79-3.18-4.25-4.69-.72-.76-1.47-1.5-2.21-2.22s-1.55-1.44-2.24-2Z"/>
      <path d="M298.81,125.83s2.65,19.17,7,28.33c3.24,6.83,10,17,10,17l-2.67,6.17s-4.06-5.44-5.33-4.17c-2,2-.65,11.33-.65,11.33s-5.5-16-7.08-25.67C299.07,152.73,298.81,125.83,298.81,125.83Z"/>
      <path d="M331.71,246.2s-2.34,8.85-3.57,11.87c-2.57,6.31-4.62,9.23-8.09,11.66-5.34,3.76-1.3-.91-5.53-3s-10,4-4.52,10.19,9.77,2.38,13.42-1.8a92.76,92.76,0,0,0,7.95-11.6s1.41,7.67-3.57,13.94-13.81,2.69-12.25,10.27c.62,3,9.33,7.21,15.81-1.91,5.59-7.87,5.82-21.19,5.82-21.19a20.88,20.88,0,0,1,.06,14.36c-2,5.3-8.08,11.39-4.55,15.11,2.25,2.38,7.84-1.22,10-7.66,1.69-5,1.06-10.25,0-18.51-.5-3.87-3.05-20-3.05-20Z"/>
      <path class="cls-2" d="M157.82,180.33c23.48-45.81,39.83-72,67.33-103,28.56-32.19,57.67-54.5,67.17-53,9,1.42,2.5,61,6,101s10.93,79,20.69,127c6.19,30.42,5.38,96.61-13.2,98.46-30.55,3-53.82-44.11-79.82-44.52-31.5-.5-57.18,47.52-84.68,45C119.32,349.33,110.49,272.67,157.82,180.33Z"/>
      <path class="cls-3" d="M176.32,149.33s30.5,14,66,17.5,62-2,62-2-7-43.5-7-73.5.56-66.51-5.5-67c-8.33-.67-44.33,19.67-80.5,69C185.28,128.86,176.32,149.33,176.32,149.33Z"/>
      <path class="cls-4" d="M216.23,87.08s16.35,2.28,27.5,7c7,2.94,11.09,7.22,13.53,7.67,4.55.84,8.86-2.3,16.44-3a67.07,67.07,0,0,1,21.87,1.76s1.29,29.69,1.61,33.29,2.39,16.82,2.39,16.82l-13.1-1.21-24.83-11.2s-1.41-4-2.76-8.07c-1.79-5.44-2.27-12.38-3.41-12.71s-2.93,4-4.07,6.11-7.18,9.94-7.18,9.94l-29,6.43S200.59,138,195.07,134c-3.72-2.69-5.2-9.54-5.2-9.54Z"/>
      <g>
        <path class="cls-5" d="M193.41,94.38c3.77-4.92,19.51-2.47,32.09.09s23.17,5.4,24.15,8.85-6.71,31.15-15.22,32.21-34.45-1.93-37.6-5.58S190.15,98.64,193.41,94.38Z"/>
        <path class="cls-5" d="M316.76,113.8c-2-5.55-16.6-7.68-28.65-8.85-12.25-1.2-23-1.57-24.85,1.44s-2.05,31.62,5.69,34.87,32,7,35.73,4.38S318.52,118.57,316.76,113.8Z"/>
        <path d="M247.81,105.42a2.46,2.46,0,0,0-.67-1,9.36,9.36,0,0,0-1.63-1.28,25.1,25.1,0,0,0-4.38-2.12,73.75,73.75,0,0,0-10-2.9,164.39,164.39,0,0,0-20.89-3.19,94.87,94.87,0,0,0-10.42-.48c-.83,0-1.66.06-2.38.15a2.82,2.82,0,0,0-.6.11s0,0-.06,0-.09.07-.15.13a4.43,4.43,0,0,0-.85,1.45,14.4,14.4,0,0,0-.68,2.16,43.46,43.46,0,0,0-1,10.07,60.14,60.14,0,0,0,.91,10.33,39.08,39.08,0,0,0,1.21,4.94,12.39,12.39,0,0,0,2,4.05A7.24,7.24,0,0,0,199.9,129a24.39,24.39,0,0,0,2.23,1c.78.31,1.57.6,2.4.84l1.23.39,1.26.33a90.06,90.06,0,0,0,20.79,2.88c.85,0,1.73,0,2.55-.06l1.24-.09,1.15-.18c.38-.06.59-.18.9-.25s.64-.35,1-.51a5.76,5.76,0,0,0,1-.64,11.29,11.29,0,0,0,.94-.73,32.72,32.72,0,0,0,6.26-7.86,43.63,43.63,0,0,0,4.12-9.34A20.91,20.91,0,0,0,247.81,105.42Zm5-1a18.73,18.73,0,0,1,.21,3.16c0,.51,0,1-.06,1.53l-.2,1.48a34.1,34.1,0,0,1-1.4,5.63,48.55,48.55,0,0,1-4.93,10.14,38.54,38.54,0,0,1-7.31,8.73c-.35.33-.8.61-1.19.91a8.78,8.78,0,0,1-1.28.84c-.47.25-.9.52-1.42.74a13.18,13.18,0,0,1-1.69.48l-1.51.22c-.49,0-1,.06-1.44.09-1,.08-1.88,0-2.82,0a88.76,88.76,0,0,1-11-.94A102.65,102.65,0,0,1,206,135.45l-1.34-.34-1.34-.41c-.89-.25-1.79-.57-2.68-.91a14.26,14.26,0,0,1-5.42-3.19,16.56,16.56,0,0,1-2.91-5.44,43.25,43.25,0,0,1-1.5-5.46,74.07,74.07,0,0,1-1.4-11,47.35,47.35,0,0,1,.63-11.34,19.56,19.56,0,0,1,.87-3,9.53,9.53,0,0,1,1.87-3.15,4.63,4.63,0,0,1,.84-.77,4.57,4.57,0,0,1,1.09-.65,7.33,7.33,0,0,1,2-.54,25.71,25.71,0,0,1,3-.25,99.76,99.76,0,0,1,11.07.45,158.66,158.66,0,0,1,21.6,3.48A78.76,78.76,0,0,1,243,96.16a31.49,31.49,0,0,1,5.26,2.62,13.74,13.74,0,0,1,2.57,2.07A7.34,7.34,0,0,1,252.82,104.43Z"/>
        <path d="M202.74,89s-13.63-.49-17.44.76c-2.78.91-1.8,8.1-1.1,8.85,1.35,1.43,4.65,1.78,5.29,4.89.84,4.11,2.07-7,4.3-9.57S202.74,89,202.74,89Z"/>
        <path d="M194.82,100.22s-.08-3.76,2.46-4.83a13.53,13.53,0,0,1,5.68-1l-.64-1.93L192,92.22Z"/>
        <path d="M260.8,106a7.21,7.21,0,0,1,2.79-2.82,12.88,12.88,0,0,1,3-1.23,28.93,28.93,0,0,1,5.6-1,72.35,72.35,0,0,1,10.71.07,146.28,146.28,0,0,1,20.78,3.1A88.45,88.45,0,0,1,313.9,107a19.93,19.93,0,0,1,2.72,1.2,5.78,5.78,0,0,1,1.82,1.5,6.57,6.57,0,0,1,1,1.91,15.18,15.18,0,0,1,.43,6.23,49.67,49.67,0,0,1-2.57,10.55A72,72,0,0,1,313,138.2a38.63,38.63,0,0,1-2.88,4.64,20.64,20.64,0,0,1-1.85,2.21,9.05,9.05,0,0,1-2.68,2,18,18,0,0,1-5.75,1.13,52,52,0,0,1-5.37,0A100.14,100.14,0,0,1,284,147.14a75.92,75.92,0,0,1-10.36-2.2c-.86-.25-1.73-.55-2.61-.89a12.22,12.22,0,0,1-2.76-1.47,13,13,0,0,1-2.14-2.19,20.51,20.51,0,0,1-1.6-2.36,40.32,40.32,0,0,1-4-10.1,48.16,48.16,0,0,1-1.64-10.69A24.2,24.2,0,0,1,260.8,106Zm4.53,2.36a19.66,19.66,0,0,0-1.76,8.84,43.2,43.2,0,0,0,1.11,9.72,34.13,34.13,0,0,0,3.38,9.08,16.51,16.51,0,0,0,1.28,1.92,9.23,9.23,0,0,0,1.43,1.51,8.81,8.81,0,0,0,1.79.93c.73.29,1.48.56,2.27.79a81.66,81.66,0,0,0,19.83,3.07,48.09,48.09,0,0,0,4.94-.08,14.7,14.7,0,0,0,4.33-.83,5.22,5.22,0,0,0,1.41-1.12,14,14,0,0,0,1.42-1.76,34.51,34.51,0,0,0,2.43-4.19,57.72,57.72,0,0,0,3.61-9.26,45.7,45.7,0,0,0,1.9-9.55,10.56,10.56,0,0,0-.28-4,1.2,1.2,0,0,0-.19-.36c-.07,0,.17.12-.19-.09a19,19,0,0,0-2-.84,83.65,83.65,0,0,0-9.6-2.63,151.36,151.36,0,0,0-20-3.16,67.35,67.35,0,0,0-9.91-.19,22.7,22.7,0,0,0-4.56.72,8.46,8.46,0,0,0-1.79.72A2.28,2.28,0,0,0,265.33,108.32Z"/>
        <path d="M310.81,106.14s12,3.43,14.94,5.63c2.14,1.6-.56,7.85-1.35,8.34-1.53.93-4.47.35-5.83,3-1.8,3.53,0-7-1.23-9.92S310.81,106.14,310.81,106.14Z"/>
        <path d="M314.79,118.65s1.06-3.42-.88-5.11a12.25,12.25,0,0,0-4.73-2.48l1.07-1.59,9.11,2.67Z"/>
        <path d="M250.79,100.9a11.33,11.33,0,0,0,6.4,3,10.38,10.38,0,0,0,7.26-1.16l-5,11.15A5.34,5.34,0,0,0,256,111c-2.17-.45-4.19,1.71-4.19,1.71Z"/>
      </g>
      <path class="cls-6" d="M172.49,155.33S190.82,119,210.49,95s40.14-45.22,52-55c19-15.67,29.67-15.67,29.67-15.67s-27,18-61.67,60.33c-31.67,38.67-45.33,75-45.33,75Z"/>
      <g>
        <path class="cls-7" d="M201.25,156.1c6.88-19.13,26.83-29.9,60.77-22,26.74,6.22,34.67,26.49,31.84,42.23-3.24,18.06-22,31.5-52.51,27.5C207,199.33,194,176.33,201.25,156.1Z"/>
        <path d="M199.81,155.58a39,39,0,0,1,9.48-14.44,38.47,38.47,0,0,1,14.93-8.59,55.78,55.78,0,0,1,16.94-2.31A88.87,88.87,0,0,1,258,132.08a60.76,60.76,0,0,1,16.17,5.24,49,49,0,0,1,7.29,4.53,38,38,0,0,1,6.22,6,36,36,0,0,1,6.7,32.85,32.82,32.82,0,0,1-9.37,14.74,41.74,41.74,0,0,1-15.18,8.6,61.69,61.69,0,0,1-17.09,3,83.76,83.76,0,0,1-8.66-.1c-1.44-.12-2.87-.21-4.31-.41l-2.15-.27-2.14-.36a60.38,60.38,0,0,1-8.5-2.05,51.45,51.45,0,0,1-8.19-3.32,41.82,41.82,0,0,1-14-11.07A33.87,33.87,0,0,1,197.73,173,35.12,35.12,0,0,1,199.81,155.58Zm2.88,1a28.53,28.53,0,0,0-.78,15.6,29.81,29.81,0,0,0,7.28,13.46,43.36,43.36,0,0,0,12.46,9.18,66.71,66.71,0,0,0,15,5.24,83,83,0,0,0,16.05,2,54.49,54.49,0,0,0,15.94-2,37.91,37.91,0,0,0,14-7.42,29.41,29.41,0,0,0,8.75-13,32.48,32.48,0,0,0,1-15.83,33.07,33.07,0,0,0-6.53-14.58,36.32,36.32,0,0,0-12.6-10.11,58.67,58.67,0,0,0-15.68-4.84,86.48,86.48,0,0,0-16.43-1.59A54.12,54.12,0,0,0,225,135.14a35.66,35.66,0,0,0-13.88,8,32.13,32.13,0,0,0-5.06,6.22A36.62,36.62,0,0,0,202.69,156.62Z"/>
      </g>
      <path class="cls-2" d="M217,150.67c3.77-9.24,13.83-11.6,24.2-11,11.9.69,21.19,8,20.33,15.33S251,168.22,235.82,167,214,157.86,217,150.67Z"/>
      <path class="cls-8" d="M125.81,324.33s8,13.5,24,7,34-29,59.54-31.86c32.67-3.67,46.82,25.61,81.21,26.7,14.69.47,20.6-45.51,15.6-72s-10.93-57.36-10.93-57.36-9.44,15.78-38.44,17.28-51.46-28.75-51.46-28.75,27.5,17,58,5.5,28-35,28-35l11.5,1s3,30,8.5,52.5,10,59.5,11.5,81-6,59-15.5,60.5l-9.5,1.5s-14-4.17-31.34-19.33c-19.82-17.36-34.33-28.33-50.33-25.33s-43.82,35.67-55.32,39.67-22,4-24,3.5S125.81,324.33,125.81,324.33Z"/>
      <path d="M155.86,179.34c8.78-17.05,17.87-34,28.07-50.31,5.1-8.16,10.49-16.14,16.21-23.88s11.79-15.22,18.08-22.48A350.69,350.69,0,0,1,259.05,42c7.43-6.11,15.25-11.86,24-16.06a25.67,25.67,0,0,1,7-2.3,8.84,8.84,0,0,1,2,0,3.5,3.5,0,0,1,2,.83,7.39,7.39,0,0,1,2,3.41,35,35,0,0,1,1.23,7.22c.21,2.41.31,4.81.37,7.22.19,9.61,0,19.18,0,28.75s.06,19.13.43,28.67a528.16,528.16,0,0,0,5.55,57c2.81,18.89,6.59,37.64,10.34,56.41l5.64,28.17a241,241,0,0,1,4.26,28.65,242.94,242.94,0,0,1,.86,29,165.55,165.55,0,0,1-3.25,29A69.25,69.25,0,0,1,317,342.13a28.79,28.79,0,0,1-4.19,6.73,15.87,15.87,0,0,1-3.24,2.89,11.45,11.45,0,0,1-4.38,1.76c-.4.07-.81.09-1.21.13l-1,0c-.66,0-1.32,0-2,0a33.61,33.61,0,0,1-3.9-.42,38.74,38.74,0,0,1-7.46-2.06,62.6,62.6,0,0,1-13.16-7.22c-8.1-5.64-15.15-12.26-22.36-18.45-3.6-3.1-7.22-6.13-11-8.81a49.35,49.35,0,0,0-11.93-6.52,26.2,26.2,0,0,0-6.37-1.4,21.62,21.62,0,0,0-6.43.48,41.8,41.8,0,0,0-12.45,5.39,87.75,87.75,0,0,0-11.24,8.52c-3.6,3.09-7.14,6.3-10.74,9.48s-7.23,6.39-11.09,9.41a81,81,0,0,1-12.43,8.26A41,41,0,0,1,145.53,355a28.43,28.43,0,0,1-4.08.11c-.31,0-.76,0-1.18-.09s-.85-.13-1.27-.22a13.25,13.25,0,0,1-2.41-.81,17.64,17.64,0,0,1-6.93-5.93,34,34,0,0,1-3.82-7.15,58.18,58.18,0,0,1-2.36-7.34,97.36,97.36,0,0,1-2.35-14.78,167,167,0,0,1,.32-29.36,272.1,272.1,0,0,1,12.09-56.8A344.21,344.21,0,0,1,155.86,179.34Zm3.93,2a319.74,319.74,0,0,0-20.57,53.08A276.27,276.27,0,0,0,129,290.11a173.17,173.17,0,0,0,0,28,89.61,89.61,0,0,0,2.2,13.55,36.38,36.38,0,0,0,4.84,11.86,10.08,10.08,0,0,0,3.7,3.48,5.58,5.58,0,0,0,1,.36l.5.1a6,6,0,0,0,.61.05,27.79,27.79,0,0,0,3.1,0,33.84,33.84,0,0,0,12.45-3.38c8.16-3.84,15.74-9.62,23.18-15.54,3.72-3,7.44-6,11.26-9s7.78-5.78,11.88-8.51a45.69,45.69,0,0,1,13.6-6.4,26.35,26.35,0,0,1,7.81-.82,29.3,29.3,0,0,1,7.66,1.48,54.32,54.32,0,0,1,13.34,6.94c4.07,2.78,7.86,5.84,11.57,8.93,7.39,6.18,14.45,12.6,22.07,17.92a59.85,59.85,0,0,0,11.94,6.61,33,33,0,0,0,6.34,1.82,28,28,0,0,0,3.23.38c.54,0,1.08.05,1.62,0h.8c.19,0,.38,0,.57-.06a7.64,7.64,0,0,0,4.33-2.76,23.42,23.42,0,0,0,3.39-5.41,64,64,0,0,0,4.22-13.06,160.41,160.41,0,0,0,3.33-28,247.46,247.46,0,0,0-.55-28.4,240,240,0,0,0-3.86-28.19l-5.24-28.24c-3.48-18.83-7-37.69-9.56-56.73-1.29-9.51-2.3-19.06-3.21-28.61s-1.43-19.17-1.62-28.77-.08-19.19.13-28.77L296,56.64c.11-4.78.2-9.56.11-14.33,0-2.38-.12-4.76-.31-7.13a33.76,33.76,0,0,0-1.11-6.92,6.11,6.11,0,0,0-1.51-2.77,2,2,0,0,0-1.24-.5,7.45,7.45,0,0,0-1.63.05,22,22,0,0,0-6.52,2.3,83.2,83.2,0,0,0-11.88,7.76c-3.8,2.85-7.46,5.89-11.09,9-7.23,6.19-14.13,12.79-20.76,19.63s-13,13.93-19.19,21.21a374.9,374.9,0,0,0-33.63,46.16C177.17,147.28,168.38,164.26,159.78,181.33Z"/>
      <g id="Ebene_13" data-name="Ebene 13">
        <polygon class="cls-2" points="295.03 241.01 306.27 237.06 307.99 261.26 295.03 241.01"/>
        <g class="cls-9">
          <path class="cls-10" d="M269,246.43c1.15.29,2.31.55,3.47.75s2.32.41,3.49.53a43.76,43.76,0,0,0,7,.28,37.59,37.59,0,0,0,6.94-.95,18.31,18.31,0,0,0,3.32-1.09,8.65,8.65,0,0,0,2.94-1.89,7.92,7.92,0,0,1-2.72,2.33,18.46,18.46,0,0,1-3.33,1.39A28.46,28.46,0,0,1,283,249a31.75,31.75,0,0,1-7.17-.52A30.42,30.42,0,0,1,269,246.43Z"/>
        </g>
        <polygon class="cls-11" points="279.08 242.55 278.15 221.11 281.16 220.92 281.77 228.09 283.52 228.21 285.75 242.51 279.08 242.55"/>
        <g class="cls-12">
          <path class="cls-10" d="M305.76,237.72a132,132,0,0,1,1.7,28.74,58.81,58.81,0,0,1-.89,7.22c-.13.6-.24,1.2-.39,1.79l-.22.89a3.75,3.75,0,0,1-.48,1.07,8.3,8.3,0,0,1-3.1,2.55,30.67,30.67,0,0,1-7,2.45,65.24,65.24,0,0,1-7.18,1.29,68.12,68.12,0,0,1-7.27.48,32.82,32.82,0,0,1-7.36-.62,11.32,11.32,0,0,1-1.87-.59,4.5,4.5,0,0,1-1.8-1.28,12.21,12.21,0,0,1-1.71-3.49,57.9,57.9,0,0,1-1.82-7.05,238.1,238.1,0,0,1-3.65-28.56c.75,4.73,1.47,9.47,2.34,14.18s1.72,9.41,2.81,14a65,65,0,0,0,2,6.8,10.86,10.86,0,0,0,1.46,2.92,5.06,5.06,0,0,0,2.69,1.19,33.63,33.63,0,0,0,6.93.5,66.45,66.45,0,0,0,7.06-.51,63.29,63.29,0,0,0,7-1.2,31.1,31.1,0,0,0,6.57-2.22,6.68,6.68,0,0,0,2.46-1.87,1.91,1.91,0,0,0,.27-.56l.23-.85c.16-.56.27-1.14.41-1.71a65.85,65.85,0,0,0,1.06-7,130.19,130.19,0,0,0,.5-14.28C306.41,247.28,306.14,242.5,305.76,237.72Z"/>
        </g>
        <path class="cls-11" d="M263.27,241.25a111.88,111.88,0,0,1,16.31-2.86c16.7-1.68,23.77-.8,23.77-.8S296,242.88,278,243A54.41,54.41,0,0,1,263.27,241.25Z"/>
        <g>
          <polyline class="cls-13" points="275.21 228.81 274.74 220.92 278.4 220.55 279.29 228.57"/>
          <polygon points="274.79 228.83 274.47 220.94 274.46 220.68 274.71 220.65 278.37 220.28 278.64 220.25 278.67 220.52 279.71 228.52 278.87 228.62 278.12 220.58 278.42 220.83 274.76 221.19 275.01 220.9 275.63 228.78 274.79 228.83"/>
        </g>
        <g>
          <polyline class="cls-14" points="274.63 242.43 273.6 228.49 280.49 227.76 282.82 243.12"/>
          <polygon points="274.21 242.46 273.43 228.5 273.42 228.34 273.58 228.32 280.47 227.59 280.64 227.57 280.66 227.73 283.24 243.05 282.4 243.18 280.32 227.78 280.51 227.93 273.62 228.66 273.77 228.47 275.06 242.4 274.21 242.46"/>
        </g>
        <polygon class="cls-15" points="274.83 228.69 276.15 242.1 278.28 242.04 276.83 228.58 274.83 228.69"/>
        <path class="cls-10" d="M262.69,241.24a59,59,0,0,0,10.84,1.14,103.35,103.35,0,0,0,10.86-.36,82.8,82.8,0,0,0,10.73-1.58,46.36,46.36,0,0,0,10.33-3.4,31.92,31.92,0,0,1-10,4.6,57.76,57.76,0,0,1-10.9,2,64.66,64.66,0,0,1-11.07,0A36.25,36.25,0,0,1,262.69,241.24Z"/>
        <g>
          <polygon class="cls-13" points="278.94 232.85 282.59 232.34 284.13 253.4 281.21 253.76 278.94 232.85"/>
          <path d="M278.6,232.59c1.32-.22,2.67-.38,4-.49l.26,0,0,.25c.18,1.75.33,3.5.48,5.26s.28,3.51.38,5.27c.2,3.51.46,7,.6,10.54v.15l-.15,0-2.91.51-.32.06,0-.34C280.08,246.75,279.32,239.65,278.6,232.59Zm.67.52c.79,6.87,1.54,13.71,2.25,20.62l-.36-.28,2.94-.21-.15.18c-.38-3.5-.63-7-.94-10.52-.15-1.75-.26-3.51-.39-5.26s-.21-3.51-.29-5.27l.28.23C281.47,232.8,280.38,233,279.27,233.11Z"/>
        </g>
        <g>
          <path class="cls-16" d="M282.59,232.34a9.06,9.06,0,0,0-1.83-.68c-.37,0-3.24.45-3.24.45l1.58,1"/>
          <path d="M282.45,232.64a7.91,7.91,0,0,0-1.14-.61,2.63,2.63,0,0,0-.55-.18l-.63.06c-.86.1-1.73.24-2.58.41h0l.08-.39,1.6,1-.29.43-1.55-1.08-.46-.32.54-.07h0c.87-.1,1.73-.22,2.6-.35.22,0,.43-.06.67-.08a2.57,2.57,0,0,1,.71.15l1.27.41Z"/>
        </g>
        <g class="cls-17">
          <line class="cls-13" x1="273.67" y1="229.84" x2="280.78" y2="229.17"/>
          <polygon points="273.65 229.62 280.75 228.8 280.82 229.54 273.69 230.06 273.65 229.62"/>
        </g>
        <polygon class="cls-18" points="275.59 221.23 276.25 227.78 277.62 227.68 276.84 221.2 275.59 221.23"/>
        <path class="cls-8" d="M269.16,278.37s-1.14,7.15,20.7,4.81c14.62-1.56,15.29-4.49,16.23-6,1.82-2.92-.16-39.46-.16-39.46l-3.52.77s-1.46,31.64-4.13,33.43C288.32,278.56,269.16,278.37,269.16,278.37Z"/>
      </g>
      <g>
        <path class="cls-19" d="M45.82,91.08s-.32,52.23-.65,93.92c0,3.75,6,15.49,30.5,18.67,25.27,3.27,34.81-9,35.31-11.34,11.72-53.74,22.78-89.19,22.78-89.19"/>
        <path d="M47.32,91.09q.15,16.46.08,32.91l-.09,16.45c-.06,5.48-.12,11-.24,16.45l-.37,16.45-.12,8.23,0,2.06a16.87,16.87,0,0,0,0,1.85,9.22,9.22,0,0,0,1.32,3.29,20.42,20.42,0,0,0,5.27,5.55A33.6,33.6,0,0,0,60,198.2a57.61,57.61,0,0,0,15.51,4,55.39,55.39,0,0,0,15.95-.11,31,31,0,0,0,14.26-6,17.28,17.28,0,0,0,2.66-2.63,7.12,7.12,0,0,0,.88-1.36l0-.11s0,0,0-.05l.11-.5.22-1,1.75-8.05c1.2-5.36,2.39-10.72,3.65-16.07,5.07-21.38,10.59-42.64,17.26-63.62l2.86.89c-6,21-11.47,42.27-16.6,63.56-1.3,5.32-2.55,10.66-3.79,16l-1.82,8-.23,1-.11.5c0,.09-.08.3-.13.44s-.1.24-.15.37a10.14,10.14,0,0,1-1.34,2.09,20.55,20.55,0,0,1-3.2,3.12A34.11,34.11,0,0,1,92,205.16a58.39,58.39,0,0,1-16.84-.08,63.08,63.08,0,0,1-16.23-4.3,36.36,36.36,0,0,1-7.41-4.23,23.11,23.11,0,0,1-5.94-6.35,12.27,12.27,0,0,1-1.69-4.31,17.38,17.38,0,0,1-.07-2.26V173.34l-.14-16.46c0-5.49,0-11,0-16.45L43.78,124q.16-16.45.54-32.9Z"/>
      </g>
      <path class="cls-20" d="M127.82,106.58s-7.75,34.37-11,46.16-9.25,41.72-9.25,41.72a23.27,23.27,0,0,1-6.57,4.21c-3.57,1.52-8.18,2.91-8.18,2.91A55.36,55.36,0,0,0,96.57,194c.75-2.46,6-33.37,8.5-47.86s6.75-37.32,6.75-37.32Z"/>
      <g>
        <path class="cls-21" d="M124.31,106.74s17.78-2.38,16.61-10.77c-.85-6.13-15.74-16.32-46.35-20.88s-50.75-.25-53.31,7.86c-2.32,7.35,13.31,14.14,13.31,14.14"/>
        <path d="M124.31,106.74a70,70,0,0,0,8.75-3.38,20.8,20.8,0,0,0,3.79-2.31,6.68,6.68,0,0,0,2.37-3,3.71,3.71,0,0,0,.17-1.66,4.79,4.79,0,0,0-.56-1.62,14,14,0,0,0-2.68-3.19,29.9,29.9,0,0,0-3.55-2.75,44.66,44.66,0,0,0-3.92-2.38,84,84,0,0,0-17.37-6.72,154.93,154.93,0,0,0-18.4-3.86,156,156,0,0,0-18.74-1.75c-3.14-.07-6.27,0-9.39.16a62,62,0,0,0-9.27,1.2,29.91,29.91,0,0,0-8.57,3.19,11.77,11.77,0,0,0-3.28,2.7,4.86,4.86,0,0,0-1.22,3.36A6.68,6.68,0,0,0,44,88.21a23.27,23.27,0,0,0,3.09,3.18c2.3,2,4.86,3.81,7.46,5.69a27.73,27.73,0,0,1-8.85-3.87,18.49,18.49,0,0,1-3.8-3.29,8.94,8.94,0,0,1-2.28-5A6.49,6.49,0,0,1,40.13,82a7.93,7.93,0,0,1,1.52-2.35,14.11,14.11,0,0,1,4.19-3,37,37,0,0,1,9.34-2.8,92.4,92.4,0,0,1,19-1.4,167,167,0,0,1,19,1.46,157.08,157.08,0,0,1,18.73,3.55A95,95,0,0,1,130,83.89a37,37,0,0,1,8.27,5.32,14.49,14.49,0,0,1,3.36,4,7.29,7.29,0,0,1,.87,2.85,6.81,6.81,0,0,1-.44,3,9.21,9.21,0,0,1-3.64,4.14,19.56,19.56,0,0,1-4.57,2.08A31,31,0,0,1,124.31,106.74Z"/>
      </g>
      <path class="cls-22" d="M87.18,100.55c25.73,3.58,45.27-.35,45.6-4.26S117,84.09,93.57,80.83,52.82,79.08,48.1,83.26C45.68,85.4,64.09,97.33,87.18,100.55Z"/>
      <path class="cls-23" d="M63.79,94.67s6.47-3.58,30-2.93c22.27.62,34.37,7.47,34.37,7.47s-18.81,4.37-37.06,1.87S63.79,94.67,63.79,94.67Z"/>
      <path class="cls-24" d="M87.39,99.06a140.07,140.07,0,0,0,22,1.37,104.36,104.36,0,0,0,10.92-.79c1.8-.23,3.59-.5,5.35-.88a19.48,19.48,0,0,0,4.92-1.63,4,4,0,0,0,.86-.61,1.13,1.13,0,0,0,.21-.25c0-.07,0-.05,0-.13a3.27,3.27,0,0,0-1-1.65,21.2,21.2,0,0,0-4.26-3.16,57.35,57.35,0,0,0-10-4.53,96.47,96.47,0,0,0-10.63-3.05c-3.6-.83-7.23-1.53-10.89-2a164.65,164.65,0,0,0-22.08-1.58,87,87,0,0,0-11,.66,46.47,46.47,0,0,0-5.33,1,19.94,19.94,0,0,0-4.87,1.85,7.1,7.1,0,0,0-1,.68l-.19.16a.61.61,0,0,0,.15-.25c0-.21,0-.21,0-.13a3.3,3.3,0,0,0,.56.78,10.82,10.82,0,0,0,.89.87,30.66,30.66,0,0,0,4.36,3.06,69.24,69.24,0,0,0,9.82,4.75,92.86,92.86,0,0,0,21.16,5.56Zm-.4,2.89a91.18,91.18,0,0,1-21.77-5.87,71.81,71.81,0,0,1-10.15-5,33,33,0,0,1-4.7-3.39,13.25,13.25,0,0,1-1.09-1.09,5.46,5.46,0,0,1-1-1.52,2.25,2.25,0,0,1-.11-1.48,1.88,1.88,0,0,1,.51-.84c.16-.15.23-.19.34-.29a9.52,9.52,0,0,1,1.31-.88,20.94,20.94,0,0,1,5.53-2,48.73,48.73,0,0,1,5.63-.92,89.07,89.07,0,0,1,11.26-.4A169.49,169.49,0,0,1,95,80.33a132.16,132.16,0,0,1,21.74,5.25c1.77.59,3.53,1.24,5.26,1.95a55.31,55.31,0,0,1,5.15,2.31A23.72,23.72,0,0,1,132.06,93a8,8,0,0,1,1.08,1.18,3.62,3.62,0,0,1,.75,1.81,2.51,2.51,0,0,1-.21,1.23,3.27,3.27,0,0,1-.58.88,6.19,6.19,0,0,1-1.33,1.09,21.43,21.43,0,0,1-5.5,2.2,47.56,47.56,0,0,1-5.59,1.17,89.41,89.41,0,0,1-11.27.87A143,143,0,0,1,87,102Z"/>
      <g class="cls-25">
        <path class="cls-24" d="M57.17,97.56A73.48,73.48,0,0,0,72,103.47c2.56.71,5.12,1.39,7.72,1.88l1.95.4,2,.33c1.3.25,2.62.38,3.93.58a156.25,156.25,0,0,0,15.9,1.26,116.59,116.59,0,0,0,16-.54,70.34,70.34,0,0,1-16,2.06,105.29,105.29,0,0,1-16.15-.81A78,78,0,0,1,71.49,105,62.66,62.66,0,0,1,64,101.84,38.88,38.88,0,0,1,57.17,97.56Z"/>
      </g>
      <g class="cls-25">
        <path class="cls-24" d="M46.24,183.23a36.17,36.17,0,0,0,6.95,5,53,53,0,0,0,7.71,3.63,64.86,64.86,0,0,0,16.54,3.78,61.12,61.12,0,0,0,16.94-.47,47.49,47.49,0,0,0,8.22-2.2,32.11,32.11,0,0,0,7.63-3.88c-4.29,3.92-9.87,6.28-15.53,7.6A49.61,49.61,0,0,1,86,197.89a62.23,62.23,0,0,1-8.76-.25,56.27,56.27,0,0,1-16.93-4.32A37.68,37.68,0,0,1,46.24,183.23Z"/>
      </g>
      <path d="M47.48,105.59s-12.63-.9-16,12.33c-3.25,12.77,28.57,28.8,32.11,15.32,4.15-15.79-16.74-20.37-16.74-20.37Z"/>
      <path d="M45.88,131.55s-9.38-1.31-14.47,11.53c-6.13,15.45,30,26.84,35.07,16.43,7.36-15.2-20.6-19.62-20.6-19.62Z"/>
      <path d="M48.1,153.82a16.06,16.06,0,0,0-13.63,14.12c-1.5,10.36,22.2,21,26.68,11.15,5.86-12.83-15-15.29-15-15.29Z"/>
      <path d="M193.57,115.58s-9.25,11.75-14.25,17-14.25,13-14.25,13l-.5,8.25s6.17-4.75,5.92-2.5-2.92,8.13-2.92,8.13,6.25-11.62,10.5-17.87S193.57,115.58,193.57,115.58Z"/>
      <g>
        <path class="cls-26" d="M72.06,119.57a14.25,14.25,0,0,1,2.77,2.86,2.85,2.85,0,0,1,.42,2,3.23,3.23,0,0,1-.15.57,4.72,4.72,0,0,1-2.41,2.46,6.57,6.57,0,0,1-4.17.68,6.22,6.22,0,0,1-1.19-.32,7.25,7.25,0,0,1-3-2.19,5.68,5.68,0,0,1-1.53-4.52V121c.2-1.33.64-2,1.31-2a1,1,0,0,1,.35.07,1.07,1.07,0,0,1,.33.22.89.89,0,0,1,.3.63,1.49,1.49,0,0,1,0,.15,3.81,3.81,0,0,1-.09.4,5.73,5.73,0,0,0-.18.68v.08a2.54,2.54,0,0,0,.33,1.71,5.05,5.05,0,0,0,2.59,2.3,4.86,4.86,0,0,0,5-.94.72.72,0,0,0,.28-.43.63.63,0,0,0,0-.35,3.32,3.32,0,0,0-.87-1c-.24-.2-.8-.63-1.67-1.3s-1.59-1.27-2.16-1.77a28.81,28.81,0,0,1-3.87-4,5.31,5.31,0,0,1-1.17-3.82v0c.18-1.14,1-1.73,2.43-1.79a10,10,0,0,1,3.43.58l.4.14A8.29,8.29,0,0,1,72,112.16c1,.85,1.37,1.62,1.25,2.32a1.42,1.42,0,0,1,0,.2,2,2,0,0,1-.44.85.33.33,0,0,1-.35.05l-.13-.07a6.28,6.28,0,0,1-.67-.55,9.29,9.29,0,0,0-1-.8,7.39,7.39,0,0,0-1.5-.78,10.67,10.67,0,0,0-1.4-.43c-1.13-.28-1.73-.28-1.82,0a.78.78,0,0,0,0,.12c-.11.72.53,1.73,1.94,3,.42.37,1.13,1,2.14,1.74S71.61,119.18,72.06,119.57Z"/>
        <path class="cls-26" d="M83.26,125.19a1.35,1.35,0,0,1,.83-.29c.17,0,.23.22.17.55a6.52,6.52,0,0,1-1.82,2.79,5.24,5.24,0,0,1-2.56,1.53,2.94,2.94,0,0,1-.82-.1q-2-.52-3.18-3.94a5.93,5.93,0,0,1-.13-2.89,13.34,13.34,0,0,1,.36-1.56,2.06,2.06,0,0,1,2.28-1.48,1.73,1.73,0,0,1,.48.07,2,2,0,0,1,1.1.86,5.35,5.35,0,0,1,.77,2.06,4.84,4.84,0,0,1-.05,1,2.5,2.5,0,0,1-1.37,1.94,1.67,1.67,0,0,1-.48.14l-.4.07a.25.25,0,0,0-.18.21v0a1.25,1.25,0,0,0,.15.56,1.57,1.57,0,0,0,1,1,1.42,1.42,0,0,0,.38,0,2.87,2.87,0,0,0,1.83-1A16.08,16.08,0,0,1,83.26,125.19Zm-5.53-.7a.77.77,0,0,0,.78-.19,1.56,1.56,0,0,0,.45-.81c0-.06,0-.11,0-.17a1.74,1.74,0,0,0,0-.79,1,1,0,0,0-.56-.69l-.1,0a.42.42,0,0,0-.47.17,1.65,1.65,0,0,0-.29.78A2.41,2.41,0,0,0,77.72,124.5Z"/>
        <path class="cls-26" d="M86.74,127.93H87a6.63,6.63,0,0,0,2.1-.66,10,10,0,0,1,2-.72,1.14,1.14,0,0,1,.26,0c.39,0,.57.33.54.87-.26,1.09-1.54,2.08-3.81,2.89a4.33,4.33,0,0,1-2,.29,2.34,2.34,0,0,1-1.9-1.57,5.08,5.08,0,0,1-.32-2.39l0-.21a8,8,0,0,1,.59-2.34,5.37,5.37,0,0,1,1.3-1.95,2,2,0,0,1,1.67-.6h0a1.06,1.06,0,0,1,.94,1,1.51,1.51,0,0,1,0,.42,1.16,1.16,0,0,1-.65.92,8.76,8.76,0,0,0-1.49,1,2,2,0,0,0-.56,1.25,3.15,3.15,0,0,0,0,.79C85.92,127.51,86.23,127.86,86.74,127.93Z"/>
        <path class="cls-26" d="M97.29,128.91a9.5,9.5,0,0,1,.18,2.34c-.07.6-.31.89-.71.87a1,1,0,0,1-.75-.44,4.85,4.85,0,0,1-.55-2.52q0-.58,0-.82a7.22,7.22,0,0,1-1.6,1.94,2.67,2.67,0,0,1-1.8.83,1,1,0,0,1-.89-.75,5,5,0,0,1-.13-2.19,16.63,16.63,0,0,1,.82-3.48c.57-1.69,1.13-2.52,1.68-2.49h0a.52.52,0,0,1,.44.29,1.87,1.87,0,0,1,.06,1,18.45,18.45,0,0,1-.68,2.91,14.55,14.55,0,0,0-.48,1.93.34.34,0,0,0,0,.2l.1,0a4.48,4.48,0,0,0,1.63-2,14.3,14.3,0,0,0,.73-2.32,8.63,8.63,0,0,1,.38-1.29c.16-.35.36-.51.61-.5q.72.05.86,1.31a14.31,14.31,0,0,1,0,2.41c0,.59-.06,1-.06,1.19A13.71,13.71,0,0,0,97.29,128.91Z"/>
        <path class="cls-26" d="M105.67,122.6a.83.83,0,0,1,.27.7.85.85,0,0,1-.05.2,9,9,0,0,0-2.68,2.44,12.52,12.52,0,0,0-1.93,4c-.33,1.11-.67,1.66-1,1.66a.66.66,0,0,1-.47-.33,6.12,6.12,0,0,1-.72-3.08,20.13,20.13,0,0,1,.1-3.52,1.86,1.86,0,0,1,.53-.93.49.49,0,0,1,.3-.1.48.48,0,0,1,.3.13c.46.41.64,1.32.54,2.74a8.21,8.21,0,0,1,1.63-2.66,3.63,3.63,0,0,1,2.45-1.57h0A1,1,0,0,1,105.67,122.6Z"/>
        <path class="cls-26" d="M107.9,122.42c.32,0,.45.15.41.49a32.85,32.85,0,0,1-.32,4.69c0,.2-.06.41-.09.63l-.38,2.55c0,.13-.17.29-.47.47a1.57,1.57,0,0,1-.68.27.23.23,0,0,1-.19-.07,2.48,2.48,0,0,1-.41-1.77c0-.16,0-.34.05-.56q.09-.7.32-1.82l.14-.68q.16-.83.27-1.72c0-.2.05-.4.07-.6s0-.27,0-.44,0-.1,0-.15a1.9,1.9,0,0,1,.35-.83A1.05,1.05,0,0,1,107.9,122.42Zm-.21-1.89a.82.82,0,0,1-.66-.3.69.69,0,0,1-.12-.52v0a1.33,1.33,0,0,1,.49-.81,1.27,1.27,0,0,1,.8-.31h.16a.87.87,0,0,1,.67.22.65.65,0,0,1,.16.58,1.33,1.33,0,0,1-.43.79,1.27,1.27,0,0,1-.88.4Z"/>
        <path class="cls-26" d="M117.41,122.23a1.11,1.11,0,0,1-.08.86,2.42,2.42,0,0,1-1.53,1.07,19.09,19.09,0,0,1-2.16.46l-.28,0s0,.15-.07.34c-.1.47-.17.84-.2,1.1s0,.2,0,.28q-.05.91-.23,2.29l-.05.38q-.27,1.92-.55,2.05s-.13.06-.36.08c-.54,0-.84,0-.87,0-.32-.43-.37-1.43-.15-3q.1-.71.27-1.58c0-.11,0-.21,0-.31a1.61,1.61,0,0,0-.08-1c-.11-.17-.39-.24-.84-.22h-.12l-.21,0a1.71,1.71,0,0,1-.68-.07,1,1,0,0,1-.56-.83v-.05a.94.94,0,0,1,.24-.53,2,2,0,0,1,1.49-.54h.63a1.27,1.27,0,0,0,.52-.14q.07-1.1.22-2.18.12-.83.28-1.64a7.78,7.78,0,0,1,1.23-3.29,1.09,1.09,0,0,1,.76-.44h.07a.29.29,0,0,1,.27.14,3.71,3.71,0,0,1,0,1.9q-.13.92-.42,2.25-.19.87-.23,1.14t-.12.79l-.14,1c0,.09.12.13.4.1l.2,0a10.27,10.27,0,0,0,1.61-.39l.22-.08a3.83,3.83,0,0,1,.91-.26C117.14,121.89,117.34,122,117.41,122.23Z"/>
        <path class="cls-26" d="M122.35,130.79a15.8,15.8,0,0,1-.15,1.65,5.46,5.46,0,0,1-.22.94,5.74,5.74,0,0,1-1.88,2.48,2.94,2.94,0,0,1-1.4.68c-1.14.18-2.16-.49-3.07-2a1.76,1.76,0,0,1-.17-.77,2.4,2.4,0,0,1,0-.38,1.41,1.41,0,0,1,.13-.43.59.59,0,0,1,.45-.37.77.77,0,0,1,.43.09,14.84,14.84,0,0,1,1.74,1,1.45,1.45,0,0,0,1,.33,1,1,0,0,0,.67-.45,5.82,5.82,0,0,0,.79-2.46,31.64,31.64,0,0,0,.26-4.75c-.2.27-.47.68-.82,1.24a13.93,13.93,0,0,1-1.14,1.63,3.38,3.38,0,0,1-1.49,1.07,1.81,1.81,0,0,1-.33.07.82.82,0,0,1-.88-.39,3.87,3.87,0,0,1-.15-2.36,19.06,19.06,0,0,1,.42-2,16,16,0,0,1,.73-2q.84-2,1.45-2.08c.25,0,.44.19.57.65v.07a16.15,16.15,0,0,1-.73,2.6,15.62,15.62,0,0,0-.71,2.61c0,.08,0,.15,0,.22a4.24,4.24,0,0,0,1.36-1.55q.44-.72,1.26-2.38t1.13-2.12q.58-.92,1-1a.44.44,0,0,1,.17,0h0a.29.29,0,0,1,.27.15c.34.45.22,2.49-.35,6.11l-.17,1.12q-.16,1-.19,1.33Q122.39,129.88,122.35,130.79Z"/>
        <path class="cls-27" d="M82.45,140.39a1.5,1.5,0,0,1,0,.56,1.05,1.05,0,0,1-.11.37,1.66,1.66,0,0,1-1.49.76,15.52,15.52,0,0,1-2.11-.08l-.27,0s0,.16-.06.35q-.13.74-.18,1.16c0,.12,0,.22,0,.3q0,1-.19,2.46l0,.4q-.23,2-.5,2.12s-.13,0-.35,0c-.53-.1-.82-.19-.86-.26a6.39,6.39,0,0,1-.2-3.35q.09-.76.24-1.66,0-.17,0-.33a2.14,2.14,0,0,0-.1-1.15,1.12,1.12,0,0,0-.82-.47l-.12,0-.2,0a1.83,1.83,0,0,1-.67-.26,1.57,1.57,0,0,1-.56-1.06v-.05a.81.81,0,0,1,.23-.52,1.51,1.51,0,0,1,1.45-.2,2.58,2.58,0,0,1,.38.11l.23.07a1,1,0,0,0,.5,0q.05-1.2.18-2.34.1-.88.25-1.73a7,7,0,0,1,1.15-3.29.76.76,0,0,1,.74-.28h.07a.4.4,0,0,1,.27.23,4.66,4.66,0,0,1,0,2.09q-.12,1-.38,2.37-.17.91-.21,1.19c0,.21-.06.49-.1.83l-.12,1.06c0,.09.12.17.39.22l.2,0a8.27,8.27,0,0,0,1.58,0l.22,0a3,3,0,0,1,.9,0A.66.66,0,0,1,82.45,140.39Z"/>
        <path class="cls-27" d="M85.7,140.27a2,2,0,0,1,1.61,1.23,5.41,5.41,0,0,1,.36,2.88A8.32,8.32,0,0,1,86.5,148,2.72,2.72,0,0,1,84,149.62a2.15,2.15,0,0,1-.56-.14A2.58,2.58,0,0,1,82,147.4a8.55,8.55,0,0,1-.12-2.55c0-.24,0-.48.09-.73a5.26,5.26,0,0,1,1.28-3,2.71,2.71,0,0,1,2.38-.89Zm-1.62,3.42a3.41,3.41,0,0,0-.34,1.25v.12a3.48,3.48,0,0,0,.14,1.4q.19.55.51.58t.84-.58a3.52,3.52,0,0,0,.65-1.68c0-.09,0-.18,0-.27a3.55,3.55,0,0,0-.16-1.56c-.1-.26-.25-.4-.44-.42a1,1,0,0,0-.75.37A1.51,1.51,0,0,0,84.08,143.7Z"/>
        <path class="cls-27" d="M100,141.26c.61.23.89.56.84,1v.08l-.05,0a2,2,0,0,0-.39,1.23q-.06.55-.08,1.34c0,.37,0,.62,0,.76l0,.35q-.15,1.63-.3,2.94-.23,2-.48,3.25a10.08,10.08,0,0,1-.77,2.42,3.32,3.32,0,0,1-1.89,2,1.81,1.81,0,0,1-.5.08,2.14,2.14,0,0,1-1.73-.86,3.21,3.21,0,0,1-.58-1.07,5.65,5.65,0,0,0-.19-.53,4.16,4.16,0,0,1-.36-1.87,1.36,1.36,0,0,1,.41-.88.31.31,0,0,1,.17-.06c.31,0,.6.39.86,1.16a3.9,3.9,0,0,0,.66,1.21,1.22,1.22,0,0,0,.9.54c.41,0,.75-.39,1-1.14a14.21,14.21,0,0,0,.63-3.11q.08-.71.14-1.53.08-1.18.17-1.93c0-.18,0-.34.06-.48a10.5,10.5,0,0,0-.66,1.05,4.44,4.44,0,0,1-1.8,2,1.24,1.24,0,0,1-1.58-.69,3.25,3.25,0,0,1-.44-1.64,7.2,7.2,0,0,1,0-.87,6.09,6.09,0,0,1,1.29-3.17,4.13,4.13,0,0,1,3.32-1.8h.17A3.51,3.51,0,0,1,100,141.26Zm-3.64,3a5,5,0,0,0-.59,1.33,3.18,3.18,0,0,0-.11.54,1,1,0,0,0,.16.76l.05,0c.32,0,1.16-1.12,2.56-3.38l.35-.56c0-.08-.11-.12-.26-.12a2.19,2.19,0,0,0-1.06.39A3.2,3.2,0,0,0,96.39,144.28Z"/>
        <path class="cls-27" d="M105.73,140.8a1.54,1.54,0,0,1,1.57.91,4.57,4.57,0,0,1,.28,2.68,9.06,9.06,0,0,1-1.27,3.64,3.44,3.44,0,0,1-2.55,1.92,2.06,2.06,0,0,1-.56,0c-.72-.14-1.19-.73-1.4-1.74a7.5,7.5,0,0,1-.05-2.4q0-.34.11-.7a6,6,0,0,1,1.36-3,3.37,3.37,0,0,1,2.4-1.22ZM104,144.3a3.64,3.64,0,0,0-.37,1.24v.12a3,3,0,0,0,.1,1.3c.11.33.28.49.5.47s.53-.24.86-.68a4,4,0,0,0,.69-1.7q0-.14,0-.26a3,3,0,0,0-.12-1.45.42.42,0,0,0-.43-.33,1.23,1.23,0,0,0-.76.47A1.81,1.81,0,0,0,104,144.3Z"/>
      </g>
      <path class="cls-26" d="M75.72,166.51a1.05,1.05,0,0,1,.49-.28h.05l.11,0,.22-.05L77,166l.87-.25q.87-.26,1.72-.58a27,27,0,0,0,3.31-1.48A39.87,39.87,0,0,0,89,159.65h0l.49-.41.38.52a23.69,23.69,0,0,0,2.36,2.68,29.66,29.66,0,0,0,2.71,2.38,26.9,26.9,0,0,0,3,2A15.82,15.82,0,0,0,101,168.3h0l.64.17-.07.7a56.38,56.38,0,0,1-1.19,6.92A27.72,27.72,0,0,1,98,182.86a15.82,15.82,0,0,1-5.24,5.08,27.2,27.2,0,0,1-6.46,2.94h0l-.25.08-.23-.13a25.18,25.18,0,0,1-5.46-4.23,16.58,16.58,0,0,1-3.82-5.91,26.19,26.19,0,0,1-1.14-6.86c-.06-1.14-.09-2.28-.07-3.42l.05-1.71,0-.85,0-.43,0-.21v-.11A1.18,1.18,0,0,1,75.72,166.51ZM77,167.59a.6.6,0,0,0,.19-.38v.72l0,.83v1.66c0,1.11,0,2.21.1,3.31a27.21,27.21,0,0,0,1,6.4,16.17,16.17,0,0,0,3.32,5.4,30.12,30.12,0,0,0,4.87,4.36l-.47,0h0a36.9,36.9,0,0,0,5.84-3.37,15.27,15.27,0,0,0,4.51-4.6,30.76,30.76,0,0,0,2.24-6.25c.57-2.19,1.07-4.44,1.51-6.67l.57.87h0a16.93,16.93,0,0,1-3.49-1.71,28.32,28.32,0,0,1-3.06-2.21,31,31,0,0,1-2.76-2.56,24.69,24.69,0,0,1-2.42-2.91l.87.11h0c-1,.84-1.95,1.61-3,2.35s-2.08,1.43-3.18,2.07a28.51,28.51,0,0,1-3.44,1.68q-.88.36-1.79.67l-.91.3-.46.14-.23.07-.12,0-.06,0C76.46,167.89,76.89,167.78,77,167.59Z"/>
      <path class="cls-28" d="M80.25,169.92A19.93,19.93,0,0,0,85,168.05a42,42,0,0,0,4.18-2.7,22.44,22.44,0,0,0,3.7,3.56A13.42,13.42,0,0,0,97,171.29s-.78,5.83-2.29,9c-1.85,3.83-7.85,6.16-7.85,6.16s-4.55-3-5.92-7.11C79.78,175.89,80.25,169.92,80.25,169.92Z"/>
    </g>
  </g>
</svg>
