<?xml version="1.0" encoding="utf-8"?>
<!-- Generator: Adobe Illustrator 22.0.0, SVG Export Plug-In . SVG Version: 6.00 Build 0)  -->
<svg version="1.1" xmlns="http://www.w3.org/2000/svg" xmlns:xlink="http://www.w3.org/1999/xlink" x="0px" y="0px"
	 viewBox="0 0 346 439" style="enable-background:new 0 0 346 439;" xml:space="preserve">
<style type="text/css">
	.st0{fill:#FFFFFF;}
	.st1{fill:#101315;}
	.st2{fill:#E51727;}
	.st3{opacity:0.2;fill:#7898A0;}
	.st4{opacity:0.2;}
	.st5{fill:#E0BF4E;}
	.st6{fill:#967D14;}
	.st7{opacity:0.47;}
	.st8{opacity:0.6;}
</style>
<g id="Ebene_5">
	<g>
		<path class="st0" d="M77.1,297.5c16.9-54.2,40.5-102.7,52.4-146c17.5-63.8,16-75.8,22.6-75.6c9.5,0.2,39.2,36.8,62.1,79.9
			c17.9,33.7,49,103.3,63.4,158.4c12.5,47.7,12.1,105.1-7.7,106.4c-25.1,1.7-57.3-46.2-93.1-46.2c-31.4,0-68.6,47.3-91,44.9
			C66.7,417.3,57.3,361,77.1,297.5z"/>
		<path d="M74.6,296.8c3.1-9.6,6.4-19.1,9.9-28.5c3.5-9.4,7.1-18.8,10.8-28.1c7.4-18.6,15.1-37.1,22.1-55.8l2.5-7.1
			c0.8-2.4,1.6-4.7,2.4-7.1c0.8-2.4,1.5-4.8,2.3-7.1l1.1-3.6l1-3.6c2.8-9.6,5.3-19.3,7.8-29c2.5-9.7,4.8-19.4,7-29.2
			c1.1-4.9,2.2-9.8,3.6-14.7c0.4-1.2,0.7-2.5,1.2-3.7c0.5-1.2,1-2.5,2.3-3.7c0.6-0.6,1.5-1,2.3-1.1c0.8-0.1,1.6,0,2.4,0.2
			c1.4,0.4,2.6,1.1,3.7,1.8c2.2,1.4,4.2,3.1,6.1,4.8c1.9,1.7,3.7,3.5,5.4,5.4c3.5,3.7,6.7,7.6,9.8,11.5c6.3,7.9,12.1,16.1,17.6,24.5
			c5.5,8.4,10.8,17,15.7,25.8c4.9,8.8,9.5,17.7,13.9,26.7c4.4,9,8.7,18.1,12.8,27.3c1,2.3,2.1,4.6,3.1,6.9l3,6.9
			c2,4.6,4,9.2,5.9,13.8l2.9,6.9l2.8,7c1.9,4.6,3.7,9.3,5.5,14c3.5,9.4,7,18.8,10.2,28.4c3.3,9.5,6.2,19.1,9,28.9
			c2.7,9.8,4.8,19.7,6.3,29.7c1.5,10,2.6,20.2,2.7,30.4c0.1,5.1,0,10.3-0.5,15.4c-0.5,5.2-1.2,10.3-2.6,15.5
			c-0.7,2.6-1.7,5.2-2.9,7.7c-1.3,2.5-3,5.1-5.5,7.3c-1.3,1.1-2.8,2-4.5,2.6c-0.4,0.1-0.8,0.3-1.3,0.4c-0.4,0.1-0.9,0.2-1.3,0.3
			c-0.4,0-0.9,0.1-1.3,0.1l-1.1,0c-3,0-5.9-0.5-8.6-1.4c-2.7-0.8-5.2-1.9-7.5-3.2c-2.4-1.2-4.6-2.6-6.8-4c-4.3-2.8-8.4-5.9-12.4-9
			c-8-6.2-15.6-12.5-23.8-17.9c-4.1-2.7-8.3-5.2-12.7-7.2c-4.4-2-9-3.6-13.6-4.3c-2.3-0.4-4.7-0.6-7-0.5c-2.3,0-4.6,0.4-6.9,0.9
			c-2.3,0.5-4.5,1.3-6.8,2.2c-2.2,0.9-4.4,1.9-6.5,3.1c-8.6,4.6-16.5,10.4-24.5,16.4c-4,3-7.9,6.1-12.1,9c-4.1,3-8.3,5.9-12.9,8.5
			c-4.5,2.6-9.4,5.1-15.2,6.1c-1.5,0.3-3,0.4-4.6,0.4c-0.4,0-0.8,0-1.2-0.1l-0.6,0l-0.7-0.1c-0.9-0.1-1.8-0.4-2.6-0.7
			c-3.4-1.2-5.9-3.4-7.8-5.7c-1.9-2.3-3.4-4.8-4.6-7.3c-1.2-2.5-2.1-5-2.9-7.6c-1.5-5.1-2.5-10.2-3.2-15.4
			c-1.3-10.3-1.3-20.5-0.7-30.7C64.2,336,68.4,316,74.6,296.8z M79.5,298.3c-5.6,19-9.1,38.7-9.7,58.4c-0.3,9.8,0.1,19.7,1.6,29.3
			c0.7,4.8,1.8,9.5,3.3,14c1.5,4.4,3.4,8.7,6.1,11.8c1.3,1.5,2.8,2.6,4.2,3.1c1.2,0.5,3.3,0.5,5.2,0.1c2-0.4,4.1-1.1,6.2-2
			c2.1-0.9,4.2-2,6.3-3.1c8.3-4.8,16.4-10.7,24.7-16.3c8.3-5.6,16.8-11.3,26.2-15.7c4.7-2.2,9.6-4.1,14.8-5.1c2.6-0.5,5.3-0.8,8-0.9
			c2.7,0,5.3,0.2,7.9,0.7c5.2,0.9,10.2,2.6,14.9,4.7c4.7,2.1,9.2,4.6,13.5,7.3c8.7,5.4,16.8,11.5,24.9,17.3
			c4.1,2.9,8.1,5.7,12.3,8.2c4.1,2.5,8.4,4.6,12.7,5.8c2.1,0.6,4.2,0.9,6.2,0.9l0.7,0l0.6-0.1l0.5-0.1l0.5-0.2
			c0.7-0.3,1.3-0.6,2-1.2c1.3-1.1,2.5-2.8,3.4-4.7c1-1.9,1.7-4.1,2.4-6.3c1.3-4.5,2-9.2,2.5-14c0.5-4.8,0.7-9.7,0.7-14.6
			c0-9.8-0.6-19.7-1.8-29.5c-1.2-9.8-2.9-19.6-5.2-29.2c-2.3-9.6-5-19.3-8-28.8c-5.8-19.1-12.9-37.8-20.2-56.4
			c-7.4-18.6-15.5-36.9-24.1-54.9c-4.3-9-8.8-18-13.6-26.7c-4.8-8.7-10-17.3-15.4-25.7c-5.4-8.4-11.2-16.5-17.4-24.4
			c-3.1-3.9-6.3-7.7-9.7-11.4c-1.7-1.8-3.4-3.6-5.2-5.3c-1.8-1.7-3.7-3.3-5.7-4.5c-1-0.6-2-1.2-3-1.4c-0.5-0.1-0.9-0.2-1.4-0.1
			c-0.4,0.1-0.7,0.2-1,0.5c-0.6,0.5-1.2,1.6-1.6,2.7c-0.4,1.1-0.8,2.3-1.1,3.4c-1.3,4.7-2.4,9.7-3.6,14.5
			c-2.3,9.8-4.6,19.5-7.1,29.2c-2.5,9.7-5,19.4-7.8,29c-2.8,9.7-6.1,19.1-9.4,28.6c-6.6,18.9-13.9,37.6-20.9,56.4
			c-3.5,9.4-6.9,18.8-10.2,28.2C85.5,279.2,82.4,288.7,79.5,298.3z"/>
	</g>
	<path class="st1" d="M101.6,225.8c0,0,32.1-5.6,75.3-5.2c48.7,0.5,69.8,5.8,69.8,5.8s-21.7-54-44.2-89.4s-43.1-62.5-50.8-61.2
		c-7.7,1.3-12.4,49.8-25,85.1S101.6,225.8,101.6,225.8z"/>
	<g>
		<ellipse class="st2" cx="174.9" cy="226.6" rx="53" ry="41"/>
		<path d="M230.2,226.6c0.2,6.6-1.7,13.3-5.1,19c-3.3,5.7-8,10.5-13.4,14.3c-5.4,3.8-11.4,6.5-17.6,8.2c-6.3,1.7-12.7,2.4-19.2,2.4
			c-6.4-0.1-12.8-1.1-19-3c-6.1-1.9-12-4.7-17.2-8.5c-5.2-3.8-9.7-8.5-12.9-14c-3.2-5.5-5-11.9-4.8-18.3c0.2-6.4,2.2-12.5,5.6-17.8
			c3.4-5.3,8-9.6,13.1-13c5.1-3.5,10.9-6,16.8-7.7c6-1.7,12.1-2.5,18.3-2.6c3.1,0,6.2,0.1,9.3,0.5c3.1,0.3,6.1,0.9,9.2,1.7
			c6,1.5,11.9,3.9,17.2,7.3c5.3,3.4,10.2,7.7,13.7,13.2C227.9,213.5,230.1,220,230.2,226.6z M225.7,226.6c0.2-5.8-1.5-11.5-4.4-16.7
			c-2.9-5.1-7.1-9.6-12-13.1c-4.9-3.6-10.4-6.3-16.3-8.2c-2.9-0.9-5.9-1.6-9-2.1c-3-0.5-6.1-0.7-9.2-0.8c-6.2-0.1-12.4,0.7-18.3,2.4
			c-5.9,1.7-11.6,4.3-16.7,7.8c-5,3.5-9.5,8-12.6,13.3c-3.1,5.3-4.8,11.3-4.6,17.4c0.2,6,2.2,11.9,5.5,16.8c3.3,5,7.8,9.1,12.8,12.3
			c5,3.2,10.6,5.5,16.3,7c5.8,1.5,11.7,2.1,17.6,2c11.8-0.2,23.6-3.5,33.3-9.9c4.8-3.2,9.2-7.2,12.3-12
			C223.7,237.9,225.6,232.3,225.7,226.6z"/>
	</g>
	
		<ellipse transform="matrix(0.9979 -6.452718e-02 6.452718e-02 0.9979 -13.232 11.1866)" class="st0" cx="166.6" cy="210.4" rx="26.6" ry="16.1"/>
	<g>
		<path d="M106.2,222.2c-2.9,0.7-5.9,1.6-8.8,2.4c-2.9,0.9-5.9,1.8-8.8,2.8c-5.8,2-11.6,4.2-17.2,6.6c-5.6,2.4-11.2,5-16.5,8
			c-5.3,2.9-10.5,6.2-15.1,10c-2.3,1.9-4.4,3.9-6.2,6.1c-1.8,2.2-3.2,4.5-3.8,6.9c-0.7,2.5-0.6,4.9,0.3,7c0.9,2.1,2.7,4,4.8,5.6
			c4.4,3.1,10.1,4.9,15.8,6c2.9,0.5,5.8,0.8,8.7,0.9c2.9,0.1,5.9,0,8.3-0.5l0.7,12.3c-3.7-0.2-7-0.7-10.3-1.4
			c-3.3-0.7-6.5-1.5-9.6-2.5c-3.2-1-6.3-2.1-9.3-3.6c-3-1.4-6-3.1-8.8-5.4c-2.7-2.2-5.3-5.1-6.7-8.8c-1.5-3.7-1.4-7.9-0.3-11.3
			c0.5-1.7,1.3-3.5,2.1-5c0.9-1.5,1.9-3,3-4.3c2.2-2.6,4.6-4.9,7.1-7c5-4.2,10.4-7.7,15.8-10.9c5.5-3.2,11.1-6.2,16.7-9
			c5.6-2.8,11.4-5.4,17.2-8c5.8-2.5,11.5-5,17.5-7.4L106.2,222.2z"/>
	</g>
	<path d="M59.8,285.7c7.7-2.5,13-13.2,27.2-22.6c12.8-8.5,30.1-5.1,29.8,1.3c-0.5,10.3-15.5,4.1-22.3,6.4
		c-6.9,2.3-16.3,11.3-16.3,11.3s12.1-8.8,23.6-8.5s20.8,14.4,16,17c-11.8,6.5-13.1-6.5-21-7.5c-6.5-0.8-19.3,6.2-19.3,6.2
		s8.8-4.3,17.7-1.3c8.8,2.9,15.2,16,9.6,18.2c-11.1,4.3-9.9-8.3-15.5-9.7c-5.6-1.3-9.8,5.2-19.3,2.9c-8.3-2-16.4-8.8-16.4-8.8
		S50.6,288.7,59.8,285.7z"/>
	<path d="M117.4,186.6c0,0-8.8,15.4-14.4,21.3S78.7,222,78.7,222l3,7.8c0,0,8-2.3,11,0.1c4.4,3.4,0.2,20.4,0.2,20.4
		s6.8-19.8,11.7-30C109.6,210.1,117.4,186.6,117.4,186.6z"/>
	<g>
		<path d="M244.6,212.3c3.1,1.1,6,2.2,9,3.4c3,1.2,5.9,2.3,8.8,3.5c5.8,2.5,11.7,5,17.4,7.7c5.7,2.7,11.4,5.7,16.9,8.9
			c5.5,3.3,10.8,6.9,15.8,11.2c2.5,2.2,4.8,4.5,6.9,7.2c2.1,2.7,3.9,5.7,5.1,9.2c0.6,1.8,0.9,3.7,0.9,5.7c0,2-0.4,4-1.2,5.8
			c-1.5,3.7-4.2,6.5-6.9,8.6c-2.8,2.2-5.8,3.9-8.8,5.3c-3.1,1.4-6.2,2.6-9.4,3.5c-3.2,0.9-6.4,1.7-9.7,2.3c-3.3,0.6-6.7,1-10.5,1
			l1.2-11.7c2.4,0.6,5.3,0.8,8.2,0.7c2.9-0.1,5.8-0.4,8.7-0.9c5.7-1,11.4-2.9,15.9-6c2.2-1.6,4-3.4,5-5.5c0.5-1.1,0.7-2.1,0.8-3.3
			c0-1.1-0.1-2.3-0.5-3.5c-0.8-2.4-2.2-4.9-4-7.1c-1.7-2.2-3.8-4.3-6.1-6.2c-4.5-3.9-9.6-7.1-14.9-10.1c-5.3-3-10.9-5.5-16.5-7.9
			c-5.7-2.3-11.5-4.4-17.3-6.3c-2.9-0.9-5.9-1.8-8.8-2.6c-2.9-0.8-6-1.6-8.9-2.2L244.6,212.3z"/>
	</g>
	<path d="M288.7,285.7c-7.7-2.5-13-13.2-27.2-22.6c-12.8-8.5-30.1-5.1-29.8,1.3c0.5,10.6,15.1,3.5,22.6,5.9c6.9,2.2,16,10.8,16,10.8
		s-12.1-7.9-23.6-7.5s-20.8,14.3-16,17c10.3,6,13.1-6.5,21-7.5c6.5-0.8,18.6,5.6,18.6,5.6s-8.1-3.7-17-0.7
		c-8.8,2.9-15.4,16.3-9.8,18.4c11.1,4.3,10.1-8.6,15.7-9.9s9.8,5.2,19.3,2.9c8.3-2,16.4-8.8,16.4-8.8S297.9,288.7,288.7,285.7z"/>
	<path d="M232.2,192.1c0,0,6.8,9.8,12.3,15.7s21.9,13.4,21.9,13.4l-0.5,8.6c0,0-8.3-2.2-11,0.5c-2.9,2.9,0.5,18.2,0.5,18.2
		s-4.7-12.7-9.6-22.8C240.9,215.5,232.2,192.1,232.2,192.1z"/>
	<path class="st3" d="M68.4,370.6c0,0,4.7,24.6,24.7,23.6c21.8-1.1,43.2-31.5,76.7-32.5s54.6,16.9,69.2,23.8
		c14.5,6.9,23.5-4.1,26-19.5c4.5-27.1-3.5-59.1-7-72c-7-25.5-20.5-50.5-20.5-50.5s-8.5,32-49,35.5c-49.4,4.3-58.8-29.3-58.8-29.3
		s25.9,7.7,46.8,4.4s33.4-17.2,36.5-27c4.5-14.1,0.5-29.6,0.5-29.6l23.7,9.5c0,0,26.2,55,37.9,101.6c13.3,53,9.9,108.6-1.3,111.7
		c-11,3.1-21.5-2.3-38.9-15.1s-40.2-32.8-60.8-29.8c-20.5,2.9-49.1,25.6-58.3,31.8s-18.6,15.7-30,12.1
		C67,413.5,68.4,370.6,68.4,370.6z"/>
	<g id="Ebene_11" class="st4">
	</g>
</g>
<g id="Ebene_8">
	<g>
		<path class="st5" d="M109.1,171.6c0,0-5.7,6.1-18.7,4.9c-13-1.3-20.2-10.7-20.2-10.7s13.3-1.8,21.8-0.7
			C100.6,166.2,109.1,171.6,109.1,171.6z"/>
		<path class="st6" d="M110.4,171.4c0,0.3-0.1,0.8-0.3,1l-0.1,0.1l0,0l0,0l0,0l-0.1,0.1l-0.3,0.2c-0.2,0.2-0.4,0.3-0.6,0.5
			c-0.4,0.3-0.8,0.6-1.2,0.8c-0.8,0.5-1.7,0.9-2.6,1.3c-1.8,0.8-3.6,1.3-5.4,1.6c-3.7,0.7-7.5,0.5-11.1,0c-3.7-0.6-7.2-2-10.4-3.9
			c-3.2-1.9-6.1-4.2-8.4-7.2l0,0l-0.7-0.8l1.1-0.2c3.4-0.5,6.7-0.9,10.1-1.1c3.4-0.2,6.8-0.3,10.2-0.1c1.7,0.1,3.4,0.4,5.1,0.7
			c1.7,0.4,3.3,0.9,5,1.5c1.6,0.6,3.2,1.2,4.8,2c0.8,0.4,1.5,0.7,2.3,1.1l1.1,0.6l0.6,0.3l0.3,0.2l0.1,0.1l0,0
			c0.1,0,0.2,0.1,0.3,0.2C110.2,170.9,110.4,171.2,110.4,171.4z M107.9,171.7c0,0.2,0.1,0.5,0.3,0.7c0.1,0.1,0.2,0.2,0.2,0.2l0,0
			l-0.1-0.1l-0.3-0.2l-0.5-0.3l-1.1-0.6c-0.7-0.4-1.4-0.8-2.2-1.2c-1.5-0.7-3-1.4-4.5-2c-1.5-0.6-3.1-1.1-4.7-1.6
			c-1.6-0.4-3.2-0.7-4.8-0.9c-3.3-0.3-6.6-0.3-10-0.2c-3.3,0.1-6.7,0.4-10,0.8l0.4-1l0,0c2.3,2.6,5.1,4.9,8.2,6.6
			c3.1,1.7,6.5,2.9,9.9,3.3c3.5,0.4,7,0.5,10.4-0.3c1.7-0.3,3.3-0.9,4.9-1.6c0.8-0.4,1.5-0.8,2.2-1.2c0.4-0.2,0.7-0.5,1-0.7
			c0.2-0.1,0.3-0.3,0.5-0.4l0.2-0.2l0.1-0.1l0,0l0,0c0,0,0,0,0,0l-0.1,0.1C107.9,171,107.8,171.5,107.9,171.7z"/>
	</g>
	<g>
		<path class="st5" d="M81.7,154.6c0,0-10.9,3.3-20.5-0.6c-11.2-4.6-16.7-19.2-16.7-19.2s17,2.9,25.8,7.5
			C79.2,146.8,81.7,154.6,81.7,154.6z"/>
		<path class="st6" d="M82.9,155.2c-0.1,0.2-0.3,0.4-0.5,0.5c-0.1,0.1-0.3,0.1-0.3,0.1l0,0l0,0l-0.1,0l-0.2,0.1l-0.4,0.1l-0.7,0.2
			c-0.5,0.1-1,0.2-1.5,0.3c-1,0.2-2,0.3-3,0.4c-2,0.2-4,0.3-6.1,0.1c-4-0.2-8.1-1.2-11.7-3.3c-3.6-2.1-6.4-5-8.8-8.2
			c-2.4-3.2-4.3-6.7-5.8-10.5l0,0l-0.5-1.4l1.5,0.2c3.7,0.6,7.3,1.4,10.9,2.2c3.6,0.9,7.2,1.9,10.7,3.1c3.5,1.2,7,3,9.9,5.5
			c1.5,1.3,2.8,2.7,3.9,4.2c0.6,0.8,1.1,1.6,1.6,2.4c0.2,0.4,0.5,0.9,0.7,1.3l0.3,0.7l0.1,0.3l0.1,0.2l0.1,0.2
			C83,154.5,83,154.9,82.9,155.2z M80.6,154c-0.2,0.2-0.2,0.6-0.1,0.9c0,0.1,0,0.1,0,0.1l0,0l0,0l-0.1-0.1l-0.1-0.3l-0.2-0.6
			c-0.2-0.4-0.4-0.8-0.6-1.2c-0.4-0.8-0.9-1.5-1.4-2.2c-1-1.4-2.2-2.7-3.5-3.9c-2.6-2.4-5.8-4-9.1-5.3c-3.4-1.3-6.9-2.3-10.4-3.3
			c-3.5-0.9-7.1-1.7-10.7-2.4l0.9-1.1l0,0c1.4,3.5,3.4,6.9,5.7,9.9c2.3,3,5.1,5.7,8.4,7.5c3.2,1.8,7,2.6,10.8,2.8
			c1.9,0.1,3.8,0,5.7-0.2c0.9-0.1,1.9-0.3,2.8-0.4c0.5-0.1,0.9-0.2,1.4-0.3l0.7-0.2l0.3-0.1l0.2,0l0.1,0l0,0l0,0
			c0,0-0.2,0.1-0.3,0.1C80.9,153.6,80.7,153.8,80.6,154z"/>
	</g>
	<g>
		<path class="st5" d="M100.3,162.5c0,0-7.4-5-10.5-14.9s3.8-22.4,3.8-22.4s6.7,12.7,8.4,20.8C104.2,156.5,100.3,162.5,100.3,162.5z
			"/>
		<path class="st6" d="M100.5,163.7c-0.3,0-0.6,0-0.9-0.2c-0.1,0-0.1-0.1-0.2-0.1l0,0l0,0l-0.1-0.1l-0.3-0.2l-0.5-0.4
			c-0.4-0.3-0.7-0.6-1-0.9c-0.7-0.6-1.3-1.3-1.9-1.9c-1.2-1.3-2.3-2.8-3.2-4.3c-1-1.5-1.8-3.1-2.4-4.8c-0.4-0.8-0.6-1.7-0.9-2.5
			c-0.3-0.9-0.5-1.8-0.6-2.7c-0.5-3.6-0.1-7.3,0.8-10.7c0.9-3.4,2.2-6.7,3.9-9.9l0,0l0.5-1l0.6,1c1.6,2.9,3,5.9,4.4,8.9
			c1.4,3,2.7,6.1,3.7,9.3c1,3.2,1.6,6.6,1.6,10c0,1.7-0.2,3.4-0.6,5.1c-0.2,0.8-0.4,1.7-0.7,2.5c-0.1,0.4-0.3,0.8-0.5,1.2l-0.3,0.6
			l-0.2,0.3l-0.1,0.2l-0.1,0.1C101.2,163.4,100.8,163.6,100.5,163.7z M100,161.2c-0.3,0-0.6,0.2-0.8,0.5c0,0.1,0,0,0,0l0.1-0.1
			l0.1-0.2l0.3-0.5c0.2-0.3,0.3-0.7,0.5-1c0.3-0.7,0.5-1.5,0.7-2.2c0.4-1.5,0.6-3.1,0.7-4.6c0.1-3.2-0.3-6.4-1.2-9.4
			c-0.9-3.1-2-6.2-3.3-9.2c-1.3-3-2.6-6-4.1-8.9l1.1,0l0,0c-1.5,3-2.7,6.3-3.4,9.6c-0.7,3.3-1.1,6.8-0.5,10c0.3,1.6,0.9,3.2,1.5,4.7
			c0.7,1.5,1.5,3,2.4,4.4c0.9,1.4,2,2.7,3.1,3.9c0.6,0.6,1.2,1.2,1.8,1.7c0.3,0.3,0.6,0.5,1,0.8l0.5,0.4l0.2,0.2l0.1,0.1l0,0l0,0
			c0,0-0.1-0.1-0.2-0.1C100.5,161.2,100.2,161.2,100,161.2z"/>
	</g>
	<g>
		<path class="st5" d="M78.7,141.3c0,0-7.6-9.8-5.7-20.3c1.3-7.2,13-18.1,13-18.1s0.1,12.6-1.8,22.8S78.7,141.3,78.7,141.3z"/>
		<path class="st6" d="M78.8,142.6c-0.2,0-0.5-0.1-0.8-0.2c-0.2-0.1-0.4-0.4-0.4-0.3l0,0l-0.1-0.1l-0.1-0.2l-0.2-0.3l-0.4-0.6
			c-0.3-0.4-0.5-0.8-0.7-1.2c-0.5-0.8-0.9-1.7-1.3-2.5c-0.8-1.7-1.5-3.5-2-5.3c-1-3.7-1.4-7.6-0.6-11.5c0.5-2,1.4-3.7,2.4-5.3
			c1-1.6,2.1-3.1,3.3-4.5c2.4-2.9,4.9-5.6,7.7-8.1l0,0l1-0.9l0,1.3c0.1,3.3,0,6.6-0.1,9.9c-0.1,3.3-0.4,6.6-0.8,9.9
			c-0.4,3.3-1,6.6-1.9,9.9c-0.5,1.6-1,3.2-1.6,4.8c-0.3,0.8-0.7,1.6-1,2.3c-0.2,0.4-0.4,0.8-0.6,1.2l-0.3,0.6l-0.2,0.3l-0.1,0.1
			l0,0.1C79.7,142.2,79.2,142.6,78.8,142.6z M78.7,139.9c-0.4,0-0.9,0.3-1,0.6l0-0.1l0.1-0.1l0.2-0.2l0.3-0.5c0.2-0.3,0.4-0.7,0.6-1
			c0.4-0.7,0.7-1.4,1-2.2c0.6-1.5,1.2-3,1.7-4.5c1-3.1,1.7-6.2,2.2-9.5c0.5-3.2,0.9-6.5,1.1-9.8c0.3-3.3,0.4-6.6,0.5-9.8l1,0.4l0,0
			c-2.6,2.6-5.1,5.3-7.3,8.2c-1.1,1.4-2.2,2.9-3.1,4.5c-0.9,1.5-1.7,3.2-2,4.8c-0.6,3.4-0.2,7,0.9,10.4c0.5,1.7,1.2,3.3,2.1,4.9
			c0.4,0.8,0.9,1.6,1.3,2.3c0.2,0.4,0.5,0.7,0.7,1.1l0.4,0.5l0.2,0.3l0.1,0.1l0,0.1l0,0c0.1,0.1-0.1-0.2-0.3-0.3
			C79.2,140,78.9,139.9,78.7,139.9z"/>
	</g>
	<g>
		<path class="st5" d="M63.4,126c0,0-11.6-3.4-15.6-13.7c-4.4-11.3-0.5-30.8-0.5-30.8s12.6,14.5,15,26.2S63.4,126,63.4,126z"/>
		<path class="st6" d="M64.1,127.1c-0.2,0.1-0.5,0.2-0.8,0.2c-0.4-0.1-0.3-0.1-0.3-0.1l-0.1,0l-0.1,0l-0.2-0.1l-0.4-0.2l-0.8-0.3
			c-0.5-0.2-1-0.5-1.6-0.7c-1-0.5-2-1-3-1.7c-1.9-1.2-3.7-2.6-5.3-4.3c-1.6-1.6-3-3.5-4-5.6c-1-2.1-1.6-4.3-2-6.5
			c-0.8-4.4-0.8-8.9-0.5-13.3c0.3-4.4,0.8-8.8,1.7-13.1l0.2-1.1l0.8,0.9c2.7,3.1,5.2,6.3,7.5,9.7c2.3,3.4,4.4,6.9,6.1,10.7
			c0.8,1.9,1.5,3.9,2,6c0.4,2,0.8,4,1.1,6.1c0.3,2,0.5,4.1,0.5,6.2c0,1,0,2.1,0,3.1c0,0.5,0,1.1-0.1,1.6l-0.1,0.8l-0.1,0.4l0,0.2
			l0,0.1l0,0.1c0,0.1-0.1,0.2-0.1,0.3C64.4,126.8,64.3,127,64.1,127.1z M62.8,124.9c-0.2,0.1-0.3,0.2-0.5,0.4
			c-0.1,0.1-0.1,0.2-0.1,0.3c0,0.1,0,0.1,0,0.1l0,0l0-0.1l0-0.2l0.1-0.3l0.1-0.7c0.1-0.5,0.1-1,0.1-1.5c0.1-1,0.1-2,0.1-3
			c0-2-0.1-4-0.4-6c-0.2-2-0.5-4-0.9-5.9c-0.4-1.9-1-3.8-1.7-5.7c-1.5-3.7-3.5-7.2-5.6-10.6c-2.2-3.4-4.6-6.7-7.1-9.8l1-0.3
			c-0.7,4.3-1.2,8.6-1.3,13c-0.1,4.3,0,8.7,0.9,12.9c0.4,2.1,1.1,4.1,2,6c1,1.8,2.2,3.5,3.7,5c1.5,1.5,3.2,2.7,5,3.8
			c0.9,0.5,1.8,1,2.8,1.5c0.5,0.2,1,0.4,1.4,0.6l0.7,0.3l0.4,0.1l0.2,0.1l0.1,0l0,0c0,0,0.1,0-0.2,0C63.3,124.7,63,124.8,62.8,124.9
			z"/>
	</g>
	<g>
		<path class="st5" d="M68,106.8c0,0-0.1-11.7,5.7-18s21.2-12.1,21.2-12.1s-7.1,16.6-14,21.9C74.9,103.1,68,106.8,68,106.8z"/>
		<path class="st6" d="M67.3,107.9c-0.2-0.1-0.4-0.4-0.5-0.7c-0.1-0.1-0.1-0.3-0.1-0.4l0-0.1l0,0l0-0.1l0-0.2l0-0.4l0-0.7
			c0-0.5,0.1-0.9,0.1-1.4c0.1-0.9,0.2-1.9,0.4-2.8c0.3-1.9,0.8-3.7,1.4-5.5c0.6-1.8,1.4-3.5,2.5-5.1c1-1.6,2.4-3,3.9-4.2
			c3-2.3,6.2-4.1,9.5-5.7c3.3-1.6,6.7-3,10.2-4.3l0,0l0.5-0.2l-0.2,0.5c-1.3,3.2-2.8,6.4-4.4,9.5c-1.6,3.1-3.4,6.1-5.5,9
			c-1.1,1.4-2.2,2.8-3.7,4c-1.4,1.1-2.8,2.2-4.2,3.2c-1.4,1-2.9,2-4.4,2.9l-2.2,1.4l-1.1,0.7l-0.6,0.3l-0.3,0.2l-0.1,0.1l0,0l0,0
			l-0.1,0.1C68.2,108.2,67.6,108.1,67.3,107.9z M68.6,105.8c-0.2-0.2-0.8-0.3-1.1-0.1l-0.1,0l0,0l0,0l0,0l0.1-0.1l0.3-0.1l0.6-0.3
			l1.1-0.6l2.2-1.3c1.5-0.9,3-1.7,4.4-2.7c1.4-0.9,2.9-1.9,4.2-2.9c1.3-1,2.5-2.2,3.6-3.5c2.2-2.6,4.1-5.5,5.8-8.5
			c1.7-3,3.3-6,4.8-9.2l0.3,0.3l0,0c-3.4,1.4-6.7,3-9.9,4.7c-3.2,1.8-6.3,3.6-9,6c-2.8,2.3-4.4,5.4-5.4,8.8
			c-0.5,1.7-0.9,3.4-1.1,5.2c-0.1,0.9-0.2,1.8-0.3,2.7c0,0.4-0.1,0.9-0.1,1.3l0,0.7l0,0.3l0,0.2l0,0.1l0,0c0,0,0,0.1,0,0
			c0-0.1,0-0.3-0.1-0.4C69,106.1,68.8,105.9,68.6,105.8z"/>
	</g>
	<g>
		<path class="st5" d="M64.2,88.7c0,0-4.4-6.9-2.9-15.8s12.7-28,12.7-28s2.8,21.4,0.7,29.8S64.2,88.7,64.2,88.7z"/>
		<path class="st6" d="M64,89.9c-0.3-0.1-0.7-0.4-0.8-0.6l-0.1-0.1L63,89l-0.2-0.4l-0.3-0.7c-0.2-0.5-0.4-0.9-0.6-1.4
			c-0.4-1-0.7-1.9-1-2.9c-0.5-2-0.8-4-0.9-6.1c0-2.1,0.2-4.1,0.7-6.1c0.5-2,1.2-3.8,2-5.7c1.5-3.7,3.3-7.2,5.2-10.7
			c1.9-3.5,3.8-6.9,5.8-10.3l0.7-1.2l0.2,1.4l0,0c0.6,4,1,7.9,1.3,11.9c0.3,4,0.6,8,0.5,12c-0.1,2-0.2,4-0.6,6.1
			c-0.5,2.1-1.3,4-2.4,5.8c-1.1,1.8-2.3,3.4-3.8,4.9c-0.7,0.8-1.4,1.5-2.2,2.2c-0.4,0.3-0.8,0.7-1.2,1l-0.6,0.5l-0.3,0.2l-0.2,0.1
			L65,89.6l0,0l0,0c0,0,0,0-0.2,0.1C64.5,89.9,64.2,89.9,64,89.9z M64.5,87.5c-0.2-0.1-0.5,0-0.8,0.1c-0.1,0.1-0.2,0.1-0.2,0.1l0,0
			l0,0l0.1,0l0.1-0.1l0.3-0.2l0.6-0.4c0.4-0.3,0.8-0.6,1.1-0.9c0.7-0.6,1.4-1.3,2.1-1.9c1.4-1.4,2.6-2.8,3.6-4.4
			c1-1.6,1.8-3.3,2.3-5.1c0.5-1.8,0.6-3.8,0.8-5.7c0.2-3.9,0.1-7.9-0.1-11.9c-0.2-4-0.5-7.9-0.9-11.9l0,0l0.9,0.2
			c-1.9,3.4-3.7,6.9-5.5,10.4c-1.7,3.5-3.4,7.1-4.8,10.7c-0.7,1.8-1.3,3.7-1.7,5.5c-0.4,1.8-0.5,3.7-0.4,5.6c0.1,1.9,0.4,3.7,1,5.5
			c0.3,0.9,0.6,1.8,1,2.6c0.2,0.4,0.4,0.9,0.6,1.3l0.3,0.6l0.2,0.3l0.1,0.1l0,0.1C65.1,87.7,64.8,87.5,64.5,87.5z"/>
	</g>
	<g>
		<path class="st5" d="M82.2,61c0,0-1.9-8.5,1.8-17.9c5.5-14,21-19.9,21-19.9S99.2,43.9,95,50.6C91.3,56.4,82.2,61,82.2,61z"/>
		<path class="st6" d="M81.7,62c-0.3-0.1-0.6-0.5-0.7-0.9l0-0.2l0-0.2l-0.1-0.4l-0.1-0.8c-0.1-0.5-0.1-1-0.1-1.6
			c-0.1-1-0.1-2.1-0.1-3.1c0.1-2.1,0.3-4.1,0.7-6.1c0.8-4,2.3-8,4.5-11.4c2.3-3.5,5.2-6.4,8.4-8.9c3.2-2.5,6.7-4.6,10.6-6.1l0,0
			l1.4-0.6l-0.4,1.5c-1,3.7-2.1,7.4-3.3,11c-1.2,3.7-2.4,7.3-3.8,10.9c-0.7,1.8-1.5,3.6-2.5,5.3c-1,1.8-2.4,3.3-3.8,4.7
			c-1.4,1.4-3,2.6-4.6,3.7c-0.8,0.6-1.6,1.1-2.5,1.6c-0.4,0.3-0.8,0.5-1.3,0.8l-0.6,0.4l-0.3,0.2l-0.2,0.1l0,0l0,0
			c-0.1,0-0.1,0.1-0.2,0.1C82.3,62.1,82,62.1,81.7,62z M82.7,59.9c-0.2-0.1-0.5-0.2-0.8-0.1c-0.1,0-0.1,0-0.2,0.1c0,0,0,0,0,0l0,0
			l0.2-0.1l0.3-0.2l0.6-0.3c0.4-0.2,0.8-0.5,1.2-0.7c0.8-0.5,1.6-1,2.4-1.5c1.6-1,3-2.2,4.4-3.4c1.4-1.2,2.6-2.6,3.5-4.1
			c0.9-1.5,1.7-3.3,2.5-5c1.5-3.5,2.8-7.1,4-10.7c1.2-3.6,2.4-7.3,3.5-10.9l1,0.9l0,0c-3.6,1.5-7,3.6-10,6c-3.1,2.4-5.8,5.3-7.8,8.6
			c-2.1,3.3-3.4,7-4.1,10.8c-0.3,1.9-0.5,3.8-0.5,5.8c0,1,0,1.9,0.1,2.9c0,0.5,0.1,1,0.1,1.4l0.1,0.7l0.1,0.3l0,0.2c0,0,0,0.1,0,0
			C83.3,60.3,83,60,82.7,59.9z"/>
	</g>
	<g>
		<path class="st5" d="M80.9,72.3c0,0,3.9-7.6,14.4-11.4c10.5-3.8,22,1.2,22,1.2s-10.4,7-19.1,9.4C89.5,73.9,80.9,72.3,80.9,72.3z"
			/>
		<path class="st6" d="M79.9,72.8c-0.1-0.3-0.1-0.7,0-1c0-0.1,0.1-0.2,0.1-0.2l0,0l0,0l0.1-0.2l0.2-0.3c0.1-0.2,0.3-0.4,0.4-0.6
			c0.3-0.4,0.5-0.7,0.8-1.1c0.6-0.7,1.2-1.4,1.8-2c1.2-1.3,2.6-2.4,4.1-3.5c1.4-1,3-1.9,4.6-2.7l1.2-0.5l1.2-0.5
			c0.8-0.3,1.7-0.6,2.5-0.8c3.5-0.9,7-1,10.5-0.6c3.5,0.4,6.9,1.3,10.1,2.6l0,0l0.9,0.4l-0.8,0.6c-2.7,1.8-5.5,3.5-8.3,5.1
			c-2.9,1.6-5.8,3-8.9,4.1c-3.1,1.1-6.4,1.8-9.7,2c-1.6,0.1-3.3,0.2-5,0.1c-0.8,0-1.7-0.1-2.5-0.1L82,73.6l-0.6-0.1l-0.3,0l-0.2,0
			c-0.1,0,0.1,0-0.3-0.1C80.3,73.3,80,73.1,79.9,72.8z M82,71.8c-0.1-0.2-0.3-0.5-0.5-0.6c-0.3-0.1-0.2,0-0.2-0.1l0.1,0l0.3,0
			l0.6,0.1l1.2,0.2c0.8,0.1,1.6,0.2,2.4,0.2c1.6,0.1,3.2,0.1,4.7,0c3.2-0.1,6.3-0.7,9.3-1.6c3-1,6-2.3,8.8-3.7
			c2.9-1.4,5.7-3,8.4-4.8l0.1,0.9l0,0c-3.1-1.2-6.5-1.9-9.8-2.2c-3.4-0.3-6.7-0.1-9.9,0.8c-3.1,1-6.2,2.5-8.8,4.5
			c-1.3,1-2.6,2.1-3.7,3.3c-0.5,0.6-1.1,1.2-1.6,1.9c-0.2,0.3-0.5,0.7-0.7,1c-0.1,0.2-0.2,0.3-0.3,0.5l-0.1,0.3L82,72.8l0,0l0,0
			c0,0,0.1-0.1,0.1-0.2C82.2,72.4,82.1,72,82,71.8z"/>
	</g>
	<g>
		<path class="st5" d="M101.5,49.8c0,0,3.1-7.1,10.4-12.1c10.8-7.4,26-8,26-8s-11.6,14.4-19.4,16.9S101.5,49.8,101.5,49.8z"/>
		<path class="st6" d="M100.5,50.5c-0.2-0.3-0.3-0.9-0.1-1.2l0.1-0.1l0.1-0.2l0.2-0.3l0.3-0.6c0.2-0.4,0.5-0.8,0.7-1.2
			c0.5-0.8,1-1.6,1.6-2.3c1.1-1.5,2.4-2.9,3.7-4.2c2.7-2.6,5.9-4.7,9.3-6.2c3.4-1.6,6.9-2.7,10.5-3.5c3.6-0.8,7.2-1.3,10.9-1.5l0,0
			l1.4,0l-0.9,1.1c-2.3,2.8-4.7,5.6-7.2,8.2c-2.6,2.6-5.2,5.1-8.3,7.2c-0.8,0.5-1.6,1-2.4,1.4c-0.9,0.4-1.8,0.8-2.7,1
			c-1.8,0.5-3.5,1-5.3,1.4c-1.8,0.4-3.6,0.7-5.4,1c-0.9,0.1-1.8,0.3-2.7,0.4l-1.4,0.2l-0.7,0.1l-0.3,0l-0.2,0l0,0l0,0
			c-0.1,0-0.2,0-0.2,0C101.1,51,100.7,50.7,100.5,50.5z M102.4,49.2c-0.1-0.2-0.5-0.5-0.8-0.5c-0.1,0-0.1,0-0.2,0l0,0l0,0l0.2,0
			l0.3,0l0.7-0.1l1.3-0.1c0.9-0.1,1.8-0.2,2.7-0.3c1.8-0.2,3.5-0.5,5.3-0.8c1.7-0.3,3.5-0.7,5.2-1.2c0.9-0.2,1.6-0.5,2.4-0.8
			c0.8-0.4,1.5-0.8,2.3-1.3c2.9-1.9,5.6-4.3,8.2-6.8c2.6-2.5,5-5.1,7.3-7.9l0.5,1.1l0,0c-3.5,0.2-7.1,0.9-10.6,1.7
			c-3.5,0.9-6.9,2-10.1,3.6c-3.2,1.6-6.1,3.6-8.6,6.1c-1.2,1.2-2.4,2.6-3.4,4c-0.5,0.7-1,1.5-1.4,2.2c-0.2,0.4-0.4,0.8-0.6,1.1
			l-0.3,0.6l-0.1,0.3l-0.1,0.1c0,0,0,0.1,0,0C102.8,49.9,102.7,49.4,102.4,49.2z"/>
	</g>
	<g class="st7">
		<path class="st6" d="M63.4,89.5c0.3-3.6,0.7-7.2,1.3-10.8c0.5-3.6,1.3-7.2,2.2-10.7c1-3.5,1.9-7,2.9-10.5c1-3.5,2-7,3.1-10.4
			c-0.8,3.5-1.6,7.1-2.5,10.6c-0.9,3.5-1.8,7-2.7,10.5c-1,3.5-1.7,7-2.4,10.6C64.6,82.4,64,86,63.4,89.5z"/>
	</g>
	<g class="st7">
		<path class="st6" d="M82.2,61c1-3.2,2.1-6.3,3.4-9.4c1.3-3.1,2.7-6.1,4.5-9c1.8-2.9,3.7-5.6,5.7-8.2c2-2.6,4.1-5.2,6.4-7.7
			c-2,2.7-4,5.4-5.9,8.1c-1.9,2.7-3.8,5.4-5.5,8.3c-1.7,2.8-3.2,5.8-4.6,8.8C84.8,54.8,83.5,57.9,82.2,61z"/>
	</g>
	<g class="st7">
		<path class="st6" d="M101.5,49.8c2.2-1.7,4.5-3.2,6.8-4.7c2.3-1.5,4.7-2.8,7.2-4.1c2.5-1.2,5-2.3,7.5-3.4c2.5-1.1,5-2.2,7.6-3.2
			c-2.4,1.3-4.9,2.5-7.4,3.8l-7.4,3.6c-2.5,1.2-4.8,2.6-7.2,3.9L101.5,49.8z"/>
	</g>
	<g class="st7">
		<path class="st6" d="M80.9,72.3c2.4-1.5,5-2.8,7.6-4c2.6-1.2,5.4-2.2,8.1-3c2.8-0.7,5.6-1.3,8.4-1.8c2.8-0.4,5.7-0.8,8.6-1
			c-2.8,0.5-5.7,1-8.5,1.6c-2.8,0.6-5.6,1.2-8.3,2c-2.8,0.7-5.4,1.7-8.1,2.8C86.1,69.9,83.5,71.1,80.9,72.3z"/>
	</g>
	<g class="st7">
		<path class="st6" d="M68,106.8c1.5-2.8,3.3-5.4,5.1-8c1.8-2.6,3.7-5.1,5.8-7.5c2.2-2.3,4.4-4.6,6.8-6.7c2.4-2.1,4.8-4.1,7.3-6
			l-3.5,3.2c-1.2,1.1-2.3,2.2-3.4,3.3c-2.3,2.2-4.5,4.4-6.6,6.7c-2.1,2.3-4,4.8-5.9,7.4C71.6,101.7,69.8,104.3,68,106.8z"/>
	</g>
	<g class="st7">
		<path class="st6" d="M78.7,141.3c-0.6-3-1-6.1-1.2-9.1c-0.2-3.1-0.2-6.2,0.3-9.2c0.6-3,1.6-6,2.6-8.8c1.1-2.9,2.3-5.7,3.7-8.4
			c-1,2.9-2.1,5.8-3,8.6c-0.9,2.9-1.9,5.8-2.4,8.8c-0.6,2.9-0.5,6-0.5,9c0,1.5,0.1,3,0.2,4.6C78.5,138.2,78.6,139.7,78.7,141.3z"/>
	</g>
	<g class="st7">
		<path class="st6" d="M100.3,162.5c-1-2.4-1.9-4.9-2.7-7.4c-0.8-2.5-1.6-5-2.3-7.5c-0.7-2.6-1.2-5.1-1.6-7.7
			c-0.3-2.6-0.6-5.2-0.5-7.9c0.2,1.3,0.3,2.6,0.5,3.9c0.2,1.3,0.4,2.6,0.6,3.9c0.5,2.6,1,5.1,1.7,7.6c0.7,2.5,1.4,5,2.1,7.5
			C98.9,157.4,99.6,159.9,100.3,162.5z"/>
	</g>
	<g class="st7">
		<path class="st6" d="M71.4,166.2c1.4,0.4,2.8,0.9,4.2,1.3c1.4,0.4,2.8,0.9,4.3,1.2c2.8,0.8,5.7,1.5,8.6,1.9
			c2.9,0.4,5.9,0.6,8.8,0.8l8.9,0.6c-3,0.2-5.9,0.2-8.9,0.1c-3-0.1-5.9-0.3-8.9-0.6c-1.5-0.2-2.9-0.5-4.4-0.9
			c-1.4-0.4-2.9-0.8-4.3-1.2C76.9,168.5,74.1,167.4,71.4,166.2z"/>
	</g>
	<g class="st7">
		<path class="st6" d="M46.8,136.8c2.6,1.8,5.1,3.6,7.7,5.4c2.6,1.8,5.2,3.6,7.9,5.1c2.7,1.6,5.6,2.7,8.5,3.8
			c2.9,1.1,5.9,2.1,8.9,3.1c-3.1-0.6-6.1-1.5-9.1-2.5c-3-1-5.9-2.1-8.7-3.7c-2.7-1.6-5.3-3.4-7.8-5.3
			C51.6,140.8,49.1,138.9,46.8,136.8z"/>
	</g>
	<g class="st7">
		<path class="st6" d="M47.5,83.5l3,10.8c1,3.6,1.9,7.2,3,10.8c0.5,1.8,1.1,3.6,1.7,5.3c0.7,1.7,1.4,3.4,2.2,5.1
			c0.8,1.7,1.7,3.3,2.6,5c0.9,1.6,1.8,3.2,2.8,4.9c-2.2-3-4.2-6.2-5.9-9.5c-0.9-1.7-1.7-3.4-2.4-5.1c-0.7-1.8-1.3-3.5-1.8-5.3
			c-1-3.6-2-7.2-2.9-10.8C49,90.8,48.2,87.2,47.5,83.5z"/>
	</g>
	<g id="Ebene_8_Kopie">
		<g>
			<path class="st5" d="M236,171.6c0,0,5.8,6.1,18.8,4.8c13-1.3,20.2-10.8,20.2-10.8s-13.3-1.8-21.9-0.6
				C244.5,166.2,236,171.6,236,171.6z"/>
			<path class="st6" d="M237.3,171.8c0.1-0.3,0-0.7-0.2-0.9l-0.1-0.1c0,0,0,0,0,0l0,0l0,0l0.1,0.1l0.2,0.2c0.1,0.1,0.3,0.3,0.5,0.4
				c0.3,0.2,0.7,0.5,1,0.7c0.7,0.5,1.5,0.9,2.2,1.2c1.5,0.7,3.2,1.2,4.9,1.6c3.4,0.7,7,0.7,10.4,0.2c3.5-0.5,6.8-1.7,9.9-3.4
				c3.1-1.7,5.9-4,8.2-6.6l0,0l0.4,1c-3.3-0.4-6.7-0.6-10-0.7c-3.3-0.1-6.7-0.1-10,0.2c-1.6,0.2-3.2,0.5-4.8,0.9
				c-1.6,0.4-3.1,1-4.7,1.6c-1.5,0.6-3,1.3-4.5,2.1c-0.7,0.4-1.5,0.8-2.2,1.2l-1.1,0.6l-0.5,0.3l-0.3,0.2l-0.1,0.1l0,0
				c0,0,0.2-0.1,0.2-0.2C237.2,172.3,237.3,172,237.3,171.8z M234.7,171.5c0-0.2,0.2-0.5,0.4-0.7c0.1-0.1,0.2-0.2,0.3-0.2l0,0
				l0.1-0.1l0.3-0.2l0.6-0.3l1.1-0.6c0.8-0.4,1.5-0.8,2.3-1.1c1.6-0.7,3.1-1.4,4.7-2c1.6-0.6,3.3-1.1,4.9-1.5
				c1.7-0.4,3.4-0.6,5.1-0.8c3.4-0.2,6.8-0.1,10.2,0.1c3.4,0.2,6.7,0.6,10.1,1.1l1.1,0.2l-0.7,0.8l0,0c-2.4,2.9-5.2,5.3-8.4,7.2
				c-3.2,1.9-6.7,3.2-10.4,3.9c-3.7,0.6-7.4,0.7-11.1,0.1c-1.9-0.3-3.7-0.8-5.4-1.6c-0.9-0.4-1.7-0.8-2.6-1.3
				c-0.4-0.2-0.8-0.5-1.2-0.8c-0.2-0.2-0.4-0.3-0.6-0.5l-0.3-0.2l-0.1-0.1l0,0l0,0l0,0l-0.1-0.1
				C234.8,172.3,234.7,171.8,234.7,171.5z"/>
		</g>
		<g>
			<path class="st5" d="M263.3,154.6c0,0,10.9,3.3,20.5-0.6c11.2-4.6,16.7-19.2,16.7-19.2s-17,2.9-25.8,7.5
				C265.8,146.8,263.3,154.6,263.3,154.6z"/>
			<path class="st6" d="M264.5,154c-0.1-0.2-0.3-0.4-0.5-0.5c-0.1-0.1-0.2-0.1-0.3-0.1l0,0l0,0l0.1,0l0.2,0l0.3,0.1l0.7,0.2
				c0.5,0.1,0.9,0.2,1.4,0.3c0.9,0.2,1.9,0.3,2.8,0.4c1.9,0.2,3.8,0.3,5.7,0.2c3.8-0.2,7.5-1,10.8-2.8c3.3-1.8,6-4.5,8.4-7.5
				c2.3-3,4.3-6.4,5.7-9.9l0,0l0.9,1.1c-3.6,0.7-7.2,1.5-10.7,2.4c-3.5,0.9-7,2-10.4,3.3c-3.4,1.3-6.6,2.9-9.1,5.3
				c-1.3,1.2-2.5,2.5-3.5,3.9c-0.5,0.7-1,1.5-1.4,2.2c-0.2,0.4-0.4,0.8-0.6,1.2l-0.2,0.6l-0.1,0.3l0,0.1l0,0l0,0c0,0,0,0,0-0.1
				C264.7,154.6,264.6,154.2,264.5,154z M262.2,155.2c-0.1-0.3-0.2-0.7-0.1-1l0.1-0.2l0.1-0.2l0.1-0.3l0.3-0.7
				c0.2-0.4,0.4-0.9,0.7-1.3c0.5-0.8,1-1.7,1.6-2.4c1.1-1.6,2.5-3,3.9-4.2c2.9-2.6,6.4-4.3,9.9-5.5c3.5-1.3,7.1-2.3,10.7-3.1
				c3.6-0.9,7.2-1.6,10.9-2.2l1.5-0.2l-0.5,1.4l0,0c-1.5,3.8-3.4,7.2-5.8,10.5c-2.4,3.2-5.3,6.2-8.8,8.2c-3.6,2.1-7.7,3-11.7,3.3
				c-2,0.1-4,0.1-6.1-0.1c-1-0.1-2-0.2-3-0.4c-0.5-0.1-1-0.2-1.5-0.3l-0.7-0.2l-0.4-0.1l-0.2-0.1l-0.1,0l0,0l0,0
				c0,0-0.2-0.1-0.3-0.1C262.5,155.6,262.3,155.4,262.2,155.2z"/>
		</g>
		<g>
			<path class="st5" d="M244.8,162.5c0,0,7.4-5,10.4-15s-3.8-22.4-3.8-22.4s-6.7,12.8-8.4,20.9C240.9,156.6,244.8,162.5,244.8,162.5
				z"/>
			<path class="st6" d="M245.1,161.3c-0.2-0.1-0.5,0-0.7,0.1c-0.1,0-0.1,0.1-0.1,0.1l0,0l0,0l0.1-0.1l0.2-0.2l0.5-0.4
				c0.3-0.3,0.6-0.5,0.9-0.8c0.6-0.5,1.2-1.1,1.8-1.7c1.2-1.2,2.2-2.5,3.1-3.9c0.9-1.4,1.7-2.9,2.4-4.4c0.7-1.6,1.2-3.1,1.5-4.7
				c0.6-3.3,0.3-6.7-0.5-10c-0.8-3.3-1.9-6.6-3.4-9.6l0,0l1.1,0c-1.5,2.9-2.8,5.9-4.1,8.9c-1.2,3-2.4,6.1-3.3,9.2
				c-0.9,3.1-1.3,6.3-1.1,9.4c0.1,1.6,0.3,3.1,0.7,4.6c0.2,0.8,0.4,1.5,0.7,2.2c0.1,0.4,0.3,0.7,0.5,1l0.3,0.5l0.1,0.2l0.1,0.1
				c0,0,0.1,0.1,0,0C245.7,161.5,245.4,161.3,245.1,161.3z M244.6,163.7c-0.3-0.1-0.7-0.3-0.8-0.6l-0.1-0.1l-0.1-0.2l-0.2-0.3
				l-0.3-0.6c-0.2-0.4-0.3-0.8-0.5-1.2c-0.3-0.8-0.5-1.7-0.7-2.5c-0.4-1.7-0.6-3.4-0.6-5.1c0-3.4,0.5-6.8,1.6-10
				c1-3.2,2.3-6.3,3.6-9.3c1.4-3,2.8-6,4.4-8.9l0.5-1l0.5,1l0,0c1.7,3.1,3,6.4,3.9,9.9c0.9,3.4,1.4,7.1,0.8,10.7
				c-0.1,0.9-0.3,1.8-0.6,2.7c-0.3,0.9-0.5,1.7-0.9,2.6c-0.7,1.7-1.5,3.3-2.4,4.8c-1,1.5-2,3-3.2,4.3c-0.6,0.7-1.2,1.3-1.9,2
				c-0.3,0.3-0.7,0.6-1,0.9l-0.5,0.4l-0.3,0.2l-0.1,0.1l0,0l0,0c-0.1,0-0.1,0.1-0.2,0.1C245.2,163.7,244.8,163.8,244.6,163.7z"/>
		</g>
		<g>
			<path class="st5" d="M266.8,141.2c0,0,7.5-10.3,5.4-21.1c-1.5-7.4-13.8-18.3-13.8-18.3s0.2,13,2.4,23.4S266.8,141.2,266.8,141.2z
				"/>
			<path class="st6" d="M266.9,139.9c-0.2,0-0.5,0-0.7,0.2c-0.2,0.1-0.4,0.4-0.4,0.3l0,0l0-0.1l0.1-0.1l0.2-0.3l0.4-0.6
				c0.2-0.4,0.5-0.8,0.7-1.2c0.5-0.8,0.9-1.6,1.3-2.4c0.8-1.6,1.5-3.4,2-5.1c1-3.5,1.4-7.2,0.7-10.7c-0.4-1.7-1.2-3.3-2.2-4.9
				c-1-1.6-2.1-3.1-3.3-4.5c-2.4-2.9-5-5.7-7.7-8.2l0,0l1-0.5c0.1,3.4,0.4,6.8,0.8,10.1c0.4,3.4,0.8,6.7,1.4,10
				c0.6,3.3,1.4,6.5,2.5,9.7c0.6,1.6,1.2,3.1,1.9,4.6c0.3,0.7,0.7,1.5,1.1,2.2c0.2,0.4,0.4,0.7,0.6,1.1l0.3,0.5l0.2,0.2l0.1,0.1
				l0,0.1C267.8,140.1,267.2,139.8,266.9,139.9z M266.8,142.6c-0.4,0-1-0.3-1.2-0.7l0-0.1l-0.1-0.2l-0.2-0.3l-0.3-0.6
				c-0.2-0.4-0.4-0.8-0.6-1.2c-0.4-0.8-0.8-1.6-1.1-2.4c-0.7-1.6-1.3-3.2-1.8-4.9c-1-3.3-1.8-6.7-2.3-10.1
				c-0.5-3.4-0.8-6.8-1.1-10.2c-0.2-3.4-0.4-6.8-0.4-10.2l0-1.4l1,0.9l0,0c2.9,2.5,5.6,5.2,8.1,8.1c1.3,1.5,2.5,3,3.5,4.6
				c1.1,1.6,2.1,3.4,2.6,5.4c1,3.9,0.7,8-0.3,11.8c-0.5,1.9-1.2,3.8-2,5.6c-0.4,0.9-0.8,1.8-1.3,2.6c-0.2,0.4-0.5,0.9-0.7,1.3
				l-0.4,0.6l-0.2,0.3l-0.1,0.2l-0.1,0.1l0,0c0.1-0.1-0.1,0.2-0.4,0.4C267.4,142.5,267,142.6,266.8,142.6z"/>
		</g>
		<g>
			<path class="st5" d="M281.6,126c0,0,11.6-3.4,15.6-13.7c4.4-11.3,0.5-30.8,0.5-30.8s-12.6,14.5-15,26.2
				C280.3,119.5,281.6,126,281.6,126z"/>
			<path class="st6" d="M282.3,124.9c-0.2-0.1-0.5-0.2-0.7-0.2c-0.4,0.1-0.2,0.1-0.2,0l0,0l0.1,0l0.2-0.1l0.4-0.1l0.7-0.3
				c0.5-0.2,1-0.4,1.4-0.6c1-0.4,1.9-0.9,2.8-1.5c1.8-1.1,3.5-2.3,5-3.8c1.5-1.5,2.8-3.1,3.7-5c1-1.8,1.6-3.9,2-6
				c0.8-4.2,1-8.5,0.9-12.9c-0.2-4.3-0.6-8.7-1.3-13l1,0.3c-2.6,3.1-4.9,6.4-7.1,9.8c-2.2,3.4-4.1,6.9-5.6,10.6
				c-0.7,1.8-1.3,3.7-1.7,5.7c-0.4,2-0.7,4-0.9,5.9c-0.2,2-0.3,4-0.4,6c0,1,0,2,0.1,3c0,0.5,0.1,1,0.1,1.5l0.1,0.7l0.1,0.3l0,0.2
				l0,0.1l0,0c0,0,0,0,0-0.1c0-0.1-0.1-0.2-0.1-0.3C282.6,125.2,282.5,125,282.3,124.9z M281,127.1c-0.2-0.1-0.4-0.3-0.5-0.5
				c-0.1-0.1-0.1-0.2-0.1-0.3l0-0.1l0-0.1l0-0.2l-0.1-0.4l-0.1-0.8c0-0.5-0.1-1.1-0.1-1.6c0-1.1,0-2.1,0-3.1
				c0.1-2.1,0.3-4.1,0.5-6.2c0.3-2,0.7-4.1,1.1-6.1c0.5-2.1,1.2-4.1,2-6c1.7-3.8,3.8-7.3,6.1-10.7c2.3-3.4,4.8-6.6,7.5-9.7l0.8-0.9
				l0.2,1.1c0.9,4.3,1.4,8.7,1.7,13.1c0.3,4.4,0.2,8.9-0.5,13.3c-0.4,2.2-1,4.4-2,6.5c-1,2.1-2.4,4-4,5.6c-1.6,1.7-3.4,3.1-5.3,4.3
				c-1,0.6-2,1.2-3,1.7c-0.5,0.2-1,0.5-1.6,0.7l-0.8,0.3l-0.4,0.2l-0.2,0.1l-0.1,0l-0.1,0c0,0,0.1,0-0.3,0.1
				C281.5,127.3,281.2,127.2,281,127.1z"/>
		</g>
		<g>
			<path class="st5" d="M277.1,106.8c0,0,0.1-11.7-5.7-18s-21.2-12.1-21.2-12.1s7.1,16.6,14,21.9
				C270.2,103.1,277.1,106.8,277.1,106.8z"/>
			<path class="st6" d="M276.5,105.8c-0.2,0.1-0.4,0.3-0.5,0.6c-0.1,0.1-0.1,0.3-0.1,0.4c0,0.1,0,0,0,0l0,0l0-0.1l0-0.2l0-0.3l0-0.7
				c0-0.4,0-0.9-0.1-1.3c-0.1-0.9-0.1-1.8-0.3-2.7c-0.2-1.8-0.6-3.5-1.1-5.2c-1-3.4-2.7-6.5-5.4-8.8c-2.7-2.3-5.8-4.2-9-6
				c-3.2-1.7-6.5-3.3-9.9-4.7l0,0l0.4-0.4c1.5,3.1,3.1,6.2,4.8,9.2c1.7,3,3.6,5.9,5.8,8.5c1.1,1.3,2.3,2.5,3.6,3.5
				c1.4,1,2.8,2,4.2,2.9c1.4,0.9,2.9,1.8,4.4,2.7l2.2,1.3l1.1,0.6l0.6,0.3l0.3,0.1l0.1,0.1l0,0l0,0l0,0l-0.1,0
				C277.2,105.5,276.7,105.6,276.5,105.8z M277.8,107.9c-0.3,0.2-0.9,0.2-1.2,0l-0.1-0.1l0,0l0,0l-0.1-0.1l-0.3-0.2l-0.6-0.3
				l-1.1-0.7l-2.2-1.4c-1.5-0.9-2.9-1.9-4.4-2.9c-1.4-1-2.8-2-4.2-3.2c-1.4-1.2-2.6-2.5-3.7-4c-2.1-2.8-3.9-5.9-5.5-8.9
				c-1.6-3.1-3.1-6.2-4.4-9.5l-0.3-0.6l0.6,0.2l0,0c3.5,1.3,6.8,2.7,10.2,4.3c3.3,1.6,6.6,3.4,9.5,5.7c1.5,1.2,2.9,2.6,3.9,4.2
				c1.1,1.6,1.9,3.4,2.5,5.1c0.6,1.8,1.1,3.6,1.4,5.5c0.2,0.9,0.3,1.9,0.4,2.8c0.1,0.5,0.1,0.9,0.1,1.4l0,0.7l0,0.4l0,0.2l0,0.1l0,0
				l0,0.1c0,0.1,0,0.3-0.1,0.4C278.2,107.6,278,107.8,277.8,107.9z"/>
		</g>
		<g>
			<path class="st5" d="M280.7,87.8c0,0,3.7-6.8,2.9-15.9c-1-11.1-12.7-28.1-12.7-28.1s-2.8,21.4-0.8,29.8
				C272.2,82.1,280.7,87.8,280.7,87.8z"/>
			<path class="st6" d="M280.5,86.6c-0.3,0-0.7,0.4-0.8,0.5l0-0.1l0.1-0.1l0.2-0.3l0.3-0.6c0.2-0.4,0.4-0.9,0.5-1.3
				c0.3-0.9,0.6-1.8,0.9-2.7c0.5-1.8,0.8-3.7,1-5.6c0.1-1.9,0.2-3.8-0.1-5.7c-0.3-1.9-0.8-3.8-1.4-5.6c-1.2-3.7-2.9-7.3-4.7-10.8
				c-1.8-3.5-3.8-6.9-5.9-10.2l0.8-0.2l0,0c-0.4,4-0.8,7.9-1,11.9c-0.2,4-0.3,8-0.1,11.9c0.1,2,0.3,3.9,0.8,5.8
				c0.5,1.8,1.3,3.6,2.3,5.2c1,1.6,2.3,3.1,3.6,4.5c0.7,0.7,1.4,1.3,2.1,2c0.4,0.3,0.7,0.6,1.1,0.9l0.6,0.4l0.3,0.2l0.1,0.1l0.1,0
				l0,0l0,0c0,0,0,0-0.2-0.1C281,86.6,280.7,86.5,280.5,86.6z M281,89c-0.2,0.1-0.6,0-0.8-0.1c-0.2-0.1-0.2-0.1-0.2-0.1l0,0l0,0
				l-0.1-0.1l-0.2-0.1l-0.3-0.2l-0.6-0.5c-0.4-0.3-0.8-0.7-1.2-1c-0.8-0.7-1.5-1.4-2.2-2.2c-1.4-1.5-2.7-3.2-3.8-5
				c-1.1-1.8-1.9-3.7-2.4-5.8c-0.4-2.1-0.6-4.1-0.6-6.1c-0.1-4,0.2-8.1,0.5-12.1c0.3-4,0.8-8,1.4-11.9l0,0l0.1-1.2l0.7,1
				c2.3,3.3,4.4,6.6,6.3,10.1c1.9,3.5,3.7,7,5.1,10.8c0.7,1.9,1.3,3.8,1.6,5.9c0.4,2,0.4,4.1,0.3,6.1c-0.1,2-0.4,4.1-0.9,6.1
				c-0.2,1-0.5,2-0.9,3c-0.2,0.5-0.3,1-0.5,1.4l-0.3,0.7L282,88l-0.1,0.2l0,0.1C281.8,88.5,281.4,88.9,281,89z"/>
		</g>
		<g>
			<path class="st5" d="M262.8,60c0,0,2.7-8.8-1.8-18c-6-12.3-21-20-21-20s5.8,20.9,10,27.5C253.7,55.3,262.8,60,262.8,60z"/>
			<path class="st6" d="M262.3,58.9c-0.2,0.1-0.5,0.3-0.6,0.6l0,0.1c0,0,0,0,0,0l0,0l0,0l0-0.2l0.1-0.3l0.2-0.7
				c0.1-0.5,0.2-0.9,0.2-1.4c0.1-0.9,0.2-1.9,0.2-2.9c0.1-1.9-0.1-3.8-0.5-5.7c-0.7-3.8-2.4-7.3-4.6-10.4c-2.3-3.2-5-6-8-8.5
				c-3-2.5-6.3-4.8-9.7-6.7l0,0l1.1-0.9c1.1,3.7,2.2,7.3,3.4,10.9c1.2,3.6,2.5,7.2,4,10.7c0.7,1.7,1.5,3.5,2.5,5
				c0.9,1.6,2.1,2.9,3.5,4.2c1.4,1.2,2.9,2.4,4.4,3.4c0.8,0.5,1.6,1,2.4,1.5c0.4,0.2,0.8,0.5,1.2,0.7l0.6,0.3l0.3,0.2l0.2,0.1l0,0
				c0,0,0,0,0,0c0,0-0.1,0-0.2-0.1C262.8,58.7,262.5,58.8,262.3,58.9z M263.2,61c-0.2,0.1-0.6,0.1-0.9,0c-0.1,0-0.1-0.1-0.2-0.1l0,0
				l0,0l-0.2-0.1l-0.3-0.2l-0.6-0.4c-0.4-0.2-0.8-0.5-1.3-0.8c-0.8-0.5-1.6-1.1-2.5-1.6c-1.6-1.1-3.2-2.3-4.6-3.7
				c-1.4-1.4-2.8-2.9-3.8-4.7c-1-1.7-1.8-3.5-2.5-5.3c-1.4-3.6-2.7-7.3-3.8-10.9c-1.2-3.7-2.2-7.4-3.2-11.1l-0.5-1.7l1.6,0.8l0,0
				c3.6,1.9,6.9,4.2,10.1,6.7c3.1,2.6,6.1,5.4,8.5,8.7c2.4,3.3,4.4,7.1,5.2,11.2c0.4,2,0.6,4.1,0.6,6.2c0,1-0.1,2.1-0.2,3.1
				c-0.1,0.5-0.1,1-0.2,1.5l-0.2,0.8l-0.1,0.4l-0.1,0.2l0,0l0,0l0,0.1C263.8,60.6,263.5,60.9,263.2,61z"/>
		</g>
		<g>
			<path class="st5" d="M264,71.3c0,0-3.9-7.6-14.4-11.5s-22,1.1-22,1.1s10.4,7.1,19.1,9.5C255.4,72.9,264,71.3,264,71.3z"/>
			<path class="st6" d="M263,70.8c-0.1,0.2-0.2,0.6-0.1,0.9c0,0.1,0.1,0.1,0.1,0.2l0,0l0,0l-0.1-0.1l-0.1-0.3
				c-0.1-0.2-0.2-0.3-0.3-0.5c-0.2-0.3-0.4-0.7-0.7-1c-0.5-0.7-1-1.3-1.6-1.9c-1.1-1.2-2.3-2.3-3.7-3.3c-2.6-2-5.7-3.5-8.8-4.5
				c-3.2-0.9-6.6-1.1-9.9-0.9c-3.4,0.3-6.7,1-9.9,2.2l0,0l0.1-0.9c2.7,1.7,5.5,3.3,8.4,4.8c2.9,1.5,5.8,2.8,8.8,3.8
				c3,1,6.1,1.5,9.3,1.6c1.6,0.1,3.2,0.1,4.7,0c0.8,0,1.6-0.1,2.4-0.2l1.2-0.1l0.6-0.1l0.3,0l0.1,0c0,0,0.2-0.1-0.2,0.1
				C263.3,70.4,263,70.6,263,70.8z M265.1,71.9c-0.1,0.2-0.4,0.5-0.7,0.6c-0.4,0.1-0.3,0.1-0.3,0.1l-0.2,0l-0.3,0l-0.6,0.1l-1.2,0.1
				c-0.8,0.1-1.7,0.1-2.5,0.1c-1.7,0-3.3,0-5-0.1c-3.3-0.3-6.6-0.9-9.7-2.1c-3.1-1.1-6.1-2.6-8.9-4.1c-2.9-1.6-5.6-3.3-8.3-5.1
				l-0.8-0.6l0.9-0.4l0,0c3.3-1.4,6.7-2.2,10.1-2.6c3.5-0.4,7.1-0.3,10.5,0.6c0.9,0.2,1.7,0.5,2.5,0.8l1.2,0.5l1.2,0.6
				c1.6,0.8,3.2,1.6,4.6,2.7c1.5,1,2.8,2.2,4.1,3.5c0.6,0.6,1.2,1.3,1.8,2c0.3,0.4,0.5,0.7,0.8,1.1c0.1,0.2,0.3,0.4,0.4,0.6l0.2,0.3
				l0.1,0.2l0,0l0,0c0,0,0.1,0.1,0.1,0.2C265.2,71.2,265.2,71.6,265.1,71.9z"/>
		</g>
		<g>
			<path class="st5" d="M243.5,48.8c0,0-3.1-7.2-10.4-12.1s-26-8.1-26-8.1s11.6,14.5,19.4,17C234.3,48.1,243.5,48.8,243.5,48.8z"/>
			<path class="st6" d="M242.5,48.1c-0.2,0.2-0.3,0.8-0.2,1c0,0.1,0,0,0,0l-0.1-0.1l-0.1-0.3l-0.3-0.6c-0.2-0.4-0.4-0.8-0.6-1.1
				c-0.4-0.7-0.9-1.5-1.4-2.2c-1-1.4-2.1-2.8-3.4-4c-1.2-1.2-2.6-2.4-4-3.4c-1.4-1-3-1.7-4.6-2.4c-3.3-1.4-6.7-2.4-10.2-3.4
				c-3.5-0.9-7-1.7-10.5-2.4l0,0l0.6-1.1c2.3,2.7,4.7,5.4,7.3,7.9c2.6,2.5,5.2,4.9,8.2,6.8c0.7,0.5,1.5,0.9,2.3,1.3
				c0.8,0.3,1.5,0.6,2.4,0.9c1.7,0.5,3.4,0.9,5.2,1.2c1.7,0.3,3.5,0.6,5.3,0.9c0.9,0.1,1.8,0.2,2.7,0.3l1.3,0.1l0.7,0.1l0.3,0l0.2,0
				l0,0l0,0c-0.1,0-0.1,0-0.2,0C243,47.6,242.7,47.9,242.5,48.1z M244.5,49.5c-0.2,0.2-0.6,0.5-0.9,0.5c-0.1,0-0.2,0-0.2,0l0,0l0,0
				l-0.2,0l-0.3,0l-0.7-0.1l-1.4-0.2c-0.9-0.1-1.8-0.2-2.7-0.4c-1.8-0.3-3.6-0.6-5.4-1c-1.8-0.4-3.6-0.9-5.3-1.4
				c-0.9-0.2-1.8-0.6-2.7-1c-0.8-0.5-1.7-0.9-2.4-1.4c-3.1-2.1-5.8-4.6-8.3-7.2c-2.5-2.6-4.9-5.3-7.2-8.2l-1.1-1.4l1.7,0.3l0,0
				c3.6,0.6,7.2,1.3,10.7,2.2c3.5,0.9,7.1,1.8,10.5,3.2c1.7,0.7,3.4,1.4,5,2.5c1.6,1,3,2.2,4.4,3.5c1.4,1.3,2.6,2.7,3.7,4.2
				c0.6,0.7,1.1,1.5,1.6,2.3c0.2,0.4,0.5,0.8,0.7,1.2l0.3,0.6l0.2,0.3l0.1,0.2l0.1,0.1C244.7,48.6,244.7,49.2,244.5,49.5z"/>
		</g>
		<g class="st7">
			<path class="st6" d="M281.5,88.7c-0.6-3.6-1.2-7.2-1.9-10.7c-0.7-3.6-1.4-7.1-2.4-10.6c-0.9-3.5-1.8-7-2.7-10.6
				c-0.9-3.5-1.7-7.1-2.5-10.6c1.1,3.5,2.1,7,3.1,10.5c1,3.5,1.9,7,2.9,10.5c1,3.5,1.7,7.1,2.2,10.7C280.8,81.4,281.3,85,281.5,88.7
				z"/>
		</g>
		<g class="st7">
			<path class="st6" d="M262.8,60c-1.3-3.1-2.6-6.2-4-9.2c-1.4-3-2.8-6-4.6-8.9c-1.7-2.9-3.6-5.6-5.5-8.3c-1.9-2.7-3.9-5.4-5.9-8.1
				c2.2,2.5,4.3,5.1,6.4,7.8c2,2.7,4,5.4,5.7,8.3c1.7,2.9,3.2,5.9,4.4,9C260.6,53.6,261.8,56.8,262.8,60z"/>
		</g>
		<g class="st7">
			<path class="st6" d="M243.5,48.8l-7.1-4.2c-2.4-1.4-4.8-2.7-7.2-3.9l-7.4-3.6c-2.5-1.2-4.9-2.5-7.4-3.8c2.6,1,5.1,2.1,7.6,3.2
				c2.5,1.1,5,2.3,7.5,3.4c2.5,1.3,4.9,2.6,7.2,4.1C239,45.6,241.3,47.1,243.5,48.8z"/>
		</g>
		<g class="st7">
			<path class="st6" d="M264,71.3c-2.6-1.2-5.2-2.4-7.9-3.5c-2.7-1.1-5.4-2-8.1-2.8c-2.7-0.8-5.6-1.4-8.4-2
				c-2.8-0.6-5.6-1.1-8.5-1.6c2.9,0.2,5.7,0.5,8.6,1c2.8,0.5,5.7,1.1,8.5,1.8c2.8,0.8,5.5,1.8,8.1,3C259,68.5,261.6,69.8,264,71.3z"
				/>
		</g>
		<g class="st7">
			<path class="st6" d="M277.1,106.8c-1.8-2.6-3.7-5.1-5.6-7.7c-1.9-2.5-3.8-5-5.9-7.4c-2.1-2.4-4.3-4.5-6.6-6.7
				c-1.1-1.1-2.3-2.2-3.4-3.3l-3.5-3.2c2.5,1.9,5,3.9,7.3,6c2.4,2.1,4.6,4.3,6.8,6.7c2.1,2.4,4,4.9,5.8,7.5
				C273.9,101.4,275.6,104.1,277.1,106.8z"/>
		</g>
		<g class="st7">
			<path class="st6" d="M266.8,141.2c0.1-1.6,0.2-3.1,0.2-4.7c0.1-1.6,0.1-3.1,0.1-4.7c0-3.1,0-6.3-0.7-9.3c-0.6-3-1.7-6-2.7-9
				c-1.1-3-2.2-5.9-3.3-8.8c1.5,2.8,2.8,5.7,4,8.6c1.2,2.9,2.2,5.9,2.9,9c0.6,3.2,0.6,6.3,0.5,9.5
				C267.7,135,267.4,138.1,266.8,141.2z"/>
		</g>
		<g class="st7">
			<path class="st6" d="M244.8,162.5c0.7-2.5,1.4-5.1,2.1-7.6c0.7-2.5,1.4-5,2.1-7.6c0.7-2.5,1.2-5,1.7-7.6c0.2-1.3,0.5-2.6,0.6-3.9
				c0.2-1.3,0.4-2.6,0.5-3.9c0,2.6-0.2,5.2-0.5,7.9c-0.3,2.6-0.9,5.2-1.5,7.7c-0.7,2.5-1.5,5-2.3,7.5
				C246.7,157.6,245.8,160.1,244.8,162.5z"/>
		</g>
		<g class="st7">
			<path class="st6" d="M273.7,166.1c-2.7,1.2-5.5,2.3-8.3,3.2c-1.4,0.5-2.8,0.9-4.3,1.2c-1.4,0.4-2.9,0.7-4.4,0.9
				c-3,0.4-5.9,0.6-8.9,0.6c-3,0.1-5.9,0.1-8.9-0.1l8.9-0.6c2.9-0.2,5.9-0.4,8.8-0.8c2.9-0.4,5.8-1.2,8.6-2c1.4-0.4,2.8-0.8,4.3-1.3
				C270.9,167.1,272.3,166.6,273.7,166.1z"/>
		</g>
		<g class="st7">
			<path class="st6" d="M298.3,136.8c-2.3,2.1-4.8,4.1-7.3,6c-2.5,1.9-5.1,3.7-7.8,5.3c-2.8,1.5-5.7,2.7-8.7,3.7c-3,1-6,1.8-9.1,2.5
				c3-1,6-2,8.9-3.1c2.9-1.1,5.8-2.2,8.5-3.8c2.7-1.5,5.3-3.3,7.9-5.1C293.2,140.4,295.7,138.6,298.3,136.8z"/>
		</g>
		<g class="st7">
			<path class="st6" d="M297.6,83.5c-0.7,3.7-1.5,7.3-2.3,11c-0.9,3.6-1.8,7.2-2.9,10.8c-0.6,1.8-1.1,3.6-1.8,5.3
				c-0.7,1.7-1.5,3.5-2.4,5.1c-1.7,3.3-3.7,6.5-5.9,9.5c1-1.6,1.9-3.2,2.8-4.9c0.9-1.6,1.8-3.3,2.6-5c0.8-1.7,1.6-3.4,2.2-5.1
				c0.7-1.7,1.2-3.5,1.7-5.3c1.1-3.6,2-7.2,3-10.8L297.6,83.5z"/>
		</g>
		<g class="st8">
			<path class="st0" d="M105.7,45.3c1.6-2.1,3.4-4,5.4-5.8c1-0.9,2.1-1.7,3.2-2.4c1.1-0.7,2.4-1.3,3.6-1.8c2.5-0.9,5-1.7,7.5-2.4
				c2.5-0.7,5.1-1.2,7.7-1.6c-2.4,1.1-4.9,2-7.3,2.9c-2.4,0.9-4.9,1.8-7.3,2.7c-2.4,0.9-4.5,2.2-6.7,3.6
				C109.9,42.1,107.8,43.7,105.7,45.3z"/>
		</g>
		<g class="st8">
			<path class="st0" d="M83.3,53.5c-0.1-2.6,0.2-5.3,0.9-7.9c0.7-2.6,1.7-5.1,3.3-7.4c0.8-1.1,1.7-2.1,2.6-3.1
				c0.9-0.9,1.9-1.9,2.9-2.7c2-1.7,4.1-3.3,6.5-4.6c-1.9,1.9-3.7,3.7-5.5,5.6c-1.8,1.9-3.5,3.8-5,5.9c-1.5,2-2.6,4.3-3.5,6.7
				C84.7,48.5,83.9,51,83.3,53.5z"/>
		</g>
		<g class="st8">
			<path class="st0" d="M83.2,70.3c1.4-2,3.2-3.8,5.2-5.3c1-0.8,2.1-1.4,3.2-2c1.1-0.6,2.4-1,3.6-1.4c2.5-0.6,4.9-0.9,7.4-1
				c2.5-0.1,5,0,7.4,0.5c-2.5,0.3-4.9,0.6-7.3,0.9c-2.4,0.3-4.8,0.7-7.1,1.3c-2.3,0.6-4.4,1.6-6.5,2.8
				C87.2,67.4,85.2,68.8,83.2,70.3z"/>
		</g>
		<g class="st8">
			<path class="st0" d="M63.3,83c-0.7-2.1-1-4.3-1-6.5c-0.1-2.2,0.1-4.5,0.7-6.7c0.6-2.1,1.4-4.2,2.3-6.2c0.9-2,2-3.9,3.2-5.7
				c-0.6,2.1-1.2,4.2-1.9,6.3c-0.6,2.1-1.3,4.1-1.9,6.2c-0.3,1-0.5,2-0.7,3.1c-0.2,1-0.3,2.1-0.4,3.2C63.5,78.6,63.4,80.8,63.3,83z"
				/>
		</g>
		<g class="st8">
			<path class="st0" d="M66.3,80.3c0.5-4,1.3-7.9,2.1-11.8c0.2-1,0.4-2,0.7-2.9c0.3-1,0.6-1.9,0.9-2.9c0.6-1.9,1.4-3.8,2.2-5.6
				c-0.5,2-0.9,3.9-1.5,5.8c-0.5,1.9-1,3.8-1.4,5.8C68.5,72.6,67.5,76.4,66.3,80.3z"/>
		</g>
		<g class="st8">
			<path class="st0" d="M70.1,100c0.3-2.2,0.9-4.3,1.7-6.3c0.4-1,0.9-2,1.5-3c0.3-0.5,0.7-1,1.1-1.4c0.4-0.4,0.8-0.8,1.2-1.2
				c1.7-1.4,3.5-2.6,5.4-3.7c1.9-1.1,3.8-2.1,5.8-2.9c-1.6,1.5-3.3,2.8-5,4.2c-1.7,1.3-3.4,2.6-5,3.9c-0.4,0.3-0.8,0.7-1.1,1
				c-0.3,0.3-0.6,0.7-0.9,1.1c-0.6,0.8-1.1,1.7-1.7,2.6C72.1,96.1,71.2,98,70.1,100z"/>
		</g>
		<g class="st8">
			<path class="st0" d="M78,112.8c-0.3,1.8-0.7,3.5-1.1,5.1c-0.4,1.7-0.9,3.3-1.3,4.9c-0.4,1.4-0.1,3.1,0,4.8
				c0.2,1.7,0.3,3.4,0.4,5.2c-0.9-1.6-1.5-3.2-1.9-4.9c-0.2-0.9-0.4-1.7-0.5-2.6c-0.1-0.5-0.1-0.9-0.1-1.4c0-0.5,0.1-1,0.2-1.5
				c0.4-1.8,1.1-3.4,1.8-5C76.1,115.8,76.9,114.2,78,112.8z"/>
		</g>
		<g class="st8">
			<path class="st0" d="M47.5,84.6c0.3,2.5,0.4,5,0.5,7.5l0.2,7.5c0,1.2,0.1,2.5,0.2,3.7c0.1,1.2,0.4,2.4,0.6,3.6
				c0.5,2.4,1.1,4.9,1.7,7.3c-1.3-2.2-2.3-4.5-3.1-6.9c-0.4-1.2-0.7-2.5-1-3.8c-0.2-1.3-0.2-2.6-0.3-3.9c0-2.5,0-5.1,0.2-7.6
				C46.7,89.6,47,87.1,47.5,84.6z"/>
		</g>
		<g class="st8">
			<path class="st0" d="M51,92.9c0.8,2,1.4,4,2.1,6c0.7,2,1.2,4,1.8,6.1l0.8,3.1c0.2,1,0.5,2,0.8,3c0.3,1,0.7,2,1,3l1,3
				c-1-1.8-2-3.7-2.8-5.7c-0.4-1-0.7-2-1-3l-0.9-3c-0.6-2-1.1-4.1-1.6-6.1C51.9,97.1,51.4,95,51,92.9z"/>
		</g>
		<g class="st8">
			<path class="st0" d="M48.5,137c2.3,0.1,4.5,0.5,6.8,1c2.2,0.4,4.4,1,6.6,1.7c1.1,0.4,2.2,0.8,3.2,1.3c1,0.5,2.1,1,3,1.7
				c2,1.2,3.8,2.6,5.4,4.2l-6.2-2.9c-2-0.9-4-1.8-6.2-2.4l-6.4-2.1C52.7,138.6,50.6,137.9,48.5,137z"/>
		</g>
		<g class="st8">
			<path class="st0" d="M53.7,144c2.5,1.2,4.8,2.7,7.1,4.2c0.6,0.4,1.2,0.7,1.7,1.1c0.6,0.4,1.2,0.6,1.8,0.9
				c1.3,0.5,2.6,0.9,3.9,1.3c-1.4,0-2.8-0.2-4.1-0.6c-0.7-0.2-1.4-0.4-2-0.8c-0.6-0.3-1.2-0.7-1.8-1C58,147.5,55.8,145.9,53.7,144z"
				/>
		</g>
		<g class="st8">
			<path class="st0" d="M93.1,127.5c-0.1,2.1-0.3,4.2-0.4,6.3c-0.2,2.1-0.4,4.1-0.5,6.2c-0.1,1-0.1,2-0.1,3c0,1,0.2,2,0.3,3
				c0.3,2,0.8,4,1.4,6.1c-1.3-1.7-2.2-3.7-2.9-5.7c-0.3-1-0.5-2.1-0.7-3.2c-0.1-1.1-0.1-2.2,0-3.3c0.2-2.1,0.5-4.2,1-6.3
				C91.7,131.5,92.3,129.5,93.1,127.5z"/>
		</g>
		<g class="st8">
			<path class="st0" d="M95.4,141.1c0.9,2.1,1.5,4.2,2,6.3c0.5,2.1,0.9,4.3,1,6.5c-0.9-2.1-1.5-4.2-2-6.3
				C96,145.5,95.5,143.3,95.4,141.1z"/>
		</g>
		<g class="st8">
			<path class="st0" d="M77.1,166.3c2-0.6,4.1-0.8,6.2-0.8c2.1-0.1,4.2,0,6.3,0.3c2.1,0.2,4.1,0.7,6.2,1.3c2,0.6,4,1.4,5.8,2.5
				c-4.1-0.8-8.1-1.4-12.1-1.9C85.3,167.2,81.3,166.8,77.1,166.3z"/>
		</g>
		<g class="st8">
			<path class="st0" d="M80.1,170.5c1.3,0.2,2.6,0.4,3.8,0.7c1.3,0.2,2.5,0.5,3.8,0.7c0.6,0.1,1.2,0.2,1.9,0.2l1.9,0.1
				c1.3,0,2.6,0.1,3.9,0.2c-1.3,0.3-2.6,0.4-3.9,0.5c-0.7,0.1-1.3,0.1-2,0.1c-0.7,0-1.4-0.1-2-0.2C85,172.4,82.5,171.6,80.1,170.5z"
				/>
		</g>
		<g class="st8">
			<path class="st0" d="M210.6,30.4c2.3,0.2,4.5,0.5,6.8,1c2.2,0.5,4.4,1.1,6.6,1.8c2.2,0.8,4.3,1.8,6.2,3.1
				c1.9,1.2,3.8,2.6,5.4,4.3c-2-1-4-2.1-6-3.1c-2-1-4-1.9-6.1-2.6C219.1,33.4,214.8,32.1,210.6,30.4z"/>
		</g>
		<g class="st8">
			<path class="st0" d="M218.9,36.7c2.6,0.9,5,2,7.4,3.2c2.4,1.2,4.8,2.4,7.1,3.9c-2.6-0.9-5-2-7.4-3.1
				C223.5,39.5,221.1,38.2,218.9,36.7z"/>
		</g>
		<g class="st8">
			<path class="st0" d="M242,24.3c1.7,0.7,3.2,1.7,4.7,2.6c1.5,1,2.9,2.1,4.3,3.3c1.4,1.2,2.6,2.6,3.6,4.1c1,1.5,1.9,3.1,2.4,4.9
				c-1.2-1.4-2.4-2.7-3.5-4c-1.2-1.3-2.4-2.5-3.7-3.6l-4-3.5C244.6,26.8,243.3,25.6,242,24.3z"/>
		</g>
		<g class="st8">
			<path class="st0" d="M245,32.3c1,1.6,1.8,3.2,2.6,4.9c0.8,1.7,1.5,3.3,2.2,5c0.3,0.8,0.7,1.6,1.2,2.4l1.3,2.4
				c0.8,1.6,1.7,3.3,2.4,5c-1.3-1.3-2.5-2.8-3.6-4.3c-1.1-1.5-2.1-3.1-2.9-4.8c-0.7-1.7-1.4-3.4-1.9-5.2
				C245.8,35.9,245.3,34.1,245,32.3z"/>
		</g>
		<g class="st8">
			<path class="st0" d="M233.1,59.9c1.8-0.6,3.7-0.9,5.6-1c1.9-0.1,3.9,0,5.8,0.3c1.9,0.4,3.8,0.9,5.5,1.7c1.8,0.8,3.4,1.8,4.8,3.2
				c-1.8-0.8-3.5-1.4-5.3-1.9c-1.8-0.5-3.6-1-5.4-1.3c-1.8-0.3-3.6-0.5-5.5-0.7L233.1,59.9z"/>
		</g>
		<g class="st8">
			<path class="st0" d="M236.3,63.3c2.9,0.4,5.8,1.1,8.6,1.8c1.4,0.4,2.8,0.7,4.2,1.1c1.4,0.4,2.8,0.8,4.2,1.3
				c-1.5-0.2-2.9-0.4-4.4-0.6c-1.4-0.3-2.9-0.6-4.3-0.9C241.9,65.2,239.1,64.4,236.3,63.3z"/>
		</g>
		<g class="st8">
			<path class="st0" d="M271.5,47.6c0.2,2.8,0.2,5.6,0.3,8.4c0.1,2.8,0.1,5.5,0.2,8.3c0.1,2.8,0.4,5.4,0.9,8.1
				c0.6,2.7,1.3,5.3,2.5,7.8c-1.9-2.1-3.1-4.8-4-7.5c-0.4-1.4-0.7-2.8-1-4.2c-0.2-1.4-0.3-2.8-0.4-4.2c-0.1-2.8,0-5.6,0.2-8.4
				C270.5,53.1,270.9,50.4,271.5,47.6z"/>
		</g>
		<g class="st8">
			<path class="st0" d="M275.9,56.9c1.3,2.9,2.2,5.9,3.1,8.9c0.2,0.8,0.4,1.5,0.6,2.3c0.2,0.8,0.3,1.6,0.4,2.3
				c0.2,1.5,0.4,3.1,0.5,4.7c-0.5-1.5-0.8-3-1.2-4.6c-0.3-1.5-0.7-3-1.1-4.5C277.3,63,276.5,60,275.9,56.9z"/>
		</g>
		<g class="st8">
			<path class="st0" d="M251.2,78c1.8,0.5,3.6,1.2,5.3,1.9c1.7,0.8,3.4,1.6,5,2.5c1.6,0.9,3.2,2,4.6,3.3c1.4,1.3,2.7,2.6,3.8,4.2
				c-1.6-1-3.1-2-4.7-3c-1.5-1-3.1-1.9-4.7-2.8c-1.6-0.9-3.2-1.9-4.7-2.9C254.2,80.3,252.7,79.2,251.2,78z"/>
		</g>
		<g class="st8">
			<path class="st0" d="M283.2,119.9c-0.4-3-0.4-6-0.1-9c0.1-1.5,0.4-3,0.7-4.5c0.2-0.7,0.4-1.5,0.7-2.2c0.3-0.7,0.6-1.4,0.9-2.1
				c1.3-2.7,2.8-5.3,4.4-7.8c1.6-2.5,3.2-5,5.1-7.3c-1.2,2.8-2.4,5.4-3.8,8.1c-1.3,2.7-2.7,5.3-3.9,7.9c-0.3,0.7-0.6,1.3-0.9,2
				l-0.4,1l-0.3,1c-0.4,1.4-0.7,2.8-1,4.2C284,114.1,283.6,117,283.2,119.9z"/>
		</g>
		<g class="st8">
			<path class="st0" d="M295.8,93.7c-0.3,3.8-0.9,7.6-1.8,11.3c-0.2,0.9-0.5,1.9-0.8,2.8c-0.3,1-0.8,1.8-1.2,2.6
				c-0.8,1.7-1.7,3.4-2.7,5.1c0.6-1.8,1.3-3.6,2-5.4c0.3-0.9,0.8-1.8,1-2.6c0.3-0.9,0.5-1.8,0.7-2.7
				C294,101.1,294.8,97.4,295.8,93.7z"/>
		</g>
		<g class="st8">
			<path class="st0" d="M259.7,105.9c0.7,2.1,1.2,4.2,1.6,6.3c0.5,2.1,0.8,4.2,1.2,6.3c0.2,1,0.4,2.1,0.6,3.1
				c0.2,1.1,0.4,2.1,0.6,3.2c0.3,2.1,0.6,4.2,0.7,6.4c-0.9-2-1.6-4-2.2-6.1c-0.6-2.1-1.2-4.1-1.6-6.3c-0.4-2.1-0.6-4.3-0.7-6.4
				C259.6,110.3,259.5,108.1,259.7,105.9z"/>
		</g>
		<g class="st8">
			<path class="st0" d="M267,118.7c0.8,1.2,1.3,2.4,1.7,3.7c0.4,1.3,0.7,2.6,0.8,4.1c0,1.4-0.2,2.7-0.3,4c-0.2,1.3-0.5,2.6-0.9,3.9
				c-0.4-1.3-0.6-2.7-0.7-4c-0.1-1.3-0.1-2.7-0.1-3.9c0-1.2-0.2-2.5-0.3-3.8C267,121.4,267,120.1,267,118.7z"/>
		</g>
		<g class="st8">
			<path class="st0" d="M250.4,129.3c-0.4,2.2-1,4.3-1.6,6.5c-0.6,2.1-1.3,4.2-2,6.3c-0.4,1-0.6,2-0.8,3.1c-0.2,1-0.3,2.1-0.5,3.2
				c-0.3,2.2-0.6,4.4-0.9,6.6c-0.4-2.2-0.6-4.4-0.6-6.7c0-1.1,0.1-2.2,0.2-3.4c0.1-1.1,0.4-2.3,0.8-3.4c0.7-2.1,1.5-4.2,2.4-6.2
				C248.3,133.2,249.2,131.2,250.4,129.3z"/>
		</g>
		<g class="st8">
			<path class="st0" d="M251.9,141c0.1,1.4,0,2.8-0.1,4.2c-0.1,1.4-0.3,2.8-0.7,4.2c-0.5,1.3-1,2.6-1.5,3.9
				c-0.5,1.3-1.1,2.6-1.8,3.8c0.3-1.4,0.6-2.7,1-4.1c0.4-1.3,0.9-2.7,1.3-3.9c0.4-1.3,0.6-2.7,0.9-4
				C251.3,143.7,251.6,142.4,251.9,141z"/>
		</g>
		<g class="st8">
			<path class="st0" d="M266.6,151.7c1.3-2.4,2.9-4.6,5-6.5c1-1,2.1-1.8,3.4-2.5c0.6-0.4,1.3-0.6,2-0.9l1.9-0.6
				c2.6-0.8,5.1-1.6,7.7-2.3c2.6-0.7,5.2-1.3,7.9-1.8c-2.4,1.2-4.9,2.2-7.4,3.2c-2.5,1-5,1.8-7.6,2.7l-1.9,0.6l-0.9,0.3
				c-0.3,0.1-0.6,0.3-0.8,0.4c-1.1,0.6-2.2,1.3-3.3,2.1C270.4,147.9,268.5,149.8,266.6,151.7z"/>
		</g>
		<g class="st8">
			<path class="st0" d="M275.3,152.7c3-1.7,6.1-3.1,9.2-4.6c1.5-0.7,3-1.5,4.4-2.4c1.4-0.9,2.8-1.9,4.2-2.9
				c-1.2,1.3-2.4,2.4-3.8,3.5c-0.7,0.5-1.4,1-2.2,1.5c-0.8,0.4-1.5,0.8-2.3,1.2C281.7,150.5,278.6,151.7,275.3,152.7z"/>
		</g>
		<g class="st8">
			<path class="st0" d="M240.4,171c1.8-1.3,3.8-2.4,5.9-3.3c1-0.5,2.1-0.8,3.2-1.2c1.1-0.3,2.2-0.6,3.3-0.7c2.3-0.3,4.5-0.4,6.7-0.3
				c2.2,0.1,4.5,0.2,6.7,0.7c-2.2,0.4-4.4,0.6-6.6,0.8c-2.2,0.2-4.4,0.4-6.5,0.7c-2.1,0.3-4.2,0.8-6.3,1.4L240.4,171z"/>
		</g>
		<g class="st8">
			<path class="st0" d="M246.9,172.9c3.2-0.4,6.4-0.7,9.6-1.1c1.6-0.2,3.1-0.6,4.7-0.8c1.6-0.3,3.2-0.5,4.8-0.7
				c-1.5,0.5-3.1,1-4.6,1.4c-1.6,0.4-3.1,0.9-4.7,1.1C253.4,173.2,250.1,173.3,246.9,172.9z"/>
		</g>
	</g>
</g>
</svg>
