<?xml version="1.0" encoding="utf-8"?>
<!-- Generator: Adobe Illustrator 22.0.0, SVG Export Plug-In . SVG Version: 6.00 Build 0)  -->
<svg version="1.1" id="Ebene_1" xmlns="http://www.w3.org/2000/svg" xmlns:xlink="http://www.w3.org/1999/xlink" x="0px" y="0px"
	 viewBox="0 0 113.4 175.8" style="enable-background:new 0 0 113.4 175.8;" xml:space="preserve">
<style type="text/css">
	.st0{fill:#B8D7DD;}
	.st1{fill:#143439;}
	.st2{opacity:0.8;fill:#143439;}
	.st3{fill:#FFFFFF;}
	.st4{fill:#A1D7E4;}
	.st5{fill:#399FBF;}
	.st6{fill:#303B3F;}
	.st7{fill:#6EABC0;}
	.st8{opacity:0.3;fill:#588A9E;}
	.st9{fill:#BE1733;}
	.st10{fill:#97CED7;}
	.st11{fill:#5E8C9B;}
	.st12{fill:#465C61;}
	.st13{fill:#BD5D6D;}
	.st14{opacity:0.81;fill:#7DB9C9;}
	.st15{opacity:0.7;fill:#7DB9C9;}
	.st16{opacity:0.33;fill:#588A9E;}
	.st17{opacity:0.9;}
	.st18{clip-path:url(#SVGID_2_);}
	.st19{fill:#020203;}
	.st20{clip-path:url(#SVGID_2_);fill:#FFFFFF;}
	.st21{clip-path:url(#SVGID_2_);fill:#020203;}
	.st22{opacity:0.6;clip-path:url(#SVGID_2_);}
	.st23{opacity:0.11;clip-path:url(#SVGID_2_);}
	.st24{clip-path:url(#SVGID_4_);fill:none;stroke:#182326;stroke-width:0.66;stroke-miterlimit:10;}
	.st25{opacity:0.8;fill:#FFFFFF;stroke:#8B9C9F;stroke-linecap:round;stroke-linejoin:round;stroke-miterlimit:10;}
	.st26{opacity:0.4;fill:#1E535F;}
	.st27{fill:#FFFFFF;stroke:#8B9C9F;stroke-width:0.5241;stroke-linecap:round;stroke-linejoin:round;stroke-miterlimit:10;}
	.st28{opacity:0.7;fill:#C8D4D6;}
	
		.st29{opacity:0.74;fill:#FFFFFF;stroke:#8B9C9F;stroke-width:0.3931;stroke-linecap:round;stroke-linejoin:round;stroke-miterlimit:10;}
	.st30{opacity:0.58;fill:#C8D4D6;}
	
		.st31{opacity:0.46;fill:#FFFFFF;stroke:#8B9C9F;stroke-width:0.8246;stroke-linecap:round;stroke-linejoin:round;stroke-miterlimit:10;}
	.st32{opacity:0.66;fill:#8B9C9F;}
	.st33{opacity:0.8;fill:none;stroke:#49B697;stroke-width:2.4215;stroke-linecap:round;stroke-miterlimit:10;}
	.st34{opacity:0.8;fill:none;stroke:#49B697;stroke-width:2;stroke-linecap:round;stroke-miterlimit:10;}
	.st35{opacity:0.44;fill:#8B9C9F;}
	.st36{fill:#FFFFFF;stroke:#8B9C9F;stroke-width:1.4711;stroke-linecap:round;stroke-linejoin:round;stroke-miterlimit:10;}
	.st37{opacity:0.69;fill:none;stroke:#FFFFFF;stroke-width:1.4711;stroke-miterlimit:10;}
</style>
<g>
	<path class="st0" d="M84.8,153.6H31.5c-5.5,0-10-4.5-10-10V30.9c0-5.5,4.5-10,10-10h53.3c5.5,0,10,4.5,10,10v112.7
		C94.8,149.1,90.3,153.6,84.8,153.6z"/>
	<path class="st1" d="M84.8,155.1L35.5,155l-3.1,0c-1,0-2.3,0-3.4-0.3c-2.3-0.5-4.4-1.8-6-3.5c-1.6-1.7-2.6-4-2.8-6.3
		c-0.1-1.2-0.1-2.2-0.1-3.2l0-3.1l0.1-24.7l0.2-49.3l0-24.7l0-6.2c0-1,0-2,0-3.1c0-1.1,0.3-2.2,0.6-3.3c0.7-2.1,2.2-4,4-5.3
		c0.9-0.6,1.9-1.2,3-1.5c1.1-0.3,2.2-0.5,3.3-0.5l49.3-0.1l3.1,0c1,0,2.2,0,3.3,0.3c2.2,0.5,4.3,1.7,5.8,3.4
		c1.5,1.7,2.5,3.8,2.8,6.1c0.1,1.2,0.1,2.2,0.1,3.2l0,3.1l0.1,24.7l0.2,49.3l0,24.7l0,6.2c0,1,0,2,0,3.1c0,1.2-0.3,2.4-0.6,3.5
		c-0.8,2.2-2.3,4.2-4.2,5.6c-1,0.7-2,1.2-3.2,1.6C87.2,154.9,86,155,84.8,155.1z M84.8,152.1c0.9,0,1.7-0.1,2.6-0.4
		c0.8-0.3,1.6-0.7,2.3-1.2c1.4-1,2.6-2.5,3.1-4.1c0.3-0.8,0.5-1.7,0.5-2.6c0-0.9,0-2,0-3l0-6.2l0-24.7l0.2-49.3l0.1-24.7l0-3.1
		c0-1,0-2.1-0.1-3c-0.2-1.8-1-3.6-2.2-4.9c-1.2-1.4-2.9-2.3-4.7-2.8c-0.9-0.2-1.8-0.2-2.8-0.2l-3.1,0l-49.3-0.1
		c-0.9,0-1.9,0.2-2.7,0.4c-0.9,0.3-1.7,0.7-2.5,1.3c-1.5,1.1-2.7,2.6-3.3,4.4c-0.3,0.9-0.5,1.8-0.5,2.7c0,1,0,2,0,3.1l0,6.2l0,24.7
		l0.2,49.3l0.1,24.7l0,3.1c0,1,0,2.1,0.1,2.9c0.2,1.8,1,3.5,2.2,4.8c1.2,1.3,2.8,2.2,4.5,2.6c0.9,0.2,1.7,0.2,2.8,0.2l3.1,0
		L84.8,152.1z"/>
</g>
<path class="st2" d="M84.2,149.7h-52c-3.9,0-7-3.2-7-7V31.4c0-3.9,3.2-7,7-7h52c3.9,0,7,3.1,7,7v111.3
	C91.2,146.6,88,149.7,84.2,149.7z"/>
<rect x="26.6" y="43.9" class="st3" width="62.8" height="88.8"/>
<rect x="26.6" y="43.9" class="st4" width="62.8" height="32.1"/>
<g>
	<circle class="st5" cx="57.7" cy="60.2" r="13.8"/>
	<path class="st6" d="M64.9,58.4l0.4,0.9c0,0,2.9-0.1,2.6-0.6C67.6,58.3,64.9,58.4,64.9,58.4z"/>
	<path class="st7" d="M45,65.4c0,0-2.2-5.5,0-10.4c1.9-4.3,4.7-5.8,4.7-5.8s1.2,0.2,1.9,0.3c0.8,0.2,2.4,0.7,2.4,0.7s6.3,2.1,8.9,5
		c2.1,2.3,2.2,4.3,2.4,5.2c0.2,0.8,0,4.1,0,4.1s3,2.3,3.6,3.1c0.6,0.7,1.4,1.4,1,2C69.5,70,66.6,70,66.6,70l0.3,0.8
		c0,0-1.2,1.1-2.7,1c-1.5-0.1-5.5-1.4-6.5-2s-3.1-1.6-3.1-1.6s-0.3,1-0.8,1.3c-0.5,0.3-1.3,0.5-1.6,0.4c-0.2-0.1,0.3-1.1,0.2-1.6
		c0-0.5-0.6-1.4-0.6-1.4l-1.7-0.3l-5.6-1.2"/>
	<path class="st8" d="M56.6,52.1c0,0,0.1,1.8,1.2,3c0.4,0.5,1.2,0.8,1.2,0.8s0.7,2.4,2.3,3.4s3.2,0.7,3.2,0.7s0.2,1.5,0.2,2.5
		c0,0.6-0.2,1.7-0.2,1.7l0.9,0.4c0,0,0.4-1.8,0.3-3.2c-0.1-1.2-0.6-2.9-0.6-2.9s-2.4,0.3-3.4-0.3c-1-0.7-2.3-3.2-2.3-3.2L56.6,52.1z
		"/>
	<path class="st9" d="M56.7,52.1c0,0,0.4,1.1,0.7,1.5c0.7,0.9,1.4,1.2,1.4,1.2s1.1-3.3,2-3.8s1.6-0.4,2.3-0.4
		c1.1,0.1,2.1,0.6,2.1,0.6l-1.5-1.3c0,0-0.2-0.9-0.7-0.9s-1,0.3-1,0.3s-1.6-0.7-3.5,0.2C57.2,50.1,56.7,52.1,56.7,52.1z"/>
	<path class="st10" d="M69.9,69.3c-0.5,0.1-4,0.4-7.4-1.4c-3.8-2.1-3.7-3.8-4.9-4.9c-1.5-1.3-4.2-0.8-5.6-0.8
		c-3.7-0.1-4.3-0.8-8-1.1c-0.2,0,1,4.5,1,4.5s5.1,0.6,6.8,1.3c1.7,0.8,6.4,3.2,8.4,4s3.6,1,4.6,0.9c1-0.1,2.1-1,2.1-1L66.3,70
		c0,0,0.9,0.2,2,0.1c1.4-0.1,1.5-0.7,1.5-0.7"/>
	<path class="st11" d="M61.2,68.1c0,0,1.3,0.9,2.6,1.3c1.4,0.3,2.7,1,2.9,1.1c0.1,0.2-1.2,0.1-2.2-0.1c-1-0.2-2-0.4-2-0.4L61.2,68.1
		"/>
	<path class="st12" d="M59.6,55.1c0,0,0.9,2.5,2.2,3.2c1.3,0.7,2.6,0.2,3.5,0.2c1.3,0,2.4,0.2,2.4,0.2l-2.2-2.4c0,0-1.1,0.2-2.7,0
		C61.2,55.9,59.6,55.1,59.6,55.1z"/>
	<path class="st3" d="M58.9,54.6c0,0,1.6,1.3,3.5,1.5c1.9,0.2,3,0,3,0s1-3,0.6-3.7c-0.4-0.7-0.6-1-0.6-1s-2.4-1.3-4.3-0.5
		C59.8,51.4,58.9,54.6,58.9,54.6z"/>
	<path class="st13" d="M56.6,63.4c0,0-0.1,2.7,1.7,4.2C60,69,62.7,70,62.7,70s0.2-1.3-2.4-2.3c-1.2-0.5-2.6-2.3-3-2.9
		C56.9,64.2,56.6,63.4,56.6,63.4z"/>
	<path class="st14" d="M63,63.7c0,0,1.6,0.2,4,2.1c1.8,1.4,2.8,2.8,2.9,3.3c0.1,0.8-0.5,0.9-0.5,0.9s-0.4-1-1.4-2.1
		C66.4,65.9,63,63.7,63,63.7z"/>
	<path class="st15" d="M49.7,49.3L48,50.7c0,0,1-0.1,4.2,0.5c3,0.6,4.4,1.4,4.4,1.4l0.4-1.4l-4-1.4"/>
	<path class="st16" d="M45,65.4l1.2,0.1c0,0-2.2-5.1-0.2-10.1c1.6-4.3,4.3-6,4.3-6s-0.2,0-0.4,0c-0.9,0-0.7,0.3-0.7,0.3
		s-2.6,1.3-3.9,4.7c-1,2.7-1.3,4.6-1.4,6.3c-0.1,1.6,0.8,4.9,0.8,4.9"/>
	<g class="st17">
		<path class="st3" d="M58.4,61c-0.2,0.5-0.7,0.6-1.2,0.4c-0.5-0.2-0.7-0.8-0.5-1.2c0.2-0.5,0.8-0.6,1.3-0.4
			C58.4,60,58.6,60.4,58.4,61z"/>
	</g>
	<g class="st17">
		<path class="st3" d="M65.3,62.6c0,0.4-0.3,0.8-0.9,0.7c-0.4-0.1-0.8-0.5-0.7-1c0.1-0.4,0.6-0.7,1.1-0.5
			C65.2,62,65.3,62.2,65.3,62.6z"/>
	</g>
	<g>
		<defs>
			<circle id="SVGID_1_" cx="57.6" cy="60.2" r="13.7"/>
		</defs>
		<clipPath id="SVGID_2_">
			<use xlink:href="#SVGID_1_"  style="overflow:visible;"/>
		</clipPath>
		<g class="st18">
			<path class="st19" d="M26.7,70.6c0.3-2.5,1-5,2-7.3c1-2.3,2.4-4.5,4.1-6.4c1.7-1.9,3.8-3.4,6-4.6c2.3-1.2,4.7-2,7.2-2.3l0,0.5
				c-2.4,0.3-4.8,1.2-7,2.3c-1.1,0.6-2.1,1.3-3.1,2c-1,0.8-1.9,1.6-2.7,2.5c-1.7,1.8-3,3.9-4,6.2c-1,2.3-1.7,4.7-2,7.2L26.7,70.6z"
				/>
		</g>
		<g class="st18">
			<path class="st19" d="M49.1,49.1c2.2,0,4.3,0.5,6.3,1.2c2,0.8,3.9,1.8,5.7,3c0.9,0.6,1.7,1.3,2.5,2.1c0.7,0.8,1.3,1.8,1.7,2.8
				c0.8,2.1,0.8,4.3,0.2,6.4L65,64.5c0.5-2,0.5-4.2-0.3-6.1c-0.7-1.9-2.3-3.4-4-4.6c-1.7-1.2-3.6-2.2-5.5-3c-1-0.4-2-0.7-3-0.9
				c-1-0.2-2.1-0.4-3.1-0.4L49.1,49.1z"/>
		</g>
		<g class="st18">
			<path class="st19" d="M30.9,71.1c0.8-1.3,1.9-2.2,3.1-3c1.2-0.8,2.5-1.5,3.8-2c1.3-0.5,2.7-0.8,4.2-1c1.4-0.2,2.9-0.2,4.3,0.1
				l-0.2,0.7c-1.3-0.3-2.7-0.2-4.1-0.1c-1.4,0.2-2.7,0.5-4,1c-1.3,0.5-2.6,1-3.7,1.8c-1.1,0.8-2.2,1.7-3,2.8L30.9,71.1z"/>
		</g>
		<g class="st18">
			<path class="st19" d="M27,70.7c-1.2,0.1-2.4,0.6-3.3,1.4c-0.9,0.8-1.7,1.8-2.4,2.9c-0.3,0.5-0.6,1.1-0.9,1.7l-0.2,0.4l-0.1,0.2
				c0,0,0,0.1,0,0.1l0,0c0,0,0,0,0-0.1c-0.1-0.1-0.2-0.1-0.2-0.1c0,0,0,0,0,0c0,0,0,0,0,0l0.8-0.5c1.1-0.7,2.3-1.3,3.5-1.7
				c1.3-0.4,2.6-0.5,3.9-0.4c1.3,0.2,2.7,0.7,3.5,1.8c0.2,0.3,0.4,0.6,0.5,0.9c0,0,0,0,0,0c0,0,0,0,0,0c0,0-0.1,0-0.1,0
				c-0.1,0,0,0,0,0c0,0,0,0,0,0l0-0.1l0-0.2c0-0.2,0-0.3,0.1-0.5c0-0.6,0-1.3,0-1.9c0-0.6-0.1-1.2-0.3-1.8c-0.2-0.6-0.4-1.2-0.8-1.5
				l0.2-0.4c0.7,0.5,0.9,1.1,1.1,1.7c0.2,0.6,0.3,1.3,0.3,2c0,0.7-0.1,1.3-0.2,1.9L32.1,77l-0.1,0.2c0,0,0,0.1,0,0.1c0,0,0,0,0,0.1
				c0,0,0,0-0.1,0.1c0,0-0.1,0-0.2,0c0,0,0,0,0,0c0,0-0.1-0.1-0.1-0.1c-0.1-0.3-0.3-0.6-0.5-0.8c-0.8-1-2.1-1.3-3.3-1.5
				c-1.2-0.1-2.5,0-3.7,0.3c-1.2,0.3-2.4,0.9-3.4,1.6l-0.8,0.5c0,0,0,0-0.1,0c0,0,0,0-0.1,0c0,0-0.1,0-0.2-0.1c-0.1-0.1,0-0.1,0-0.1
				l0,0c0-0.1,0-0.1,0-0.2l0.1-0.2l0.2-0.5c0.3-0.6,0.6-1.2,0.9-1.7c0.7-1.1,1.4-2.2,2.5-3c1.1-0.8,2.3-1.4,3.7-1.4L27,70.7z"/>
		</g>
		<path class="st20" d="M56.4,52.4l1.1-1.6c0,0,3.3,1.2,5.3,3c1.1,1,2.8,4.6,2.8,4.6L64,58.7c0,0-2.4-3.2-3.5-3.8
			C59.4,54.3,56.4,52.4,56.4,52.4z"/>
		
			<ellipse transform="matrix(0.1574 -0.9875 0.9875 0.1574 -11.4626 107.8544)" class="st21" cx="57.5" cy="60.6" rx="0.7" ry="0.5"/>
		
			<ellipse transform="matrix(0.1717 -0.9852 0.9852 0.1717 -8.2511 115.2866)" class="st21" cx="64.4" cy="62.5" rx="0.6" ry="0.4"/>
		<g class="st18">
			<path class="st19" d="M56.6,60.2c0.1-0.2,0.2-0.4,0.4-0.5c0.2-0.1,0.4-0.1,0.6-0.1c0.2,0,0.4,0.1,0.6,0.3
				c0.2,0.1,0.3,0.4,0.3,0.6c-0.1-0.2-0.2-0.3-0.4-0.4c-0.2-0.1-0.3-0.2-0.5-0.2C57.2,59.8,56.9,59.9,56.6,60.2z"/>
		</g>
		<g class="st18">
			<path class="st19" d="M63.9,62c0.2-0.3,0.6-0.4,1-0.3c0.2,0.1,0.4,0.2,0.4,0.3c0.1,0.2,0.1,0.4,0,0.5c0-0.4-0.2-0.6-0.5-0.7
				C64.5,61.8,64.2,61.8,63.9,62z"/>
		</g>
		<g class="st22">
			<path class="st19" d="M56.4,59c0.4-0.3,0.9-0.3,1.4-0.2c0.4,0.2,0.8,0.4,1.1,0.8l-0.1,0.1c-0.3-0.3-0.7-0.5-1.1-0.6
				c-0.4-0.2-0.8-0.1-1.2,0L56.4,59z"/>
		</g>
		<g class="st18">
			<path class="st19" d="M55.8,63.8c0.1-0.4,0.4-0.5,0.8-0.6c0.3,0,0.7,0,0.9,0.3c-0.3,0-0.6,0-0.9,0.1
				C56.3,63.6,56.1,63.6,55.8,63.8z"/>
		</g>
		<g class="st18">
			<path class="st19" d="M62.6,70.1c0-0.5-0.3-0.9-0.7-1.3c-0.3-0.3-0.8-0.5-1.2-0.7l0-0.2c0.5,0.1,1,0.3,1.4,0.7
				c0.2,0.2,0.3,0.4,0.4,0.7C62.7,69.6,62.7,69.9,62.6,70.1z"/>
		</g>
		<g class="st18">
			<path class="st19" d="M54.9,68c-0.1,0.6-0.4,1.1-0.8,1.5c-0.5,0.3-1,0.6-1.6,0.6c-0.1,0-0.2,0-0.3-0.1c-0.2-0.2-0.1-0.3-0.1-0.4
				c0-0.2,0.1-0.3,0.1-0.4c0.1-0.3,0.1-0.5,0.1-0.7c0-0.4-0.2-1.1-0.4-1.3l0.5-0.4c0.2,0.3,0.2,0.6,0.3,0.9c0,0.3,0.1,0.5,0.1,0.9
				c0,0.3-0.1,0.6-0.2,0.8c0,0.1-0.1,0.3-0.1,0.4c0,0.1,0,0.1-0.1,0c0,0,0.1,0,0.1,0c0.5,0,1-0.3,1.4-0.6c0.4-0.3,0.6-0.8,0.7-1.3
				L54.9,68z"/>
		</g>
		<g class="st18">
			<path class="st19" d="M65.2,59.1c0.5,0.1,1.1,0.1,1.6,0c0.3,0,0.5-0.1,0.8-0.2c0.1,0,0.2-0.1,0.3-0.2c0,0.1-0.1,0-0.2-0.1
				c-1-0.2-2.2-0.2-3.2,0c-0.5,0.1-1.1,0.1-1.7,0.1c-0.6-0.1-1.2-0.3-1.6-0.7c-0.9-0.8-1.5-1.8-1.8-2.9l0,0l0.1,0.1
				c-0.7-0.4-1.2-0.8-1.8-1.3c-0.5-0.6-0.9-1.2-1.1-1.9l0,0l0-0.1l0-0.1c0.3-0.5,0.6-1,0.9-1.5c0.4-0.5,0.8-0.9,1.3-1.2
				c0.6-0.3,1.2-0.3,1.8-0.3c0.6,0,1.2,0.1,1.7,0.3l0,0l-0.2,0.1c0.2-0.4,0.8-0.5,1.2-0.4c0.4,0.1,0.8,0.5,0.7,1l0,0l-0.1-0.2
				c0.5,0.3,1,0.7,1.4,1.1c0.2,0.2,0.4,0.5,0.6,0.7c0.2,0.3,0.3,0.6,0.3,0.9c0.1,0.6,0,1.2,0,1.8c-0.1,0.6-0.2,1.2-0.4,1.8l0,0
				l0-0.2l2.4,2.7l-0.2,0.2l-2.5-2.5l-0.1-0.1l0-0.1l0,0c0.2-0.5,0.4-1.1,0.5-1.7c0.1-0.6,0.2-1.2,0.1-1.7c0-0.3-0.1-0.5-0.3-0.8
				c-0.1-0.2-0.3-0.5-0.5-0.7c-0.4-0.4-0.8-0.8-1.3-1.1l-0.1-0.2l0,0c0-0.3-0.2-0.5-0.5-0.6c-0.1-0.1-0.3-0.1-0.4-0.1
				c-0.1,0-0.3,0.1-0.4,0.2l-0.1,0.1l-0.1,0l0,0c-0.5-0.2-1.1-0.3-1.6-0.3c-0.5,0-1.1,0.1-1.6,0.3c-0.5,0.3-0.8,0.7-1.2,1.1
				c-0.3,0.5-0.6,0.9-0.9,1.4l0-0.1l0,0c0.2,0.6,0.6,1.3,1.1,1.7c0.5,0.5,1.1,0.9,1.7,1.3l0.1,0.1l0,0.1l0,0c0.3,1,0.9,2,1.7,2.7
				c0.8,0.7,1.9,0.7,3,0.6c1.1-0.1,2.2-0.2,3.4,0.1c0.1,0,0.1,0,0.2,0.1c0,0,0.1,0,0.1,0.1c0,0.1,0,0.2,0,0.2
				c-0.1,0.2-0.3,0.2-0.4,0.3c-0.3,0.1-0.5,0.2-0.8,0.2c-0.6,0.1-1.1,0.1-1.7,0L65.2,59.1z"/>
		</g>
		<g class="st18">
			<path class="st19" d="M59.6,55c1,0.4,1.9,0.8,2.9,1c0.5,0.1,1,0.2,1.5,0.2c0.5,0,1,0,1.5-0.1l0.1,0.1c-0.5,0.2-1.1,0.2-1.6,0.2
				c-0.5,0-1.1-0.1-1.6-0.2c-1-0.2-2-0.6-3-1L59.6,55z"/>
		</g>
		<g class="st18">
			<path class="st19" d="M58.8,54.6c0.2-0.7,0.5-1.5,0.9-2.1c0.2-0.3,0.4-0.7,0.6-1c0.2-0.3,0.6-0.6,1-0.7c0.8-0.3,1.6-0.2,2.3-0.1
				c0.8,0.1,1.5,0.4,2.1,0.8l-0.1,0.1c-0.6-0.4-1.4-0.7-2.1-0.8c-0.7-0.1-1.5-0.2-2.2,0.1c-0.7,0.2-1.1,0.9-1.4,1.6
				c-0.3,0.7-0.6,1.4-0.8,2.1L58.8,54.6z"/>
		</g>
		<g class="st23">
			<path class="st19" d="M63.6,50.7c0.3,0.4,0.6,0.8,0.8,1.3c0.2,0.5,0.1,1,0.1,1.5c-0.2,1-0.5,1.9-0.8,2.8l-0.2-0.1
				c0.4-0.9,0.7-1.8,0.8-2.8c0.1-0.5,0.1-1,0-1.4C64.2,51.5,63.9,51.1,63.6,50.7L63.6,50.7z"/>
		</g>
		<g class="st22">
			<path class="st19" d="M64,61.1c0.3-0.1,0.6-0.1,0.9-0.1c0.2,0,0.3,0.1,0.4,0.2c0.1,0.1,0.3,0.2,0.3,0.4l-0.2,0.1
				c-0.1-0.2-0.4-0.3-0.6-0.3c-0.2-0.1-0.5,0-0.8,0L64,61.1z"/>
		</g>
	</g>
	<g>
		<defs>
			<path id="SVGID_3_" d="M40.7,44v31.8h33V44H40.7z M66,71.5c-0.6,0.2-1.9,0.2-1.9,0.2l1.7-1.8c0,0,1,0.6,1.1,0.7
				C67.2,70.7,66.6,71.2,66,71.5z M69.8,69.7c-0.4,0.7-3.2,0.4-3.2,0.4l2.3-2.7C68.8,67.4,70.2,69,69.8,69.7z"/>
		</defs>
		<clipPath id="SVGID_4_">
			<use xlink:href="#SVGID_3_"  style="overflow:visible;"/>
		</clipPath>
		<circle class="st24" cx="57.6" cy="60.2" r="13.7"/>
	</g>
	<g>
		<path class="st19" d="M65.7,69.7c0.6,0.2,1.1,0.4,1.5,0.7c0.1,0.1,0.1,0.2,0.1,0.3c0,0.1-0.1,0.1-0.2,0.1c-1.2,0-2.4-0.1-3.6-0.3
			c-1.2-0.3-2.3-0.7-3.3-1.3c-1-0.6-2-1.3-2.8-2.3c-0.8-0.9-1.2-2.1-1.2-3.4l0.3,0c0,1.1,0.4,2.3,1.1,3.2c0.7,0.9,1.7,1.6,2.7,2.2
			c1,0.6,2.1,1,3.2,1.3c1.1,0.2,2.3,0.3,3.5,0.3l-0.1,0.4c-0.5-0.3-0.9-0.5-1.4-0.7L65.7,69.7z"/>
	</g>
	<g>
		<path class="st19" d="M50.5,66c0.7,0.3,1.4,0.5,2.1,0.8c0.7,0.3,1.4,0.6,2.1,1c1.3,0.7,2.7,1.5,4,2.1c1.4,0.6,2.8,1.1,4.2,1.3
			c1.4,0.2,3.1,0.3,4-0.8l0.4,0.2c-0.5,0.7-1.3,1.1-2.1,1.2c-0.8,0.1-1.6,0-2.3-0.1c-1.5-0.2-3-0.8-4.4-1.4c-1.4-0.6-2.7-1.4-4-2.1
			c-1.3-0.7-2.7-1.2-4.2-1.6L50.5,66z"/>
	</g>
	<g>
		<path class="st19" d="M57,63.4c0.2,0.9,0.8,1.8,1.5,2.5c0.7,0.7,1.5,1.3,2.4,1.8c1.7,1,3.6,1.7,5.6,2c1,0.1,2,0.3,2.9-0.1
			c0.2-0.1,0.3-0.2,0.3-0.3c0-0.2-0.1-0.4-0.2-0.6c-0.2-0.4-0.5-0.8-0.9-1.2c-0.7-0.7-1.4-1.4-2.2-2c-0.8-0.6-1.7-1.1-2.5-1.7
			c1,0.2,1.9,0.7,2.8,1.3c0.8,0.6,1.6,1.3,2.3,2c0.3,0.4,0.7,0.8,1,1.2c0.1,0.2,0.3,0.5,0.2,0.9c0,0.2-0.1,0.3-0.2,0.5
			c-0.1,0.1-0.3,0.2-0.4,0.3c-1.1,0.4-2.1,0.2-3.1,0.1c-2-0.4-4-1.1-5.7-2.1c-0.9-0.5-1.7-1.1-2.4-1.9c-0.7-0.8-1.3-1.6-1.5-2.7
			L57,63.4z"/>
	</g>
	<g>
		<path class="st10" d="M46.3,64.8c0,0-0.2,1.6-1.2,2.9c-1.3,1.6-3.6,2.5-3.4,2.9c0.2,0.5,4.2,0,6.8-2c1.7-1.3,2.5-2.8,2.5-2.8"/>
		<path class="st19" d="M46.3,64.8c0,0.8-0.2,1.6-0.6,2.3c-0.4,0.7-1,1.3-1.6,1.8c-0.6,0.5-1.3,0.9-2,1.3c-0.1,0.1-0.2,0.1-0.2,0.2
			c-0.1,0-0.1,0.2-0.1,0.1c-0.1-0.1,0,0,0.1,0c0.1,0,0.2,0,0.3,0c0.4,0,0.7,0,1.1-0.1c1.5-0.3,3-0.8,4.3-1.6
			c1.3-0.8,2.4-1.9,3.4-3.1c-0.6,1.5-1.8,2.7-3.1,3.6c-1.4,0.9-2.9,1.4-4.5,1.6c-0.4,0.1-0.8,0.1-1.2,0.1c-0.1,0-0.2,0-0.3,0
			c-0.1,0-0.3,0-0.4-0.3c0-0.3,0.2-0.3,0.2-0.4c0.1-0.1,0.2-0.1,0.2-0.2c0.7-0.5,1.3-0.9,1.9-1.4C45.1,67.6,45.8,66.3,46.3,64.8
			L46.3,64.8z"/>
	</g>
	<path class="st8" d="M65.3,70.5c0,0-1.1,0.8-5-0.5c-2.3-0.7-3.2-1.8-5.1-2.9c-2.4-1.4-4.7-2.1-4.7-2.1s0,0,0,0c0,0,0,0,0,0
		c-0.1,0.1-1.2,1.9-2.9,3.2c-0.3,0.2-0.5,0.4-0.8,0.6c-2,1.2-5.2,1.8-5.2,1.8s1.1,0.1,2.5-0.1c-0.1,0-0.1,0.1-0.1,0.1s2,0,4.4-1.9
		c1.7-1.3,2.2-2.3,2.2-2.3l2.9,1.1c0,0,2,1.1,3.8,1.9s4.3,2,6.6,2.2c2.3,0.2,3.1-0.8,3.1-0.8L65.3,70.5z"/>
</g>
<circle class="st1" cx="58.5" cy="141.1" r="2.5"/>
<rect x="29.9" y="79.6" class="st3" width="56.8" height="5.2"/>
<line class="st25" x1="73.1" y1="104.9" x2="83.7" y2="104.9"/>
<line class="st25" x1="73.1" y1="113.7" x2="83.7" y2="113.7"/>
<line class="st25" x1="73.1" y1="109.2" x2="86.8" y2="109.2"/>
<rect x="72.9" y="119.9" class="st26" width="14.8" height="3"/>
<path class="st27" d="M69.4,127.4H31c-0.5,0-0.8-0.4-0.8-0.8V90.2c0-0.5,0.4-0.8,0.8-0.8h38.4c0.5,0,0.8,0.4,0.8,0.8v36.4
	C70.2,127.1,69.8,127.4,69.4,127.4z"/>
<path class="st4" d="M69.9,93.4H30.4v-2.9c0-0.5,0.4-0.8,0.8-0.8h37.8c0.5,0,0.8,0.4,0.8,0.8V93.4z"/>
<circle class="st28" cx="68" cy="91.4" r="0.9"/>
<line class="st29" x1="68.8" y1="100.7" x2="31.6" y2="100.7"/>
<rect x="34.9" y="103.9" class="st30" width="6.9" height="6.9"/>
<rect x="46.3" y="103.9" class="st30" width="6.9" height="6.9"/>
<rect x="57.7" y="103.9" class="st30" width="6.9" height="6.9"/>
<line class="st31" x1="35.1" y1="113.8" x2="41.8" y2="113.8"/>
<line class="st31" x1="35.1" y1="116.1" x2="42.9" y2="116.1"/>
<line class="st31" x1="35.1" y1="118.4" x2="40.5" y2="118.4"/>
<rect x="34.9" y="122.3" class="st32" width="6" height="1.6"/>
<line class="st31" x1="46.5" y1="113.8" x2="52.1" y2="113.8"/>
<line class="st31" x1="46.5" y1="116.1" x2="54.5" y2="116.1"/>
<line class="st31" x1="46.5" y1="118.4" x2="51.7" y2="118.4"/>
<rect x="46.3" y="122.3" class="st32" width="6" height="1.6"/>
<line class="st31" x1="57.9" y1="113.8" x2="65.6" y2="113.8"/>
<line class="st31" x1="57.9" y1="116.1" x2="63.7" y2="116.1"/>
<line class="st31" x1="57.9" y1="118.4" x2="66.2" y2="118.4"/>
<rect x="57.7" y="122.3" class="st32" width="6" height="1.6"/>
<line class="st33" x1="37" y1="97.2" x2="62.3" y2="97.2"/>
<line class="st34" x1="74" y1="97.4" x2="84.5" y2="97.4"/>
<rect x="29.9" y="79.6" class="st35" width="35.7" height="5.2"/>
<line class="st36" x1="33.3" y1="82.2" x2="56.4" y2="82.2"/>
<rect x="65.8" y="79.6" class="st5" width="20.9" height="5.2"/>
<line class="st37" x1="69.6" y1="82.2" x2="82.9" y2="82.2"/>
</svg>
