<?xml version="1.0" encoding="utf-8"?>
<!-- Generator: Adobe Illustrator 22.0.0, SVG Export Plug-In . SVG Version: 6.00 Build 0)  -->
<svg version="1.1" id="Ebene_1" xmlns="http://www.w3.org/2000/svg" xmlns:xlink="http://www.w3.org/1999/xlink" x="0px" y="0px"
	 viewBox="0 0 201.2 205.5" style="enable-background:new 0 0 201.2 205.5;" xml:space="preserve">
<style type="text/css">
	.st0{fill:#2E636C;}
	.st1{fill:#3A7B85;}
	.st2{fill:#B8D7DD;}
	.st3{fill:#4F979E;}
	.st4{fill:#47B3CC;}
	.st5{fill:#92B8BD;}
	.st6{opacity:0.6;}
	.st7{fill:#6EABC0;}
	.st8{fill:#97CED7;}
	.st9{fill:#BE1733;}
	.st10{fill:#45575C;}
	.st11{fill:#FFFFFF;}
	.st12{fill:#303B3F;}
	.st13{fill:#CC6072;}
	.st14{fill:#A04D60;}
	.st15{fill:#7DB9C9;}
	.st16{opacity:0.5;fill:#A4D4E0;}
	.st17{opacity:0.5;fill:#588A9E;}
	.st18{opacity:0.63;fill:#588A9E;}
	.st19{opacity:0.38;fill:#588A9E;}
	.st20{fill:#020203;}
	.st21{opacity:0.7;}
	.st22{opacity:0.11;}
	.st23{fill:#143439;}
	.st24{fill:none;stroke:#143439;stroke-width:1.2489;stroke-miterlimit:10;}
	.st25{fill:#47B3CC;stroke:#143439;stroke-width:0.5738;stroke-miterlimit:10;}
	.st26{fill:none;}
	.st27{fill:none;stroke:#143439;stroke-miterlimit:10;}
</style>
<polygon class="st0" points="110,43.7 110,178.2 174.5,144 174.9,89.1 168.3,87 175.8,83.2 174.9,26.2 "/>
<path class="st1" d="M37.4,162.3l72.6,15.8v-66.8V43.7c0,0-73.5-8.7-74.1-9c-0.6-0.2,1.2,63.5,1.2,63.5l8.3,1.6l-7.8,2.6L37.4,162.3
	z"/>
<polygon class="st2" points="39.1,167 37.3,167.4 36.2,172 110.8,189.6 109.4,183.6 "/>
<path class="st3" d="M49,35.9l60.6,7.8c0.3,0,0.5,0,0.8-0.1l55.9-15.3c14.2-3,3.9-3.8,1.7-4l-60.1-5.1c-0.2,0-0.4,0-0.6,0L42.2,31.8
	C35.8,33.1,33.7,34.3,49,35.9z"/>
<polygon class="st1" points="176,88.1 170.2,85.6 109.8,112.2 109.6,118.2 "/>
<polygon class="st4" points="70.9,57.4 70.9,60.6 106.9,66.2 106.7,62.9 "/>
<polygon class="st4" points="70.7,73.5 70.7,76.6 106.1,82.6 106.5,78.9 "/>
<polygon class="st4" points="70.2,89.7 70.2,92.4 105.8,98.9 106.1,95.1 "/>
<polygon class="st5" points="110.8,189.6 175.4,153.9 174.3,148.9 110.2,183.8 "/>
<polygon class="st1" points="36.6,167 109.4,183.6 175.2,148.1 170.7,145.7 110,178.2 42.7,163.5 "/>
<g class="st6">
	<path class="st7" d="M123,154.9c0,0,3.2-4.4,5.9-5c2.7-0.6,3.7,1.4,3.7,1.4s0.5-4.5,0.2-5.2s-0.6-1.4-0.6-1.4s3-5.6,6.4-8.1
		c3.5-2.4,6.2-3.6,6.2-3.6s-0.2,1.5-1,2.9c-0.8,1.4-2.7,3.8-2.7,3.8s2.1-0.2,4.5-3.2c2.5-3,2.6-4.1,2.6-4.1l1.9,0.2
		c0,0,0.2,0.7,0.2,1.3s-0.3,1.8-0.3,1.8s1.1-0.5,1.5-1.3c0.5-0.8,0.5-1.6,0.5-1.6s2.2,1.2,4.1,1.8s3.4,0.7,4.4,0.4s1.6-1,1.9-1.1
		c0.2-0.2,0.6-1,0.6-1l-0.4-0.5c0,0,2-0.2,2.6-1.3c0.6-1.1-0.3-2.1-1-2.7s-2.2-1.8-2.2-1.8s0.5-2.9,0.3-4.7s-0.9-4.7-2.3-5.9
		c-1.4-1.2-6.6-1.5-7.2-1.4c-0.6,0.1-2.1,0.3-2.1,0.3s-1.2-3.6-3.4-3.5c-2.2,0.1-5.3,1.5-5.5,2.2c-0.2,0.7,1.5,0.4,2.1,1
		c0.6,0.6,1.3,2.7,1.3,2.7s-5,2.2-9.1,8.5c-4.1,6.3-5.6,11.3-5.9,12.4c-0.3,1.2-1.5,6.9-1.5,6.9s-1.4,0.5-2.8,2.5
		C124.8,149.8,123,154.9,123,154.9z"/>
	<path class="st8" d="M123.8,154.1c0,0,1.3-3.7,3.4-6.3c2-2.4,3.4-2.9,3.4-2.9s2.5-8.4,12.1-14.3c6.8-4.2,8.1-2.5,9.4-3
		c1.6-0.6,2.4-1.6,4.2-1c1.3,0.4,0.4,3.4,4.5,4.3c3.9,0.9,4.9-0.6,4.9-0.6s0.1,1.3-1.8,1.8c-0.5,0.1-1.4,0.3-1.4,0.3s1,0.3,0.8,0.8
		c-0.1,0.4-1.3,1.6-2.5,1.9s-2.7,0.1-5.1-0.7c-2.4-0.8-3.4-1.5-3.4-1.5s0.1,0.8-0.5,1.6s-1.5,1.3-1.5,1.3s0.3-1.4,0.3-1.8
		c0-0.4-0.2-1.3-0.2-1.3l-2,0c0,0-0.7,2.1-2.5,3.8s-4,3.5-4.3,3.3c-0.3-0.1,0.9-1.5,1.4-2.2c0.5-0.7,1.5-2.7,1.7-3.1
		c0.2-0.4,0.4-1.3,0.4-1.3s-3.5,1.2-6.1,3.4s-5.2,5.5-5.6,6.2c-0.4,0.7-1,1.9-1,1.9s0.8,2.5,0.7,3.5c-0.1,1-0.3,3.1-0.3,3.1
		s-1.4-3.1-4.6-1.1C126.2,151.3,123.8,154.1,123.8,154.1z"/>
	<path class="st9" d="M156,115.4c0,0,0.3,1,0.5,1.3c0.2,0.3,0.9,0.9,0.9,0.9s0.8-3.4,1.6-4.2c0.7-0.8,1.3-1.1,1.8-1.3
		c0.5-0.2,1.6-0.2,1.6-0.2l-1-0.6c0,0-0.2-0.9-0.6-0.8c-0.4,0.1-0.7,0.6-0.7,0.6s-1.4-0.2-2.5,1C156.5,113.3,156,115.4,156,115.4z"
		/>
	<path class="st10" d="M158.1,118.1c0,0,0.3,2.2,1.4,2.5s2.1-0.6,2.9-0.8s1.8-0.4,1.8-0.4l-1.7-2c0,0-0.8,0.5-2,0.8
		C159.2,118.4,158.1,118.1,158.1,118.1z"/>
	<path class="st11" d="M157.4,117.5c0,0,1.2,1,2.7,0.7s2.4-0.8,2.4-0.8s0.8-3.6,0.5-4.3s-0.5-1.1-0.5-1.1s-1.4-0.5-3,0.9
		C158.2,114,157.4,117.5,157.4,117.5z"/>
	<path class="st12" d="M162.1,119.9l0.3,1.1c0,0,1.9-1.1,1.7-1.5C163.8,119.2,162.1,119.9,162.1,119.9z"/>
	<path class="st13" d="M155.4,127.9c0,0-0.2,2.8,1.2,4s3.1,1.5,3.1,1.5s-0.1-1.1-0.5-1.4c-0.4-0.2-1.8-1.1-2.4-1.7
		C156.1,129.7,155.4,127.9,155.4,127.9z"/>
	<path class="st14" d="M159.1,132c0,0,1.3,0.3,1.9,0.4c0.6,0,2,0.3,2,0.5s-1.2,0.4-1.9,0.4s-1.4,0-1.4,0L159.1,132z"/>
	<path class="st15" d="M128.9,145.3l0.5,0c0,0,2.3-12.8,8.7-20.3c4.5-5.3,7.4-6.7,7.4-6.7l0.1-1c0,0-5.1,2.7-9.1,8.3
		C130.6,133.7,128.9,145.3,128.9,145.3z"/>
	<path class="st16" d="M145.2,131.8c0,0-0.4,2.3-1.3,3.8s-2.8,4.1-2.8,4.1l0.5-0.1c0,0,2-2.1,2.9-3.8
		C145.6,133.4,145.2,131.8,145.2,131.8z"/>
	<path class="st15" d="M150.6,114.8l0.2,1c0,0,2.2-0.3,3.2-0.2c1.3,0.1,2.3,0.6,2.3,0.6l-0.4-1.2c0,0-3-0.2-3.4-0.2
		C152.1,114.8,150.6,114.8,150.6,114.8z"/>
	<path class="st15" d="M160.4,126.3c0,0,1.3-0.3,3.1,1.2c1.3,1.1,2.1,2.4,2.1,2.9c0.1,0.9-0.5,1.2-0.5,1.2s-0.3-1-1-2
		C163,127.9,160.4,126.3,160.4,126.3z"/>
	<path class="st15" d="M142,113.6c-0.2,0.3,0.3,0.3,0.3,0.3s1.4-1,3.3-1.4c2.9-0.5,4.7,0.9,4.7,0.9s-1.1-2.3-4-1.8
		C143.3,112.3,142.3,113.1,142,113.6z"/>
	<path class="st17" d="M124.5,153.1c0,0,1.9-3,4.3-3.9c2.4-1,3.4,0.2,3.4,0.2s0.3-1.1,0.3-2c0-1.3-0.3-2.7-0.3-2.7s0.7,1.7,0.8,2.9
		s-0.3,3.7-0.3,3.7s-0.8-2.4-2.9-1.7C127.7,150.3,124.5,153.1,124.5,153.1z"/>
	<path class="st17" d="M132.2,144.7l-0.3-0.3c0,0,2.4-5.3,6.3-8.6c3.8-3.3,7-4.1,7-4.1l-0.4,1.5c0,0-4.4,1.8-6.9,4.1
		C133.8,141.2,132.2,144.7,132.2,144.7z"/>
	<path class="st17" d="M143.1,138.8c0,0,2.2-2.2,3.3-4.1c1.1-2,1.4-3.5,1.4-3.5s2.2-0.5,4.1,0c1.6,0.4,2.8,1.8,4.7,2.5
		s3.2,0.7,4,0.5s1.4-1,1.4-1l1.1-0.4c0,0-0.6,1.3-2.1,1.9c-1.5,0.6-3.5,0.3-4.8-0.2c-1.4-0.6-4.1-1.9-4.1-1.8s-0.3,1.1-0.5,1.6
		c-0.3,0.5-1.3,1.3-1.3,1.3s0.6-1,0.7-1.5c0.1-0.4,0.1-0.7,0.1-0.7l-0.7-0.2l-0.1-0.7l-1.9-0.2c0,0-0.9,2.2-2,3.5
		S143.1,138.8,143.1,138.8z"/>
	<path class="st18" d="M156.2,116.5c0,0,0.5,1.2,0.8,1.6c0.4,0.4,0.8,0.4,0.8,0.4s0.1,2.4,1.3,3.1c1.2,0.7,2.4-0.1,2.4-0.1
		s0.2,2.2,0.2,2.9s-0.2,2.1-0.2,2.1l0.5,0.1c0,0,0.4-2.3,0.4-3.4s-0.5-3.4-0.5-3.4s-1.8,1.1-2.6,0.7c-0.7-0.5-1.4-2.5-1.4-2.5
		L156.2,116.5z"/>
	<path class="st19" d="M155.6,127.7c0,0,0.1,2.1,1.7,3.2c1.6,1,3.6,1.7,4.5,1.6s2.7-0.7,2.7-0.7s-3.7,0.2-5.8-0.9
		S155.6,127.7,155.6,127.7z"/>
	<g>
		<path class="st20" d="M128.7,145.1c0.4-2.8,1.1-5.5,1.9-8.2c0.9-2.7,2-5.3,3.3-7.7c1.3-2.5,2.9-4.8,4.8-6.9c1.9-2.1,4-3.9,6.6-5.2
			l0.2,0.5c-2.4,1.2-4.6,3-6.4,5.1c-1.9,2-3.4,4.4-4.7,6.8c-1.3,2.4-2.4,5-3.3,7.6c-0.9,2.6-1.6,5.3-2,8.1L128.7,145.1z"/>
	</g>
	<g>
		<path class="st20" d="M132,144.6c0.6-1.4,1.4-2.6,2.3-3.8c0.9-1.2,1.9-2.3,3-3.3c1.1-1,2.3-1.9,3.5-2.7c1.3-0.8,2.6-1.5,4-2
			l0.2,0.7c-1.3,0.4-2.6,1.1-3.8,1.9c-1.2,0.8-2.4,1.7-3.5,2.6c-1.1,1-2.1,2-3,3.1c-0.9,1.1-1.7,2.4-2.3,3.7L132,144.6z"/>
	</g>
	<g>
		<path class="st20" d="M148.1,132.1c1.4,0,2.8,0.2,4.2,0.4c1.5,0.3,2.5,1.2,3.8,1.7c1.2,0.5,2.6,0.8,3.9,0.6
			c0.6-0.1,1.3-0.3,1.8-0.6c0.5-0.3,1-0.9,1.2-1.4l0.4,0.2c-0.3,0.7-0.7,1.3-1.4,1.7c-0.6,0.4-1.3,0.6-2,0.8
			c-1.4,0.2-2.9-0.1-4.2-0.7c-1.3-0.6-2.5-1.4-3.7-1.6c-1.3-0.2-2.7-0.4-4-0.3L148.1,132.1z"/>
	</g>
	<g>
		<path class="st20" d="M129.1,145.3c-1.1,0.5-2,1.5-2.7,2.6c-0.7,1.1-1.3,2.3-1.8,3.4c-0.5,1.2-1,2.4-1.4,3.7c0,0,0,0,0,0l0,0
			c0,0,0-0.1-0.1-0.2c-0.1,0-0.2,0-0.2,0l0,0l0,0c0,0,0,0,0-0.1l0.1-0.2l0.3-0.4c0.2-0.3,0.4-0.5,0.6-0.8c0.4-0.5,0.9-1,1.4-1.5
			c1-0.9,2.1-1.8,3.4-2.2c0.6-0.2,1.4-0.4,2.1-0.2c0.7,0.1,1.4,0.6,1.7,1.3c0.1,0.2,0.1,0.3,0.2,0.5l0.1,0.2c0,0,0.1,0-0.1-0.1
			c-0.2,0.1-0.1,0.1-0.1,0.1l0,0l0,0l0-0.1c0.1-0.3,0.1-0.6,0.1-1c0-0.7,0.1-1.3,0.1-2c0-0.6,0-1.3-0.1-1.9c0-0.3-0.1-0.6-0.2-0.9
			c0-0.1-0.1-0.3-0.2-0.4c0-0.1-0.2-0.3-0.2-0.3l0.2-0.4c0.3,0.2,0.3,0.3,0.4,0.5c0.1,0.2,0.2,0.3,0.2,0.5c0.1,0.3,0.2,0.7,0.2,1
			c0.1,0.7,0.1,1.4,0.1,2c0,0.7-0.1,1.3-0.2,2l-0.2,1l0,0.1l0,0.1l0,0c0,0,0.1,0-0.1,0.1c-0.2,0-0.1-0.1-0.2-0.1l-0.1-0.2
			c-0.1-0.1-0.1-0.3-0.2-0.4c-0.3-0.6-0.8-0.9-1.4-0.9c-0.6,0-1.2,0.1-1.8,0.3c-1.2,0.4-2.2,1.2-3.2,2.1c-0.5,0.4-0.9,0.9-1.4,1.4
			c-0.2,0.2-0.4,0.5-0.6,0.7l-0.3,0.4l-0.2,0.2c0,0,0,0-0.1,0.1l-0.1,0l0,0c0,0,0,0-0.2,0c-0.1-0.1-0.1-0.2-0.1-0.2l0,0
			c0-0.1,0-0.1,0-0.1c0.3-1.3,0.8-2.5,1.3-3.8c0.5-1.2,1.1-2.4,1.9-3.6c0.8-1.1,1.7-2.1,3.1-2.7L129.1,145.3z"/>
	</g>
	<g>
		<path class="st20" d="M145.3,117.7c-0.1-1.4-0.8-2.7-2.1-3.2c-0.3-0.1-0.7-0.2-1-0.3c-0.1,0-0.2-0.1-0.3-0.2
			c-0.1-0.1-0.1-0.2-0.1-0.3c0-0.1,0.1-0.1,0.1-0.2c0.1-0.2,0.3-0.3,0.4-0.4c0.6-0.5,1.2-0.9,1.9-1.2c0.7-0.3,1.4-0.5,2.1-0.6
			c0.7-0.1,1.5,0,2.2,0.3c1.4,0.6,2.3,2.1,2.7,3.5l-0.5,0.1c-0.3-1.3-1.1-2.6-2.3-3.2c-1.2-0.6-2.8-0.3-4,0.3
			c-0.6,0.3-1.3,0.6-1.8,1.1c-0.1,0.1-0.3,0.2-0.3,0.4l0,0.1c0,0,0,0,0,0l0,0c0,0,0.1,0,0.2,0.1c0.3,0.1,0.7,0.1,1.1,0.2
			c0.7,0.2,1.4,0.7,1.8,1.4c0.4,0.7,0.5,1.5,0.4,2.2L145.3,117.7z"/>
	</g>
	
		<ellipse transform="matrix(0.2158 -0.9764 0.9764 0.2158 1.1263 250.0318)" class="st20" cx="156.2" cy="124.3" rx="0.7" ry="0.3"/>
	<ellipse transform="matrix(0.2147 -0.9767 0.9767 0.2147 5.4331 255.613)" class="st20" cx="161.7" cy="124.4" rx="0.6" ry="0.3"/>
	<g>
		<path class="st20" d="M155.7,124c0.1-0.3,0.2-0.5,0.6-0.6c0.2,0,0.3,0,0.5,0.1c0.1,0.1,0.2,0.3,0.1,0.4
			C156.5,123.5,156.2,123.7,155.7,124z"/>
	</g>
	<g class="st21">
		<path class="st20" d="M155.4,122.9c0.2-0.3,0.6-0.5,1-0.5c0.4,0,0.7,0.2,1,0.4l-0.1,0.1c-0.3-0.1-0.6-0.2-0.9-0.3
			C156.1,122.7,155.7,122.8,155.4,122.9L155.4,122.9z"/>
	</g>
	<g>
		<path class="st20" d="M155.8,127.8c0.1,0.8,0.4,1.5,0.8,2.1c0.5,0.6,1.1,1.1,1.8,1.5c1.4,0.7,3.1,1,4.6,0.7
			c0.8-0.1,1.5-0.4,2.1-0.9c0.5-0.5,0.1-1.3-0.3-1.9c-0.4-0.6-1-1.2-1.6-1.7c-0.6-0.5-1.3-0.8-2.1-1.3c0.8,0,1.7,0.4,2.3,0.9
			c0.7,0.5,1.3,1.1,1.8,1.8c0.2,0.3,0.5,0.7,0.6,1.2c0.1,0.4,0.1,1-0.3,1.4c-0.7,0.6-1.5,0.9-2.3,1.1c-1.7,0.3-3.4,0-4.9-0.8
			c-0.7-0.4-1.4-0.9-1.9-1.6c-0.5-0.7-0.8-1.5-0.9-2.4L155.8,127.8z"/>
	</g>
	<g>
		<path class="st20" d="M145.2,132.2c0,1.7-0.8,3.3-1.8,4.7c-0.5,0.7-1,1.4-1.5,2c-0.1,0.2-0.3,0.3-0.4,0.5c0,0.1-0.1,0.2-0.1,0.2
			c0,0,0,0,0-0.1c-0.1-0.1-0.1,0,0,0c0.3-0.1,0.7-0.3,1-0.5c1.4-0.9,2.6-2,3.6-3.3c1-1.3,1.7-2.8,2.6-4.2c-0.1,1.7-1.1,3.2-2.1,4.6
			c-1.1,1.3-2.4,2.4-3.8,3.3c-0.4,0.2-0.7,0.4-1.2,0.5c-0.1,0-0.2,0-0.3-0.1c-0.1-0.2-0.1-0.3,0-0.4c0-0.1,0.1-0.2,0.2-0.3
			c0.1-0.2,0.2-0.4,0.4-0.5c0.5-0.7,1-1.3,1.4-2c0.4-0.7,0.9-1.4,1.2-2.1c0.3-0.7,0.6-1.5,0.9-2.3L145.2,132.2z"/>
	</g>
	<g>
		<path class="st20" d="M162.3,132.3c0.4,0,0.7,0.2,1,0.4l0.3,0.2l-0.3,0.1c-0.9,0.4-1.9,0.5-2.9,0.5c-1,0-1.9-0.3-2.8-0.8
			c-0.9-0.5-1.6-1.2-1.9-2.1c-0.4-0.9-0.5-1.9-0.5-2.9l0.3,0c-0.1,0.9,0,1.9,0.4,2.7c0.4,0.9,1,1.5,1.8,2c0.8,0.4,1.7,0.7,2.7,0.7
			c0.9,0,1.9-0.2,2.7-0.6l-0.1,0.4c-0.2-0.2-0.5-0.3-0.8-0.4L162.3,132.3z"/>
	</g>
	<g>
		<path class="st20" d="M154.7,128.5c0-0.3,0.2-0.6,0.4-0.8c0.1-0.1,0.3-0.2,0.4-0.2c0.2,0,0.3,0,0.5,0.1c-0.2,0-0.3,0.1-0.4,0.1
			c-0.1,0.1-0.2,0.1-0.3,0.2C155.2,128.1,155,128.3,154.7,128.5z"/>
	</g>
	<g>
		<path class="st20" d="M158.3,131.8c0.4,0,0.8,0.1,1.1,0.4c0.3,0.4,0.3,0.7,0.4,1.1l-0.2,0c-0.1-0.3-0.2-0.7-0.4-0.9
			C159,132.2,158.7,132,158.3,131.8z"/>
	</g>
	<g>
		<path class="st20" d="M152.3,132.8c-0.1,0.6-0.3,1.2-0.6,1.7c-0.3,0.5-0.7,1-1.3,1.3c-0.1,0-0.2,0.1-0.3,0.1c0,0,0,0-0.1,0
			c0,0-0.1-0.1-0.1-0.1c0,0,0-0.1,0-0.1c0-0.1,0-0.1,0-0.1c0-0.2,0.1-0.3,0.1-0.4c0.1-0.3,0.1-0.6,0.1-0.8c0-0.3,0-0.5,0-0.8
			c0-0.1-0.1-0.3-0.1-0.4c0-0.1,0-0.1-0.1-0.2c0,0-0.1-0.1,0-0.1l0.4-0.4c0.1,0.2,0.1,0.2,0.2,0.3c0,0.1,0,0.2,0.1,0.2
			c0,0.2,0,0.3,0,0.5c0,0.3,0,0.6,0,0.9c0,0.3-0.1,0.6-0.2,0.9c0,0.1-0.1,0.3-0.1,0.4c0,0,0,0.1,0,0.1c0,0,0,0,0,0c0,0,0,0-0.1-0.1
			c0,0,0,0,0,0c0,0,0.1,0,0.1,0c0.5-0.2,0.9-0.7,1.1-1.2c0.3-0.5,0.4-1,0.5-1.6L152.3,132.8z"/>
	</g>
	<g>
		<path class="st20" d="M162.3,120.8c0.4-0.1,0.8-0.3,1.1-0.5c0.2-0.1,0.3-0.3,0.5-0.4c0.1-0.1,0.1-0.2,0.1-0.2c0,0,0-0.1,0,0
			c0,0,0,0-0.1,0c-0.4,0-0.8,0.1-1.2,0.3c-0.4,0.2-0.8,0.4-1.1,0.6c-0.4,0.2-0.8,0.4-1.2,0.5c-0.5,0.1-1,0-1.4-0.4
			c-0.7-0.7-0.9-1.6-1-2.5l0,0l0.1,0.2c-0.3-0.1-0.5-0.3-0.8-0.5c-0.2-0.2-0.5-0.4-0.7-0.6c-0.4-0.5-0.6-1.1-0.8-1.7l0,0l0-0.1l0,0
			c0.4-1.1,0.8-2.1,1.4-3.1c0.2-0.2,0.3-0.5,0.6-0.7c0.2-0.2,0.5-0.3,0.7-0.5c0.5-0.3,1.1-0.5,1.7-0.3l0,0l-0.2,0.1
			c0.1-0.3,0.4-0.6,0.8-0.6c0.2,0,0.4,0.1,0.5,0.3c0.1,0.2,0.1,0.3,0.1,0.5l0,0l-0.1-0.1c0.6,0.2,1.1,0.6,1.4,1.1
			c0.3,0.5,0.4,1.2,0.3,1.7c0,1.2-0.3,2.3-0.5,3.4l0,0l0-0.2l1.6,2.2l-0.2,0.2l-1.8-2.1l-0.1-0.1l0-0.1l0,0c0.3-1.1,0.5-2.2,0.6-3.3
			c0-0.6,0-1.1-0.3-1.6c-0.3-0.5-0.7-0.9-1.1-1l-0.1,0l0-0.1l0,0c-0.1-0.2-0.2-0.4-0.4-0.4c-0.2,0-0.4,0.1-0.5,0.3l-0.1,0.1l-0.1,0
			l0,0c-0.5-0.1-1,0.1-1.5,0.3c-0.2,0.1-0.5,0.3-0.7,0.5c-0.2,0.2-0.3,0.4-0.5,0.6c-0.6,0.9-1,2-1.4,3l0-0.1l0,0
			c0.2,0.5,0.4,1.1,0.7,1.4c0.4,0.4,0.9,0.7,1.3,1l0.1,0.1l0,0.1l0,0c0.1,0.8,0.3,1.7,0.9,2.3c0.3,0.3,0.6,0.4,1,0.3
			c0.4-0.1,0.8-0.3,1.1-0.5c0.4-0.2,0.8-0.4,1.2-0.6c0.4-0.1,0.8-0.3,1.3-0.2c0.1,0,0.1,0,0.2,0.1c0.1,0.1,0.1,0.2,0,0.3
			c0,0.1-0.1,0.2-0.2,0.3c-0.1,0.2-0.3,0.3-0.5,0.5c-0.4,0.3-0.8,0.5-1.2,0.6L162.3,120.8z"/>
	</g>
	<g>
		<path class="st20" d="M158.2,117.9c0.3,0.1,0.7,0.2,1,0.2c0.4,0,0.7,0,1.1-0.1c0.7-0.1,1.4-0.3,2-0.7l0.1,0.1
			c-0.6,0.4-1.3,0.7-2.1,0.8c-0.4,0.1-0.8,0.1-1.1,0.1c-0.4,0-0.7-0.1-1.1-0.3L158.2,117.9z"/>
	</g>
	<g>
		<path class="st20" d="M157.3,117.5c0.2-0.7,0.4-1.4,0.6-2.1c0.2-0.7,0.5-1.4,0.9-2c0.4-0.6,1-1.1,1.7-1.4c0.3-0.1,0.7-0.3,1-0.3
			c0.4,0,0.7,0,1.1,0.2l0,0.1c-0.3-0.1-0.7-0.2-1-0.1c-0.3,0.1-0.7,0.2-1,0.3c-0.6,0.3-1.2,0.7-1.6,1.3c-0.3,0.6-0.6,1.3-0.8,2
			c-0.2,0.7-0.4,1.4-0.6,2L157.3,117.5z"/>
	</g>
	<g class="st22">
		<path class="st20" d="M161.2,111.9c0.3,0.4,0.5,0.9,0.6,1.4c0.1,0.5,0,1.1-0.1,1.6c-0.2,1-0.4,2.1-0.7,3.1l-0.2-0.1
			c0.3-1,0.6-2,0.8-3.1c0.1-0.5,0.2-1,0.1-1.6C161.7,112.8,161.5,112.3,161.2,111.9L161.2,111.9z"/>
	</g>
	<g>
		<path class="st20" d="M161.3,124c0.1-0.2,0.3-0.5,0.6-0.4c0.2,0,0.3,0.2,0.3,0.3c0,0.1,0,0.3-0.1,0.4c-0.1-0.1-0.1-0.2-0.2-0.3
			c0-0.1-0.1-0.1-0.2-0.2C161.8,123.8,161.6,123.9,161.3,124z"/>
	</g>
	<g class="st21">
		<path class="st20" d="M161.3,123c0.2-0.1,0.4-0.2,0.6-0.2c0.2-0.1,0.6,0.1,0.6,0.4l-0.2,0c-0.1-0.2-0.2-0.2-0.4-0.2
			c-0.2,0-0.4,0.1-0.6,0.1L161.3,123z"/>
	</g>
</g>
<g>
	<path class="st20" d="M156.3,114.8c-0.3-0.1-0.6-0.1-0.9-0.2c-0.7-0.1-1.5-0.1-2.2-0.1c-0.4,0-0.8,0-1.1,0.1
		c-0.4,0-0.8,0.1-1.2,0.2l-0.1,0.4c0.4-0.1,0.7-0.1,1.1-0.1c0.4,0,0.7,0,1.1,0c0.4,0,0.7,0,1.1,0.1c0.4,0,0.7,0.1,1.1,0.1
		c0.3,0,0.5,0.1,0.8,0.2L156.3,114.8z"/>
	<path class="st20" d="M162.3,119.8l-0.5,0.2c0,0.1,0.1,0.2,0.1,0.3c0.1,0.4,0.2,0.9,0.3,1.4c0.1,0.5,0.1,1,0.1,1.5
		c0,0.5,0,1.1-0.1,1.6c0,0.3-0.1,0.6-0.1,0.8c0,0.3-0.1,0.6-0.1,0.8l0.3,0c0.1-0.3,0.1-0.6,0.2-0.9c0-0.3,0.1-0.6,0.1-0.9
		c0-0.3,0.1-0.6,0.1-0.9c0-0.3,0-0.6,0-0.9c0-1.1-0.1-2.2-0.4-3.2C162.3,120,162.3,119.9,162.3,119.8z"/>
</g>
<g>
	<path class="st23" d="M38.3,104.9c0.2,10.7,0.3,21.3,0.4,31.9l0.1,15.9l0,8c0,0.1,0,0.1,0,0.1l0,0l0,0l0,0c0,0-0.1,0,0.1,0l2,0.4
		l4,0.9l31.7,7.2l15.9,3.6l7.9,1.8l4,0.9l2,0.4c0.6,0.1,1.2,0.2,1.8,0.3c1.2,0.1,2.5,0,3.6-0.3c0.6-0.2,1-0.4,1.6-0.7l1.8-1l7.2-3.8
		l14.3-7.7l28.7-15.3l7.2-3.8c0.3-0.2,0.5-0.3,0.7-0.4c0.2-0.2,0.3-0.3,0.5-0.5c0.3-0.4,0.4-0.9,0.4-1.3l0-4.1l0.2-16.3l0.3-32.5
		l0,0l1.2,0.8l-16.6,7.5l-16.6,7.5l-16.5,7.6l-8.3,3.8l-2.1,1c-0.7,0.3-1.4,0.7-2.1,0.9c-1.5,0.5-3.1,0.8-4.7,0.9
		c-1.6,0.1-3.2-0.1-4.7-0.4l-4.4-0.9l-8.8-1.7l-17.6-3.5L38.3,104.9z M36.4,102.6l36.4,7.4l18.1,3.7l9,1.9l4.5,0.9
		c1.5,0.3,2.9,0.5,4.4,0.4c1.5,0,2.9-0.3,4.3-0.8c0.7-0.2,1.3-0.6,2-0.9l2.1-0.9l8.3-3.8l16.6-7.6l16.5-7.6l16.5-7.7l1.2-0.6l0,1.3
		l0,0l-0.1,32.5l0,16.3l0,4.1c0,0.9-0.3,1.8-0.7,2.5c-0.2,0.4-0.5,0.7-0.9,1c-0.3,0.3-0.8,0.5-1,0.7l-7.2,3.9l-28.6,15.5l-14.3,7.7
		l-7.2,3.9l-1.8,1c-0.5,0.3-1.3,0.7-2.1,0.9c-1.5,0.5-3,0.6-4.5,0.4c-0.7-0.1-1.5-0.2-2.2-0.3l-2-0.4l-4-0.9l-7.9-1.8L76,171.8
		l-31.8-7l-4-0.9l-2-0.4c-0.1,0-0.6-0.1-0.8-0.3c-0.3-0.2-0.6-0.4-0.8-0.6c-0.2-0.3-0.4-0.6-0.5-0.9c-0.1-0.2-0.1-0.3-0.1-0.5
		c0-0.2,0-0.4,0-0.4l0-8.3l0.1-16.6C36.1,124.7,36.3,113.6,36.4,102.6z"/>
</g>
<g>
	<path class="st23" d="M38.3,34.1l-0.1,33.2l-0.1,16.6l0,8.3l0,4.1c0.1,0.5,0,0.4,0.5,0.7c0.4,0.2,1.1,0.3,1.8,0.4l65.2,12.3
		c1.4,0.3,2.6,0.5,3.8,0.4c1.3-0.1,2.5-0.4,3.6-0.9l7.6-3.3l15.2-6.6l30.4-13.3l7.5-3.3c0.1-0.1,0.2-0.2,0.3-0.3
		c0-0.1,0-0.1,0.1-0.2c0,0,0,0,0-0.1l0-0.3l0-2.1l0-4.1l-0.2-16.6l-0.2-16.6l-0.3-16.6l2.9,0l-0.1,16.6l0,16.6l0,16.6l0,4.1l0,2.1
		l0,0.3c0,0.1,0,0.3,0,0.4c0,0.3-0.1,0.6-0.2,0.8c-0.2,0.5-0.6,0.9-1.1,1.2c-0.3,0.2-0.4,0.2-0.6,0.3l-0.5,0.2l-0.9,0.4l-1.9,0.8
		l-3.8,1.7l-30.4,13.3l-15.2,6.6l-7.6,3.3c-1.4,0.6-2.9,1-4.4,1.1c-0.8,0-1.5,0-2.3-0.1c-0.8-0.1-1.4-0.2-2.1-0.4L39.9,99.5
		c-0.7-0.1-1.4-0.2-2.2-0.6c-0.4-0.2-0.9-0.5-1.3-1c-0.3-0.5-0.5-1.1-0.5-1.5l0-4.2l0-8.3l0-16.6l0-33.2L38.3,34.1z"/>
</g>
<g>
	<path class="st23" d="M168.4,26.7c1.4-0.3,2.9-0.7,4.2-1.1c0.7-0.2,1.4-0.4,1.9-0.7c0.1-0.1,0.2-0.2,0.2-0.1c0,0,0,0-0.1,0.1
		c-0.1,0.1,0,0.2,0,0.3c0,0.1,0.1,0.3,0.1,0.3c0,0,0,0.1,0.1,0.1c0,0-0.4-0.2-0.7-0.2c-1.3-0.3-2.8-0.4-4.3-0.5l-4.4-0.4L147.8,23
		l-35.2-3c-2.9-0.1-5.8,0.1-8.7,0.4c-2.9,0.4-5.8,1-8.7,1.6l-17.4,3.4l-34.7,6.8c-1.4,0.3-2.9,0.6-4.2,1c-0.3,0.1-0.7,0.2-1,0.3
		c-0.2,0.1-0.3,0.1-0.4,0.2c-0.1,0-0.2,0.2-0.2,0.1c0,0,0-0.1,0-0.2c0-0.1,0-0.1,0-0.2c-0.1-0.1,0-0.1,0-0.1c0,0,0,0,0,0
		c0.1,0,0.2,0.1,0.3,0.2c0.3,0.1,0.6,0.2,1,0.3c1.4,0.3,2.9,0.4,4.3,0.6l4.4,0.6L65,37.3l35.1,4.4c1.5,0.2,2.9,0.4,4.4,0.5
		c1.4,0.1,2.9,0.1,4.3,0.1c1.4-0.1,2.9-0.2,4.3-0.5c1.4-0.3,2.8-0.8,4.2-1.1l17.1-4.7L168.4,26.7z M168.9,28.5l-34.2,9.1l-17.1,4.5
		c-1.4,0.4-2.8,0.8-4.3,1.1c-1.5,0.3-3,0.5-4.5,0.5c-1.5,0.1-3,0-4.5-0.1c-1.5-0.1-2.9-0.4-4.4-0.5l-35.1-4.5l-17.5-2.2l-4.4-0.6
		c-1.5-0.2-2.9-0.3-4.4-0.6c-0.4-0.1-0.8-0.2-1.2-0.3c-0.2-0.1-0.4-0.2-0.7-0.3c0,0-0.1-0.1-0.2-0.2c-0.1-0.1-0.1-0.1-0.2-0.3
		c-0.1-0.1-0.1-0.3-0.1-0.4c0-0.2,0.1-0.4,0.1-0.4c0.3-0.4,0.5-0.5,0.7-0.6c0.2-0.1,0.4-0.2,0.6-0.3c0.4-0.2,0.7-0.3,1.1-0.4
		c1.5-0.4,2.9-0.8,4.3-1.1l34.7-6.8L95,20.8c2.9-0.5,5.8-1.2,8.7-1.6c3-0.4,5.9-0.6,8.9-0.5c11.8,0.8,23.5,1.8,35.3,2.7l17.6,1.4
		l4.4,0.3c1.5,0.1,2.9,0.2,4.5,0.5c0.4,0.1,0.8,0.1,1.4,0.5c0.1,0.1,0.2,0.2,0.3,0.3c0.1,0.1,0.2,0.3,0.2,0.5c0,0.2,0,0.4-0.1,0.6
		c-0.1,0.2-0.1,0.2-0.2,0.4c-0.3,0.4-0.5,0.4-0.7,0.6c-0.8,0.4-1.5,0.6-2.2,0.9C171.8,27.8,170.3,28.2,168.9,28.5z"/>
</g>
<line class="st24" x1="110.1" y1="43.5" x2="110.1" y2="111.6"/>
<line class="st24" x1="109.8" y1="118.4" x2="109.8" y2="178.1"/>
<g>
	<path class="st23" d="M108.7,190.4l-38.1-9.2l-19.1-4.6l-9.5-2.3l-2.4-0.6l-0.6-0.1c-0.2-0.1-0.4-0.1-0.7-0.2
		c-0.5-0.2-1.1-0.5-1.5-0.9c-0.8-0.8-1.1-2-1-3c0-0.8,0-1.6,0.1-2.5l0,0l1.2-0.9l18.1,4.3l18.1,4.1l18.1,4.1l9.1,2.1l4.5,1l2.2,0.5
		c0.7,0.1,1.4,0.2,2.1,0.1c0.7,0,1.4-0.2,2.1-0.4c0.7-0.2,1.3-0.6,2-0.9l4.1-2.2l8.1-4.5l16.3-8.9l16.3-8.9l16.2-9l0,0l1.6,1
		l-0.1,2.5l-0.1,1.2l0,0.6c0,0.2,0,0.6-0.1,0.9c-0.2,0.6-0.5,1.2-1,1.6c-0.2,0.2-0.5,0.4-0.7,0.5l-0.5,0.3l-2.2,1.2l-8.7,5
		l-17.5,9.9l-17.5,9.9l-8.8,4.9l-2.2,1.2c-0.7,0.4-1.6,0.8-2.4,1.2c-0.8,0.3-1.7,0.6-2.6,0.9c-0.5,0.1-0.9,0.2-1.4,0.2
		c-0.3,0-0.5,0-0.8,0c-0.1,0-0.3,0-0.4,0C108.9,190.4,108.8,190.4,108.7,190.4c-0.2-0.1-0.2-0.1-0.5-0.2l1.1-2.2
		c-0.2-0.1-0.1,0-0.1,0l0.1,0c0,0,0.1,0,0.2,0c0.1,0,0.3,0,0.5,0c0.3,0,0.7-0.1,1.1-0.2c0.7-0.2,1.5-0.4,2.2-0.7
		c0.8-0.3,1.4-0.7,2.1-1l2.2-1.2l8.8-4.9l17.5-9.8l17.5-9.9l8.8-4.9l2.2-1.2l0.6-0.3c0.2-0.1,0.2-0.1,0.3-0.2
		c0.2-0.1,0.3-0.3,0.3-0.5c0-0.1,0-0.2,0-0.4l0-0.6l0.1-1.3l0.1-2.5l1.6,1l0,0l-16.4,8.7l-16.4,8.8l-16.4,8.8l-8.2,4.4l-4.1,2.2
		c-0.7,0.4-1.4,0.8-2.2,1c-0.8,0.3-1.6,0.4-2.5,0.5c-0.8,0.1-1.7,0-2.5-0.2l-2.3-0.5l-4.5-1l-9.1-2L73,176l-18.1-4.1l-18.2-4
		l1.2-0.9l0,0c0,0.8,0,1.6,0,2.5c0,0.2,0,0.4,0,0.5c0,0.1,0,0.3,0.1,0.4c0.1,0.3,0.2,0.5,0.4,0.7c0.2,0.2,0.4,0.3,0.6,0.4
		c0.1,0,0.3,0.1,0.5,0.1l0.6,0.1l2.4,0.6l9.5,2.2l19.1,4.5l38.2,9L108.7,190.4z"/>
</g>
<polyline class="st24" points="36.4,52.5 110.4,63.2 174.7,41.9 "/>
<polyline class="st24" points="36.7,67.8 109.8,79.7 174.4,55.4 "/>
<polyline class="st24" points="37.1,83.1 110.7,96.3 175,69.7 "/>
<ellipse transform="matrix(0.9583 -0.2857 0.2857 0.9583 -43.65 29.788)" class="st25" cx="80.3" cy="164.5" rx="2.1" ry="2.9"/>
<ellipse transform="matrix(0.9583 -0.2857 0.2857 0.9583 -43.839 31.9382)" class="st25" cx="87.5" cy="166.2" rx="2.1" ry="2.9"/>
<ellipse transform="matrix(0.9583 -0.2857 0.2857 0.9583 -43.9929 34.0764)" class="st25" cx="94.8" cy="167.8" rx="2.1" ry="2.9"/>
<ellipse transform="matrix(0.9583 -0.2857 0.2857 0.9583 -44.1272 36.2186)" class="st25" cx="102.1" cy="169.3" rx="2.1" ry="2.9"/>
<g>
	<path class="st26" d="M50.4,99.6"/>
</g>
<g>
	<path class="st26" d="M37.4,103.8"/>
</g>
<g>
	<path class="st26" d="M165.8,86.7"/>
</g>
<g>
	<path class="st26" d="M175.4,88.5"/>
</g>
<path class="st24" d="M45.5,163.6"/>
<path class="st24" d="M37.4,167.2"/>
<path class="st24" d="M167,147.7"/>
<path class="st24" d="M174.7,148.5"/>
<g>
	<path class="st23" d="M47.8,100c-1.9,0.8-3.8,1.4-5.7,2.1l-2.8,0.9c-0.2,0.1-0.4,0.2-0.6,0.2c-0.2,0.1-0.4,0.2-0.3,0.1
		c0,0,0.1-0.1,0.2-0.3c0.1-0.2,0-0.4,0-0.5c-0.1-0.2-0.2-0.2-0.1-0.2c0.1,0,0.3,0.1,0.5,0.2c1.7,0.6,3.7,1,5.7,1.5
		c2,0.5,3.9,1,5.8,1.5L50,107c-2-0.3-4-0.6-6-0.9c-1-0.2-2-0.4-3-0.6c-1-0.2-2-0.5-3-0.9c-0.3-0.1-0.5-0.2-0.9-0.5
		c-0.2-0.1-0.4-0.3-0.6-0.7c-0.1-0.2-0.1-0.6-0.1-0.9c0.1-0.3,0.2-0.5,0.3-0.6c0.4-0.4,0.7-0.5,1-0.6c0.3-0.1,0.5-0.2,0.8-0.3
		c1-0.3,2-0.5,3-0.7c2-0.4,4-0.8,6-1.1L47.8,100z"/>
</g>
<g>
	<path class="st23" d="M45.2,164c-1.7,0.6-3.5,1.1-5.3,1.6c-0.4,0.1-0.8,0.3-1.2,0.4c-0.4,0.1-0.8,0.4-0.8,0.4c0,0,0.1,0,0.1-0.2
		c0-0.2,0-0.3-0.1-0.4c-0.1-0.1,0.1,0.1,0.2,0.1c0.3,0.2,0.7,0.3,1.1,0.5c1.6,0.6,3.4,0.9,5.2,1.3c1.8,0.4,3.6,0.8,5.3,1.3l-0.4,1.7
		c-1.8-0.3-3.6-0.7-5.4-1c-1.8-0.4-3.6-0.7-5.4-1.3c-0.5-0.2-0.9-0.3-1.4-0.6c-0.3-0.2-0.5-0.3-0.8-0.8c-0.1-0.2-0.3-0.6-0.2-1
		c0.1-0.4,0.3-0.6,0.4-0.8c0.6-0.6,1.1-0.7,1.6-0.9c0.5-0.2,0.9-0.3,1.4-0.4l1.3-0.3l1.3-0.3l2.7-0.7L45.2,164z"/>
</g>
<g>
	<path class="st23" d="M170.1,85.4c1,0.1,2,0.3,3.1,0.4c0.5,0.1,1,0.2,1.6,0.4c0.3,0.1,0.5,0.2,0.8,0.4c0.1,0.1,0.3,0.2,0.5,0.4
		c0.2,0.2,0.3,0.5,0.3,0.8c-0.1,0.7-0.4,0.9-0.7,1.2c-0.3,0.2-0.5,0.4-0.7,0.5c-0.5,0.3-1,0.5-1.5,0.7c-1,0.4-2,0.7-3,0.9l-0.3-1
		c0.9-0.4,1.9-0.8,2.8-1.2c0.4-0.2,0.9-0.4,1.3-0.7c0.2-0.1,0.4-0.2,0.5-0.4c0.2-0.1,0.2-0.3,0.1-0.1c0,0.2,0.1,0.1-0.1,0.1
		c-0.1-0.1-0.3-0.2-0.6-0.3c-0.4-0.2-0.9-0.3-1.4-0.4l-2.9-0.8L170.1,85.4z"/>
</g>
<g>
	<path class="st23" d="M169.9,145.5c1,0.1,2,0.3,3.1,0.4c0.5,0.1,1,0.2,1.6,0.4c0.3,0.1,0.5,0.2,0.8,0.4c0.1,0.1,0.3,0.2,0.5,0.4
		c0.2,0.2,0.3,0.5,0.3,0.8c-0.1,0.7-0.4,0.9-0.7,1.2c-0.3,0.2-0.5,0.4-0.7,0.5c-0.5,0.3-1,0.5-1.5,0.7c-1,0.4-2,0.7-3,0.9l-0.3-1
		c0.9-0.4,1.9-0.8,2.8-1.2c0.4-0.2,0.9-0.4,1.3-0.7c0.2-0.1,0.4-0.2,0.5-0.4c0.2-0.1,0.2-0.3,0.1-0.1c0,0.2,0.1,0.1-0.1,0.1
		c-0.1-0.1-0.3-0.2-0.6-0.3c-0.4-0.2-0.9-0.3-1.4-0.4l-2.9-0.8L169.9,145.5z"/>
</g>
<line class="st27" x1="110.1" y1="183.5" x2="110.3" y2="189"/>
</svg>
