<?xml version="1.0" encoding="utf-8"?>
<!-- Generator: Adobe Illustrator 22.0.0, SVG Export Plug-In . SVG Version: 6.00 Build 0)  -->
<svg version="1.1" id="Ebene_1" xmlns="http://www.w3.org/2000/svg" xmlns:xlink="http://www.w3.org/1999/xlink" x="0px" y="0px"
	 viewBox="0 0 230.9 239.3" style="enable-background:new 0 0 230.9 239.3;" xml:space="preserve">
<style type="text/css">
	.st0{fill:url(#SVGID_1_);}
	.st1{fill:url(#SVGID_2_);}
	.st2{fill:url(#SVGID_3_);}
	.st3{fill:#5CABAF;}
	.st4{fill:#3C828C;}
	.st5{fill:#35797D;}
	.st6{fill:#275D61;}
	.st7{fill:#296269;}
	.st8{opacity:0.61;fill:#275D61;}
	.st9{opacity:0.55;fill:#3C828C;}
	.st10{opacity:0.63;fill:#275D61;}
	.st11{fill:#1F5B64;}
	.st12{opacity:0.52;fill:#3C828C;}
	.st13{fill:#143439;}
	.st14{fill:none;stroke:#143439;stroke-width:2;stroke-miterlimit:10;}
	.st15{fill:none;stroke:#143439;stroke-width:2;stroke-linejoin:round;stroke-miterlimit:10;}
	.st16{fill:none;stroke:#143439;stroke-width:2;stroke-linejoin:bevel;stroke-miterlimit:10;}
	.st17{fill:#98D5E9;stroke:#143439;stroke-width:0.75;stroke-miterlimit:10;}
	.st18{opacity:0.7;fill:none;stroke:#143439;stroke-width:1.027;stroke-linecap:round;stroke-miterlimit:10;}
	.st19{fill:#A1D7E4;}
	.st20{fill:#49B697;}
	.st21{fill:#EFC94C;}
	.st22{fill:#2D505F;}
	.st23{fill:#75B6C1;}
	.st24{fill:#7BBF7C;stroke:#143439;stroke-width:0.5;stroke-miterlimit:10;}
	.st25{fill:#4C7787;stroke:#143439;stroke-width:0.75;stroke-miterlimit:10;}
	.st26{opacity:0.8;}
	.st27{fill:#98D5E9;}
	.st28{opacity:0.49;fill:none;stroke:#143439;stroke-width:1.027;stroke-linecap:round;stroke-miterlimit:10;}
	.st29{opacity:0.6;}
	.st30{fill:#6EABC0;}
	.st31{fill:#97CED7;}
	.st32{fill:#BE1733;}
	.st33{fill:#45575C;}
	.st34{fill:#FFFFFF;}
	.st35{fill:#303B3F;}
	.st36{fill:#CC6072;}
	.st37{fill:#A04D60;}
	.st38{fill:#7DB9C9;}
	.st39{opacity:0.5;fill:#A4D4E0;}
	.st40{opacity:0.5;fill:#588A9E;}
	.st41{opacity:0.63;fill:#588A9E;}
	.st42{opacity:0.38;fill:#588A9E;}
	.st43{fill:#020203;}
	.st44{opacity:0.7;}
	.st45{opacity:0.11;}
</style>
<linearGradient id="SVGID_1_" gradientUnits="userSpaceOnUse" x1="128.2234" y1="53.9024" x2="200.095" y2="95.3975" gradientTransform="matrix(1 2.730233e-03 -2.730233e-03 1 0.8913 1.1899)">
	<stop  offset="0" style="stop-color:#296269"/>
	<stop  offset="0.4042" style="stop-color:#2B656C"/>
	<stop  offset="0.8534" style="stop-color:#306D76"/>
	<stop  offset="0.9985" style="stop-color:#32717B"/>
</linearGradient>
<polygon class="st0" points="123.3,65.1 209.1,39.7 208.6,83.6 124.6,115.2 "/>
<linearGradient id="SVGID_2_" gradientUnits="userSpaceOnUse" x1="125.8152" y1="114.0806" x2="203.4203" y2="158.886" gradientTransform="matrix(1 2.730233e-03 -2.730233e-03 1 0.8913 1.1899)">
	<stop  offset="0" style="stop-color:#296269"/>
	<stop  offset="0.4042" style="stop-color:#2B656C"/>
	<stop  offset="0.8534" style="stop-color:#306D76"/>
	<stop  offset="0.9985" style="stop-color:#32717B"/>
</linearGradient>
<polygon class="st1" points="124.6,118.7 208,87.6 207,155.3 125.6,190.5 "/>
<linearGradient id="SVGID_3_" gradientUnits="userSpaceOnUse" x1="130.659" y1="175.6138" x2="197.6216" y2="199.9861" gradientTransform="matrix(1 2.730233e-03 -2.730233e-03 1 0.8913 1.1899)">
	<stop  offset="0" style="stop-color:#296269"/>
	<stop  offset="0.4042" style="stop-color:#2B656C"/>
	<stop  offset="0.8534" style="stop-color:#306D76"/>
	<stop  offset="0.9985" style="stop-color:#32717B"/>
</linearGradient>
<polygon class="st2" points="124.4,195.3 205.9,160.2 205.3,181.7 124.4,219.1 "/>
<polygon class="st3" points="32.3,42.5 123.3,65.1 209.1,39.7 119,21.3 "/>
<polygon class="st4" points="31.6,42.7 123.3,65.1 124.6,115.2 33.1,87.8 "/>
<polygon class="st4" points="33.6,92 35,159.1 125.6,190.5 124.6,118.7 "/>
<polygon class="st4" points="35.5,163.3 36.2,186.7 124.4,219.1 124.4,195.3 "/>
<polygon class="st3" points="37.3,90.4 33.6,92 124.6,118.7 124.6,116.2 "/>
<polygon class="st3" points="35.3,163.7 124.4,195.3 125.6,191.5 39.8,162 "/>
<polygon class="st4" points="124.6,118.7 208,87.6 202.3,86.1 123.3,115 "/>
<polygon class="st4" points="124.4,194.6 125.6,191.5 201.8,158.7 205.9,160.2 "/>
<polygon class="st3" points="34.3,136.4 124.6,165.7 124.8,167.2 34.1,137.3 "/>
<polygon class="st5" points="39.1,188 39.3,192.5 124,225.2 123.8,218.7 "/>
<polygon class="st6" points="124,225.2 202.4,187.5 202.9,183 124.4,219.1 "/>
<polygon class="st7" points="118.5,99.6 118.5,103 121.5,104.1 121.3,100.5 "/>
<polygon class="st7" points="113,97.9 113,101.3 116,102.4 115.8,98.8 "/>
<polygon class="st7" points="107.1,96.1 107.1,99.6 110.1,100.7 110,97 "/>
<polygon class="st8" points="38.9,187.1 39.4,190.2 124,221.2 123.8,218.7 "/>
<polygon class="st9" points="197.5,132.3 205.5,128.8 205.6,122.2 197.7,125.5 "/>
<polygon class="st7" points="93.8,203.3 119.5,213.3 119.2,201.5 93.7,192 "/>
<polyline class="st10" points="35.5,169.6 73.5,183.9 73.8,191.6 36.1,177.4 35.5,169.6 "/>
<polygon class="st11" points="83.9,203.4 83.8,200.6 93.8,204.4 94,207.4 "/>
<polygon class="st11" points="84.3,176 84.3,171.9 94.1,175.3 94.3,179.5 "/>
<polygon class="st12" points="185.1,169 185.8,190.3 205.2,181.3 205.6,159.7 "/>
<polygon class="st6" points="162,174.9 161.9,164.9 206.9,145.3 207,155.6 "/>
<polygon class="st4" points="124.6,165.7 207.6,131 207.5,132 124.8,167 "/>
<polygon class="st4" points="123.9,98.2 208.2,69.1 208.4,69.9 124.2,99.2 "/>
<polygon class="st4" points="123.5,81.5 208.8,53.5 208.8,54.2 123.5,82.3 "/>
<polygon class="st3" points="33.2,72.5 123.9,98.2 123.8,99.3 33.5,73 "/>
<polygon class="st3" points="32.7,57.2 123.5,81.5 123.5,82.3 32.7,57.9 "/>
<g>
	<path class="st13" d="M30.7,41.6c15.5,3.7,31,7.5,46.4,11.3c15.4,3.8,30.8,7.7,46.1,11.6l0.4,0.5l1.8,50l-1.3,1L32.7,89l-0.9-1.1
		C31.3,72.5,30.9,56.9,30.7,41.6z M32.6,43.9C33.4,58.6,34,73,34.3,87.7l-0.9-1.1l91.2,27.4l-1.3,1L122.6,65l0.4,0.5
		c-15.2-3.5-30.3-7.1-45.4-10.6C62.6,51.3,47.6,47.6,32.6,43.9z"/>
</g>
<g>
	<polygon class="st13" points="123.9,113.9 208,82.2 207.3,83.3 208,39.5 209.3,40.4 123.3,65.6 123,64.4 208.7,38.6 210,39.5 
		209.7,83.3 208.9,84.4 124.8,116.2 	"/>
</g>
<g>
	<path class="st13" d="M125.1,118.3l1.7,72.3l-1.9,1.2l-90.8-31.9l-1.1-1l-0.1-67.4l1-0.7L125.1,118.3z M123.6,119.4L33.4,92.3
		l1-0.7l1.6,67.4l-1.1-1l90.9,31.6l-1.9,1.2L123.6,119.4z"/>
</g>
<g>
	<path class="st13" d="M31.7,41.6L119.1,21l0.1,0l0.1,0L209,38.6c0.5,0.1,0.8,0.6,0.7,1.1c-0.1,0.5-0.6,0.8-1.1,0.7l0,0l-89.5-18.2
		l0.3,0L32.2,43.6c-0.5,0.1-1.1-0.2-1.2-0.7C30.8,42.3,31.2,41.8,31.7,41.6L31.7,41.6z"/>
</g>
<g>
	<polygon class="st13" points="124.1,118.3 207.8,86.5 209.1,87.4 208.4,155.2 207.6,156.2 125.7,191.8 124.8,189.6 206.7,154 
		206,155.1 207.1,87.4 208.5,88.4 124.6,119.4 	"/>
</g>
<g>
	<path class="st13" d="M34.5,161.9c15.1,5.3,30.2,10.7,45.3,16.2c15,5.5,30,11,44.8,16.5c0.2,0.1,0.3,0.2,0.3,0.4v0l0.7,24.1
		c0,0.5-0.4,1-1,1c-0.1,0-0.3,0-0.4-0.1l0,0l-88.7-32.8c-0.4-0.1-0.6-0.5-0.7-0.9l0,0c-0.2-4-0.3-8.1-0.4-12.2
		C34.5,170.1,34.5,166,34.5,161.9z M36.3,164.4c0.2,3.7,0.4,7.3,0.5,10.9c0.1,3.6,0.1,7.3,0.1,11l-0.7-0.9l88.7,32.8l-1.3,0.9
		L124,195l0.3,0.4c-14.8-5.1-29.6-10.2-44.2-15.4C65.4,174.9,50.9,169.7,36.3,164.4z"/>
</g>
<g>
	<polygon class="st13" points="32.5,56.9 123.7,80.8 123.4,80.8 208.7,53.2 208.8,53.6 123.7,81.8 123.5,81.8 123.4,81.8 32.4,57.2 
			"/>
</g>
<g>
	<polygon class="st13" points="33.7,72.1 123.9,97.6 123.6,97.7 208.9,68.6 209,69 123.9,98.6 123.7,98.7 123.6,98.6 33.6,72.5 	"/>
</g>
<g>
	<polygon class="st13" points="124.1,218 204.7,180.2 204,181.3 205,159.8 206.3,160.6 124.7,195.7 124.1,194.3 205.6,159 
		206.8,159.8 206.4,181.3 205.7,182.4 125.1,220.2 	"/>
</g>
<line class="st14" x1="33.9" y1="91.7" x2="38.8" y2="89.9"/>
<g>
	<polygon class="st13" points="208,87.9 201.1,86.9 201.6,84.9 208.2,87 	"/>
</g>
<g>
	<polygon class="st13" points="35.1,136 124.9,165.2 124.5,165.2 207.2,130.8 207.5,131.3 124.9,166.1 124.7,166.2 124.6,166.2 
		34.9,136.6 	"/>
</g>
<polyline class="st15" points="38.8,188.1 39,192.9 124.1,225 124.1,218.9 "/>
<path class="st16" d="M124.1,225"/>
<polyline class="st14" points="124.1,225 202.3,187.5 202.3,182.6 "/>
<line class="st14" x1="205.9" y1="160.2" x2="200.7" y2="158"/>
<line class="st14" x1="35" y1="162.9" x2="41.3" y2="161.3"/>
<polygon class="st17" points="103.1,197 103.6,205.6 117.9,211.2 117.9,202.5 "/>
<line class="st18" x1="187.1" y1="172.1" x2="202" y2="165.4"/>
<line class="st18" x1="187.3" y1="175" x2="202.1" y2="168.3"/>
<line class="st18" x1="187.3" y1="178.1" x2="202.1" y2="171.3"/>
<line class="st18" x1="187.5" y1="181.1" x2="202.3" y2="174.2"/>
<line class="st18" x1="187.6" y1="184" x2="202.4" y2="177"/>
<path class="st19" d="M43.8,176.3c0,1-0.8,1.6-1.6,1.4c-0.9-0.3-1.6-1.3-1.5-2.3c0-1,0.8-1.6,1.6-1.4
	C43.2,174.2,43.8,175.3,43.8,176.3z"/>
<path class="st19" d="M50.2,178.7c0,1-0.8,1.6-1.6,1.4c-0.9-0.3-1.6-1.3-1.5-2.3c0-1,0.8-1.6,1.6-1.4
	C49.6,176.6,50.3,177.6,50.2,178.7z"/>
<path class="st19" d="M56.9,181.2c0,1-0.7,1.6-1.6,1.4c-0.9-0.3-1.6-1.3-1.6-2.3c0-1,0.7-1.6,1.6-1.4
	C56.2,179.1,56.9,180.2,56.9,181.2z"/>
<path class="st19" d="M63.3,183.3c0,1-0.7,1.6-1.6,1.4c-0.9-0.3-1.6-1.3-1.6-2.3c0-1,0.7-1.6,1.6-1.4
	C62.6,181.2,63.3,182.3,63.3,183.3z"/>
<path class="st20" d="M69.7,185.8c0,1-0.7,1.6-1.6,1.4c-0.9-0.3-1.6-1.3-1.6-2.3c0-1,0.7-1.6,1.6-1.4
	C69,183.7,69.7,184.8,69.7,185.8z"/>
<path class="st20" d="M200.8,152.7c0,0.9,0.6,1.4,1.3,1.2c0.7-0.3,1.2-1.2,1.2-2.1c0-0.9-0.6-1.4-1.3-1.2
	C201.3,150.9,200.7,151.8,200.8,152.7z"/>
<path class="st20" d="M194.9,155.1c0,0.9,0.6,1.4,1.3,1.2c0.7-0.3,1.2-1.2,1.2-2.1c0-0.9-0.6-1.4-1.3-1.2
	C195.4,153.3,194.9,154.2,194.9,155.1z"/>
<path class="st20" d="M189,158.8c0,0.9,0.6,1.4,1.3,1.2c0.7-0.3,1.2-1.2,1.2-2.1c0-0.9-0.6-1.4-1.3-1.2
	C189.5,157,188.9,157.9,189,158.8z"/>
<path class="st20" d="M183,161.3c0,0.9,0.6,1.4,1.3,1.2c0.7-0.3,1.2-1.2,1.2-2.1c0-0.9-0.6-1.4-1.3-1.2
	C183.5,159.5,183,160.4,183,161.3z"/>
<path class="st20" d="M177,163.6c0,0.9,0.6,1.4,1.3,1.2c0.7-0.3,1.3-1.2,1.2-2.1c0-0.9-0.6-1.4-1.3-1.2
	C177.5,161.8,177,162.7,177,163.6z"/>
<path class="st21" d="M171,165.4c0,0.9,0.6,1.4,1.3,1.2c0.7-0.3,1.3-1.2,1.2-2.1c0-0.9-0.6-1.4-1.3-1.2
	C171.5,163.5,170.9,164.5,171,165.4z"/>
<path class="st21" d="M165,168c0,0.9,0.6,1.4,1.3,1.2c0.7-0.3,1.3-1.2,1.2-2.1c0-0.9-0.6-1.4-1.3-1.2C165.5,166.2,165,167.1,165,168
	z"/>
<path class="st22" d="M42.3,154.7c0,0.6-0.5,1-1,0.9c-0.6-0.2-1-0.8-1-1.5c0-0.6,0.5-1,1-0.9C41.9,153.4,42.3,154.1,42.3,154.7z"/>
<path class="st22" d="M46.1,156c0,0.6-0.5,1-1,0.9c-0.6-0.2-1-0.8-1-1.5c0-0.6,0.5-1,1-0.9C45.6,154.7,46.1,155.4,46.1,156z"/>
<path class="st22" d="M42.8,183.1c0,0.7-0.5,1.1-1,0.9c-0.6-0.2-1-0.8-1-1.5c0-0.7,0.5-1.1,1-0.9C42.4,181.8,42.8,182.5,42.8,183.1z
	"/>
<path class="st22" d="M46.7,184.4c0,0.7-0.5,1.1-1,0.9c-0.6-0.2-1-0.8-1-1.5c0-0.7,0.5-1.1,1-0.9C46.3,183.1,46.7,183.7,46.7,184.4z
	"/>
<path class="st22" d="M50.1,157.5c0,0.6-0.5,1-1,0.9c-0.6-0.2-1-0.8-1-1.5c0-0.6,0.5-1,1-0.9C49.6,156.2,50.1,156.8,50.1,157.5z"/>
<g>
	<polygon class="st23" points="120.3,160.2 98.3,152.9 98.3,149.1 120.2,156 	"/>
	<path class="st13" d="M120.6,160.6c-7.5-2.4-15-4.8-22.4-7.3l-0.2-0.1l0-0.3l0-3.8l0-0.5l0.4,0.1l21.8,7l0.1,0l0,0.1
		C120.5,157.4,120.6,159,120.6,160.6z M120,159.8c-0.1-1.2-0.1-2.4-0.1-3.8l0.1,0.2l-21.9-6.7l0.5-0.3l0,3.8l-0.2-0.3
		C105.7,154.9,112.8,157.3,120,159.8z"/>
</g>
<polygon class="st24" points="101.1,204.9 98.7,203.9 98.7,201.5 101,202.4 "/>
<polygon class="st24" points="97,203.3 94.6,202.4 94.6,200 96.9,200.9 "/>
<polygon class="st25" points="205.7,68.9 205.6,74.8 196.6,78 196.8,71.9 "/>
<g class="st26">
	<polygon class="st27" points="192.2,111.9 194.7,110.9 194.6,133.7 192.2,134.8 	"/>
	<path class="st13" d="M194.4,111.3l0,22.2l-1.9,0.9l-0.1-22.3L194.4,111.3 M194.9,110.6l-0.7,0.3l-2,0.8l-0.3,0.1l0,0.3l0.1,22.3
		l0,0.8l0.7-0.3l1.9-0.9l0.3-0.1l0-0.3l0-22.2L194.9,110.6L194.9,110.6z"/>
</g>
<g class="st26">
	<polygon class="st27" points="187.1,113.9 189.7,113 189.7,135.6 187.3,136.7 	"/>
	<path class="st13" d="M189.4,113.3l0.1,22.1l-2,0.8l-0.2-22.2L189.4,113.3 M189.9,112.6l-0.7,0.2l-2.1,0.8l-0.3,0.1l0,0.4l0.2,22.2
		l0,0.7l0.7-0.3l2-0.8l0.3-0.1l0-0.3l-0.1-22.1L189.9,112.6L189.9,112.6z"/>
</g>
<line class="st28" x1="192.4" y1="40" x2="172" y2="35.7"/>
<line class="st28" x1="189.3" y1="41.2" x2="168.9" y2="36.9"/>
<line class="st28" x1="185.2" y1="42.2" x2="164.8" y2="37.8"/>
<line class="st28" x1="181.4" y1="43.3" x2="161" y2="39"/>
<g class="st29">
	<path class="st30" d="M136.5,153.8c0,0,3.1-4,5.8-4.5s3.7,1.5,3.7,1.5s0.5-4.2,0.2-5c-0.3-0.8-0.6-1.4-0.6-1.4s2.9-5.2,6.3-7.4
		c3.4-2.2,6.1-3.2,6.1-3.2s-0.2,1.4-1,2.7c-0.8,1.3-2.6,3.5-2.6,3.5s2-0.1,4.5-2.9s2.6-3.8,2.6-3.8l1.9,0.3c0,0,0.2,0.6,0.2,1.2
		s-0.3,1.7-0.3,1.7s1-0.4,1.5-1.1s0.5-1.5,0.5-1.5s2.1,1.2,4,1.9c1.9,0.7,3.4,0.8,4.3,0.6c1-0.3,1.6-0.9,1.8-1
		c0.2-0.1,0.6-0.9,0.6-0.9l-0.4-0.4c0,0,1.9-0.1,2.5-1.2c0.6-1.1-0.3-2-0.9-2.6s-2.2-1.8-2.2-1.8s0.5-2.7,0.3-4.4
		c-0.2-1.7-0.9-4.5-2.2-5.6s-6.4-1.7-7.1-1.6s-2,0.2-2,0.2s-1.2-3.4-3.3-3.4c-2.1,0-5.2,1.2-5.4,1.8c-0.2,0.6,1.5,0.4,2.1,1
		c0.6,0.6,1.3,2.6,1.3,2.6s-4.9,1.9-8.9,7.7s-5.5,10.5-5.8,11.5c-0.3,1.1-1.5,6.5-1.5,6.5s-1.4,0.4-2.7,2.3
		C138.2,149,136.5,153.8,136.5,153.8z"/>
	<path class="st31" d="M137.2,153.1c0,0,1.3-3.5,3.3-5.8c1.9-2.2,3.3-2.7,3.3-2.7s2.5-7.8,11.9-13.1c6.7-3.7,8-2.1,9.3-2.5
		c1.6-0.5,2.4-1.4,4.1-0.8c1.2,0.5,0.4,3.3,4.4,4.2c3.9,0.9,4.8-0.4,4.8-0.4s0.1,1.2-1.7,1.6c-0.5,0.1-1.4,0.2-1.4,0.2
		s0.9,0.3,0.8,0.8c-0.1,0.4-1.3,1.4-2.5,1.7c-1.2,0.3-2.7,0-5-0.9c-2.3-0.9-3.4-1.6-3.4-1.6s0.1,0.8-0.5,1.5s-1.5,1.1-1.5,1.1
		s0.3-1.3,0.3-1.7c0-0.4-0.2-1.2-0.2-1.2l-2,0c0,0-0.7,2-2.5,3.5s-3.9,3.1-4.3,3c-0.3-0.1,0.8-1.4,1.3-2c0.5-0.6,1.5-2.5,1.7-2.9
		c0.2-0.4,0.4-1.2,0.4-1.2s-3.4,1-6,3s-5.1,5-5.5,5.6c-0.4,0.6-0.9,1.7-0.9,1.7s0.8,2.4,0.7,3.4c-0.1,1-0.3,2.9-0.3,2.9
		s-1.3-3-4.5-1.2C139.6,150.5,137.2,153.1,137.2,153.1z"/>
	<path class="st32" d="M168.8,117.6c0,0,0.3,0.9,0.5,1.2c0.2,0.3,0.9,0.9,0.9,0.9s0.8-3.2,1.5-3.9c0.7-0.7,1.3-1,1.8-1.1
		c0.5-0.2,1.6-0.1,1.6-0.1l-0.9-0.6c0,0-0.2-0.9-0.6-0.8s-0.7,0.5-0.7,0.5s-1.4-0.2-2.5,0.9C169.4,115.6,168.8,117.6,168.8,117.6z"
		/>
	<path class="st33" d="M170.9,120.2c0,0,0.3,2.1,1.3,2.4c1,0.3,2.1-0.5,2.8-0.7c0.8-0.2,1.7-0.3,1.7-0.3l-1.7-1.9c0,0-0.8,0.5-2,0.7
		C172,120.6,170.9,120.2,170.9,120.2z"/>
	<path class="st34" d="M170.2,119.7c0,0,1.2,1,2.6,0.7c1.4-0.3,2.3-0.7,2.3-0.7s0.8-3.3,0.5-4s-0.5-1.1-0.5-1.1s-1.4-0.5-2.9,0.7
		C171,116.3,170.2,119.7,170.2,119.7z"/>
	<path class="st35" d="M174.8,122.1l0.3,1c0,0,1.9-1,1.7-1.3C176.5,121.5,174.8,122.1,174.8,122.1z"/>
	<path class="st36" d="M168.2,129.5c0,0-0.2,2.7,1.2,3.8s3,1.5,3,1.5s-0.1-1.1-0.5-1.3c-0.4-0.3-1.8-1.1-2.4-1.7
		S168.2,129.5,168.2,129.5z"/>
	<path class="st37" d="M171.9,133.4c0,0,1.2,0.4,1.8,0.4s1.9,0.4,1.9,0.6c0,0.2-1.2,0.3-1.9,0.3c-0.7,0-1.4,0-1.4,0L171.9,133.4z"/>
	<path class="st38" d="M142.2,144.9l0.5,0c0,0,2.2-12,8.6-18.9c4.4-4.8,7.2-6.1,7.2-6.1l0.1-1c0,0-5,2.3-8.9,7.6
		C143.9,134,142.2,144.9,142.2,144.9z"/>
	<path class="st39" d="M158.3,132.7c0,0-0.4,2.1-1.3,3.6c-0.9,1.4-2.8,3.8-2.8,3.8l0.5-0.1c0,0,2-1.9,2.8-3.5
		C158.6,134.2,158.3,132.7,158.3,132.7z"/>
	<path class="st38" d="M163.6,116.9l0.2,0.9c0,0,2.2-0.2,3.1-0.1c1.2,0.1,2.3,0.6,2.3,0.6l-0.4-1.2c0,0-2.9-0.3-3.4-0.3
		C165,116.9,163.6,116.9,163.6,116.9z"/>
	<path class="st38" d="M173.1,128.1c0,0,1.3-0.2,3,1.2c1.3,1,2,2.3,2.1,2.8c0.1,0.8-0.5,1.1-0.5,1.1s-0.2-0.9-1-2
		C175.7,129.7,173.1,128.1,173.1,128.1z"/>
	<path class="st38" d="M155.1,115.5c-0.2,0.3,0.3,0.3,0.3,0.3s1.4-0.9,3.2-1.2c2.8-0.4,4.6,1.1,4.6,1.1s-1.1-2.2-3.9-1.8
		C156.4,114.2,155.3,115,155.1,115.5z"/>
	<path class="st40" d="M137.9,152.1c0,0,1.9-2.7,4.3-3.6s3.3,0.3,3.3,0.3s0.3-1,0.3-1.9c0-1.3-0.3-2.5-0.3-2.5s0.7,1.7,0.8,2.8
		c0.1,1.1-0.3,3.5-0.3,3.5c0,0-0.8-2.3-2.9-1.7S137.9,152.1,137.9,152.1z"/>
	<path class="st40" d="M145.5,144.5l-0.3-0.3c0,0,2.4-4.9,6.2-7.9c3.8-3,6.9-3.6,6.9-3.6l-0.4,1.4c0,0-4.3,1.6-6.7,3.6
		C147,141.2,145.5,144.5,145.5,144.5z"/>
	<path class="st40" d="M156.2,139.3c0,0,2.2-2,3.2-3.8s1.4-3.2,1.4-3.2s2.1-0.4,4,0.2c1.6,0.4,2.8,1.8,4.6,2.6
		c1.8,0.8,3.2,0.8,4,0.7c0.8-0.1,1.3-0.9,1.3-0.9l1.1-0.3c0,0-0.6,1.2-2,1.8c-1.5,0.5-3.4,0.2-4.7-0.4s-4-2-4-1.9s-0.3,1-0.5,1.5
		s-1.3,1.2-1.3,1.2s0.6-1,0.7-1.4c0.1-0.4,0.1-0.7,0.1-0.7l-0.7-0.2l-0.1-0.7l-1.9-0.3c0,0-0.9,2.1-2,3.2
		C158.2,137.8,156.2,139.3,156.2,139.3z"/>
	<path class="st41" d="M169.1,118.6c0,0,0.5,1.2,0.8,1.5c0.4,0.3,0.8,0.4,0.8,0.4s0.1,2.3,1.3,3c1.2,0.7,2.3,0,2.3,0
		s0.2,2.1,0.2,2.7c0,0.7-0.2,2-0.2,2l0.5,0.1c0,0,0.4-2.2,0.4-3.2c-0.1-1-0.5-3.2-0.5-3.2s-1.8,1-2.5,0.5s-1.3-2.4-1.3-2.4
		L169.1,118.6z"/>
	<path class="st42" d="M168.4,129.3c0,0,0.1,2,1.7,3.1s3.5,1.7,4.5,1.7s2.6-0.6,2.6-0.6s-3.6,0-5.7-1.1
		C169.4,131.2,168.4,129.3,168.4,129.3z"/>
	<g>
		<path class="st43" d="M142.1,144.7c0.4-2.6,1.1-5.2,1.9-7.7c0.9-2.5,1.9-4.9,3.2-7.2c1.3-2.3,2.9-4.5,4.7-6.4
			c1.9-1.9,4-3.5,6.5-4.6l0.2,0.5c-2.3,1-4.5,2.7-6.3,4.5c-1.8,1.9-3.3,4-4.6,6.3c-1.3,2.3-2.4,4.7-3.2,7.1c-0.9,2.5-1.5,5-1.9,7.6
			L142.1,144.7z"/>
	</g>
	<g>
		<path class="st43" d="M145.3,144.3c0.6-1.3,1.4-2.5,2.3-3.6c0.9-1.1,1.9-2.1,3-3c1.1-0.9,2.2-1.7,3.5-2.4c1.2-0.7,2.5-1.3,3.9-1.7
			l0.1,0.7c-1.3,0.3-2.5,0.9-3.7,1.6c-1.2,0.7-2.3,1.5-3.4,2.3c-1.1,0.9-2.1,1.8-2.9,2.9c-0.9,1-1.7,2.2-2.3,3.4L145.3,144.3z"/>
	</g>
	<g>
		<path class="st43" d="M161.1,133.2c1.4,0.1,2.7,0.3,4.1,0.6c1.4,0.4,2.5,1.2,3.7,1.7c1.2,0.5,2.5,0.8,3.8,0.7
			c0.6,0,1.3-0.2,1.8-0.5c0.5-0.3,1-0.8,1.3-1.3l0.4,0.2c-0.3,0.7-0.8,1.2-1.4,1.6c-0.6,0.3-1.3,0.5-2,0.6c-1.4,0.1-2.8-0.3-4.1-0.8
			c-1.2-0.6-2.4-1.4-3.6-1.7c-1.3-0.3-2.7-0.4-3.9-0.4L161.1,133.2z"/>
	</g>
	<g>
		<path class="st43" d="M142.4,145c-1,0.4-1.9,1.4-2.7,2.3c-0.7,1-1.3,2.1-1.8,3.2c-0.3,0.6-0.5,1.1-0.7,1.7l-0.3,0.9l-0.2,0.4
			l-0.1,0.2l0,0.1c0,0,0,0,0,0l0,0c0,0,0,0,0,0c0,0-0.1-0.2-0.2-0.2c-0.1,0-0.1,0-0.1,0l0,0l0,0c0,0,0.2-0.2,0.2-0.3l0.3-0.4
			c0.2-0.2,0.4-0.5,0.6-0.7c0.4-0.5,0.9-0.9,1.4-1.3c1-0.8,2-1.6,3.3-2c0.6-0.2,1.3-0.3,2-0.1c0.7,0.1,1.3,0.6,1.6,1.2
			c0.1,0.1,0.1,0.3,0.2,0.5l0.1,0.2c0,0,0,0,0,0c0,0,0,0,0,0c0,0-0.2,0-0.2,0l0,0c0,0,0,0,0,0l0-0.1c0.1-0.3,0.1-0.6,0.1-0.9
			c0-0.6,0-1.2,0.1-1.9c0-0.6,0-1.2-0.1-1.8c0-0.3-0.1-0.6-0.2-0.9c0-0.1-0.1-0.3-0.2-0.4c0-0.1-0.2-0.3-0.2-0.3l0.2-0.4
			c0.3,0.2,0.3,0.3,0.4,0.5c0.1,0.2,0.2,0.3,0.2,0.5c0.1,0.3,0.2,0.6,0.2,0.9c0.1,0.6,0.1,1.3,0.1,1.9c0,0.6-0.1,1.3-0.2,1.9
			c-0.1,0.3-0.1,0.6-0.2,0.9l0,0.1c0,0,0,0,0,0.1c0,0,0,0,0,0c0,0-0.1,0.1-0.2,0c0,0,0,0-0.1,0c-0.1-0.1,0-0.1,0-0.1l-0.1-0.2
			c-0.1-0.1-0.1-0.3-0.2-0.4c-0.3-0.5-0.8-0.9-1.4-0.9c-0.6-0.1-1.2,0-1.7,0.2c-1.1,0.3-2.2,1-3.1,1.8c-0.5,0.4-0.9,0.8-1.3,1.3
			c-0.2,0.2-0.4,0.5-0.6,0.7l-0.3,0.4c-0.1,0.1-0.2,0.2-0.4,0.4l0,0l0,0c0,0,0,0-0.1,0c-0.1,0-0.2-0.2-0.2-0.2l0,0l0,0
			c0-0.1,0-0.1,0-0.1l0-0.1l0.1-0.2l0.1-0.5l0.3-0.9c0.2-0.6,0.4-1.2,0.7-1.8c0.5-1.2,1.1-2.3,1.8-3.3c0.8-1,1.7-2,3-2.5L142.4,145z
			"/>
	</g>
	<g>
		<path class="st43" d="M158.3,119.4c-0.1-1.3-0.8-2.6-2-3.1c-0.3-0.1-0.6-0.2-1-0.3c-0.1,0-0.2-0.1-0.3-0.2
			c-0.1-0.1-0.1-0.1-0.1-0.3c0-0.1,0-0.1,0.1-0.2c0.1-0.2,0.3-0.3,0.4-0.4c0.6-0.5,1.2-0.8,1.9-1c1.3-0.5,2.9-0.7,4.3-0.1
			c1.4,0.6,2.2,2,2.6,3.4l-0.5,0.1c-0.3-1.3-1.1-2.5-2.3-3.1c-1.2-0.6-2.7-0.4-3.9,0.1c-0.6,0.2-1.3,0.6-1.8,1
			c-0.1,0.1-0.3,0.2-0.3,0.3c0,0,0,0.1,0,0c0-0.1,0,0,0,0c0,0,0.1,0,0.2,0.1c0.3,0.1,0.7,0.1,1,0.3c0.7,0.2,1.4,0.7,1.8,1.3
			c0.4,0.7,0.5,1.4,0.4,2.2L158.3,119.4z"/>
	</g>
	<ellipse transform="matrix(0.2211 -0.9752 0.9752 0.2211 8.7285 263.0534)" class="st43" cx="169" cy="126.1" rx="0.6" ry="0.3"/>
	
		<ellipse transform="matrix(0.2204 -0.9754 0.9754 0.2204 12.6982 268.6199)" class="st43" cx="174.4" cy="126.4" rx="0.6" ry="0.2"/>
	<g>
		<path class="st43" d="M168.6,125.8c0.1-0.3,0.3-0.5,0.6-0.6c0.2,0,0.3,0,0.4,0.1c0.1,0.1,0.2,0.3,0.1,0.4
			C169.3,125.3,169,125.5,168.6,125.8z"/>
	</g>
	<g class="st44">
		<path class="st43" d="M168.2,124.7c0.2-0.3,0.6-0.4,1-0.4c0.4,0,0.7,0.2,1,0.4l-0.1,0.1c-0.3-0.1-0.6-0.2-0.9-0.3
			C168.9,124.5,168.6,124.6,168.2,124.7L168.2,124.7z"/>
	</g>
	<g>
		<path class="st43" d="M168.6,129.3c0.1,0.7,0.4,1.5,0.8,2.1c0.5,0.6,1.1,1.1,1.8,1.4c1.4,0.7,3,1,4.5,0.8c0.8-0.1,1.5-0.3,2-0.8
			c0.5-0.4,0.1-1.3-0.3-1.9c-0.4-0.6-1-1.2-1.6-1.7c-0.6-0.5-1.3-0.8-2-1.3c0.8,0.1,1.6,0.4,2.3,0.9c0.6,0.5,1.2,1.1,1.7,1.7
			c0.2,0.3,0.5,0.7,0.6,1.1c0.1,0.4,0.1,1-0.3,1.3c-0.7,0.6-1.5,0.8-2.3,1c-1.6,0.2-3.3-0.1-4.8-0.9c-1.5-0.8-2.7-2.2-2.8-3.9
			L168.6,129.3z"/>
	</g>
	<g>
		<path class="st43" d="M158.2,133.2c0,1.6-0.8,3.2-1.7,4.4c-0.5,0.6-1,1.3-1.5,1.9c-0.1,0.2-0.2,0.3-0.3,0.5c0,0.1-0.1,0.2-0.1,0.2
			c0,0,0-0.1-0.1-0.1c-0.1,0,0,0,0,0c0.3,0,0.7-0.2,1-0.4c1.3-0.8,2.5-1.8,3.5-3c1-1.2,1.6-2.6,2.5-3.9c-0.1,1.7-1.1,3-2,4.3
			c-1.1,1.2-2.3,2.2-3.7,3c-0.4,0.2-0.7,0.4-1.2,0.5c-0.1,0-0.1,0-0.3-0.1c-0.2-0.1-0.2-0.3-0.1-0.4c0-0.1,0.1-0.2,0.2-0.3
			c0.1-0.2,0.2-0.3,0.4-0.5c0.5-0.6,1-1.2,1.4-1.9c0.4-0.6,0.8-1.3,1.2-2c0.3-0.7,0.6-1.4,0.9-2.2L158.2,133.2z"/>
	</g>
	<g>
		<path class="st43" d="M175,133.8c0.4,0.1,0.7,0.2,1,0.4l0.3,0.2l-0.4,0.1c-0.9,0.3-1.9,0.4-2.8,0.4c-1-0.1-1.9-0.4-2.7-0.8
			c-0.8-0.5-1.5-1.2-1.9-2.1c-0.4-0.9-0.5-1.8-0.5-2.8l0.3,0c-0.1,0.9,0,1.8,0.4,2.6c0.4,0.8,1,1.5,1.8,1.9c0.8,0.4,1.7,0.7,2.6,0.7
			c0.9,0,1.8-0.1,2.6-0.4l-0.1,0.4c-0.2-0.2-0.5-0.3-0.8-0.5L175,133.8z"/>
	</g>
	<g>
		<path class="st43" d="M167.6,129.9c0-0.3,0.2-0.6,0.4-0.8c0.1-0.1,0.3-0.1,0.4-0.2c0.2,0,0.3,0,0.4,0.1c-0.2,0-0.3,0.1-0.4,0.1
			c-0.1,0.1-0.2,0.1-0.3,0.2C168,129.6,167.8,129.8,167.6,129.9z"/>
	</g>
	<g>
		<path class="st43" d="M171.1,133.2c0.4,0,0.8,0.1,1.1,0.4c0.3,0.3,0.3,0.7,0.4,1.1l-0.2,0c-0.1-0.3-0.2-0.7-0.4-0.9
			C171.8,133.6,171.5,133.4,171.1,133.2z"/>
	</g>
	<g>
		<path class="st43" d="M165.2,133.9c-0.1,0.6-0.3,1.1-0.6,1.6c-0.3,0.5-0.7,0.9-1.3,1.2c-0.1,0-0.2,0.1-0.3,0.1c0,0-0.1,0-0.2-0.1
			c0,0,0-0.1,0-0.1c0-0.1,0-0.1,0-0.1c0-0.2,0.1-0.3,0.1-0.4c0.1-0.3,0.1-0.5,0.1-0.8c0-0.2,0-0.5,0-0.8c0-0.1-0.1-0.3-0.1-0.4
			c0-0.1,0-0.1-0.1-0.2c0,0-0.1-0.1,0-0.1l0.4-0.4c0.1,0.2,0.1,0.2,0.2,0.3c0,0.1,0,0.2,0.1,0.2c0,0.1,0,0.3,0,0.4
			c0,0.3,0,0.6,0,0.9c0,0.3-0.1,0.6-0.2,0.8c0,0.1-0.1,0.3-0.1,0.4c0,0.1,0,0.1-0.1,0c0,0,0.1,0,0.1,0c0.4-0.2,0.8-0.6,1.1-1
			c0.3-0.4,0.4-1,0.5-1.5L165.2,133.9z"/>
	</g>
	<g>
		<path class="st43" d="M175,122.9c0.4-0.1,0.8-0.2,1.1-0.5c0.2-0.1,0.3-0.2,0.4-0.4c0.1-0.1,0.1-0.2,0.1-0.2c0,0,0,0,0,0
			c0,0-0.1,0-0.1,0c-0.4,0-0.8,0.1-1.2,0.2c-0.4,0.1-0.7,0.3-1.1,0.5c-0.4,0.2-0.8,0.4-1.2,0.5c-0.5,0.1-1-0.1-1.3-0.4
			c-0.7-0.7-0.9-1.6-1-2.4l0,0l0.1,0.2c-0.3-0.1-0.5-0.3-0.8-0.5c-0.2-0.2-0.5-0.3-0.7-0.6c-0.4-0.5-0.6-1-0.8-1.6l0,0l0-0.1l0,0
			c0.4-1,0.8-2,1.4-2.9c0.2-0.2,0.3-0.4,0.6-0.6c0.2-0.2,0.5-0.3,0.7-0.4c0.5-0.2,1.1-0.4,1.7-0.2l0,0l-0.2,0.1
			c0.1-0.3,0.5-0.6,0.8-0.5c0.2,0,0.4,0.1,0.5,0.3c0.1,0.2,0.1,0.3,0.1,0.5l0,0l-0.1-0.1c0.6,0.2,1,0.6,1.3,1.1
			c0.3,0.5,0.4,1.1,0.4,1.7c0,1.1-0.2,2.2-0.5,3.2l0,0l0-0.2l1.6,2.1l-0.2,0.2l-1.7-2l-0.1-0.1l0-0.1l0,0c0.3-1,0.5-2.1,0.6-3.1
			c0-0.5,0-1-0.3-1.5c-0.3-0.4-0.7-0.8-1.1-1l-0.1-0.1l0-0.1l0,0c-0.1-0.2-0.2-0.4-0.3-0.4c-0.2,0-0.4,0.1-0.5,0.2l-0.1,0.1l-0.1,0
			l0,0c-0.4-0.1-1,0-1.4,0.2c-0.5,0.2-0.9,0.5-1.2,0.9c-0.6,0.9-1,1.8-1.4,2.8l0-0.1l0,0c0.2,0.5,0.4,1,0.7,1.4
			c0.4,0.4,0.8,0.7,1.3,1l0.1,0.1l0,0.1l0,0c0.1,0.8,0.3,1.6,0.9,2.2c0.5,0.6,1.4,0.3,2.1-0.1c0.8-0.4,1.6-0.7,2.5-0.6
			c0.1,0,0.1,0,0.2,0.1c0.1,0.1,0.1,0.2,0.1,0.3c0,0.1-0.1,0.2-0.2,0.3c-0.1,0.2-0.3,0.3-0.5,0.5c-0.4,0.3-0.8,0.4-1.2,0.5
			L175,122.9z"/>
	</g>
	<g>
		<path class="st43" d="M171,120c0.3,0.1,0.7,0.2,1,0.2c0.3,0.1,0.7,0,1,0c0.7-0.1,1.4-0.3,2-0.6l0.1,0.1c-0.6,0.4-1.3,0.6-2.1,0.7
			c-0.4,0.1-0.7,0.1-1.1,0c-0.4,0-0.7-0.1-1.1-0.3L171,120z"/>
	</g>
	<g>
		<path class="st43" d="M170.1,119.7c0.2-0.7,0.4-1.3,0.6-1.9c0.2-0.6,0.5-1.3,0.9-1.9c0.4-0.6,1-1,1.7-1.2c0.3-0.1,0.7-0.2,1-0.2
			c0.4,0,0.7,0.1,1,0.2l0,0.1c-0.3-0.1-0.6-0.2-1-0.2c-0.3,0-0.7,0.1-1,0.3c-0.6,0.2-1.2,0.6-1.6,1.2c-0.3,0.6-0.6,1.2-0.8,1.8
			c-0.2,0.6-0.4,1.3-0.6,1.9L170.1,119.7z"/>
	</g>
	<g class="st45">
		<path class="st43" d="M174,114.5c0.3,0.4,0.5,0.9,0.6,1.4c0.1,0.5,0,1-0.1,1.5c-0.2,1-0.4,2-0.7,2.9l-0.2-0.1
			c0.3-0.9,0.6-1.9,0.7-2.9c0.1-0.5,0.2-1,0.1-1.5C174.4,115.4,174.2,114.9,174,114.5L174,114.5z"/>
	</g>
	<g>
		<path class="st43" d="M174.1,126c0.1-0.2,0.3-0.5,0.6-0.4c0.2,0,0.3,0.2,0.3,0.3c0,0.1,0,0.3-0.1,0.4c-0.1-0.1-0.1-0.2-0.2-0.3
			c0-0.1-0.1-0.1-0.2-0.1C174.5,125.8,174.3,125.9,174.1,126z"/>
	</g>
	<g class="st44">
		<path class="st43" d="M174.1,125c0.2-0.1,0.4-0.2,0.6-0.2c0.2-0.1,0.6,0.1,0.6,0.4l-0.2,0c-0.1-0.1-0.2-0.2-0.4-0.2
			c-0.2,0-0.4,0.1-0.6,0.1L174.1,125z"/>
	</g>
	<path class="st43" d="M169.1,117.1c-0.3-0.1-0.6-0.1-0.9-0.2c-0.7-0.1-1.4-0.2-2.2-0.2c-0.4,0-0.7,0-1.1,0c-0.4,0-0.7,0.1-1.1,0.1
		l-0.1,0.4c0.4,0,0.7,0,1.1-0.1c0.4,0,0.7,0,1.1,0c0.4,0,0.7,0.1,1.1,0.1c0.4,0,0.7,0.1,1.1,0.2c0.3,0.1,0.5,0.1,0.8,0.2
		L169.1,117.1z"/>
	<path class="st43" d="M175,122.1l-0.5,0.2c0,0.1,0.1,0.2,0.1,0.3c0.1,0.4,0.2,0.9,0.3,1.3c0.1,0.5,0.1,1,0.1,1.5c0,0.5,0,1-0.1,1.5
		c0,0.3-0.1,0.5-0.1,0.8c0,0.3-0.1,0.5-0.1,0.8l0.3,0c0.1-0.3,0.1-0.6,0.2-0.8c0-0.3,0.1-0.6,0.1-0.8c0-0.3,0.1-0.5,0.1-0.8
		c0-0.3,0-0.5,0-0.8c0-1.1-0.1-2.1-0.4-3C175,122.2,175,122.1,175,122.1z"/>
</g>
</svg>
